<?xml version="1.0" standalone="no"?>
<!DOCTYPE svg PUBLIC "-//W3C//DTD SVG 1.1//EN" "http://www.w3.org/Graphics/SVG/1.1/DTD/svg11.dtd" >
<svg>
<metadata>
Created by FontForge 20090914 at Fri Feb 24 14:45:24 2012
 By root
Typeface &#194;&#169; (www.kevinandamanda.com). &#60;2007&#62;. All Rights Reserved
</metadata>
<defs>
<font id="PeaCarlisle" horiz-adv-x="40" >
  <font-face 
    font-family="Pea Carlisle"
    font-weight="400"
    font-stretch="normal"
    units-per-em="2048"
    panose-1="2 0 0 0 0 0 0 0 0 0"
    ascent="1638"
    descent="-410"
    x-height="1078"
    cap-height="1773"
    bbox="-604 -1430 2515.04 2135"
    underline-thickness="150"
    underline-position="-142"
    unicode-range="U+0020-U+201D"
  />
<missing-glyph 
 />
    <glyph glyph-name=".notdef" 
 />
    <glyph glyph-name=".null" 
 />
    <glyph glyph-name="nonmarkingreturn" 
 />
    <glyph glyph-name="space" unicode=" " horiz-adv-x="1185" 
 />
    <glyph glyph-name="space" unicode="&#xa0;" horiz-adv-x="1185" 
 />
    <glyph glyph-name="exclam" unicode="!" horiz-adv-x="546" 
d="M456 1656q48 2 50 -70l-208 -1254q5 -168 -67 -170l-48 -1l-49 47q178 1445 226 1446zM118 -129q217 -18 219 -90v-24q-56 -289 -208 -293q-123 121 -126 212q-3 131 115 195z" />
    <glyph glyph-name="quotedbl" unicode="&#x22;" horiz-adv-x="666" 
d="M119 1837q48 2 50 -70q13 -502 87 -574l2 -72l-93 -99h-24l-99 93v24l-33 311l21 145l-30 215l23 25zM503 1848l48 1q55 1 75 -118l-41 -241l32 -336l-70 -50h-24q-96 -3 -137 644z" />
    <glyph glyph-name="numbersign" unicode="#" horiz-adv-x="2247" 
d="M1061 1813h24q36 1 74 -94l-14 -384l5 -192l50 -47l335 9q133 3 573 159l97 -70l2 -48l-971 -505v-24q3 -101 129 -333q3 -120 -213 -126q-74 142 -270 233l-72 -2q-283 -413 -489 -588l-120 -3l-49 47l-1 24q429 383 487 660q-306 280 -583 273l-52 143q-3 120 837 142
q48 1 82 530l-26 71q30 121 165 125zM581 888l-96 -3v-24q118 -141 244 -138l44 146l-24 23l-1 24zM1180 927l-22 -72l26 -72q132 4 212 150zM900 608l24 1l72 25l-6 216q-66 -1 -90 -242z" />
    <glyph glyph-name="dollar" unicode="$" horiz-adv-x="1814" 
d="M730 1279l120 3q73 -22 76 -142q-33 -96 -69 -97l-24 -1q-168 -4 -172 139zM1354 1296l74 -70l2 -72q-46 -98 -142 -100q-121 36 -123 141q98 98 189 101zM1675 944l99 -93q-522 -815 -976 -1226l-120 -27l-24 -1q-153 -4 -301 496q-72 430 -275 425l-74 94l-3 96
q-1 41 142 76q-2 96 46 97l144 4q48 1 53 -215l73 -46l72 26q721 19 1120 293zM655 485l-96 -2l-119 -28q128 -668 281 -664q258 200 629 736l-1 48z" />
    <glyph glyph-name="ampersand" unicode="&#x26;" horiz-adv-x="1549" 
d="M772 2019l75 -94l-43 -193l3 -120h24l430 84l74 -94l2 -48q-37 -97 -166 -101l-336 -9q-71 -25 -68 -145l6 -240h24l334 105l24 1l73 -70l1 -24q-55 -100 -401 -275q-70 -60 -87 -338l27 -96l3 -144l48 2q239 62 688 306l2 -48q-71 -179 -709 -427l2 -71q4 -176 82 -406
l-94 -75l-24 -1q-120 -3 -132 453q-553 47 -560 297q-5 201 442 540q-504 -13 -509 179q-7 283 609 592v24l-34 359q100 75 190 77zM245 1069l1 -48q26 -71 146 -68q239 24 237 102l-6 240l-25 23v24q-233 -101 -353 -273zM291 230q94 -70 218 -67l72 2l46 50l-10 383
l-48 -1q-283 -189 -278 -367z" />
    <glyph glyph-name="quotesingle" unicode="'" horiz-adv-x="342" 
d="M131 1883l96 2l74 -70l1 -72q-138 -209 -135 -339l29 -192l-23 -24l-72 -2q-63 -2 -101 189q24 505 131 508z" />
    <glyph glyph-name="parenleft" unicode="(" horiz-adv-x="829" 
d="M518 1976l72 1l74 -70v-24q-517 -422 -501 -1045q22 -824 553 -921q72 1 73 -47l-190 -77q-556 154 -581 1089q-18 697 500 1094z" />
    <glyph glyph-name="parenright" unicode=")" horiz-adv-x="816" 
d="M186 2064q325 9 572 -777l4 -120q14 -567 -688 -1242h-24l-49 46l-1 24q628 755 618 1168q-13 480 -523 707l-3 120q-2 60 94 74z" />
    <glyph glyph-name="asterisk" unicode="*" horiz-adv-x="1666" 
d="M625 1912l72 2l49 -47v-24q-66 -227 -56 -602l1 -24l418 516l72 1l75 -94l-303 -368l25 -23l1 -24q174 77 622 88l24 -23l1 -24q-907 -225 -904 -312v-24q2 -51 323 -400l-94 -74l-245 186l-24 -25l11 -384l-24 -25l25 -23v-24q4 -124 -68 -146h-24l-49 46l-16 600
l-49 47l-326 -369l-72 -2l-50 47l-1 48l420 467l-1 48l-384 -10l-74 70q11 145 68 146l193 -43l72 2q-3 126 -323 424v24l93 98l24 1q63 -24 371 -423l24 1q18 673 103 675z" />
    <glyph glyph-name="plus" unicode="+" horiz-adv-x="2562" 
d="M2392 1743q121 -45 123 -141q7 -256 -1244 -2001l-96 -2l-49 47l18 216q-1047 954 -1094 1435l-50 95q51 146 188 149l73 -22l71 26q388 10 802 -363l48 1q160 4 1138 558zM265 1351q16 -589 970 -1295l145 -20q548 693 760 1220l-24 24l-72 -2q-103 -3 -521 -302
q-59 -2 -236 -150l-95 -27q-58 -1 -395 398q-215 162 -340 159z" />
    <glyph glyph-name="comma" unicode="," horiz-adv-x="596" 
d="M506 378l49 -47l1 -48q-232 -594 -459 -803l-48 -2l-49 47q276 463 410 827l24 24z" />
    <glyph glyph-name="hyphen" unicode="-" horiz-adv-x="1331" 
d="M1266 1048l25 -23v-24q-824 -286 -1145 -294q-145 52 -146 92l93 98l97 -21z" />
    <glyph glyph-name="hyphen" unicode="&#xad;" horiz-adv-x="1331" 
d="M1266 1048l25 -23v-24q-824 -286 -1145 -294q-145 52 -146 92l93 98l97 -21z" />
    <glyph glyph-name="period" unicode="." horiz-adv-x="474" 
d="M262 304l96 2q72 -22 76 -142q-23 -82 -285 -151q-96 -3 -146 92l-1 48q-2 65 260 151z" />
    <glyph glyph-name="slash" unicode="/" horiz-adv-x="1439" 
d="M1301 1730q96 -21 98 -93l-1138 -1446q4 -151 -138 -244q-111 44 -122 93l-1 24q172 304 602 856q218 384 699 810z" />
    <glyph glyph-name="zero" unicode="0" horiz-adv-x="1338" 
d="M845 1594q453 -141 448 -464l-1 -24q-13 -760 -717 -1212l-145 -21l-48 1q-382 93 -372 654q68 433 349 762q86 27 341 282zM177 501q-5 -298 184 -459l96 -2q355 -6 663 829l27 191q-46 337 -282 341q-678 -324 -688 -900z" />
    <glyph glyph-name="one" unicode="1" horiz-adv-x="298" 
d="M114 1421l72 -2q72 -1 70 -97l-80 -479l-8 -431q-3 -151 66 -338l-97 -70h-24q-105 2 -113 410l1 48q17 960 113 959z" />
    <glyph glyph-name="two" unicode="2" horiz-adv-x="1467" 
d="M1183 1496h24q72 -1 70 -97q-124 -206 -957 -1184l24 -24q1 99 1012 246l71 -73q-112 -70 -700 -228q-79 -65 -579 -157q-109 47 -118 97q2 114 661 781l296 427v24h-48l1 24q-310 -57 -845 -273l-24 1l-71 73l1 48q1 76 604 229q1 72 578 86z" />
    <glyph glyph-name="three" unicode="3" horiz-adv-x="1646" 
d="M1304 1598l46 -97l-392 -425l24 -1l481 16q143 -61 141 -146q-632 -692 -1262 -819l-95 74v24l387 137q467 295 705 540l1 24l-264 5q-257 4 -773 -299l-48 1q-50 11 -94 122q1 98 267 163q394 196 584 470h-24q-205 4 -893 -248q-95 38 -94 74l1 72q2 102 1302 313z" />
    <glyph glyph-name="four" unicode="4" horiz-adv-x="1560" 
d="M1171 1680l72 -1l71 -74q-82 -209 -155 -621l24 -1l218 117l72 -2l47 -48v-24q-33 -66 -413 -257l-30 -360l-6 -312q-1 -86 93 -193v-24l-122 -118l-48 1q-53 1 -117 170l26 119l35 648l-24 24q-549 -254 -748 -251q-96 2 -166 123q2 121 298 547q28 263 100 262l120 -2
l47 -49v-24l-323 -642l23 -25h24q700 187 702 324l107 646z" />
    <glyph glyph-name="five" unicode="5" horiz-adv-x="1569" 
d="M916 1617l48 -1l70 -73q-2 -129 -99 -166l-48 1l-95 25q-578 -102 -584 -421q29 -121 70 -122q745 227 1084 221l96 -1l71 -74q-188 -464 -831 -849q-254 -187 -579 -182l-48 1l-71 73l2 96l49 47l47 -1l72 -49l48 -1q500 80 1044 726l1 48h-24l-1036 -245h-24
q-137 2 -164 267q11 597 901 680z" />
    <glyph glyph-name="six" unicode="6" horiz-adv-x="1346" 
d="M793 1698l71 -73l-2 -72q-682 -583 -693 -1212q30 -169 93 -170q631 681 949 727h24l71 -73l-2 -96q-471 -712 -879 -848q-64 1 -145 -70l-72 1q-61 1 -208 459l1 48q11 631 696 1381zM453 120v-24l24 -1q185 55 488 448h-24q-270 -130 -488 -423z" />
    <glyph glyph-name="seven" unicode="7" horiz-adv-x="1340" 
d="M1253 1530l47 -49l-2 -96q-520 -926 -524 -1167l-2 -96l71 -97l-1 -24q-1 -47 -170 -92q-119 35 -117 169q4 183 478 1216l-24 24l-216 4q-187 3 -674 -132l-48 1l-71 73l1 72q2 106 530 111q1 35 722 83z" />
    <glyph glyph-name="eight" unicode="8" horiz-adv-x="1341" 
d="M1182 1681l72 -1l47 -49q-1 -84 -194 -140q-464 -451 -467 -592q232 -458 230 -580q-7 -386 -538 -542h-48q-215 4 -210 340l1 24q4 213 325 738q-400 478 -398 583l98 142q588 -10 622 -131l-1 -72q-1 -72 -97 -70l-335 54l-25 -24q46 -146 235 -292q472 607 683 612z
M469 710q-225 -475 -227 -596l23 -73l-24 1l70 -121q362 137 367 401q3 186 -161 387z" />
    <glyph glyph-name="nine" unicode="9" horiz-adv-x="985" 
d="M421 1514l71 -2q68 -1 453 -224l-1 -48q-152 -418 -212 -1124l117 -194l-1 -24q-74 -118 -170 -117q-119 36 -117 170l90 1031q-282 -188 -435 -185l-24 1q-192 3 -187 267q76 455 416 449zM221 1061l-1 -48h24q190 -4 314 138q-31 100 -117 146q-183 3 -220 -236z" />
    <glyph glyph-name="colon" unicode=":" horiz-adv-x="377" 
d="M239 1180l24 1l74 -70q-12 -193 -187 -197q-105 -3 -147 116q-3 126 236 150zM251 724l76 -118q-45 -145 -93 -146l-24 -1q-142 -3 -195 139q-4 120 236 126z" />
    <glyph glyph-name="semicolon" unicode=";" horiz-adv-x="676" 
d="M486 1415q146 -52 147 -92q3 -132 -163 -196l-96 -3q-55 -1 -75 118q27 109 187 173zM431 766q111 -44 123 -93l1 -48q-152 -609 -506 -853l-24 -1l-24 24l-1 24q227 169 342 680q17 265 89 267z" />
    <glyph glyph-name="semicolon" unicode="&#x37e;" horiz-adv-x="676" 
d="M486 1415q146 -52 147 -92q3 -132 -163 -196l-96 -3q-55 -1 -75 118q27 109 187 173zM431 766q111 -44 123 -93l1 -48q-152 -609 -506 -853l-24 -1l-24 24l-1 24q227 169 342 680q17 265 89 267z" />
    <glyph glyph-name="question" unicode="?" horiz-adv-x="1054" 
d="M886 1789q123 -147 126 -237q2 -104 -555 -831q-21 -385 -86 -386l-73 70l-9 312q558 713 554 854l-1 48l-145 45q-277 -8 -618 -257l-74 70q-5 206 497 278zM590 220l75 -94q4 -144 -255 -342l-24 -1q-192 -5 -197 187q143 244 401 250z" />
    <glyph glyph-name="at" unicode="@" horiz-adv-x="2545" 
d="M1368 1540q431 12 441 -348l5 -216q-72 -530 -322 -537l-24 -1l-265 66q-251 -295 -401 -299l-72 -2q-61 -2 -125 189q155 532 418 539q-1 42 119 51l264 7l74 -70l2 -72l-46 -73l27 -120l48 2q118 61 130 531q-77 166 -244 162l-264 -7q-760 -20 -944 -649l4 -144
q21 -805 793 -939l72 2q617 66 1398 708l49 -46q-354 -498 -1301 -754l-191 -29q-678 -18 -933 791l-54 215q-26 1007 1342 1043zM843 470l1 -24l48 1q258 223 256 319h-24q-195 -6 -281 -296z" />
    <glyph glyph-name="A" unicode="A" horiz-adv-x="2328" 
d="M1323 1943l72 -2l141 -146v-24l-50 -71l153 -819l24 -1l529 86q96 -38 95 -74l-147 -141l-167 27l-289 -42l-1 -24q-4 -223 318 -942l-1 -72l-49 -47l-72 1q-79 2 -364 1039l-48 1q-721 -63 -727 -346l-251 -571l-48 1l-94 98l300 641l-24 1l-553 -61l-70 97v24l50 71
l71 -25q744 -15 749 249l448 808l-69 145l1 48zM964 749l24 -24q505 97 506 134l-133 579q-145 -153 -397 -689z" />
    <glyph glyph-name="B" unicode="B" horiz-adv-x="1810" 
d="M1617 1787l71 -97q-204 -271 -805 -657h24l649 35l144 -2l70 -74l-1 -72q-14 -727 -980 -1037l-578 -60l-23 24v24l51 143q-144 2 -143 50l5 264l25 24l-24 24l26 120l5 264l35 527q-168 27 -166 147l220 188l167 -27q714 202 1228 192zM281 925l71 -25q549 211 1095 747
v24q-535 10 -1110 -291zM275 637l-3 -168l16 -408l-24 -24q167 -21 166 -99q442 63 821 296q318 302 324 618l2 72l-192 28q-526 10 -1110 -315z" />
    <glyph glyph-name="C" unicode="C" horiz-adv-x="1749" 
d="M936 1712q431 -61 428 -177v-24l-73 -70l-48 1q-81 1 -167 75l-72 1q-584 12 -831 -800l-29 -239q121 -411 400 -416q521 -10 1141 674h24l-2 -96q-588 -709 -1189 -697h-24q-358 7 -494 537l3 144q10 520 595 973z" />
    <glyph glyph-name="D" unicode="D" horiz-adv-x="2052" 
d="M147 1688q1783 -97 1865 -372v-24q-12 -604 -1201 -1296l-435 -136l-72 1q-239 53 -238 125l1 23l52 192l22 1175l-141 147v24zM310 1421l-34 -551q7 -865 79 -866l24 -1q832 237 1264 840q196 194 200 381v24q3 147 -907 257l-120 2q-504 10 -506 -86z" />
    <glyph glyph-name="E" unicode="E" horiz-adv-x="1776" 
d="M1591 1663l23 -24v-24l-98 -71l-23 25q-916 -85 -1278 -288l-6 -336h24q219 -4 1227 192l24 -24l-1 -72l-1279 -312l-3 -168q-3 -152 138 -338l1397 285v-48q-3 -113 -1496 -379l-72 1q-168 3 -166 123l51 143l-22 97l24 23l-41 361l59 575l-23 25v24l75 118l215 -28
q789 129 1251 120z" />
    <glyph glyph-name="F" unicode="F" horiz-adv-x="1520" 
d="M1421 1722l24 -25l-1 -24q-1 -65 -651 -179q-1 -55 -314 -66l-193 -69l-27 -167l-5 -240l47 -73l1301 239l23 -24v-24q-490 -172 -1134 -291q-1 -42 -241 -67l-7 -360q-4 -170 43 -265q-38 -95 -74 -94l-48 1q-72 1 -88 409l26 96l-22 120l24 24l1 24l-93 146l98 118
l5 288q2 84 -115 242q20 71 170 117l72 -26l24 24l24 -1l24 -24l24 -1z" />
    <glyph glyph-name="G" unicode="G" horiz-adv-x="1852" 
d="M1693 1828q119 -36 117 -170l-1 -24q-3 -177 -76 -191h-23l-48 49l27 144l-47 49l-72 1q-357 7 -1017 -460q-393 -460 -399 -761q-10 -527 278 -533l72 -1q628 -12 1021 676l53 239l4 192l-48 1q-118 2 -896 -415l-48 1l-71 97q2 103 1138 506h24l95 -74
q-18 -953 -792 -1256q-337 -138 -627 -132q-357 158 -347 654v24q13 679 886 1159q438 232 797 225z" />
    <glyph glyph-name="H" unicode="H" horiz-adv-x="1652" 
d="M1200 1962q109 -48 118 -98l-89 -887l24 -24l313 42l46 -73q-409 -55 -410 -136l-30 -312l-4 -192q-4 -219 90 -313l-1 -72l-74 -70l-72 1q-96 2 -86 529l9 432l-24 1q-795 -145 -797 -225l-27 -168l18 -288l121 22l22 -73q-1 -77 -171 -164q-168 3 -160 411l24 -1
l-23 25v24l26 119l-43 241q72 -1 158 717l-23 73l98 70l72 -2l70 -73q-101 -275 -157 -669l24 -25h24l794 129l65 863l-22 96z" />
    <glyph glyph-name="I" unicode="I" horiz-adv-x="405" 
d="M221 1773l96 -2q48 -1 47 -73q-187 -999 -193 -1316q-8 -384 160 -387v-24q-35 -98 -123 -142l-48 1q-110 2 -160 411l24 24l1 24l-24 24l171 1389l1 24z" />
    <glyph glyph-name="J" unicode="J" horiz-adv-x="1744" 
d="M2051 1840l24 -24l-1 -24q-1 -80 -819 -152l-24 -24l20 -168l-8 -408q-18 -974 -502 -1142l-120 -22q-621 162 -615 491l2 72l49 47q123 -434 471 -441l96 -1q377 -8 476 1023l-24 24l1 24l24 24q-15 456 -87 457l-747 -153l-96 1l-47 49v24q3 109 869 224l73 70h24
q120 -8 119 -50z" />
    <glyph glyph-name="K" unicode="K" horiz-adv-x="2476" 
d="M204 1834l48 -1l94 -98l-110 -766l-4 -216h24q1081 891 1145 890l47 -73l-1 -48q-189 -213 -561 -421q-487 -405 -489 -471v-24q93 -50 263 -53l264 -5q1207 31 1394 93h24l94 -98q-51 -95 -122 -94l-95 50l-1154 -74l1 24q-146 -45 -433 -39q-295 5 -406 103
q-50 -119 -55 -359l71 -73l-1 -24q-3 -168 -171 -164l-71 49l153 1725l-23 24v24q33 120 74 119z" />
    <glyph glyph-name="L" unicode="L" horiz-adv-x="1753" 
d="M658 1802q109 -48 119 -98l-528 -1214l-51 -167l-1 -72l70 -74l96 -1q469 -9 1111 338l49 47l120 -2l70 -73q-2 -115 -1353 -478q-360 7 -355 247v24q2 91 528 1238q5 288 125 285z" />
    <glyph glyph-name="M" unicode="M" horiz-adv-x="2013" 
d="M1784 1884l96 -2q72 -1 93 -194l-25 -23v-24l23 -25l-169 -1341q-2 -72 94 -73l24 -25l-1 -24l-122 -118l-72 2l-94 122l171 1389l-23 72l-24 1q-237 -262 -697 -1307l-24 -24l-96 2l-71 73l26 120q-29 965 -74 1106h-48q-176 4 -604 -1452l-97 -22l-70 97l171 1413l1 24
l49 47l72 -1l70 -74l-108 -622l48 -1q269 715 496 831l96 -2q125 -2 148 -1059l23 -24l48 -1q521 976 670 1139z" />
    <glyph glyph-name="N" unicode="N" horiz-adv-x="1681" 
d="M1547 1941l94 -98l-1 -48q-151 -367 -288 -1267q-83 -574 -179 -572l-72 2q-40 0 -670 1380l-72 2q-126 -605 -192 -1269l-121 -22l-46 97q139 970 242 1364l-21 168q53 143 195 141q47 -49 67 -290q89 -57 600 -1260h24q99 -2 315 1410l-20 217z" />
    <glyph glyph-name="O" unicode="O" horiz-adv-x="1288" 
d="M847 1701l120 -2q250 -5 281 -342q-16 -861 -551 -1213q-315 -138 -411 -137q-286 94 -281 366l2 72q10 530 428 1072q157 189 412 184zM175 442q11 -289 162 -292q318 -6 633 468l155 573q-31 361 -257 365q-407 -177 -537 -493q-151 -347 -156 -621z" />
    <glyph glyph-name="P" unicode="P" horiz-adv-x="1651" 
d="M1012 1737l240 -4q359 -31 358 -127q-139 -283 -927 -774q-285 -145 -438 -304l19 -264l-1 -48q95 -14 94 -74l-1 -48q-11 -50 -122 -94q-168 3 -157 531l40 840l-117 170q2 117 507 134zM937 1595q-649 -56 -652 -204l-37 -671l24 -1q332 140 1072 820l1 24
q-192 19 -191 52l-25 -24z" />
    <glyph glyph-name="Q" unicode="Q" horiz-adv-x="1902" 
d="M963 1756q494 -9 570 -299l68 -217l-29 -239l24 -25l-1 -24q-128 -434 -324 -618l-1 -48q323 -438 472 -440l73 46l47 -49v-24q-3 -129 -100 -166q-120 2 -613 540h-24q-500 -350 -751 -345q-325 6 -374 535l1 48q15 811 719 1210q84 -2 243 115zM146 476
q27 -480 231 -484q273 -5 654 323l1 48l-306 342q38 95 74 94l72 -1q39 -1 282 -342h24q269 274 276 643q-51 457 -303 462l-459 -135q-487 -349 -495 -783z" />
    <glyph glyph-name="R" unicode="R" horiz-adv-x="2217" 
d="M1026 1618q263 -42 261 -125v-24q-6 -300 -1071 -748v-24q-3 -153 1626 -319l193 44q98 -35 142 -123l-1 -24q0 -36 -97 -70l-1867 276l-2 -96l-26 -96l22 -96l-1 -72l-98 -94h-24l-71 74l33 431l-45 169l1 48l49 71l8 408l-17 360l24 24l96 -2l144 -51q431 64 721 59z
M220 889l47 -49q221 -4 803 561l1 48l-168 27q-673 -52 -676 -203z" />
    <glyph glyph-name="S" unicode="S" horiz-adv-x="1601" 
d="M1240 1644q95 -37 94 -73l-1 -48q-40 -96 -169 -93l-72 25q-891 -176 -895 -367l-2 -72q-1 -79 335 -102l24 23h24l24 -24l288 18l96 -2q575 -42 574 -131l-1 -48q-6 -305 -684 -611l-385 -40q-191 67 -190 123l1 24l49 47h24l118 -75q411 -7 849 440l1 48q2 96 -526 106
l-120 3q-204 4 -313 -42q-383 64 -381 175l2 96q8 411 1236 600z" />
    <glyph glyph-name="T" unicode="T" horiz-adv-x="1461" 
d="M1614 1769l23 -24l-1 -48q-1 -89 -699 -155v-24l-148 -1461l-1 -24l-49 -47l-48 1l-70 73l2 144l116 1030l-44 193l26 95l-24 1l-650 -108l-47 73l1 72l74 71l24 -1q268 -5 1515 139z" />
    <glyph glyph-name="U" unicode="U" horiz-adv-x="1796" 
d="M340 1546l72 -1q72 -2 70 -98q-299 -552 -306 -930q57 -313 138 -315q275 -5 859 992q60 335 222 332l95 -74q-175 -349 -179 -549l-4 -240q35 -360 257 -365h24l168 21l-1 -48q-1 -79 -289 -91q-360 7 -348 655q-447 -606 -639 -756l-192 -44q-287 76 -279 509
q215 1004 332 1002z" />
    <glyph glyph-name="V" unicode="V" horiz-adv-x="1627" 
d="M1443 1752q144 -18 143 -75l-1 -72l-374 -713q-408 -760 -687 -755l-72 1q-179 4 -362 1160l-90 289v24l74 71l72 -1q86 -2 130 -723q101 -466 252 -605l72 -1q292 178 718 1114q5 256 125 286z" />
    <glyph glyph-name="W" unicode="W" horiz-adv-x="2045" 
d="M1837 1827q168 -3 166 -147q-77 -26 -331 -954q-288 -777 -497 -878l-96 2q-255 443 -241 1180q-93 -57 -474 -951q-116 -189 -196 -187q-168 3 -156 626l11 576l30 336l-22 96q38 95 74 95l48 -1l47 -49l-1 -72l-33 -456l23 -72l-27 -120l24 -24l-25 -72l37 -552l24 -1
q66 -1 523 998q67 180 124 190l96 -2q72 -16 68 -193l-8 -408q-6 -314 107 -698l24 -1q146 47 472 855l157 669l-21 145z" />
    <glyph glyph-name="X" unicode="X" horiz-adv-x="1515" 
d="M1404 1748l71 -74v-24q-222 -237 -643 -948l371 -702l-97 -71l-48 1l-301 606l-23 24l-24 1l-567 -733h-24q-119 33 -118 75q614 756 616 828q-175 328 -516 658l-22 72l121 70q111 -2 492 -634l48 -1q167 174 568 853z" />
    <glyph glyph-name="Y" unicode="Y" horiz-adv-x="1388" 
d="M1181 1669l120 -2l47 -49l-1 -24q-1 -97 -197 -260q-372 -648 -386 -1361l21 -168l-24 -24l-96 2l-71 74l63 766q-209 132 -657 805l1 48q1 55 121 69q96 -17 397 -607l188 -172h24q139 568 450 903z" />
    <glyph glyph-name="Z" unicode="Z" horiz-adv-x="2326" 
d="M1219 1615l192 -4q72 -1 71 -97q-68 -254 -446 -688l47 -49l1203 121l-1 -48q-489 -110 -1396 -213q-215 -277 -397 -664q22 -96 142 -99q465 -9 1134 290l47 -49q-687 -394 -1304 -382q-215 35 -212 220q3 113 348 593v24l-23 24v24q-160 -45 -505 -38q-119 35 -116 170
l24 24l24 -1l384 -31q392 -8 507 182q320 426 322 498l-72 25l-818 -104q-119 33 -119 74l2 72q25 72 145 69v-24l24 24l96 -26z" />
    <glyph glyph-name="bracketleft" unicode="[" horiz-adv-x="1814" 
d="M730 1279l120 3q73 -22 76 -142q-33 -96 -69 -97l-24 -1q-168 -4 -172 139zM1354 1296l74 -70l2 -72q-46 -98 -142 -100q-121 36 -123 141q98 98 189 101zM1675 944l99 -93q-522 -815 -976 -1226l-120 -27l-24 -1q-153 -4 -301 496q-72 430 -275 425l-74 94l-3 96
q-1 41 142 76q-2 96 46 97l144 4q48 1 53 -215l73 -46l72 26q721 19 1120 293zM655 485l-96 -2l-119 -28q128 -668 281 -664q258 200 629 736l-1 48z" />
    <glyph glyph-name="bracketright" unicode="]" horiz-adv-x="1814" 
d="M730 1279l120 3q73 -22 76 -142q-33 -96 -69 -97l-24 -1q-168 -4 -172 139zM1354 1296l74 -70l2 -72q-46 -98 -142 -100q-121 36 -123 141q98 98 189 101zM1675 944l99 -93q-522 -815 -976 -1226l-120 -27l-24 -1q-153 -4 -301 496q-72 430 -275 425l-74 94l-3 96
q-1 41 142 76q-2 96 46 97l144 4q48 1 53 -215l73 -46l72 26q721 19 1120 293zM655 485l-96 -2l-119 -28q128 -668 281 -664q258 200 629 736l-1 48z" />
    <glyph glyph-name="a" unicode="a" horiz-adv-x="1507" 
d="M948 1180l120 -25l-1 -48q-480 -164 -749 -570q-146 -249 -147 -383l-1 -96l48 -48h24q458 357 607 835l-24 24v24q28 120 193 118l72 -97l-50 -191q-5 -576 427 -580v-24q-16 -72 -193 -70q-320 3 -380 411h-24q-508 -643 -678 -641h-24q-168 1 -165 289q5 574 776 1025
z" />
    <glyph glyph-name="b" unicode="b" horiz-adv-x="1274" 
d="M207 1793q72 -1 71 -97q-74 -281 -79 -815l-3 -384h24q623 714 894 712l72 -1l48 -48q-8 -893 -658 -1170l-265 -21q-311 69 -309 290l50 287l-23 25l27 407l3 288l26 216l-24 96h24l-23 24l1 120q24 72 144 71zM241 185v-24l48 -49h72q565 -5 679 858l-24 24
q-216 2 -605 -571q-1 -116 -170 -238z" />
    <glyph glyph-name="c" unicode="c" horiz-adv-x="1413" 
d="M777 1269q360 -19 359 -99l-1 -72q-40 -95 -169 -94q-115 73 -263 74q-259 2 -483 -404l-76 -359q-2 -288 286 -291q210 -1 1134 686h24v-24q-605 -639 -1015 -758q0 -48 -216 -47q-312 3 -357 387l2 192q4 490 534 763z" />
    <glyph glyph-name="d" unicode="d" horiz-adv-x="1554" 
d="M1507 2135l24 -1q96 -49 95 -145q-167 -710 -588 -1410q-42 0 -49 -120q77 -361 188 -362l265 94l24 -24v-24q-186 -190 -290 -189h-24q-207 2 -309 362h-24q-417 -451 -652 -449q-167 72 -166 217q5 533 417 1028q183 94 505 140q301 885 584 883zM1017 915l-1 -24h24
q389 561 393 932h-24q-339 -297 -343 -789q-42 1 -49 -119zM169 106l96 -49q579 379 581 619l-23 24l25 120l1 192l-240 2q-435 -377 -440 -908z" />
    <glyph glyph-name="e" unicode="e" horiz-adv-x="1600" 
d="M727 1307l192 -2q307 -3 358 -219q-1 -142 -796 -473q-217 -103 -218 -238v-24q38 -241 213 -242q423 92 1037 495l47 -49q-753 -593 -1061 -590l-120 1q-243 2 -331 506l-48 49q115 147 245 574q159 214 482 212zM314 734h24q369 125 675 306v24l-72 49
q-600 5 -602 -283z" />
    <glyph glyph-name="f" unicode="f" horiz-adv-x="1593" 
d="M971 1961q479 -116 477 -341l-24 -23h-24q-243 170 -455 172q-264 2 -271 -838l24 -24h24q354 -3 1106 230h48l47 -49v-48q-1 -102 -1227 -301l-48 -48l23 -120l-26 -192l22 -264l-97 -71q-124 1 -143 73l51 360l2 192h-24l-361 -21l-95 73v48q1 72 481 92l127 815
q94 287 363 285z" />
    <glyph glyph-name="g" unicode="g" horiz-adv-x="1401" 
d="M1002 1222q359 -82 359 -171l-377 -1868q-165 -383 -579 -379q-419 70 -813 343l73 23q549 -245 741 -246q497 -5 611 1218l75 359l-24 25v24l26 143v48l-48 1q-488 -452 -724 -450h-48q-119 63 -118 194q6 669 846 736zM348 508l72 -25q244 80 628 475l-48 48l-192 2
q-352 3 -460 -500z" />
    <glyph glyph-name="h" unicode="h" horiz-adv-x="1385" 
d="M473 2002l48 -49l-1 -48q-319 -792 -325 -1509l-1 -144h48q50 19 752 1001q110 143 218 142l71 -73v-48q-5 -540 -54 -671l23 -120l-27 -312l120 -25v-24q-2 -129 -98 -167l-120 1q-55 1 -71 120l30 720l25 24v24l-24 24v24l25 96l-23 72h-24q-199 -169 -680 -930
q-167 -166 -266 -165h-48q-60 1 -71 97q6 670 329 1917l24 24z" />
    <glyph glyph-name="i" unicode="i" horiz-adv-x="585" 
d="M353 1817h96q96 -49 95 -145q-34 -99 -121 -143h-24q-96 40 -95 169l1 72zM156 1243h24l96 -73q-100 -435 -105 -959v-96q-1 -87 94 -192q-50 -144 -97 -144l-72 1q-96 40 -95 169l57 959l-46 288z" />
    <glyph glyph-name="j" unicode="j" horiz-adv-x="658" 
d="M451 1807l96 -1q55 0 71 -120q-1 -96 -194 -143l-71 97q1 129 98 167zM398 1208q95 -51 95 -121l-25 -24v-24l24 -24v-24l-25 -24l23 -120l-3 -384q-113 -1559 -637 -1554l-96 1q-168 1 -358 291l1 48l48 47q176 -241 382 -243q267 -2 464 956l52 479q2 186 -114 625
q40 96 169 95z" />
    <glyph glyph-name="k" unicode="k" horiz-adv-x="1970" 
d="M425 2012l72 -73q-295 -735 -299 -1197l48 -1q1181 1017 1330 1093l95 -73v-72q-606 -363 -1282 -1093q-1 -120 1127 -130l120 -1l361 69h24l71 -97q-60 -143 -146 -142l-143 49h-24l-216 -22l-24 24l-72 1v-24l-240 26l-624 5q-184 2 -407 76l-25 -24l-1 -144
q-1 -84 95 -169l-1 -24q-47 -108 -97 -118h-96l-71 72l1 72q6 685 280 1918z" />
    <glyph glyph-name="l" unicode="l" horiz-adv-x="486" 
d="M279 1801l96 -1l71 -73q-274 -1097 -277 -1461q22 -312 70 -312l120 23l24 -25l-1 -48l-121 -119l-120 1q-96 1 -141 337q3 380 228 1414l-22 168q37 96 73 96z" />
    <glyph glyph-name="m" unicode="m" horiz-adv-x="2018" 
d="M1907 1393h24l47 -49v-48q-174 -677 -178 -1126q-1 -72 71 -73l24 -24v-48q-1 -56 -169 -70l-95 120v24q4 387 104 935l-23 25h-24q-292 -367 -462 -692q-279 -334 -411 -333l-71 121l128 887h-48q-532 -808 -656 -906l-97 -23l-71 73l103 839l-21 288l144 47l24 -1
l72 -72l-78 -624l-1 -96l-24 -23v-24l72 -1q197 361 607 835h24q80 -1 168 -74l-128 -887h48l752 953z" />
    <glyph glyph-name="n" unicode="n" horiz-adv-x="1420" 
d="M325 1480q143 -50 143 -98v-24q-223 -721 -225 -982h72q232 523 825 1001l96 -1q144 -16 143 -73v-72l-178 -1127l22 -168l-72 -47q-125 1 -143 73l178 1174v24q-207 2 -387 -308q-111 -68 -438 -693q-160 -190 -265 -189q-96 50 -95 121l73 215l-23 24v24
q175 764 176 959l1 72z" />
    <glyph glyph-name="o" unicode="o" horiz-adv-x="1320" 
d="M755 1532q452 -4 525 -389q-3 -366 -489 -1004q-249 -213 -434 -211h-72q-206 2 -285 314l1 120q5 594 633 1027q0 45 121 143zM945 1314q0 -86 -385 -212q-387 -320 -391 -765q-2 -264 190 -266q280 -2 677 666l75 360q2 131 -166 217z" />
    <glyph glyph-name="p" unicode="p" horiz-adv-x="1811" 
d="M1411 1317q360 -35 359 -123v-72q-896 -1120 -1450 -1115l-129 -983l-120 -23l-71 121l73 167l-23 25q53 630 229 1509q0 72 -72 73l-23 24l1 96l169 214l144 -25q630 115 913 112zM346 246l23 -72q367 -3 1160 878l1 72l-120 25q-984 9 -988 -399z" />
    <glyph glyph-name="q" unicode="q" horiz-adv-x="1417" 
d="M969 1280l120 -1q288 -2 287 -98l-1 -72q-490 -557 -662 -1602l-27 -312q-4 -480 236 -482q184 62 314 189h24q-2 -246 -459 -332q-263 115 -260 506v24q6 680 326 1509l-48 1q-442 -357 -675 -355q-144 51 -143 194l1 48q3 402 606 690zM169 471l24 -24h24
q673 286 822 617l-144 1q-329 3 -627 -355z" />
    <glyph glyph-name="r" unicode="r" horiz-adv-x="1418" 
d="M298 1319l48 -1q55 0 71 -120q-136 -307 -148 -527h24q548 595 1061 591l24 -25v-24l-627 -282q-400 -406 -583 -811l-72 -23q-96 24 -95 96q1 170 175 887l-22 144v24q24 72 144 71z" />
    <glyph glyph-name="s" unicode="s" horiz-adv-x="1480" 
d="M966 1418l72 -1l72 -72l-1 -72q0 -55 -553 -139q-200 -70 -290 -190v-24q-1 -57 1103 -129l71 -97q-2 -231 -725 -546q-99 -71 -457 -92q-107 43 -190 170v48l73 71h48l119 -121h24q405 -4 843 400l1 24l-192 50l-552 5q-432 3 -430 267q129 208 507 332z" />
    <glyph glyph-name="t" unicode="t" horiz-adv-x="1311" 
d="M703 1813l120 -1l72 -72l-1 -48q-86 -105 -196 -478l24 -25l96 -1l216 23l24 -25h24q108 47 312 45l144 -1l48 -48q-142 -62 -938 -184l-52 -480q-2 -231 117 -385l-1 -48l-97 -94h-48q-104 1 -116 409v48l29 527l-384 -44h-48l-48 49l1 96l48 47h24q480 -4 481 140
q94 551 149 550z" />
    <glyph glyph-name="u" unicode="u" horiz-adv-x="1600" 
d="M1233 1266q144 -25 143 -73v-24q-171 -315 -174 -646q78 -313 190 -314l120 47l48 -72q-1 -78 -242 -118q-287 52 -283 530l1 48h-24q-635 -762 -847 -760q-144 1 -165 361q119 983 225 982l96 -1l71 -72q-196 -416 -199 -839l-2 -168l24 -24v-24q461 291 751 810
q201 358 267 357z" />
    <glyph glyph-name="v" unicode="v" horiz-adv-x="1433" 
d="M1202 1490l120 -1l71 -73v-48l-586 -1051l-387 -380l-144 1q-113 1 -186 626l2 312q1 144 -92 432q0 55 121 71q120 -1 141 -337h-24l23 -24l-2 -288q-5 -552 139 -601q384 373 705 1098l-23 24v24q50 216 122 215z" />
    <glyph glyph-name="w" unicode="w" horiz-adv-x="2021" 
d="M1813 1351h96q72 -1 71 -97q-416 -1120 -780 -1361l-96 1q-104 1 -257 770q-412 -577 -631 -786l-25 -24l-72 1q-119 62 -118 192l2 168q3 446 77 624l-24 24l25 120l2 216l73 71l96 -1q36 0 71 -97q-64 1 -151 -814l22 -240q483 486 632 930l24 24l72 -1l144 -49
l-51 -288q-3 -318 163 -577h24q478 535 537 1027q2 168 74 167z" />
    <glyph glyph-name="x" unicode="x" horiz-adv-x="1515" 
d="M1379 1266q96 -37 96 -73l-1 -48l-557 -547v-24l307 -650l-73 -47h-48q-55 1 -283 578l-48 1q-310 -183 -605 -547l-96 1l-71 73v23q122 149 702 618v24q1 156 -308 435v72q25 72 145 71l24 -1q40 -4 308 -458q453 500 508 499z" />
    <glyph glyph-name="y" unicode="y" horiz-adv-x="1694" 
d="M1583 1250l71 -73q0 -63 -657 -1122q-92 -200 -219 -334q-258 -379 -658 -1146l-72 1l-48 48q297 657 707 1242v24q-223 317 -567 989l-48 48l1 48l96 95q181 -1 237 -410q243 -506 378 -627q682 1083 683 1218z" />
    <glyph glyph-name="z" unicode="z" horiz-adv-x="1703" 
d="M179 1078l144 -25l336 21l408 -4q264 -39 263 -122v-48l-315 -286v-24l888 17l216 -2v-48q-636 -19 -865 -89l-24 25h-24q-505 -95 -505 -164q-304 -244 -436 -452l-1 -24q0 -48 72 -48q794 89 962 183l-1 -48q-1 -130 -1034 -303q-218 65 -263 171l485 547l-24 24
l-120 -23l-24 1q-129 1 -167 97q43 120 601 115l290 285l1 48l-240 26l-601 -66l-71 96l1 72z" />
    <glyph glyph-name="asciitilde" unicode="~" horiz-adv-x="2527" 
d="M2388 1080l98 -70l1 -24q-565 -591 -873 -599q-327 -9 -778 388l-145 20q-393 -168 -543 -326l-72 -2q-73 22 -76 142q518 350 807 357l562 -369l217 -43l48 2q254 6 754 524z" />
    <glyph glyph-name="quotedblleft" unicode="&#x201c;" horiz-adv-x="666" 
d="M119 1837q48 2 50 -70q13 -502 87 -574l2 -72l-93 -99h-24l-99 93v24l-33 311l21 145l-30 215l23 25zM503 1848l48 1q55 1 75 -118l-41 -241l32 -336l-70 -50h-24q-96 -3 -137 644z" />
    <glyph glyph-name="quotedblright" unicode="&#x201d;" horiz-adv-x="666" 
d="M603 1835l23 -25l-29 -215l20 -145l-32 -311l-1 -24l-98 -93h-24l-94 99l2 72q74 72 87 574q2 72 50 70zM241 1748q-41 -647 -137 -644h-24l-71 50l33 336l-42 241q20 119 75 118l48 -1z" />
    <glyph glyph-name="quoteleft" unicode="&#x2018;" horiz-adv-x="342" 
d="M131 1883l96 2l74 -70l1 -72q-138 -209 -135 -339l29 -192l-23 -24l-72 -2q-63 -2 -101 189q24 505 131 508z" />
    <glyph glyph-name="quoteright" unicode="&#x2019;" horiz-adv-x="342" 
d="M302 1375q-38 -191 -101 -189l-71 2l-24 24l29 192q4 130 -135 339l2 72l74 70l96 -2q106 -3 130 -508z" />
  </font>
</defs>
</svg>
