<?xml version="1.0" standalone="no"?>
<!DOCTYPE svg PUBLIC "-//W3C//DTD SVG 20010904//EN"
 "http://www.w3.org/TR/2001/REC-SVG-20010904/DTD/svg10.dtd">
<svg version="1.0" xmlns="http://www.w3.org/2000/svg"
 width="1276.000000pt" height="1276.000000pt" viewBox="0 0 1276.000000 1276.000000"
 preserveAspectRatio="xMidYMid meet">
<metadata>
Created by potrace 1.14, written by Peter Selinger 2001-2017
</metadata>
<g transform="translate(0.000000,1276.000000) scale(0.100000,-0.100000)"
fill="#000000" stroke="none">
<path d="M7258 12755 c-2 -2 -82 -6 -178 -9 -96 -4 -215 -9 -265 -11 -84 -4
-220 -10 -460 -21 -212 -8 -919 -3 -930 7 -3 4 -18 4 -33 0 -15 -4 -43 -5 -62
-1 -19 3 -174 5 -345 4 -271 -1 -383 -5 -550 -19 -73 -6 -245 -28 -310 -40
-16 -3 -39 -8 -50 -10 -11 -2 -42 -9 -70 -15 -27 -6 -57 -13 -65 -15 -53 -11
-186 -62 -250 -96 -188 -101 -293 -222 -350 -404 -26 -84 -25 -80 -45 -200
-13 -76 -18 -209 -16 -435 1 -283 3 -314 15 -317 5 -1 12 -6 15 -11 8 -14 0
-1138 -14 -1897 -2 -121 -7 -357 -10 -525 -6 -319 -11 -592 -20 -970 -3 -124
-7 -331 -10 -460 -3 -129 -7 -323 -10 -430 -3 -107 -7 -298 -10 -425 -11 -513
-15 -681 -20 -925 -3 -140 -8 -374 -10 -520 -2 -146 -5 -265 -5 -265 -1 0 -3
-121 -5 -270 -2 -148 -7 -506 -11 -795 -14 -1021 -10 -1747 10 -1925 11 -94
18 -138 33 -205 19 -85 17 -79 27 -105 4 -11 12 -33 18 -50 50 -147 149 -279
271 -363 55 -38 166 -90 210 -97 17 -3 34 -8 37 -10 4 -3 25 -7 46 -10 22 -3
45 -8 53 -11 24 -8 191 -15 466 -19 291 -4 320 -6 480 -39 81 -17 267 -97 295
-126 3 -3 25 -20 49 -38 61 -44 173 -155 251 -249 36 -43 74 -88 85 -102 146
-174 336 -273 610 -315 110 -18 379 -13 480 8 116 24 201 47 253 68 15 6 29
12 32 13 84 28 233 108 345 184 51 35 256 190 265 201 4 4 153 128 185 153 6
4 26 21 45 38 133 116 500 369 500 345 0 -4 10 0 23 8 24 16 91 39 147 52 19
4 37 8 40 9 3 1 34 5 70 9 36 4 76 9 90 11 14 2 61 7 105 10 104 7 158 14 222
26 29 6 54 10 55 9 2 0 29 8 61 19 195 67 331 202 377 372 26 96 30 136 28
299 -5 617 -1 1084 17 1690 2 69 6 231 10 360 3 129 8 296 10 370 3 74 7 218
10 320 3 102 7 246 10 320 3 74 7 200 10 280 3 80 7 208 10 285 3 77 8 192 10
255 8 218 16 420 30 705 3 61 8 148 10 195 2 47 7 157 12 245 4 88 8 421 7
740 0 518 -4 711 -19 1075 -3 58 -7 166 -10 240 -3 74 -7 180 -10 235 -9 184
-15 329 -20 440 -12 290 -17 417 -21 495 -3 47 -6 432 -8 855 -4 883 -7 944
-65 1147 -98 344 -386 568 -801 623 -58 8 -149 18 -195 22 -59 4 -1182 12
-1187 8z m1162 -49 c52 -4 104 -9 115 -11 11 -2 31 -4 45 -4 18 -1 21 -4 11
-10 -7 -5 -28 -5 -47 -1 -19 5 -408 8 -865 8 -456 -1 -832 2 -836 6 -3 3 16 6
43 6 88 1 449 12 451 14 7 6 999 -2 1083 -8z m-1590 -14 c0 -8 -76 -10 -83 -2
-3 3 15 6 39 7 24 1 44 -1 44 -5z m-1600 -12 c0 -6 -54 -10 -152 -11 -187 -1
-383 -5 -587 -13 -237 -9 -186 2 83 19 44 3 81 6 82 8 1 1 131 3 288 5 194 2
286 0 286 -8z m30 0 c0 -5 -4 -10 -10 -10 -5 0 -10 5 -10 10 0 6 5 10 10 10 6
0 10 -4 10 -10z m80 -1 c0 -4 -16 -7 -35 -7 -19 0 -35 3 -35 7 0 4 16 8 35 8
19 0 35 -4 35 -8z m84 0 c3 -3 -13 -5 -34 -5 -22 0 -40 3 -40 7 0 7 67 6 74
-2z m3216 -5 c0 -2 -7 -4 -15 -4 -8 0 -15 4 -15 10 0 5 7 7 15 4 8 -4 15 -8
15 -10z m100 -13 c301 -75 487 -216 598 -451 28 -61 63 -166 76 -235 4 -16 9
-41 11 -55 3 -14 7 -45 10 -70 2 -25 7 -63 9 -85 11 -88 9 -495 -3 -495 -3 0
-7 89 -9 198 -3 257 -9 410 -17 447 -52 244 -120 382 -250 510 -58 57 -187
145 -213 145 -7 0 -12 5 -12 10 0 6 -8 10 -18 10 -10 0 -22 4 -27 8 -9 8 -78
30 -215 70 -61 17 -18 13 60 -7z m-4410 -11 c0 -4 -16 -7 -36 -8 -20 -1 -64
-7 -97 -13 -34 -6 -73 -13 -87 -16 -14 -2 -42 -8 -62 -13 -21 -4 -38 -4 -38 0
0 7 37 17 105 27 17 2 36 6 44 9 7 2 41 7 75 10 33 3 62 7 64 8 5 6 32 2 32
-4z m-332 -51 c-2 -6 -7 -10 -11 -10 -4 0 -56 -17 -116 -38 -160 -56 -284
-139 -368 -247 -50 -64 -143 -290 -126 -307 2 -3 -1 -8 -7 -12 -14 -9 -8 31
16 105 8 25 14 48 14 53 0 15 62 130 97 178 19 28 61 70 92 95 31 24 61 48 68
54 21 17 202 100 220 101 10 0 41 9 68 19 28 10 52 19 53 19 2 1 2 -4 0 -10z
m-633 -665 c-10 -64 -15 -136 -19 -262 -2 -68 -7 -127 -11 -130 -8 -7 1 307 9
343 2 11 5 35 5 53 1 17 6 32 12 32 6 0 8 -14 4 -36z m2685 -40 c0 -8 -19 -13
-24 -6 -3 5 1 9 9 9 8 0 15 -2 15 -3z m624 -3 c3 -4 -6 -6 -19 -3 -14 2 -25 6
-25 8 0 8 39 4 44 -5z m36 -11 c0 -5 -2 -10 -4 -10 -3 0 -8 5 -11 10 -3 6 -1
10 4 10 6 0 11 -4 11 -10z m128 -35 c34 -10 62 -21 62 -24 0 -4 -34 4 -75 17
-41 13 -75 29 -75 34 0 7 4 7 13 0 6 -5 40 -18 75 -27z m-918 15 c-8 -5 -19
-10 -25 -10 -5 0 -3 5 5 10 8 5 20 10 25 10 6 0 3 -5 -5 -10z m1040 -65 c17
-9 30 -18 30 -21 0 -2 -12 2 -27 9 -16 8 -35 17 -43 20 -10 4 -11 6 -2 6 7 1
26 -6 42 -14z m90 -50 c22 -14 40 -28 40 -30 0 -4 -75 39 -89 51 -15 13 16 0
49 -21z m-1390 11 c0 -2 -7 -7 -16 -10 -8 -3 -12 -2 -9 4 6 10 25 14 25 6z
m-54 -29 c-10 -7 -55 -39 -100 -71 -45 -32 -72 -49 -61 -37 20 24 162 121 173
120 4 0 -2 -6 -12 -12z m1525 -34 c13 -17 13 -17 -6 -3 -11 8 -22 16 -24 17
-2 2 0 3 6 3 6 0 17 -8 24 -17z m40 -30 c13 -16 12 -17 -3 -4 -17 13 -22 21
-14 21 2 0 10 -8 17 -17z m-1751 -66 c0 -2 -12 -14 -27 -28 l-28 -24 24 28
c23 25 31 32 31 24z m1851 -14 c13 -16 12 -17 -3 -4 -10 7 -18 15 -18 17 0 8
8 3 21 -13z m64 -63 l40 -45 -42 40 c-24 21 -43 43 -43 49 0 5 1 7 3 5 1 -2
20 -24 42 -49z m-3985 3 c0 -5 -5 -15 -10 -23 -8 -12 -10 -11 -10 8 0 12 5 22
10 22 6 0 10 -3 10 -7z m-7 -68 c-7 -21 -12 -19 -10 4 0 11 5 18 9 15 4 -3 5
-11 1 -19z m4052 5 c3 -6 -1 -7 -9 -4 -18 7 -21 14 -7 14 6 0 13 -4 16 -10z
m54 -75 c-3 -2 -16 10 -29 28 l-23 32 29 -27 c15 -15 26 -30 23 -33z m-4097
15 c3 -18 0 -30 -6 -30 -6 0 -12 14 -12 30 -1 17 2 30 6 30 4 0 10 -13 12 -30z
m4160 -103 c76 -119 179 -345 178 -390 -1 -7 -16 29 -34 78 -38 106 -104 235
-163 323 -23 34 -39 62 -35 62 4 0 28 -33 54 -73z m-1717 43 c-3 -5 -12 -10
-18 -10 -7 0 -6 4 3 10 19 12 23 12 15 0z m-631 -55 c-9 -14 -18 -25 -21 -25
-5 0 5 18 20 38 17 22 18 13 1 -13z m546 -9 c0 -2 -8 -10 -17 -17 -16 -13 -17
-12 -4 4 13 16 21 21 21 13z m3737 -51 c0 -8 -4 -12 -9 -9 -5 3 -6 10 -3 15 9
13 12 11 12 -6z m-4327 -15 c-6 -11 -13 -20 -16 -20 -2 0 0 9 6 20 6 11 13 20
16 20 2 0 0 -9 -6 -20z m530 -4 c0 -2 -7 -7 -16 -10 -8 -3 -12 -2 -9 4 6 10
25 14 25 6z m-550 -34 c0 -5 -7 -17 -15 -28 -14 -18 -14 -17 -4 9 12 27 19 34
19 19z m520 5 c0 -2 -10 -12 -22 -23 l-23 -19 19 23 c18 21 26 27 26 19z
m-559 -93 c-8 -19 -17 -30 -19 -24 -4 10 23 60 32 60 2 0 -4 -16 -13 -36z
m-38 -99 c-3 -9 -8 -14 -10 -11 -3 3 -2 9 2 15 9 16 15 13 8 -4z m-22 -58
c-10 -9 -11 -8 -5 6 3 10 9 15 12 12 3 -3 0 -11 -7 -18z m2696 -59 c-3 -8 -6
-5 -6 6 -1 11 2 17 5 13 3 -3 4 -12 1 -19z m10 -33 c0 -8 -4 -12 -9 -9 -5 3
-6 10 -3 15 9 13 12 11 12 -6z m-2750 -167 c-3 -8 -6 -5 -6 6 -1 11 2 17 5 13
3 -3 4 -12 1 -19z m-5 -163 c3 -13 1 -22 -3 -19 -9 5 -13 44 -5 44 2 0 6 -11
8 -25z m8 -70 c0 -5 -5 -3 -10 5 -5 8 -10 20 -10 25 0 6 5 3 10 -5 5 -8 10
-19 10 -25z m2757 -77 c-3 -8 -6 -5 -6 6 -1 11 2 17 5 13 3 -3 4 -12 1 -19z
m-15 -50 c-8 -8 -9 -4 -5 13 4 13 8 18 11 10 2 -7 -1 -18 -6 -23z m-2724 -3
c-3 -3 -9 2 -12 12 -6 14 -5 15 5 6 7 -7 10 -15 7 -18z m9 -30 c0 -8 -4 -12
-9 -9 -5 3 -6 10 -3 15 9 13 12 11 12 -6z m2686 -80 c-3 -9 -8 -14 -10 -11 -3
3 -2 9 2 15 9 16 15 13 8 -4z m-115 -240 c-6 -14 -13 -23 -15 -21 -5 5 15 46
22 46 3 0 -1 -11 -7 -25z m1907 5 c3 -5 1 -10 -4 -10 -6 0 -11 5 -11 10 0 6 2
10 4 10 3 0 8 -4 11 -10z m-6092 -35 c-3 -9 -8 -14 -10 -11 -3 3 -2 9 2 15 9
16 15 13 8 -4z m6091 -11 c3 -8 2 -12 -4 -9 -6 3 -10 10 -10 16 0 14 7 11 14
-7z m-1962 -66 c-63 -118 -104 -190 -139 -245 -18 -29 -33 -56 -33 -61 0 -5
-7 -16 -17 -23 -15 -13 -15 -12 -3 11 7 14 24 42 37 63 13 21 33 54 44 73 10
19 29 51 41 72 23 40 60 108 84 154 8 15 17 28 20 28 2 0 -13 -33 -34 -72z
m-2338 16 c3 -8 2 -12 -4 -9 -6 3 -10 10 -10 16 0 14 7 11 14 -7z m4297 -37
c-10 -9 -11 -8 -5 6 3 10 9 15 12 12 3 -3 0 -11 -7 -18z m-4258 -32 c9 -19 15
-35 13 -35 -2 0 -13 16 -25 35 -11 19 -17 35 -13 35 5 0 16 -16 25 -35z m4264
-4 c0 -11 -5 -18 -9 -15 -4 3 -5 11 -1 19 7 21 12 19 10 -4z m-4196 -111 c13
-25 27 -47 30 -50 3 -3 25 -39 50 -80 24 -41 47 -76 51 -78 5 -2 8 -8 8 -13 0
-6 17 -36 38 -67 51 -76 164 -264 238 -397 12 -22 55 -98 95 -170 40 -71 91
-166 113 -210 22 -44 43 -82 46 -85 4 -3 35 -63 71 -135 35 -71 66 -132 69
-135 20 -18 170 -393 170 -424 0 -20 -17 9 -30 54 -8 25 -20 56 -27 70 -7 14
-13 28 -13 31 0 4 -10 28 -22 55 -12 27 -23 51 -23 54 -5 16 -43 100 -95 205
-32 66 -64 131 -70 145 -6 14 -16 34 -23 45 -7 11 -34 61 -60 110 -46 87 -86
161 -174 318 -56 98 -242 410 -299 498 -24 38 -44 72 -44 74 0 3 -12 24 -27
48 -57 91 -71 114 -98 162 -15 28 -21 43 -13 35 9 -8 26 -35 39 -60z m-1904
38 c-3 -8 -6 -5 -6 6 -1 11 2 17 5 13 3 -3 4 -12 1 -19z m6105 -81 c3 -37 2
-69 -1 -71 -3 -2 -7 30 -9 72 -4 94 4 93 10 -1z m8 -107 c0 -11 -4 -20 -9 -20
-5 0 -7 9 -4 20 3 11 7 20 9 20 2 0 4 -9 4 -20z m-6110 -30 c0 -5 -2 -10 -4
-10 -3 0 -8 5 -11 10 -3 6 -1 10 4 10 6 0 11 -4 11 -10z m3901 -55 c-17 -25
-31 -48 -31 -50 0 -3 -16 -29 -35 -59 -19 -30 -35 -58 -35 -61 0 -4 -12 -25
-27 -48 -32 -48 -39 -60 -85 -137 -17 -30 -40 -68 -50 -85 -10 -16 -21 -38
-24 -47 -4 -10 -10 -18 -15 -18 -5 0 -9 -4 -9 -10 0 -5 -19 -42 -43 -82 -23
-40 -51 -91 -62 -113 -11 -22 -22 -42 -25 -45 -12 -12 -159 -300 -213 -418
-85 -184 -163 -395 -213 -573 -9 -33 -19 -57 -21 -55 -6 6 51 204 93 321 51
144 69 190 74 195 3 3 6 11 8 18 7 36 182 393 260 532 115 203 303 514 314
518 4 2 8 8 8 13 0 13 152 260 157 255 3 -3 -9 -26 -26 -51z m2206 3 c-2 -13
-4 -5 -4 17 -1 22 1 32 4 23 2 -10 2 -28 0 -40z m-6110 -23 c0 -8 -4 -12 -9
-9 -5 3 -6 10 -3 15 9 13 12 11 12 -6z m6118 -15 c3 -5 1 -10 -4 -10 -6 0 -11
5 -11 10 0 6 2 10 4 10 3 0 8 -4 11 -10z m3 -105 c0 -25 -3 -43 -6 -41 -7 8
-7 86 1 86 4 0 6 -20 5 -45z m-6123 -14 c3 -5 2 -12 -3 -15 -5 -3 -9 1 -9 9 0
17 3 19 12 6z m6122 -78 c-3 -10 -5 -4 -5 12 0 17 2 24 5 18 2 -7 2 -21 0 -30z
m-6117 23 c0 -3 -4 -8 -10 -11 -5 -3 -10 -1 -10 4 0 6 5 11 10 11 6 0 10 -2
10 -4z m-7 -51 c-7 -21 -12 -19 -10 4 0 11 5 18 9 15 4 -3 5 -11 1 -19z m6134
-40 c1 -19 -1 -36 -5 -39 -4 -2 -7 16 -7 40 -1 50 7 50 12 -1z m-6127 11 c0
-3 -4 -8 -10 -11 -5 -3 -10 -1 -10 4 0 6 5 11 10 11 6 0 10 -2 10 -4z m-8 -81
c-2 -14 -6 -25 -8 -25 -2 0 -4 11 -4 25 0 14 4 25 9 25 4 0 6 -11 3 -25z
m6138 -15 c0 -5 -5 -10 -11 -10 -5 0 -7 5 -4 10 3 6 8 10 11 10 2 0 4 -4 4
-10z m-6143 -42 c-3 -8 -6 -5 -6 6 -1 11 2 17 5 13 3 -3 4 -12 1 -19z m6140
-40 c-2 -13 -4 -3 -4 22 0 25 2 35 4 23 2 -13 2 -33 0 -45z m-6140 0 c-3 -8
-6 -5 -6 6 -1 11 2 17 5 13 3 -3 4 -12 1 -19z m0 -40 c-3 -8 -6 -5 -6 6 -1 11
2 17 5 13 3 -3 4 -12 1 -19z m6150 -48 c1 -33 -1 -60 -5 -60 -4 0 -8 27 -9 60
-1 33 1 60 5 60 4 0 8 -27 9 -60z m-6150 8 c-3 -8 -6 -5 -6 6 -1 11 2 17 5 13
3 -3 4 -12 1 -19z m0 -60 c-3 -8 -6 -5 -6 6 -1 11 2 17 5 13 3 -3 4 -12 1 -19z
m-2 -67 c0 -27 -3 -47 -6 -45 -5 2 -5 81 0 92 4 10 6 -5 6 -47z m6157 -18 c4
-70 -8 -88 -13 -20 -4 42 0 92 6 85 2 -1 5 -31 7 -65z m-6157 -53 c3 -5 1 -10
-4 -10 -6 0 -11 5 -11 10 0 6 2 10 4 10 3 0 8 -4 11 -10z m0 -30 c3 -5 1 -10
-4 -10 -6 0 -11 5 -11 10 0 6 2 10 4 10 3 0 8 -4 11 -10z m6162 -53 c14 -404
17 -602 18 -1047 0 -289 -4 -631 -9 -760 -5 -129 -8 -250 -8 -267 0 -18 -4
-33 -7 -33 -4 0 -6 60 -3 133 5 187 5 1635 0 1855 -3 100 -3 180 1 177 3 -4 7
-30 8 -58z m-6162 23 c3 -5 1 -10 -4 -10 -6 0 -11 5 -11 10 0 6 2 10 4 10 3 0
8 -4 11 -10z m-8 -187 c-2 -32 -3 -6 -3 57 0 63 1 89 3 58 2 -32 2 -84 0 -115z
m-5 -105 c-10 -10 -10 -8 -2 37 1 6 4 2 7 -9 3 -10 0 -23 -5 -28z m4 -108 c-1
-49 -4 -90 -7 -90 -3 0 -5 41 -5 90 1 50 4 90 7 90 3 0 6 -40 5 -90z m-5 -222
c-1 -62 -4 -115 -7 -117 -3 -3 -4 50 -3 118 0 67 3 120 6 117 3 -3 5 -56 4
-118z m-1 -137 c0 -6 -4 -12 -8 -15 -5 -3 -9 1 -9 9 0 8 4 15 9 15 4 0 8 -4 8
-9z m-4 -71 c0 -22 -4 -40 -7 -40 -3 0 -6 18 -5 40 0 22 4 40 7 40 3 0 6 -18
5 -40z m2938 -59 c-7 -8 -14 6 -19 40 l-5 34 14 -35 c7 -19 12 -37 10 -39z
m-2942 -122 c-2 -72 -6 -129 -9 -126 -12 12 -2 257 10 257 1 0 1 -59 -1 -131z
m2966 58 c6 -20 7 -35 2 -32 -4 2 -10 15 -13 27 -2 13 -8 32 -12 43 -6 14 -5
17 3 10 5 -5 15 -27 20 -48z m32 -92 c0 -5 -5 -3 -10 5 -5 8 -10 20 -10 25 0
6 5 3 10 -5 5 -8 10 -19 10 -25z m60 31 c0 -3 -4 -8 -10 -11 -5 -3 -10 -1 -10
4 0 6 5 11 10 11 6 0 10 -2 10 -4z m-3060 -156 c0 -11 -4 -20 -9 -20 -5 0 -7
9 -4 20 3 11 7 20 9 20 2 0 4 -9 4 -20z m-3 -65 c-1 -19 -4 -35 -8 -35 -5 0
-5 56 0 68 5 11 9 -4 8 -33z m-2 -89 c0 -25 -3 -47 -6 -51 -5 -4 -5 82 0 93 5
10 7 -5 6 -42z m1 -86 c0 -11 -4 -20 -8 -20 -4 0 -8 9 -8 20 0 11 4 20 8 20 4
0 8 -9 8 -20z m-6 -167 c-2 -162 -2 -153 -13 -153 -5 0 -6 7 -3 16 3 9 6 75 6
146 0 72 3 129 6 125 3 -3 5 -63 4 -134z m1293 110 c-7 -2 -19 -2 -25 0 -7 3
-2 5 12 5 14 0 19 -2 13 -5z m77 -9 c0 -3 -13 -3 -29 -2 -16 1 -28 5 -26 9 5
6 55 0 55 -7z m93 -9 c20 -4 40 -11 42 -15 3 -5 -9 -5 -27 0 -17 5 -46 11 -65
12 -18 1 -33 6 -33 11 0 5 10 7 23 4 12 -3 39 -9 60 -12z m282 -103 c-3 -3
-11 0 -18 7 -9 10 -8 11 6 5 10 -3 15 -9 12 -12z m-657 -37 c-3 -3 -9 2 -12
12 -6 14 -5 15 5 6 7 -7 10 -15 7 -18z m733 -2 c13 -17 13 -17 -6 -3 -11 8
-22 16 -24 17 -2 2 0 3 6 3 6 0 17 -8 24 -17z m159 -100 c0 -3 -15 5 -32 16
-18 12 -50 32 -70 44 -21 12 -38 25 -38 30 0 4 32 -14 70 -39 39 -26 70 -49
70 -51z m-763 42 c20 -8 33 -18 30 -21 -6 -7 -77 23 -77 31 0 8 9 6 47 -10z
m467 -64 c129 -65 158 -87 187 -143 36 -70 27 -157 -27 -254 -42 -76 -77 -111
-184 -183 -145 -98 -150 -96 -150 62 0 61 2 108 4 106 2 -2 7 -38 11 -79 7
-93 12 -131 17 -136 6 -5 102 47 106 57 2 5 8 9 13 9 29 0 139 117 176 187 58
107 52 206 -17 273 -37 36 -192 118 -272 143 -21 7 -37 -12 -40 -47 -1 -14 -6
-26 -10 -26 -12 0 -1 72 14 81 26 17 56 8 172 -50z m1186 30 c0 -5 -10 -11
-22 -14 -22 -6 -22 -6 -4 8 23 17 26 18 26 6z m2044 1 c3 -5 -1 -9 -9 -9 -8 0
-12 4 -9 9 3 4 7 8 9 8 2 0 6 -4 9 -8z m90 -32 c7 -7 1 -7 -19 -1 -54 17 -61
21 -25 16 19 -3 39 -10 44 -15z m-5014 -170 c-1 -99 -5 -178 -9 -176 -4 3 -6
24 -5 48 2 24 3 103 3 176 1 72 3 132 6 132 3 0 5 -81 5 -180z m2028 160 c12
-19 11 -20 -8 -8 -20 13 -27 28 -12 28 4 0 13 -9 20 -20z m2717 10 c-11 -5
-27 -9 -35 -9 -9 0 -8 4 5 9 11 5 27 9 35 9 9 0 8 -4 -5 -9z m-80 -19 c-6 -4
-23 -11 -40 -14 l-30 -6 30 14 c35 16 54 19 40 6z m-1620 -20 c3 -5 2 -12 -3
-15 -5 -3 -9 1 -9 9 0 17 3 19 12 6z m1540 0 c-9 -8 -36 -10 -30 -2 2 4 11 8
20 8 8 0 13 -3 10 -6z m-3070 -22 c-6 -33 -15 -36 -15 -6 0 15 4 27 9 27 6 0
8 -10 6 -21z m1125 -6 c8 -8 7 -74 -2 -79 -8 -5 -12 15 -9 47 1 10 -13 22 -36
32 l-38 15 40 -5 c22 -3 42 -7 45 -10z m2437 -15 c-3 -8 -6 -5 -6 6 -1 11 2
17 5 13 3 -3 4 -12 1 -19z m-2030 -10 c-3 -8 -6 -5 -6 6 -1 11 2 17 5 13 3 -3
4 -12 1 -19z m-209 -23 c-3 -3 -9 2 -12 12 -6 14 -5 15 5 6 7 -7 10 -15 7 -18z
m-1322 -15 c-3 -43 -14 -48 -14 -6 0 20 4 36 8 36 5 0 7 -13 6 -30z m2135 -2
c-16 -18 -39 -44 -51 -58 -141 -165 -266 -305 -366 -408 -141 -145 -158 -151
-161 -56 -1 31 0 54 2 52 4 -4 13 -54 14 -80 1 -10 4 -18 9 -18 9 0 169 156
231 226 24 27 67 74 95 104 29 30 76 84 106 120 83 98 132 150 142 150 5 0 -5
-15 -21 -32z m-596 13 c3 -5 1 -12 -5 -16 -5 -3 -10 1 -10 9 0 18 6 21 15 7z
m-210 -49 c3 -18 2 -32 -2 -32 -5 0 -9 16 -10 36 -2 43 4 41 12 -4z m1430 23
c-16 -8 -52 -24 -80 -35 -27 -11 -58 -25 -67 -30 -10 -6 -18 -6 -18 -1 0 5 19
17 43 26 23 9 53 22 67 28 14 5 31 11 38 13 8 1 16 5 20 8 3 3 10 6 16 5 6 0
-2 -7 -19 -14z m-1215 -40 c0 -8 -2 -15 -4 -15 -2 0 -6 7 -10 15 -3 8 -1 15 4
15 6 0 10 -7 10 -15z m-1543 -22 c1 -24 1 -25 -7 -8 -11 26 -12 35 -2 35 4 0
8 -12 9 -27z m-250 -15 c-3 -8 -6 -5 -6 6 -1 11 2 17 5 13 3 -3 4 -12 1 -19z
m1150 -125 c-6 -136 -14 -248 -22 -298 -2 -11 -4 -37 -4 -57 -1 -21 -6 -38
-11 -38 -6 0 -8 10 -5 23 2 12 7 51 10 87 3 36 8 97 11 135 7 74 12 156 13
243 1 28 4 52 7 52 4 0 4 -66 1 -147z m1401 113 c-13 -19 -24 -33 -26 -32 -5
5 33 66 41 66 4 0 -3 -15 -15 -34z m-967 -3 c1 -16 3 -46 5 -68 9 -83 3 -887
-6 -878 -3 2 -6 215 -6 473 -1 258 -4 475 -7 484 -4 9 -2 16 3 16 6 0 10 -12
11 -27z m1248 23 c-10 -9 -69 -36 -69 -32 0 7 52 35 64 36 5 0 7 -2 5 -4z
m681 -26 c-8 -5 -22 -9 -30 -9 -10 0 -8 3 5 9 27 12 43 12 25 0z m-3514 -80
c0 -44 -3 -80 -6 -80 -4 0 -6 36 -6 80 1 44 4 80 7 80 3 0 5 -36 5 -80z m254
64 c0 -8 -5 -12 -10 -9 -6 4 -8 11 -5 16 9 14 15 11 15 -7z m2500 3 c0 -2 -11
-14 -25 -27 -14 -13 -25 -21 -25 -17 0 3 10 15 22 27 21 19 28 24 28 17z m707
-3 c-2 -2 -15 -7 -27 -9 -33 -6 -177 -55 -225 -75 -46 -20 -89 -57 -99 -84
-13 -36 -16 -9 -4 30 l13 39 154 50 c139 46 202 62 188 49z m-2557 -52 c0 -29
-6 -56 -16 -68 -15 -18 -15 -18 -5 3 6 12 11 42 11 67 0 25 2 46 5 46 3 0 5
-22 5 -48z m-645 -2 c3 -5 1 -10 -4 -10 -6 0 -11 5 -11 10 0 6 2 10 4 10 3 0
8 -4 11 -10z m2238 -8 c-10 -10 -20 -17 -22 -16 -6 5 20 34 30 34 5 0 1 -8 -8
-18z m-2238 -52 c2 -18 1 -29 -2 -26 -4 3 -8 20 -10 38 -2 17 -1 29 2 26 3 -3
7 -20 10 -38z m-1525 0 c0 -5 -5 -10 -11 -10 -5 0 -7 5 -4 10 3 6 8 10 11 10
2 0 4 -4 4 -10z m3720 -4 c0 -2 -8 -10 -17 -17 -16 -13 -17 -12 -4 4 13 16 21
21 21 13z m-3724 -42 c-4 -9 -9 -15 -11 -12 -3 3 -3 13 1 22 4 9 9 15 11 12 3
-3 3 -13 -1 -22z m6201 -96 c-2 -24 -4 -5 -4 42 0 47 2 66 4 43 2 -24 2 -62 0
-85z m-4056 89 c-10 -9 -11 -8 -5 6 3 10 9 15 12 12 3 -3 0 -11 -7 -18z m1869
-24 c0 -8 -50 22 -54 33 -3 9 7 5 24 -8 17 -12 30 -23 30 -25z m-2743 7 c-1
-11 -4 -20 -7 -20 -3 0 -4 -41 -3 -90 1 -50 -1 -88 -5 -86 -4 2 -6 46 -4 98 2
51 3 101 3 111 0 9 4 15 9 12 5 -3 8 -14 7 -25z m-1270 -20 c1 -11 -2 -20 -5
-20 -4 0 -8 9 -9 20 -1 11 2 20 5 20 4 0 8 -9 9 -20z m4124 -90 c-1 -36 -4
-78 -6 -95 -2 -16 -7 -58 -10 -93 -6 -72 -17 -93 -57 -116 -35 -21 -36 -13 -2
21 43 42 49 66 59 228 4 55 9 103 12 108 2 4 -2 7 -9 7 -8 0 -23 7 -34 15 -17
14 -16 14 15 2 l35 -13 -3 -64z m239 28 c-4 -49 -5 -50 -8 -14 -3 34 2 66 10
66 2 0 1 -24 -2 -52z m-750 19 c0 -2 -10 -12 -22 -23 l-23 -19 19 23 c18 21
26 27 26 19z m-3617 -49 c-1 -18 -2 -68 -2 -110 -1 -43 -4 -78 -8 -78 -5 0 -7
49 -5 110 2 60 6 110 10 110 4 0 6 -15 5 -32z m6204 -23 c0 -8 -4 -12 -9 -9
-5 3 -6 10 -3 15 9 13 12 11 12 -6z m-2674 -27 c-16 -18 -44 -50 -63 -70 -18
-21 -38 -38 -44 -38 -6 0 21 32 59 70 73 74 97 93 48 38z m837 -5 c0 -5 -5
-15 -10 -23 -8 -12 -10 -11 -10 8 0 12 5 22 10 22 6 0 10 -3 10 -7z m1835 -32
c3 -5 2 -12 -3 -15 -5 -3 -9 1 -9 9 0 17 3 19 12 6z m-1826 -111 c8 -4 53 -7
102 -7 49 0 92 -2 96 -6 11 -12 -120 -15 -172 -4 -48 10 -55 20 -54 77 l2 45
6 -48 c4 -27 13 -52 20 -57z m-2429 86 c0 -2 -8 -10 -17 -17 -16 -13 -17 -12
-4 4 13 16 21 21 21 13z m4247 -43 c-3 -10 -5 -4 -5 12 0 17 2 24 5 18 2 -7 2
-21 0 -30z m-4287 7 c0 -5 -5 -10 -10 -10 -6 0 -16 -5 -23 -10 -7 -6 -48 -37
-92 -69 -44 -32 -91 -70 -103 -84 l-24 -25 38 -36 c21 -20 47 -39 58 -42 11
-4 26 -13 34 -20 15 -16 9 -18 -16 -5 -9 5 -34 17 -55 27 -46 23 -63 41 -71
74 -6 22 1 30 56 67 35 24 95 65 133 93 78 55 75 54 75 40z m-645 -19 c3 -5 2
-12 -3 -15 -5 -3 -9 1 -9 9 0 17 3 19 12 6z m2139 -23 c-11 -13 -40 -46 -64
-73 -80 -89 -112 -129 -148 -182 -29 -44 -33 -55 -22 -68 7 -8 17 -15 22 -15
21 0 525 -318 626 -396 25 -19 52 -44 60 -55 8 -12 -14 2 -49 30 -73 59 -293
207 -359 242 -25 13 -47 26 -50 29 -12 12 -112 70 -121 70 -5 0 -9 5 -9 10 0
6 -4 10 -9 10 -18 0 -132 72 -138 86 -4 12 50 96 92 140 5 7 46 53 90 103 43
50 84 91 89 91 5 0 1 -10 -10 -22z m-3408 -63 c0 -30 -3 -55 -6 -55 -3 0 -6
25 -5 55 0 30 2 55 6 55 3 0 5 -25 5 -55z m2390 -6 c-3 -34 -8 -65 -11 -68 -4
-3 -4 19 -1 49 2 30 5 61 5 68 1 6 4 12 7 12 4 0 4 -28 0 -61z m2234 51 c-18
-12 -30 -13 -30 -2 0 4 10 9 22 9 18 2 20 0 8 -7z m-1987 -15 c-3 -9 -8 -14
-10 -11 -3 3 -2 9 2 15 9 16 15 13 8 -4z m2294 -7 c18 -20 37 -68 28 -68 -2 0
-12 16 -21 36 -9 20 -27 40 -38 44 -14 6 -16 9 -5 9 8 1 25 -9 36 -21z m-2295
-58 c-6 -41 -13 -38 -10 4 1 19 5 33 8 31 4 -2 5 -18 2 -35z m-1379 10 c-3
-11 -8 -20 -12 -20 -3 0 -21 -13 -40 -29 -23 -20 -33 -37 -33 -56 0 -17 -3
-22 -8 -15 -4 7 -7 19 -6 27 2 12 91 113 100 113 2 0 2 -9 -1 -20z m4940 5
c-3 -9 -8 -14 -10 -11 -3 3 -2 9 2 15 9 16 15 13 8 -4z m-1265 -55 c-7 -11
-19 -22 -28 -25 -8 -4 -4 5 9 19 29 31 36 33 19 6z m-4934 -27 c-1 -15 -3 -70
-3 -120 -1 -51 -4 -93 -8 -93 -5 0 -7 21 -6 47 1 27 3 83 4 125 1 43 5 76 8
73 4 -2 6 -16 5 -32z m2382 -5 c-3 -13 -5 -38 -5 -55 -1 -18 -5 -33 -10 -33
-4 0 -5 17 -1 38 4 21 6 46 4 55 -1 9 2 17 7 17 5 0 7 -10 5 -22z m245 -73
c-3 -5 -6 -19 -7 -30 -3 -57 -5 -65 -14 -65 -5 0 -7 6 -4 14 5 14 11 55 14
106 1 23 2 23 9 5 5 -11 6 -24 2 -30z m1969 34 c0 -5 -8 -10 -17 -10 -10 -1
-27 -3 -38 -4 -11 -2 -40 -6 -65 -9 -25 -3 -54 -7 -65 -10 -11 -2 -23 -5 -28
-5 -9 -1 -25 -40 -32 -79 -3 -15 -7 -38 -10 -52 -19 -85 -26 -133 -31 -195 -4
-38 -8 -72 -11 -75 -12 -12 6 164 27 273 27 140 28 141 150 160 111 17 120 18
120 6z m77 5 c-10 -10 -67 -15 -67 -6 0 5 16 9 36 10 20 1 34 -1 31 -4z m70 0
c-3 -3 -12 -4 -19 -1 -8 3 -5 6 6 6 11 1 17 -2 13 -5z m-653 -87 c2 -20 0 -37
-5 -37 -5 0 -10 11 -10 25 -2 37 -3 43 -11 51 -5 4 -8 12 -8 18 0 27 31 -25
34 -57z m-2860 -61 c-4 -34 -8 -70 -10 -81 -1 -11 -3 -39 -3 -62 -1 -24 -4
-43 -8 -43 -5 0 -8 66 -8 146 0 142 0 145 18 123 15 -19 17 -33 11 -83z m1137
52 c-3 -21 -6 -26 -9 -15 -3 17 3 47 11 47 2 0 1 -15 -2 -32z m-456 -32 c56
-43 125 -129 125 -154 0 -4 -10 9 -22 28 -24 38 -96 113 -143 149 -16 12 -23
19 -15 15 8 -4 33 -21 55 -38z m2172 -38 c-3 -7 -5 -2 -5 12 0 14 2 19 5 13 2
-7 2 -19 0 -25z m-1472 -5 c-4 -34 -15 -201 -20 -307 -2 -43 -7 -81 -10 -85
-7 -6 2 231 10 294 2 17 5 48 6 70 1 22 4 43 6 48 8 15 11 6 8 -20z m-920 -29
c72 -35 83 -44 108 -91 22 -41 28 -66 29 -115 0 -35 -1 -65 -2 -68 -1 -3 -3
-16 -6 -29 -2 -13 -10 -38 -18 -55 -8 -17 -17 -38 -20 -46 -20 -50 -72 -101
-166 -165 -36 -24 -75 -52 -88 -64 -40 -34 -58 -15 -70 69 -10 73 -3 292 9
305 2 2 4 -75 4 -170 0 -221 2 -225 96 -163 94 62 185 156 216 225 20 44 27
77 30 139 2 74 0 84 -26 126 -33 52 -65 76 -141 107 -95 37 -149 30 -150 -21
0 -10 -4 -18 -9 -18 -10 0 -8 34 4 64 13 30 104 17 200 -30z m-1697 -59 c-1
-41 -5 -75 -8 -75 -4 0 -5 19 -4 43 1 23 3 57 3 75 1 17 3 32 6 32 3 0 5 -34
3 -75z m4089 -76 c1 -78 0 -139 -3 -136 -8 8 -14 277 -6 277 4 0 8 -64 9 -141z
m-1212 72 c3 -5 2 -12 -3 -15 -5 -3 -9 1 -9 9 0 17 3 19 12 6z m-1375 -21 c0
-5 -2 -10 -4 -10 -3 0 -8 5 -11 10 -3 6 -1 10 4 10 6 0 11 -4 11 -10z m4688
-31 c-3 -8 -7 -3 -11 10 -4 17 -3 21 5 13 5 -5 8 -16 6 -23z m-3 -28 c3 -5 2
-12 -3 -15 -5 -3 -9 1 -9 9 0 17 3 19 12 6z m-2865 -112 c94 -55 170 -106 169
-112 0 -9 -2 -8 -6 1 -2 6 -9 12 -15 12 -6 0 -30 14 -55 30 -24 17 -45 30 -47
30 -1 0 -53 29 -116 65 -65 37 -118 61 -123 56 -4 -4 -9 -34 -9 -65 -2 -71
-11 -64 -14 11 -3 59 9 88 33 79 8 -3 90 -51 183 -107z m-3323 76 c0 -8 -4
-15 -9 -15 -4 0 -8 7 -8 15 0 8 4 15 8 15 5 0 9 -7 9 -15z m1480 -57 c-3 -8
-6 -5 -6 6 -1 11 2 17 5 13 3 -3 4 -12 1 -19z m-1480 -3 c0 -8 -4 -15 -9 -15
-4 0 -8 7 -8 15 0 8 4 15 8 15 5 0 9 -7 9 -15z m6180 -7 c-3 -8 -6 -5 -6 6 -1
11 2 17 5 13 3 -3 4 -12 1 -19z m-1862 -30 c-3 -30 28 -89 57 -109 46 -31 131
-56 223 -65 57 -5 236 -6 260 0 11 2 34 7 50 11 l30 7 -30 -21 c-27 -19 -43
-21 -155 -20 -103 1 -201 10 -255 23 -52 13 -77 22 -117 42 -55 28 -58 32 -74
101 -10 42 -10 53 0 53 7 0 12 -10 11 -22z m-217 -33 c-3 -3 -9 2 -12 12 -6
14 -5 15 5 6 7 -7 10 -15 7 -18z m-4103 -15 c1 -11 -2 -20 -7 -20 -4 0 -8 12
-8 27 0 30 13 24 15 -7z m1212 -22 c-3 -7 -5 -2 -5 12 0 14 2 19 5 13 2 -7 2
-19 0 -25z m1910 -25 c-3 -10 -5 -4 -5 12 0 17 2 24 5 18 2 -7 2 -21 0 -30z
m3056 12 c-7 -21 -12 -19 -10 4 0 11 5 18 9 15 4 -3 5 -11 1 -19z m-6181 -72
c-3 -94 -12 -92 -12 2 0 43 3 75 7 71 4 -3 6 -36 5 -73z m3531 57 c17 -15 77
-53 108 -68 14 -8 39 -25 55 -38 16 -14 0 -7 -36 15 -36 22 -84 49 -107 61
-24 12 -43 26 -43 31 0 12 8 11 23 -1z m-928 -10 c3 -5 2 -10 -3 -10 -5 0 -7
-12 -4 -27 3 -16 1 -24 -4 -20 -11 11 -14 67 -3 67 4 0 11 -4 14 -10z m-1388
-32 c-3 -8 -6 -5 -6 6 -1 11 2 17 5 13 3 -3 4 -12 1 -19z m1919 -52 c3 -25 1
-46 -3 -46 -4 0 -8 23 -9 50 -1 61 7 58 12 -4z m-1092 -10 c-10 -20 -21 -36
-25 -36 -4 0 2 18 14 39 27 49 34 47 11 -3z m303 22 c-3 -8 -6 -5 -6 6 -1 11
2 17 5 13 3 -3 4 -12 1 -19z m2691 0 c21 -41 32 -78 23 -78 -5 0 -11 14 -15
32 -3 17 -14 40 -23 50 -9 10 -12 18 -6 18 5 0 15 -10 21 -22z m-3822 -27 c-1
-16 -4 -32 -7 -35 -4 -4 -4 49 0 62 4 11 8 -3 7 -27z m1382 5 c-1 -14 -6 -23
-9 -20 -10 6 -7 44 3 44 4 0 7 -11 6 -24z m306 8 c3 -8 2 -12 -4 -9 -6 3 -10
10 -10 16 0 14 7 11 14 -7z m1039 -4 c-3 -11 -10 -23 -16 -27 -7 -4 -8 0 -4
11 4 10 7 22 7 27 0 5 4 9 9 9 5 0 7 -9 4 -20z m2234 -2 c-3 -8 -6 -5 -6 6 -1
11 2 17 5 13 3 -3 4 -12 1 -19z m-3830 -35 c-3 -10 -5 -4 -5 12 0 17 2 24 5
18 2 -7 2 -21 0 -30z m563 -18 c0 -5 -5 -3 -10 5 -5 8 -10 20 -10 25 0 6 5 3
10 -5 5 -8 10 -19 10 -25z m-2910 -10 c0 -14 -2 -25 -4 -25 -2 0 -6 11 -8 25
-3 14 -1 25 3 25 5 0 9 -11 9 -25z m2596 -5 c-3 -42 -12 -46 -12 -5 0 19 3 35
7 35 4 0 6 -13 5 -30z m1294 15 c-30 -17 -40 -18 -40 -6 0 10 22 18 50 19 8 1
4 -5 -10 -13z m2287 -7 c-3 -8 -6 -5 -6 6 -1 11 2 17 5 13 3 -3 4 -12 1 -19z
m-1907 -45 c0 -7 -58 36 -66 49 -4 7 9 -1 29 -16 20 -16 37 -30 37 -33z
m-3055 26 c-3 -12 -7 -24 -10 -27 -3 -3 -3 5 -1 19 6 30 5 29 10 29 3 0 3 -10
1 -21z m1145 -14 c0 -19 -2 -35 -4 -35 -2 0 -6 16 -8 35 -2 19 0 35 4 35 4 0
8 -16 8 -35z m-360 21 c0 -2 -8 -10 -17 -17 -16 -13 -17 -12 -4 4 13 16 21 21
21 13z m919 -67 c1 -15 10 -38 21 -52 25 -32 98 -70 122 -64 15 4 17 3 8 -8
-7 -8 -17 -13 -23 -12 -14 2 -96 55 -115 73 -11 12 -33 102 -31 128 2 18 17
-37 18 -65z m2148 34 c-3 -10 -5 -4 -5 12 0 17 2 24 5 18 2 -7 2 -21 0 -30z
m-1917 23 c0 -3 -4 -8 -10 -11 -5 -3 -10 -1 -10 4 0 6 5 11 10 11 6 0 10 -2
10 -4z m3021 -19 c-10 -9 -11 -8 -5 6 3 10 9 15 12 12 3 -3 0 -11 -7 -18z
m-6173 -22 c0 -13 -4 -22 -9 -20 -9 6 -8 45 2 45 4 0 7 -11 7 -25z m4331 -1
c14 -12 -19 -1 -35 12 -18 14 -18 14 6 3 14 -6 27 -13 29 -15z m66 -14 c2 -4
-7 -5 -20 -2 -14 2 -25 8 -25 12 0 10 38 1 45 -10z m1785 10 c0 -5 -5 -10 -11
-10 -5 0 -7 5 -4 10 3 6 8 10 11 10 2 0 4 -4 4 -10z m-4973 -47 c-3 -10 -5 -4
-5 12 0 17 2 24 5 18 2 -7 2 -21 0 -30z m733 33 c0 -2 -8 -10 -17 -17 -16 -13
-17 -12 -4 4 13 16 21 21 21 13z m458 -43 c9 -7 11 -13 4 -13 -12 0 -42 39
-42 55 0 5 6 1 12 -10 6 -11 18 -26 26 -32z m2058 34 c4 -3 -4 -4 -16 -2 -30
6 -40 16 -12 12 12 -2 24 -6 28 -10z m-4462 -114 c-13 -479 -24 -2972 -14
-3205 3 -48 1 -90 -3 -94 -4 -4 -7 6 -8 22 0 16 -3 72 -6 124 -11 170 -3 1924
12 2695 2 88 4 251 6 363 2 111 6 202 10 202 3 0 5 -48 3 -107z m4533 101 c-3
-3 -12 -4 -19 -1 -8 3 -5 6 6 6 11 1 17 -2 13 -5z m79 -6 c3 -4 -1 -5 -10 -4
-8 1 -18 5 -22 8 -3 4 1 5 10 4 8 -1 18 -5 22 -8z m-2031 -17 c-3 -6 -11 -11
-16 -11 -5 0 -4 6 3 14 14 16 24 13 13 -3z m3592 -43 c-2 -13 -4 -3 -4 22 0
25 2 35 4 23 2 -13 2 -33 0 -45z m-1404 45 c-7 -2 -19 -2 -25 0 -7 3 -2 5 12
5 14 0 19 -2 13 -5z m67 3 c0 -3 -4 -8 -10 -11 -5 -3 -10 -1 -10 4 0 6 5 11
10 11 6 0 10 -2 10 -4z m60 -4 c0 -4 -11 -8 -25 -8 -14 0 -25 4 -25 8 0 4 11
8 25 8 14 0 25 -4 25 -8z m99 3 c-10 -9 -89 -15 -89 -7 0 5 21 10 47 11 26 1
44 -1 42 -4z m-3782 -37 c-3 -8 -6 -5 -6 6 -1 11 2 17 5 13 3 -3 4 -12 1 -19z
m1249 10 c3 -4 -1 -5 -10 -4 -8 1 -18 5 -22 8 -3 4 1 5 10 4 8 -1 18 -5 22 -8z
m674 -6 c0 -4 -10 -13 -22 -21 -23 -14 -23 -14 -4 8 20 22 26 25 26 13z
m-1920 -38 c0 -8 -5 -12 -10 -9 -6 4 -8 11 -5 16 9 14 15 11 15 -7z m0 -40 c0
-8 -5 -12 -10 -9 -6 4 -8 11 -5 16 9 14 15 11 15 -7z m539 0 c-7 -8 -31 -24
-53 -35 -23 -10 -33 -14 -22 -7 10 7 32 23 50 35 38 26 42 27 25 7z m4421 -24
c0 -5 -2 -10 -4 -10 -3 0 -8 5 -11 10 -3 6 -1 10 4 10 6 0 11 -4 11 -10z
m-4963 -15 c0 -8 -4 -12 -9 -9 -5 3 -6 10 -3 15 9 13 12 11 12 -6z m4963 -15
c0 -5 -5 -10 -11 -10 -5 0 -7 5 -4 10 3 6 8 10 11 10 2 0 4 -4 4 -10z m-4527
-17 c-7 -2 -28 -15 -48 -29 -42 -28 -162 -94 -172 -94 -13 0 12 18 71 50 32
17 79 45 104 61 25 16 48 26 51 23 3 -4 1 -9 -6 -11z m-433 -3 c0 -5 -5 -10
-11 -10 -5 0 -7 5 -4 10 3 6 8 10 11 10 2 0 4 -4 4 -10z m4955 -49 c3 -5 2
-12 -3 -15 -5 -3 -9 1 -9 9 0 17 3 19 12 6z m-2 -56 c-7 -21 -12 -19 -10 4 0
11 5 18 9 15 4 -3 5 -11 1 -19z m-4943 7 c0 -15 59 -42 98 -45 22 -1 38 -6 35
-10 -8 -13 -72 1 -114 25 -37 21 -50 38 -29 38 6 0 10 -4 10 -8z m4950 -36 c0
-3 -4 -8 -10 -11 -5 -3 -10 -1 -10 4 0 6 5 11 10 11 6 0 10 -2 10 -4z m-7 -39
c3 -8 1 -20 -4 -28 -6 -10 -9 -7 -9 14 0 29 5 35 13 14z m-6 -132 c-1 -47 -5
-85 -8 -85 -3 0 -5 24 -4 53 2 28 3 67 4 85 1 17 3 32 6 32 2 0 3 -38 2 -85z
m-7 -180 c0 -47 -3 -85 -7 -85 -5 0 -7 38 -5 85 2 47 5 85 8 85 2 0 4 -38 4
-85z m0 -135 c0 -5 -4 -10 -10 -10 -5 0 -10 5 -10 10 0 6 5 10 10 10 6 0 10
-4 10 -10z m-3651 -20 c-21 -13 -241 -60 -304 -66 -27 -2 -67 -6 -87 -8 -21
-2 -40 -1 -43 3 -2 5 6 7 18 7 12 -1 26 0 30 2 5 2 32 6 60 8 29 2 63 6 77 9
14 4 39 8 55 11 17 3 37 7 45 10 8 3 32 8 53 11 20 2 50 9 65 13 37 11 50 11
31 0z m271 -10 c14 -10 18 -18 10 -16 -27 5 -50 18 -50 27 0 14 13 10 40 -11z
m3375 -24 c-1 -44 -10 -55 -13 -15 -2 25 3 49 11 49 1 0 2 -16 2 -34z m-3315
-17 c0 -15 -21 -62 -26 -57 -2 3 0 16 5 30 6 16 5 31 -2 44 -9 17 -9 18 6 5 9
-7 17 -17 17 -22z m1633 14 c-7 -2 -19 -2 -25 0 -7 3 -2 5 12 5 14 0 19 -2 13
-5z m-2680 -13 c-7 -6 -75 -32 -93 -35 -3 -1 -14 -4 -25 -8 -20 -6 -47 -12
-115 -23 -19 -3 -37 -7 -40 -9 -3 -2 -41 -6 -85 -9 -82 -5 -57 5 47 19 26 3
62 10 79 15 18 5 35 7 40 5 4 -3 10 -1 14 5 4 6 10 8 15 5 5 -3 21 0 37 6 15
6 39 13 52 15 14 3 31 9 39 13 17 10 45 10 35 1z m107 1 c0 -4 -11 -6 -25 -3
-14 2 -25 6 -25 8 0 2 11 4 25 4 14 0 25 -4 25 -9z m2487 3 c-3 -3 -12 -4 -19
-1 -8 3 -5 6 6 6 11 1 17 -2 13 -5z m152 -20 c12 -15 21 -32 21 -38 -1 -6 -8
2 -16 17 -8 15 -25 32 -37 37 -16 6 -18 9 -5 9 9 1 26 -11 37 -25z m-2609 6
c0 -5 -2 -10 -4 -10 -3 0 -8 5 -11 10 -3 6 -1 10 4 10 6 0 11 -4 11 -10z m79
-1 c28 -1 51 -5 51 -9 0 -4 -10 -6 -22 -5 -13 1 -40 3 -60 4 -21 0 -38 6 -38
12 0 5 4 8 9 5 4 -3 31 -6 60 -7z m4145 -44 c-4 -8 -8 -15 -10 -15 -2 0 -4 7
-4 15 0 8 4 15 10 15 5 0 7 -7 4 -15z m-3344 -19 c0 -2 -8 -10 -17 -17 -16
-13 -17 -12 -4 4 13 16 21 21 21 13z m-1460 -16 c0 -5 -5 -10 -11 -10 -5 0 -7
5 -4 10 3 6 8 10 11 10 2 0 4 -4 4 -10z m4802 -72 c-4 -143 -9 -157 -10 -35
-1 64 1 117 6 117 4 0 6 -37 4 -82z m-4887 62 c-3 -5 -18 -9 -33 -9 l-27 1 30
8 c17 4 31 8 33 9 2 0 0 -3 -3 -9z m48 3 c-7 -2 -19 -2 -25 0 -7 3 -2 5 12 5
14 0 19 -2 13 -5z m1692 -3 c3 -6 -1 -7 -9 -4 -18 7 -21 14 -7 14 6 0 13 -4
16 -10z m77 -23 c13 -12 33 -35 43 -52 12 -19 3 -13 -24 18 -23 26 -49 47 -56
47 -8 0 -16 4 -19 9 -10 16 30 0 56 -22z m-1892 13 c-8 -5 -24 -9 -35 -9 -16
1 -16 2 5 9 35 11 48 11 30 0z m-65 -10 c-3 -5 -17 -10 -30 -10 -30 0 -77 -18
-87 -33 -3 -6 -2 -19 4 -30 5 -10 7 -21 4 -24 -3 -3 -10 7 -16 22 -16 41 12
63 100 78 14 2 26 5 28 6 2 0 0 -3 -3 -9z m1575 -14 c0 -2 -7 -7 -16 -10 -8
-3 -12 -2 -9 4 6 10 25 14 25 6z m-55 -15 c-11 -5 -40 -11 -65 -14 l-45 -6 50
14 c56 15 91 18 60 6z m289 -18 c-4 -15 -13 -38 -20 -52 -8 -14 -14 -33 -14
-41 0 -9 -4 -20 -9 -25 -4 -6 -14 -31 -21 -58 -7 -26 -17 -50 -23 -54 -7 -4
-8 1 -3 13 4 10 20 55 36 99 43 123 52 145 56 145 2 0 1 -12 -2 -27z m1566 -3
c-14 -11 -28 -20 -32 -20 -17 0 -108 -86 -159 -150 -93 -116 -315 -474 -320
-517 -1 -5 -9 -19 -18 -33 -41 -60 -140 -295 -167 -396 -12 -47 -18 -106 -19
-185 0 -101 3 -120 19 -138 11 -12 26 -21 35 -21 20 0 147 61 176 84 11 9 58
43 105 76 105 73 124 87 171 125 20 17 69 55 108 85 39 30 70 61 71 68 0 6 4
12 8 12 4 0 21 26 37 58 37 71 34 66 39 61 3 -2 -5 -25 -16 -49 -12 -25 -21
-48 -20 -52 3 -13 -62 -72 -179 -163 -63 -50 -118 -93 -124 -98 -45 -38 -216
-148 -286 -185 -98 -51 -118 -50 -144 4 -46 98 -3 352 97 574 64 139 160 323
207 395 15 22 33 52 40 68 8 15 18 27 23 27 4 0 8 4 8 10 0 15 116 174 181
249 36 42 78 78 115 98 69 37 79 40 44 13z m-1975 0 c4 -6 -7 -10 -27 -9 -31
1 -32 1 -8 9 14 4 26 8 27 9 1 1 5 -3 8 -9z m-66 -14 c-3 -3 -20 -8 -39 -11
-19 -3 -30 -2 -23 3 13 8 70 15 62 8z m1686 -16 c-3 -5 -12 -10 -18 -10 -7 0
-6 4 3 10 19 12 23 12 15 0z m-1785 -4 c0 -2 -13 -6 -29 -8 -17 -2 -28 -1 -25
4 5 8 54 12 54 4z m-85 -16 c-26 -11 -35 -12 -35 -2 0 4 12 8 28 9 23 1 24 1
7 -7z m-48 -6 c-3 -3 -12 -4 -19 -1 -8 3 -5 6 6 6 11 1 17 -2 13 -5z m1892 -6
c-8 -7 -28 -33 -44 -58 -17 -25 -32 -47 -35 -50 -3 -3 -30 -43 -60 -90 -30
-47 -55 -87 -57 -89 -2 -2 -5 -2 -8 0 -2 3 29 54 71 114 41 61 85 127 99 148
14 20 31 37 37 37 7 0 6 -5 -3 -12z m-1929 -1 c-8 -8 -80 -15 -76 -8 3 4 22 8
42 9 21 2 36 1 34 -1z m-90 -11 c0 -3 -4 -8 -10 -11 -5 -3 -10 -1 -10 4 0 6 5
11 10 11 6 0 10 -2 10 -4z m-37 -13 c-7 -2 -19 -2 -25 0 -7 3 -2 5 12 5 14 0
19 -2 13 -5z m-37 -35 c-3 -13 -5 -42 -5 -65 -1 -24 -5 -43 -11 -43 -5 0 -8
10 -6 23 3 12 5 41 5 65 1 23 5 42 11 42 5 0 8 -10 6 -22z m-326 4 c0 -4 -12
-7 -27 -8 -16 0 -64 -4 -108 -8 -44 -4 -76 -4 -73 0 4 3 33 9 65 11 32 3 59 6
60 7 6 5 83 3 83 -2z m56 -239 c-4 -131 -9 -262 -9 -290 -1 -29 -6 -53 -10
-53 -5 0 -6 35 -2 78 5 62 11 256 15 475 0 15 3 27 7 27 3 0 3 -107 -1 -237z
m-276 217 c0 -4 -15 -7 -32 -7 -25 -1 -28 1 -13 6 24 10 45 10 45 1z m4666
-26 c-3 -9 -6 -66 -6 -126 0 -61 -2 -109 -5 -106 -3 3 -5 52 -5 109 1 136 2
139 13 139 5 0 6 -7 3 -16z m-2959 -36 c-3 -7 -5 -2 -5 12 0 14 2 19 5 13 2
-7 2 -19 0 -25z m15 -53 c2 -19 1 -35 -3 -35 -4 0 -9 16 -11 35 -2 19 -1 35 3
35 4 0 9 -16 11 -35z m-1189 -10 c-7 -21 -12 -19 -10 4 0 11 5 18 9 15 4 -3 5
-11 1 -19z m837 20 c0 -11 -33 -85 -36 -82 -3 2 2 20 10 39 9 20 12 38 9 42
-4 3 -1 6 5 6 7 0 12 -2 12 -5z m-843 -95 c-1 -27 -5 -50 -9 -50 -3 0 -5 15
-3 33 2 17 4 40 4 50 1 9 3 17 5 17 3 0 4 -22 3 -50z m1208 -6 c6 -47 13 -92
19 -119 2 -11 14 -63 26 -115 12 -52 23 -104 25 -115 12 -53 97 -392 102 -405
3 -8 7 -21 9 -29 1 -8 5 -25 9 -38 3 -13 5 -25 6 -28 0 -3 6 -23 14 -45 8 -22
15 -44 15 -48 1 -4 8 -32 17 -62 9 -30 18 -59 19 -65 1 -5 16 -55 33 -110 17
-54 29 -101 27 -103 -4 -3 -73 199 -82 238 -1 8 -8 31 -14 50 -7 19 -15 49
-20 65 -5 17 -16 57 -25 90 -20 74 -21 76 -40 150 -9 33 -17 65 -19 70 -6 22
-17 65 -47 190 -30 126 -35 148 -43 190 -2 11 -14 66 -25 122 -20 96 -27 173
-16 161 3 -3 8 -23 10 -44z m-435 -124 c-17 -57 -33 -111 -35 -122 -2 -10 -9
-33 -14 -51 -6 -18 -25 -79 -42 -137 -43 -148 -89 -289 -106 -327 -11 -23 -26
-36 -59 -47 -24 -8 -44 -11 -44 -7 0 5 14 12 31 17 18 5 37 18 43 29 6 11 13
22 16 25 11 11 98 269 126 375 9 33 20 69 25 80 5 11 11 29 13 40 8 40 69 235
73 231 3 -2 -10 -50 -27 -106z m1094 40 c-21 -38 -39 -68 -41 -66 -5 4 67 136
74 136 2 0 -13 -31 -33 -70z m-1875 -16 c-2 -25 -6 -47 -10 -50 -4 -2 -6 4 -4
13 2 10 4 33 4 51 1 17 3 32 6 32 3 0 5 -21 4 -46z m4141 10 c0 -14 -4 -23 -9
-20 -5 3 -7 15 -4 26 7 28 13 25 13 -6z m-4 -98 c-1 -35 -3 -62 -6 -59 -7 7
-7 123 0 123 4 0 6 -29 6 -64z m-4143 -33 c-6 -84 -11 -88 -12 -10 -1 37 3 67
7 67 5 0 7 -26 5 -57z m1817 17 c-11 -22 -23 -40 -25 -40 -3 0 4 18 15 40 11
22 23 40 25 40 3 0 -4 -18 -15 -40z m-779 -23 c10 -37 20 -79 49 -212 36 -158
46 -263 28 -270 -7 -2 -70 -6 -140 -8 -98 -3 -130 -1 -139 9 -8 10 -5 35 12
99 27 94 45 118 22 28 -24 -93 -26 -110 -13 -118 6 -4 59 -6 118 -5 59 1 115
2 124 2 9 0 15 5 13 11 -2 7 -6 39 -9 72 -5 58 -8 77 -22 140 -4 17 -8 37 -9
45 -1 8 -4 24 -8 35 -3 11 -8 31 -11 45 -17 85 -38 160 -46 160 -10 0 -52
-103 -55 -132 0 -4 -5 -12 -12 -19 -13 -13 0 37 33 122 22 59 48 57 65 -4z
m3109 -61 c0 -3 -4 -8 -10 -11 -5 -3 -10 -1 -10 4 0 6 5 11 10 11 6 0 10 -2
10 -4z m-4154 -46 c0 -16 -3 -30 -7 -30 -4 0 -7 14 -7 30 1 17 4 30 8 30 3 0
6 -13 6 -30z m4148 5 c3 -8 1 -15 -4 -15 -6 0 -10 7 -10 15 0 8 2 15 4 15 2 0
6 -7 10 -15z m-7 -57 c-3 -7 -5 -2 -5 12 0 14 2 19 5 13 2 -7 2 -19 0 -25z
m-4387 6 c0 -8 -5 -12 -10 -9 -6 4 -8 11 -5 16 9 14 15 11 15 -7z m1185 -1
c-14 -37 -39 -118 -37 -125 1 -5 -3 -8 -9 -8 -6 0 -9 6 -6 13 2 6 13 40 23 75
10 34 22 62 27 62 5 0 6 -8 2 -17z m798 2 c-3 -9 -8 -14 -10 -11 -3 3 -2 9 2
15 9 16 15 13 8 -4z m-1738 -5 c3 -5 1 -10 -4 -10 -6 0 -11 5 -11 10 0 6 2 10
4 10 3 0 8 -4 11 -10z m-247 -50 c-1 -17 -4 -33 -8 -35 -4 -2 -5 6 -4 18 1 12
3 28 3 35 2 26 10 10 9 -18z m242 -26 c0 -30 -4 -53 -9 -50 -5 4 -8 14 -6 24
2 9 4 32 4 50 2 55 11 35 11 -24z m1721 33 c-10 -9 -11 -8 -5 6 3 10 9 15 12
12 3 -3 0 -11 -7 -18z m2426 1 c-3 -8 -6 -5 -6 6 -1 11 2 17 5 13 3 -3 4 -12
1 -19z m-2447 -48 c-6 -11 -13 -20 -16 -20 -2 0 0 9 6 20 6 11 13 20 16 20 2
0 0 -9 -6 -20z m1000 8 c0 -6 -6 -8 -12 -5 -7 2 -23 0 -35 -4 -13 -5 -23 -6
-23 -3 0 6 39 21 57 21 7 0 13 -4 13 -9z m99 -66 c0 -14 -2 -14 -6 -2 -3 8
-15 29 -25 45 l-20 30 26 -28 c14 -15 26 -36 25 -45z m1348 26 c-3 -7 -5 -2
-5 12 0 14 2 19 5 13 2 -7 2 -19 0 -25z m-4400 -50 c-2 -13 -4 -5 -4 17 -1 22
1 32 4 23 2 -10 2 -28 0 -40z m1916 -15 c-14 -38 -30 -85 -36 -105 -5 -21 -13
-38 -17 -38 -4 0 5 35 20 78 40 111 49 132 54 132 3 0 -7 -30 -21 -67z m-1669
-15 c-1 -35 -3 -75 -3 -90 -1 -16 -5 -28 -10 -28 -4 0 -7 12 -5 28 2 15 4 55
5 90 1 34 5 62 9 62 4 0 6 -28 4 -62z m-253 -45 c-12 -20 -14 -14 -5 12 4 9 9
14 11 11 3 -2 0 -13 -6 -23z m3049 -80 c0 -5 -7 -30 -15 -58 -9 -27 -17 -59
-20 -70 -2 -11 -6 -31 -10 -45 -14 -65 -20 -101 -29 -180 -11 -95 -29 -316
-28 -352 1 -10 -3 -18 -8 -18 -4 0 -7 24 -5 53 2 28 6 99 10 158 3 58 7 116
10 130 2 13 6 47 10 74 3 28 15 88 26 135 11 47 22 96 25 109 3 13 9 32 14 41
5 10 6 20 3 24 -3 3 -1 6 5 6 7 0 12 -3 12 -7z m-2802 -88 c0 -47 -3 -85 -8
-85 -5 0 -6 153 -1 168 6 16 9 -13 9 -83z m1609 23 c-3 -8 -6 -5 -6 6 -1 11 2
17 5 13 3 -3 4 -12 1 -19z m-1049 -173 c9 -32 -1 -77 -43 -200 -34 -101 -66
-177 -72 -171 -3 2 3 18 11 35 9 17 16 33 16 36 1 7 6 24 23 75 14 39 21 65
44 150 15 55 11 76 -23 114 -44 50 -44 64 1 23 20 -18 39 -46 43 -62z m644 69
c4 -3 8 -11 8 -17 0 -9 -2 -9 -8 0 -6 9 -34 12 -95 10 -94 -4 -109 1 -31 9 27
3 51 8 53 10 5 4 61 -5 73 -12z m-193 -8 c-3 -3 -20 -8 -39 -11 -46 -9 -51
-10 -80 -19 -38 -11 -73 -29 -91 -47 -19 -19 -71 -152 -84 -216 -12 -62 -29
-113 -37 -113 -5 0 -5 7 0 18 5 9 12 35 16 57 13 75 66 238 83 257 32 36 137
73 212 77 13 1 22 -1 20 -3z m-1014 -76 c0 -38 -3 -70 -6 -70 -4 0 -7 32 -7
70 0 39 3 70 7 70 3 0 6 -31 6 -70z m1237 -3 c6 -23 12 -45 14 -49 1 -5 2 -9
4 -10 2 -4 4 -12 29 -128 12 -52 24 -102 27 -110 3 -10 2 -12 -4 -5 -6 6 -20
53 -32 105 -12 52 -25 106 -30 120 -8 24 -21 79 -22 90 0 3 -4 13 -10 24 -7
13 -7 16 1 12 6 -4 16 -26 23 -49z m358 -67 c0 -5 -5 -10 -11 -10 -5 0 -7 5
-4 10 3 6 8 10 11 10 2 0 4 -4 4 -10z m881 -2 c1 -14 -2 -59 -6 -93 -1 -11 -3
-37 -4 -57 0 -21 -5 -38 -9 -38 -5 0 -7 41 -4 90 2 50 1 90 -4 90 -4 0 -48
-31 -98 -68 -105 -78 -136 -99 -171 -112 -41 -16 -28 -4 28 25 28 15 54 31 57
35 3 5 30 25 60 46 30 21 68 50 83 66 29 29 66 37 68 16z m-2474 -23 c0 -8 -4
-15 -9 -15 -4 0 -8 7 -8 15 0 8 4 15 8 15 5 0 9 -7 9 -15z m1602 -27 c6 -18 7
-28 2 -23 -10 12 -25 55 -18 55 3 0 10 -15 16 -32z m-1603 -18 c0 -11 -4 -20
-8 -20 -4 0 -8 9 -8 20 0 11 4 20 8 20 4 0 8 -9 8 -20z m1633 -43 c12 -15 12
-17 -3 -11 -9 3 -16 13 -16 22 0 8 1 13 3 11 1 -2 9 -12 16 -22z m-1637 -54
c2 -24 0 -43 -4 -43 -5 0 -7 26 -7 58 1 61 6 55 11 -15z m1718 -49 c8 -10 -5
-1 -28 21 -23 21 -42 43 -42 47 0 9 45 -35 70 -68z m425 6 c-3 -5 -12 -10 -18
-10 -7 0 -6 4 3 10 19 12 23 12 15 0z m312 -27 c-3 -10 -5 -4 -5 12 0 17 2 24
5 18 2 -7 2 -21 0 -30z m-387 -8 c-7 -8 -20 -15 -29 -15 -11 0 -8 5 9 14 33
19 35 19 20 1z m-2067 -20 c-7 -21 -12 -19 -10 4 0 11 5 18 9 15 4 -3 5 -11 1
-19z m1314 -7 c-3 -8 -6 -5 -6 6 -1 11 2 17 5 13 3 -3 4 -12 1 -19z m-632 -30
c-4 -18 -11 -37 -15 -42 -5 -5 -4 10 2 33 12 48 23 56 13 9z m1160 12 c3 -6
-1 -7 -9 -4 -18 7 -21 14 -7 14 6 0 13 -4 16 -10z m42 -6 c-3 -3 -12 -4 -19
-1 -8 3 -5 6 6 6 11 1 17 -2 13 -5z m567 -36 c-3 -4 -11 -8 -17 -7 -9 0 -9 2
0 5 7 3 9 13 6 22 -4 14 -3 14 5 2 6 -8 8 -18 6 -22z m-4 -38 c0 -11 -4 -20
-9 -20 -5 0 -7 9 -4 20 3 11 7 20 9 20 2 0 4 -9 4 -20z m-1789 -21 c-5 -13
-10 -19 -10 -12 -1 15 10 45 15 40 3 -2 0 -15 -5 -28z m931 -6 c-6 -10 -23
-29 -38 -43 -25 -22 -25 -21 4 13 18 21 32 43 32 49 0 6 3 9 6 6 3 -4 1 -15
-4 -25z m-1792 -37 c0 -5 17 -25 38 -44 25 -22 29 -29 12 -20 -33 18 -57 47
-69 83 -10 28 -10 28 4 11 8 -11 15 -24 15 -30z m2904 -8 c-1 -18 -3 -52 -3
-75 -1 -24 -5 -43 -9 -43 -5 0 -7 15 -6 33 1 17 3 51 3 75 1 23 5 42 9 42 5 0
7 -15 6 -32z m-2054 -1 c0 -7 -7 -22 -15 -33 -13 -17 -13 -16 -3 14 13 34 18
40 18 19z m816 -27 c24 -7 25 -8 7 -9 -12 -1 -32 9 -45 22 -13 12 -16 16 -7 9
9 -7 30 -17 45 -22z m-1052 5 c-4 -8 -8 -15 -10 -15 -2 0 -4 7 -4 15 0 8 4 15
10 15 5 0 7 -7 4 -15z m-9 -34 c3 -5 2 -12 -3 -15 -5 -3 -9 1 -9 9 0 17 3 19
12 6z m217 -33 c-8 -8 -9 -4 -5 13 4 13 8 18 11 10 2 -7 -1 -18 -6 -23z m-665
9 c13 0 20 -3 17 -8 -7 -13 -34 -10 -69 6 l-30 14 30 -7 c17 -3 40 -6 52 -5z
m641 -77 c-11 -28 -23 -49 -25 -47 -4 5 34 97 41 97 3 0 -5 -23 -16 -50z
m2102 26 c0 -3 -4 -8 -10 -11 -5 -3 -10 -1 -10 4 0 6 5 11 10 11 6 0 10 -2 10
-4z m-2162 -81 c15 4 21 2 17 -5 -14 -23 -102 5 -145 47 -8 8 12 0 45 -17 40
-21 67 -29 83 -25z m2157 46 c3 -5 1 -12 -5 -16 -5 -3 -10 1 -10 9 0 18 6 21
15 7z m1465 -68 c4 -111 3 -244 -3 -303 -11 -101 -67 -270 -89 -270 -5 0 -7
-3 -4 -8 7 -12 -105 -118 -151 -141 -74 -37 -209 -76 -298 -86 -28 -3 -65 -7
-82 -10 -18 -2 -33 -1 -33 4 0 4 6 8 13 8 55 1 193 28 274 54 99 32 157 65
213 121 50 50 115 166 125 223 10 54 17 188 18 337 2 150 12 192 17 71z
m-1666 -7 c28 -27 32 -35 15 -26 -28 15 -44 33 -64 75 -9 17 -10 21 -3 10 7
-11 31 -37 52 -59z m193 22 c-3 -8 -6 -5 -6 6 -1 11 2 17 5 13 3 -3 4 -12 1
-19z m-11 -44 c-4 -9 -9 -15 -11 -12 -3 3 -3 13 1 22 4 9 9 15 11 12 3 -3 3
-13 -1 -22z m-4621 -374 c8 -48 53 -174 83 -235 115 -232 321 -366 597 -390
68 -6 254 -17 312 -19 33 0 59 -4 57 -8 -2 -3 -71 -5 -152 -2 -240 6 -307 16
-442 60 -152 51 -315 198 -382 344 -25 54 -59 143 -64 163 -2 10 -5 26 -8 35
-8 26 -16 73 -21 122 l-4 45 8 -40 c5 -22 12 -56 16 -75z m5381 -417 c-10 -10
-46 -11 -40 -1 3 4 15 8 26 8 12 0 18 -3 14 -7z m47 0 c-7 -2 -19 -2 -25 0 -7
3 -2 5 12 5 14 0 19 -2 13 -5z m-158 -13 c-3 -5 -12 -10 -18 -10 -7 0 -6 4 3
10 19 12 23 12 15 0z m55 6 c0 -2 -9 -6 -20 -9 -11 -3 -18 -1 -14 4 5 9 34 13
34 5z m-165 -26 c-3 -5 -14 -10 -23 -9 -14 0 -13 2 3 9 27 11 27 11 20 0z
m-88 -26 c-3 -3 -12 -4 -19 -1 -8 3 -5 6 6 6 11 1 17 -2 13 -5z m-47 -8 c0 -2
-7 -7 -16 -10 -8 -3 -12 -2 -9 4 6 10 25 14 25 6z m-100 -40 c0 -2 -7 -7 -16
-10 -8 -3 -12 -2 -9 4 6 10 25 14 25 6z m-40 -20 c0 -2 -9 -6 -20 -9 -11 -3
-18 -1 -14 4 5 9 34 13 34 5z m-62 -29 c-9 -7 -49 -32 -89 -57 -39 -25 -77
-50 -83 -55 -6 -6 -33 -26 -61 -45 -27 -19 -55 -39 -61 -45 -6 -5 -29 -23 -50
-40 -46 -36 -217 -176 -260 -213 -17 -15 -46 -39 -65 -53 -19 -15 -69 -55
-112 -89 -121 -95 -367 -250 -398 -250 -23 0 -4 17 49 42 79 38 246 148 381
252 147 114 335 268 339 278 2 4 10 8 17 8 7 0 15 3 17 8 3 7 85 73 128 102
12 8 33 24 46 35 32 25 205 135 213 135 3 0 -2 -6 -11 -13z m-1515 -37 c18 -8
16 -9 -11 -4 -19 3 -45 7 -58 9 -14 1 -27 5 -31 8 -8 9 74 -2 100 -13z m-178
-3 c-27 -19 -64 -27 -70 -16 -5 8 43 26 75 28 10 1 8 -3 -5 -12z m-85 -19 c0
-4 -4 -8 -9 -8 -6 0 -12 4 -15 8 -3 5 1 9 9 9 8 0 15 -4 15 -9z m440 -11 c14
-3 1 -3 -29 -1 -30 1 -58 7 -64 13 -6 6 4 6 29 1 22 -5 50 -11 64 -13z m-483
7 c-3 -3 -12 -4 -19 -1 -8 3 -5 6 6 6 11 1 17 -2 13 -5z m-1907 -20 c0 -2 -7
-4 -15 -4 -8 0 -15 4 -15 10 0 5 7 7 15 4 8 -4 15 -8 15 -10z m1830 6 c-8 -5
-19 -10 -25 -10 -5 0 -3 5 5 10 8 5 20 10 25 10 6 0 3 -5 -5 -10z m-46 -8 c3
-5 -1 -9 -9 -9 -8 0 -12 4 -9 9 3 4 7 8 9 8 2 0 6 -4 9 -8z m-44 -22 c-8 -5
-19 -10 -25 -10 -5 0 -3 5 5 10 8 5 20 10 25 10 6 0 3 -5 -5 -10z m792 -27
c39 -38 35 -49 -7 -17 -19 14 -35 30 -35 35 0 15 13 10 42 -18z m-1983 1 c12
-11 -8 -10 -39 2 l-35 14 35 -6 c19 -4 37 -8 39 -10z m1151 12 c0 -2 -7 -7
-16 -10 -8 -3 -12 -2 -9 4 6 10 25 14 25 6z m-1058 -48 c69 -30 208 -113 208
-123 0 -3 -17 6 -37 20 -52 34 -213 115 -229 115 -7 0 -16 5 -19 10 -9 15 -2
13 77 -22z m984 -10 c-52 -60 -69 -133 -45 -195 8 -21 7 -25 -1 -17 -18 18
-23 85 -11 130 9 34 73 124 88 124 2 0 -12 -19 -31 -42z m641 8 c53 -4 128
-48 148 -86 24 -46 -3 -142 -43 -157 -9 -4 -20 -11 -23 -16 -11 -16 -112 -33
-184 -31 -122 3 -270 29 -338 58 -74 31 -106 89 -86 155 13 45 40 67 96 80 35
8 332 6 430 -3z m-1386 -143 c13 -16 12 -17 -3 -4 -10 7 -18 15 -18 17 0 8 8
3 21 -13z m1723 -15 c-54 -91 -139 -162 -234 -195 -58 -20 -44 -8 25 21 72 31
137 83 179 145 26 38 47 58 30 29z m-1669 -28 c10 -11 16 -20 13 -20 -3 0 -13
9 -23 20 -10 11 -16 20 -13 20 3 0 13 -9 23 -20z m75 -67 c0 -5 19 -28 43 -53
23 -25 60 -67 82 -95 66 -82 147 -164 200 -203 28 -20 53 -41 57 -47 5 -6 8
-6 8 0 0 6 3 6 8 -1 15 -22 202 -89 306 -110 28 -5 212 -16 281 -16 96 0 225
12 290 28 33 8 67 16 76 19 30 6 111 35 131 46 10 6 24 8 31 6 33 -11 -220
-89 -333 -103 -130 -15 -252 -20 -269 -10 -6 4 -11 2 -11 -4 0 -6 -5 -8 -12
-4 -7 5 -37 9 -68 11 -71 4 -199 30 -275 55 -174 59 -283 142 -428 323 -61 77
-66 82 -106 128 -18 20 -28 37 -22 37 6 0 11 -3 11 -7z m640 -41 c0 -1 -9 2
-20 8 -11 6 -20 15 -20 20 0 6 9 2 20 -7 11 -10 20 -19 20 -21z m185 -62 c3
-6 -1 -7 -9 -4 -18 7 -21 14 -7 14 6 0 13 -4 16 -10z m480 -10 c-3 -5 -12 -10
-18 -10 -7 0 -6 4 3 10 19 12 23 12 15 0z"/>
</g>
</svg>
