<?xml version="1.0" encoding="utf-8"?>
<!-- Svg Vector Icons : http://www.onlinewebfonts.com/icon -->
<!DOCTYPE svg PUBLIC "-//W3C//DTD SVG 1.1//EN" "http://www.w3.org/Graphics/SVG/1.1/DTD/svg11.dtd">
<svg version="1.1" xmlns="http://www.w3.org/2000/svg" xmlns:xlink="http://www.w3.org/1999/xlink" x="0px" y="0px" viewBox="0 0 1000 1000" enable-background="new 0 0 1000 1000" xml:space="preserve">
<metadata> Svg Vector Icons : http://www.onlinewebfonts.com/icon </metadata>
<g><path d="M365.5,657.3c-26.8,60.5-87.4,102.8-157.7,102.8c-95.1,0-172.4-77.4-172.4-172.4c0-95.1,77.3-172.4,172.4-172.4c22.8,0,44.7,4.5,64.6,12.6l16.3-20.6c-24.7-11.1-52.1-17.3-80.9-17.3C98.5,389.9,10,478.5,10,587.7c0,109.2,88.5,197.8,197.8,197.8c77.5,0,144.6-44.7,177-109.6c-4.4-5.2-8.2-10.8-11.2-17L365.5,657.3z"/><path d="M792.2,389.9c-17.6,0-34.6,2.3-50.9,6.6c2.3,7.7,4.8,15.8,7.3,24.3c13.9-3.6,28.5-5.6,43.6-5.6c95.1,0,172.4,77.3,172.4,172.4c0,95.1-77.3,172.4-172.4,172.4c-95.1,0-172.4-77.4-172.4-172.4c0-60.9,31.9-115.8,82.1-146.8l28.9,93.9c3,9.7,8.8,18.3,16.7,24.7l22.8,18.4c-1.4,3-2.1,6.3-2.1,9.8c0,13.3,10.8,24.1,24.1,24.1c13.3,0,24.1-10.8,24.1-24.1c0-13.3-10.8-24.1-24.1-24.1c-2.2,0-4.3,0.3-6.3,0.9l-28.6-23.1c-3.7-3-6.4-7-7.7-11.5c-11.5-38.6-21.3-71.2-29.6-98.8c-2.6-8.7-5.2-16.8-7.4-24.5c-15-53-24.7-85.2-29.3-104.7c-5.2-22.2-3.9-28,3.7-29.8c23.1-5.4,79.5,2.7,82.5,26.3c2.6,21-23.2,36.1-39.6,41.9c-11,3.9-7.8,20.2,1.9,20.2c4.8,0,52.3-16.7,57.5-54c1.3-9.5-0.9-17.9-5.4-25.1l18.2-13.9c0.9-0.7,1.9-1,3-1c1.3,0,2.5,0.5,3.5,1.5c5.9,6,10.3,14.5,10.3,22.1c0,27,4.1,35.9,6.8-2.5c1-13.8-6.3-24.8-17.1-33.1c-10-7.6-42.3,1.4-46.8,3.5c-8.2-1.7-37.9-7.5-63.9-7.5c-18.5,0-35.1,2.9-41,12.4c-4.4,7-2.6,10.2,7,53.6l-278.9,23l-29-97.3l3.8-1.5c10.2-4,16.6-5.4,20.9-5.4c8.5,0,9.5,5,16.4,5c0.8,0,1.7-0.1,2.6-0.2l15.8-2.4c2.2-0.3,3.8-2.4,3.5-4.6c-1.5-13.3-21.1-15.5-34.3-15.5c-0.3,0-0.5,0-0.8,0c-29.1,0.2-53.5,2.6-73.1,2.6c-9.4,0-17.6-0.5-24.7-2.1c-5.1-1.1-10-3.5-13.5-3.5c-3.2,0-5.3,1.9-5.6,8.2l-0.1,2c-0.9,17.1,33.7,24.5,58.1,24.5c4.3,0,8.3-0.2,11.7-0.7l31.8,106.7l-52.9,66.8l-15.8,20L203.5,564c-11.2,2-19.8,11.8-19.8,23.7c0,13.3,10.8,24.1,24.1,24.1c8.4,0,15.8-4.3,20.1-10.9l147.4,27.4l21.1,3.9c0.5,2.6,1.3,5.2,2.1,7.7c7.4,20.6,27,35.3,50.1,35.3c29.4,0,53.3-23.8,53.3-53.2c0-10.6-3.1-20.5-8.5-28.8l189.8-212.9l11,35.7c-4.6,2.6-9,5.4-13.3,8.3c-29.6,20.2-53.4,48.2-68.4,81.1c-11.5,25.1-18,53-18,82.4c0,109.2,88.5,197.8,197.8,197.8c109.2,0,197.8-88.5,197.8-197.8C990,478.5,901.5,389.9,792.2,389.9z M230.9,580.9c-1.2-4.1-3.5-7.8-6.5-10.6l92-116.3c45.5,37,69.7,94.9,62.5,154.5L230.9,580.9z M405.5,590.8c0.6-39.9-10.5-77.4-30.8-109.2c-11.2-17.6-25-33.5-42.5-47.7l43.6-55.1L433.1,571C421.8,574.5,412.2,581.5,405.5,590.8z M479.4,578.5c-7.4-5.3-16.3-8.7-25.9-9.6L391,359.5l0.1-0.1l278.8-23l6.4,21.2L479.4,578.5z"/></g>
</svg>