<?xml version="1.0" encoding="utf-8"?>
<!-- Generator: Adobe Illustrator 16.0.0, SVG Export Plug-In . SVG Version: 6.00 Build 0)  -->
<!DOCTYPE svg PUBLIC "-//W3C//DTD SVG 1.1//EN" "http://www.w3.org/Graphics/SVG/1.1/DTD/svg11.dtd">
<svg version="1.1" id="Layer_1" xmlns="http://www.w3.org/2000/svg" xmlns:xlink="http://www.w3.org/1999/xlink" x="0px" y="0px"
	 width="646px" height="449px" viewBox="0 0 646 449" enable-background="new 0 0 646 449" xml:space="preserve">
<g>
	<path d="M541.412,281.197c-0.174-16.508-0.813-33.008-1.442-49.504c-0.604-15.745-0.073-31.479,0.225-47.219
		c0.28-15.145,0.015-30.211-1.612-45.277c-1.021-9.421-2.869-19.451-8.261-27.447c-2.537-3.762-5.851-6.271-9.604-7.939
		c-5.593-3.609-13.037-5.111-19.144-6.127c-21.427-3.566-43.437-0.631-65.012-2.461c-31.962-2.711-64.044-3.524-96.003-6.26
		c-29.436-2.52-58.978-4.025-88.521-3.828c-14.449,0.097-28.892,0.701-43.293,1.871c-11.939,0.97-24.062,1.945-35.457,5.859
		c-3.611,1.24-6.875,2.848-9.852,4.74c-5.789,1.107-11.247,3.143-15.907,6.816c-14.188,11.188-11.68,32.167-11.801,49.617
		c-1.071,5.57-2.1,11.146-3.255,16.67c-0.95,4.544-2.335,8.508-4.238,12.297c-2.706,4.252-6.043,8.166-9.815,11.896
		c-6.511,6.438-9.625,13.736-11.188,22.462c-0.314,0.828-0.612,1.67-0.875,2.544c-3.82,12.708-1.345,27.422,0.991,40.168
		c1.959,10.688,7.187,20.17,13.779,28.668c6.423,8.278,13.894,15.657,19.885,24.284c0.183,0.265,0.352,0.531,0.529,0.8
		c2.297,8.705,2.213,17.713,3.409,26.896c1.216,9.352,6.129,18.928,16.146,20.969c4.954,1.01,9.942,0.691,14.95,0.322
		c7.849-0.578,15.658-0.195,23.517,0.039c32.945,1.004,65.889,2.08,98.813,3.646c32.2,1.523,64.014,3.557,96.271,2.191
		c31.983-1.348,63.924-4.098,95.964-3.439c14.982,0.307,31.569,0.453,41.521-12.723c5.229-6.922,7.127-15.938,8.163-24.355
		C542.157,312.193,541.573,296.459,541.412,281.197z M181.334,91.921c14.229-3.477,29.702-3.839,44.268-4.567
		c15.105-0.755,30.24-0.844,45.359-0.581c29.969,0.521,59.673,3.609,89.557,5.399c16.352,0.979,32.709,1.744,49.06,2.735
		c14.013,0.85,28.088,2.805,42.124,2.842c18.22,0.047,38.698-2.38,56.538,3.18c-6.521-0.545-13.32-0.098-19.331-0.004
		c-65.257-0.039-130.491-1.898-195.73-3.188c-32.928-0.652-65.859-1.123-98.793-1.152c-8.387-0.006-17.861-0.688-26.821,0.384
		C171.877,94.711,176.562,93.086,181.334,91.921z M325.132,100.578c-24.731,0.889-49.436,2.301-74.146-0.113
		c-5.139-0.502-10.331-1.004-15.549-1.426c13.274,0.137,26.549,0.311,39.823,0.543C291.885,99.873,308.509,100.218,325.132,100.578z
		 M161.8,100.554c6.826-1.646,14.432-1.848,21.593-1.834c4.146,0.007,8.291,0.029,12.437,0.044
		c-7.431,0.753-14.783,2.103-21.981,4.302c-9.688,2.959-18.421,8.229-24.862,16.108c-1.044,1.276-1.978,2.599-2.817,3.957
		c2.118-5.742,4.921-11.204,8.776-16.019C156.967,104.588,159.279,102.421,161.8,100.554z M140.92,120.007
		c2.607-10.256,9.086-15.59,17.108-18.355c-8.228,7.188-13.58,17.116-16.833,28.379c-0.8,2.769-1.508,5.563-2.176,8.372
		C139.06,132.22,139.38,126.064,140.92,120.007z M129.917,185.561c-1.362,2.341-2.938,4.627-4.798,6.855
		c-0.252,0.303-0.507,0.599-0.761,0.898C126.356,190.806,128.272,188.248,129.917,185.561z M130.993,296.18
		c-7.239-8.295-13.99-16.783-18.011-27.15c-2.063-5.316-3.501-11.221-4.395-17.266c0.184,0.664,0.377,1.324,0.582,1.984
		c2.805,9.033,7.782,17.217,12.937,25.072c5.427,8.271,11.013,16.391,15.567,25.184C135.492,301.352,133.241,298.754,130.993,296.18
		z M362,366.457c-16.928-0.037-33.798-1.441-50.694-2.32c-16.554-0.857-33.116-1.563-49.681-2.193
		c-30.216-1.154-60.624-3.107-90.825-1.764c-6.813,0.309-13.049-0.945-17.638-6.352c-3.956-4.656-4.995-10.773-5.652-16.65
		c-0.604-5.398-0.914-10.563-1.584-15.617c3.502,6.982,6.474,14.229,11.948,20.029c12.204,12.936,32.39,9.711,48.348,10.197
		c15.56,0.475,31.11,2.637,46.634,3.771c16.408,1.198,32.717,1.196,49.15,1.424c32.623,0.444,65.116,3.896,97.672,5.713
		c10.829,0.604,21.671,0.984,32.518,1.046C408.807,364.98,385.436,366.508,362,366.457z M523.954,356.559
		c-6.612,4.896-15.436,5.768-23.386,5.928c-7.026,0.143-14.055,0.047-21.078-0.027c14.813-0.002,32.584,0.803,45.865-7.016
		C524.903,355.824,524.438,356.199,523.954,356.559z M525.268,353.654c-7.614,5.719-18.815,6.426-27.962,6.943
		c-9.021,0.518-18.065,0.211-27.102,0.404c-13.373,0.283-26.664,1.332-40.065,1.199c-32.624-0.324-65.121-3.754-97.671-5.631
		c-16.305-0.939-32.554-0.994-48.873-1.146c-17.022-0.15-34.006-1.688-50.951-3.189c-12.522-1.109-24.905-2.105-37.479-2.107
		c-9.019-0.002-18.346,0.068-26.679-3.846c-10.278-4.828-14.613-15.301-19.223-24.908c-1.455-3.033-3.176-5.898-5.043-8.67
		c-0.772-2.885-1.79-5.762-3.199-8.654c-8.947-18.367-23.873-33.502-29.655-53.408c-3.131-10.785-3.138-22.5-1.206-33.567
		c2.751-7.287,7.518-13.467,13.077-19.549c8.192-8.963,13.809-17.613,16.154-29.718c2.443-12.608,1.583-25.612,6.056-37.828
		c4.735-12.935,16.037-21.44,28.753-25.6c26.5-8.667,55.738-4.052,82.783-1.716c30.506,2.634,61.29-1.051,91.843-1.113
		c0.35,0,0.832-0.188,1.229-0.43c40.57,0.886,81.146,1.73,121.729,1.938c4.95,0.025,9.901,0.032,14.852,0.036
		c0.097,0.013,0.19,0.021,0.301,0.021c0.553-0.001,1.107-0.008,1.674-0.016c0.369,0,0.734,0.002,1.104,0.002
		c0.113,0,0.223-0.011,0.322-0.029c9.803-0.223,20.904-1.086,29.505,3.167c14.473,11.269,9.604,37.62,7.843,53.33
		c-1.188,10.649-1.919,20.923-1.39,31.65c0.763,15.468,3.049,30.821,4.438,46.236c1.34,14.791,0.479,29.526,1.262,44.319
		c0.744,14.129,2.477,28.188,2.46,42.353C534.143,334.324,534.195,346.953,525.268,353.654z M536.713,332
		c0.011-0.133,0.022-0.266,0.033-0.398c1.086-13.467-0.426-27.092-1.466-40.514c-1.115-14.408-0.454-28.744-1.146-43.152
		c-0.743-15.521-3.02-30.936-4.436-46.401c-1.149-12.546-1.354-24.831,0.013-37.346c1.136-10.438,2.463-20.868,2.404-31.387
		c-0.028-5.16-0.449-10.621-1.986-15.652c4.318,8.514,5.193,19.004,6.119,28.194c1.633,16.206,1.166,32.581,0.802,48.837
		c-0.728,32.409,1.436,64.724,1.48,97.126C538.553,304.758,538.929,318.662,536.713,332z"/>
	<path d="M141.402,213.324c-1.79-4.047-6.104-6.389-10.126-4.859c-4.098,1.557-5.279,8.261-5.954,12.175
		c-1.633,9.551-1.82,22.333,5.703,29.103c4.784,4.303,8.052,1.692,10.25-2.918c0.905,0.766,1.789,0.647,1.83-1.56
		c0.026-1.328,0.089-2.685,0.17-4.052c1.163-4.272,1.763-8.688,2.011-10.825c0.148-1.267-0.518-2.854-1.336-3.789
		C143.858,221.99,143.242,217.478,141.402,213.324z M139.452,238.936c-1.413,4.189-3.831,7.131-8.161,4.434
		c-5.218-3.252-2.902-16.051-1.878-21.149c0.739-3.691,2.271-7.751,6.384-7.315c4.487,0.474,4.116,6.708,4.216,10.277
		C140.146,229.781,139.705,234.352,139.452,238.936z"/>
</g>
<g>
	<path d="M255.401,268.232c-0.863,3.58-3.051,6.83-6.565,9.748c-3.382,2.389-6.765,4.742-10.147,7.063
		c0.199,0.996,0.879,1.742,2.04,2.238c1.159,0.498,2.271,0.979,3.333,1.443c5.504,3.576,8.256,7.822,8.256,12.729
		c0,3.777-1.293,7.262-3.879,10.445c-1.99,2.449-4.941,4.875-8.854,7.262c-3.184,1.854-6.367,3.713-9.55,5.57
		c-0.796,0.463-1.658,0.693-2.586,0.693c-2.188,0-3.715-0.896-4.576-2.686c0.132-5.572,0.264-11.109,0.398-16.613
		c0.132-6.631,0.497-12.102,1.094-16.414c-1.393-0.928-2.089-1.988-2.089-3.184c0-0.596,0.249-1.145,0.746-1.642
		c0.498-0.497,1.177-1.047,2.04-1.644c0.796-10.08,0.96-19.365,0.497-27.854c-3.118-0.6-5.172-1.99-6.167-4.182
		c-0.067-0.266,0.05-0.662,0.348-1.191c0.299-0.527,0.448-0.962,0.448-1.293c1.525-1.128,3.216-1.689,5.073-1.689
		c1.326,0,4.377,0.435,9.152,1.293c2.453,0.396,5.006,1.295,7.66,2.688c7.162,3.715,11.373,7.328,12.634,10.842
		C255.565,264.387,255.8,266.508,255.401,268.232z M243.066,302.254c0.132-0.73,0.198-1.426,0.198-2.09
		c0-1.99-0.631-3.746-1.89-5.271c-3.382-1.658-5.538-2.488-6.466-2.488c-0.532,0-1.029,0.104-1.492,0.303
		c0.065,0.664,0.1,1.396,0.1,2.188c0,1.396-0.184,3.53-0.547,6.416c-0.365,2.885-0.547,5.06-0.547,6.519
		c0,2.123,0.264,4.043,0.795,5.771c0.796-0.931,2.039-1.908,3.73-2.937c1.691-1.028,2.867-1.938,3.531-2.734
		C241.673,306.531,242.534,304.641,243.066,302.254z M246.05,263.258c-0.332-2.453-2.321-4.342-5.968-5.67
		c-0.532-0.199-1.36-0.629-2.487-1.293c-0.795-0.529-1.459-0.795-1.989-0.795c-0.266,0-0.564,0.066-0.896,0.197
		c-0.067,1.129-0.099,2.322-0.099,3.582c0,1.725,0.132,4.643,0.398,8.754c0.199,3.779,0.264,6.732,0.199,8.854
		c0.463,0,1.159-0.348,2.088-1.045c0.929-0.695,1.459-1.076,1.592-1.145c1.99-0.928,3.746-2.486,5.273-4.674
		C245.685,267.834,246.314,265.58,246.05,263.258z"/>
	<path d="M270.72,261.17c0.132,1.924,0.199,3.914,0.199,5.969c0,4.51-0.465,11.307-1.393,20.396
		c-0.93,9.086-1.394,15.945-1.394,20.592c0,1.725,0.032,3.414,0.1,5.072c-0.597,1.854-1.89,2.752-3.88,2.686
		c-2.852-0.133-4.41-1.355-4.675-3.68c-0.267-2.32-0.397-4.771-0.397-7.361c0-4.51,0.547-11.238,1.641-20.189
		c1.094-8.953,1.642-15.65,1.642-20.096c0-1.727-0.067-3.414-0.199-5.072c0.662-1.26,1.79-1.895,3.382-1.895
		c1.26,0,2.52,0.365,3.781,1.098c0.264-0.197,0.463-0.297,0.596-0.297c0.199,0,0.299,0.332,0.299,0.99
		c-0.066,0.797-0.066,1.264,0,1.396C270.486,260.971,270.586,261.104,270.72,261.17z"/>
	<path d="M310.51,306.033c0.397,0.332,0.598,0.795,0.598,1.393c0,0.398-0.267,1.396-0.797,2.984
		c-0.266-0.064-0.496-0.104-0.695-0.104c-0.398,0-0.912,0.166-1.542,0.498c-0.631,0.332-1.111,0.496-1.442,0.496
		c-0.332,0-0.696-0.131-1.094-0.396c-4.444-2.784-11.341-6.967-20.691-12.534c0.199,2.455,0.363,5.969,0.498,10.545
		c0,0.53,0.064,1.328,0.198,2.387c0.132,1.063,0.199,1.824,0.199,2.289c0,1.593-0.696,2.688-2.089,3.283
		c-0.398,0.265-0.963,0.396-1.691,0.396c-0.796,0-1.293-0.23-1.492-0.693c-1.725-0.6-2.721-1.758-2.984-3.482
		c-0.796-4.771-1.193-10.377-1.193-16.811c0-2.32,0.064-5.785,0.199-10.396c0.131-4.605,0.198-8.072,0.198-10.396
		c0-7.029-0.464-13.134-1.393-18.308c-0.134-0.795,0.331-1.324,1.393-1.592c0.796-0.132,1.624-0.265,2.487-0.396
		c0.861,0.267,1.756,0.58,2.686,0.945c0.928,0.363,1.426,0.94,1.492,1.738c0.994,9.021,1.426,16.184,1.293,21.485
		c2.719-2.453,5.835-5.703,9.352-9.748c2.984-3.384,5.934-6.798,8.854-10.246c0.795-0.332,1.656-0.498,2.586-0.498
		c2.586,0,3.945,0.896,4.078,2.688c-1.856,4.111-5.506,8.986-10.941,14.623c-6.366,6.563-10.444,11.241-12.235,14.024
		c4.111,2.453,8.256,4.908,12.435,7.36C303.413,300.496,307.326,303.314,310.51,306.033z"/>
	<path d="M347.813,261.766c-2.454,0.996-6.064,2.156-10.844,3.482c-4.772,1.328-8.39,2.486-10.842,3.482
		c-0.598,1.725-1.029,5.566-1.293,11.539c1.061,0.396,2.287,0.596,3.68,0.596c0.995,0,2.554-0.164,4.677-0.496
		c2.12-0.332,3.683-0.498,4.678-0.498c1.854,0,3.444,0.398,4.771,1.193c0.931,1.328,1.396,2.188,1.396,2.586
		c0,0.465-0.234,0.83-0.697,1.096c-0.133,0.066-0.6,0.531-1.395,1.393c-0.529,0.596-1.191,0.861-1.988,0.795
		c-1.396,0.332-3.945,0.531-7.659,0.602c-3.118,0.063-5.604,0.465-7.46,1.189c-1.264,4.908-1.891,8.787-1.891,11.643
		c0,1.924,0.264,3.445,0.796,4.572c3.114,2.188,8.521,3.117,16.214,2.785c0.529,0,1.096-0.248,1.688-0.746
		c0.601-0.498,1.095-0.746,1.491-0.746c1.855-0.396,3.084,0.994,3.684,4.182c0.196,1.063,0.018,2.039-0.55,2.934
		c-0.563,0.896-1.377,1.377-2.437,1.443c-8.024,0.264-14.988-0.365-20.891-1.891c-1.857-0.469-3.55-1.492-5.073-3.086
		c-1.526-1.594-2.388-3.383-2.587-5.373c-0.598-5.77-0.598-10.938,0-15.518c-1.857-1.26-2.687-2.488-2.486-3.682
		c0.064-0.596,0.58-1.145,1.541-1.641c0.961-0.498,1.508-1.014,1.643-1.543c0.132-0.529,0.397-3.684,0.796-9.449
		c-3.716-0.729-5.537-2.121-5.472-4.178c0.064-1.928,1.228-3.447,3.481-4.576c2.122-0.861,4.243-1.729,6.366-2.586
		c2.452-1.264,5.536-2.393,9.251-3.387c3.25-0.857,6.5-1.688,9.75-2.482c0.332-0.066,0.729-0.104,1.189-0.104
		c1.791,0,3.884,0.695,6.271,2.092c0.063,0.266,0.229,0.764,0.498,1.488c0.264,0.729,0.396,1.266,0.396,1.596
		C348.509,261.004,348.275,261.436,347.813,261.766z"/>
	<path d="M400.139,249.531c-0.598,2.387-1.726,3.779-3.383,4.178c-4.313,1.061-11.805,2.453-22.479,4.178
		c-1.325,16.514-1.987,30.275-1.987,41.283c0,4.178,0.063,8.291,0.196,12.334c0.063,1.26,0,2.221-0.196,2.885
		c-0.333,1.063-0.995,1.563-1.99,1.492c-1.924-0.063-3.516-0.879-4.771-2.438c-1.261-1.563-1.957-3.297-2.088-5.227
		c-0.138-2.447-0.199-5.035-0.199-7.758c0-4.377,0.299-11.311,0.896-20.791c0.598-9.086,0.861-16.018,0.796-20.791
		c-1.791-0.131-4.276,0.035-7.461,0.498c-3.647,0.531-6.168,0.795-7.561,0.795c-3.248,0-5.901-0.868-7.959-2.604
		c-0.795-1.738-1.192-2.645-1.192-2.707c0-0.469,0.233-0.972,0.696-1.506c2.123-0.734,6.466-1.402,13.031-2.006
		c5.77-0.604,10.08-1.676,12.932-3.21c2.32,0.796,4.975,1.19,7.958,1.19s5.835-0.363,8.556-1.098
		c0.797-0.063,2.817-0.527,6.067-1.395c2.388-0.596,4.378-0.795,5.969-0.596c1.194,0,1.69,0.498,1.492,1.492
		C399.243,247.74,400.139,248.336,400.139,249.531z"/>
	<path d="M422.719,306.73c0.398,1.061,0.601,1.984,0.601,2.781c0,1.326-0.564,2.486-1.69,3.48c-1.129,0.996-1.891,1.459-2.288,1.393
		c-3.25-0.596-5.307-3.215-6.168-7.854c-0.93-5.039-2.021-9.252-3.282-12.635c-2.256,0.199-4.511,0.396-6.765,0.598
		c-2.587,0.332-4.61,1.129-6.067,2.387c-0.729,2.057-1.689,5.705-2.886,10.943c-1.128,4.84-2.224,8.52-3.281,11.041
		c-0.53,1.189-1.657,1.521-3.384,0.996c-2.188-0.73-3.353-1.729-3.479-2.984c-0.198-2.521,0.528-5.902,2.188-10.146
		c1.989-4.842,3.084-8.291,3.283-10.346c0.063-0.598-0.366-1.26-1.294-1.99c-0.931-0.729-1.395-1.293-1.395-1.688
		c0-0.33,0.147-0.684,0.446-1.045c0.298-0.363,0.994-0.662,2.089-0.896c1.097-0.229,1.706-0.58,1.843-1.045
		c1.191-3.313,3.084-9.481,5.67-18.503c2.188-7.823,4.146-13.827,5.867-18.006c0.397-0.928,1.229-1.394,2.486-1.394
		c0.928,0,1.757,0.3,2.487,0.896c1.854,1.593,3.049,3.979,3.581,7.164c0.396,2.72,0.762,5.438,1.094,8.156
		C415.688,283.686,419.138,296.582,422.719,306.73z M408.195,287.73c-0.199-2.453-0.631-5.207-1.293-8.258
		c-0.664-2.65-1.294-5.309-1.895-7.957c-1.986,5.504-3.715,11.008-5.173,16.512C400.898,287.828,403.686,287.73,408.195,287.73z"/>
	<path d="M462.21,286.635c-1.791,4.443-2.952,9.916-3.481,16.414c-0.329,5.637-0.632,11.273-0.896,16.91
		c-0.134,1.658-1.228,2.488-3.283,2.488c-0.597,0-1.161-0.104-1.688-0.299c-2.854-1.193-4.277-3.416-4.277-6.664
		c0-0.934,0.132-2.338,0.397-4.229c0.265-1.891,0.396-3.266,0.396-4.129c0.265-1.922,0.598-4.808,0.995-8.653
		c-4.576,4.313-9.749,7.526-15.52,9.649c-0.799,0.267-1.594,0.396-2.39,0.396c-3.052,0-5.869-1.723-8.456-5.172
		c-1.458-1.924-2.188-4.311-2.188-7.162c0-2.52,0.563-5.473,1.688-8.854c3.519-10.744,9.117-21.254,16.813-31.535
		c3.846-5.105,7.262-7.658,10.246-7.658c2.647,0,4.144,0.994,4.477,2.984c0.267,1.658-0.299,2.852-1.688,3.58
		c-2.322,1.262-3.553,1.957-3.685,2.09c-5.566,6.166-10.678,14.125-15.315,23.873c-2.854,6.035-4.277,11.441-4.277,16.215
		c0,0.863,0.032,1.727,0.1,2.586c0.135,0.068,0.331,0.383,0.601,0.945c0.265,0.564,0.63,0.746,1.094,0.547
		c4.377-1.723,10.976-6.266,19.796-13.627c0.662-0.531,1.426-2.055,2.288-4.576c0.662-1.855,1.854-2.785,3.581-2.785
		c-0.531,0,0-0.066,1.592-0.199c0.796-0.133,1.326,0,1.592,0.398c1.262,1.857,1.894,3.381,1.894,4.576
		C462.607,285.342,462.475,285.973,462.21,286.635z"/>
</g>
<g>
	<path d="M216.364,209.182c0.36,0.96,0.54,1.799,0.54,2.519c0,1.2-0.51,2.249-1.529,3.148c-1.02,0.9-1.709,1.318-2.069,1.259
		c-2.939-0.54-4.798-2.908-5.577-7.106c-0.841-4.557-1.83-8.365-2.969-11.424c-2.039,0.18-4.079,0.36-6.117,0.54
		c-2.338,0.301-4.168,1.021-5.487,2.159c-0.661,1.859-1.529,5.158-2.609,9.895c-1.02,4.376-2.01,7.705-2.968,9.984
		c-0.48,1.08-1.5,1.379-3.058,0.9c-1.979-0.661-3.029-1.561-3.148-2.699c-0.18-2.28,0.479-5.337,1.979-9.175
		c1.799-4.376,2.789-7.495,2.968-9.354c0.059-0.54-0.33-1.139-1.169-1.799c-0.84-0.659-1.259-1.169-1.259-1.529
		c0-0.299,0.135-0.614,0.405-0.944c0.27-0.329,0.899-0.599,1.889-0.81c0.989-0.209,1.543-0.524,1.664-0.944
		c1.08-2.998,2.789-8.575,5.127-16.731c1.979-7.075,3.747-12.503,5.307-16.281c0.36-0.839,1.109-1.259,2.249-1.259
		c0.839,0,1.588,0.27,2.249,0.81c1.678,1.439,2.758,3.598,3.238,6.477c0.36,2.459,0.689,4.917,0.99,7.376
		C210.006,188.345,213.125,200.007,216.364,209.182z M203.231,192.001c-0.18-2.218-0.571-4.707-1.169-7.466
		c-0.6-2.398-1.169-4.797-1.709-7.196c-1.799,4.979-3.359,9.955-4.677,14.932C196.633,192.092,199.152,192.001,203.231,192.001z"/>
	<path d="M250.455,174.371c-0.78,3.238-2.759,6.177-5.937,8.815c-3.058,2.159-6.117,4.288-9.175,6.386
		c0.18,0.9,0.794,1.574,1.844,2.024c1.049,0.45,2.054,0.886,3.014,1.305c4.977,3.238,7.466,7.077,7.466,11.514
		c0,3.418-1.169,6.566-3.508,9.445c-1.799,2.218-4.468,4.408-8.006,6.566c-2.878,1.678-5.757,3.358-8.635,5.037
		c-0.72,0.42-1.5,0.631-2.339,0.631c-1.979,0-3.359-0.811-4.138-2.429c0.12-5.037,0.239-10.045,0.36-15.022
		c0.119-5.996,0.45-10.943,0.989-14.842c-1.259-0.839-1.889-1.799-1.889-2.878c0-0.54,0.225-1.035,0.674-1.484
		s1.064-0.944,1.844-1.484c0.72-9.114,0.869-17.509,0.45-25.186c-2.819-0.54-4.678-1.799-5.577-3.778
		c-0.061-0.239,0.045-0.599,0.315-1.08c0.27-0.479,0.405-0.869,0.405-1.169c1.379-1.019,2.908-1.529,4.587-1.529
		c0.779,0,1.799,0.121,3.059,0.36c1.799,0.301,2.968,0.481,3.508,0.54c2.878,0.36,5.757,1.26,8.635,2.699
		c6.477,3.359,10.284,6.627,11.424,9.805C250.604,170.894,250.815,172.813,250.455,174.371z M239.301,205.135
		c0.119-0.659,0.18-1.289,0.18-1.889c0-1.799-0.571-3.387-1.709-4.768c-3.059-1.498-5.008-2.249-5.847-2.249
		c-0.481,0-0.931,0.09-1.35,0.27c0.059,0.6,0.09,1.259,0.09,1.979c0,1.259-0.166,3.193-0.495,5.802
		c-0.33,2.609-0.495,4.574-0.495,5.892c0,1.92,0.239,3.657,0.72,5.217c0.72-0.841,1.844-1.725,3.373-2.654s2.593-1.754,3.193-2.474
		C238.042,209.002,238.82,207.293,239.301,205.135z M242,169.874c-0.301-2.218-2.1-3.927-5.397-5.127
		c-0.48-0.18-1.23-0.569-2.249-1.169c-0.72-0.479-1.32-0.72-1.799-0.72c-0.24,0-0.51,0.061-0.81,0.18
		c-0.061,1.021-0.09,2.1-0.09,3.238c0,1.56,0.12,4.198,0.36,7.916c0.18,3.418,0.239,6.087,0.18,8.005
		c0.419,0,1.049-0.314,1.889-0.944c0.839-0.63,1.318-0.974,1.439-1.035c1.799-0.839,3.387-2.249,4.768-4.228
		C241.669,174.011,242.239,171.974,242,169.874z"/>
	<path d="M284.995,174.371c-0.78,3.238-2.759,6.177-5.937,8.815c-3.058,2.159-6.117,4.288-9.175,6.386
		c0.18,0.9,0.794,1.574,1.844,2.024c1.049,0.45,2.054,0.886,3.014,1.305c4.977,3.238,7.466,7.077,7.466,11.514
		c0,3.418-1.169,6.566-3.508,9.445c-1.799,2.218-4.468,4.408-8.006,6.566c-2.878,1.678-5.757,3.358-8.635,5.037
		c-0.72,0.42-1.5,0.631-2.339,0.631c-1.979,0-3.359-0.811-4.138-2.429c0.12-5.037,0.239-10.045,0.36-15.022
		c0.119-5.996,0.45-10.943,0.989-14.842c-1.259-0.839-1.889-1.799-1.889-2.878c0-0.54,0.225-1.035,0.674-1.484
		s1.064-0.944,1.844-1.484c0.72-9.114,0.869-17.509,0.45-25.186c-2.819-0.54-4.678-1.799-5.577-3.778
		c-0.061-0.239,0.045-0.599,0.315-1.08c0.27-0.479,0.405-0.869,0.405-1.169c1.379-1.019,2.908-1.529,4.587-1.529
		c0.779,0,1.799,0.121,3.059,0.36c1.799,0.301,2.968,0.481,3.508,0.54c2.878,0.36,5.757,1.26,8.635,2.699
		c6.477,3.359,10.284,6.627,11.424,9.805C285.144,170.894,285.355,172.813,284.995,174.371z M273.841,205.135
		c0.119-0.659,0.18-1.289,0.18-1.889c0-1.799-0.571-3.387-1.709-4.768c-3.059-1.498-5.008-2.249-5.847-2.249
		c-0.481,0-0.931,0.09-1.35,0.27c0.059,0.6,0.09,1.259,0.09,1.979c0,1.259-0.166,3.193-0.495,5.802
		c-0.33,2.609-0.495,4.574-0.495,5.892c0,1.92,0.239,3.657,0.72,5.217c0.72-0.841,1.844-1.725,3.373-2.654s2.593-1.754,3.193-2.474
		C272.582,209.002,273.36,207.293,273.841,205.135z M276.54,169.874c-0.301-2.218-2.1-3.927-5.397-5.127
		c-0.48-0.18-1.23-0.569-2.249-1.169c-0.72-0.479-1.32-0.72-1.799-0.72c-0.24,0-0.51,0.061-0.81,0.18
		c-0.061,1.021-0.09,2.1-0.09,3.238c0,1.56,0.12,4.198,0.36,7.916c0.18,3.418,0.239,6.087,0.18,8.005
		c0.419,0,1.049-0.314,1.889-0.944c0.839-0.63,1.318-0.974,1.439-1.035c1.799-0.839,3.387-2.249,4.768-4.228
		C276.209,174.011,276.779,171.974,276.54,169.874z"/>
	<path d="M319.175,194.07c-3.539,7.977-8.545,12.714-15.022,14.212c-0.78,0.18-1.56,0.27-2.338,0.27
		c-3.418,0-6.868-1.858-10.345-5.577c-2.339-2.519-3.508-5.786-3.508-9.805c0-4.437,1.318-9.205,3.958-14.302
		c1.139-2.159,2.519-4.017,4.138-5.577c1.858-1.858,3.628-2.789,5.307-2.789c0.959,0,1.858,0.36,2.699,1.079
		c0.839,0.72,3.088,1.68,6.747,2.878c2.878,0.96,4.916,2.579,6.117,4.857c2.098,4.019,3.148,7.466,3.148,10.345
		C320.075,191.282,319.774,192.752,319.175,194.07z M311.979,188.494c-0.42-4.377-1.589-6.985-3.508-7.826
		c-0.301-0.12-0.571-0.18-0.81-0.18c-0.72,0-1.619,0.6-2.699,1.799c-1.2,1.38-2.129,2.189-2.789,2.429c-0.42,0.18-1.02,0-1.799-0.54
		c-0.78-0.54-1.29-0.81-1.529-0.81c-0.18,0-0.33,0.061-0.45,0.18c-2.1,1.799-3.148,4.587-3.148,8.365
		c0,2.579,0.599,4.768,1.799,6.566c1.678,2.459,3.088,3.688,4.228,3.688c2.638,0,5.187-1.648,7.646-4.947
		C311.26,194.102,312.279,191.192,311.979,188.494z"/>
	<path d="M368.468,157.46c-0.54,2.159-1.561,3.418-3.059,3.778c-3.899,0.96-10.675,2.219-20.329,3.778
		c-1.2,14.932-1.799,27.376-1.799,37.33c0,3.778,0.059,7.497,0.18,11.154c0.059,1.139,0,2.008-0.18,2.608
		c-0.301,0.958-0.899,1.409-1.799,1.35c-1.74-0.061-3.18-0.796-4.318-2.204c-1.14-1.41-1.769-2.982-1.889-4.722
		c-0.121-2.218-0.18-4.557-0.18-7.016c0-3.958,0.27-10.224,0.81-18.8c0.54-8.215,0.778-14.482,0.72-18.8
		c-1.619-0.119-3.868,0.031-6.746,0.45c-3.299,0.48-5.577,0.719-6.837,0.719c-2.938,0-5.336-0.786-7.196-2.358
		c-0.719-1.571-1.079-2.388-1.079-2.448c0-0.423,0.21-0.877,0.629-1.36c1.92-0.665,5.847-1.269,11.784-1.814
		c5.218-0.544,9.115-1.511,11.693-2.902c2.099,0.719,4.498,1.079,7.196,1.079s5.276-0.329,7.736-0.989
		c0.72-0.059,2.548-0.479,5.486-1.259c2.159-0.54,3.958-0.72,5.397-0.54c1.079,0,1.529,0.45,1.35,1.349
		C367.658,155.841,368.468,156.381,368.468,157.46z"/>
	<path d="M375.663,159.08c0,1.2-0.87,2.249-2.609,3.148c-0.48,0.241-0.989,0.27-1.528,0.09c-0.841-0.239-1.291-0.36-1.35-0.36
		c-0.36,0-0.72,0.18-1.079,0.54c-3.238,3.238-4.857,7.196-4.857,11.874c0,1.74,0.27,3.359,0.81,4.857
		c0.238,0.661,2.519,5.307,6.836,13.942c2.879,5.757,4.317,10.646,4.317,14.662c0,3.299-0.81,6.477-2.429,9.535
		c-0.539,1.019-1.889,2.339-4.048,3.958c-1.739,1.259-3.298,1.889-4.677,1.889c-0.54,0-1.05-0.09-1.529-0.27
		c-1.799-0.78-2.699-1.77-2.699-2.968c0-0.72,0.45-1.59,1.35-2.609c0.239-0.301,0.81-0.48,1.709-0.54
		c0.899-0.061,1.498-0.42,1.799-1.079c1.26-2.638,1.89-5.337,1.89-8.096c0-3.897-1.935-9.549-5.802-16.956
		c-3.868-7.405-5.802-13.327-5.802-17.765c0-3.657,0.719-6.926,2.158-9.805c1.619-3.297,3.927-5.667,6.927-7.106
		c1.379-0.659,2.728-0.989,4.048-0.989c2.519,0,4.407,0.69,5.667,2.069C375.362,157.761,375.663,158.42,375.663,159.08z"/>
	<path d="M421.268,156.381c0,1.2-0.375,2.294-1.124,3.283c-0.751,0.99-1.725,1.605-2.924,1.844c-0.48,0.121-1.14-0.014-1.979-0.405
		c-0.841-0.39-1.5-0.554-1.979-0.495c-2.64,0.241-5.878,1.169-9.715,2.789c-4.857,2.04-8.036,3.27-9.534,3.688
		c-0.24,3.778-0.36,7.617-0.36,11.514c0,3.898,0.12,7.796,0.36,11.693c0.479,0.121,0.989,0.18,1.528,0.18
		c1.199,0,3.358-0.479,6.477-1.439c2.938-0.839,5.187-1.169,6.747-0.989c1.318,0.121,1.918,0.629,1.799,1.529
		c-0.36,2.339-1.859,4.138-4.498,5.397c-2.459,0.78-4.917,1.589-7.376,2.429c-0.96,0.121-2.519,0.42-4.677,0.899
		c-0.121,1.2-0.181,2.549-0.181,4.048c0,1.439,0.075,3.629,0.226,6.566c0.148,2.939,0.225,5.127,0.225,6.566
		c0,5.157-0.81,9.234-2.429,12.234c-0.359,0.658-0.899,0.988-1.619,0.988s-1.47-0.33-2.249-0.988
		c-0.78-0.661-1.29-1.381-1.529-2.159c-0.6-1.86-0.899-4.019-0.899-6.477c0-0.841,0.21-3.749,0.63-8.726
		c0.3-3.598,0.239-6.506-0.18-8.725c-0.121-0.779-0.72-1.408-1.799-1.889c-1.381-0.599-2.249-1.079-2.609-1.439
		c-0.18-0.419-0.12-1.619,0.181-3.598c0.72,0.121,1.333-0.12,1.844-0.72c0.509-0.599,1.003-0.899,1.484-0.899
		c0.238,0,0.479,0.031,0.72,0.09c0.599-2.938,0.899-6.236,0.899-9.895c0-1.259-0.24-5.906-0.72-13.942
		c-1.14-0.299-2.265-1.003-3.373-2.114c-1.11-1.109-1.664-2.204-1.664-3.283c0-1.499,1.079-2.398,3.238-2.699
		c2.938-0.419,8.365-1.918,16.281-4.498c6.955-2.278,12.532-3.448,16.73-3.508c1.079,0,2.024,0.286,2.833,0.855
		C420.862,154.658,421.268,155.422,421.268,156.381z"/>
	<path d="M446.273,194.07c-3.539,7.977-8.546,12.714-15.022,14.212c-0.78,0.18-1.56,0.27-2.339,0.27
		c-3.418,0-6.867-1.858-10.344-5.577c-2.339-2.519-3.509-5.786-3.509-9.805c0-4.437,1.318-9.205,3.958-14.302
		c1.139-2.159,2.519-4.017,4.138-5.577c1.858-1.858,3.628-2.789,5.308-2.789c0.958,0,1.857,0.36,2.698,1.079
		c0.839,0.72,3.088,1.68,6.746,2.878c2.879,0.96,4.917,2.579,6.117,4.857c2.099,4.019,3.148,7.466,3.148,10.345
		C447.173,191.282,446.872,192.752,446.273,194.07z M439.077,188.494c-0.421-4.377-1.59-6.985-3.509-7.826
		c-0.301-0.12-0.57-0.18-0.81-0.18c-0.719,0-1.619,0.6-2.698,1.799c-1.2,1.38-2.129,2.189-2.788,2.429
		c-0.421,0.18-1.021,0-1.799-0.54c-0.78-0.54-1.291-0.81-1.529-0.81c-0.181,0-0.331,0.061-0.45,0.18
		c-2.1,1.799-3.148,4.587-3.148,8.365c0,2.579,0.599,4.768,1.799,6.566c1.679,2.459,3.088,3.688,4.229,3.688
		c2.638,0,5.186-1.648,7.646-4.947C438.357,194.102,439.376,191.192,439.077,188.494z"/>
	<path d="M486.93,214.13c0.18,0.239,0.27,0.509,0.27,0.81c0,1.378-1.438,2.428-4.317,3.148c-3.179-2.459-7.137-6.236-11.873-11.334
		c-5.278-5.696-9.206-9.654-11.784-11.874c-0.18,1.56-0.51,5.638-0.989,12.233c-0.301,4.979-0.841,8.935-1.619,11.874
		c-0.121,0-0.495,0.149-1.124,0.45c-0.63,0.299-1.156,0.389-1.574,0.27c-2.64-0.6-3.958-2.429-3.958-5.487
		c0-0.899,0.119-2.099,0.359-3.598c0.239-1.739,0.39-2.818,0.45-3.238c0.238-3.477,0.389-7.615,0.449-12.413v-9.805
		c0-8.155,0.45-15.022,1.35-20.599c0.599-3.717,4.106-5.426,10.524-5.127c3.238,0.121,6.056,1.74,8.455,4.857
		c2.218,2.878,3.328,5.997,3.328,9.354c0,2.82-1.05,5.638-3.148,8.456c-1.799,2.519-4.018,4.498-6.656,5.937
		c-1.079,0.6-1.619,1.259-1.619,1.979c0,0.78,0.63,1.709,1.89,2.788c0.958,0.78,1.918,1.56,2.878,2.339
		c0.06,0.061,3.357,3.059,9.895,8.995C482.252,207.864,485.189,211.192,486.93,214.13z M467.95,173.742
		c0.18-1.08,0.238-2.038,0.18-2.878c-0.18-1.259-0.705-2.398-1.574-3.418c-0.87-1.019-2.265-1.529-4.183-1.529
		c-1.439,0-2.339,0.45-2.698,1.35c-0.301,1.5-0.45,3.208-0.45,5.127c0,0.78,0.09,2.789,0.27,6.027c0.12,2.459,0.12,4.468,0,6.027
		C464.472,180.728,467.289,177.16,467.95,173.742z"/>
	<path d="M508.337,193.621c-0.601,1.38-1.169,2.759-1.709,4.138c-0.72,1.619-1.5,2.91-2.339,3.868
		c-1.859,2.339-3.719,4.648-5.577,6.926c-2.219,2.759-4.228,4.677-6.026,5.757c-0.601,0.72-1.26,1.469-1.979,2.249
		c-0.719,0.779-1.438,1.169-2.158,1.169c-0.36,0-0.78-0.09-1.26-0.27c-0.48-0.18-1.005-0.391-1.574-0.63
		c-0.57-0.24-0.975-0.629-1.214-1.169c-0.18-2.519-0.27-5.217-0.27-8.096c0-2.937,0.119-7.315,0.359-13.133
		c0.239-5.816,0.359-10.194,0.359-13.133c0-3.897-0.15-7.466-0.449-10.704c-0.061-0.059-0.72-0.749-1.979-2.069
		c-0.779-0.779-1.169-1.499-1.169-2.159c0-0.3,0.059-0.599,0.18-0.9c0.3-0.719,0.959-1.138,1.979-1.259
		c0.778-0.119,1.559-0.209,2.338-0.27c5.038,1.079,10.313,3.898,15.832,8.455c1.439,1.201,2.608,2.46,3.508,3.778
		c2.879,4.258,4.317,8.246,4.317,11.963C509.506,190.054,509.115,191.882,508.337,193.621z M501.86,183.996
		c-0.54-3.778-3.748-7.106-9.625-9.985c-0.42,10.016-0.539,20.63-0.359,31.843c6.775-6.776,10.164-13.223,10.164-19.339
		C502.04,185.675,501.979,184.836,501.86,183.996z"/>
</g>
</svg>
