<?xml version="1.0" encoding="utf-8"?>
<!-- Generator: Adobe Illustrator 16.0.0, SVG Export Plug-In . SVG Version: 6.00 Build 0)  -->
<!DOCTYPE svg PUBLIC "-//W3C//DTD SVG 1.1//EN" "http://www.w3.org/Graphics/SVG/1.1/DTD/svg11.dtd">
<svg version="1.1" id="Layer_1" xmlns="http://www.w3.org/2000/svg" xmlns:xlink="http://www.w3.org/1999/xlink" x="0px" y="0px"
	 width="646px" height="449px" viewBox="0 0 646 449" enable-background="new 0 0 646 449" xml:space="preserve">
<g>
	<path d="M541.412,281.197c-0.174-16.508-0.813-33.008-1.442-49.504c-0.604-15.745-0.073-31.479,0.225-47.219
		c0.28-15.145,0.015-30.211-1.612-45.277c-1.021-9.421-2.869-19.451-8.261-27.447c-2.537-3.762-5.851-6.271-9.604-7.939
		c-5.593-3.609-13.037-5.111-19.144-6.127c-21.427-3.566-43.437-0.631-65.012-2.461c-31.962-2.711-64.044-3.524-96.003-6.26
		c-29.436-2.52-58.978-4.025-88.521-3.828c-14.449,0.097-28.892,0.701-43.293,1.871c-11.939,0.97-24.062,1.945-35.457,5.859
		c-3.611,1.24-6.875,2.848-9.852,4.74c-5.789,1.107-11.247,3.143-15.907,6.816c-14.188,11.188-11.68,32.167-11.801,49.617
		c-1.071,5.57-2.1,11.146-3.255,16.67c-0.95,4.544-2.335,8.508-4.238,12.297c-2.706,4.252-6.043,8.166-9.815,11.896
		c-6.511,6.438-9.625,13.736-11.188,22.462c-0.314,0.828-0.612,1.67-0.875,2.544c-3.82,12.708-1.345,27.422,0.991,40.168
		c1.959,10.688,7.187,20.17,13.779,28.668c6.423,8.278,13.894,15.657,19.885,24.284c0.183,0.265,0.352,0.531,0.529,0.8
		c2.297,8.705,2.213,17.713,3.409,26.896c1.216,9.352,6.129,18.928,16.146,20.969c4.954,1.01,9.942,0.691,14.95,0.322
		c7.849-0.578,15.658-0.195,23.517,0.039c32.945,1.004,65.889,2.08,98.813,3.646c32.2,1.523,64.014,3.557,96.271,2.191
		c31.983-1.348,63.924-4.098,95.964-3.439c14.982,0.307,31.569,0.453,41.521-12.723c5.229-6.922,7.127-15.938,8.163-24.355
		C542.157,312.193,541.573,296.459,541.412,281.197z M181.334,91.921c14.229-3.477,29.702-3.839,44.268-4.567
		c15.105-0.755,30.24-0.844,45.359-0.581c29.969,0.521,59.673,3.609,89.557,5.399c16.352,0.979,32.709,1.744,49.06,2.735
		c14.013,0.85,28.088,2.805,42.124,2.842c18.22,0.047,38.698-2.38,56.538,3.18c-6.521-0.545-13.32-0.098-19.331-0.004
		c-65.257-0.039-130.491-1.898-195.73-3.188c-32.928-0.652-65.859-1.123-98.793-1.152c-8.387-0.006-17.861-0.688-26.821,0.384
		C171.877,94.711,176.562,93.086,181.334,91.921z M325.132,100.578c-24.731,0.889-49.436,2.301-74.146-0.113
		c-5.139-0.502-10.331-1.004-15.549-1.426c13.274,0.137,26.549,0.311,39.823,0.543C291.885,99.873,308.509,100.218,325.132,100.578z
		 M161.8,100.554c6.826-1.646,14.432-1.848,21.593-1.834c4.146,0.007,8.291,0.029,12.437,0.044
		c-7.431,0.753-14.783,2.103-21.981,4.302c-9.688,2.959-18.421,8.229-24.862,16.108c-1.044,1.276-1.978,2.599-2.817,3.957
		c2.118-5.742,4.921-11.204,8.776-16.019C156.967,104.588,159.279,102.421,161.8,100.554z M140.92,120.007
		c2.607-10.256,9.086-15.59,17.108-18.355c-8.228,7.188-13.58,17.116-16.833,28.379c-0.8,2.769-1.508,5.563-2.176,8.372
		C139.06,132.22,139.38,126.064,140.92,120.007z M129.917,185.561c-1.362,2.341-2.938,4.627-4.798,6.855
		c-0.252,0.303-0.507,0.599-0.761,0.898C126.356,190.806,128.272,188.248,129.917,185.561z M130.993,296.18
		c-7.239-8.295-13.99-16.783-18.011-27.15c-2.063-5.316-3.501-11.221-4.395-17.266c0.184,0.664,0.377,1.324,0.582,1.984
		c2.805,9.033,7.782,17.217,12.937,25.072c5.427,8.271,11.013,16.391,15.567,25.184C135.492,301.352,133.241,298.754,130.993,296.18
		z M362,366.457c-16.928-0.037-33.798-1.441-50.694-2.32c-16.554-0.857-33.116-1.563-49.681-2.193
		c-30.216-1.154-60.624-3.107-90.825-1.764c-6.813,0.309-13.049-0.945-17.638-6.352c-3.956-4.656-4.995-10.773-5.652-16.65
		c-0.604-5.398-0.914-10.563-1.584-15.617c3.502,6.982,6.474,14.229,11.948,20.029c12.204,12.936,32.39,9.711,48.348,10.197
		c15.56,0.475,31.11,2.637,46.634,3.771c16.408,1.198,32.717,1.196,49.15,1.424c32.623,0.444,65.116,3.896,97.672,5.713
		c10.829,0.604,21.671,0.984,32.518,1.046C408.807,364.98,385.436,366.508,362,366.457z M523.954,356.559
		c-6.612,4.896-15.436,5.768-23.386,5.928c-7.026,0.143-14.055,0.047-21.078-0.027c14.813-0.002,32.584,0.803,45.865-7.016
		C524.903,355.824,524.438,356.199,523.954,356.559z M525.268,353.654c-7.614,5.719-18.815,6.426-27.962,6.943
		c-9.021,0.518-18.065,0.211-27.102,0.404c-13.373,0.283-26.664,1.332-40.065,1.199c-32.624-0.324-65.121-3.754-97.671-5.631
		c-16.305-0.939-32.554-0.994-48.873-1.146c-17.022-0.15-34.006-1.688-50.951-3.189c-12.522-1.109-24.905-2.105-37.479-2.107
		c-9.019-0.002-18.346,0.068-26.679-3.846c-10.278-4.828-14.613-15.301-19.223-24.908c-1.455-3.033-3.176-5.898-5.043-8.67
		c-0.772-2.885-1.79-5.762-3.199-8.654c-8.947-18.367-23.873-33.502-29.655-53.408c-3.131-10.785-3.138-22.5-1.206-33.567
		c2.751-7.287,7.518-13.467,13.077-19.549c8.192-8.963,13.809-17.613,16.154-29.718c2.443-12.608,1.583-25.612,6.056-37.828
		c4.735-12.935,16.037-21.44,28.753-25.6c26.5-8.667,55.738-4.052,82.783-1.716c30.506,2.634,61.29-1.051,91.843-1.113
		c0.35,0,0.832-0.188,1.229-0.43c40.57,0.886,81.146,1.73,121.729,1.938c4.95,0.025,9.901,0.032,14.852,0.036
		c0.097,0.013,0.19,0.021,0.301,0.021c0.553-0.001,1.107-0.008,1.674-0.016c0.369,0,0.734,0.002,1.104,0.002
		c0.113,0,0.223-0.011,0.322-0.029c9.803-0.223,20.904-1.086,29.505,3.167c14.473,11.269,9.604,37.62,7.843,53.33
		c-1.188,10.649-1.919,20.923-1.39,31.65c0.763,15.468,3.049,30.821,4.438,46.236c1.34,14.791,0.479,29.526,1.262,44.319
		c0.744,14.129,2.477,28.188,2.46,42.353C534.143,334.324,534.195,346.953,525.268,353.654z M536.713,332
		c0.011-0.133,0.022-0.266,0.033-0.398c1.086-13.467-0.426-27.092-1.466-40.514c-1.115-14.408-0.454-28.744-1.146-43.152
		c-0.743-15.521-3.02-30.936-4.436-46.401c-1.149-12.546-1.354-24.831,0.013-37.346c1.136-10.438,2.463-20.868,2.404-31.387
		c-0.028-5.16-0.449-10.621-1.986-15.652c4.318,8.514,5.193,19.004,6.119,28.194c1.633,16.206,1.166,32.581,0.802,48.837
		c-0.728,32.409,1.436,64.724,1.48,97.126C538.553,304.758,538.929,318.662,536.713,332z"/>
	<path d="M141.402,213.324c-1.79-4.047-6.104-6.389-10.126-4.859c-4.098,1.557-5.279,8.261-5.954,12.175
		c-1.633,9.551-1.82,22.333,5.703,29.103c4.784,4.303,8.052,1.692,10.25-2.918c0.905,0.766,1.789,0.647,1.83-1.56
		c0.026-1.328,0.089-2.685,0.17-4.052c1.163-4.272,1.763-8.688,2.011-10.825c0.148-1.267-0.518-2.854-1.336-3.789
		C143.858,221.99,143.242,217.478,141.402,213.324z M139.452,238.936c-1.413,4.189-3.831,7.131-8.161,4.434
		c-5.218-3.252-2.902-16.051-1.878-21.149c0.739-3.691,2.271-7.751,6.384-7.315c4.487,0.474,4.116,6.708,4.216,10.277
		C140.146,229.781,139.705,234.352,139.452,238.936z"/>
</g>
<g>
	<path d="M255.401,266.232c-0.863,3.58-3.051,6.83-6.565,9.748c-3.382,2.389-6.765,4.742-10.147,7.063
		c0.199,0.996,0.879,1.742,2.04,2.238c1.159,0.498,2.271,0.979,3.333,1.443c5.504,3.576,8.256,7.822,8.256,12.729
		c0,3.777-1.293,7.262-3.879,10.445c-1.99,2.449-4.941,4.875-8.854,7.262c-3.184,1.854-6.367,3.713-9.55,5.57
		c-0.796,0.463-1.658,0.693-2.586,0.693c-2.188,0-3.715-0.896-4.576-2.686c0.132-5.572,0.264-11.109,0.398-16.613
		c0.132-6.631,0.497-12.102,1.094-16.414c-1.393-0.928-2.089-1.988-2.089-3.184c0-0.596,0.249-1.145,0.746-1.642
		c0.498-0.497,1.177-1.047,2.04-1.644c0.796-10.08,0.96-19.365,0.497-27.854c-3.118-0.6-5.172-1.99-6.167-4.182
		c-0.067-0.266,0.05-0.662,0.348-1.191c0.299-0.527,0.448-0.962,0.448-1.293c1.525-1.128,3.216-1.689,5.073-1.689
		c1.326,0,4.377,0.435,9.152,1.293c2.453,0.396,5.006,1.295,7.66,2.688c7.162,3.715,11.373,7.328,12.634,10.842
		C255.565,262.387,255.8,264.508,255.401,266.232z M243.066,300.254c0.132-0.73,0.198-1.426,0.198-2.09
		c0-1.99-0.631-3.746-1.89-5.271c-3.382-1.658-5.538-2.488-6.466-2.488c-0.532,0-1.029,0.104-1.492,0.303
		c0.065,0.664,0.1,1.396,0.1,2.188c0,1.396-0.184,3.53-0.547,6.416c-0.365,2.885-0.547,5.06-0.547,6.519
		c0,2.123,0.264,4.043,0.795,5.771c0.796-0.931,2.039-1.908,3.73-2.937c1.691-1.028,2.867-1.938,3.531-2.734
		C241.673,304.531,242.534,302.641,243.066,300.254z M246.05,261.258c-0.332-2.453-2.321-4.342-5.968-5.67
		c-0.532-0.199-1.36-0.629-2.487-1.293c-0.795-0.529-1.459-0.795-1.989-0.795c-0.266,0-0.564,0.066-0.896,0.197
		c-0.067,1.129-0.099,2.322-0.099,3.582c0,1.725,0.132,4.643,0.398,8.754c0.199,3.779,0.264,6.732,0.199,8.854
		c0.463,0,1.159-0.348,2.088-1.045c0.929-0.695,1.459-1.076,1.592-1.145c1.99-0.928,3.746-2.486,5.273-4.674
		C245.685,265.834,246.314,263.58,246.05,261.258z"/>
	<path d="M270.72,259.17c0.132,1.924,0.199,3.914,0.199,5.969c0,4.51-0.465,11.307-1.393,20.396
		c-0.93,9.086-1.394,15.945-1.394,20.592c0,1.725,0.032,3.414,0.1,5.072c-0.597,1.854-1.89,2.752-3.88,2.686
		c-2.852-0.133-4.41-1.355-4.675-3.68c-0.267-2.32-0.397-4.771-0.397-7.361c0-4.51,0.547-11.238,1.641-20.189
		c1.094-8.953,1.642-15.65,1.642-20.096c0-1.727-0.067-3.414-0.199-5.072c0.662-1.26,1.79-1.895,3.382-1.895
		c1.26,0,2.52,0.365,3.781,1.098c0.264-0.197,0.463-0.297,0.596-0.297c0.199,0,0.299,0.332,0.299,0.99
		c-0.066,0.797-0.066,1.264,0,1.396C270.486,258.971,270.586,259.104,270.72,259.17z"/>
	<path d="M310.51,304.033c0.397,0.332,0.598,0.795,0.598,1.393c0,0.398-0.267,1.396-0.797,2.984
		c-0.266-0.064-0.496-0.104-0.695-0.104c-0.398,0-0.912,0.166-1.542,0.498c-0.631,0.332-1.111,0.496-1.442,0.496
		c-0.332,0-0.696-0.131-1.094-0.396c-4.444-2.784-11.341-6.967-20.691-12.534c0.199,2.455,0.363,5.969,0.498,10.545
		c0,0.53,0.064,1.328,0.198,2.387c0.132,1.063,0.199,1.824,0.199,2.289c0,1.593-0.696,2.688-2.089,3.283
		c-0.398,0.265-0.963,0.396-1.691,0.396c-0.796,0-1.293-0.23-1.492-0.693c-1.725-0.6-2.721-1.758-2.984-3.482
		c-0.796-4.771-1.193-10.377-1.193-16.811c0-2.32,0.064-5.785,0.199-10.396c0.131-4.605,0.198-8.072,0.198-10.396
		c0-7.029-0.464-13.134-1.393-18.308c-0.134-0.795,0.331-1.324,1.393-1.592c0.796-0.132,1.624-0.265,2.487-0.396
		c0.861,0.267,1.756,0.58,2.686,0.945c0.928,0.363,1.426,0.94,1.492,1.738c0.994,9.021,1.426,16.184,1.293,21.485
		c2.719-2.453,5.835-5.703,9.352-9.748c2.984-3.384,5.934-6.798,8.854-10.246c0.795-0.332,1.656-0.498,2.586-0.498
		c2.586,0,3.945,0.896,4.078,2.688c-1.856,4.111-5.506,8.986-10.941,14.623c-6.366,6.563-10.444,11.241-12.235,14.024
		c4.111,2.453,8.256,4.908,12.435,7.36C303.413,298.496,307.326,301.314,310.51,304.033z"/>
	<path d="M347.813,259.766c-2.454,0.996-6.064,2.156-10.844,3.482c-4.772,1.328-8.39,2.486-10.842,3.482
		c-0.598,1.725-1.029,5.566-1.293,11.539c1.061,0.396,2.287,0.596,3.68,0.596c0.995,0,2.554-0.164,4.677-0.496
		c2.12-0.332,3.683-0.498,4.678-0.498c1.854,0,3.444,0.398,4.771,1.193c0.931,1.328,1.396,2.188,1.396,2.586
		c0,0.465-0.234,0.83-0.697,1.096c-0.133,0.066-0.6,0.531-1.395,1.393c-0.529,0.596-1.191,0.861-1.988,0.795
		c-1.396,0.332-3.945,0.531-7.659,0.602c-3.118,0.063-5.604,0.465-7.46,1.189c-1.264,4.908-1.891,8.787-1.891,11.643
		c0,1.924,0.264,3.445,0.796,4.572c3.114,2.188,8.521,3.117,16.214,2.785c0.529,0,1.096-0.248,1.688-0.746
		c0.601-0.498,1.095-0.746,1.491-0.746c1.855-0.396,3.084,0.994,3.684,4.182c0.196,1.063,0.018,2.039-0.55,2.934
		c-0.563,0.896-1.377,1.377-2.437,1.443c-8.024,0.264-14.988-0.365-20.891-1.891c-1.857-0.469-3.55-1.492-5.073-3.086
		c-1.526-1.594-2.388-3.383-2.587-5.373c-0.598-5.77-0.598-10.938,0-15.518c-1.857-1.26-2.687-2.488-2.486-3.682
		c0.064-0.596,0.58-1.145,1.541-1.641c0.961-0.498,1.508-1.014,1.643-1.543c0.132-0.529,0.397-3.684,0.796-9.449
		c-3.716-0.729-5.537-2.121-5.472-4.178c0.064-1.928,1.228-3.447,3.481-4.576c2.122-0.861,4.243-1.729,6.366-2.586
		c2.452-1.264,5.536-2.393,9.251-3.387c3.25-0.857,6.5-1.688,9.75-2.482c0.332-0.066,0.729-0.104,1.189-0.104
		c1.791,0,3.884,0.695,6.271,2.092c0.063,0.266,0.229,0.764,0.498,1.488c0.264,0.729,0.396,1.266,0.396,1.596
		C348.509,259.004,348.275,259.436,347.813,259.766z"/>
	<path d="M400.139,247.531c-0.598,2.387-1.726,3.779-3.383,4.178c-4.313,1.061-11.805,2.453-22.479,4.178
		c-1.325,16.514-1.987,30.275-1.987,41.283c0,4.178,0.063,8.291,0.196,12.334c0.063,1.26,0,2.221-0.196,2.885
		c-0.333,1.063-0.995,1.563-1.99,1.492c-1.924-0.063-3.516-0.879-4.771-2.438c-1.261-1.563-1.957-3.297-2.088-5.227
		c-0.138-2.447-0.199-5.035-0.199-7.758c0-4.377,0.299-11.311,0.896-20.791c0.598-9.086,0.861-16.018,0.796-20.791
		c-1.791-0.131-4.276,0.035-7.461,0.498c-3.647,0.531-6.168,0.795-7.561,0.795c-3.248,0-5.901-0.868-7.959-2.604
		c-0.795-1.738-1.192-2.645-1.192-2.707c0-0.469,0.233-0.972,0.696-1.506c2.123-0.734,6.466-1.402,13.031-2.006
		c5.77-0.604,10.08-1.676,12.932-3.21c2.32,0.796,4.975,1.19,7.958,1.19s5.835-0.363,8.556-1.098
		c0.797-0.063,2.817-0.527,6.067-1.395c2.388-0.596,4.378-0.795,5.969-0.596c1.194,0,1.69,0.498,1.492,1.492
		C399.243,245.74,400.139,246.336,400.139,247.531z"/>
	<path d="M422.719,304.73c0.398,1.061,0.601,1.984,0.601,2.781c0,1.326-0.564,2.486-1.69,3.48c-1.129,0.996-1.891,1.459-2.288,1.393
		c-3.25-0.596-5.307-3.215-6.168-7.854c-0.93-5.039-2.021-9.252-3.282-12.635c-2.256,0.199-4.511,0.396-6.765,0.598
		c-2.587,0.332-4.61,1.129-6.067,2.387c-0.729,2.057-1.689,5.705-2.886,10.943c-1.128,4.84-2.224,8.52-3.281,11.041
		c-0.53,1.189-1.657,1.521-3.384,0.996c-2.188-0.73-3.353-1.729-3.479-2.984c-0.198-2.521,0.528-5.902,2.188-10.146
		c1.989-4.842,3.084-8.291,3.283-10.346c0.063-0.598-0.366-1.26-1.294-1.99c-0.931-0.729-1.395-1.293-1.395-1.688
		c0-0.33,0.147-0.684,0.446-1.045c0.298-0.363,0.994-0.662,2.089-0.896c1.097-0.229,1.706-0.58,1.843-1.045
		c1.191-3.313,3.084-9.481,5.67-18.503c2.188-7.823,4.146-13.827,5.867-18.006c0.397-0.928,1.229-1.394,2.486-1.394
		c0.928,0,1.757,0.3,2.487,0.896c1.854,1.593,3.049,3.979,3.581,7.164c0.396,2.72,0.762,5.438,1.094,8.156
		C415.688,281.686,419.138,294.582,422.719,304.73z M408.195,285.73c-0.199-2.453-0.631-5.207-1.293-8.258
		c-0.664-2.65-1.294-5.309-1.895-7.957c-1.986,5.504-3.715,11.008-5.173,16.512C400.898,285.828,403.686,285.73,408.195,285.73z"/>
	<path d="M462.21,284.635c-1.791,4.443-2.952,9.916-3.481,16.414c-0.329,5.637-0.632,11.273-0.896,16.91
		c-0.134,1.658-1.228,2.488-3.283,2.488c-0.597,0-1.161-0.104-1.688-0.299c-2.854-1.193-4.277-3.416-4.277-6.664
		c0-0.934,0.132-2.338,0.397-4.229c0.265-1.891,0.396-3.266,0.396-4.129c0.265-1.922,0.598-4.808,0.995-8.653
		c-4.576,4.313-9.749,7.526-15.52,9.649c-0.799,0.267-1.594,0.396-2.39,0.396c-3.052,0-5.869-1.723-8.456-5.172
		c-1.458-1.924-2.188-4.311-2.188-7.162c0-2.52,0.563-5.473,1.688-8.854c3.519-10.744,9.117-21.254,16.813-31.535
		c3.846-5.105,7.262-7.658,10.246-7.658c2.647,0,4.144,0.994,4.477,2.984c0.267,1.658-0.299,2.852-1.688,3.58
		c-2.322,1.262-3.553,1.957-3.685,2.09c-5.566,6.166-10.678,14.125-15.315,23.873c-2.854,6.035-4.277,11.441-4.277,16.215
		c0,0.863,0.032,1.727,0.1,2.586c0.135,0.068,0.331,0.383,0.601,0.945c0.265,0.564,0.63,0.746,1.094,0.547
		c4.377-1.723,10.976-6.266,19.796-13.627c0.662-0.531,1.426-2.055,2.288-4.576c0.662-1.855,1.854-2.785,3.581-2.785
		c-0.531,0,0-0.066,1.592-0.199c0.796-0.133,1.326,0,1.592,0.398c1.262,1.857,1.894,3.381,1.894,4.576
		C462.607,283.342,462.475,283.973,462.21,284.635z"/>
</g>
<g>
	<path d="M250.609,147.659c0,1.683-1.122,2.744-3.366,3.179c-2.931,0.561-4.738,1.215-5.423,1.963
		c-6.981,7.355-10.472,16.861-10.472,28.516c0,5.486,0.872,10.659,2.618,15.521c1.433,3.99,2.461,6.607,3.085,7.854
		c1.558,3.053,3.459,5.236,5.704,6.545c0.935,0.436,1.87,0.841,2.805,1.215c0.997,0.561,1.496,1.34,1.496,2.337
		c0,0.997-0.327,1.901-0.982,2.711c-0.654,0.81-1.355,1.122-2.104,0.935c-0.811-0.125-2.057-0.53-3.74-1.215
		c-2.992-1.746-6.234-5.455-9.724-11.126c-0.874-1.435-1.762-2.913-2.665-4.441c-0.904-1.526-1.575-2.976-2.01-4.348
		c-0.313-0.996-0.842-5.017-1.589-12.061c-0.25-2.181-0.374-4.301-0.374-6.357c0-11.033,3.209-20.413,9.63-28.143
		c3.74-4.488,7.635-6.731,11.687-6.731c1.744,0,3.334,0.53,4.769,1.589C250.39,145.915,250.609,146.6,250.609,147.659z"/>
	<path d="M280.995,183.842c-3.679,8.291-8.882,13.215-15.614,14.772c-0.811,0.187-1.622,0.281-2.431,0.281
		c-3.553,0-7.138-1.932-10.752-5.797c-2.431-2.618-3.646-6.015-3.646-10.191c0-4.612,1.37-9.567,4.114-14.866
		c1.184-2.244,2.618-4.175,4.301-5.797c1.932-1.931,3.771-2.898,5.517-2.898c0.996,0,1.931,0.374,2.805,1.122
		c0.872,0.748,3.209,1.746,7.012,2.992c2.992,0.998,5.11,2.681,6.358,5.049c2.181,4.176,3.272,7.76,3.272,10.752
		C281.93,180.943,281.617,182.472,280.995,183.842z M273.515,178.045c-0.437-4.549-1.652-7.26-3.646-8.134
		c-0.313-0.125-0.593-0.187-0.842-0.187c-0.748,0-1.683,0.624-2.805,1.87c-1.248,1.435-2.213,2.276-2.898,2.524
		c-0.437,0.187-1.061,0-1.87-0.561c-0.811-0.561-1.341-0.841-1.589-0.841c-0.187,0-0.343,0.063-0.467,0.187
		c-2.183,1.87-3.272,4.769-3.272,8.695c0,2.681,0.623,4.955,1.87,6.825c1.744,2.557,3.209,3.833,4.394,3.833
		c2.742,0,5.391-1.713,7.947-5.142C272.767,183.874,273.826,180.85,273.515,178.045z"/>
	<path d="M331.201,205.626c0.248,1.246-0.654,1.931-2.712,2.057c-1.372,0.061-2.774-0.53-4.207-1.776
		c-1.185-1.061-2.12-2.773-2.805-5.143c-0.624-2.181-0.998-5.267-1.122-9.256c-0.126-4.488-0.344-7.573-0.655-9.256
		c-0.811,2.805-2.15,6.981-4.021,12.528c-1.122,3.055-1.808,4.801-2.057,5.236c-0.998,1.933-2.244,2.805-3.74,2.618
		c-2.992-0.685-5.299-2.368-6.919-5.049c-1.061-1.744-2.057-4.519-2.992-8.321c-0.998-4.175-1.839-6.98-2.524-8.415
		c-2.681,13.028-5.548,22.751-8.602,29.171c-0.437,0.935-1.746,0.872-3.927-0.187c-1.808-0.874-2.711-2.12-2.711-3.74
		c0-0.561,0.654-2.555,1.963-5.984c0.561-1.496,2.742-8.695,6.544-21.598c1.309-4.488,2.679-12.372,4.114-23.655
		c0.125-0.124,0.436-0.778,0.935-1.963c0.311-0.872,0.872-1.309,1.683-1.309c2.118,0,3.583,0.406,4.394,1.215
		c0,1.809,0.295,4.722,0.888,8.742c0.592,4.021,0.889,7.059,0.889,9.116c0.561,3.491,1.089,7.012,1.589,10.565
		c0.685,3.99,1.931,7.262,3.74,9.817c5.984-16.642,9.785-29.793,11.407-39.455c0.248-0.997,1.183-1.496,2.805-1.496
		c2.305,0,3.614,0.748,3.927,2.244c0.436,2.244,0.654,4.832,0.654,7.76c0,0.935-0.063,2.961-0.187,6.077
		c-0.063,2.618-0.063,4.738,0,6.358C328.115,185.681,329.331,196.714,331.201,205.626z"/>
	<path d="M381.876,205.626c0.248,1.246-0.656,1.931-2.713,2.057c-1.371,0.061-2.773-0.53-4.207-1.776
		c-1.184-1.061-2.119-2.773-2.805-5.143c-0.623-2.181-0.998-5.267-1.121-9.256c-0.127-4.488-0.344-7.573-0.654-9.256
		c-0.813,2.805-2.15,6.981-4.021,12.528c-1.121,3.055-1.809,4.801-2.057,5.236c-0.998,1.933-2.244,2.805-3.739,2.618
		c-2.992-0.685-5.299-2.368-6.92-5.049c-1.061-1.744-2.057-4.519-2.991-8.321c-0.998-4.175-1.839-6.98-2.524-8.415
		c-2.681,13.028-5.549,22.751-8.602,29.171c-0.438,0.935-1.746,0.872-3.928-0.187c-1.808-0.874-2.711-2.12-2.711-3.74
		c0-0.561,0.654-2.555,1.964-5.984c0.562-1.496,2.741-8.695,6.544-21.598c1.31-4.488,2.68-12.372,4.114-23.655
		c0.124-0.124,0.436-0.778,0.935-1.963c0.312-0.872,0.873-1.309,1.684-1.309c2.118,0,3.584,0.406,4.395,1.215
		c0,1.809,0.295,4.722,0.888,8.742c0.592,4.021,0.889,7.059,0.889,9.116c0.561,3.491,1.089,7.012,1.589,10.565
		c0.686,3.99,1.932,7.262,3.74,9.817c5.983-16.642,9.784-29.793,11.407-39.455c0.248-0.997,1.182-1.496,2.805-1.496
		c2.305,0,3.613,0.748,3.926,2.244c0.436,2.244,0.654,4.832,0.654,7.76c0,0.935-0.063,2.961-0.186,6.077
		c-0.064,2.618-0.064,4.738,0,6.358C378.79,185.681,380.005,196.714,381.876,205.626z"/>
	<path d="M418.244,183.842c-3.678,8.291-8.882,13.215-15.613,14.772c-0.811,0.187-1.622,0.281-2.431,0.281
		c-3.554,0-7.139-1.932-10.753-5.797c-2.431-2.618-3.646-6.015-3.646-10.191c0-4.612,1.37-9.567,4.113-14.866
		c1.184-2.244,2.618-4.175,4.301-5.797c1.932-1.931,3.771-2.898,5.517-2.898c0.996,0,1.931,0.374,2.805,1.122
		c0.872,0.748,3.21,1.746,7.013,2.992c2.991,0.998,5.109,2.681,6.357,5.049c2.181,4.176,3.272,7.76,3.272,10.752
		C419.18,180.943,418.867,182.472,418.244,183.842z M410.765,178.045c-0.437-4.549-1.652-7.26-3.646-8.134
		c-0.313-0.125-0.593-0.187-0.841-0.187c-0.748,0-1.684,0.624-2.806,1.87c-1.247,1.435-2.213,2.276-2.898,2.524
		c-0.437,0.187-1.061,0-1.869-0.561c-0.812-0.561-1.342-0.841-1.59-0.841c-0.187,0-0.343,0.063-0.468,0.187
		c-2.183,1.87-3.272,4.769-3.272,8.695c0,2.681,0.623,4.955,1.87,6.825c1.744,2.557,3.21,3.833,4.395,3.833
		c2.742,0,5.391-1.713,7.947-5.142C410.017,183.874,411.076,180.85,410.765,178.045z"/>
	<path d="M454.239,150.37c-4.801,7.293-8.82,14.337-12.061,21.13c0.748,1.809,2.742,5.455,5.983,10.939
		c2.68,4.488,4.395,8.26,5.143,11.313c-0.5,0.063-1.028,0.483-1.59,1.262c-0.561,0.78-1.122,1.138-1.683,1.075
		c-2.307-0.187-4.177-1.246-5.61-3.179c-0.748-0.997-1.776-3.085-3.085-6.264c-1.248-2.805-2.431-4.769-3.553-5.891
		c-2.183,3.179-4.504,8.228-6.966,15.146c-2.463,6.919-4.722,11.905-6.778,14.959c-3.366,0.311-5.297-0.219-5.797-1.589
		c-0.187-0.561-0.28-1.122-0.28-1.683c0-0.998,0.374-2.307,1.122-3.927c1.059-2.305,1.65-3.614,1.776-3.927
		c3.49-10.222,7.821-19.789,12.996-28.704c-1.87-4.175-5.143-8.663-9.817-13.463c-0.313-0.311-0.468-0.622-0.468-0.935
		c0-1.184,0.936-2.119,2.806-2.805c0.685-0.249,1.37-0.374,2.057-0.374c1.807,0,3.583,1.185,5.329,3.553
		c2.492,3.429,3.833,5.236,4.021,5.423c0.311-0.435,1.838-3.146,4.581-8.134c1.87-3.366,3.646-5.983,5.329-7.854
		c1.246-0.374,2.806-0.435,4.675-0.187c1.434,0.624,2.15,1.622,2.15,2.992C454.52,149.685,454.427,150.059,454.239,150.37z"/>
</g>
</svg>
