<?xml version="1.0" encoding="utf-8"?>
<!-- Generator: Adobe Illustrator 16.0.0, SVG Export Plug-In . SVG Version: 6.00 Build 0)  -->
<!DOCTYPE svg PUBLIC "-//W3C//DTD SVG 1.1//EN" "http://www.w3.org/Graphics/SVG/1.1/DTD/svg11.dtd">
<svg version="1.1" id="Layer_1" xmlns="http://www.w3.org/2000/svg" xmlns:xlink="http://www.w3.org/1999/xlink" x="0px" y="0px"
	 width="646px" height="449px" viewBox="0 0 646 449" enable-background="new 0 0 646 449" xml:space="preserve">
<g>
	<path fill="none" d="M412.499,155.813c-0.614-2.453-1.196-4.906-1.748-7.36c-1.84,5.092-3.436,10.182-4.784,15.272
		c0.98-0.184,3.557-0.276,7.729-0.276C413.511,161.181,413.111,158.635,412.499,155.813z"/>
	<path fill="none" d="M248.834,173.845c2.698,0,5.304-1.686,7.82-5.06c2.392-3.188,3.434-6.164,3.128-8.924
		c-0.43-4.477-1.626-7.145-3.588-8.004c-0.308-0.123-0.583-0.184-0.828-0.184c-0.736,0-1.656,0.614-2.76,1.84
		c-1.228,1.412-2.178,2.24-2.852,2.484c-0.43,0.184-1.044,0-1.84-0.552c-0.798-0.552-1.319-0.828-1.564-0.828
		c-0.184,0-0.338,0.062-0.46,0.184c-2.147,1.84-3.22,4.692-3.22,8.556c0,2.638,0.612,4.876,1.84,6.716
		C246.226,172.589,247.668,173.845,248.834,173.845z"/>
	<path fill="none" d="M300.216,223.453c-1.84,5.092-3.436,10.182-4.784,15.272c0.98-0.184,3.557-0.275,7.728-0.275
		c-0.184-2.27-0.583-4.814-1.196-7.637C301.35,228.361,300.768,225.906,300.216,223.453z"/>
	<path d="M233.931,133.089c2.208-0.429,3.312-1.472,3.312-3.128c0-1.042-0.216-1.716-0.644-2.024
		c-1.412-1.042-2.976-1.564-4.692-1.564c-3.988,0-7.82,2.208-11.5,6.624c-6.318,7.606-9.476,16.836-9.476,27.692
		c0,2.024,0.122,4.11,0.368,6.256c0.736,6.932,1.256,10.888,1.564,11.868c0.429,1.35,1.088,2.776,1.978,4.278
		c0.889,1.504,1.763,2.958,2.622,4.37c3.435,5.581,6.624,9.23,9.568,10.948c1.656,0.674,2.882,1.072,3.68,1.196
		c0.736,0.184,1.426-0.124,2.07-0.92c0.644-0.798,0.966-1.688,0.966-2.668c0-0.982-0.492-1.748-1.472-2.3
		c-0.92-0.368-1.84-0.768-2.76-1.196c-2.208-1.288-4.08-3.436-5.612-6.44c-0.614-1.226-1.626-3.802-3.036-7.728
		c-1.718-4.784-2.576-9.875-2.576-15.272c0-11.469,3.434-20.823,10.304-28.061C229.269,134.285,231.047,133.641,233.931,133.089z"/>
	<path d="M249.386,180.377c0.796,0,1.594-0.092,2.392-0.276c6.624-1.533,11.745-6.378,15.364-14.536
		c0.612-1.349,0.92-2.852,0.92-4.508c0-2.944-1.074-6.47-3.22-10.58c-1.228-2.33-3.312-3.986-6.256-4.968
		c-3.742-1.226-6.042-2.208-6.9-2.944c-0.859-0.736-1.779-1.104-2.76-1.104c-1.718,0-3.528,0.951-5.428,2.852
		c-1.656,1.596-3.067,3.496-4.232,5.704c-2.7,5.214-4.048,10.09-4.048,14.628c0,4.11,1.196,7.452,3.588,10.028
		C242.362,178.477,245.89,180.377,249.386,180.377z M245.89,154.801c0.122-0.122,0.276-0.184,0.46-0.184
		c0.245,0,0.766,0.276,1.564,0.828c0.796,0.552,1.41,0.736,1.84,0.552c0.674-0.244,1.624-1.072,2.852-2.484
		c1.104-1.226,2.024-1.84,2.76-1.84c0.245,0,0.521,0.062,0.828,0.184c1.962,0.859,3.158,3.527,3.588,8.004
		c0.306,2.76-0.736,5.736-3.128,8.924c-2.516,3.374-5.122,5.06-7.82,5.06c-1.166,0-2.608-1.256-4.324-3.772
		c-1.228-1.84-1.84-4.078-1.84-6.716C242.67,159.493,243.742,156.641,245.89,154.801z"/>
	<path d="M271.327,159.585c0.644,9.324,1.518,16.192,2.622,20.608c0.368,1.718,0.736,3.436,1.104,5.152
		c0.612,1.962,1.84,3.066,3.68,3.312c1.226,0.368,2.084,0.306,2.576-0.184c1.656-1.596,3.096-5.336,4.324-11.224
		c1.41-6.808,2.544-11.07,3.404-12.788c0.49,3.496,1.012,6.778,1.564,9.844c1.104,5.828,1.686,8.894,1.748,9.2
		c0.98,3.373,2.606,5.643,4.876,6.808c0.612,0.306,1.318,0.46,2.116,0.46c1.717,0,2.76-0.614,3.128-1.84
		c1.348-4.354,2.682-11.162,4.002-20.424c1.318-9.26,2.714-16.16,4.186-20.7c0.06-0.244,0.552-1.348,1.472-3.312
		c0.736-1.472,1.104-2.636,1.104-3.496c0-1.288-0.706-2.268-2.116-2.944c-0.736-0.368-1.596-0.552-2.576-0.552
		c-1.35,0-2.24,0.399-2.668,1.196c-2.024,3.988-3.68,9.14-4.968,15.456c-1.043,5.398-2.055,10.826-3.036,16.284
		c-0.246-1.104-0.89-5.212-1.932-12.328c-0.676-5.028-1.688-9.046-3.036-12.052c-0.062-0.122-0.338-0.214-0.828-0.276
		c-0.491-0.06-0.768-0.276-0.828-0.644c-0.736-0.184-1.412-0.276-2.024-0.276c-2.332,0-3.864,1.412-4.6,4.232
		c-0.492,2.332-1.012,4.662-1.564,6.992c-0.614,1.288-1.242,3.358-1.886,6.21s-1.212,4.8-1.702,5.842
		c-1.35-14.904-2.516-24.933-3.496-30.084c-0.92-1.532-2.239-2.3-3.956-2.3c-0.491,0-0.981,0.062-1.472,0.184
		c-0.676,0.062-1.196,0.43-1.564,1.104c-0.368,0.675-0.46,1.38-0.276,2.116C269.809,143.455,270.683,150.263,271.327,159.585z"/>
	<path d="M325.284,187.001c-0.062-1.534-0.092-3.096-0.092-4.692c0-4.292,0.429-10.641,1.288-19.044
		c0.858-8.402,1.288-14.688,1.288-18.86c0-1.9-0.063-3.74-0.185-5.52c-0.123-0.061-0.215-0.184-0.275-0.368
		c-0.063-0.122-0.063-0.552,0-1.288c0-0.612-0.092-0.92-0.276-0.92c-0.123,0-0.308,0.092-0.552,0.276
		c-1.166-0.674-2.332-1.012-3.497-1.012c-1.472,0-2.516,0.583-3.128,1.748c0.122,1.534,0.184,3.098,0.184,4.692
		c0,4.11-0.506,10.304-1.518,18.584c-1.012,8.28-1.518,14.506-1.518,18.676c0,2.392,0.123,4.662,0.368,6.808
		c0.244,2.146,1.686,3.28,4.324,3.404C323.536,189.546,324.732,188.718,325.284,187.001z"/>
	<path d="M353.482,198.686c0.645-0.798,0.967-1.688,0.967-2.668c0-0.982-0.492-1.748-1.473-2.3c-0.92-0.368-1.84-0.768-2.76-1.196
		c-2.209-1.288-4.08-3.436-5.611-6.44c-0.615-1.226-1.627-3.802-3.037-7.728c-1.717-4.784-2.576-9.875-2.576-15.272
		c0-11.469,3.436-20.823,10.305-28.061c0.674-0.736,2.453-1.38,5.336-1.932c2.209-0.429,3.313-1.472,3.313-3.128
		c0-1.042-0.217-1.716-0.645-2.024c-1.412-1.042-2.977-1.564-4.691-1.564c-3.988,0-7.82,2.208-11.5,6.624
		c-6.318,7.606-9.477,16.836-9.477,27.692c0,2.024,0.122,4.11,0.367,6.256c0.736,6.932,1.257,10.888,1.564,11.868
		c0.429,1.35,1.088,2.776,1.978,4.278c0.889,1.504,1.763,2.958,2.622,4.37c3.436,5.581,6.625,9.23,9.568,10.948
		c1.656,0.674,2.883,1.072,3.68,1.196C352.148,199.79,352.838,199.482,353.482,198.686z"/>
	<path d="M356.058,180.976c-0.093,0.828-0.139,1.488-0.139,1.978c0,2.208,0.705,3.68,2.116,4.416
		c1.962,1.042,3.986,1.134,6.072,0.276c0.244-9.444,1.104-16.59,2.576-21.436c0.735-0.245,1.502-0.368,2.3-0.368
		c0.674,0,1.763,0.154,3.266,0.46c1.503,0.308,2.683,0.43,3.542,0.368c0,1.35-0.153,3.282-0.46,5.796
		c-0.308,2.516-0.46,4.386-0.46,5.612c0,0.736-0.046,1.886-0.138,3.45s-0.138,2.714-0.138,3.45c0,3.74,1.164,6.286,3.496,7.636
		c0.552,0.306,1.686,0.46,3.403,0.46c0.49,0,0.92-0.2,1.288-0.598c0.368-0.4,0.553-0.813,0.553-1.242
		c-0.124-1.718-0.185-3.527-0.185-5.428c0-6.01,0.767-14.628,2.3-25.853c1.656-11.836,2.545-20.484,2.668-25.944
		c-0.43-1.656-2.27-2.331-5.52-2.024c-1.288,0-2.056,1.074-2.3,3.22c-1.166,10.244-2.516,18.584-4.049,25.024
		c-0.367,0-1.441,0.062-3.22,0.184c-1.35,0.062-2.392,0.031-3.128-0.092c-1.104-0.122-2.023-0.46-2.76-1.012
		c0-1.532,0.198-3.756,0.598-6.67c0.398-2.912,0.599-5.044,0.599-6.394c0-1.9-0.246-3.618-0.736-5.152
		c-0.246-0.858-0.952-1.41-2.116-1.656c-1.411-0.306-2.3-0.674-2.668-1.104c-0.124,0.184-0.66,0.368-1.61,0.552
		c-0.951,0.184-1.426,0.614-1.426,1.288c0.061,4.846-0.43,11.378-1.472,19.596c-1.228,9.813-1.933,16.376-2.116,19.688
		C356.195,179.642,356.149,180.147,356.058,180.976z"/>
	<path d="M394.559,193.166c1.595,0.49,2.637,0.184,3.128-0.92c0.98-2.332,1.993-5.736,3.036-10.212
		c1.104-4.845,1.992-8.218,2.668-10.12c1.349-1.165,3.221-1.9,5.612-2.208c2.084-0.184,4.17-0.368,6.256-0.552
		c1.165,3.128,2.177,7.024,3.036,11.684c0.797,4.294,2.698,6.716,5.704,7.268c0.368,0.061,1.072-0.368,2.116-1.288
		c1.042-0.92,1.563-1.992,1.563-3.22c0-0.736-0.184-1.594-0.552-2.576c-3.312-9.384-6.502-21.313-9.568-35.788
		c-0.308-2.514-0.644-5.029-1.012-7.544c-0.491-2.944-1.596-5.152-3.312-6.624c-0.676-0.552-1.442-0.828-2.301-0.828
		c-1.165,0-1.932,0.43-2.3,1.288c-1.596,3.864-3.403,9.416-5.428,16.652c-2.393,8.342-4.14,14.046-5.244,17.112
		c-0.124,0.43-0.69,0.751-1.702,0.966c-1.012,0.216-1.656,0.492-1.932,0.828c-0.276,0.338-0.414,0.66-0.414,0.966
		c0,0.368,0.429,0.89,1.288,1.564c0.858,0.676,1.256,1.288,1.195,1.84c-0.184,1.902-1.195,5.091-3.035,9.568
		c-1.534,3.926-2.208,7.052-2.024,9.384C391.461,191.57,392.535,192.49,394.559,193.166z M410.751,148.453
		c0.552,2.454,1.134,4.908,1.748,7.36c0.612,2.822,1.012,5.368,1.196,7.636c-4.172,0-6.748,0.092-7.729,0.276
		C407.315,158.635,408.911,153.545,410.751,148.453z"/>
	<path d="M469.354,129.685c-0.184-0.612-0.583-1.042-1.195-1.288c-0.185-0.06-0.768-0.214-1.748-0.46
		c-0.736-0.184-1.381-0.276-1.933-0.276c-1.596,0-2.483,0.614-2.668,1.84c-1.964,16.5-3.404,28.828-4.324,36.984
		c-2.27-4.17-4.783-10.272-7.544-18.308c-2.884-8.402-5.306-14.474-7.268-18.216c-2.024-1.656-3.558-2.422-4.601-2.3
		c-2.208,0-3.344,0.676-3.403,2.024c-0.124,1.596-0.768,9.814-1.933,24.656c-0.735,9.752-1.104,17.88-1.104,24.38
		c0,3.742,0.092,7.328,0.275,10.764c0.061,1.042,0.123,2.054,0.185,3.036c0.184,1.226,0.674,1.962,1.472,2.208
		c0.244,0.122,0.828,0.398,1.748,0.828c0.674,0.368,1.227,0.552,1.656,0.552c0.49,0,0.95-0.215,1.38-0.644
		c1.104-0.675,1.624-1.901,1.564-3.68c-0.246-4.846-0.368-9.598-0.368-14.26c0-9.69,0.521-18.92,1.563-27.692
		c0.122-0.858,0.398-1.288,0.828-1.288c0.185,0,0.337,0.184,0.46,0.552c5.826,16.376,10.702,28.398,14.628,36.064
		c1.288,2.576,2.883,3.864,4.784,3.864c0.98,0,1.854-0.368,2.622-1.104c0.767-0.736,1.118-1.596,1.059-2.576
		c-0.124-2.084-0.185-4.201-0.185-6.348c0-6.563,0.521-14.75,1.564-24.564C467.667,146.153,468.495,137.905,469.354,129.685z"/>
	<path d="M282.092,205.789c0-0.858-0.276-1.302-0.828-1.334c-0.552-0.03-1.012-0.244-1.38-0.644c-0.368-0.398-0.676-0.628-0.92-0.69
		c-2.27-0.552-3.864-0.03-4.784,1.564c-2.822,6.134-5.582,13.432-8.28,21.896c-2.27,7.545-4.54,15.059-6.808,22.541
		c-1.656-6.256-3.282-12.543-4.876-18.859c-2.024-7.299-4.14-13.463-6.348-18.493c-2.454-1.84-4.172-2.76-5.152-2.76
		c-0.491,0-0.981,0.154-1.472,0.46c-0.552,0-1.228,0.768-2.024,2.3c3.004,6.502,6.01,15.978,9.016,28.429
		c3.188,13.064,5.98,22.447,8.372,28.152c1.349,0.92,2.453,1.379,3.312,1.379c0.736,0,1.38-0.307,1.932-0.92
		c1.594-4.109,3.25-10.15,4.968-18.123c1.778-8.342,3.312-14.32,4.6-17.941c4.416-12.265,7.82-20.638,10.212-25.116
		C281.938,207.016,282.092,206.402,282.092,205.789z"/>
	<path d="M307.024,220.233c-0.308-2.515-0.644-5.029-1.012-7.544c-0.492-2.944-1.596-5.152-3.312-6.624
		c-0.675-0.552-1.442-0.828-2.3-0.828c-1.166,0-1.932,0.43-2.3,1.288c-1.595,3.864-3.404,9.416-5.428,16.653
		c-2.392,8.342-4.14,14.045-5.244,17.112c-0.124,0.43-0.69,0.752-1.702,0.967c-1.012,0.215-1.656,0.49-1.932,0.826
		c-0.276,0.338-0.414,0.66-0.414,0.967c0,0.367,0.428,0.891,1.288,1.564c0.858,0.676,1.256,1.287,1.196,1.84
		c-0.184,1.902-1.196,5.092-3.036,9.568c-1.534,3.926-2.208,7.053-2.024,9.383c0.122,1.166,1.196,2.086,3.22,2.762
		c1.594,0.488,2.636,0.184,3.128-0.922c0.98-2.33,1.992-5.734,3.036-10.211c1.104-4.844,1.992-8.219,2.668-10.121
		c1.348-1.164,3.22-1.9,5.612-2.207c2.084-0.184,4.17-0.369,6.256-0.553c1.165,3.129,2.177,7.023,3.036,11.686
		c0.796,4.293,2.698,6.715,5.704,7.268c0.368,0.061,1.072-0.369,2.116-1.289c1.042-0.92,1.564-1.992,1.564-3.219
		c0-0.736-0.184-1.596-0.552-2.576C313.28,246.637,310.09,234.709,307.024,220.233z M295.432,238.725
		c1.349-5.09,2.944-10.18,4.784-15.272c0.552,2.454,1.134,4.909,1.748,7.36c0.612,2.822,1.012,5.367,1.196,7.637
		C298.988,238.449,296.412,238.541,295.432,238.725z"/>
	<path d="M343.732,244.889c-0.369,0-0.936,0.063-1.703,0.184c-0.768,0.125-1.303,0.186-1.609,0.186
		c-1.35,0.674-3.527,2.055-6.532,4.139c-2.76,1.84-5,3.129-6.716,3.865c-0.124-5.029,0.122-12.559,0.735-22.586
		c0.613-10.029,0.828-17.557,0.645-22.587c-0.368-1.717-1.718-2.576-4.048-2.576c-1.228,0-2.24,0.399-3.037,1.197
		c0.245,2.766,0.368,5.714,0.368,8.847c0,4.545-0.46,11.949-1.38,22.207c-0.798,9.645-1.136,17.17-1.012,22.576
		c0.061,0.061,0.644,0.828,1.748,2.303c0.736,1.105,1.532,1.658,2.393,1.658c0.367,0,0.735-0.094,1.104-0.277
		c3.188-1.418,6.838-3.605,10.948-6.564c7.052-5.053,10.642-7.609,10.765-7.672c0.736-0.922,0.736-2.063,0-3.42
		C345.848,245.383,344.959,244.889,343.732,244.889z"/>
	<path d="M372.895,244.889c-0.368,0-0.936,0.063-1.702,0.184c-0.768,0.125-1.304,0.186-1.609,0.186
		c-1.351,0.674-3.528,2.055-6.532,4.139c-2.76,1.84-5,3.129-6.716,3.865c-0.124-5.029,0.122-12.559,0.735-22.586
		c0.612-10.029,0.828-17.557,0.645-22.587c-0.368-1.717-1.718-2.576-4.049-2.576c-1.228,0-2.239,0.399-3.035,1.197
		c0.244,2.766,0.367,5.714,0.367,8.847c0,4.545-0.46,11.949-1.38,22.207c-0.798,9.645-1.136,17.17-1.012,22.576
		c0.061,0.061,0.644,0.828,1.748,2.303c0.736,1.105,1.532,1.658,2.392,1.658c0.368,0,0.736-0.094,1.104-0.277
		c3.188-1.418,6.838-3.605,10.948-6.564c7.052-5.053,10.641-7.609,10.764-7.672c0.736-0.922,0.736-2.063,0-3.42
		C375.011,245.383,374.121,244.889,372.895,244.889z"/>
	<path d="M409.602,210.389c-2.208-1.288-4.14-1.932-5.796-1.932c-0.43,0-0.798,0.032-1.104,0.092c-3.006,0.736-5.98,1.503-8.925,2.3
		c-3.436,0.92-6.317,1.964-8.647,3.128c-1.964,0.798-3.926,1.596-5.889,2.392c-2.086,1.043-3.159,2.454-3.22,4.232
		c-0.062,1.901,1.624,3.189,5.061,3.863c-0.368,5.336-0.614,8.25-0.736,8.741c-0.124,0.492-0.63,0.965-1.519,1.426
		c-0.89,0.461-1.365,0.967-1.426,1.518c-0.184,1.104,0.582,2.24,2.3,3.404c-0.552,4.232-0.552,9.016,0,14.352
		c0.185,1.84,0.98,3.496,2.393,4.969c1.41,1.473,2.974,2.422,4.691,2.852c5.459,1.41,11.898,1.992,19.32,1.748
		c0.98-0.061,1.732-0.506,2.254-1.334c0.521-0.828,0.69-1.732,0.507-2.713c-0.553-2.945-1.688-4.232-3.404-3.865
		c-0.368,0-0.828,0.23-1.38,0.691c-0.553,0.459-1.074,0.689-1.564,0.689c-7.115,0.307-12.113-0.553-14.996-2.576
		c-0.491-1.043-0.736-2.453-0.736-4.232c0-2.637,0.583-6.225,1.748-10.764c1.717-0.674,4.017-1.043,6.9-1.104
		c3.435-0.061,5.796-0.246,7.084-0.553c0.736,0.063,1.349-0.184,1.84-0.736c0.736-0.797,1.165-1.227,1.288-1.287
		c0.429-0.244,0.645-0.582,0.645-1.012c0-0.369-0.43-1.166-1.288-2.393c-1.228-0.736-2.7-1.104-4.416-1.104
		c-0.92,0-2.362,0.152-4.324,0.459c-1.964,0.309-3.404,0.461-4.324,0.461c-1.288,0-2.424-0.186-3.404-0.553
		c0.245-5.52,0.645-9.077,1.196-10.672c2.269-0.92,5.612-1.992,10.028-3.22c4.416-1.226,7.758-2.3,10.028-3.22
		c0.428-0.306,0.644-0.704,0.644-1.196c0-0.306-0.124-0.796-0.368-1.472C409.816,211.095,409.662,210.634,409.602,210.389z"/>
	<path d="M434.901,205.513c-1.718,2.76-3.281,6.256-4.691,10.488c-1.229,3.62-2.454,7.269-3.681,10.949
		c-1.35-3.128-2.729-6.256-4.14-9.384c-1.656-3.68-3.252-6.685-4.784-9.016c-2.208-0.674-3.374-1.012-3.496-1.012
		c-0.736,0-1.487,0.292-2.254,0.874c-0.768,0.583-1.15,1.212-1.15,1.886c0,0.308,0.093,0.614,0.276,0.92
		c3.066,5.398,6.776,13.924,11.132,25.576c-1.901,4.908-3.804,9.814-5.704,14.721c-2.086,5.766-3.22,10.885-3.403,15.363
		c-0.063,0.92,0.506,1.795,1.701,2.623c1.196,0.826,2.314,1.18,3.358,1.057c2.084,0,3.22-1.074,3.404-3.219
		c0.061-0.553,0.061-1.842,0-3.865c0-1.471,0.152-2.699,0.46-3.68c1.532-4.906,4.998-13.83,10.396-26.771
		c4.601-11.101,7.759-20.117,9.477-27.049c-1.166-1.165-2.607-1.748-4.324-1.748C436.25,204.225,435.392,204.654,434.901,205.513z"
		/>
</g>
<path fill="none" d="M194.385,96.585c32.934,0.029,65.865,0.5,98.793,1.152c65.239,1.29,130.474,3.149,195.73,3.188
	c6.011-0.094,12.81-0.541,19.331,0.004c-17.84-5.56-38.318-3.133-56.538-3.18c-14.036-0.037-28.111-1.992-42.124-2.842
	c-16.351-0.991-32.708-1.756-49.06-2.735c-29.884-1.79-59.587-4.878-89.557-5.399c-15.119-0.263-30.254-0.174-45.359,0.581
	c-14.566,0.728-30.039,1.09-44.268,4.567c-4.772,1.165-9.457,2.79-13.77,5.048C176.524,95.897,185.998,96.579,194.385,96.585z"/>
<path fill="none" d="M146.17,123.131c0.839-1.358,1.773-2.681,2.817-3.957c6.441-7.879,15.174-13.149,24.862-16.108
	c7.198-2.199,14.55-3.549,21.981-4.302c-4.146-0.015-8.291-0.037-12.437-0.044c-7.161-0.014-14.767,0.188-21.593,1.834
	c-2.521,1.867-4.833,4.034-6.854,6.558C151.091,111.927,148.288,117.389,146.17,123.131z"/>
<path fill="none" d="M135.797,214.905c-4.113-0.436-5.645,3.624-6.384,7.315c-1.024,5.098-3.34,17.897,1.878,21.149
	c4.33,2.697,6.748-0.244,8.161-4.434c0.253-4.584,0.694-9.154,0.561-13.754C139.913,221.613,140.284,215.379,135.797,214.905z"/>
<path fill="none" d="M109.169,253.748c-0.205-0.66-0.398-1.32-0.582-1.984c0.894,6.045,2.332,11.949,4.395,17.266
	c4.021,10.367,10.772,18.855,18.011,27.15c2.248,2.574,4.499,5.172,6.68,7.824c-4.554-8.793-10.14-16.913-15.567-25.184
	C116.951,270.965,111.974,262.781,109.169,253.748z"/>
<path fill="none" d="M158.028,101.652c-8.022,2.765-14.501,8.099-17.108,18.355c-1.54,6.057-1.86,12.213-1.901,18.396
	c0.668-2.809,1.376-5.603,2.176-8.372C144.448,118.768,149.8,108.84,158.028,101.652z"/>
<path fill="none" d="M129.917,185.561c-1.645,2.687-3.561,5.245-5.559,7.753c0.254-0.299,0.509-0.595,0.761-0.898
	C126.979,190.188,128.555,187.902,129.917,185.561z"/>
<path fill="none" d="M302.006,356.982c-16.433-0.228-32.742-0.226-49.15-1.424c-15.524-1.135-31.074-3.297-46.634-3.771
	c-15.958-0.486-36.144,2.738-48.348-10.197c-5.474-5.8-8.446-13.047-11.948-20.029c0.67,5.055,0.98,10.219,1.584,15.617
	c0.657,5.877,1.696,11.994,5.652,16.65c4.589,5.406,10.825,6.66,17.638,6.352c30.201-1.344,60.609,0.609,90.825,1.764
	c16.565,0.631,33.127,1.336,49.681,2.193c16.896,0.879,33.767,2.283,50.694,2.32c23.436,0.051,46.807-1.477,70.195-2.716
	c-10.847-0.062-21.688-0.441-32.518-1.046C367.122,360.879,334.629,357.427,302.006,356.982z"/>
<path fill="none" d="M479.49,362.459c7.023,0.074,14.052,0.17,21.078,0.027c7.95-0.16,16.773-1.031,23.386-5.928
	c0.483-0.359,0.949-0.734,1.401-1.115C512.074,363.262,494.303,362.457,479.49,362.459z"/>
<path fill="none" d="M537.05,194.18c0.364-16.256,0.831-32.631-0.802-48.837c-0.926-9.19-1.801-19.68-6.119-28.194
	c1.537,5.031,1.958,10.492,1.986,15.652c0.059,10.519-1.269,20.949-2.404,31.387c-1.366,12.515-1.162,24.8-0.013,37.346
	c1.416,15.466,3.692,30.88,4.436,46.401c0.692,14.408,0.031,28.744,1.146,43.152c1.04,13.422,2.552,27.047,1.466,40.514
	c-0.011,0.133-0.022,0.266-0.033,0.398c2.216-13.338,1.84-27.242,1.817-40.693C538.485,258.904,536.322,226.589,537.05,194.18z"/>
<path fill="none" d="M530.433,237.454c-1.389-15.415-3.675-30.768-4.438-46.236c-0.529-10.727,0.202-21.001,1.39-31.65
	c1.762-15.71,6.63-42.061-7.843-53.33c-8.601-4.253-19.702-3.39-29.505-3.167c-0.1,0.018-0.209,0.029-0.322,0.029
	c-0.369,0-0.734-0.002-1.104-0.002c-0.566,0.008-1.121,0.015-1.674,0.016c-0.11,0-0.204-0.008-0.301-0.021
	c-4.95-0.004-9.901-0.011-14.852-0.036c-40.583-0.208-81.159-1.052-121.729-1.938c-0.397,0.242-0.88,0.43-1.229,0.43
	c-30.554,0.062-61.337,3.747-91.843,1.113c-27.045-2.336-56.283-6.951-82.783,1.716c-12.716,4.16-24.018,12.665-28.753,25.6
	c-4.473,12.216-3.613,25.22-6.056,37.828c-2.345,12.105-7.962,20.755-16.154,29.718c-5.559,6.082-10.326,12.262-13.077,19.549
	c-1.932,11.067-1.925,22.782,1.206,33.567c5.782,19.906,20.708,35.041,29.655,53.408c1.409,2.893,2.427,5.77,3.199,8.654
	c1.867,2.771,3.588,5.637,5.043,8.67c4.61,9.607,8.945,20.08,19.223,24.908c8.333,3.914,17.66,3.844,26.679,3.846
	c12.574,0.002,24.957,0.998,37.479,2.107c16.945,1.502,33.929,3.039,50.951,3.189c16.319,0.152,32.568,0.207,48.873,1.146
	c32.55,1.877,65.047,5.307,97.671,5.631c13.401,0.133,26.692-0.916,40.065-1.199c9.036-0.193,18.081,0.113,27.102-0.404
	c9.146-0.518,20.348-1.225,27.962-6.943c8.928-6.701,8.875-19.33,8.887-29.528c0.017-14.165-1.716-28.224-2.46-42.353
	C530.912,266.98,531.772,252.245,530.433,237.454z M145.286,230.389c-0.248,2.137-0.848,6.553-2.011,10.825
	c-0.081,1.367-0.144,2.724-0.17,4.052c-0.041,2.207-0.925,2.325-1.83,1.56c-2.198,4.61-5.466,7.221-10.25,2.918
	c-7.523-6.771-7.336-19.552-5.703-29.103c0.675-3.914,1.856-10.618,5.954-12.175c4.022-1.53,8.336,0.812,10.126,4.859
	c1.84,4.154,2.456,8.666,2.548,13.275C144.768,227.534,145.434,229.122,145.286,230.389z"/>
<path fill="none" d="M235.437,99.039c5.218,0.422,10.41,0.924,15.549,1.426c24.71,2.414,49.415,1.002,74.146,0.113
	c-16.623-0.36-33.247-0.705-49.872-0.996C261.986,99.35,248.711,99.176,235.437,99.039z"/>
<path d="M541.412,281.197c-0.174-16.508-0.813-33.008-1.442-49.504c-0.604-15.745-0.073-31.479,0.225-47.219
	c0.28-15.145,0.015-30.211-1.612-45.277c-1.021-9.421-2.869-19.451-8.261-27.447c-2.537-3.762-5.851-6.271-9.604-7.939
	c-5.593-3.609-13.037-5.111-19.144-6.127c-21.427-3.566-43.437-0.631-65.012-2.461c-31.962-2.711-64.044-3.524-96.003-6.26
	c-29.436-2.52-58.978-4.025-88.521-3.828c-14.449,0.097-28.892,0.701-43.293,1.871c-11.939,0.97-24.062,1.945-35.457,5.859
	c-3.611,1.24-6.875,2.848-9.852,4.74c-5.789,1.107-11.247,3.143-15.907,6.816c-14.188,11.188-11.68,32.167-11.801,49.617
	c-1.071,5.57-2.1,11.146-3.255,16.67c-0.95,4.544-2.335,8.508-4.238,12.297c-2.706,4.252-6.043,8.166-9.815,11.896
	c-6.511,6.438-9.625,13.736-11.188,22.462c-0.314,0.828-0.612,1.67-0.875,2.544c-3.82,12.708-1.345,27.422,0.991,40.168
	c1.959,10.688,7.187,20.17,13.779,28.668c6.423,8.278,13.894,15.657,19.885,24.284c0.183,0.265,0.352,0.531,0.529,0.8
	c2.297,8.705,2.213,17.713,3.409,26.896c1.216,9.352,6.129,18.928,16.146,20.969c4.954,1.01,9.942,0.691,14.95,0.322
	c7.849-0.578,15.658-0.195,23.517,0.039c32.945,1.004,65.889,2.08,98.813,3.646c32.2,1.523,64.014,3.557,96.271,2.191
	c31.983-1.348,63.924-4.098,95.964-3.439c14.982,0.307,31.569,0.453,41.521-12.723c5.229-6.922,7.127-15.938,8.163-24.355
	C542.157,312.193,541.573,296.459,541.412,281.197z M181.334,91.921c14.229-3.477,29.702-3.839,44.268-4.567
	c15.105-0.755,30.24-0.844,45.359-0.581c29.969,0.521,59.673,3.609,89.557,5.399c16.352,0.979,32.709,1.744,49.06,2.735
	c14.013,0.85,28.088,2.805,42.124,2.842c18.22,0.047,38.698-2.38,56.538,3.18c-6.521-0.545-13.32-0.098-19.331-0.004
	c-65.257-0.039-130.491-1.898-195.73-3.188c-32.928-0.652-65.859-1.123-98.793-1.152c-8.387-0.006-17.861-0.688-26.821,0.384
	C171.877,94.711,176.562,93.086,181.334,91.921z M325.132,100.578c-24.731,0.889-49.436,2.301-74.146-0.113
	c-5.139-0.502-10.331-1.004-15.549-1.426c13.274,0.137,26.549,0.311,39.823,0.543C291.885,99.873,308.509,100.218,325.132,100.578z
	 M161.8,100.554c6.826-1.646,14.432-1.848,21.593-1.834c4.146,0.007,8.291,0.029,12.437,0.044
	c-7.431,0.753-14.783,2.103-21.981,4.302c-9.688,2.959-18.421,8.229-24.862,16.108c-1.044,1.276-1.978,2.599-2.817,3.957
	c2.118-5.742,4.921-11.204,8.776-16.019C156.967,104.588,159.279,102.421,161.8,100.554z M140.92,120.007
	c2.607-10.256,9.086-15.59,17.108-18.355c-8.228,7.188-13.58,17.116-16.833,28.379c-0.8,2.769-1.508,5.563-2.176,8.372
	C139.06,132.22,139.38,126.064,140.92,120.007z M129.917,185.561c-1.362,2.341-2.938,4.627-4.798,6.855
	c-0.252,0.303-0.507,0.599-0.761,0.898C126.356,190.806,128.272,188.248,129.917,185.561z M130.993,296.18
	c-7.239-8.295-13.99-16.783-18.011-27.15c-2.063-5.316-3.501-11.221-4.395-17.266c0.184,0.664,0.377,1.324,0.582,1.984
	c2.805,9.033,7.782,17.217,12.937,25.072c5.427,8.271,11.013,16.391,15.567,25.184C135.492,301.352,133.241,298.754,130.993,296.18z
	 M362,366.457c-16.928-0.037-33.798-1.441-50.694-2.32c-16.554-0.857-33.116-1.563-49.681-2.193
	c-30.216-1.154-60.624-3.107-90.825-1.764c-6.813,0.309-13.049-0.945-17.638-6.352c-3.956-4.656-4.995-10.773-5.652-16.65
	c-0.604-5.398-0.914-10.563-1.584-15.617c3.502,6.982,6.474,14.229,11.948,20.029c12.204,12.936,32.39,9.711,48.348,10.197
	c15.56,0.475,31.11,2.637,46.634,3.771c16.408,1.198,32.717,1.196,49.15,1.424c32.623,0.444,65.116,3.896,97.672,5.713
	c10.829,0.604,21.671,0.984,32.518,1.046C408.807,364.98,385.436,366.508,362,366.457z M523.954,356.559
	c-6.612,4.896-15.436,5.768-23.386,5.928c-7.026,0.143-14.055,0.047-21.078-0.027c14.813-0.002,32.584,0.803,45.865-7.016
	C524.903,355.824,524.438,356.199,523.954,356.559z M525.268,353.654c-7.614,5.719-18.815,6.426-27.962,6.943
	c-9.021,0.518-18.065,0.211-27.102,0.404c-13.373,0.283-26.664,1.332-40.065,1.199c-32.624-0.324-65.121-3.754-97.671-5.631
	c-16.305-0.939-32.554-0.994-48.873-1.146c-17.022-0.15-34.006-1.688-50.951-3.189c-12.522-1.109-24.905-2.105-37.479-2.107
	c-9.019-0.002-18.346,0.068-26.679-3.846c-10.278-4.828-14.613-15.301-19.223-24.908c-1.455-3.033-3.176-5.898-5.043-8.67
	c-0.772-2.885-1.79-5.762-3.199-8.654c-8.947-18.367-23.873-33.502-29.655-53.408c-3.131-10.785-3.138-22.5-1.206-33.567
	c2.751-7.287,7.518-13.467,13.077-19.549c8.192-8.963,13.809-17.613,16.154-29.718c2.443-12.608,1.583-25.612,6.056-37.828
	c4.735-12.935,16.037-21.44,28.753-25.6c26.5-8.667,55.738-4.052,82.783-1.716c30.506,2.634,61.29-1.051,91.843-1.113
	c0.35,0,0.832-0.188,1.229-0.43c40.57,0.886,81.146,1.73,121.729,1.938c4.95,0.025,9.901,0.032,14.852,0.036
	c0.097,0.013,0.19,0.021,0.301,0.021c0.553-0.001,1.107-0.008,1.674-0.016c0.369,0,0.734,0.002,1.104,0.002
	c0.113,0,0.223-0.011,0.322-0.029c9.803-0.223,20.904-1.086,29.505,3.167c14.473,11.269,9.604,37.62,7.843,53.33
	c-1.188,10.649-1.919,20.923-1.39,31.65c0.763,15.468,3.049,30.821,4.438,46.236c1.34,14.791,0.479,29.526,1.262,44.319
	c0.744,14.129,2.477,28.188,2.46,42.353C534.143,334.324,534.195,346.953,525.268,353.654z M536.713,332
	c0.011-0.133,0.022-0.266,0.033-0.398c1.086-13.467-0.426-27.092-1.466-40.514c-1.115-14.408-0.454-28.744-1.146-43.152
	c-0.743-15.521-3.02-30.936-4.436-46.401c-1.149-12.546-1.354-24.831,0.013-37.346c1.136-10.438,2.463-20.868,2.404-31.387
	c-0.028-5.16-0.449-10.621-1.986-15.652c4.318,8.514,5.193,19.004,6.119,28.194c1.633,16.206,1.166,32.581,0.802,48.837
	c-0.728,32.409,1.436,64.724,1.48,97.126C538.553,304.758,538.929,318.662,536.713,332z"/>
<path d="M141.402,213.324c-1.79-4.047-6.104-6.389-10.126-4.859c-4.098,1.557-5.279,8.261-5.954,12.175
	c-1.633,9.551-1.82,22.333,5.703,29.103c4.784,4.303,8.052,1.692,10.25-2.918c0.905,0.766,1.789,0.647,1.83-1.56
	c0.026-1.328,0.089-2.685,0.17-4.052c1.163-4.272,1.763-8.688,2.011-10.825c0.148-1.267-0.518-2.854-1.336-3.789
	C143.858,221.99,143.242,217.478,141.402,213.324z M139.452,238.936c-1.413,4.189-3.831,7.131-8.161,4.434
	c-5.218-3.252-2.902-16.051-1.878-21.149c0.739-3.691,2.271-7.751,6.384-7.315c4.487,0.474,4.116,6.708,4.216,10.277
	C140.146,229.781,139.705,234.352,139.452,238.936z"/>
<g>
	<path d="M263.024,296.154c-0.723,3-2.557,5.727-5.504,8.174c-2.835,2.002-5.672,3.975-8.507,5.92
		c0.167,0.836,0.737,1.461,1.71,1.877c0.972,0.418,1.904,0.82,2.794,1.211c4.615,2.998,6.921,6.559,6.921,10.672
		c0,3.166-1.083,6.088-3.252,8.758c-1.668,2.053-4.142,4.086-7.423,6.086c-2.669,1.557-5.338,3.113-8.007,4.672
		c-0.668,0.389-1.39,0.58-2.167,0.58c-1.835,0-3.116-0.75-3.837-2.25c0.111-4.672,0.221-9.314,0.334-13.93
		c0.11-5.559,0.417-10.145,0.917-13.762c-1.167-0.777-1.751-1.666-1.751-2.668c0-0.5,0.208-0.961,0.625-1.379
		c0.418-0.416,0.987-0.877,1.711-1.377c0.667-8.451,0.804-16.236,0.417-23.354c-2.614-0.502-4.337-1.668-5.171-3.506
		c-0.056-0.223,0.042-0.555,0.292-0.998c0.251-0.441,0.376-0.807,0.376-1.084c1.279-0.947,2.696-1.418,4.253-1.418
		c1.112,0,3.669,0.365,7.673,1.086c2.057,0.332,4.198,1.084,6.423,2.252c6.005,3.115,9.535,6.145,10.592,9.09
		C263.162,292.93,263.358,294.709,263.024,296.154z M252.683,324.678c0.11-0.611,0.166-1.195,0.166-1.752
		c0-1.668-0.529-3.139-1.584-4.42c-2.835-1.389-4.644-2.086-5.422-2.086c-0.446,0-0.863,0.086-1.25,0.254
		c0.055,0.557,0.084,1.172,0.084,1.834c0,1.17-0.154,2.961-0.459,5.379c-0.305,2.42-0.458,4.242-0.458,5.465
		c0,1.781,0.221,3.391,0.666,4.838c0.668-0.779,1.71-1.598,3.127-2.461c1.418-0.861,2.404-1.625,2.961-2.291
		C251.514,328.264,252.236,326.68,252.683,324.678z M255.184,291.982c-0.279-2.057-1.946-3.639-5.004-4.754
		c-0.446-0.168-1.14-0.527-2.084-1.084c-0.667-0.443-1.223-0.666-1.668-0.666c-0.223,0-0.473,0.055-0.75,0.166
		c-0.056,0.945-0.083,1.945-0.083,3.002c0,1.445,0.11,3.893,0.333,7.34c0.168,3.168,0.223,5.645,0.168,7.424
		c0.387,0,0.972-0.293,1.75-0.877c0.779-0.584,1.223-0.902,1.335-0.959c1.668-0.777,3.14-2.086,4.421-3.92
		C254.878,295.82,255.405,293.93,255.184,291.982z"/>
	<path d="M275.868,290.232c0.111,1.613,0.167,3.281,0.167,5.004c0,3.781-0.39,9.48-1.168,17.102
		c-0.779,7.619-1.169,13.369-1.169,17.266c0,1.445,0.027,2.861,0.084,4.252c-0.501,1.555-1.585,2.309-3.253,2.252
		c-2.392-0.111-3.698-1.137-3.921-3.086c-0.223-1.945-0.332-4-0.332-6.172c0-3.781,0.459-9.422,1.375-16.928
		c0.918-7.506,1.376-13.121,1.376-16.848c0-1.447-0.055-2.863-0.167-4.254c0.555-1.057,1.5-1.588,2.836-1.588
		c1.056,0,2.113,0.307,3.17,0.92c0.221-0.164,0.388-0.248,0.5-0.248c0.167,0,0.25,0.277,0.25,0.83c-0.055,0.668-0.055,1.059,0,1.172
		C275.671,290.064,275.755,290.178,275.868,290.232z"/>
	<path d="M309.229,327.848c0.333,0.277,0.501,0.666,0.501,1.168c0,0.334-0.224,1.17-0.668,2.5c-0.223-0.053-0.416-0.086-0.583-0.086
		c-0.334,0-0.765,0.141-1.293,0.418c-0.528,0.279-0.931,0.416-1.209,0.416c-0.278,0-0.583-0.109-0.917-0.332
		c-3.726-2.334-9.509-5.842-17.348-10.51c0.166,2.059,0.304,5.004,0.417,8.842c0,0.443,0.054,1.113,0.166,2
		c0.11,0.893,0.167,1.531,0.167,1.92c0,1.336-0.584,2.254-1.752,2.752c-0.334,0.223-0.808,0.332-1.418,0.332
		c-0.667,0-1.083-0.191-1.251-0.582c-1.445-0.5-2.281-1.473-2.501-2.92c-0.667-4-1-8.699-1-14.094c0-1.945,0.053-4.85,0.167-8.715
		c0.11-3.863,0.166-6.77,0.166-8.719c0-5.893-0.389-11.01-1.168-15.35c-0.112-0.664,0.277-1.109,1.168-1.332
		c0.667-0.111,1.362-0.223,2.085-0.332c0.722,0.223,1.473,0.486,2.252,0.791c0.778,0.305,1.196,0.789,1.251,1.457
		c0.833,7.564,1.195,13.57,1.084,18.016c2.279-2.057,4.892-4.783,7.841-8.174c2.502-2.836,4.976-5.699,7.424-8.592
		c0.666-0.277,1.388-0.416,2.167-0.416c2.168,0,3.307,0.75,3.419,2.254c-1.557,3.447-4.616,7.535-9.174,12.26
		c-5.337,5.502-8.756,9.426-10.258,11.758c3.447,2.057,6.922,4.115,10.426,6.172C303.279,323.205,306.56,325.566,309.229,327.848z"
		/>
	<path d="M340.504,290.73c-2.057,0.836-5.084,1.809-9.09,2.92c-4.004,1.115-7.035,2.086-9.09,2.92
		c-0.502,1.447-0.863,4.668-1.086,9.676c0.89,0.332,1.918,0.5,3.086,0.5c0.834,0,2.141-0.137,3.92-0.416s3.088-0.418,3.922-0.418
		c1.555,0,2.889,0.334,4,1c0.781,1.113,1.172,1.834,1.172,2.17c0,0.389-0.197,0.695-0.586,0.918
		c-0.109,0.055-0.502,0.445-1.168,1.168c-0.443,0.498-0.998,0.721-1.668,0.666c-1.17,0.277-3.309,0.445-6.422,0.504
		c-2.613,0.053-4.696,0.391-6.252,0.998c-1.061,4.113-1.587,7.367-1.587,9.762c0,1.613,0.222,2.889,0.667,3.832
		c2.61,1.836,7.145,2.613,13.594,2.336c0.445,0,0.92-0.209,1.418-0.627c0.502-0.416,0.916-0.625,1.248-0.625
		c1.557-0.332,2.586,0.834,3.088,3.506c0.166,0.891,0.016,1.711-0.459,2.461c-0.473,0.752-1.154,1.154-2.043,1.209
		c-6.729,0.221-12.568-0.305-17.516-1.584c-1.559-0.395-2.977-1.252-4.254-2.588c-1.28-1.336-2.001-2.836-2.168-4.506
		c-0.501-4.836-0.501-9.17,0-13.01c-1.558-1.057-2.252-2.086-2.084-3.086c0.053-0.5,0.485-0.959,1.292-1.375
		c0.807-0.42,1.264-0.852,1.376-1.295c0.112-0.443,0.334-3.088,0.669-7.922c-3.116-0.613-4.643-1.779-4.588-3.504
		c0.054-1.615,1.03-2.889,2.918-3.836c1.779-0.721,3.559-1.449,5.338-2.168c2.056-1.061,4.642-2.006,7.758-2.84
		c2.723-0.719,5.447-1.416,8.174-2.082c0.279-0.055,0.609-0.086,0.998-0.086c1.5,0,3.254,0.582,5.258,1.752
		c0.051,0.225,0.191,0.641,0.416,1.25c0.221,0.609,0.332,1.061,0.332,1.338C341.088,290.092,340.893,290.455,340.504,290.73z"/>
	<path d="M384.377,280.473c-0.502,2.002-1.449,3.17-2.836,3.504c-3.617,0.891-9.898,2.057-18.848,3.502
		c-1.111,13.848-1.666,25.385-1.666,34.613c0,3.504,0.051,6.951,0.164,10.342c0.053,1.057,0,1.861-0.164,2.42
		c-0.281,0.891-0.836,1.311-1.67,1.25c-1.613-0.051-2.947-0.736-4-2.043c-1.057-1.311-1.641-2.764-1.75-4.381
		c-0.115-2.055-0.168-4.223-0.168-6.506c0-3.67,0.252-9.484,0.75-17.434c0.504-7.617,0.723-13.428,0.668-17.43
		c-1.502-0.111-3.586,0.029-6.256,0.416c-3.057,0.445-5.172,0.668-6.338,0.668c-2.723,0-4.947-0.729-6.672-2.184
		c-0.668-1.457-1.002-2.217-1.002-2.268c0-0.395,0.197-0.816,0.584-1.264c1.781-0.617,5.422-1.176,10.926-1.682
		c4.838-0.508,8.451-1.404,10.842-2.691c1.947,0.666,4.172,0.998,6.674,0.998c2.5,0,4.891-0.305,7.174-0.922
		c0.668-0.051,2.361-0.441,5.086-1.168c2-0.5,3.67-0.668,5.004-0.5c1.002,0,1.418,0.418,1.252,1.252
		C383.625,278.973,384.377,279.473,384.377,280.473z"/>
	<path d="M403.309,328.432c0.334,0.889,0.504,1.664,0.504,2.332c0,1.111-0.475,2.084-1.418,2.918
		c-0.947,0.836-1.586,1.223-1.918,1.168c-2.727-0.5-4.449-2.695-5.172-6.586c-0.779-4.225-1.695-7.756-2.752-10.592
		c-1.891,0.166-3.781,0.332-5.672,0.5c-2.17,0.279-3.865,0.947-5.088,2c-0.609,1.727-1.416,4.785-2.418,9.178
		c-0.945,4.057-1.865,7.143-2.752,9.256c-0.445,0.998-1.389,1.275-2.838,0.836c-1.832-0.613-2.811-1.451-2.916-2.502
		c-0.166-2.115,0.443-4.949,1.834-8.508c1.668-4.061,2.588-6.951,2.754-8.674c0.051-0.502-0.309-1.057-1.086-1.67
		c-0.779-0.609-1.168-1.084-1.168-1.414c0-0.277,0.123-0.574,0.373-0.875c0.25-0.305,0.834-0.557,1.752-0.752
		c0.92-0.193,1.432-0.486,1.545-0.877c1-2.777,2.586-7.949,4.754-15.514c1.834-6.559,3.475-11.594,4.92-15.096
		c0.332-0.777,1.029-1.17,2.084-1.17c0.777,0,1.473,0.254,2.086,0.752c1.553,1.336,2.557,3.336,3.002,6.006
		c0.33,2.279,0.639,4.561,0.916,6.84C397.414,309.109,400.307,319.924,403.309,328.432z M391.131,312.502
		c-0.166-2.057-0.527-4.365-1.084-6.924c-0.557-2.223-1.084-4.451-1.588-6.67c-1.666,4.613-3.115,9.229-4.336,13.844
		C385.014,312.584,387.35,312.502,391.131,312.502z"/>
	<path d="M436.42,311.582c-1.504,3.727-2.477,8.314-2.92,13.764c-0.275,4.725-0.529,9.451-0.75,14.178
		c-0.113,1.391-1.031,2.086-2.754,2.086c-0.5,0-0.973-0.088-1.414-0.25c-2.395-1-3.588-2.865-3.588-5.588
		c0-0.781,0.111-1.959,0.334-3.547c0.223-1.584,0.332-2.736,0.332-3.461c0.221-1.611,0.502-4.031,0.834-7.256
		c-3.836,3.617-8.174,6.311-13.012,8.09c-0.67,0.225-1.338,0.332-2.002,0.332c-2.561,0-4.922-1.443-7.092-4.336
		c-1.223-1.613-1.834-3.613-1.834-6.006c0-2.111,0.473-4.588,1.416-7.422c2.949-9.01,7.643-17.82,14.098-26.439
		c3.223-4.281,6.086-6.422,8.59-6.422c2.219,0,3.473,0.834,3.752,2.504c0.225,1.389-0.25,2.391-1.414,3
		c-1.947,1.059-2.979,1.641-3.09,1.752c-4.666,5.17-8.953,11.844-12.842,20.018c-2.393,5.059-3.586,9.592-3.586,13.594
		c0,0.725,0.027,1.449,0.084,2.168c0.113,0.057,0.277,0.32,0.504,0.793c0.221,0.473,0.527,0.625,0.918,0.459
		c3.67-1.445,9.201-5.254,16.596-11.426c0.555-0.445,1.195-1.723,1.918-3.836c0.557-1.557,1.555-2.336,3.004-2.336
		c-0.445,0,0-0.055,1.334-0.168c0.668-0.111,1.113,0,1.336,0.336c1.057,1.557,1.586,2.834,1.586,3.836
		C436.752,310.498,436.641,311.027,436.42,311.582z"/>
</g>
</svg>
