<?xml version="1.0" encoding="UTF-8" standalone="no"?>
<svg
   xmlns:dc="http://purl.org/dc/elements/1.1/"
   xmlns:cc="http://creativecommons.org/ns#"
   xmlns:rdf="http://www.w3.org/1999/02/22-rdf-syntax-ns#"
   xmlns:svg="http://www.w3.org/2000/svg"
   xmlns="http://www.w3.org/2000/svg"
   xmlns:sodipodi="http://sodipodi.sourceforge.net/DTD/sodipodi-0.dtd"
   xmlns:inkscape="http://www.inkscape.org/namespaces/inkscape"
   inkscape:version="1.0 (4035a4f, 2020-05-01)"
   sodipodi:docname="DenverIcon.svg"
   xml:space="preserve"
   enable-background="new 0 0 646 449"
   viewBox="0 0 437.25104 283.22498"
   height="283.22498"
   width="437.25104"
   y="0px"
   x="0px"
   id="Layer_1"
   version="1.1"><metadata
   id="metadata219"><rdf:RDF><cc:Work
       rdf:about=""><dc:format>image/svg+xml</dc:format><dc:type
         rdf:resource="http://purl.org/dc/dcmitype/StillImage" /></cc:Work></rdf:RDF></metadata><defs
   id="defs217" /><sodipodi:namedview
   inkscape:current-layer="Layer_1"
   inkscape:window-maximized="1"
   inkscape:window-y="23"
   inkscape:window-x="0"
   inkscape:cy="133.93323"
   inkscape:cx="227.65009"
   inkscape:zoom="1.628483"
   showgrid="false"
   id="namedview215"
   inkscape:window-height="933"
   inkscape:window-width="1680"
   inkscape:pageshadow="2"
   inkscape:pageopacity="0"
   guidetolerance="10"
   gridtolerance="10"
   objecttolerance="10"
   borderopacity="1"
   bordercolor="#666666"
   pagecolor="#ffffff" />
<g
   transform="translate(-95.349908,-90.566773)"
   id="g182">
	<path
   id="path178"
   d="m 532.387,286.648 c -0.174,-16.51 -0.811,-33.01 -1.441,-49.506 -0.604,-15.744 -0.074,-31.476 0.221,-47.22 0.284,-15.144 0.015,-30.21 -1.612,-45.276 -1.018,-9.421 -2.869,-19.45 -8.261,-27.446 -2.537,-3.763 -5.847,-6.271 -9.603,-7.939 -5.594,-3.611 -13.037,-5.111 -19.145,-6.128 -21.424,-3.567 -43.433,-0.63 -65.008,-2.46 -31.962,-2.713 -64.046,-3.525 -96.004,-6.261 -29.435,-2.519 -58.977,-4.025 -88.523,-3.828 -14.449,0.097 -28.893,0.702 -43.293,1.871 -11.939,0.97 -24.063,1.946 -35.457,5.86 -3.611,1.24 -6.875,2.847 -9.852,4.739 -5.789,1.107 -11.247,3.142 -15.907,6.816 -14.188,11.187 -11.68,32.167 -11.801,49.616 -1.071,5.57 -2.1,11.146 -3.255,16.672 -0.95,4.543 -2.336,8.506 -4.238,12.296 -2.705,4.252 -6.043,8.166 -9.814,11.896 -6.512,6.439 -9.626,13.737 -11.188,22.463 -0.314,0.828 -0.612,1.67 -0.875,2.543 -3.82,12.707 -1.345,27.422 0.991,40.168 1.959,10.689 7.186,20.17 13.779,28.668 6.423,8.279 13.894,15.658 19.885,24.287 0.182,0.263 0.352,0.531 0.528,0.798 2.297,8.706 2.213,17.713 3.409,26.898 1.216,9.348 6.129,18.924 16.146,20.964 4.954,1.011 9.942,0.695 14.95,0.326 7.849,-0.579 15.658,-0.199 23.517,0.04 32.945,1.003 65.889,2.079 98.813,3.643 32.2,1.526 64.012,3.557 96.27,2.195 31.984,-1.349 63.923,-4.099 95.963,-3.443 14.985,0.307 31.572,0.452 41.521,-12.722 5.229,-6.92 7.127,-15.937 8.163,-24.356 1.866,-15.178 1.282,-30.912 1.121,-46.174 z M 172.31,97.371 c 14.229,-3.475 29.701,-3.838 44.268,-4.566 15.105,-0.756 30.24,-0.844 45.359,-0.58 29.969,0.521 59.673,3.607 89.556,5.398 16.349,0.979 32.709,1.744 49.057,2.735 14.013,0.851 28.088,2.805 42.124,2.841 18.221,0.048 38.698,-2.379 56.538,3.18 -6.52,-0.543 -13.32,-0.097 -19.331,-0.004 -65.257,-0.037 -130.49,-1.896 -195.73,-3.188 -32.928,-0.65 -65.859,-1.123 -98.793,-1.15 -8.388,-0.008 -17.861,-0.689 -26.822,0.383 4.317,-2.258 9,-3.883 13.774,-5.049 z m 143.796,8.657 c -24.731,0.889 -49.436,2.301 -74.146,-0.113 -5.139,-0.502 -10.331,-1.004 -15.549,-1.425 13.274,0.137 26.549,0.31 39.823,0.542 16.625,0.291 33.249,0.637 49.872,0.996 z m -163.332,-0.024 c 6.826,-1.646 14.432,-1.847 21.594,-1.834 4.146,0.008 8.291,0.029 12.437,0.045 -7.431,0.753 -14.783,2.102 -21.981,4.301 -9.688,2.961 -18.421,8.229 -24.862,16.109 -1.044,1.277 -1.978,2.598 -2.817,3.957 2.119,-5.742 4.922,-11.205 8.776,-16.019 2.02,-2.524 4.333,-4.691 6.853,-6.559 z m -20.879,19.455 c 2.607,-10.257 9.086,-15.59 17.108,-18.357 -8.228,7.189 -13.58,17.117 -16.833,28.381 -0.8,2.768 -1.509,5.563 -2.176,8.371 0.04,-6.183 0.36,-12.338 1.901,-18.395 z m -11.003,65.553 c -1.362,2.341 -2.939,4.627 -4.799,6.855 -0.252,0.303 -0.507,0.6 -0.761,0.898 1.999,-2.508 3.915,-5.066 5.56,-7.753 z m 1.076,110.618 c -7.238,-8.295 -13.99,-16.782 -18.012,-27.149 -2.063,-5.319 -3.501,-11.222 -4.395,-17.267 0.184,0.664 0.377,1.325 0.582,1.984 2.805,9.032 7.781,17.217 12.937,25.071 5.427,8.271 11.013,16.393 15.567,25.185 -2.18,-2.652 -4.431,-5.249 -6.679,-7.824 z m 231.007,70.277 c -16.928,-0.037 -33.798,-1.44 -50.693,-2.319 -16.554,-0.861 -33.116,-1.565 -49.681,-2.198 -30.216,-1.152 -60.624,-3.106 -90.825,-1.76 -6.813,0.305 -13.049,-0.949 -17.638,-6.352 -3.956,-4.656 -4.995,-10.773 -5.651,-16.649 -0.604,-5.402 -0.914,-10.563 -1.585,-15.618 3.503,6.983 6.474,14.229 11.948,20.029 12.203,12.933 32.391,9.711 48.348,10.197 15.561,0.476 31.11,2.638 46.635,3.771 16.408,1.199 32.717,1.197 49.15,1.422 32.624,0.446 65.116,3.898 97.672,5.713 10.829,0.604 21.671,0.986 32.514,1.045 -23.388,1.244 -46.76,2.77 -70.194,2.719 z m 161.954,-9.898 c -6.611,4.896 -15.432,5.765 -23.386,5.925 -7.026,0.144 -14.051,0.047 -21.078,-0.026 14.816,-0.003 32.584,0.802 45.865,-7.018 -0.452,0.385 -0.917,0.76 -1.401,1.119 z m 1.313,-2.904 c -7.618,5.718 -18.819,6.425 -27.962,6.945 -9.024,0.515 -18.069,0.212 -27.103,0.404 -13.373,0.283 -26.664,1.333 -40.064,1.199 -32.624,-0.324 -65.122,-3.754 -97.671,-5.631 -16.305,-0.939 -32.554,-0.993 -48.873,-1.143 -17.022,-0.155 -34.006,-1.689 -50.951,-3.192 -12.521,-1.11 -24.905,-2.106 -37.479,-2.108 -9.02,-0.002 -18.346,0.068 -26.679,-3.846 -10.278,-4.827 -14.612,-15.302 -19.223,-24.908 -1.454,-3.032 -3.176,-5.898 -5.043,-8.67 -0.772,-2.884 -1.79,-5.762 -3.199,-8.654 C 123.049,291.13 108.122,276 102.34,256.089 c -3.131,-10.783 -3.137,-22.499 -1.205,-33.566 2.75,-7.287 7.518,-13.467 13.076,-19.55 8.191,-8.962 13.809,-17.611 16.154,-29.717 2.442,-12.607 1.583,-25.612 6.056,-37.828 4.735,-12.935 16.036,-21.441 28.753,-25.6 26.501,-8.667 55.738,-4.051 82.783,-1.716 30.506,2.634 61.289,-1.051 91.843,-1.113 0.351,-10e-4 0.832,-0.188 1.23,-0.43 40.573,0.886 81.146,1.73 121.729,1.938 4.95,0.025 9.901,0.032 14.853,0.037 0.093,0.012 0.189,0.021 0.298,0.021 0.552,-0.001 1.109,-0.007 1.673,-0.017 0.369,0.001 0.738,0.004 1.107,0.004 0.112,0 0.22,-0.012 0.321,-0.03 9.804,-0.224 20.904,-1.086 29.506,3.167 14.473,11.27 9.601,37.62 7.843,53.33 -1.191,10.648 -1.919,20.923 -1.391,31.65 0.764,15.467 3.05,30.821 4.44,46.236 1.336,14.789 0.479,29.527 1.258,44.318 0.744,14.129 2.477,28.188 2.46,42.353 -0.01,10.199 0.043,22.828 -8.885,29.529 z m 11.446,-21.655 c 0.012,-0.133 0.022,-0.267 0.033,-0.398 1.086,-13.467 -0.426,-27.092 -1.466,-40.514 -1.115,-14.408 -0.454,-28.744 -1.144,-43.151 -0.743,-15.525 -3.021,-30.937 -4.437,-46.404 -1.148,-12.547 -1.35,-24.832 0.014,-37.348 1.136,-10.438 2.463,-20.867 2.403,-31.387 -0.027,-5.158 -0.449,-10.62 -1.985,-15.65 4.317,8.513 5.192,19.004 6.118,28.193 1.634,16.207 1.166,32.581 0.803,48.838 -0.729,32.408 1.432,64.723 1.479,97.126 0.021,13.453 0.397,27.357 -1.818,40.695 z" />
	<path
   id="path180"
   d="m 132.377,218.774 c -1.79,-4.047 -6.104,-6.389 -10.126,-4.859 -4.098,1.557 -5.279,8.261 -5.954,12.175 -1.633,9.553 -1.82,22.331 5.703,29.104 4.784,4.303 8.052,1.693 10.249,-2.918 0.906,0.766 1.789,0.647 1.83,-1.559 0.026,-1.328 0.09,-2.682 0.17,-4.049 1.163,-4.275 1.763,-8.688 2.011,-10.828 0.148,-1.265 -0.519,-2.854 -1.337,-3.789 -0.09,-4.612 -0.706,-9.122 -2.546,-13.277 z m -1.95,25.612 c -1.413,4.189 -3.831,7.132 -8.161,4.431 -5.218,-3.252 -2.902,-16.047 -1.878,-21.148 0.739,-3.691 2.271,-7.751 6.384,-7.315 4.487,0.474 4.116,6.708 4.216,10.274 0.132,4.602 -0.308,9.174 -0.561,13.758 z" />
</g>
<g
   transform="translate(-95.349908,-90.566773)"
   id="g196">
	<path
   id="path184"
   d="m 234.457,192.526 c -0.727,1.671 -1.415,3.341 -2.069,5.01 -0.871,1.96 -1.815,3.522 -2.831,4.683 -2.251,2.832 -4.503,5.627 -6.752,8.387 -2.688,3.34 -5.119,5.662 -7.297,6.969 -0.727,0.872 -1.525,1.779 -2.396,2.723 -0.871,0.944 -1.742,1.416 -2.613,1.416 -0.436,0 -0.944,-0.108 -1.525,-0.326 -0.581,-0.218 -1.216,-0.473 -1.905,-0.762 -0.691,-0.291 -1.181,-0.764 -1.471,-1.416 -0.218,-3.05 -0.326,-6.316 -0.326,-9.803 0,-3.556 0.145,-8.856 0.436,-15.9 0.289,-7.041 0.436,-12.342 0.436,-15.9 0,-4.719 -0.182,-9.039 -0.545,-12.959 -0.073,-0.072 -0.871,-0.907 -2.396,-2.506 -0.944,-0.942 -1.416,-1.813 -1.416,-2.613 0,-0.362 0.071,-0.725 0.218,-1.089 0.362,-0.872 1.161,-1.378 2.396,-1.524 0.942,-0.145 1.887,-0.254 2.831,-0.327 6.099,1.308 12.487,4.721 19.168,10.237 1.742,1.453 3.158,2.979 4.247,4.574 3.485,5.156 5.228,9.983 5.228,14.484 -0.002,2.323 -0.475,4.538 -1.418,6.642 z m -7.841,-11.653 c -0.653,-4.574 -4.538,-8.604 -11.653,-12.088 -0.509,12.125 -0.653,24.977 -0.436,38.553 8.204,-8.204 12.307,-16.01 12.307,-23.415 0,-1.017 -0.073,-2.032 -0.218,-3.05 z" />
	<path
   id="path186"
   d="m 278.454,162.141 c -2.687,1.09 -6.643,2.361 -11.87,3.813 -5.228,1.453 -9.186,2.723 -11.871,3.812 -0.653,1.889 -1.127,6.099 -1.416,12.634 1.161,0.436 2.505,0.652 4.029,0.652 1.09,0 2.795,-0.18 5.119,-0.544 2.322,-0.362 4.029,-0.544 5.118,-0.544 2.032,0 3.774,0.436 5.228,1.307 1.017,1.453 1.525,2.396 1.525,2.831 0,0.509 -0.256,0.909 -0.763,1.198 -0.146,0.073 -0.653,0.582 -1.524,1.524 -0.582,0.653 -1.307,0.944 -2.179,0.872 -1.524,0.363 -4.32,0.582 -8.386,0.652 -3.413,0.074 -6.136,0.51 -8.168,1.307 -1.38,5.375 -2.069,9.622 -2.069,12.742 0,2.107 0.29,3.777 0.871,5.01 3.412,2.396 9.329,3.414 17.752,3.05 0.581,0 1.198,-0.272 1.852,-0.816 0.653,-0.545 1.198,-0.817 1.634,-0.817 2.032,-0.436 3.376,1.09 4.029,4.574 0.218,1.162 0.018,2.232 -0.599,3.213 -0.618,0.98 -1.508,1.506 -2.668,1.579 -8.786,0.29 -16.409,-0.399 -22.871,-2.069 -2.033,-0.508 -3.885,-1.633 -5.554,-3.376 -1.671,-1.742 -2.614,-3.702 -2.832,-5.881 -0.653,-6.316 -0.653,-11.979 0,-16.989 -2.033,-1.379 -2.94,-2.723 -2.723,-4.029 0.071,-0.654 0.635,-1.253 1.688,-1.797 1.052,-0.545 1.65,-1.106 1.797,-1.688 0.145,-0.581 0.436,-4.03 0.871,-10.347 -4.067,-0.798 -6.063,-2.322 -5.99,-4.574 0.072,-2.104 1.343,-3.773 3.813,-5.01 2.322,-0.942 4.646,-1.887 6.97,-2.831 2.759,-1.378 6.17,-2.614 10.237,-3.702 3.485,-0.943 7.006,-1.852 10.563,-2.723 0.363,-0.072 0.799,-0.109 1.308,-0.109 1.96,0 4.247,0.762 6.86,2.287 0.072,0.291 0.254,0.836 0.545,1.633 0.289,0.801 0.436,1.381 0.436,1.743 10e-4,0.58 -0.254,1.051 -0.762,1.413 z" />
	<path
   id="path188"
   d="m 327.027,150.598 c -1.019,9.729 -1.998,19.494 -2.94,29.295 -1.235,11.617 -1.852,21.311 -1.852,29.078 0,2.543 0.071,5.048 0.218,7.516 0.071,1.16 -0.346,2.178 -1.253,3.049 -0.908,0.871 -1.943,1.307 -3.104,1.307 -2.251,0 -4.139,-1.524 -5.663,-4.574 -4.647,-9.074 -10.42,-23.306 -17.316,-42.691 -0.146,-0.436 -0.327,-0.653 -0.545,-0.653 -0.509,0 -0.835,0.509 -0.979,1.524 -1.235,10.385 -1.852,21.311 -1.852,32.781 0,5.519 0.145,11.145 0.436,16.881 0.071,2.104 -0.545,3.557 -1.852,4.355 -0.509,0.509 -1.053,0.763 -1.634,0.763 -0.509,0 -1.162,-0.218 -1.96,-0.652 -1.089,-0.51 -1.78,-0.836 -2.069,-0.98 -0.944,-0.291 -1.524,-1.162 -1.742,-2.613 -0.073,-1.162 -0.146,-2.361 -0.218,-3.594 -0.218,-4.066 -0.327,-8.313 -0.327,-12.742 0,-7.695 0.436,-17.316 1.307,-28.86 1.379,-17.569 2.141,-27.298 2.287,-29.187 0.071,-1.597 1.416,-2.396 4.03,-2.396 1.233,-0.145 3.049,0.762 5.445,2.723 2.322,4.43 5.189,11.617 8.604,21.563 3.267,9.513 6.243,16.735 8.93,21.673 1.09,-9.656 2.795,-24.249 5.119,-43.781 0.218,-1.451 1.27,-2.178 3.158,-2.178 0.653,0 1.416,0.109 2.287,0.326 1.16,0.291 1.853,0.474 2.069,0.545 0.725,0.287 1.2,0.796 1.416,1.522 z" />
	<path
   id="path190"
   d="m 380.936,154.082 c -2.832,5.301 -6.86,15.211 -12.088,29.731 -1.524,4.285 -3.342,11.364 -5.445,21.237 -2.033,9.439 -3.994,16.59 -5.881,21.453 -0.653,0.728 -1.416,1.09 -2.287,1.09 -1.019,0 -2.324,-0.545 -3.922,-1.633 -2.83,-6.752 -6.136,-17.861 -9.91,-33.326 -3.559,-14.738 -7.116,-25.955 -10.674,-33.652 0.943,-1.813 1.744,-2.723 2.396,-2.723 0.58,-0.361 1.16,-0.544 1.742,-0.544 1.16,0 3.193,1.089 6.1,3.267 2.613,5.955 5.118,13.252 7.516,21.891 1.887,7.479 3.812,14.92 5.771,22.326 2.687,-8.857 5.372,-17.752 8.06,-26.682 3.193,-10.02 6.461,-18.66 9.803,-25.92 1.089,-1.888 2.976,-2.506 5.662,-1.852 0.289,0.072 0.654,0.346 1.09,0.816 0.436,0.473 0.98,0.727 1.634,0.762 0.653,0.038 0.979,0.563 0.979,1.58 -0.003,0.728 -0.184,1.454 -0.546,2.179 z" />
	<path
   id="path192"
   d="m 420.469,162.141 c -2.688,1.09 -6.644,2.361 -11.871,3.813 -5.228,1.453 -9.186,2.723 -11.871,3.812 -0.652,1.889 -1.125,6.099 -1.416,12.634 1.161,0.436 2.506,0.652 4.03,0.652 1.089,0 2.794,-0.18 5.118,-0.544 2.323,-0.362 4.029,-0.544 5.119,-0.544 2.031,0 3.773,0.436 5.228,1.307 1.017,1.453 1.524,2.396 1.524,2.831 0,0.509 -0.255,0.909 -0.763,1.198 -0.146,0.073 -0.653,0.582 -1.524,1.524 -0.582,0.653 -1.307,0.944 -2.178,0.872 -1.525,0.363 -4.321,0.582 -8.387,0.652 -3.413,0.074 -6.137,0.51 -8.168,1.307 -1.381,5.375 -2.068,9.622 -2.068,12.742 0,2.107 0.289,3.777 0.871,5.01 3.411,2.396 9.328,3.414 17.752,3.05 0.58,0 1.197,-0.272 1.851,-0.816 0.654,-0.545 1.198,-0.817 1.634,-0.817 2.032,-0.436 3.377,1.09 4.03,4.574 0.218,1.162 0.018,2.232 -0.6,3.213 -0.617,0.98 -1.508,1.506 -2.668,1.579 -8.786,0.29 -16.409,-0.399 -22.87,-2.069 -2.034,-0.508 -3.887,-1.633 -5.555,-3.376 -1.672,-1.742 -2.614,-3.702 -2.832,-5.881 -0.653,-6.316 -0.653,-11.979 0,-16.989 -2.033,-1.379 -2.94,-2.723 -2.724,-4.029 0.072,-0.654 0.636,-1.253 1.688,-1.797 1.052,-0.545 1.65,-1.106 1.797,-1.688 0.145,-0.581 0.436,-4.03 0.871,-10.347 -4.066,-0.798 -6.063,-2.322 -5.989,-4.574 0.071,-2.104 1.342,-3.773 3.812,-5.01 2.322,-0.942 4.646,-1.887 6.971,-2.831 2.759,-1.378 6.171,-2.614 10.236,-3.702 3.485,-0.943 7.007,-1.852 10.564,-2.723 0.362,-0.072 0.798,-0.109 1.307,-0.109 1.96,0 4.247,0.762 6.861,2.287 0.071,0.291 0.253,0.836 0.544,1.633 0.29,0.801 0.437,1.381 0.437,1.743 0,0.58 -0.254,1.051 -0.761,1.413 z" />
	<path
   id="path194"
   d="m 467.298,217.357 c 0.218,0.289 0.327,0.615 0.327,0.98 0,1.668 -1.743,2.939 -5.229,3.811 -3.85,-2.978 -8.642,-7.55 -14.375,-13.722 -6.391,-6.897 -11.146,-11.688 -14.268,-14.376 -0.218,1.889 -0.618,6.826 -1.198,14.812 -0.363,6.027 -1.018,10.817 -1.96,14.376 -0.146,0 -0.6,0.18 -1.36,0.543 -0.764,0.363 -1.399,0.473 -1.906,0.328 -3.196,-0.727 -4.792,-2.94 -4.792,-6.644 0,-1.089 0.145,-2.54 0.436,-4.356 0.289,-2.104 0.473,-3.412 0.545,-3.92 0.289,-4.211 0.472,-9.221 0.545,-15.029 v -11.871 c 0,-9.873 0.545,-18.188 1.634,-24.939 0.725,-4.502 4.973,-6.57 12.742,-6.208 3.921,0.146 7.333,2.106 10.236,5.881 2.687,3.485 4.029,7.261 4.029,11.327 0,3.413 -1.271,6.824 -3.813,10.236 -2.178,3.05 -4.864,5.445 -8.059,7.188 -1.308,0.727 -1.961,1.525 -1.961,2.396 0,0.944 0.763,2.069 2.287,3.376 1.16,0.944 2.323,1.89 3.485,2.832 0.07,0.073 4.064,3.702 11.979,10.891 5.013,4.502 8.569,8.532 10.676,12.088 z m -22.98,-48.899 c 0.218,-1.308 0.289,-2.468 0.218,-3.485 -0.218,-1.524 -0.854,-2.902 -1.905,-4.139 -1.054,-1.233 -2.742,-1.852 -5.063,-1.852 -1.742,0 -2.832,0.545 -3.269,1.635 -0.364,1.814 -0.544,3.885 -0.544,6.207 0,0.944 0.108,3.376 0.326,7.297 0.145,2.979 0.145,5.41 0,7.297 6.024,-4.501 9.439,-8.822 10.237,-12.96 z" />
</g>
<g
   transform="translate(-95.349908,-90.566773)"
   id="g212">
	<path
   id="path198"
   d="m 253.519,273.771 c -0.863,3.582 -3.051,6.832 -6.565,9.75 -3.382,2.387 -6.765,4.742 -10.147,7.063 0.199,0.994 0.879,1.74 2.04,2.238 1.159,0.496 2.271,0.979 3.333,1.441 5.504,3.582 8.256,7.825 8.256,12.733 0,3.779 -1.293,7.262 -3.879,10.443 -1.99,2.452 -4.941,4.875 -8.854,7.264 -3.184,1.854 -6.367,3.713 -9.551,5.57 -0.795,0.463 -1.658,0.694 -2.586,0.694 -2.188,0 -3.715,-0.895 -4.576,-2.686 0.133,-5.57 0.265,-11.109 0.398,-16.613 0.132,-6.631 0.497,-12.102 1.094,-16.412 -1.393,-0.928 -2.089,-1.99 -2.089,-3.184 0,-0.598 0.249,-1.145 0.746,-1.643 0.497,-0.496 1.177,-1.043 2.04,-1.642 0.795,-10.08 0.96,-19.362 0.496,-27.854 -3.117,-0.596 -5.172,-1.989 -6.167,-4.178 -0.067,-0.264 0.05,-0.662 0.349,-1.193 0.299,-0.53 0.447,-0.961 0.447,-1.293 1.525,-1.127 3.216,-1.69 5.073,-1.69 1.326,0 4.377,0.433 9.151,1.293 2.453,0.397 5.007,1.293 7.66,2.687 7.162,3.715 11.373,7.328 12.634,10.844 0.861,2.525 1.095,4.646 0.697,6.368 z m -12.335,34.022 c 0.132,-0.729 0.198,-1.426 0.198,-2.088 0,-1.99 -0.631,-3.746 -1.89,-5.273 -3.382,-1.656 -5.538,-2.486 -6.466,-2.486 -0.531,0 -1.029,0.101 -1.492,0.3 0.065,0.662 0.1,1.394 0.1,2.188 0,1.393 -0.184,3.53 -0.547,6.415 -0.365,2.886 -0.547,5.06 -0.547,6.517 0,2.123 0.264,4.045 0.795,5.77 0.796,-0.93 2.039,-1.906 3.73,-2.934 1.691,-1.028 2.867,-1.939 3.531,-2.736 1.194,-1.396 2.055,-3.286 2.588,-5.673 z m 2.983,-38.994 c -0.332,-2.453 -2.321,-4.344 -5.968,-5.67 -0.532,-0.199 -1.36,-0.631 -2.487,-1.293 -0.795,-0.531 -1.459,-0.797 -1.989,-0.797 -0.266,0 -0.564,0.066 -0.896,0.199 -0.066,1.129 -0.1,2.322 -0.1,3.58 0,1.727 0.133,4.645 0.398,8.754 0.199,3.781 0.264,6.732 0.199,8.854 0.463,0 1.159,-0.348 2.088,-1.043 0.929,-0.697 1.459,-1.078 1.592,-1.145 1.99,-0.928 3.746,-2.486 5.273,-4.676 1.525,-2.187 2.155,-4.441 1.89,-6.763 z" />
	<path
   id="path200"
   d="m 268.837,266.709 c 0.132,1.924 0.199,3.914 0.199,5.969 0,4.512 -0.465,11.309 -1.393,20.393 -0.93,9.087 -1.394,15.952 -1.394,20.593 0,1.725 0.032,3.414 0.1,5.074 -0.597,1.854 -1.89,2.75 -3.88,2.686 -2.852,-0.135 -4.41,-1.36 -4.675,-3.682 -0.267,-2.32 -0.397,-4.773 -0.397,-7.361 0,-4.508 0.547,-11.239 1.641,-20.192 1.094,-8.953 1.642,-15.65 1.642,-20.094 0,-1.726 -0.067,-3.416 -0.199,-5.074 0.662,-1.258 1.79,-1.89 3.382,-1.89 1.26,0 2.52,0.365 3.781,1.095 0.264,-0.199 0.463,-0.3 0.596,-0.3 0.199,0 0.299,0.332 0.299,0.994 -0.066,0.797 -0.066,1.263 0,1.394 0.065,0.196 0.164,0.331 0.298,0.395 z" />
	<path
   id="path202"
   d="m 308.627,311.572 c 0.397,0.334 0.597,0.797 0.597,1.395 0,0.396 -0.266,1.394 -0.796,2.982 -0.266,-0.064 -0.497,-0.099 -0.696,-0.099 -0.398,0 -0.912,0.166 -1.542,0.496 -0.631,0.334 -1.111,0.498 -1.442,0.498 -0.332,0 -0.696,-0.133 -1.094,-0.397 -4.444,-2.785 -11.341,-6.963 -20.691,-12.533 0.199,2.453 0.363,5.969 0.498,10.545 0,0.531 0.064,1.326 0.198,2.387 0.132,1.062 0.199,1.822 0.199,2.287 0,1.592 -0.696,2.687 -2.089,3.283 -0.398,0.264 -0.963,0.398 -1.691,0.398 -0.796,0 -1.293,-0.234 -1.492,-0.697 -1.725,-0.597 -2.721,-1.758 -2.984,-3.48 -0.796,-4.774 -1.193,-10.379 -1.193,-16.813 0,-2.32 0.064,-5.785 0.199,-10.395 0.131,-4.609 0.198,-8.074 0.198,-10.396 0,-7.027 -0.464,-13.131 -1.393,-18.303 -0.134,-0.797 0.331,-1.326 1.393,-1.592 0.796,-0.134 1.624,-0.265 2.487,-0.398 0.861,0.266 1.756,0.582 2.686,0.945 0.928,0.364 1.426,0.944 1.492,1.739 0.994,9.021 1.426,16.185 1.293,21.488 2.719,-2.453 5.835,-5.703 9.352,-9.75 2.984,-3.382 5.934,-6.797 8.854,-10.246 0.795,-0.33 1.656,-0.496 2.586,-0.496 2.586,0 3.945,0.896 4.078,2.687 -1.857,4.112 -5.506,8.985 -10.942,14.623 -6.366,6.563 -10.444,11.239 -12.235,14.024 4.111,2.455 8.256,4.908 12.435,7.36 4.638,2.923 8.551,5.741 11.735,8.458 z" />
	<path
   id="path204"
   d="m 345.932,267.307 c -2.455,0.994 -6.068,2.156 -10.845,3.48 -4.774,1.328 -8.39,2.488 -10.842,3.482 -0.599,1.725 -1.029,5.569 -1.293,11.539 1.06,0.397 2.287,0.598 3.68,0.598 0.995,0 2.554,-0.166 4.677,-0.498 2.12,-0.33 3.681,-0.498 4.676,-0.498 1.854,0 3.447,0.398 4.772,1.195 0.931,1.326 1.396,2.188 1.396,2.586 0,0.465 -0.234,0.83 -0.697,1.094 -0.133,0.066 -0.598,0.531 -1.393,1.393 -0.531,0.598 -1.193,0.863 -1.99,0.797 -1.394,0.332 -3.945,0.531 -7.659,0.597 -3.118,0.065 -5.604,0.465 -7.46,1.192 -1.262,4.91 -1.891,8.789 -1.891,11.639 0,1.927 0.264,3.449 0.796,4.577 3.117,2.188 8.521,3.118 16.214,2.784 0.531,0 1.096,-0.248 1.691,-0.746 0.598,-0.495 1.094,-0.745 1.491,-0.745 1.854,-0.396 3.084,0.995 3.683,4.178 0.196,1.063 0.016,2.041 -0.549,2.936 -0.563,0.896 -1.378,1.375 -2.437,1.443 -8.025,0.264 -14.988,-0.367 -20.891,-1.891 -1.857,-0.466 -3.549,-1.492 -5.073,-3.084 -1.526,-1.593 -2.388,-3.384 -2.587,-5.371 -0.597,-5.771 -0.597,-10.943 0,-15.521 -1.857,-1.258 -2.686,-2.486 -2.486,-3.68 0.064,-0.598 0.58,-1.145 1.541,-1.643 0.961,-0.496 1.508,-1.011 1.643,-1.541 0.131,-0.529 0.397,-3.683 0.795,-9.451 -3.715,-0.729 -5.537,-2.121 -5.471,-4.178 0.064,-1.923 1.227,-3.447 3.481,-4.576 2.122,-0.861 4.243,-1.724 6.366,-2.586 2.453,-1.258 5.537,-2.388 9.251,-3.383 3.248,-0.859 6.498,-1.689 9.748,-2.486 0.332,-0.064 0.729,-0.101 1.193,-0.101 1.791,0 3.881,0.697 6.268,2.091 0.066,0.266 0.232,0.764 0.498,1.491 0.265,0.729 0.396,1.261 0.396,1.593 0.002,0.532 -0.229,0.962 -0.692,1.294 z" />
	<path
   id="path206"
   d="m 398.256,255.07 c -0.598,2.389 -1.726,3.781 -3.383,4.178 -4.313,1.063 -11.805,2.455 -22.48,4.178 -1.328,16.514 -1.99,30.275 -1.99,41.283 0,4.178 0.065,8.291 0.199,12.336 0.064,1.258 0,2.221 -0.199,2.885 -0.332,1.062 -0.994,1.558 -1.989,1.492 -1.924,-0.065 -3.517,-0.881 -4.774,-2.438 -1.261,-1.56 -1.957,-3.3 -2.089,-5.224 -0.134,-2.453 -0.198,-5.039 -0.198,-7.76 0,-4.377 0.299,-11.305 0.896,-20.789 0.597,-9.086 0.86,-16.019 0.796,-20.791 -1.791,-0.133 -4.277,0.033 -7.461,0.496 -3.648,0.533 -6.168,0.797 -7.561,0.797 -3.248,0 -5.901,-0.868 -7.959,-2.608 -0.795,-1.736 -1.192,-2.642 -1.192,-2.707 0,-0.467 0.233,-0.969 0.696,-1.504 2.123,-0.736 6.466,-1.404 13.031,-2.008 5.77,-0.603 10.079,-1.671 12.932,-3.21 2.32,0.798 4.975,1.193 7.958,1.193 2.983,0 5.835,-0.363 8.556,-1.095 0.796,-0.063 2.816,-0.528 6.066,-1.393 2.389,-0.598 4.379,-0.795 5.97,-0.598 1.194,0 1.69,0.498 1.492,1.492 1.787,0.004 2.683,0.602 2.683,1.795 z" />
	<path
   id="path208"
   d="m 420.836,312.27 c 0.398,1.063 0.597,1.99 0.597,2.785 0,1.328 -0.563,2.486 -1.689,3.482 -1.129,0.994 -1.892,1.457 -2.288,1.393 -3.25,-0.598 -5.307,-3.217 -6.168,-7.858 -0.93,-5.039 -2.023,-9.253 -3.282,-12.634 -2.256,0.199 -4.511,0.398 -6.765,0.597 -2.587,0.334 -4.61,1.129 -6.068,2.389 -0.73,2.058 -1.691,5.703 -2.885,10.941 -1.128,4.84 -2.223,8.521 -3.282,11.043 -0.532,1.192 -1.659,1.522 -3.383,0.994 -2.188,-0.73 -3.351,-1.726 -3.481,-2.984 -0.199,-2.521 0.53,-5.902 2.188,-10.146 1.989,-4.841 3.084,-8.289 3.282,-10.347 0.064,-0.598 -0.365,-1.26 -1.293,-1.989 -0.931,-0.729 -1.394,-1.293 -1.394,-1.689 0,-0.332 0.149,-0.68 0.448,-1.045 0.298,-0.363 0.994,-0.662 2.089,-0.896 1.094,-0.229 1.706,-0.578 1.84,-1.043 1.194,-3.316 3.084,-9.484 5.67,-18.504 2.188,-7.824 4.146,-13.826 5.869,-18.004 0.398,-0.928 1.228,-1.393 2.487,-1.393 0.928,0 1.757,0.297 2.486,0.895 1.855,1.592 3.05,3.979 3.581,7.162 0.397,2.721 0.763,5.439 1.095,8.156 3.316,15.65 6.765,28.548 10.346,38.695 z m -14.523,-19 c -0.198,-2.453 -0.631,-5.205 -1.293,-8.256 -0.664,-2.652 -1.294,-5.305 -1.891,-7.959 -1.989,5.506 -3.715,11.01 -5.173,16.514 1.061,-0.2 3.846,-0.299 8.357,-0.299 z" />
	<path
   id="path210"
   d="m 460.327,292.176 c -1.791,4.443 -2.952,9.914 -3.481,16.414 -0.333,5.637 -0.632,11.273 -0.896,16.91 -0.134,1.656 -1.229,2.486 -3.283,2.486 -0.597,0 -1.161,-0.101 -1.69,-0.3 -2.853,-1.192 -4.276,-3.415 -4.276,-6.663 0,-0.931 0.132,-2.339 0.396,-4.229 0.266,-1.889 0.397,-3.266 0.397,-4.127 0.265,-1.924 0.598,-4.809 0.995,-8.653 -4.576,4.311 -9.749,7.526 -15.52,9.647 -0.796,0.266 -1.591,0.397 -2.387,0.397 -3.052,0 -5.869,-1.725 -8.456,-5.174 -1.458,-1.922 -2.188,-4.309 -2.188,-7.162 0,-2.52 0.563,-5.471 1.69,-8.854 3.515,-10.742 9.117,-21.254 16.813,-31.533 3.846,-5.105 7.262,-7.66 10.246,-7.66 2.65,0 4.144,0.994 4.477,2.984 0.264,1.658 -0.299,2.852 -1.691,3.582 -2.321,1.26 -3.549,1.957 -3.681,2.088 -5.57,6.168 -10.678,14.127 -15.319,23.875 -2.853,6.035 -4.276,11.439 -4.276,16.215 0,0.861 0.031,1.725 0.1,2.586 0.132,0.066 0.331,0.383 0.598,0.945 0.265,0.563 0.63,0.746 1.094,0.547 4.377,-1.725 10.976,-6.268 19.796,-13.629 0.662,-0.529 1.426,-2.055 2.288,-4.576 0.662,-1.855 1.855,-2.785 3.581,-2.785 -0.531,0 0,-0.064 1.592,-0.199 0.796,-0.131 1.326,0 1.592,0.398 1.259,1.857 1.89,3.383 1.89,4.576 -0.003,0.601 -0.136,1.232 -0.401,1.894 z" />
</g>
</svg>
