<?xml version="1.0" encoding="UTF-8" standalone="no"?>
<svg
   xmlns:dc="http://purl.org/dc/elements/1.1/"
   xmlns:cc="http://creativecommons.org/ns#"
   xmlns:rdf="http://www.w3.org/1999/02/22-rdf-syntax-ns#"
   xmlns:svg="http://www.w3.org/2000/svg"
   xmlns="http://www.w3.org/2000/svg"
   xmlns:sodipodi="http://sodipodi.sourceforge.net/DTD/sodipodi-0.dtd"
   xmlns:inkscape="http://www.inkscape.org/namespaces/inkscape"
   inkscape:version="1.0 (4035a4f, 2020-05-01)"
   sodipodi:docname="EdinburghIcon.svg"
   xml:space="preserve"
   enable-background="new 0 0 646 449"
   viewBox="0 0 437.25027 283.22339"
   height="283.22339"
   width="437.25027"
   y="0px"
   x="0px"
   id="Layer_1"
   version="1.1"><metadata
   id="metadata108"><rdf:RDF><cc:Work
       rdf:about=""><dc:format>image/svg+xml</dc:format><dc:type
         rdf:resource="http://purl.org/dc/dcmitype/StillImage" /></cc:Work></rdf:RDF></metadata><defs
   id="defs106" /><sodipodi:namedview
   inkscape:current-layer="Layer_1"
   inkscape:window-maximized="1"
   inkscape:window-y="23"
   inkscape:window-x="0"
   inkscape:cy="139.38224"
   inkscape:cx="218.62409"
   inkscape:zoom="1.628483"
   showgrid="false"
   id="namedview104"
   inkscape:window-height="956"
   inkscape:window-width="2048"
   inkscape:pageshadow="2"
   inkscape:pageopacity="0"
   guidetolerance="10"
   gridtolerance="10"
   objecttolerance="10"
   borderopacity="1"
   bordercolor="#666666"
   pagecolor="#ffffff" />
<g
   transform="translate(-104.37591,-85.117763)"
   id="g59">
	<path
   id="path55"
   d="m 541.412,281.197 c -0.174,-16.508 -0.813,-33.008 -1.442,-49.504 -0.604,-15.745 -0.073,-31.478 0.224,-47.219 0.281,-15.145 0.015,-30.211 -1.612,-45.277 -1.021,-9.421 -2.869,-19.451 -8.261,-27.447 -2.537,-3.762 -5.85,-6.271 -9.604,-7.939 -5.593,-3.609 -13.037,-5.111 -19.144,-6.127 -21.426,-3.566 -43.436,-0.631 -65.011,-2.461 -31.962,-2.711 -64.044,-3.524 -96.003,-6.26 -29.436,-2.52 -58.978,-4.025 -88.521,-3.828 -14.449,0.097 -28.892,0.701 -43.293,1.871 -11.939,0.97 -24.062,1.945 -35.457,5.859 -3.611,1.24 -6.875,2.848 -9.852,4.74 -5.789,1.107 -11.247,3.143 -15.907,6.816 -14.188,11.188 -11.68,32.167 -11.801,49.617 -1.071,5.57 -2.1,11.146 -3.255,16.67 -0.95,4.544 -2.335,8.508 -4.238,12.297 -2.706,4.252 -6.043,8.166 -9.815,11.896 -6.511,6.438 -9.625,13.736 -11.188,22.462 -0.314,0.828 -0.612,1.67 -0.875,2.544 -3.82,12.708 -1.345,27.422 0.991,40.168 1.959,10.688 7.187,20.17 13.779,28.668 6.423,8.278 13.894,15.657 19.885,24.285 0.183,0.264 0.352,0.53 0.529,0.799 2.297,8.705 2.213,17.713 3.409,26.896 1.216,9.351 6.129,18.927 16.146,20.968 4.954,1.01 9.942,0.692 14.95,0.323 7.849,-0.579 15.658,-0.196 23.517,0.039 32.945,1.004 65.889,2.08 98.813,3.646 32.2,1.524 64.014,3.557 96.271,2.192 31.983,-1.348 63.923,-4.098 95.963,-3.44 14.983,0.307 31.57,0.453 41.521,-12.722 5.229,-6.922 7.127,-15.938 8.163,-24.356 1.863,-15.18 1.279,-30.914 1.118,-46.176 z M 181.334,91.921 c 14.229,-3.477 29.702,-3.839 44.268,-4.567 15.105,-0.755 30.24,-0.844 45.359,-0.581 29.969,0.521 59.673,3.609 89.557,5.399 16.351,0.979 32.709,1.744 49.059,2.735 14.013,0.85 28.088,2.805 42.124,2.842 18.22,0.047 38.698,-2.38 56.538,3.18 -6.521,-0.545 -13.32,-0.098 -19.331,-0.004 -65.257,-0.039 -130.491,-1.898 -195.73,-3.188 -32.928,-0.652 -65.859,-1.123 -98.793,-1.152 -8.387,-0.006 -17.861,-0.688 -26.821,0.384 4.313,-2.258 8.998,-3.883 13.77,-5.048 z m 143.798,8.657 c -24.731,0.889 -49.436,2.301 -74.146,-0.113 -5.139,-0.502 -10.331,-1.004 -15.549,-1.426 13.274,0.137 26.549,0.311 39.823,0.543 16.625,0.291 33.249,0.636 49.872,0.996 z M 161.8,100.554 c 6.826,-1.646 14.432,-1.848 21.593,-1.834 4.146,0.007 8.291,0.029 12.437,0.044 -7.431,0.753 -14.783,2.103 -21.981,4.302 -9.688,2.959 -18.421,8.229 -24.862,16.108 -1.044,1.276 -1.978,2.599 -2.817,3.957 2.118,-5.742 4.921,-11.204 8.776,-16.019 2.021,-2.524 4.333,-4.691 6.854,-6.558 z m -20.88,19.453 c 2.607,-10.256 9.086,-15.59 17.108,-18.355 -8.228,7.188 -13.58,17.116 -16.833,28.379 -0.8,2.769 -1.508,5.563 -2.176,8.372 0.041,-6.183 0.361,-12.339 1.901,-18.396 z m -11.003,65.554 c -1.362,2.341 -2.938,4.627 -4.798,6.855 -0.252,0.303 -0.507,0.599 -0.761,0.898 1.998,-2.508 3.914,-5.066 5.559,-7.753 z m 1.076,110.619 c -7.239,-8.295 -13.99,-16.783 -18.011,-27.15 -2.063,-5.317 -3.501,-11.221 -4.395,-17.266 0.184,0.664 0.377,1.324 0.582,1.984 2.805,9.033 7.782,17.217 12.937,25.072 5.427,8.271 11.013,16.391 15.567,25.184 -2.181,-2.652 -4.432,-5.25 -6.68,-7.824 z M 362,366.457 c -16.928,-0.037 -33.798,-1.441 -50.694,-2.32 -16.554,-0.858 -33.116,-1.563 -49.681,-2.194 -30.216,-1.154 -60.624,-3.107 -90.825,-1.763 -6.813,0.308 -13.049,-0.946 -17.638,-6.352 -3.956,-4.656 -4.995,-10.773 -5.652,-16.65 -0.604,-5.399 -0.914,-10.563 -1.584,-15.617 3.502,6.982 6.474,14.229 11.948,20.029 12.204,12.935 32.39,9.711 48.348,10.197 15.56,0.475 31.11,2.637 46.634,3.771 16.408,1.199 32.717,1.197 49.15,1.425 32.623,0.444 65.116,3.896 97.672,5.713 10.829,0.604 21.671,0.983 32.517,1.045 -23.388,1.239 -46.759,2.767 -70.195,2.716 z m 161.954,-9.898 c -6.612,4.896 -15.435,5.767 -23.386,5.927 -7.026,0.143 -14.054,0.047 -21.078,-0.027 14.813,-0.002 32.584,0.803 45.865,-7.016 -0.452,0.381 -0.917,0.756 -1.401,1.116 z m 1.314,-2.905 c -7.615,5.719 -18.816,6.426 -27.962,6.944 -9.021,0.517 -18.066,0.211 -27.102,0.404 -13.373,0.283 -26.664,1.332 -40.065,1.199 -32.624,-0.324 -65.121,-3.754 -97.671,-5.631 -16.305,-0.939 -32.554,-0.994 -48.873,-1.146 -17.022,-0.151 -34.006,-1.688 -50.951,-3.19 -12.522,-1.109 -24.905,-2.105 -37.479,-2.107 -9.019,-0.002 -18.346,0.068 -26.679,-3.846 -10.278,-4.828 -14.613,-15.301 -19.223,-24.908 -1.455,-3.033 -3.176,-5.898 -5.043,-8.67 -0.772,-2.885 -1.79,-5.762 -3.199,-8.654 -8.947,-18.368 -23.873,-33.502 -29.655,-53.409 -3.131,-10.785 -3.138,-22.5 -1.206,-33.567 2.751,-7.287 7.518,-13.467 13.077,-19.549 8.192,-8.963 13.809,-17.613 16.154,-29.718 2.443,-12.608 1.583,-25.612 6.056,-37.828 4.735,-12.935 16.037,-21.44 28.753,-25.6 26.5,-8.667 55.738,-4.052 82.783,-1.716 30.506,2.634 61.289,-1.051 91.843,-1.113 0.35,0 0.832,-0.188 1.23,-0.43 40.57,0.886 81.146,1.73 121.729,1.938 4.95,0.025 9.901,0.032 14.852,0.036 0.096,0.013 0.19,0.021 0.3,0.021 0.553,-0.001 1.108,-0.008 1.674,-0.016 0.369,0 0.735,0.002 1.104,0.002 0.113,0 0.222,-0.011 0.322,-0.029 9.803,-0.223 20.904,-1.086 29.505,3.167 14.473,11.269 9.604,37.62 7.843,53.33 -1.188,10.649 -1.919,20.923 -1.39,31.65 0.763,15.468 3.049,30.821 4.438,46.236 1.339,14.791 0.479,29.526 1.261,44.319 0.744,14.129 2.477,28.188 2.46,42.353 -0.011,10.198 0.041,22.827 -8.886,29.528 z M 536.713,332 c 0.011,-0.133 0.022,-0.266 0.033,-0.398 1.086,-13.467 -0.426,-27.092 -1.466,-40.514 -1.115,-14.408 -0.454,-28.744 -1.146,-43.152 -0.743,-15.522 -3.02,-30.936 -4.436,-46.402 -1.149,-12.546 -1.353,-24.831 0.013,-37.346 1.136,-10.438 2.463,-20.868 2.404,-31.387 -0.028,-5.16 -0.449,-10.621 -1.986,-15.652 4.318,8.514 5.193,19.004 6.119,28.194 1.633,16.206 1.166,32.581 0.802,48.837 -0.728,32.409 1.435,64.725 1.48,97.127 0.023,13.451 0.399,27.355 -1.817,40.693 z" />
	<path
   id="path57"
   d="m 141.402,213.324 c -1.79,-4.047 -6.104,-6.389 -10.126,-4.859 -4.098,1.557 -5.279,8.261 -5.954,12.175 -1.633,9.551 -1.82,22.333 5.703,29.103 4.784,4.303 8.052,1.692 10.25,-2.918 0.905,0.766 1.789,0.647 1.83,-1.56 0.026,-1.328 0.089,-2.684 0.17,-4.051 1.163,-4.273 1.763,-8.688 2.011,-10.826 0.148,-1.266 -0.518,-2.854 -1.336,-3.789 -0.092,-4.609 -0.708,-9.121 -2.548,-13.275 z m -1.95,25.612 c -1.413,4.189 -3.831,7.131 -8.161,4.433 -5.218,-3.252 -2.902,-16.05 -1.878,-21.149 0.739,-3.691 2.271,-7.751 6.384,-7.315 4.487,0.474 4.116,6.708 4.216,10.276 0.133,4.6 -0.308,9.171 -0.561,13.755 z" />
</g>
<g
   transform="translate(-104.37591,-85.117763)"
   id="g75">
	<path
   id="path61"
   d="m 255.401,266.232 c -0.863,3.58 -3.051,6.83 -6.565,9.748 -3.382,2.389 -6.765,4.742 -10.147,7.063 0.199,0.996 0.879,1.742 2.04,2.238 1.159,0.498 2.271,0.979 3.333,1.443 5.504,3.577 8.256,7.823 8.256,12.729 0,3.778 -1.293,7.262 -3.879,10.445 -1.99,2.45 -4.941,4.875 -8.854,7.262 -3.184,1.854 -6.367,3.713 -9.55,5.57 -0.796,0.463 -1.658,0.694 -2.586,0.694 -2.188,0 -3.715,-0.896 -4.576,-2.686 0.132,-5.572 0.264,-11.109 0.398,-16.613 0.132,-6.631 0.497,-12.102 1.094,-16.414 -1.393,-0.928 -2.089,-1.988 -2.089,-3.184 0,-0.596 0.249,-1.144 0.746,-1.641 0.498,-0.498 1.177,-1.047 2.04,-1.644 0.796,-10.08 0.96,-19.365 0.497,-27.854 -3.118,-0.599 -5.172,-1.99 -6.167,-4.181 -0.067,-0.265 0.05,-0.662 0.348,-1.192 0.299,-0.527 0.448,-0.961 0.448,-1.293 1.525,-1.127 3.216,-1.689 5.073,-1.689 1.326,0 4.377,0.435 9.152,1.293 2.453,0.396 5.006,1.295 7.66,2.688 7.162,3.715 11.373,7.328 12.634,10.842 0.858,2.531 1.093,4.652 0.694,6.376 z m -12.335,34.022 c 0.132,-0.73 0.198,-1.426 0.198,-2.09 0,-1.99 -0.631,-3.746 -1.89,-5.271 -3.382,-1.658 -5.538,-2.488 -6.466,-2.488 -0.532,0 -1.029,0.103 -1.492,0.302 0.065,0.664 0.1,1.396 0.1,2.188 0,1.395 -0.184,3.53 -0.547,6.416 -0.365,2.885 -0.547,5.059 -0.547,6.518 0,2.123 0.264,4.043 0.795,5.77 0.796,-0.93 2.039,-1.907 3.73,-2.936 1.691,-1.028 2.867,-1.939 3.531,-2.734 1.195,-1.398 2.056,-3.288 2.588,-5.675 z m 2.984,-38.996 c -0.332,-2.453 -2.321,-4.342 -5.968,-5.67 -0.532,-0.199 -1.36,-0.629 -2.487,-1.293 -0.795,-0.529 -1.459,-0.795 -1.989,-0.795 -0.266,0 -0.564,0.066 -0.896,0.197 -0.067,1.129 -0.099,2.322 -0.099,3.582 0,1.725 0.132,4.643 0.398,8.754 0.199,3.779 0.264,6.732 0.199,8.854 0.463,0 1.159,-0.348 2.088,-1.045 0.929,-0.695 1.459,-1.076 1.592,-1.145 1.99,-0.928 3.746,-2.486 5.273,-4.674 1.524,-2.189 2.153,-4.443 1.889,-6.765 z" />
	<path
   id="path63"
   d="m 270.72,259.17 c 0.132,1.924 0.199,3.914 0.199,5.969 0,4.51 -0.465,11.307 -1.393,20.396 -0.93,9.086 -1.394,15.946 -1.394,20.592 0,1.725 0.032,3.414 0.1,5.072 -0.597,1.854 -1.89,2.752 -3.88,2.686 -2.852,-0.133 -4.41,-1.356 -4.675,-3.68 -0.267,-2.32 -0.397,-4.772 -0.397,-7.361 0,-4.51 0.547,-11.239 1.641,-20.19 1.094,-8.953 1.642,-15.65 1.642,-20.096 0,-1.726 -0.067,-3.414 -0.199,-5.072 0.662,-1.26 1.79,-1.894 3.382,-1.894 1.26,0 2.52,0.365 3.781,1.097 0.264,-0.197 0.463,-0.297 0.596,-0.297 0.199,0 0.299,0.332 0.299,0.991 -0.066,0.796 -0.066,1.263 0,1.396 0.064,0.192 0.164,0.325 0.298,0.391 z" />
	<path
   id="path65"
   d="m 310.51,304.033 c 0.397,0.332 0.597,0.795 0.597,1.393 0,0.398 -0.266,1.396 -0.796,2.984 -0.266,-0.064 -0.497,-0.103 -0.696,-0.103 -0.398,0 -0.912,0.166 -1.542,0.498 -0.631,0.332 -1.111,0.496 -1.442,0.496 -0.332,0 -0.696,-0.131 -1.094,-0.396 -4.444,-2.785 -11.341,-6.967 -20.691,-12.535 0.199,2.455 0.363,5.969 0.498,10.545 0,0.531 0.064,1.328 0.198,2.387 0.132,1.063 0.199,1.824 0.199,2.289 0,1.592 -0.696,2.688 -2.089,3.283 -0.398,0.264 -0.963,0.396 -1.691,0.396 -0.796,0 -1.293,-0.231 -1.492,-0.694 -1.725,-0.6 -2.721,-1.758 -2.984,-3.482 -0.796,-4.772 -1.193,-10.377 -1.193,-16.811 0,-2.32 0.064,-5.785 0.199,-10.396 0.131,-4.606 0.198,-8.072 0.198,-10.396 0,-7.029 -0.464,-13.133 -1.393,-18.307 -0.134,-0.795 0.331,-1.324 1.393,-1.592 0.796,-0.132 1.624,-0.265 2.487,-0.396 0.861,0.266 1.756,0.579 2.686,0.944 0.928,0.364 1.426,0.941 1.492,1.739 0.994,9.021 1.426,16.183 1.293,21.485 2.719,-2.453 5.835,-5.703 9.352,-9.748 2.984,-3.383 5.934,-6.797 8.854,-10.246 0.795,-0.332 1.656,-0.498 2.586,-0.498 2.586,0 3.945,0.896 4.078,2.688 -1.857,4.112 -5.506,8.987 -10.942,14.623 -6.366,6.564 -10.444,11.242 -12.235,14.025 4.111,2.453 8.256,4.908 12.435,7.361 4.638,2.927 8.551,5.745 11.735,8.464 z" />
	<path
   id="path67"
   d="m 347.813,259.766 c -2.455,0.996 -6.065,2.156 -10.844,3.482 -4.773,1.328 -8.39,2.486 -10.842,3.482 -0.598,1.725 -1.029,5.567 -1.293,11.539 1.061,0.396 2.287,0.596 3.68,0.596 0.995,0 2.553,-0.164 4.676,-0.496 2.121,-0.332 3.683,-0.498 4.678,-0.498 1.854,0 3.445,0.398 4.771,1.193 0.93,1.328 1.396,2.188 1.396,2.586 0,0.465 -0.234,0.83 -0.697,1.096 -0.133,0.066 -0.6,0.531 -1.395,1.393 -0.529,0.596 -1.191,0.861 -1.988,0.795 -1.395,0.332 -3.945,0.531 -7.659,0.601 -3.118,0.063 -5.604,0.465 -7.46,1.19 -1.264,4.908 -1.891,8.787 -1.891,11.642 0,1.924 0.264,3.446 0.796,4.573 3.114,2.188 8.521,3.117 16.214,2.785 0.529,0 1.096,-0.248 1.689,-0.746 0.6,-0.498 1.094,-0.746 1.491,-0.746 1.855,-0.396 3.084,0.994 3.683,4.181 0.197,1.063 0.018,2.039 -0.549,2.934 -0.563,0.896 -1.377,1.377 -2.437,1.443 -8.024,0.264 -14.988,-0.365 -20.891,-1.891 -1.857,-0.468 -3.549,-1.492 -5.073,-3.085 -1.526,-1.594 -2.388,-3.383 -2.587,-5.373 -0.597,-5.77 -0.597,-10.938 0,-15.518 -1.857,-1.26 -2.686,-2.488 -2.486,-3.682 0.064,-0.596 0.58,-1.145 1.541,-1.641 0.961,-0.498 1.508,-1.013 1.643,-1.543 0.131,-0.529 0.397,-3.683 0.795,-9.449 -3.715,-0.729 -5.537,-2.121 -5.471,-4.178 0.064,-1.927 1.227,-3.447 3.481,-4.576 2.122,-0.861 4.243,-1.728 6.366,-2.586 2.453,-1.263 5.537,-2.392 9.251,-3.386 3.25,-0.858 6.5,-1.688 9.75,-2.483 0.332,-0.066 0.729,-0.103 1.19,-0.103 1.791,0 3.884,0.695 6.271,2.091 0.063,0.266 0.229,0.764 0.498,1.489 0.264,0.729 0.396,1.265 0.396,1.595 0.003,0.532 -0.231,0.964 -0.693,1.294 z" />
	<path
   id="path69"
   d="m 400.139,247.531 c -0.598,2.387 -1.726,3.779 -3.383,4.178 -4.313,1.061 -11.805,2.453 -22.48,4.178 -1.325,16.514 -1.987,30.275 -1.987,41.283 0,4.178 0.063,8.291 0.196,12.334 0.064,1.26 0,2.221 -0.196,2.885 -0.333,1.063 -0.995,1.562 -1.99,1.492 -1.924,-0.063 -3.516,-0.879 -4.772,-2.438 -1.26,-1.562 -1.957,-3.297 -2.088,-5.226 -0.137,-2.448 -0.199,-5.036 -0.199,-7.758 0,-4.377 0.299,-11.31 0.896,-20.791 0.597,-9.086 0.861,-16.017 0.796,-20.791 -1.791,-0.131 -4.277,0.035 -7.461,0.498 -3.648,0.531 -6.168,0.795 -7.561,0.795 -3.248,0 -5.901,-0.868 -7.959,-2.604 -0.795,-1.738 -1.192,-2.644 -1.192,-2.707 0,-0.469 0.233,-0.971 0.696,-1.506 2.123,-0.734 6.466,-1.402 13.031,-2.006 5.77,-0.604 10.08,-1.675 12.932,-3.209 2.32,0.795 4.975,1.19 7.958,1.19 2.983,0 5.835,-0.363 8.556,-1.097 0.797,-0.063 2.817,-0.528 6.067,-1.395 2.388,-0.596 4.378,-0.795 5.969,-0.596 1.194,0 1.69,0.498 1.492,1.492 1.783,0.008 2.679,0.604 2.679,1.799 z" />
	<path
   id="path71"
   d="m 422.719,304.73 c 0.398,1.061 0.6,1.985 0.6,2.782 0,1.326 -0.564,2.486 -1.69,3.48 -1.129,0.996 -1.891,1.459 -2.288,1.393 -3.25,-0.596 -5.307,-3.215 -6.168,-7.854 -0.93,-5.039 -2.021,-9.252 -3.282,-12.635 -2.256,0.199 -4.511,0.396 -6.765,0.598 -2.587,0.332 -4.61,1.129 -6.067,2.387 -0.729,2.057 -1.69,5.705 -2.886,10.943 -1.128,4.84 -2.224,8.52 -3.281,11.041 -0.531,1.19 -1.658,1.522 -3.384,0.996 -2.188,-0.73 -3.353,-1.729 -3.479,-2.984 -0.198,-2.521 0.529,-5.902 2.188,-10.146 1.989,-4.842 3.084,-8.291 3.283,-10.346 0.063,-0.598 -0.366,-1.26 -1.294,-1.99 -0.931,-0.729 -1.394,-1.293 -1.394,-1.688 0,-0.33 0.147,-0.683 0.446,-1.045 0.298,-0.363 0.994,-0.662 2.089,-0.896 1.096,-0.23 1.706,-0.58 1.842,-1.046 1.192,-3.313 3.084,-9.481 5.67,-18.502 2.188,-7.823 4.146,-13.827 5.868,-18.006 0.397,-0.928 1.229,-1.394 2.486,-1.394 0.928,0 1.757,0.3 2.487,0.896 1.854,1.593 3.049,3.979 3.581,7.164 0.396,2.72 0.762,5.438 1.094,8.156 3.313,15.652 6.763,28.548 10.344,38.696 z m -14.524,-19 c -0.199,-2.453 -0.631,-5.207 -1.293,-8.258 -0.664,-2.65 -1.294,-5.308 -1.894,-7.957 -1.987,5.504 -3.715,11.008 -5.173,16.512 1.063,-0.199 3.851,-0.297 8.36,-0.297 z" />
	<path
   id="path73"
   d="m 462.21,284.635 c -1.791,4.443 -2.952,9.916 -3.481,16.414 -0.33,5.637 -0.632,11.273 -0.896,16.91 -0.134,1.658 -1.228,2.488 -3.283,2.488 -0.597,0 -1.161,-0.103 -1.688,-0.299 -2.854,-1.193 -4.277,-3.416 -4.277,-6.664 0,-0.933 0.132,-2.338 0.397,-4.229 0.265,-1.891 0.396,-3.266 0.396,-4.129 0.265,-1.922 0.598,-4.808 0.995,-8.653 -4.576,4.313 -9.749,7.526 -15.52,9.649 -0.798,0.266 -1.593,0.396 -2.389,0.396 -3.052,0 -5.869,-1.723 -8.456,-5.172 -1.458,-1.924 -2.188,-4.311 -2.188,-7.162 0,-2.52 0.563,-5.473 1.688,-8.854 3.518,-10.744 9.117,-21.254 16.813,-31.535 3.846,-5.105 7.262,-7.658 10.246,-7.658 2.648,0 4.144,0.994 4.477,2.984 0.267,1.658 -0.299,2.852 -1.688,3.58 -2.322,1.262 -3.552,1.957 -3.684,2.09 -5.567,6.166 -10.678,14.125 -15.316,23.873 -2.854,6.035 -4.277,11.441 -4.277,16.215 0,0.863 0.032,1.727 0.1,2.586 0.134,0.068 0.331,0.383 0.6,0.945 0.265,0.564 0.63,0.746 1.094,0.547 4.377,-1.723 10.976,-6.266 19.796,-13.627 0.662,-0.531 1.426,-2.055 2.288,-4.576 0.662,-1.855 1.854,-2.785 3.581,-2.785 -0.531,0 0,-0.066 1.592,-0.199 0.796,-0.133 1.326,0 1.592,0.398 1.261,1.857 1.893,3.381 1.893,4.576 -0.008,0.598 -0.14,1.229 -0.405,1.891 z" />
</g>
<g
   transform="translate(-104.37591,-85.117763)"
   id="g101">
	<path
   id="path77"
   d="m 330.231,151.153 c -0.501,-0.188 -1.28,-0.593 -2.341,-1.218 -0.75,-0.499 -1.375,-0.749 -1.873,-0.749 -0.25,0 -0.531,0.063 -0.844,0.188 -0.063,1.063 -0.093,2.186 -0.093,3.371 0,1.624 0.124,4.371 0.374,8.241 0.188,3.558 0.249,6.337 0.188,8.334 0.436,0 1.092,-0.328 1.967,-0.983 0.873,-0.655 1.372,-1.014 1.498,-1.077 1.873,-0.873 3.526,-2.341 4.963,-4.401 1.436,-2.06 2.028,-4.182 1.779,-6.367 -0.312,-2.31 -2.185,-4.09 -5.618,-5.339 z"
   fill="none" />
	<path
   id="path79"
   d="m 323.957,184.21 c 0.062,0.624 0.094,1.311 0.094,2.06 0,1.312 -0.173,3.324 -0.516,6.04 -0.343,2.716 -0.515,4.762 -0.515,6.134 0,1.999 0.249,3.808 0.749,5.432 0.75,-0.875 1.92,-1.796 3.512,-2.763 1.592,-0.967 2.699,-1.826 3.324,-2.575 1.124,-1.312 1.935,-3.09 2.436,-5.338 0.124,-0.687 0.188,-1.342 0.188,-1.967 0,-1.872 -0.595,-3.526 -1.779,-4.963 -3.185,-1.56 -5.214,-2.341 -6.088,-2.341 -0.501,0 -0.969,0.093 -1.405,0.281 z"
   fill="none" />
	<path
   id="path81"
   d="m 229.66,160.799 c -0.438,10.427 -0.562,21.477 -0.375,33.149 7.054,-7.054 10.582,-13.766 10.582,-20.133 0,-0.874 -0.063,-1.747 -0.188,-2.622 -0.561,-3.933 -3.902,-7.398 -10.019,-10.394 z"
   fill="none" />
	<path
   id="path83"
   d="m 403.271,160.518 c 0.188,-1.124 0.248,-2.121 0.188,-2.996 -0.188,-1.312 -0.734,-2.497 -1.639,-3.559 -0.906,-1.062 -2.357,-1.592 -4.354,-1.592 -1.499,0 -2.435,0.468 -2.81,1.404 -0.313,1.562 -0.469,3.341 -0.469,5.338 0,0.812 0.094,2.902 0.281,6.273 0.125,2.561 0.125,4.652 0,6.274 5.182,-3.869 8.116,-7.584 8.803,-11.142 z"
   fill="none" />
	<path
   id="path85"
   d="m 217.018,150.966 c -2.248,-1.311 -4.214,-1.967 -5.9,-1.967 -0.438,0 -0.812,0.032 -1.124,0.094 -3.06,0.749 -6.119,1.531 -9.177,2.342 -3.497,0.937 -6.4,1.998 -8.709,3.184 -1.999,0.812 -3.996,1.624 -5.993,2.435 -2.123,1.063 -3.216,2.498 -3.277,4.308 -0.063,1.936 1.653,3.247 5.15,3.934 -0.375,5.431 -0.625,8.396 -0.749,8.896 -0.126,0.501 -0.641,0.983 -1.545,1.452 -0.906,0.468 -1.39,0.982 -1.451,1.545 -0.188,1.123 0.592,2.279 2.341,3.465 -0.562,4.308 -0.562,9.177 0,14.608 0.188,1.873 0.998,3.559 2.435,5.057 1.435,1.498 3.027,2.465 4.775,2.902 5.556,1.436 12.111,2.028 19.666,1.779 0.998,-0.063 1.763,-0.515 2.294,-1.357 0.53,-0.843 0.703,-1.763 0.515,-2.763 -0.562,-2.996 -1.718,-4.308 -3.465,-3.933 -0.375,0 -0.843,0.233 -1.404,0.702 -0.562,0.468 -1.093,0.702 -1.592,0.702 -7.243,0.313 -12.33,-0.562 -15.264,-2.622 -0.5,-1.061 -0.75,-2.496 -0.75,-4.308 0,-2.684 0.593,-6.335 1.779,-10.956 1.747,-0.687 4.088,-1.061 7.023,-1.124 3.496,-0.062 5.899,-0.249 7.21,-0.562 0.75,0.063 1.373,-0.188 1.873,-0.749 0.749,-0.811 1.185,-1.248 1.311,-1.312 0.436,-0.248 0.655,-0.593 0.655,-1.03 0,-0.374 -0.438,-1.185 -1.311,-2.435 -1.25,-0.749 -2.748,-1.123 -4.495,-1.123 -0.937,0 -2.404,0.156 -4.401,0.468 -1.999,0.313 -3.465,0.468 -4.401,0.468 -1.311,0 -2.467,-0.187 -3.465,-0.562 0.249,-5.618 0.656,-9.238 1.218,-10.862 2.309,-0.937 5.712,-2.028 10.207,-3.277 4.495,-1.248 7.896,-2.342 10.207,-3.278 0.436,-0.312 0.656,-0.717 0.656,-1.217 0,-0.312 -0.126,-0.811 -0.375,-1.498 -0.249,-0.687 -0.406,-1.156 -0.467,-1.406 z" />
	<path
   id="path87"
   d="m 239.492,159.113 c -5.745,-4.744 -11.237,-7.679 -16.481,-8.803 -0.812,0.063 -1.624,0.156 -2.435,0.281 -1.063,0.125 -1.749,0.562 -2.06,1.311 -0.126,0.313 -0.188,0.625 -0.188,0.937 0,0.688 0.405,1.437 1.217,2.247 1.311,1.374 1.998,2.093 2.06,2.154 0.312,3.371 0.468,7.086 0.468,11.144 0,3.06 -0.125,7.617 -0.375,13.672 -0.25,6.057 -0.375,10.614 -0.375,13.672 0,2.997 0.094,5.806 0.281,8.428 0.249,0.563 0.67,0.968 1.265,1.218 0.592,0.249 1.138,0.468 1.639,0.655 0.499,0.188 0.937,0.281 1.311,0.281 0.749,0 1.498,-0.407 2.247,-1.218 0.75,-0.812 1.436,-1.592 2.061,-2.341 1.873,-1.124 3.963,-3.121 6.274,-5.993 1.935,-2.372 3.87,-4.775 5.806,-7.211 0.874,-0.997 1.686,-2.341 2.435,-4.026 0.562,-1.436 1.154,-2.871 1.779,-4.308 0.811,-1.81 1.217,-3.714 1.217,-5.712 0,-3.87 -1.499,-8.021 -4.495,-12.455 -0.935,-1.372 -2.153,-2.684 -3.651,-3.933 z m -10.207,34.835 c -0.188,-11.673 -0.063,-22.723 0.375,-33.149 6.118,2.996 9.458,6.461 10.02,10.395 0.125,0.875 0.188,1.748 0.188,2.622 -0.001,6.367 -3.529,13.079 -10.583,20.132 z" />
	<path
   id="path89"
   d="m 262.434,154.149 c -0.063,-0.124 -0.063,-0.562 0,-1.311 0,-0.623 -0.094,-0.937 -0.281,-0.937 -0.125,0 -0.313,0.094 -0.562,0.281 -1.187,-0.687 -2.374,-1.03 -3.559,-1.03 -1.499,0 -2.561,0.594 -3.184,1.779 0.125,1.562 0.188,3.153 0.188,4.775 0,4.184 -0.515,10.488 -1.545,18.916 -1.03,8.429 -1.545,14.766 -1.545,19.01 0,2.435 0.125,4.745 0.375,6.93 0.249,2.185 1.716,3.339 4.401,3.465 1.873,0.062 3.09,-0.781 3.652,-2.528 -0.063,-1.562 -0.094,-3.151 -0.094,-4.775 0,-4.369 0.436,-10.831 1.311,-19.385 0.874,-8.552 1.311,-14.95 1.311,-19.196 0,-1.935 -0.063,-3.808 -0.188,-5.619 -0.125,-0.061 -0.218,-0.187 -0.28,-0.375 z" />
	<path
   id="path91"
   d="m 306.447,143.849 c -0.188,-0.062 -0.782,-0.218 -1.779,-0.468 -0.75,-0.188 -1.405,-0.281 -1.967,-0.281 -1.624,0 -2.528,0.625 -2.715,1.873 -1.999,16.795 -3.465,29.343 -4.401,37.645 -2.311,-4.244 -4.87,-10.455 -7.679,-18.635 -2.936,-8.553 -5.401,-14.732 -7.398,-18.541 -2.06,-1.686 -3.622,-2.466 -4.682,-2.342 -2.248,0 -3.403,0.688 -3.465,2.061 -0.126,1.624 -0.781,9.989 -1.967,25.097 -0.749,9.926 -1.124,18.199 -1.124,24.815 0,3.809 0.094,7.459 0.281,10.956 0.062,1.061 0.125,2.091 0.188,3.091 0.187,1.248 0.686,1.997 1.498,2.247 0.249,0.124 0.843,0.405 1.779,0.843 0.687,0.375 1.248,0.562 1.686,0.562 0.499,0 0.967,-0.219 1.405,-0.655 1.124,-0.688 1.653,-1.936 1.592,-3.746 -0.25,-4.932 -0.375,-9.77 -0.375,-14.515 0,-9.863 0.53,-19.258 1.592,-28.187 0.125,-0.873 0.406,-1.311 0.843,-1.311 0.187,0 0.342,0.187 0.468,0.562 5.931,16.669 10.894,28.905 14.89,36.708 1.311,2.622 2.934,3.934 4.87,3.934 0.998,0 1.887,-0.375 2.668,-1.124 0.78,-0.749 1.139,-1.624 1.077,-2.622 -0.126,-2.121 -0.188,-4.275 -0.188,-6.461 0,-6.68 0.53,-15.014 1.592,-25.003 0.811,-8.429 1.653,-16.824 2.528,-25.19 -0.187,-0.625 -0.594,-1.062 -1.217,-1.313 z" />
	<path
   id="path93"
   d="m 332.104,144.973 c -2.996,-1.498 -5.992,-2.435 -8.989,-2.81 -0.562,-0.062 -1.779,-0.248 -3.652,-0.562 -1.311,-0.249 -2.374,-0.375 -3.184,-0.375 -1.749,0 -3.34,0.531 -4.776,1.593 0,0.313 -0.141,0.718 -0.421,1.217 -0.281,0.501 -0.391,0.875 -0.328,1.124 0.937,2.061 2.871,3.371 5.806,3.933 0.436,7.992 0.281,16.731 -0.468,26.221 -0.812,0.562 -1.451,1.077 -1.919,1.545 -0.468,0.469 -0.702,0.983 -0.702,1.545 0,1.124 0.655,2.123 1.966,2.997 -0.562,4.059 -0.906,9.209 -1.03,15.451 -0.125,5.181 -0.25,10.395 -0.375,15.639 0.811,1.686 2.248,2.528 4.308,2.528 0.874,0 1.686,-0.22 2.435,-0.655 2.996,-1.749 5.993,-3.497 8.99,-5.244 3.682,-2.248 6.461,-4.527 8.334,-6.836 2.435,-2.997 3.652,-6.274 3.652,-9.833 0,-4.619 -2.592,-8.615 -7.773,-11.986 -0.999,-0.437 -2.045,-0.89 -3.137,-1.358 -1.093,-0.468 -1.732,-1.17 -1.92,-2.106 3.184,-2.185 6.368,-4.401 9.552,-6.648 3.309,-2.747 5.368,-5.807 6.181,-9.178 0.375,-1.622 0.155,-3.619 -0.655,-5.993 -1.188,-3.31 -5.152,-6.712 -11.895,-10.209 z m -0.655,41.297 c 1.185,1.437 1.779,3.091 1.779,4.963 0,0.625 -0.063,1.28 -0.188,1.967 -0.501,2.248 -1.312,4.026 -2.436,5.338 -0.625,0.749 -1.732,1.608 -3.324,2.575 -1.592,0.967 -2.762,1.888 -3.512,2.763 -0.5,-1.624 -0.749,-3.433 -0.749,-5.432 0,-1.372 0.171,-3.418 0.515,-6.134 0.343,-2.716 0.516,-4.729 0.516,-6.04 0,-0.749 -0.032,-1.436 -0.094,-2.06 0.436,-0.188 0.904,-0.281 1.404,-0.281 0.875,0 2.905,0.781 6.089,2.341 z m 2.621,-23.412 c -1.437,2.061 -3.09,3.528 -4.963,4.401 -0.126,0.063 -0.625,0.422 -1.498,1.077 -0.875,0.655 -1.531,0.983 -1.967,0.983 0.062,-1.997 0,-4.776 -0.188,-8.334 -0.25,-3.87 -0.374,-6.617 -0.374,-8.241 0,-1.186 0.03,-2.309 0.093,-3.371 0.313,-0.124 0.594,-0.188 0.844,-0.188 0.498,0 1.123,0.25 1.873,0.749 1.061,0.625 1.84,1.03 2.341,1.218 3.433,1.249 5.306,3.028 5.618,5.338 0.25,2.187 -0.343,4.309 -1.779,6.368 z" />
	<path
   id="path95"
   d="m 377.426,148.813 c -1.686,0 -2.871,0.749 -3.558,2.247 -0.438,0.937 -0.812,2.622 -1.124,5.057 -0.312,2.435 -0.688,4.09 -1.123,4.963 -1.499,3.123 -2.842,7.431 -4.027,12.923 -1.498,7.243 -2.498,11.675 -2.996,13.298 -1.498,4.869 -3.559,8.771 -6.181,11.705 -0.999,-3.683 -1.562,-6.18 -1.686,-7.491 -0.188,-2.559 -0.281,-5.399 -0.281,-8.521 0,-2.934 0.155,-7.71 0.468,-14.327 0.25,-6.181 0.343,-10.863 0.281,-14.047 -0.688,-0.375 -1.39,-0.733 -2.107,-1.077 -0.718,-0.342 -1.389,-0.515 -2.013,-0.515 -2.997,0 -4.495,1.936 -4.495,5.806 0,4.495 0.031,6.431 0.094,5.806 -0.875,7.18 -1.311,13.049 -1.311,17.605 0,7.929 1.186,14.828 3.559,20.695 1.372,3.495 3.465,5.274 6.273,5.338 3.184,0.062 5.994,-1.562 8.428,-4.87 3.871,-5.181 6.492,-10.924 7.867,-17.23 0.436,-2.06 2.06,-7.99 4.869,-17.792 2.061,-7.305 3.309,-13.141 3.746,-17.512 -0.937,-1.374 -2.498,-2.061 -4.683,-2.061 z" />
	<path
   id="path97"
   d="m 449.156,172.036 c -1.499,0.126 -1.999,0.187 -1.499,0.187 -1.624,0 -2.747,0.875 -3.371,2.622 -0.812,2.374 -1.53,3.81 -2.153,4.308 -8.304,6.93 -14.516,11.207 -18.635,12.83 -0.438,0.187 -0.782,0.016 -1.031,-0.516 -0.25,-0.529 -0.438,-0.826 -0.562,-0.89 -0.063,-0.811 -0.094,-1.622 -0.094,-2.435 0,-4.495 1.342,-9.582 4.026,-15.264 4.369,-9.178 9.178,-16.669 14.422,-22.475 0.124,-0.125 1.279,-0.78 3.465,-1.967 1.311,-0.687 1.84,-1.81 1.592,-3.371 -0.313,-1.873 -1.718,-2.81 -4.214,-2.81 -2.81,0 -6.025,2.404 -9.646,7.211 -7.242,9.678 -12.518,19.571 -15.826,29.685 -1.061,3.185 -1.592,5.963 -1.592,8.335 0,2.685 0.688,4.933 2.061,6.742 0.05,0.066 0.102,0.122 0.151,0.188 -0.755,-0.735 -1.545,-1.481 -2.397,-2.248 -6.806,-6.181 -10.24,-9.301 -10.301,-9.364 -1,-0.811 -1.999,-1.622 -2.997,-2.435 -1.312,-1.124 -1.966,-2.091 -1.966,-2.903 0,-0.749 0.562,-1.435 1.686,-2.06 2.746,-1.498 5.057,-3.559 6.93,-6.181 2.184,-2.934 3.277,-5.867 3.277,-8.803 0,-3.495 -1.156,-6.742 -3.465,-9.739 -2.498,-3.245 -5.432,-4.931 -8.803,-5.057 -6.682,-0.312 -10.333,1.468 -10.957,5.338 -0.936,5.806 -1.404,12.955 -1.404,21.444 v 10.207 c -0.063,4.996 -0.219,9.304 -0.468,12.923 -0.063,0.438 -0.22,1.562 -0.468,3.371 -0.251,1.562 -0.375,2.81 -0.375,3.746 0,3.184 1.372,5.088 4.12,5.712 0.437,0.125 0.983,0.031 1.639,-0.28 0.655,-0.313 1.045,-0.469 1.171,-0.469 0.811,-3.06 1.372,-7.178 1.686,-12.36 0.498,-6.867 0.843,-11.111 1.029,-12.735 2.684,2.31 6.773,6.431 12.268,12.36 4.932,5.307 9.052,9.238 12.361,11.799 2.996,-0.749 4.495,-1.842 4.495,-3.277 0,-0.313 -0.094,-0.594 -0.281,-0.843 -0.983,-1.659 -2.347,-3.443 -4.064,-5.342 1.614,1.25 3.312,1.877 5.093,1.877 0.75,0 1.499,-0.124 2.248,-0.374 5.432,-1.997 10.301,-5.024 14.608,-9.084 -0.374,3.622 -0.688,6.337 -0.937,8.147 0,0.812 -0.125,2.106 -0.375,3.886 -0.25,1.78 -0.374,3.105 -0.374,3.98 0,3.058 1.342,5.15 4.026,6.273 0.499,0.188 1.03,0.281 1.592,0.281 1.935,0 2.965,-0.781 3.091,-2.341 0.249,-5.308 0.53,-10.612 0.843,-15.92 0.499,-6.117 1.592,-11.268 3.277,-15.451 0.249,-0.623 0.375,-1.217 0.375,-1.779 0,-1.123 -0.594,-2.559 -1.779,-4.308 -0.25,-0.371 -0.75,-0.496 -1.498,-0.371 z m -54.687,-6.649 c -0.188,-3.371 -0.281,-5.462 -0.281,-6.273 0,-1.997 0.156,-3.776 0.469,-5.338 0.375,-0.937 1.311,-1.404 2.81,-1.404 1.997,0 3.448,0.53 4.354,1.592 0.904,1.062 1.451,2.247 1.639,3.559 0.061,0.875 0,1.872 -0.188,2.996 -0.688,3.559 -3.621,7.273 -8.803,11.144 0.125,-1.624 0.125,-3.716 0,-6.276 z" />
	<path
   id="path99"
   d="m 490.357,149.562 c -0.438,-1.686 -2.31,-2.372 -5.618,-2.061 -1.312,0 -2.093,1.093 -2.341,3.277 -1.187,10.427 -2.561,18.916 -4.121,25.472 -0.374,0 -1.467,0.063 -3.277,0.188 -1.373,0.063 -2.434,0.032 -3.184,-0.094 -1.123,-0.125 -2.061,-0.469 -2.809,-1.03 0,-1.56 0.201,-3.823 0.607,-6.789 0.406,-2.965 0.609,-5.135 0.609,-6.509 0,-1.934 -0.25,-3.683 -0.749,-5.244 -0.251,-0.873 -0.969,-1.435 -2.153,-1.686 -1.438,-0.312 -2.342,-0.686 -2.717,-1.123 -0.125,0.187 -0.671,0.374 -1.639,0.562 -0.969,0.188 -1.451,0.625 -1.451,1.312 0.062,4.932 -0.438,11.581 -1.498,19.945 -1.25,9.989 -1.967,16.669 -2.154,20.04 0,0.188 -0.047,0.702 -0.141,1.545 -0.094,0.843 -0.141,1.515 -0.141,2.014 0,2.247 0.718,3.746 2.154,4.495 1.998,1.061 4.058,1.154 6.181,0.28 0.249,-9.612 1.124,-16.886 2.622,-21.818 0.749,-0.249 1.529,-0.375 2.342,-0.375 0.686,0 1.793,0.156 3.324,0.469 1.528,0.313 2.729,0.438 3.604,0.374 0,1.374 -0.156,3.341 -0.468,5.899 -0.313,2.561 -0.469,4.465 -0.469,5.713 0,0.749 -0.047,1.919 -0.141,3.512 -0.094,1.592 -0.141,2.762 -0.141,3.512 0,3.807 1.186,6.398 3.559,7.772 0.563,0.312 1.717,0.468 3.465,0.468 0.5,0 0.938,-0.203 1.312,-0.608 0.374,-0.407 0.562,-0.828 0.562,-1.265 -0.125,-1.748 -0.188,-3.591 -0.188,-5.524 0,-6.118 0.78,-14.89 2.342,-26.314 1.688,-12.05 2.592,-20.853 2.717,-26.409 z" />
</g>
</svg>
