<?xml version="1.0" encoding="utf-8"?>
<!-- Generator: Adobe Illustrator 16.0.0, SVG Export Plug-In . SVG Version: 6.00 Build 0)  -->
<!DOCTYPE svg PUBLIC "-//W3C//DTD SVG 1.1//EN" "http://www.w3.org/Graphics/SVG/1.1/DTD/svg11.dtd">
<svg version="1.1" id="Layer_1" xmlns="http://www.w3.org/2000/svg" xmlns:xlink="http://www.w3.org/1999/xlink" x="0px" y="0px"
	 width="646px" height="449px" viewBox="0 0 646 449" enable-background="new 0 0 646 449" xml:space="preserve">
<g>
	<path fill="none" d="M135.797,214.905c-4.113-0.436-5.645,3.624-6.384,7.315c-1.024,5.098-3.34,17.897,1.878,21.149
		c4.33,2.697,6.748-0.244,8.161-4.434c0.253-4.584,0.694-9.154,0.561-13.754C139.913,221.613,140.284,215.379,135.797,214.905z"/>
	<path fill="none" d="M233.416,290.707c0.065,0.664,0.1,1.396,0.1,2.188c0,1.396-0.184,3.53-0.547,6.416
		c-0.365,2.885-0.547,5.06-0.547,6.519c0,2.123,0.264,4.043,0.795,5.771c0.796-0.931,2.039-1.908,3.73-2.937
		c1.691-1.028,2.867-1.938,3.531-2.734c1.195-1.397,2.056-3.288,2.588-5.675c0.132-0.73,0.198-1.426,0.198-2.09
		c0-1.99-0.631-3.746-1.89-5.271c-3.382-1.658-5.538-2.488-6.466-2.488C234.376,290.404,233.879,290.508,233.416,290.707z"/>
	<path fill="none" d="M239.316,175.988c0-0.872-0.063-1.744-0.187-2.618c-0.561-3.927-3.896-7.386-10.004-10.378
		c-0.437,10.41-0.561,21.443-0.374,33.098C235.794,189.047,239.316,182.346,239.316,175.988z"/>
	<path fill="none" d="M302.006,356.982c-16.433-0.228-32.742-0.226-49.15-1.424c-15.524-1.135-31.074-3.297-46.634-3.771
		c-15.958-0.486-36.144,2.738-48.348-10.197c-5.474-5.8-8.446-13.047-11.948-20.029c0.67,5.055,0.98,10.219,1.584,15.617
		c0.657,5.877,1.696,11.994,5.652,16.65c4.589,5.406,10.825,6.66,17.638,6.352c30.201-1.344,60.609,0.609,90.825,1.764
		c16.565,0.631,33.127,1.336,49.681,2.193c16.896,0.879,33.767,2.283,50.694,2.32c23.436,0.051,46.807-1.477,70.195-2.716
		c-10.847-0.062-21.688-0.441-32.518-1.046C367.122,360.879,334.629,357.427,302.006,356.982z"/>
	<path fill="none" d="M425.837,188.423c1.744,2.557,3.21,3.833,4.395,3.833c2.742,0,5.391-1.713,7.947-5.142
		c2.431-3.24,3.49-6.264,3.179-9.069c-0.437-4.549-1.652-7.26-3.646-8.134c-0.313-0.125-0.593-0.187-0.841-0.187
		c-0.748,0-1.684,0.624-2.806,1.87c-1.247,1.435-2.213,2.276-2.898,2.524c-0.437,0.187-1.061,0-1.869-0.561
		c-0.812-0.561-1.342-0.841-1.59-0.841c-0.187,0-0.343,0.063-0.468,0.187c-2.183,1.87-3.272,4.769-3.272,8.695
		C423.967,184.279,424.59,186.553,425.837,188.423z"/>
	<path fill="none" d="M315.327,192.256c2.742,0,5.391-1.713,7.947-5.142c2.432-3.24,3.49-6.264,3.18-9.069
		c-0.438-4.549-1.652-7.26-3.646-8.134c-0.313-0.125-0.594-0.187-0.842-0.187c-0.748,0-1.683,0.624-2.805,1.87
		c-1.248,1.435-2.213,2.276-2.898,2.524c-0.437,0.187-1.061,0-1.87-0.561c-0.811-0.561-1.341-0.841-1.589-0.841
		c-0.187,0-0.343,0.063-0.467,0.187c-2.183,1.87-3.272,4.769-3.272,8.695c0,2.681,0.623,4.955,1.87,6.825
		C312.677,190.98,314.142,192.256,315.327,192.256z"/>
	<path fill="none" d="M479.49,362.459c7.023,0.074,14.052,0.17,21.078,0.027c7.95-0.16,16.773-1.031,23.386-5.928
		c0.483-0.359,0.949-0.734,1.401-1.115C512.074,363.262,494.303,362.457,479.49,362.459z"/>
	<path fill="none" d="M194.385,96.585c32.934,0.029,65.865,0.5,98.793,1.152c65.239,1.29,130.474,3.149,195.73,3.188
		c6.011-0.094,12.81-0.541,19.331,0.004c-17.84-5.56-38.318-3.133-56.538-3.18c-14.036-0.037-28.111-1.992-42.124-2.842
		c-16.351-0.991-32.708-1.756-49.06-2.735c-29.884-1.79-59.587-4.878-89.557-5.399c-15.119-0.263-30.254-0.174-45.359,0.581
		c-14.566,0.728-30.039,1.09-44.268,4.567c-4.772,1.165-9.457,2.79-13.77,5.048C176.524,95.897,185.998,96.579,194.385,96.585z"/>
	<path fill="none" d="M235.437,99.039c5.218,0.422,10.41,0.924,15.549,1.426c24.71,2.414,49.415,1.002,74.146,0.113
		c-16.623-0.36-33.247-0.705-49.872-0.996C261.986,99.35,248.711,99.176,235.437,99.039z"/>
	<path fill="none" d="M109.169,253.748c-0.205-0.66-0.398-1.32-0.582-1.984c0.894,6.045,2.332,11.949,4.395,17.266
		c4.021,10.367,10.772,18.855,18.011,27.15c2.248,2.574,4.499,5.172,6.68,7.824c-4.554-8.793-10.14-16.913-15.567-25.184
		C116.951,270.965,111.974,262.781,109.169,253.748z"/>
	<path fill="none" d="M146.17,123.131c0.839-1.358,1.773-2.681,2.817-3.957c6.441-7.879,15.174-13.149,24.862-16.108
		c7.198-2.199,14.55-3.549,21.981-4.302c-4.146-0.015-8.291-0.037-12.437-0.044c-7.161-0.014-14.767,0.188-21.593,1.834
		c-2.521,1.867-4.833,4.034-6.854,6.558C151.091,111.927,148.288,117.389,146.17,123.131z"/>
	<path fill="none" d="M129.917,185.561c-1.645,2.687-3.561,5.245-5.559,7.753c0.254-0.299,0.509-0.595,0.761-0.898
		C126.979,190.188,128.555,187.902,129.917,185.561z"/>
	<path fill="none" d="M158.028,101.652c-8.022,2.765-14.501,8.099-17.108,18.355c-1.54,6.057-1.86,12.213-1.901,18.396
		c0.668-2.809,1.376-5.603,2.176-8.372C144.448,118.768,149.8,108.84,158.028,101.652z"/>
	<path fill="none" d="M530.433,237.454c-1.389-15.415-3.675-30.768-4.438-46.236c-0.529-10.727,0.202-21.001,1.39-31.65
		c1.762-15.71,6.63-42.061-7.843-53.33c-8.601-4.253-19.702-3.39-29.505-3.167c-0.1,0.018-0.209,0.029-0.322,0.029
		c-0.369,0-0.734-0.002-1.104-0.002c-0.566,0.008-1.121,0.015-1.674,0.016c-0.11,0-0.204-0.008-0.301-0.021
		c-4.95-0.004-9.901-0.011-14.852-0.036c-40.583-0.208-81.159-1.052-121.729-1.938c-0.397,0.242-0.88,0.43-1.229,0.43
		c-30.554,0.062-61.337,3.747-91.843,1.113c-27.045-2.336-56.283-6.951-82.783,1.716c-12.716,4.16-24.018,12.665-28.753,25.6
		c-4.473,12.216-3.613,25.22-6.056,37.828c-2.345,12.105-7.962,20.755-16.154,29.718c-5.559,6.082-10.326,12.262-13.077,19.549
		c-1.932,11.067-1.925,22.782,1.206,33.567c5.782,19.906,20.708,35.041,29.655,53.408c1.409,2.893,2.427,5.77,3.199,8.654
		c1.867,2.771,3.588,5.637,5.043,8.67c4.61,9.607,8.945,20.08,19.223,24.908c8.333,3.914,17.66,3.844,26.679,3.846
		c12.574,0.002,24.957,0.998,37.479,2.107c16.945,1.502,33.929,3.039,50.951,3.189c16.319,0.152,32.568,0.207,48.873,1.146
		c32.55,1.877,65.047,5.307,97.671,5.631c13.401,0.133,26.692-0.916,40.065-1.199c9.036-0.193,18.081,0.113,27.102-0.404
		c9.146-0.518,20.348-1.225,27.962-6.943c8.928-6.701,8.875-19.33,8.887-29.528c0.017-14.165-1.716-28.224-2.46-42.353
		C530.912,266.98,531.772,252.245,530.433,237.454z M145.286,230.389c-0.248,2.137-0.848,6.553-2.011,10.825
		c-0.081,1.367-0.144,2.724-0.17,4.052c-0.041,2.207-0.925,2.325-1.83,1.56c-2.198,4.61-5.466,7.221-10.25,2.918
		c-7.523-6.771-7.336-19.552-5.703-29.103c0.675-3.914,1.856-10.618,5.954-12.175c4.022-1.53,8.336,0.812,10.126,4.859
		c1.84,4.154,2.456,8.666,2.548,13.275C144.768,227.534,145.434,229.122,145.286,230.389z M433.13,160.468
		c0.872,0.748,3.21,1.746,7.013,2.992c2.991,0.998,5.109,2.681,6.357,5.049c2.181,4.176,3.272,7.76,3.272,10.752
		c0,1.683-0.313,3.211-0.936,4.581c-3.678,8.291-8.882,13.215-15.613,14.772c-0.811,0.187-1.622,0.281-2.431,0.281
		c-3.554,0-7.139-1.932-10.753-5.797c-2.431-2.618-3.646-6.015-3.646-10.191c0-4.612,1.37-9.567,4.113-14.866
		c1.184-2.244,2.618-4.175,4.301-5.797c1.932-1.931,3.771-2.898,5.517-2.898C431.321,159.346,432.256,159.72,433.13,160.468z
		 M340.477,172.436c1.184-15.083,1.838-23.436,1.964-25.057c0.061-1.37,1.215-2.057,3.459-2.057
		c1.059-0.124,2.618,0.655,4.675,2.337c1.994,3.803,4.456,9.974,7.386,18.512c2.806,8.167,5.36,14.368,7.667,18.606
		c0.935-8.289,2.398-20.817,4.395-37.585c0.187-1.246,1.09-1.87,2.711-1.87c0.562,0,1.216,0.094,1.964,0.281
		c0.996,0.25,1.589,0.406,1.776,0.467c0.622,0.25,1.028,0.687,1.216,1.309c-0.043,0.415-0.082,0.834-0.125,1.25
		c2.223-0.401,5.255-0.778,9.099-1.131c5.423-0.565,9.474-1.57,12.154-3.017c2.182,0.748,4.675,1.122,7.479,1.122
		c2.806,0,5.484-0.342,8.041-1.028c0.748-0.062,2.648-0.499,5.703-1.309c2.244-0.561,4.114-0.748,5.61-0.561
		c1.122,0,1.589,0.467,1.402,1.402c1.683,0,2.524,0.561,2.524,1.683c-0.562,2.244-1.622,3.553-3.179,3.927
		c-4.053,0.998-11.096,2.307-21.131,3.927c-1.247,15.521-1.869,28.455-1.869,38.801c0,3.927,0.061,7.792,0.187,11.594
		c0.062,1.183,0,2.087-0.187,2.711c-0.313,0.996-0.936,1.464-1.87,1.402c-1.809-0.063-3.305-0.827-4.488-2.291
		c-1.185-1.465-1.839-3.1-1.963-4.909c-0.126-2.305-0.188-4.736-0.188-7.292c0-4.114,0.28-10.626,0.842-19.541
		c0.561-8.539,0.81-15.053,0.748-19.541c-1.684-0.124-4.021,0.032-7.013,0.467c-3.429,0.5-5.797,0.748-7.105,0.748
		c-2.059,0-3.855-0.38-5.404-1.123c-0.607,5.944-1.219,11.883-1.793,17.858c-1.061,9.974-1.59,18.294-1.59,24.963
		c0,2.183,0.062,4.333,0.187,6.452c0.062,0.996-0.296,1.87-1.075,2.618s-1.668,1.122-2.664,1.122c-1.933,0-3.553-1.309-4.862-3.927
		c-3.989-7.791-8.944-20.008-14.865-36.651c-0.126-0.374-0.281-0.561-0.468-0.561c-0.437,0-0.718,0.437-0.842,1.309
		c-1.061,8.915-1.589,18.294-1.589,28.143c0,4.737,0.124,9.567,0.374,14.492c0.062,1.807-0.468,3.053-1.59,3.74
		c-0.437,0.436-0.904,0.655-1.402,0.655c-0.437,0-0.998-0.187-1.683-0.561c-0.936-0.437-1.528-0.717-1.776-0.841
		c-0.812-0.25-1.31-0.998-1.496-2.244c-0.063-0.998-0.126-2.026-0.188-3.085c-0.187-3.491-0.28-7.136-0.28-10.939
		C339.354,190.606,339.729,182.346,340.477,172.436z M305.603,168.041c1.184-2.244,2.618-4.175,4.301-5.797
		c1.932-1.931,3.771-2.898,5.517-2.898c0.996,0,1.931,0.374,2.805,1.122c0.872,0.748,3.209,1.746,7.013,2.992
		c2.99,0.998,5.109,2.681,6.357,5.049c2.18,4.176,3.271,7.76,3.271,10.752c0,1.683-0.313,3.211-0.936,4.581
		c-3.678,8.291-8.881,13.215-15.613,14.772c-0.811,0.187-1.622,0.281-2.431,0.281c-3.553,0-7.138-1.932-10.752-5.797
		c-2.431-2.618-3.646-6.015-3.646-10.191C301.489,178.295,302.859,173.34,305.603,168.041z M216.69,157.289
		c-2.307,0.935-5.704,2.026-10.191,3.272c-4.488,1.248-7.886,2.337-10.191,3.272c-0.561,1.622-0.967,5.236-1.215,10.846
		c0.996,0.374,2.15,0.561,3.459,0.561c0.935,0,2.399-0.155,4.395-0.467c1.994-0.312,3.459-0.468,4.395-0.468
		c1.744,0,3.24,0.374,4.488,1.122c0.872,1.248,1.309,2.057,1.309,2.431c0,0.437-0.219,0.78-0.654,1.028
		c-0.125,0.063-0.561,0.5-1.309,1.309c-0.5,0.561-1.122,0.811-1.87,0.748c-1.309,0.313-3.709,0.5-7.199,0.561
		c-2.931,0.063-5.268,0.437-7.012,1.122c-1.185,4.613-1.776,8.26-1.776,10.939c0,1.809,0.248,3.242,0.748,4.301
		c2.929,2.057,8.009,2.931,15.24,2.618c0.498,0,1.028-0.234,1.589-0.701c0.561-0.468,1.028-0.701,1.402-0.701
		c1.744-0.374,2.898,0.935,3.459,3.927c0.187,0.998,0.015,1.917-0.514,2.758c-0.53,0.842-1.294,1.293-2.291,1.356
		c-7.542,0.248-14.087-0.343-19.634-1.776c-1.746-0.437-3.335-1.402-4.769-2.898c-1.435-1.496-2.244-3.179-2.431-5.049
		c-0.561-5.423-0.561-10.285,0-14.585c-1.746-1.183-2.524-2.337-2.337-3.459c0.061-0.561,0.545-1.075,1.449-1.542
		c0.903-0.468,1.417-0.95,1.542-1.449c0.124-0.498,0.374-3.459,0.748-8.882c-3.492-0.685-5.205-1.994-5.143-3.927
		c0.062-1.807,1.153-3.24,3.272-4.301c1.994-0.81,3.988-1.62,5.984-2.431c2.368-1.183,5.297-2.244,8.789-3.179
		c2.992-0.809,6.015-1.589,9.069-2.337c0.311-0.062,0.685-0.093,1.122-0.093c1.683,0,3.646,0.654,5.891,1.963
		c0.061,0.25,0.217,0.717,0.467,1.402c0.249,0.687,0.374,1.185,0.374,1.496C217.345,156.573,217.125,156.978,216.69,157.289z
		 M217.812,155.045c0-0.311,0.061-0.622,0.187-0.935c0.311-0.748,0.996-1.184,2.057-1.309c0.81-0.125,1.62-0.218,2.431-0.281
		c5.236,1.122,10.72,4.053,16.455,8.789c1.496,1.248,2.711,2.556,3.646,3.927c2.992,4.426,4.488,8.571,4.488,12.435
		c0,1.995-0.406,3.896-1.215,5.703c-0.624,1.435-1.216,2.868-1.776,4.301c-0.748,1.683-1.559,3.024-2.431,4.021
		c-1.933,2.431-3.865,4.831-5.797,7.199c-2.307,2.868-4.394,4.862-6.264,5.983c-0.624,0.748-1.309,1.527-2.057,2.337
		c-0.748,0.81-1.496,1.216-2.244,1.216c-0.374,0-0.811-0.094-1.309-0.281c-0.5-0.187-1.044-0.406-1.636-0.654
		c-0.593-0.25-1.014-0.655-1.262-1.215c-0.187-2.618-0.28-5.423-0.28-8.415c0-3.053,0.124-7.604,0.374-13.65
		c0.249-6.045,0.374-10.596,0.374-13.65c0-4.051-0.156-7.76-0.468-11.126c-0.063-0.062-0.748-0.779-2.057-2.15
		C218.216,156.479,217.812,155.732,217.812,155.045z M255.401,266.232c-0.863,3.58-3.051,6.83-6.565,9.748
		c-3.382,2.389-6.765,4.742-10.147,7.063c0.199,0.996,0.879,1.742,2.04,2.238c1.159,0.498,2.271,0.979,3.333,1.443
		c5.504,3.576,8.256,7.822,8.256,12.729c0,3.777-1.293,7.262-3.879,10.445c-1.99,2.449-4.941,4.875-8.854,7.262
		c-3.184,1.854-6.367,3.713-9.55,5.57c-0.796,0.463-1.658,0.693-2.586,0.693c-2.188,0-3.715-0.896-4.576-2.686
		c0.132-5.572,0.264-11.109,0.398-16.613c0.132-6.631,0.497-12.102,1.094-16.414c-1.393-0.928-2.089-1.988-2.089-3.184
		c0-0.596,0.249-1.145,0.746-1.642c0.498-0.497,1.177-1.047,2.04-1.644c0.796-10.08,0.96-19.365,0.497-27.854
		c-3.118-0.6-5.172-1.99-6.167-4.182c-0.067-0.266,0.05-0.662,0.348-1.191c0.299-0.527,0.448-0.962,0.448-1.293
		c1.525-1.128,3.216-1.689,5.073-1.689c1.326,0,4.377,0.435,9.152,1.293c2.453,0.396,5.006,1.295,7.66,2.688
		c7.162,3.715,11.373,7.328,12.634,10.842C255.565,262.387,255.8,264.508,255.401,266.232z M269.526,285.535
		c-0.93,9.086-1.394,15.945-1.394,20.592c0,1.725,0.032,3.414,0.1,5.072c-0.597,1.854-1.89,2.752-3.88,2.686
		c-2.852-0.133-4.41-1.355-4.675-3.68c-0.267-2.32-0.397-4.771-0.397-7.361c0-4.51,0.547-11.238,1.641-20.189
		c1.094-8.953,1.642-15.65,1.642-20.096c0-1.727-0.067-3.414-0.199-5.072c0.662-1.26,1.79-1.895,3.382-1.895
		c1.26,0,2.52,0.365,3.781,1.098c0.264-0.197,0.463-0.297,0.596-0.297c0.199,0,0.299,0.332,0.299,0.99
		c-0.066,0.797-0.066,1.264,0,1.396c0.064,0.191,0.164,0.324,0.298,0.391c0.132,1.924,0.199,3.914,0.199,5.969
		C270.919,269.648,270.454,276.445,269.526,285.535z M269.328,197.586c-1.061-1.744-2.057-4.519-2.992-8.321
		c-0.998-4.175-1.839-6.98-2.524-8.415c-2.681,13.028-5.548,22.751-8.602,29.171c-0.437,0.935-1.746,0.872-3.927-0.187
		c-1.808-0.874-2.711-2.12-2.711-3.74c0-0.561,0.654-2.555,1.963-5.984c0.561-1.496,2.742-8.695,6.544-21.598
		c1.309-4.488,2.679-12.372,4.114-23.655c0.125-0.124,0.436-0.778,0.935-1.963c0.311-0.872,0.872-1.309,1.683-1.309
		c2.118,0,3.583,0.406,4.394,1.215c0,1.809,0.295,4.722,0.888,8.742c0.592,4.021,0.889,7.059,0.889,9.116
		c0.561,3.491,1.089,7.012,1.589,10.565c0.685,3.99,1.931,7.262,3.74,9.817c5.984-16.642,9.785-29.793,11.407-39.455
		c0.248-0.997,1.183-1.496,2.805-1.496c2.305,0,3.614,0.748,3.927,2.244c0.436,2.244,0.654,4.832,0.654,7.76
		c0,0.935-0.063,2.961-0.187,6.077c-0.063,2.618-0.063,4.738,0,6.358c0.561,13.152,1.777,24.185,3.646,33.098
		c0.249,1.246-0.654,1.931-2.711,2.057c-1.372,0.061-2.774-0.53-4.207-1.776c-1.185-1.061-2.12-2.773-2.805-5.143
		c-0.624-2.181-0.998-5.267-1.122-9.256c-0.126-4.488-0.344-7.573-0.655-9.256c-0.811,2.805-2.15,6.981-4.021,12.528
		c-1.122,3.055-1.808,4.801-2.057,5.236c-0.998,1.933-2.244,2.805-3.74,2.618C273.254,201.95,270.948,200.267,269.328,197.586z
		 M310.311,308.41c-0.266-0.064-0.496-0.104-0.695-0.104c-0.398,0-0.912,0.166-1.542,0.498c-0.631,0.332-1.111,0.496-1.442,0.496
		c-0.332,0-0.696-0.131-1.094-0.396c-4.444-2.784-11.341-6.967-20.691-12.534c0.199,2.455,0.363,5.969,0.498,10.545
		c0,0.53,0.064,1.328,0.198,2.387c0.132,1.063,0.199,1.824,0.199,2.289c0,1.593-0.696,2.688-2.089,3.283
		c-0.398,0.265-0.963,0.396-1.691,0.396c-0.796,0-1.293-0.23-1.492-0.693c-1.725-0.6-2.721-1.758-2.984-3.482
		c-0.796-4.771-1.193-10.377-1.193-16.811c0-2.32,0.064-5.785,0.199-10.396c0.131-4.605,0.198-8.072,0.198-10.396
		c0-7.029-0.464-13.134-1.393-18.308c-0.134-0.795,0.331-1.324,1.393-1.592c0.796-0.132,1.624-0.265,2.487-0.396
		c0.861,0.267,1.756,0.58,2.686,0.945c0.928,0.363,1.426,0.94,1.492,1.738c0.994,9.021,1.426,16.184,1.293,21.485
		c2.719-2.453,5.835-5.703,9.352-9.748c2.984-3.384,5.934-6.798,8.854-10.246c0.795-0.332,1.656-0.498,2.586-0.498
		c2.586,0,3.945,0.896,4.078,2.688c-1.856,4.111-5.506,8.986-10.941,14.623c-6.366,6.563-10.444,11.241-12.235,14.024
		c4.111,2.453,8.256,4.908,12.435,7.36c4.638,2.928,8.551,5.746,11.735,8.465c0.397,0.332,0.598,0.795,0.598,1.393
		C311.107,305.824,310.841,306.822,310.311,308.41z M372.485,309.504c0.063,1.26,0,2.221-0.196,2.885
		c-0.333,1.063-0.995,1.563-1.99,1.492c-1.924-0.063-3.516-0.879-4.771-2.438c-1.261-1.563-1.957-3.297-2.088-5.227
		c-0.138-2.447-0.199-5.035-0.199-7.758c0-4.377,0.299-11.311,0.896-20.791c0.598-9.086,0.861-16.018,0.796-20.791
		c-1.791-0.131-4.276,0.035-7.461,0.498c-3.647,0.531-6.168,0.795-7.561,0.795c-0.498,0-0.977-0.027-1.446-0.068
		c0.025,0.141,0.042,0.27,0.042,0.371c0.003,0.531-0.23,0.963-0.693,1.293c-2.454,0.996-6.064,2.156-10.844,3.482
		c-4.772,1.328-8.39,2.486-10.842,3.482c-0.598,1.725-1.029,5.566-1.293,11.539c1.061,0.396,2.287,0.596,3.68,0.596
		c0.995,0,2.554-0.164,4.677-0.496c2.12-0.332,3.683-0.498,4.678-0.498c1.854,0,3.444,0.398,4.771,1.193
		c0.931,1.328,1.396,2.188,1.396,2.586c0,0.465-0.234,0.83-0.697,1.096c-0.133,0.066-0.6,0.531-1.395,1.393
		c-0.529,0.596-1.191,0.861-1.988,0.795c-1.396,0.332-3.945,0.531-7.659,0.602c-3.118,0.063-5.604,0.465-7.46,1.189
		c-1.264,4.908-1.891,8.787-1.891,11.643c0,1.924,0.264,3.445,0.796,4.572c3.114,2.188,8.521,3.117,16.214,2.785
		c0.529,0,1.096-0.248,1.688-0.746c0.601-0.498,1.095-0.746,1.491-0.746c1.855-0.396,3.084,0.994,3.684,4.182
		c0.196,1.063,0.018,2.039-0.55,2.934c-0.563,0.896-1.377,1.377-2.437,1.443c-8.024,0.264-14.988-0.365-20.891-1.891
		c-1.857-0.469-3.55-1.492-5.073-3.086c-1.526-1.594-2.388-3.383-2.587-5.373c-0.598-5.77-0.598-10.938,0-15.518
		c-1.857-1.26-2.687-2.488-2.486-3.682c0.064-0.596,0.58-1.145,1.541-1.641c0.961-0.498,1.508-1.014,1.643-1.543
		c0.132-0.529,0.397-3.684,0.796-9.449c-3.716-0.729-5.537-2.121-5.472-4.178c0.064-1.928,1.228-3.447,3.481-4.576
		c2.122-0.861,4.243-1.729,6.366-2.586c2.452-1.264,5.536-2.393,9.251-3.387c3.25-0.857,6.5-1.688,9.75-2.482
		c0.229-0.046,0.498-0.071,0.787-0.087c-0.118-0.276-0.18-0.43-0.18-0.454c0-0.469,0.233-0.972,0.696-1.506
		c2.123-0.734,6.466-1.402,13.031-2.006c5.77-0.604,10.08-1.676,12.932-3.21c2.32,0.796,4.975,1.19,7.958,1.19
		s5.835-0.363,8.556-1.098c0.797-0.063,2.817-0.527,6.067-1.395c2.388-0.596,4.378-0.795,5.969-0.596
		c1.194,0,1.69,0.498,1.492,1.492c1.783,0.008,2.679,0.604,2.679,1.799c-0.598,2.387-1.726,3.779-3.383,4.178
		c-4.313,1.061-11.805,2.453-22.479,4.178c-1.325,16.514-1.987,30.275-1.987,41.283
		C372.289,301.348,372.352,305.461,372.485,309.504z M421.629,310.992c-1.129,0.996-1.891,1.459-2.288,1.393
		c-3.25-0.596-5.307-3.215-6.168-7.854c-0.93-5.039-2.021-9.252-3.282-12.635c-2.256,0.199-4.511,0.396-6.765,0.598
		c-2.587,0.332-4.61,1.129-6.067,2.387c-0.729,2.057-1.689,5.705-2.886,10.943c-1.128,4.84-2.224,8.52-3.281,11.041
		c-0.53,1.189-1.657,1.521-3.384,0.996c-2.188-0.73-3.353-1.729-3.479-2.984c-0.198-2.521,0.528-5.902,2.188-10.146
		c1.989-4.842,3.084-8.291,3.283-10.346c0.063-0.598-0.366-1.26-1.294-1.99c-0.931-0.729-1.395-1.293-1.395-1.688
		c0-0.33,0.147-0.684,0.446-1.045c0.298-0.363,0.994-0.662,2.089-0.896c1.097-0.229,1.706-0.58,1.843-1.045
		c1.191-3.313,3.084-9.481,5.67-18.503c2.188-7.823,4.146-13.827,5.867-18.006c0.397-0.928,1.229-1.394,2.486-1.394
		c0.928,0,1.757,0.3,2.487,0.896c1.854,1.593,3.049,3.979,3.581,7.164c0.396,2.72,0.762,5.438,1.094,8.156
		c3.313,15.651,6.763,28.548,10.344,38.696c0.398,1.061,0.601,1.984,0.601,2.781C423.319,308.838,422.755,309.998,421.629,310.992z
		 M462.21,284.635c-1.791,4.443-2.952,9.916-3.481,16.414c-0.329,5.637-0.632,11.273-0.896,16.91
		c-0.134,1.658-1.228,2.488-3.283,2.488c-0.597,0-1.161-0.104-1.688-0.299c-2.854-1.193-4.277-3.416-4.277-6.664
		c0-0.934,0.132-2.338,0.397-4.229c0.265-1.891,0.396-3.266,0.396-4.129c0.265-1.922,0.598-4.808,0.995-8.653
		c-4.576,4.313-9.749,7.526-15.52,9.649c-0.799,0.267-1.594,0.396-2.39,0.396c-3.052,0-5.869-1.723-8.456-5.172
		c-1.458-1.924-2.188-4.311-2.188-7.162c0-2.52,0.563-5.473,1.688-8.854c3.519-10.744,9.117-21.254,16.813-31.535
		c3.846-5.105,7.262-7.658,10.246-7.658c2.647,0,4.144,0.994,4.477,2.984c0.267,1.658-0.299,2.852-1.688,3.58
		c-2.322,1.262-3.553,1.957-3.685,2.09c-5.566,6.166-10.678,14.125-15.315,23.873c-2.854,6.035-4.277,11.441-4.277,16.215
		c0,0.863,0.032,1.727,0.1,2.586c0.135,0.068,0.331,0.383,0.601,0.945c0.265,0.564,0.63,0.746,1.094,0.547
		c4.377-1.723,10.976-6.266,19.796-13.627c0.662-0.531,1.426-2.055,2.288-4.576c0.662-1.855,1.854-2.785,3.581-2.785
		c-0.531,0,0-0.066,1.592-0.199c0.796-0.133,1.326,0,1.592,0.398c1.262,1.857,1.894,3.381,1.894,4.576
		C462.607,283.342,462.475,283.973,462.21,284.635z M490.068,172.529c-1.061,9.974-1.59,18.294-1.59,24.963
		c0,2.183,0.062,4.333,0.187,6.452c0.062,0.996-0.296,1.87-1.075,2.618s-1.668,1.122-2.664,1.122c-1.933,0-3.553-1.309-4.862-3.927
		c-3.989-7.791-8.944-20.008-14.865-36.651c-0.126-0.374-0.281-0.561-0.468-0.561c-0.437,0-0.718,0.437-0.842,1.309
		c-1.061,8.915-1.589,18.294-1.589,28.143c0,4.737,0.124,9.567,0.374,14.492c0.062,1.807-0.468,3.053-1.59,3.74
		c-0.437,0.436-0.904,0.655-1.402,0.655c-0.437,0-0.998-0.187-1.683-0.561c-0.936-0.437-1.528-0.717-1.776-0.841
		c-0.812-0.25-1.31-0.998-1.496-2.244c-0.063-0.998-0.126-2.026-0.188-3.085c-0.187-3.491-0.28-7.136-0.28-10.939
		c0-6.606,0.374-14.866,1.122-24.776c1.184-15.083,1.838-23.436,1.964-25.057c0.061-1.37,1.215-2.057,3.459-2.057
		c1.059-0.124,2.618,0.655,4.675,2.337c1.994,3.803,4.456,9.974,7.386,18.512c2.806,8.167,5.36,14.368,7.667,18.606
		c0.935-8.289,2.398-20.817,4.395-37.585c0.187-1.246,1.09-1.87,2.711-1.87c0.562,0,1.216,0.094,1.964,0.281
		c0.996,0.25,1.589,0.406,1.776,0.467c0.622,0.25,1.028,0.687,1.216,1.309C491.719,155.732,490.877,164.114,490.068,172.529z"/>
	<path fill="none" d="M405.008,269.516c-1.986,5.504-3.715,11.008-5.173,16.512c1.063-0.199,3.851-0.297,8.36-0.297
		c-0.199-2.453-0.631-5.207-1.293-8.258C406.238,274.822,405.608,272.164,405.008,269.516z"/>
	<path fill="none" d="M537.05,194.18c0.364-16.256,0.831-32.631-0.802-48.837c-0.926-9.19-1.801-19.68-6.119-28.194
		c1.537,5.031,1.958,10.492,1.986,15.652c0.059,10.519-1.269,20.949-2.404,31.387c-1.366,12.515-1.162,24.8-0.013,37.346
		c1.416,15.466,3.692,30.88,4.436,46.401c0.692,14.408,0.031,28.744,1.146,43.152c1.04,13.422,2.552,27.047,1.466,40.514
		c-0.011,0.133-0.022,0.266-0.033,0.398c2.216-13.338,1.84-27.242,1.817-40.693C538.485,258.904,536.322,226.589,537.05,194.18z"/>
	<path fill="none" d="M240.082,255.588c-0.532-0.199-1.36-0.629-2.487-1.293c-0.795-0.529-1.459-0.795-1.989-0.795
		c-0.266,0-0.564,0.066-0.896,0.197c-0.067,1.129-0.099,2.322-0.099,3.582c0,1.725,0.132,4.643,0.398,8.754
		c0.199,3.779,0.264,6.732,0.199,8.854c0.463,0,1.159-0.348,2.088-1.045c0.929-0.695,1.459-1.076,1.592-1.145
		c1.99-0.928,3.746-2.486,5.273-4.674c1.524-2.189,2.153-4.443,1.889-6.766C245.718,258.805,243.729,256.916,240.082,255.588z"/>
	<path d="M541.412,281.197c-0.174-16.508-0.813-33.008-1.442-49.504c-0.604-15.745-0.073-31.479,0.225-47.219
		c0.28-15.145,0.015-30.211-1.612-45.277c-1.021-9.421-2.869-19.451-8.261-27.447c-2.537-3.762-5.851-6.271-9.604-7.939
		c-5.593-3.609-13.037-5.111-19.144-6.127c-21.427-3.566-43.437-0.631-65.012-2.461c-31.962-2.711-64.044-3.524-96.003-6.26
		c-29.436-2.52-58.978-4.025-88.521-3.828c-14.449,0.097-28.892,0.701-43.293,1.871c-11.939,0.97-24.062,1.945-35.457,5.859
		c-3.611,1.24-6.875,2.848-9.852,4.74c-5.789,1.107-11.247,3.143-15.907,6.816c-14.188,11.188-11.68,32.167-11.801,49.617
		c-1.071,5.57-2.1,11.146-3.255,16.67c-0.95,4.544-2.335,8.508-4.238,12.297c-2.706,4.252-6.043,8.166-9.815,11.896
		c-6.511,6.438-9.625,13.736-11.188,22.462c-0.314,0.828-0.612,1.67-0.875,2.544c-3.82,12.708-1.345,27.422,0.991,40.168
		c1.959,10.688,7.187,20.17,13.779,28.668c6.423,8.278,13.894,15.657,19.885,24.284c0.183,0.265,0.352,0.531,0.529,0.8
		c2.297,8.705,2.213,17.713,3.409,26.896c1.216,9.352,6.129,18.928,16.146,20.969c4.954,1.01,9.942,0.691,14.95,0.322
		c7.849-0.578,15.658-0.195,23.517,0.039c32.945,1.004,65.889,2.08,98.813,3.646c32.2,1.523,64.014,3.557,96.271,2.191
		c31.983-1.348,63.924-4.098,95.964-3.439c14.982,0.307,31.569,0.453,41.521-12.723c5.229-6.922,7.127-15.938,8.163-24.355
		C542.157,312.193,541.573,296.459,541.412,281.197z M181.334,91.921c14.229-3.477,29.702-3.839,44.268-4.567
		c15.105-0.755,30.24-0.844,45.359-0.581c29.969,0.521,59.673,3.609,89.557,5.399c16.352,0.979,32.709,1.744,49.06,2.735
		c14.013,0.85,28.088,2.805,42.124,2.842c18.22,0.047,38.698-2.38,56.538,3.18c-6.521-0.545-13.32-0.098-19.331-0.004
		c-65.257-0.039-130.491-1.898-195.73-3.188c-32.928-0.652-65.859-1.123-98.793-1.152c-8.387-0.006-17.861-0.688-26.821,0.384
		C171.877,94.711,176.562,93.086,181.334,91.921z M325.132,100.578c-24.731,0.889-49.436,2.301-74.146-0.113
		c-5.139-0.502-10.331-1.004-15.549-1.426c13.274,0.137,26.549,0.311,39.823,0.543C291.885,99.873,308.509,100.218,325.132,100.578z
		 M161.8,100.554c6.826-1.646,14.432-1.848,21.593-1.834c4.146,0.007,8.291,0.029,12.437,0.044
		c-7.431,0.753-14.783,2.103-21.981,4.302c-9.688,2.959-18.421,8.229-24.862,16.108c-1.044,1.276-1.978,2.599-2.817,3.957
		c2.118-5.742,4.921-11.204,8.776-16.019C156.967,104.588,159.279,102.421,161.8,100.554z M140.92,120.007
		c2.607-10.256,9.086-15.59,17.108-18.355c-8.228,7.188-13.58,17.116-16.833,28.379c-0.8,2.769-1.508,5.563-2.176,8.372
		C139.06,132.22,139.38,126.064,140.92,120.007z M129.917,185.561c-1.362,2.341-2.938,4.627-4.798,6.855
		c-0.252,0.303-0.507,0.599-0.761,0.898C126.356,190.806,128.272,188.248,129.917,185.561z M130.993,296.18
		c-7.239-8.295-13.99-16.783-18.011-27.15c-2.063-5.316-3.501-11.221-4.395-17.266c0.184,0.664,0.377,1.324,0.582,1.984
		c2.805,9.033,7.782,17.217,12.937,25.072c5.427,8.271,11.013,16.391,15.567,25.184C135.492,301.352,133.241,298.754,130.993,296.18
		z M362,366.457c-16.928-0.037-33.798-1.441-50.694-2.32c-16.554-0.857-33.116-1.563-49.681-2.193
		c-30.216-1.154-60.624-3.107-90.825-1.764c-6.813,0.309-13.049-0.945-17.638-6.352c-3.956-4.656-4.995-10.773-5.652-16.65
		c-0.604-5.398-0.914-10.563-1.584-15.617c3.502,6.982,6.474,14.229,11.948,20.029c12.204,12.936,32.39,9.711,48.348,10.197
		c15.56,0.475,31.11,2.637,46.634,3.771c16.408,1.198,32.717,1.196,49.15,1.424c32.623,0.444,65.116,3.896,97.672,5.713
		c10.829,0.604,21.671,0.984,32.518,1.046C408.807,364.98,385.436,366.508,362,366.457z M523.954,356.559
		c-6.612,4.896-15.436,5.768-23.386,5.928c-7.026,0.143-14.055,0.047-21.078-0.027c14.813-0.002,32.584,0.803,45.865-7.016
		C524.903,355.824,524.438,356.199,523.954,356.559z M525.268,353.654c-7.614,5.719-18.815,6.426-27.962,6.943
		c-9.021,0.518-18.065,0.211-27.102,0.404c-13.373,0.283-26.664,1.332-40.065,1.199c-32.624-0.324-65.121-3.754-97.671-5.631
		c-16.305-0.939-32.554-0.994-48.873-1.146c-17.022-0.15-34.006-1.688-50.951-3.189c-12.522-1.109-24.905-2.105-37.479-2.107
		c-9.019-0.002-18.346,0.068-26.679-3.846c-10.278-4.828-14.613-15.301-19.223-24.908c-1.455-3.033-3.176-5.898-5.043-8.67
		c-0.772-2.885-1.79-5.762-3.199-8.654c-8.947-18.367-23.873-33.502-29.655-53.408c-3.131-10.785-3.138-22.5-1.206-33.567
		c2.751-7.287,7.518-13.467,13.077-19.549c8.192-8.963,13.809-17.613,16.154-29.718c2.443-12.608,1.583-25.612,6.056-37.828
		c4.735-12.935,16.037-21.44,28.753-25.6c26.5-8.667,55.738-4.052,82.783-1.716c30.506,2.634,61.29-1.051,91.843-1.113
		c0.35,0,0.832-0.188,1.229-0.43c40.57,0.886,81.146,1.73,121.729,1.938c4.95,0.025,9.901,0.032,14.852,0.036
		c0.097,0.013,0.19,0.021,0.301,0.021c0.553-0.001,1.107-0.008,1.674-0.016c0.369,0,0.734,0.002,1.104,0.002
		c0.113,0,0.223-0.011,0.322-0.029c9.803-0.223,20.904-1.086,29.505,3.167c14.473,11.269,9.604,37.62,7.843,53.33
		c-1.188,10.649-1.919,20.923-1.39,31.65c0.763,15.468,3.049,30.821,4.438,46.236c1.34,14.791,0.479,29.526,1.262,44.319
		c0.744,14.129,2.477,28.188,2.46,42.353C534.143,334.324,534.195,346.953,525.268,353.654z M536.713,332
		c0.011-0.133,0.022-0.266,0.033-0.398c1.086-13.467-0.426-27.092-1.466-40.514c-1.115-14.408-0.454-28.744-1.146-43.152
		c-0.743-15.521-3.02-30.936-4.436-46.401c-1.149-12.546-1.354-24.831,0.013-37.346c1.136-10.438,2.463-20.868,2.404-31.387
		c-0.028-5.16-0.449-10.621-1.986-15.652c4.318,8.514,5.193,19.004,6.119,28.194c1.633,16.206,1.166,32.581,0.802,48.837
		c-0.728,32.409,1.436,64.724,1.48,97.126C538.553,304.758,538.929,318.662,536.713,332z"/>
	<path d="M141.402,213.324c-1.79-4.047-6.104-6.389-10.126-4.859c-4.098,1.557-5.279,8.261-5.954,12.175
		c-1.633,9.551-1.82,22.333,5.703,29.103c4.784,4.303,8.052,1.692,10.25-2.918c0.905,0.766,1.789,0.647,1.83-1.56
		c0.026-1.328,0.089-2.685,0.17-4.052c1.163-4.272,1.763-8.688,2.011-10.825c0.148-1.267-0.518-2.854-1.336-3.789
		C143.858,221.99,143.242,217.478,141.402,213.324z M139.452,238.936c-1.413,4.189-3.831,7.131-8.161,4.434
		c-5.218-3.252-2.902-16.051-1.878-21.149c0.739-3.691,2.271-7.751,6.384-7.315c4.487,0.474,4.116,6.708,4.216,10.277
		C140.146,229.781,139.705,234.352,139.452,238.936z"/>
	<path d="M242.073,249.014c-2.654-1.393-5.207-2.291-7.66-2.688c-4.775-0.858-7.826-1.293-9.152-1.293
		c-1.857,0-3.548,0.562-5.073,1.689c0,0.331-0.149,0.766-0.448,1.293c-0.298,0.529-0.415,0.926-0.348,1.191
		c0.995,2.191,3.049,3.582,6.167,4.182c0.463,8.488,0.299,17.773-0.497,27.854c-0.863,0.597-1.542,1.146-2.04,1.644
		c-0.497,0.497-0.746,1.046-0.746,1.642c0,1.195,0.696,2.256,2.089,3.184c-0.597,4.313-0.962,9.783-1.094,16.414
		c-0.134,5.504-0.266,11.041-0.398,16.613c0.861,1.789,2.388,2.686,4.576,2.686c0.928,0,1.79-0.23,2.586-0.693
		c3.183-1.857,6.366-3.717,9.55-5.57c3.913-2.387,6.864-4.813,8.854-7.262c2.586-3.184,3.879-6.668,3.879-10.445
		c0-4.906-2.752-9.152-8.256-12.729c-1.062-0.465-2.174-0.945-3.333-1.443c-1.161-0.496-1.841-1.242-2.04-2.238
		c3.382-2.32,6.765-4.674,10.147-7.063c3.514-2.918,5.702-6.168,6.565-9.748c0.399-1.725,0.164-3.846-0.694-6.377
		C253.446,256.342,249.235,252.729,242.073,249.014z M241.374,292.893c1.259,1.525,1.89,3.281,1.89,5.271
		c0,0.664-0.066,1.359-0.198,2.09c-0.532,2.387-1.393,4.277-2.588,5.675c-0.664,0.796-1.84,1.706-3.531,2.734
		c-1.691,1.028-2.934,2.006-3.73,2.937c-0.531-1.728-0.795-3.647-0.795-5.771c0-1.459,0.182-3.634,0.547-6.519
		c0.363-2.886,0.547-5.021,0.547-6.416c0-0.791-0.035-1.523-0.1-2.188c0.463-0.199,0.96-0.303,1.492-0.303
		C235.836,290.404,237.992,291.234,241.374,292.893z M244.161,268.023c-1.527,2.188-3.283,3.746-5.273,4.674
		c-0.133,0.068-0.663,0.449-1.592,1.145c-0.929,0.697-1.625,1.045-2.088,1.045c0.065-2.121,0-5.074-0.199-8.854
		c-0.266-4.111-0.398-7.029-0.398-8.754c0-1.26,0.032-2.453,0.099-3.582c0.332-0.131,0.63-0.197,0.896-0.197
		c0.53,0,1.194,0.266,1.989,0.795c1.127,0.664,1.955,1.094,2.487,1.293c3.647,1.328,5.636,3.217,5.968,5.67
		C246.314,263.58,245.685,265.834,244.161,268.023z"/>
	<path d="M270.422,258.779c-0.066-0.133-0.066-0.6,0-1.396c0-0.658-0.1-0.99-0.299-0.99c-0.133,0-0.332,0.1-0.596,0.297
		c-1.261-0.732-2.521-1.098-3.781-1.098c-1.592,0-2.72,0.635-3.382,1.895c0.132,1.658,0.199,3.346,0.199,5.072
		c0,4.445-0.548,11.143-1.642,20.096c-1.094,8.951-1.641,15.68-1.641,20.189c0,2.59,0.13,5.041,0.397,7.361
		c0.265,2.324,1.823,3.547,4.675,3.68c1.99,0.066,3.283-0.832,3.88-2.686c-0.068-1.658-0.1-3.348-0.1-5.072
		c0-4.646,0.464-11.506,1.394-20.592c0.928-9.09,1.393-15.887,1.393-20.396c0-2.055-0.067-4.045-0.199-5.969
		C270.586,259.104,270.486,258.971,270.422,258.779z"/>
	<path d="M298.775,295.568c-4.179-2.452-8.324-4.907-12.435-7.36c1.791-2.783,5.869-7.461,12.235-14.024
		c5.436-5.637,9.085-10.512,10.941-14.623c-0.133-1.793-1.491-2.688-4.078-2.688c-0.93,0-1.791,0.166-2.586,0.498
		c-2.92,3.448-5.87,6.862-8.854,10.246c-3.517,4.045-6.633,7.295-9.352,9.748c0.133-5.302-0.299-12.464-1.293-21.485
		c-0.066-0.798-0.564-1.375-1.492-1.738c-0.93-0.365-1.825-0.679-2.686-0.945c-0.863,0.132-1.691,0.265-2.487,0.396
		c-1.062,0.268-1.527,0.797-1.393,1.592c0.929,5.174,1.393,11.278,1.393,18.308c0,2.323-0.067,5.79-0.198,10.396
		c-0.135,4.611-0.199,8.076-0.199,10.396c0,6.434,0.397,12.039,1.193,16.811c0.263,1.725,1.259,2.883,2.984,3.482
		c0.199,0.463,0.696,0.693,1.492,0.693c0.728,0,1.293-0.131,1.691-0.396c1.393-0.595,2.089-1.69,2.089-3.283
		c0-0.465-0.067-1.226-0.199-2.289c-0.134-1.059-0.198-1.856-0.198-2.387c-0.135-4.576-0.299-8.09-0.498-10.545
		c9.35,5.567,16.247,9.75,20.691,12.534c0.398,0.266,0.762,0.396,1.094,0.396c0.331,0,0.812-0.164,1.442-0.496
		c0.63-0.332,1.144-0.498,1.542-0.498c0.199,0,0.43,0.039,0.695,0.104c0.53-1.588,0.797-2.586,0.797-2.984
		c0-0.598-0.2-1.061-0.598-1.393C307.326,301.314,303.413,298.496,298.775,295.568z"/>
	<path d="M396.756,251.709c1.657-0.398,2.785-1.791,3.383-4.178c0-1.195-0.896-1.791-2.679-1.799
		c0.198-0.994-0.298-1.492-1.492-1.492c-1.591-0.199-3.581,0-5.969,0.596c-3.25,0.867-5.271,1.332-6.067,1.395
		c-2.721,0.734-5.572,1.098-8.556,1.098s-5.638-0.395-7.958-1.19c-2.852,1.534-7.162,2.605-12.932,3.21
		c-6.565,0.604-10.908,1.271-13.031,2.006c-0.463,0.534-0.696,1.037-0.696,1.506c0,0.024,0.062,0.178,0.18,0.454
		c-0.289,0.016-0.559,0.041-0.787,0.087c-3.25,0.795-6.5,1.625-9.75,2.482c-3.715,0.994-6.799,2.123-9.251,3.387
		c-2.123,0.857-4.244,1.725-6.366,2.586c-2.254,1.129-3.417,2.648-3.481,4.576c-0.065,2.057,1.756,3.448,5.472,4.178
		c-0.398,5.766-0.664,8.92-0.796,9.449c-0.135,0.529-0.682,1.045-1.643,1.543c-0.961,0.496-1.477,1.045-1.541,1.641
		c-0.2,1.193,0.629,2.422,2.486,3.682c-0.598,4.58-0.598,9.748,0,15.518c0.199,1.99,1.061,3.779,2.587,5.373
		c1.523,1.594,3.216,2.617,5.073,3.086c5.902,1.525,12.866,2.154,20.891,1.891c1.06-0.066,1.874-0.547,2.437-1.443
		c0.567-0.895,0.746-1.871,0.55-2.934c-0.6-3.188-1.828-4.577-3.684-4.182c-0.396,0-0.891,0.248-1.491,0.746
		c-0.593,0.498-1.159,0.746-1.688,0.746c-7.693,0.332-13.1-0.597-16.214-2.785c-0.532-1.127-0.796-2.648-0.796-4.572
		c0-2.855,0.627-6.734,1.891-11.643c1.856-0.725,4.342-1.127,7.46-1.189c3.714-0.07,6.264-0.27,7.659-0.602
		c0.797,0.066,1.459-0.199,1.988-0.795c0.795-0.861,1.262-1.326,1.395-1.393c0.463-0.266,0.697-0.631,0.697-1.096
		c0-0.398-0.466-1.258-1.396-2.586c-1.326-0.795-2.917-1.193-4.771-1.193c-0.995,0-2.558,0.166-4.678,0.498
		c-2.123,0.332-3.682,0.496-4.677,0.496c-1.393,0-2.619-0.2-3.68-0.596c0.264-5.973,0.695-9.814,1.293-11.539
		c2.452-0.996,6.069-2.154,10.842-3.482c4.779-1.326,8.39-2.486,10.844-3.482c0.463-0.33,0.696-0.762,0.693-1.293
		c0-0.102-0.017-0.23-0.042-0.371c0.47,0.041,0.948,0.068,1.446,0.068c1.393,0,3.913-0.264,7.561-0.795
		c3.185-0.463,5.67-0.629,7.461-0.498c0.065,4.773-0.198,11.705-0.796,20.791c-0.597,9.48-0.896,16.414-0.896,20.791
		c0,2.723,0.062,5.311,0.199,7.758c0.131,1.93,0.827,3.664,2.088,5.227c1.256,1.559,2.848,2.375,4.771,2.438
		c0.995,0.07,1.657-0.429,1.99-1.492c0.196-0.664,0.26-1.625,0.196-2.885c-0.134-4.043-0.196-8.156-0.196-12.334
		c0-11.008,0.662-24.77,1.987-41.283C384.951,254.162,392.443,252.77,396.756,251.709z"/>
	<path d="M412.375,266.034c-0.332-2.718-0.698-5.437-1.094-8.156c-0.532-3.185-1.728-5.571-3.581-7.164
		c-0.73-0.596-1.56-0.896-2.487-0.896c-1.257,0-2.089,0.466-2.486,1.394c-1.722,4.179-3.68,10.183-5.867,18.006
		c-2.586,9.021-4.479,15.189-5.67,18.503c-0.137,0.465-0.746,0.815-1.843,1.045c-1.095,0.234-1.791,0.533-2.089,0.896
		c-0.299,0.361-0.446,0.715-0.446,1.045c0,0.395,0.464,0.959,1.395,1.688c0.928,0.73,1.356,1.393,1.294,1.99
		c-0.199,2.055-1.294,5.504-3.283,10.346c-1.659,4.244-2.386,7.625-2.188,10.146c0.126,1.255,1.291,2.254,3.479,2.984
		c1.727,0.525,2.854,0.193,3.384-0.996c1.058-2.521,2.153-6.201,3.281-11.041c1.196-5.238,2.157-8.887,2.886-10.943
		c1.457-1.258,3.48-2.055,6.067-2.387c2.254-0.202,4.509-0.398,6.765-0.598c1.262,3.383,2.353,7.596,3.282,12.635
		c0.861,4.639,2.918,7.258,6.168,7.854c0.397,0.066,1.159-0.396,2.288-1.393c1.126-0.994,1.69-2.154,1.69-3.48
		c0-0.797-0.202-1.721-0.601-2.781C419.138,294.582,415.688,281.686,412.375,266.034z M399.835,286.027
		c1.458-5.504,3.187-11.008,5.173-16.512c0.601,2.648,1.23,5.307,1.895,7.957c0.662,3.051,1.094,5.805,1.293,8.258
		C403.686,285.73,400.898,285.828,399.835,286.027z"/>
	<path d="M459.13,277.77c-1.592,0.133-2.123,0.199-1.592,0.199c-1.728,0-2.919,0.93-3.581,2.785
		c-0.862,2.521-1.626,4.045-2.288,4.576c-8.82,7.361-15.419,11.904-19.796,13.627c-0.464,0.199-0.829,0.018-1.094-0.547
		c-0.27-0.563-0.466-0.877-0.601-0.945c-0.067-0.859-0.1-1.723-0.1-2.586c0-4.773,1.423-10.18,4.277-16.215
		c4.638-9.748,9.749-17.707,15.315-23.873c0.132-0.133,1.362-0.828,3.685-2.09c1.389-0.729,1.954-1.922,1.688-3.58
		c-0.333-1.99-1.829-2.984-4.477-2.984c-2.984,0-6.4,2.553-10.246,7.658c-7.696,10.281-13.295,20.791-16.813,31.535
		c-1.125,3.381-1.688,6.334-1.688,8.854c0,2.852,0.729,5.238,2.188,7.162c2.587,3.449,5.404,5.172,8.456,5.172
		c0.796,0,1.591-0.129,2.39-0.396c5.771-2.123,10.943-5.336,15.52-9.649c-0.397,3.846-0.73,6.731-0.995,8.653
		c0,0.863-0.131,2.238-0.396,4.129c-0.266,1.892-0.397,3.296-0.397,4.229c0,3.248,1.423,5.471,4.277,6.664
		c0.526,0.195,1.091,0.299,1.688,0.299c2.056,0,3.149-0.83,3.283-2.488c0.264-5.637,0.566-11.273,0.896-16.91
		c0.529-6.498,1.69-11.971,3.481-16.414c0.265-0.662,0.397-1.293,0.405-1.891c0-1.195-0.632-2.719-1.894-4.576
		C460.456,277.77,459.926,277.637,459.13,277.77z"/>
	<path d="M216.503,153.175c-2.244-1.309-4.208-1.963-5.891-1.963c-0.437,0-0.811,0.032-1.122,0.093
		c-3.055,0.748-6.078,1.528-9.069,2.337c-3.491,0.935-6.42,1.996-8.789,3.179c-1.996,0.811-3.99,1.622-5.984,2.431
		c-2.12,1.061-3.211,2.494-3.272,4.301c-0.063,1.933,1.651,3.242,5.143,3.927c-0.374,5.423-0.624,8.384-0.748,8.882
		c-0.125,0.5-0.64,0.981-1.542,1.449c-0.904,0.467-1.388,0.981-1.449,1.542c-0.187,1.122,0.591,2.276,2.337,3.459
		c-0.561,4.301-0.561,9.163,0,14.585c0.187,1.87,0.996,3.553,2.431,5.049c1.433,1.496,3.022,2.461,4.769,2.898
		c5.547,1.433,12.091,2.024,19.634,1.776c0.997-0.063,1.761-0.514,2.291-1.356c0.529-0.841,0.701-1.76,0.514-2.758
		c-0.561-2.992-1.715-4.301-3.459-3.927c-0.374,0-0.841,0.233-1.402,0.701c-0.561,0.467-1.091,0.701-1.589,0.701
		c-7.231,0.313-12.311-0.561-15.24-2.618c-0.5-1.059-0.748-2.492-0.748-4.301c0-2.679,0.591-6.326,1.776-10.939
		c1.744-0.685,4.082-1.059,7.012-1.122c3.49-0.061,5.89-0.248,7.199-0.561c0.748,0.063,1.37-0.187,1.87-0.748
		c0.748-0.81,1.184-1.247,1.309-1.309c0.436-0.249,0.654-0.592,0.654-1.028c0-0.374-0.437-1.184-1.309-2.431
		c-1.248-0.748-2.744-1.122-4.488-1.122c-0.935,0-2.4,0.156-4.395,0.468c-1.996,0.313-3.459,0.467-4.395,0.467
		c-1.309,0-2.463-0.187-3.459-0.561c0.248-5.61,0.654-9.224,1.215-10.846c2.305-0.935,5.703-2.024,10.191-3.272
		c4.488-1.246,7.884-2.337,10.191-3.272c0.435-0.311,0.654-0.716,0.654-1.215c0-0.312-0.125-0.81-0.374-1.496
		C216.721,153.893,216.564,153.425,216.503,153.175z"/>
	<path d="M221.552,170.565c0,3.055-0.125,7.605-0.374,13.65c-0.25,6.047-0.374,10.597-0.374,13.65c0,2.992,0.093,5.797,0.28,8.415
		c0.249,0.561,0.669,0.965,1.262,1.215c0.592,0.248,1.137,0.467,1.636,0.654c0.499,0.187,0.935,0.281,1.309,0.281
		c0.748,0,1.496-0.406,2.244-1.216c0.748-0.811,1.433-1.589,2.057-2.337c1.87-1.122,3.958-3.116,6.264-5.983
		c1.932-2.368,3.864-4.769,5.797-7.199c0.872-0.997,1.683-2.337,2.431-4.021c0.561-1.433,1.152-2.866,1.776-4.301
		c0.809-1.807,1.215-3.708,1.215-5.703c0-3.864-1.496-8.009-4.488-12.435c-0.935-1.371-2.15-2.679-3.646-3.927
		c-5.735-4.736-11.219-7.667-16.455-8.789c-0.811,0.063-1.622,0.156-2.431,0.281c-1.061,0.125-1.746,0.561-2.057,1.309
		c-0.126,0.313-0.187,0.624-0.187,0.935c0,0.687,0.404,1.435,1.215,2.244c1.309,1.372,1.994,2.089,2.057,2.15
		C221.396,162.805,221.552,166.515,221.552,170.565z M229.125,162.992c6.108,2.992,9.443,6.451,10.004,10.378
		c0.124,0.874,0.187,1.746,0.187,2.618c0,6.358-3.522,13.059-10.565,20.102C228.564,184.435,228.688,173.402,229.125,162.992z"/>
	<path d="M279.986,200.017c0.249-0.435,0.935-2.181,2.057-5.236c1.87-5.547,3.21-9.723,4.021-12.528
		c0.311,1.683,0.529,4.769,0.655,9.256c0.124,3.989,0.498,7.075,1.122,9.256c0.685,2.37,1.62,4.082,2.805,5.143
		c1.433,1.246,2.835,1.837,4.207,1.776c2.057-0.126,2.96-0.811,2.711-2.057c-1.87-8.913-3.085-19.945-3.646-33.098
		c-0.063-1.62-0.063-3.74,0-6.358c0.125-3.116,0.187-5.142,0.187-6.077c0-2.929-0.219-5.516-0.654-7.76
		c-0.313-1.496-1.622-2.244-3.927-2.244c-1.622,0-2.557,0.5-2.805,1.496c-1.622,9.662-5.423,22.813-11.407,39.455
		c-1.809-2.555-3.055-5.827-3.74-9.817c-0.5-3.553-1.029-7.074-1.589-10.565c0-2.057-0.297-5.096-0.889-9.116
		c-0.593-4.02-0.888-6.933-0.888-8.742c-0.811-0.81-2.276-1.215-4.394-1.215c-0.811,0-1.372,0.437-1.683,1.309
		c-0.5,1.185-0.811,1.839-0.935,1.963c-1.435,11.283-2.805,19.167-4.114,23.655c-3.803,12.902-5.983,20.102-6.544,21.598
		c-1.309,3.429-1.963,5.423-1.963,5.984c0,1.62,0.903,2.866,2.711,3.74c2.181,1.059,3.49,1.122,3.927,0.187
		c3.053-6.419,5.921-16.143,8.602-29.171c0.685,1.435,1.526,4.239,2.524,8.415c0.935,3.803,1.931,6.577,2.992,8.321
		c1.62,2.681,3.927,4.364,6.919,5.049C277.742,202.822,278.988,201.95,279.986,200.017z"/>
	<path d="M315.888,198.895c0.81,0,1.62-0.094,2.431-0.281c6.732-1.557,11.935-6.482,15.613-14.772
		c0.623-1.37,0.936-2.898,0.936-4.581c0-2.992-1.092-6.576-3.271-10.752c-1.248-2.368-3.367-4.051-6.357-5.049
		c-3.804-1.247-6.141-2.244-7.013-2.992c-0.874-0.748-1.809-1.122-2.805-1.122c-1.746,0-3.585,0.967-5.517,2.898
		c-1.683,1.622-3.117,3.553-4.301,5.797c-2.744,5.299-4.114,10.254-4.114,14.866c0,4.177,1.215,7.573,3.646,10.191
		C308.75,196.963,312.335,198.895,315.888,198.895z M312.335,172.903c0.124-0.124,0.28-0.187,0.467-0.187
		c0.249,0,0.779,0.281,1.589,0.841c0.81,0.561,1.433,0.748,1.87,0.561c0.685-0.248,1.651-1.09,2.898-2.524
		c1.122-1.246,2.057-1.87,2.805-1.87c0.248,0,0.529,0.063,0.842,0.187c1.994,0.874,3.209,3.585,3.646,8.134
		c0.311,2.805-0.748,5.829-3.18,9.069c-2.556,3.429-5.205,5.142-7.947,5.142c-1.185,0-2.65-1.276-4.394-3.833
		c-1.248-1.87-1.87-4.145-1.87-6.825C309.063,177.671,310.152,174.773,312.335,172.903z"/>
	<path d="M339.822,211.236c0.187,1.246,0.685,1.994,1.496,2.244c0.248,0.124,0.841,0.404,1.776,0.841
		c0.685,0.374,1.246,0.561,1.683,0.561c0.498,0,0.966-0.219,1.402-0.655c1.122-0.687,1.651-1.933,1.59-3.74
		c-0.25-4.924-0.374-9.754-0.374-14.492c0-9.848,0.528-19.228,1.589-28.143c0.124-0.872,0.405-1.309,0.842-1.309
		c0.187,0,0.342,0.187,0.468,0.561c5.921,16.643,10.876,28.86,14.865,36.651c1.31,2.618,2.93,3.927,4.862,3.927
		c0.996,0,1.885-0.374,2.664-1.122s1.137-1.622,1.075-2.618c-0.125-2.119-0.187-4.269-0.187-6.452c0-6.669,0.529-14.99,1.59-24.963
		c0.574-5.975,1.186-11.915,1.793-17.858c1.549,0.743,3.346,1.123,5.404,1.123c1.309,0,3.677-0.248,7.105-0.748
		c2.992-0.435,5.329-0.591,7.013-0.467c0.062,4.488-0.188,11.002-0.748,19.541c-0.562,8.915-0.842,15.427-0.842,19.541
		c0,2.556,0.062,4.987,0.188,7.292c0.124,1.809,0.778,3.443,1.963,4.909c1.184,1.464,2.68,2.228,4.488,2.291
		c0.935,0.062,1.557-0.406,1.87-1.402c0.187-0.624,0.248-1.528,0.187-2.711c-0.126-3.801-0.187-7.667-0.187-11.594
		c0-10.346,0.622-23.28,1.869-38.801c10.035-1.62,17.078-2.929,21.131-3.927c1.557-0.374,2.617-1.683,3.179-3.927
		c0-1.122-0.842-1.683-2.524-1.683c0.187-0.935-0.28-1.402-1.402-1.402c-1.496-0.187-3.366,0-5.61,0.561
		c-3.055,0.811-4.955,1.248-5.703,1.309c-2.557,0.687-5.235,1.028-8.041,1.028c-2.805,0-5.298-0.374-7.479-1.122
		c-2.681,1.446-6.731,2.451-12.154,3.017c-3.844,0.353-6.876,0.73-9.099,1.131c0.043-0.415,0.082-0.834,0.125-1.25
		c-0.188-0.623-0.594-1.059-1.216-1.309c-0.188-0.061-0.78-0.218-1.776-0.467c-0.748-0.187-1.402-0.281-1.964-0.281
		c-1.621,0-2.524,0.624-2.711,1.87c-1.996,16.768-3.46,29.296-4.395,37.585c-2.307-4.238-4.861-10.439-7.667-18.606
		c-2.93-8.539-5.392-14.709-7.386-18.512c-2.057-1.683-3.616-2.461-4.675-2.337c-2.244,0-3.398,0.687-3.459,2.057
		c-0.126,1.622-0.78,9.974-1.964,25.057c-0.748,9.911-1.122,18.17-1.122,24.776c0,3.803,0.094,7.448,0.28,10.939
		C339.696,209.21,339.759,210.239,339.822,211.236z"/>
	<path d="M420.508,168.041c-2.743,5.299-4.113,10.254-4.113,14.866c0,4.177,1.215,7.573,3.646,10.191
		c3.614,3.865,7.199,5.797,10.753,5.797c0.809,0,1.62-0.094,2.431-0.281c6.731-1.557,11.936-6.482,15.613-14.772
		c0.623-1.37,0.936-2.898,0.936-4.581c0-2.992-1.092-6.576-3.272-10.752c-1.248-2.368-3.366-4.051-6.357-5.049
		c-3.803-1.247-6.141-2.244-7.013-2.992c-0.874-0.748-1.809-1.122-2.805-1.122c-1.746,0-3.585,0.967-5.517,2.898
		C423.126,163.866,421.691,165.797,420.508,168.041z M427.239,172.903c0.125-0.124,0.281-0.187,0.468-0.187
		c0.248,0,0.778,0.281,1.59,0.841c0.809,0.561,1.433,0.748,1.869,0.561c0.686-0.248,1.651-1.09,2.898-2.524
		c1.122-1.246,2.058-1.87,2.806-1.87c0.248,0,0.528,0.063,0.841,0.187c1.994,0.874,3.21,3.585,3.646,8.134
		c0.312,2.805-0.748,5.829-3.179,9.069c-2.557,3.429-5.205,5.142-7.947,5.142c-1.185,0-2.65-1.276-4.395-3.833
		c-1.247-1.87-1.87-4.145-1.87-6.825C423.967,177.671,425.057,174.773,427.239,172.903z"/>
	<path d="M491.377,146.069c-0.188-0.061-0.78-0.218-1.776-0.467c-0.748-0.187-1.402-0.281-1.964-0.281
		c-1.621,0-2.524,0.624-2.711,1.87c-1.996,16.768-3.46,29.296-4.395,37.585c-2.307-4.238-4.861-10.439-7.667-18.606
		c-2.93-8.539-5.392-14.709-7.386-18.512c-2.057-1.683-3.616-2.461-4.675-2.337c-2.244,0-3.398,0.687-3.459,2.057
		c-0.126,1.622-0.78,9.974-1.964,25.057c-0.748,9.911-1.122,18.17-1.122,24.776c0,3.803,0.094,7.448,0.28,10.939
		c0.062,1.059,0.124,2.088,0.188,3.085c0.187,1.246,0.685,1.994,1.496,2.244c0.248,0.124,0.841,0.404,1.776,0.841
		c0.685,0.374,1.246,0.561,1.683,0.561c0.498,0,0.966-0.219,1.402-0.655c1.122-0.687,1.651-1.933,1.59-3.74
		c-0.25-4.924-0.374-9.754-0.374-14.492c0-9.848,0.528-19.228,1.589-28.143c0.124-0.872,0.405-1.309,0.842-1.309
		c0.187,0,0.342,0.187,0.468,0.561c5.921,16.643,10.876,28.86,14.865,36.651c1.31,2.618,2.93,3.927,4.862,3.927
		c0.996,0,1.885-0.374,2.664-1.122s1.137-1.622,1.075-2.618c-0.125-2.119-0.187-4.269-0.187-6.452c0-6.669,0.529-14.99,1.59-24.963
		c0.809-8.415,1.65-16.797,2.524-25.15C492.405,146.756,491.999,146.319,491.377,146.069z"/>
</g>
</svg>
