<?xml version="1.0" encoding="utf-8"?>
<!-- Generator: Adobe Illustrator 16.0.0, SVG Export Plug-In . SVG Version: 6.00 Build 0)  -->
<!DOCTYPE svg PUBLIC "-//W3C//DTD SVG 1.1//EN" "http://www.w3.org/Graphics/SVG/1.1/DTD/svg11.dtd">
<svg version="1.1" id="Layer_1" xmlns="http://www.w3.org/2000/svg" xmlns:xlink="http://www.w3.org/1999/xlink" x="0px" y="0px"
	 width="646px" height="449px" viewBox="0 0 646 449" enable-background="new 0 0 646 449" xml:space="preserve">
<path fill="none" d="M194.385,96.585c32.934,0.029,65.865,0.5,98.793,1.152c65.239,1.29,130.474,3.149,195.73,3.188
	c6.011-0.094,12.81-0.541,19.331,0.004c-17.84-5.56-38.318-3.133-56.538-3.18c-14.036-0.037-28.111-1.992-42.124-2.842
	c-16.351-0.991-32.708-1.756-49.06-2.735c-29.884-1.79-59.587-4.878-89.557-5.399c-15.119-0.263-30.254-0.174-45.359,0.581
	c-14.566,0.728-30.039,1.09-44.268,4.567c-4.772,1.165-9.457,2.79-13.77,5.048C176.524,95.897,185.998,96.579,194.385,96.585z"/>
<path fill="none" d="M146.17,123.131c0.839-1.358,1.773-2.681,2.817-3.957c6.441-7.879,15.174-13.149,24.862-16.108
	c7.198-2.199,14.55-3.549,21.981-4.302c-4.146-0.015-8.291-0.037-12.437-0.044c-7.161-0.014-14.767,0.188-21.593,1.834
	c-2.521,1.867-4.833,4.034-6.854,6.558C151.091,111.927,148.288,117.389,146.17,123.131z"/>
<path fill="none" d="M135.797,214.905c-4.113-0.436-5.645,3.624-6.384,7.315c-1.024,5.098-3.34,17.897,1.878,21.149
	c4.33,2.697,6.748-0.244,8.161-4.434c0.253-4.584,0.694-9.154,0.561-13.754C139.913,221.613,140.284,215.379,135.797,214.905z"/>
<path fill="none" d="M109.169,253.748c-0.205-0.66-0.398-1.32-0.582-1.984c0.894,6.045,2.332,11.949,4.395,17.266
	c4.021,10.367,10.772,18.855,18.011,27.15c2.248,2.574,4.499,5.172,6.68,7.824c-4.554-8.793-10.14-16.913-15.567-25.184
	C116.951,270.965,111.974,262.781,109.169,253.748z"/>
<path fill="none" d="M158.028,101.652c-8.022,2.765-14.501,8.099-17.108,18.355c-1.54,6.057-1.86,12.213-1.901,18.396
	c0.668-2.809,1.376-5.603,2.176-8.372C144.448,118.768,149.8,108.84,158.028,101.652z"/>
<path fill="none" d="M129.917,185.561c-1.645,2.687-3.561,5.245-5.559,7.753c0.254-0.299,0.509-0.595,0.761-0.898
	C126.979,190.188,128.555,187.902,129.917,185.561z"/>
<path fill="none" d="M302.006,356.982c-16.433-0.228-32.742-0.226-49.15-1.424c-15.524-1.135-31.074-3.297-46.634-3.771
	c-15.958-0.486-36.144,2.738-48.348-10.197c-5.474-5.8-8.446-13.047-11.948-20.029c0.67,5.055,0.98,10.219,1.584,15.617
	c0.657,5.877,1.696,11.994,5.652,16.65c4.589,5.406,10.825,6.66,17.638,6.352c30.201-1.344,60.609,0.609,90.825,1.764
	c16.565,0.631,33.127,1.336,49.681,2.193c16.896,0.879,33.767,2.283,50.694,2.32c23.436,0.051,46.807-1.477,70.195-2.716
	c-10.847-0.062-21.688-0.441-32.518-1.046C367.122,360.879,334.629,357.427,302.006,356.982z"/>
<path fill="none" d="M479.49,362.459c7.023,0.074,14.052,0.17,21.078,0.027c7.95-0.16,16.773-1.031,23.386-5.928
	c0.483-0.359,0.949-0.734,1.401-1.115C512.074,363.262,494.303,362.457,479.49,362.459z"/>
<path fill="none" d="M537.05,194.18c0.364-16.256,0.831-32.631-0.802-48.837c-0.926-9.19-1.801-19.68-6.119-28.194
	c1.537,5.031,1.958,10.492,1.986,15.652c0.059,10.519-1.269,20.949-2.404,31.387c-1.366,12.515-1.162,24.8-0.013,37.346
	c1.416,15.466,3.692,30.88,4.436,46.401c0.692,14.408,0.031,28.744,1.146,43.152c1.04,13.422,2.552,27.047,1.466,40.514
	c-0.011,0.133-0.022,0.266-0.033,0.398c2.216-13.338,1.84-27.242,1.817-40.693C538.485,258.904,536.322,226.589,537.05,194.18z"/>
<path fill="none" d="M530.433,237.454c-1.389-15.415-3.675-30.768-4.438-46.236c-0.529-10.727,0.202-21.001,1.39-31.65
	c1.762-15.71,6.63-42.061-7.843-53.33c-8.601-4.253-19.702-3.39-29.505-3.167c-0.1,0.018-0.209,0.029-0.322,0.029
	c-0.369,0-0.734-0.002-1.104-0.002c-0.566,0.008-1.121,0.015-1.674,0.016c-0.11,0-0.204-0.008-0.301-0.021
	c-4.95-0.004-9.901-0.011-14.852-0.036c-40.583-0.208-81.159-1.052-121.729-1.938c-0.397,0.242-0.88,0.43-1.229,0.43
	c-30.554,0.062-61.337,3.747-91.843,1.113c-27.045-2.336-56.283-6.951-82.783,1.716c-12.716,4.16-24.018,12.665-28.753,25.6
	c-4.473,12.216-3.613,25.22-6.056,37.828c-2.345,12.105-7.962,20.755-16.154,29.718c-5.559,6.082-10.326,12.262-13.077,19.549
	c-1.932,11.067-1.925,22.782,1.206,33.567c5.782,19.906,20.708,35.041,29.655,53.408c1.409,2.893,2.427,5.77,3.199,8.654
	c1.867,2.771,3.588,5.637,5.043,8.67c4.61,9.607,8.945,20.08,19.223,24.908c8.333,3.914,17.66,3.844,26.679,3.846
	c12.574,0.002,24.957,0.998,37.479,2.107c16.945,1.502,33.929,3.039,50.951,3.189c16.319,0.152,32.568,0.207,48.873,1.146
	c32.55,1.877,65.047,5.307,97.671,5.631c13.401,0.133,26.692-0.916,40.065-1.199c9.036-0.193,18.081,0.113,27.102-0.404
	c9.146-0.518,20.348-1.225,27.962-6.943c8.928-6.701,8.875-19.33,8.887-29.528c0.017-14.165-1.716-28.224-2.46-42.353
	C530.912,266.98,531.772,252.245,530.433,237.454z M145.286,230.389c-0.248,2.137-0.848,6.553-2.011,10.825
	c-0.081,1.367-0.144,2.724-0.17,4.052c-0.041,2.207-0.925,2.325-1.83,1.56c-2.198,4.61-5.466,7.221-10.25,2.918
	c-7.523-6.771-7.336-19.552-5.703-29.103c0.675-3.914,1.856-10.618,5.954-12.175c4.022-1.53,8.336,0.812,10.126,4.859
	c1.84,4.154,2.456,8.666,2.548,13.275C144.768,227.534,145.434,229.122,145.286,230.389z"/>
<path fill="none" d="M235.437,99.039c5.218,0.422,10.41,0.924,15.549,1.426c24.71,2.414,49.415,1.002,74.146,0.113
	c-16.623-0.36-33.247-0.705-49.872-0.996C261.986,99.35,248.711,99.176,235.437,99.039z"/>
<path d="M541.412,281.197c-0.174-16.508-0.813-33.008-1.442-49.504c-0.604-15.745-0.073-31.479,0.225-47.219
	c0.28-15.145,0.015-30.211-1.612-45.277c-1.021-9.421-2.869-19.451-8.261-27.447c-2.537-3.762-5.851-6.271-9.604-7.939
	c-5.593-3.609-13.037-5.111-19.144-6.127c-21.427-3.566-43.437-0.631-65.012-2.461c-31.962-2.711-64.044-3.524-96.003-6.26
	c-29.436-2.52-58.978-4.025-88.521-3.828c-14.449,0.097-28.892,0.701-43.293,1.871c-11.939,0.97-24.062,1.945-35.457,5.859
	c-3.611,1.24-6.875,2.848-9.852,4.74c-5.789,1.107-11.247,3.143-15.907,6.816c-14.188,11.188-11.68,32.167-11.801,49.617
	c-1.071,5.57-2.1,11.146-3.255,16.67c-0.95,4.544-2.335,8.508-4.238,12.297c-2.706,4.252-6.043,8.166-9.815,11.896
	c-6.511,6.438-9.625,13.736-11.188,22.462c-0.314,0.828-0.612,1.67-0.875,2.544c-3.82,12.708-1.345,27.422,0.991,40.168
	c1.959,10.688,7.187,20.17,13.779,28.668c6.423,8.278,13.894,15.657,19.885,24.284c0.183,0.265,0.352,0.531,0.529,0.8
	c2.297,8.705,2.213,17.713,3.409,26.896c1.216,9.352,6.129,18.928,16.146,20.969c4.954,1.01,9.942,0.691,14.95,0.322
	c7.849-0.578,15.658-0.195,23.517,0.039c32.945,1.004,65.889,2.08,98.813,3.646c32.2,1.523,64.014,3.557,96.271,2.191
	c31.983-1.348,63.924-4.098,95.964-3.439c14.982,0.307,31.569,0.453,41.521-12.723c5.229-6.922,7.127-15.938,8.163-24.355
	C542.157,312.193,541.573,296.459,541.412,281.197z M181.334,91.921c14.229-3.477,29.702-3.839,44.268-4.567
	c15.105-0.755,30.24-0.844,45.359-0.581c29.969,0.521,59.673,3.609,89.557,5.399c16.352,0.979,32.709,1.744,49.06,2.735
	c14.013,0.85,28.088,2.805,42.124,2.842c18.22,0.047,38.698-2.38,56.538,3.18c-6.521-0.545-13.32-0.098-19.331-0.004
	c-65.257-0.039-130.491-1.898-195.73-3.188c-32.928-0.652-65.859-1.123-98.793-1.152c-8.387-0.006-17.861-0.688-26.821,0.384
	C171.877,94.711,176.562,93.086,181.334,91.921z M325.132,100.578c-24.731,0.889-49.436,2.301-74.146-0.113
	c-5.139-0.502-10.331-1.004-15.549-1.426c13.274,0.137,26.549,0.311,39.823,0.543C291.885,99.873,308.509,100.218,325.132,100.578z
	 M161.8,100.554c6.826-1.646,14.432-1.848,21.593-1.834c4.146,0.007,8.291,0.029,12.437,0.044
	c-7.431,0.753-14.783,2.103-21.981,4.302c-9.688,2.959-18.421,8.229-24.862,16.108c-1.044,1.276-1.978,2.599-2.817,3.957
	c2.118-5.742,4.921-11.204,8.776-16.019C156.967,104.588,159.279,102.421,161.8,100.554z M140.92,120.007
	c2.607-10.256,9.086-15.59,17.108-18.355c-8.228,7.188-13.58,17.116-16.833,28.379c-0.8,2.769-1.508,5.563-2.176,8.372
	C139.06,132.22,139.38,126.064,140.92,120.007z M129.917,185.561c-1.362,2.341-2.938,4.627-4.798,6.855
	c-0.252,0.303-0.507,0.599-0.761,0.898C126.356,190.806,128.272,188.248,129.917,185.561z M130.993,296.18
	c-7.239-8.295-13.99-16.783-18.011-27.15c-2.063-5.316-3.501-11.221-4.395-17.266c0.184,0.664,0.377,1.324,0.582,1.984
	c2.805,9.033,7.782,17.217,12.937,25.072c5.427,8.271,11.013,16.391,15.567,25.184C135.492,301.352,133.241,298.754,130.993,296.18z
	 M362,366.457c-16.928-0.037-33.798-1.441-50.694-2.32c-16.554-0.857-33.116-1.563-49.681-2.193
	c-30.216-1.154-60.624-3.107-90.825-1.764c-6.813,0.309-13.049-0.945-17.638-6.352c-3.956-4.656-4.995-10.773-5.652-16.65
	c-0.604-5.398-0.914-10.563-1.584-15.617c3.502,6.982,6.474,14.229,11.948,20.029c12.204,12.936,32.39,9.711,48.348,10.197
	c15.56,0.475,31.11,2.637,46.634,3.771c16.408,1.198,32.717,1.196,49.15,1.424c32.623,0.444,65.116,3.896,97.672,5.713
	c10.829,0.604,21.671,0.984,32.518,1.046C408.807,364.98,385.436,366.508,362,366.457z M523.954,356.559
	c-6.612,4.896-15.436,5.768-23.386,5.928c-7.026,0.143-14.055,0.047-21.078-0.027c14.813-0.002,32.584,0.803,45.865-7.016
	C524.903,355.824,524.438,356.199,523.954,356.559z M525.268,353.654c-7.614,5.719-18.815,6.426-27.962,6.943
	c-9.021,0.518-18.065,0.211-27.102,0.404c-13.373,0.283-26.664,1.332-40.065,1.199c-32.624-0.324-65.121-3.754-97.671-5.631
	c-16.305-0.939-32.554-0.994-48.873-1.146c-17.022-0.15-34.006-1.688-50.951-3.189c-12.522-1.109-24.905-2.105-37.479-2.107
	c-9.019-0.002-18.346,0.068-26.679-3.846c-10.278-4.828-14.613-15.301-19.223-24.908c-1.455-3.033-3.176-5.898-5.043-8.67
	c-0.772-2.885-1.79-5.762-3.199-8.654c-8.947-18.367-23.873-33.502-29.655-53.408c-3.131-10.785-3.138-22.5-1.206-33.567
	c2.751-7.287,7.518-13.467,13.077-19.549c8.192-8.963,13.809-17.613,16.154-29.718c2.443-12.608,1.583-25.612,6.056-37.828
	c4.735-12.935,16.037-21.44,28.753-25.6c26.5-8.667,55.738-4.052,82.783-1.716c30.506,2.634,61.29-1.051,91.843-1.113
	c0.35,0,0.832-0.188,1.229-0.43c40.57,0.886,81.146,1.73,121.729,1.938c4.95,0.025,9.901,0.032,14.852,0.036
	c0.097,0.013,0.19,0.021,0.301,0.021c0.553-0.001,1.107-0.008,1.674-0.016c0.369,0,0.734,0.002,1.104,0.002
	c0.113,0,0.223-0.011,0.322-0.029c9.803-0.223,20.904-1.086,29.505,3.167c14.473,11.269,9.604,37.62,7.843,53.33
	c-1.188,10.649-1.919,20.923-1.39,31.65c0.763,15.468,3.049,30.821,4.438,46.236c1.34,14.791,0.479,29.526,1.262,44.319
	c0.744,14.129,2.477,28.188,2.46,42.353C534.143,334.324,534.195,346.953,525.268,353.654z M536.713,332
	c0.011-0.133,0.022-0.266,0.033-0.398c1.086-13.467-0.426-27.092-1.466-40.514c-1.115-14.408-0.454-28.744-1.146-43.152
	c-0.743-15.521-3.02-30.936-4.436-46.401c-1.149-12.546-1.354-24.831,0.013-37.346c1.136-10.438,2.463-20.868,2.404-31.387
	c-0.028-5.16-0.449-10.621-1.986-15.652c4.318,8.514,5.193,19.004,6.119,28.194c1.633,16.206,1.166,32.581,0.802,48.837
	c-0.728,32.409,1.436,64.724,1.48,97.126C538.553,304.758,538.929,318.662,536.713,332z"/>
<path d="M141.402,213.324c-1.79-4.047-6.104-6.389-10.126-4.859c-4.098,1.557-5.279,8.261-5.954,12.175
	c-1.633,9.551-1.82,22.333,5.703,29.103c4.784,4.303,8.052,1.692,10.25-2.918c0.905,0.766,1.789,0.647,1.83-1.56
	c0.026-1.328,0.089-2.685,0.17-4.052c1.163-4.272,1.763-8.688,2.011-10.825c0.148-1.267-0.518-2.854-1.336-3.789
	C143.858,221.99,143.242,217.478,141.402,213.324z M139.452,238.936c-1.413,4.189-3.831,7.131-8.161,4.434
	c-5.218-3.252-2.902-16.051-1.878-21.149c0.739-3.691,2.271-7.751,6.384-7.315c4.487,0.474,4.116,6.708,4.216,10.277
	C140.146,229.781,139.705,234.352,139.452,238.936z"/>
<g>
	<path d="M265.531,270.505c-0.76,3.152-2.686,6.015-5.781,8.584c-2.978,2.104-5.957,4.176-8.935,6.219
		c0.176,0.877,0.774,1.534,1.796,1.971c1.021,0.438,2,0.862,2.935,1.271c4.847,3.148,7.27,6.888,7.27,11.208
		c0,3.326-1.138,6.395-3.416,9.197c-1.752,2.157-4.351,4.293-7.796,6.395c-2.804,1.633-5.606,3.27-8.409,4.905
		c-0.701,0.407-1.46,0.61-2.277,0.61c-1.927,0-3.272-0.789-4.03-2.364c0.116-4.907,0.232-9.783,0.351-14.629
		c0.116-5.839,0.438-10.656,0.963-14.454c-1.226-0.816-1.839-1.751-1.839-2.803c0-0.525,0.219-1.009,0.657-1.446
		c0.438-0.438,1.036-0.922,1.796-1.447c0.701-8.876,0.845-17.052,0.438-24.526c-2.746-0.528-4.555-1.753-5.431-3.683
		c-0.059-0.233,0.044-0.583,0.306-1.049c0.264-0.464,0.395-0.847,0.395-1.139c1.343-0.993,2.832-1.487,4.467-1.487
		c1.168,0,3.854,0.383,8.059,1.139c2.16,0.349,4.408,1.14,6.745,2.366c6.307,3.271,10.015,6.453,11.125,9.547
		C265.676,267.118,265.883,268.986,265.531,270.505z M254.67,300.463c0.116-0.644,0.174-1.256,0.174-1.84
		c0-1.753-0.556-3.299-1.665-4.643c-2.978-1.46-4.876-2.19-5.693-2.19c-0.469,0-0.906,0.091-1.314,0.267
		c0.057,0.584,0.088,1.229,0.088,1.926c0,1.229-0.162,3.108-0.482,5.649c-0.321,2.541-0.481,4.456-0.481,5.74
		c0,1.87,0.233,3.561,0.7,5.081c0.701-0.819,1.795-1.68,3.284-2.585c1.49-0.906,2.525-1.707,3.11-2.408
		C253.443,304.229,254.202,302.564,254.67,300.463z M257.297,266.125c-0.292-2.16-2.044-3.823-5.255-4.993
		c-0.468-0.176-1.197-0.554-2.189-1.139c-0.701-0.466-1.285-0.7-1.752-0.7c-0.234,0-0.497,0.059-0.789,0.174
		c-0.059,0.994-0.087,2.045-0.087,3.154c0,1.519,0.116,4.088,0.35,7.708c0.176,3.328,0.233,5.929,0.176,7.797
		c0.408,0,1.021-0.307,1.838-0.921c0.818-0.612,1.285-0.947,1.402-1.008c1.752-0.816,3.298-2.189,4.643-4.115
		C256.976,270.154,257.53,268.169,257.297,266.125z"/>
	<path d="M279.021,264.286c0.116,1.694,0.175,3.446,0.175,5.256c0,3.971-0.409,9.956-1.227,17.96
		c-0.818,8.001-1.228,14.041-1.228,18.133c0,1.519,0.028,3.006,0.088,4.466c-0.526,1.633-1.665,2.424-3.417,2.365
		c-2.512-0.117-3.883-1.193-4.117-3.24c-0.234-2.043-0.349-4.201-0.349-6.482c0-3.971,0.482-9.896,1.445-17.777
		c0.963-7.884,1.446-13.781,1.446-17.696c0-1.52-0.059-3.006-0.175-4.466c0.583-1.109,1.576-1.669,2.979-1.669
		c1.109,0,2.219,0.322,3.329,0.967c0.232-0.174,0.408-0.261,0.525-0.261c0.175,0,0.263,0.292,0.263,0.871
		c-0.058,0.702-0.058,1.113,0,1.23C278.814,264.11,278.903,264.228,279.021,264.286z"/>
	<path d="M314.058,303.791c0.35,0.292,0.526,0.7,0.526,1.227c0,0.351-0.235,1.229-0.702,2.627c-0.234-0.057-0.437-0.091-0.612-0.091
		c-0.351,0-0.803,0.146-1.358,0.438c-0.556,0.293-0.979,0.438-1.27,0.438c-0.292,0-0.613-0.115-0.963-0.35
		c-3.913-2.451-9.986-6.135-18.219-11.037c0.175,2.162,0.319,5.256,0.438,9.285c0,0.467,0.057,1.17,0.174,2.102
		c0.116,0.937,0.176,1.606,0.176,2.016c0,1.403-0.613,2.368-1.84,2.892c-0.351,0.233-0.848,0.349-1.489,0.349
		c-0.701,0-1.138-0.203-1.314-0.611c-1.519-0.527-2.396-1.548-2.627-3.066c-0.701-4.201-1.05-9.138-1.05-14.803
		c0-2.043,0.056-5.094,0.175-9.154c0.115-4.056,0.174-7.108,0.174-9.154c0-6.189-0.409-11.564-1.227-16.121
		c-0.118-0.699,0.292-1.166,1.227-1.401c0.701-0.116,1.43-0.233,2.19-0.349c0.758,0.234,1.546,0.511,2.365,0.832
		c0.817,0.32,1.256,0.828,1.314,1.53c0.875,7.944,1.255,14.251,1.138,18.92c2.395-2.16,5.138-5.022,8.235-8.584
		c2.627-2.979,5.225-5.986,7.796-9.022c0.7-0.292,1.458-0.438,2.277-0.438c2.278,0,3.474,0.788,3.591,2.367
		c-1.635,3.62-4.848,7.913-9.635,12.877c-5.605,5.779-9.197,9.898-10.774,12.349c3.621,2.16,7.271,4.322,10.95,6.481
		C307.809,298.915,311.255,301.396,314.058,303.791z"/>
	<path d="M346.905,264.811c-2.161,0.877-5.34,1.898-9.548,3.066c-4.203,1.17-7.389,2.189-9.547,3.066
		c-0.527,1.519-0.906,4.901-1.139,10.161c0.934,0.349,2.014,0.524,3.24,0.524c0.876,0,2.248-0.145,4.117-0.437
		c1.867-0.293,3.243-0.438,4.119-0.438c1.633,0,3.033,0.351,4.201,1.051c0.819,1.169,1.229,1.926,1.229,2.276
		c0,0.41-0.206,0.731-0.614,0.965c-0.116,0.059-0.527,0.468-1.228,1.227c-0.466,0.524-1.049,0.759-1.751,0.7
		c-1.229,0.292-3.475,0.468-6.744,0.529c-2.746,0.056-4.934,0.409-6.568,1.048c-1.113,4.321-1.666,7.737-1.666,10.252
		c0,1.694,0.232,3.033,0.701,4.026c2.742,1.927,7.503,2.744,14.277,2.452c0.466,0,0.965-0.219,1.487-0.657
		c0.528-0.438,0.964-0.657,1.313-0.657c1.634-0.348,2.716,0.876,3.244,3.683c0.173,0.936,0.016,1.796-0.484,2.583
		c-0.495,0.79-1.213,1.213-2.146,1.271c-7.066,0.231-13.198-0.322-18.396-1.665c-1.636-0.413-3.126-1.314-4.467-2.718
		c-1.344-1.403-2.103-2.979-2.278-4.731c-0.526-5.08-0.526-9.631,0-13.664c-1.636-1.109-2.366-2.19-2.189-3.241
		c0.057-0.524,0.511-1.008,1.357-1.445c0.846-0.438,1.328-0.893,1.446-1.358c0.116-0.466,0.35-3.243,0.701-8.32
		c-3.272-0.643-4.876-1.868-4.818-3.679c0.057-1.698,1.081-3.036,3.065-4.03c1.869-0.758,3.737-1.521,5.606-2.276
		c2.159-1.113,4.875-2.107,8.146-2.982c2.861-0.755,5.723-1.486,8.585-2.186c0.293-0.059,0.642-0.092,1.048-0.092
		c1.577,0,3.42,0.612,5.522,1.842c0.055,0.234,0.201,0.673,0.438,1.311c0.231,0.642,0.348,1.115,0.348,1.405
		C347.519,264.14,347.313,264.52,346.905,264.811z"/>
	<path d="M392.981,254.037c-0.526,2.102-1.52,3.328-2.979,3.679c-3.797,0.935-10.395,2.16-19.795,3.679
		c-1.166,14.542-1.749,26.66-1.749,36.353c0,3.679,0.055,7.301,0.173,10.861c0.056,1.109,0,1.955-0.173,2.54
		c-0.294,0.937-0.877,1.376-1.753,1.313c-1.694-0.055-3.096-0.773-4.201-2.146c-1.11-1.376-1.724-2.903-1.839-4.603
		c-0.121-2.155-0.176-4.434-0.176-6.831c0-3.854,0.264-9.96,0.789-18.309c0.526-8,0.758-14.104,0.7-18.308
		c-1.577-0.115-3.766,0.031-6.569,0.438c-3.212,0.468-5.432,0.7-6.657,0.7c-2.86,0-5.197-0.765-7.009-2.292
		c-0.7-1.531-1.05-2.329-1.05-2.384c0-0.413,0.205-0.855,0.613-1.326c1.869-0.646,5.693-1.235,11.475-1.767
		c5.08-0.532,8.876-1.476,11.387-2.826c2.044,0.7,4.381,1.048,7.008,1.048s5.138-0.319,7.534-0.967
		c0.701-0.055,2.48-0.464,5.342-1.228c2.103-0.524,3.855-0.7,5.256-0.524c1.052,0,1.489,0.438,1.314,1.313
		C392.193,252.46,392.981,252.985,392.981,254.037z"/>
	<path d="M412.865,304.405c0.351,0.934,0.528,1.747,0.528,2.448c0,1.168-0.497,2.189-1.488,3.065
		c-0.994,0.877-1.665,1.284-2.015,1.226c-2.862-0.524-4.673-2.83-5.432-6.915c-0.818-4.438-1.779-8.147-2.89-11.126
		c-1.986,0.176-3.973,0.349-5.957,0.526c-2.278,0.292-4.06,0.994-5.343,2.102c-0.642,1.812-1.487,5.023-2.541,9.637
		c-0.993,4.262-1.958,7.502-2.89,9.722c-0.467,1.048-1.459,1.34-2.979,0.878c-1.926-0.644-2.952-1.523-3.063-2.628
		c-0.175-2.221,0.465-5.198,1.926-8.935c1.752-4.264,2.716-7.301,2.892-9.11c0.055-0.526-0.323-1.109-1.14-1.753
		c-0.819-0.642-1.229-1.139-1.229-1.485c0-0.291,0.13-0.603,0.394-0.921c0.262-0.319,0.875-0.583,1.839-0.789
		c0.966-0.202,1.503-0.511,1.623-0.92c1.049-2.918,2.716-8.349,4.992-16.293c1.927-6.889,3.65-12.176,5.167-15.855
		c0.35-0.816,1.082-1.227,2.189-1.227c0.816,0,1.547,0.264,2.19,0.788c1.632,1.402,2.685,3.504,3.153,6.309
		c0.348,2.395,0.67,4.789,0.963,7.182C406.674,284.112,409.712,295.469,412.865,304.405z M400.076,287.674
		c-0.176-2.16-0.556-4.585-1.139-7.271c-0.585-2.334-1.14-4.674-1.668-7.006c-1.749,4.846-3.271,9.692-4.555,14.539
		C393.65,287.76,396.105,287.674,400.076,287.674z"/>
	<path d="M447.64,286.709c-1.577,3.913-2.6,8.732-3.066,14.454c-0.289,4.963-0.556,9.927-0.788,14.891
		c-0.118,1.46-1.081,2.19-2.891,2.19c-0.525,0-1.022-0.091-1.486-0.263c-2.514-1.051-3.767-3.008-3.767-5.868
		c0-0.822,0.116-2.059,0.35-3.725c0.233-1.665,0.349-2.875,0.349-3.636c0.233-1.692,0.526-4.233,0.876-7.619
		c-4.029,3.798-8.584,6.627-13.665,8.496c-0.704,0.235-1.404,0.349-2.104,0.349c-2.688,0-5.168-1.517-7.446-4.554
		c-1.284-1.694-1.926-3.796-1.926-6.308c0-2.218,0.495-4.818,1.485-7.796c3.099-9.461,8.028-18.715,14.806-27.769
		c3.386-4.495,6.395-6.743,9.022-6.743c2.331,0,3.648,0.875,3.941,2.628c0.235,1.46-0.263,2.511-1.485,3.152
		c-2.045,1.111-3.129,1.724-3.245,1.84c-4.901,5.43-9.402,12.438-13.486,21.022c-2.514,5.313-3.767,10.074-3.767,14.277
		c0,0.761,0.029,1.521,0.088,2.277c0.119,0.061,0.292,0.337,0.529,0.833c0.232,0.497,0.555,0.656,0.963,0.481
		c3.854-1.518,9.665-5.518,17.432-12c0.583-0.468,1.256-1.809,2.015-4.029c0.583-1.634,1.632-2.452,3.153-2.452
		c-0.468,0,0-0.059,1.401-0.176c0.701-0.117,1.168,0,1.402,0.351c1.11,1.636,1.667,2.978,1.667,4.03
		C447.989,285.57,447.872,286.126,447.64,286.709z"/>
</g>
<g>
	<path fill="none" d="M359.565,172.773c-0.323-0.128-0.612-0.193-0.869-0.193c-0.771,0-1.736,0.644-2.895,1.93
		c-1.287,1.48-2.284,2.349-2.991,2.605c-0.451,0.193-1.095,0-1.93-0.579c-0.837-0.579-1.385-0.868-1.641-0.868
		c-0.193,0-0.354,0.064-0.482,0.193c-2.253,1.93-3.377,4.921-3.377,8.974c0,2.767,0.642,5.114,1.93,7.044
		c1.8,2.638,3.313,3.956,4.535,3.956c2.83,0,5.563-1.769,8.202-5.307c2.509-3.344,3.602-6.465,3.28-9.36
		C362.878,176.473,361.623,173.675,359.565,172.773z"/>
	<path fill="none" d="M322.511,161.097c-0.129,0-2.445-0.932-6.947-2.798c0.707,11.837,0.932,20.136,0.675,24.896
		c5.725-5.404,8.91-10.743,9.553-16.018C326.114,164.604,325.021,162.578,322.511,161.097z"/>
	<path fill="none" d="M394.302,165.343c0.193-1.158,0.257-2.186,0.193-3.087c-0.193-1.351-0.757-2.572-1.688-3.667
		c-0.934-1.093-2.43-1.64-4.487-1.64c-1.544,0-2.509,0.482-2.895,1.447c-0.323,1.608-0.482,3.442-0.482,5.5
		c0,0.837,0.096,2.991,0.289,6.465c0.128,2.638,0.128,4.793,0,6.465C390.57,172.838,393.594,169.01,394.302,165.343z"/>
	<path fill="none" d="M443.705,169.203c-1.93,5.34-3.604,10.679-5.018,16.018c1.028-0.193,3.729-0.29,8.105-0.29
		c-0.193-2.379-0.612-5.049-1.255-8.009C444.895,174.35,444.284,171.776,443.705,169.203z"/>
	<path d="M245.607,202.879c-0.386,0-0.868,0.241-1.447,0.724s-1.126,0.724-1.641,0.724c-7.463,0.323-12.705-0.579-15.729-2.702
		c-0.516-1.093-0.771-2.572-0.771-4.438c0-2.765,0.61-6.528,1.833-11.29c1.8-0.707,4.213-1.093,7.237-1.158
		c3.602-0.063,6.079-0.256,7.43-0.579c0.772,0.065,1.415-0.193,1.93-0.772c0.772-0.835,1.221-1.286,1.351-1.351
		c0.45-0.256,0.676-0.61,0.676-1.061c0-0.386-0.451-1.221-1.351-2.509c-1.288-0.772-2.832-1.158-4.632-1.158
		c-0.965,0-2.477,0.162-4.535,0.482c-2.06,0.323-3.57,0.482-4.535,0.482c-1.351,0-2.542-0.193-3.57-0.579
		c0.256-5.79,0.676-9.52,1.254-11.193c2.379-0.965,5.886-2.09,10.518-3.377c4.632-1.286,8.137-2.412,10.518-3.377
		c0.449-0.321,0.676-0.739,0.676-1.254c0-0.321-0.13-0.835-0.386-1.543c-0.258-0.708-0.419-1.19-0.482-1.448
		c-2.316-1.351-4.342-2.026-6.079-2.026c-0.451,0-0.837,0.033-1.158,0.097c-3.153,0.772-6.306,1.577-9.457,2.412
		c-3.604,0.965-6.595,2.06-8.974,3.281c-2.06,0.837-4.117,1.674-6.175,2.509c-2.188,1.095-3.314,2.574-3.377,4.439
		c-0.065,1.995,1.704,3.346,5.307,4.053c-0.386,5.597-0.644,8.653-0.772,9.167c-0.129,0.516-0.66,1.013-1.592,1.496
		c-0.933,0.482-1.432,1.013-1.496,1.592c-0.193,1.158,0.611,2.349,2.413,3.57c-0.579,4.439-0.579,9.457,0,15.053
		c0.193,1.93,1.028,3.667,2.509,5.21c1.479,1.544,3.12,2.541,4.921,2.992c5.725,1.479,12.479,2.089,20.264,1.833
		c1.028-0.064,1.816-0.53,2.364-1.399c0.546-0.869,0.724-1.817,0.531-2.847C248.598,203.844,247.407,202.493,245.607,202.879z"/>
	<path d="M296.073,175.475c-0.064-1.672-0.064-3.859,0-6.562c0.128-3.216,0.193-5.307,0.193-6.272c0-3.023-0.227-5.693-0.676-8.009
		c-0.323-1.544-1.673-2.316-4.053-2.316c-1.673,0-2.638,0.516-2.895,1.544c-1.674,9.972-5.597,23.544-11.772,40.72
		c-1.867-2.637-3.152-6.014-3.86-10.132c-0.516-3.667-1.061-7.3-1.64-10.904c0-2.123-0.306-5.259-0.917-9.408
		c-0.612-4.149-0.917-7.156-0.917-9.022c-0.837-0.835-2.349-1.254-4.535-1.254c-0.837,0-1.416,0.451-1.737,1.351
		c-0.516,1.223-0.837,1.898-0.965,2.026c-1.481,11.644-2.895,19.781-4.246,24.413c-3.924,13.316-6.175,20.746-6.754,22.29
		c-1.351,3.539-2.026,5.597-2.026,6.176c0,1.672,0.932,2.958,2.798,3.859c2.251,1.093,3.602,1.158,4.053,0.193
		c3.151-6.625,6.111-16.661,8.877-30.106c0.707,1.481,1.576,4.375,2.605,8.685c0.965,3.925,1.993,6.788,3.088,8.588
		c1.672,2.767,4.053,4.504,7.14,5.211c1.544,0.193,2.83-0.707,3.86-2.702c0.256-0.449,0.965-2.251,2.123-5.403
		c1.93-5.725,3.313-10.036,4.149-12.93c0.321,1.737,0.546,4.921,0.676,9.553c0.128,4.118,0.514,7.302,1.158,9.553
		c0.707,2.446,1.672,4.213,2.895,5.307c1.479,1.286,2.926,1.897,4.342,1.833c2.123-0.129,3.054-0.837,2.798-2.123
		C297.906,200.435,296.652,189.049,296.073,175.475z"/>
	<path d="M312.669,150.386c-3.024-0.449-5.018-0.514-5.982-0.193c-0.772,0-1.319,1.03-1.641,3.088
		c0.321,0.13,0.708,0.612,1.158,1.447c0.449,0.837,0.932,1.158,1.447,0.965c0.579,4.183,0.869,8.781,0.869,13.799
		c0,3.474-0.193,8.588-0.579,15.342c-0.386,6.755-0.579,11.837-0.579,15.246c0,5.147,0.321,9.809,0.965,13.992
		c0.128,0.835,0.739,1.544,1.833,2.123l2.702,1.447c2.058-2.188,3.087-5.469,3.087-9.842c0-1.158-0.096-2.975-0.289-5.452
		c-0.193-2.476-0.29-4.326-0.29-5.548c0-1.737,0.128-3.248,0.386-4.535c1.865-0.321,3.73-1.221,5.598-2.702
		c0.256-0.256,1.736-1.737,4.438-4.439c1.736-1.737,3.826-5.242,6.271-10.518c1.029-2.316,1.545-4.535,1.545-6.658
		c0-2.444-0.676-4.632-2.027-6.562C327.337,155.404,321.03,151.737,312.669,150.386z M325.792,167.176
		c-0.643,5.275-3.828,10.614-9.553,16.018c0.256-4.76,0.032-13.059-0.675-24.896c4.502,1.867,6.818,2.798,6.947,2.798
		C325.021,162.578,326.114,164.604,325.792,167.176z"/>
	<path d="M362.074,166.115c-3.925-1.286-6.337-2.316-7.237-3.087c-0.901-0.772-1.866-1.158-2.895-1.158
		c-1.802,0-3.7,0.998-5.693,2.991c-1.737,1.674-3.218,3.667-4.438,5.983c-2.832,5.468-4.246,10.583-4.246,15.342
		c0,4.311,1.255,7.816,3.764,10.518c3.729,3.989,7.43,5.982,11.097,5.982c0.835,0,1.672-0.097,2.509-0.29
		c6.947-1.607,12.317-6.689,16.114-15.246c0.643-1.414,0.965-2.991,0.965-4.728c0-3.088-1.126-6.786-3.377-11.097
		C367.348,168.881,365.162,167.145,362.074,166.115z M360.048,190.528c-2.639,3.539-5.372,5.307-8.202,5.307
		c-1.223,0-2.735-1.318-4.535-3.956c-1.288-1.93-1.93-4.277-1.93-7.044c0-4.053,1.124-7.044,3.377-8.974
		c0.128-0.128,0.289-0.193,0.482-0.193c0.256,0,0.804,0.289,1.641,0.868c0.835,0.579,1.479,0.772,1.93,0.579
		c0.707-0.256,1.704-1.125,2.991-2.605c1.158-1.286,2.123-1.93,2.895-1.93c0.257,0,0.546,0.065,0.869,0.193
		c2.058,0.902,3.313,3.7,3.763,8.395C363.649,184.063,362.557,187.184,360.048,190.528z"/>
	<path d="M420.354,158.781c-0.065-0.128-0.065-0.579,0-1.351c0-0.643-0.097-0.965-0.29-0.965c-0.13,0-0.322,0.097-0.579,0.29
		c-1.223-0.707-2.445-1.062-3.667-1.062c-1.543,0-2.638,0.612-3.28,1.833c0.128,1.609,0.193,3.249,0.193,4.921
		c0,4.311-0.531,10.807-1.593,19.492s-1.592,15.214-1.592,19.588c0,0.221,0.015,0.426,0.017,0.645
		c-1.28-1.349-2.73-2.753-4.356-4.215c-7.013-6.369-10.552-9.585-10.614-9.649c-1.03-0.835-2.06-1.672-3.088-2.509
		c-1.352-1.158-2.026-2.155-2.026-2.992c0-0.772,0.579-1.479,1.736-2.123c2.83-1.544,5.211-3.667,7.141-6.369
		c2.251-3.023,3.377-6.046,3.377-9.07c0-3.602-1.19-6.948-3.569-10.036c-2.574-3.344-5.597-5.081-9.071-5.21
		c-6.884-0.321-10.647,1.512-11.289,5.5c-0.965,5.983-1.447,13.35-1.447,22.097v10.518c-0.065,5.147-0.227,9.586-0.482,13.316
		c-0.065,0.451-0.227,1.609-0.483,3.474c-0.258,1.609-0.386,2.895-0.386,3.86c0,3.281,1.414,5.242,4.246,5.886
		c0.449,0.128,1.013,0.032,1.688-0.29c0.676-0.323,1.076-0.482,1.206-0.482c0.835-3.153,1.414-7.397,1.737-12.737
		c0.514-7.076,0.868-11.45,1.062-13.123c2.765,2.38,6.979,6.626,12.641,12.737c5.081,5.468,9.326,9.52,12.737,12.158
		c1.043-0.261,1.896-0.566,2.586-0.908c0.47,0.12,0.981,0.205,1.561,0.232c1.93,0.063,3.185-0.805,3.764-2.605
		c-0.065-1.609-0.097-3.248-0.097-4.921c0-4.502,0.449-11.16,1.351-19.974c0.9-8.813,1.352-15.406,1.352-19.781
		c0-1.993-0.065-3.923-0.193-5.79C420.513,159.104,420.416,158.975,420.354,158.781z M385.231,170.361
		c-0.193-3.474-0.289-5.628-0.289-6.465c0-2.058,0.159-3.892,0.482-5.5c0.386-0.965,1.351-1.447,2.895-1.447
		c2.058,0,3.554,0.547,4.487,1.64c0.932,1.095,1.495,2.316,1.688,3.667c0.063,0.901,0,1.93-0.193,3.087
		c-0.708,3.667-3.731,7.495-9.07,11.483C385.359,175.154,385.359,172.999,385.231,170.361z"/>
	<path d="M460.881,203.361c-3.474-9.842-6.819-22.353-10.035-37.536c-0.323-2.637-0.676-5.274-1.062-7.912
		c-0.516-3.088-1.674-5.404-3.474-6.948c-0.709-0.579-1.513-0.868-2.413-0.868c-1.223,0-2.026,0.451-2.412,1.351
		c-1.674,4.053-3.57,9.875-5.693,17.465c-2.509,8.75-4.342,14.732-5.5,17.948c-0.129,0.451-0.724,0.789-1.785,1.013
		c-1.062,0.227-1.736,0.516-2.026,0.869c-0.289,0.354-0.434,0.692-0.434,1.013c0,0.386,0.449,0.933,1.351,1.641
		c0.9,0.708,1.317,1.351,1.255,1.93c-0.193,1.995-1.255,5.34-3.185,10.035c-1.609,4.118-2.316,7.397-2.123,9.842
		c0.128,1.222,1.255,2.187,3.377,2.895c1.673,0.514,2.766,0.193,3.281-0.965c1.028-2.446,2.09-6.016,3.185-10.711
		c1.157-5.081,2.089-8.62,2.798-10.614c1.414-1.221,3.377-1.993,5.886-2.316c2.187-0.193,4.374-0.386,6.562-0.579
		c1.222,3.281,2.283,7.367,3.185,12.255c0.836,4.503,2.83,7.044,5.982,7.623c0.387,0.063,1.125-0.386,2.22-1.351
		c1.093-0.965,1.641-2.089,1.641-3.377C461.46,205.292,461.267,204.391,460.881,203.361z M438.688,185.221
		c1.414-5.339,3.088-10.678,5.018-16.018c0.579,2.574,1.189,5.147,1.833,7.72c0.643,2.959,1.062,5.63,1.255,8.009
		C442.417,184.931,439.716,185.028,438.688,185.221z"/>
</g>
</svg>
