<?xml version="1.0" encoding="UTF-8" standalone="no"?>
<svg
   xmlns:dc="http://purl.org/dc/elements/1.1/"
   xmlns:cc="http://creativecommons.org/ns#"
   xmlns:rdf="http://www.w3.org/1999/02/22-rdf-syntax-ns#"
   xmlns:svg="http://www.w3.org/2000/svg"
   xmlns="http://www.w3.org/2000/svg"
   xmlns:sodipodi="http://sodipodi.sourceforge.net/DTD/sodipodi-0.dtd"
   xmlns:inkscape="http://www.inkscape.org/namespaces/inkscape"
   inkscape:version="1.0 (4035a4f, 2020-05-01)"
   sodipodi:docname="EugeneIcon.svg"
   xml:space="preserve"
   enable-background="new 0 0 646 449"
   viewBox="0 0 437.25027 283.22339"
   height="283.22339"
   width="437.25027"
   y="0px"
   x="0px"
   id="Layer_1"
   version="1.1"><metadata
   id="metadata53"><rdf:RDF><cc:Work
       rdf:about=""><dc:format>image/svg+xml</dc:format><dc:type
         rdf:resource="http://purl.org/dc/dcmitype/StillImage" /></cc:Work></rdf:RDF></metadata><defs
   id="defs51" /><sodipodi:namedview
   inkscape:current-layer="Layer_1"
   inkscape:window-maximized="1"
   inkscape:window-y="23"
   inkscape:window-x="0"
   inkscape:cy="139.38224"
   inkscape:cx="218.62409"
   inkscape:zoom="1.0897833"
   showgrid="false"
   id="namedview49"
   inkscape:window-height="956"
   inkscape:window-width="2048"
   inkscape:pageshadow="2"
   inkscape:pageopacity="0"
   guidetolerance="10"
   gridtolerance="10"
   objecttolerance="10"
   borderopacity="1"
   bordercolor="#666666"
   pagecolor="#ffffff" />
<g
   transform="translate(-104.37591,-85.117763)"
   id="g14">
	<path
   id="path10"
   d="m 541.412,281.197 c -0.174,-16.508 -0.813,-33.008 -1.442,-49.504 -0.604,-15.745 -0.073,-31.478 0.224,-47.219 0.281,-15.145 0.015,-30.211 -1.612,-45.277 -1.021,-9.421 -2.869,-19.451 -8.261,-27.447 -2.537,-3.762 -5.85,-6.271 -9.604,-7.939 -5.593,-3.609 -13.037,-5.111 -19.144,-6.127 -21.426,-3.566 -43.436,-0.631 -65.011,-2.461 -31.962,-2.711 -64.044,-3.524 -96.003,-6.26 -29.436,-2.52 -58.978,-4.025 -88.521,-3.828 -14.449,0.097 -28.892,0.701 -43.293,1.871 -11.939,0.97 -24.062,1.945 -35.457,5.859 -3.611,1.24 -6.875,2.848 -9.852,4.74 -5.789,1.107 -11.247,3.143 -15.907,6.816 -14.188,11.188 -11.68,32.167 -11.801,49.617 -1.071,5.57 -2.1,11.146 -3.255,16.67 -0.95,4.544 -2.335,8.508 -4.238,12.297 -2.706,4.252 -6.043,8.166 -9.815,11.896 -6.511,6.438 -9.625,13.736 -11.188,22.462 -0.314,0.828 -0.612,1.67 -0.875,2.544 -3.82,12.708 -1.345,27.422 0.991,40.168 1.959,10.688 7.187,20.17 13.779,28.668 6.423,8.278 13.894,15.657 19.885,24.285 0.183,0.264 0.352,0.53 0.529,0.799 2.297,8.705 2.213,17.713 3.409,26.896 1.216,9.351 6.129,18.927 16.146,20.968 4.954,1.01 9.942,0.692 14.95,0.323 7.849,-0.579 15.658,-0.196 23.517,0.039 32.945,1.004 65.889,2.08 98.813,3.646 32.2,1.524 64.014,3.557 96.271,2.192 31.983,-1.348 63.923,-4.098 95.963,-3.44 14.983,0.307 31.57,0.453 41.521,-12.722 5.229,-6.922 7.127,-15.938 8.163,-24.356 1.863,-15.18 1.279,-30.914 1.118,-46.176 z M 181.334,91.921 c 14.229,-3.477 29.702,-3.839 44.268,-4.567 15.105,-0.755 30.24,-0.844 45.359,-0.581 29.969,0.521 59.673,3.609 89.557,5.399 16.351,0.979 32.709,1.744 49.059,2.735 14.013,0.85 28.088,2.805 42.124,2.842 18.22,0.047 38.698,-2.38 56.538,3.18 -6.521,-0.545 -13.32,-0.098 -19.331,-0.004 -65.257,-0.039 -130.491,-1.898 -195.73,-3.188 -32.928,-0.652 -65.859,-1.123 -98.793,-1.152 -8.387,-0.006 -17.861,-0.688 -26.821,0.384 4.313,-2.258 8.998,-3.883 13.77,-5.048 z m 143.798,8.657 c -24.731,0.889 -49.436,2.301 -74.146,-0.113 -5.139,-0.502 -10.331,-1.004 -15.549,-1.426 13.274,0.137 26.549,0.311 39.823,0.543 16.625,0.291 33.249,0.636 49.872,0.996 z M 161.8,100.554 c 6.826,-1.646 14.432,-1.848 21.593,-1.834 4.146,0.007 8.291,0.029 12.437,0.044 -7.431,0.753 -14.783,2.103 -21.981,4.302 -9.688,2.959 -18.421,8.229 -24.862,16.108 -1.044,1.276 -1.978,2.599 -2.817,3.957 2.118,-5.742 4.921,-11.204 8.776,-16.019 2.021,-2.524 4.333,-4.691 6.854,-6.558 z m -20.88,19.453 c 2.607,-10.256 9.086,-15.59 17.108,-18.355 -8.228,7.188 -13.58,17.116 -16.833,28.379 -0.8,2.769 -1.508,5.563 -2.176,8.372 0.041,-6.183 0.361,-12.339 1.901,-18.396 z m -11.003,65.554 c -1.362,2.341 -2.938,4.627 -4.798,6.855 -0.252,0.303 -0.507,0.599 -0.761,0.898 1.998,-2.508 3.914,-5.066 5.559,-7.753 z m 1.076,110.619 c -7.239,-8.295 -13.99,-16.783 -18.011,-27.15 -2.063,-5.317 -3.501,-11.221 -4.395,-17.266 0.184,0.664 0.377,1.324 0.582,1.984 2.805,9.033 7.782,17.217 12.937,25.072 5.427,8.271 11.013,16.391 15.567,25.184 -2.181,-2.652 -4.432,-5.25 -6.68,-7.824 z M 362,366.457 c -16.928,-0.037 -33.798,-1.441 -50.694,-2.32 -16.554,-0.858 -33.116,-1.563 -49.681,-2.194 -30.216,-1.154 -60.624,-3.107 -90.825,-1.763 -6.813,0.308 -13.049,-0.946 -17.638,-6.352 -3.956,-4.656 -4.995,-10.773 -5.652,-16.65 -0.604,-5.399 -0.914,-10.563 -1.584,-15.617 3.502,6.982 6.474,14.229 11.948,20.029 12.204,12.935 32.39,9.711 48.348,10.197 15.56,0.475 31.11,2.637 46.634,3.771 16.408,1.199 32.717,1.197 49.15,1.425 32.623,0.444 65.116,3.896 97.672,5.713 10.829,0.604 21.671,0.983 32.517,1.045 -23.388,1.239 -46.759,2.767 -70.195,2.716 z m 161.954,-9.898 c -6.612,4.896 -15.435,5.767 -23.386,5.927 -7.026,0.143 -14.054,0.047 -21.078,-0.027 14.813,-0.002 32.584,0.803 45.865,-7.016 -0.452,0.381 -0.917,0.756 -1.401,1.116 z m 1.314,-2.905 c -7.615,5.719 -18.816,6.426 -27.962,6.944 -9.021,0.517 -18.066,0.211 -27.102,0.404 -13.373,0.283 -26.664,1.332 -40.065,1.199 -32.624,-0.324 -65.121,-3.754 -97.671,-5.631 -16.305,-0.939 -32.554,-0.994 -48.873,-1.146 -17.022,-0.151 -34.006,-1.688 -50.951,-3.19 -12.522,-1.109 -24.905,-2.105 -37.479,-2.107 -9.019,-0.002 -18.346,0.068 -26.679,-3.846 -10.278,-4.828 -14.613,-15.301 -19.223,-24.908 -1.455,-3.033 -3.176,-5.898 -5.043,-8.67 -0.772,-2.885 -1.79,-5.762 -3.199,-8.654 -8.947,-18.368 -23.873,-33.502 -29.655,-53.409 -3.131,-10.785 -3.138,-22.5 -1.206,-33.567 2.751,-7.287 7.518,-13.467 13.077,-19.549 8.192,-8.963 13.809,-17.613 16.154,-29.718 2.443,-12.608 1.583,-25.612 6.056,-37.828 4.735,-12.935 16.037,-21.44 28.753,-25.6 26.5,-8.667 55.738,-4.052 82.783,-1.716 30.506,2.634 61.289,-1.051 91.843,-1.113 0.35,0 0.832,-0.188 1.23,-0.43 40.57,0.886 81.146,1.73 121.729,1.938 4.95,0.025 9.901,0.032 14.852,0.036 0.096,0.013 0.19,0.021 0.3,0.021 0.553,-0.001 1.108,-0.008 1.674,-0.016 0.369,0 0.735,0.002 1.104,0.002 0.113,0 0.222,-0.011 0.322,-0.029 9.803,-0.223 20.904,-1.086 29.505,3.167 14.473,11.269 9.604,37.62 7.843,53.33 -1.188,10.649 -1.919,20.923 -1.39,31.65 0.763,15.468 3.049,30.821 4.438,46.236 1.339,14.791 0.479,29.526 1.261,44.319 0.744,14.129 2.477,28.188 2.46,42.353 -0.011,10.198 0.041,22.827 -8.886,29.528 z M 536.713,332 c 0.011,-0.133 0.022,-0.266 0.033,-0.398 1.086,-13.467 -0.426,-27.092 -1.466,-40.514 -1.115,-14.408 -0.454,-28.744 -1.146,-43.152 -0.743,-15.522 -3.02,-30.936 -4.436,-46.402 -1.149,-12.546 -1.353,-24.831 0.013,-37.346 1.136,-10.438 2.463,-20.868 2.404,-31.387 -0.028,-5.16 -0.449,-10.621 -1.986,-15.652 4.318,8.514 5.193,19.004 6.119,28.194 1.633,16.206 1.166,32.581 0.802,48.837 -0.728,32.409 1.435,64.725 1.48,97.127 0.023,13.451 0.399,27.355 -1.817,40.693 z" />
	<path
   id="path12"
   d="m 141.402,213.324 c -1.79,-4.047 -6.104,-6.389 -10.126,-4.859 -4.098,1.557 -5.279,8.261 -5.954,12.175 -1.633,9.551 -1.82,22.333 5.703,29.103 4.784,4.303 8.052,1.692 10.25,-2.918 0.905,0.766 1.789,0.647 1.83,-1.56 0.026,-1.328 0.089,-2.684 0.17,-4.051 1.163,-4.273 1.763,-8.688 2.011,-10.826 0.148,-1.266 -0.518,-2.854 -1.336,-3.789 -0.092,-4.609 -0.708,-9.121 -2.548,-13.275 z m -1.95,25.612 c -1.413,4.189 -3.831,7.131 -8.161,4.433 -5.218,-3.252 -2.902,-16.05 -1.878,-21.149 0.739,-3.691 2.271,-7.751 6.384,-7.315 4.487,0.474 4.116,6.708 4.216,10.276 0.133,4.6 -0.308,9.171 -0.561,13.755 z" />
</g>
<g
   transform="translate(-104.37591,-85.117763)"
   id="g30">
	<path
   id="path16"
   d="m 255.401,266.232 c -0.863,3.58 -3.051,6.83 -6.565,9.748 -3.382,2.389 -6.765,4.742 -10.147,7.063 0.199,0.996 0.879,1.742 2.04,2.238 1.159,0.498 2.271,0.979 3.333,1.443 5.504,3.577 8.256,7.823 8.256,12.729 0,3.778 -1.293,7.262 -3.879,10.445 -1.99,2.45 -4.941,4.875 -8.854,7.262 -3.184,1.854 -6.367,3.713 -9.55,5.57 -0.796,0.463 -1.658,0.694 -2.586,0.694 -2.188,0 -3.715,-0.896 -4.576,-2.686 0.132,-5.572 0.264,-11.109 0.398,-16.613 0.132,-6.631 0.497,-12.102 1.094,-16.414 -1.393,-0.928 -2.089,-1.988 -2.089,-3.184 0,-0.596 0.249,-1.144 0.746,-1.641 0.498,-0.498 1.177,-1.047 2.04,-1.644 0.796,-10.08 0.96,-19.365 0.497,-27.854 -3.118,-0.599 -5.172,-1.99 -6.167,-4.181 -0.067,-0.265 0.05,-0.662 0.348,-1.192 0.299,-0.527 0.448,-0.961 0.448,-1.293 1.525,-1.127 3.216,-1.689 5.073,-1.689 1.326,0 4.377,0.435 9.152,1.293 2.453,0.396 5.006,1.295 7.66,2.688 7.162,3.715 11.373,7.328 12.634,10.842 0.858,2.531 1.093,4.652 0.694,6.376 z m -12.335,34.022 c 0.132,-0.73 0.198,-1.426 0.198,-2.09 0,-1.99 -0.631,-3.746 -1.89,-5.271 -3.382,-1.658 -5.538,-2.488 -6.466,-2.488 -0.532,0 -1.029,0.103 -1.492,0.302 0.065,0.664 0.1,1.396 0.1,2.188 0,1.395 -0.184,3.53 -0.547,6.416 -0.365,2.885 -0.547,5.059 -0.547,6.518 0,2.123 0.264,4.043 0.795,5.77 0.796,-0.93 2.039,-1.907 3.73,-2.936 1.691,-1.028 2.867,-1.939 3.531,-2.734 1.195,-1.398 2.056,-3.288 2.588,-5.675 z m 2.984,-38.996 c -0.332,-2.453 -2.321,-4.342 -5.968,-5.67 -0.532,-0.199 -1.36,-0.629 -2.487,-1.293 -0.795,-0.529 -1.459,-0.795 -1.989,-0.795 -0.266,0 -0.564,0.066 -0.896,0.197 -0.067,1.129 -0.099,2.322 -0.099,3.582 0,1.725 0.132,4.643 0.398,8.754 0.199,3.779 0.264,6.732 0.199,8.854 0.463,0 1.159,-0.348 2.088,-1.045 0.929,-0.695 1.459,-1.076 1.592,-1.145 1.99,-0.928 3.746,-2.486 5.273,-4.674 1.524,-2.189 2.153,-4.443 1.889,-6.765 z" />
	<path
   id="path18"
   d="m 270.72,259.17 c 0.132,1.924 0.199,3.914 0.199,5.969 0,4.51 -0.465,11.307 -1.393,20.396 -0.93,9.086 -1.394,15.946 -1.394,20.592 0,1.725 0.032,3.414 0.1,5.072 -0.597,1.854 -1.89,2.752 -3.88,2.686 -2.852,-0.133 -4.41,-1.356 -4.675,-3.68 -0.267,-2.32 -0.397,-4.772 -0.397,-7.361 0,-4.51 0.547,-11.239 1.641,-20.19 1.094,-8.953 1.642,-15.65 1.642,-20.096 0,-1.726 -0.067,-3.414 -0.199,-5.072 0.662,-1.26 1.79,-1.894 3.382,-1.894 1.26,0 2.52,0.365 3.781,1.097 0.264,-0.197 0.463,-0.297 0.596,-0.297 0.199,0 0.299,0.332 0.299,0.991 -0.066,0.796 -0.066,1.263 0,1.396 0.064,0.192 0.164,0.325 0.298,0.391 z" />
	<path
   id="path20"
   d="m 310.51,304.033 c 0.397,0.332 0.597,0.795 0.597,1.393 0,0.398 -0.266,1.396 -0.796,2.984 -0.266,-0.064 -0.497,-0.103 -0.696,-0.103 -0.398,0 -0.912,0.166 -1.542,0.498 -0.631,0.332 -1.111,0.496 -1.442,0.496 -0.332,0 -0.696,-0.131 -1.094,-0.396 -4.444,-2.785 -11.341,-6.967 -20.691,-12.535 0.199,2.455 0.363,5.969 0.498,10.545 0,0.531 0.064,1.328 0.198,2.387 0.132,1.063 0.199,1.824 0.199,2.289 0,1.592 -0.696,2.688 -2.089,3.283 -0.398,0.264 -0.963,0.396 -1.691,0.396 -0.796,0 -1.293,-0.231 -1.492,-0.694 -1.725,-0.6 -2.721,-1.758 -2.984,-3.482 -0.796,-4.772 -1.193,-10.377 -1.193,-16.811 0,-2.32 0.064,-5.785 0.199,-10.396 0.131,-4.606 0.198,-8.072 0.198,-10.396 0,-7.029 -0.464,-13.133 -1.393,-18.307 -0.134,-0.795 0.331,-1.324 1.393,-1.592 0.796,-0.132 1.624,-0.265 2.487,-0.396 0.861,0.266 1.756,0.579 2.686,0.944 0.928,0.364 1.426,0.941 1.492,1.739 0.994,9.021 1.426,16.183 1.293,21.485 2.719,-2.453 5.835,-5.703 9.352,-9.748 2.984,-3.383 5.934,-6.797 8.854,-10.246 0.795,-0.332 1.656,-0.498 2.586,-0.498 2.586,0 3.945,0.896 4.078,2.688 -1.857,4.112 -5.506,8.987 -10.942,14.623 -6.366,6.564 -10.444,11.242 -12.235,14.025 4.111,2.453 8.256,4.908 12.435,7.361 4.638,2.927 8.551,5.745 11.735,8.464 z" />
	<path
   id="path22"
   d="m 347.813,259.766 c -2.455,0.996 -6.065,2.156 -10.844,3.482 -4.773,1.328 -8.39,2.486 -10.842,3.482 -0.598,1.725 -1.029,5.567 -1.293,11.539 1.061,0.396 2.287,0.596 3.68,0.596 0.995,0 2.553,-0.164 4.676,-0.496 2.121,-0.332 3.683,-0.498 4.678,-0.498 1.854,0 3.445,0.398 4.771,1.193 0.93,1.328 1.396,2.188 1.396,2.586 0,0.465 -0.234,0.83 -0.697,1.096 -0.133,0.066 -0.6,0.531 -1.395,1.393 -0.529,0.596 -1.191,0.861 -1.988,0.795 -1.395,0.332 -3.945,0.531 -7.659,0.601 -3.118,0.063 -5.604,0.465 -7.46,1.19 -1.264,4.908 -1.891,8.787 -1.891,11.642 0,1.924 0.264,3.446 0.796,4.573 3.114,2.188 8.521,3.117 16.214,2.785 0.529,0 1.096,-0.248 1.689,-0.746 0.6,-0.498 1.094,-0.746 1.491,-0.746 1.855,-0.396 3.084,0.994 3.683,4.181 0.197,1.063 0.018,2.039 -0.549,2.934 -0.563,0.896 -1.377,1.377 -2.437,1.443 -8.024,0.264 -14.988,-0.365 -20.891,-1.891 -1.857,-0.468 -3.549,-1.492 -5.073,-3.085 -1.526,-1.594 -2.388,-3.383 -2.587,-5.373 -0.597,-5.77 -0.597,-10.938 0,-15.518 -1.857,-1.26 -2.686,-2.488 -2.486,-3.682 0.064,-0.596 0.58,-1.145 1.541,-1.641 0.961,-0.498 1.508,-1.013 1.643,-1.543 0.131,-0.529 0.397,-3.683 0.795,-9.449 -3.715,-0.729 -5.537,-2.121 -5.471,-4.178 0.064,-1.927 1.227,-3.447 3.481,-4.576 2.122,-0.861 4.243,-1.728 6.366,-2.586 2.453,-1.263 5.537,-2.392 9.251,-3.386 3.25,-0.858 6.5,-1.688 9.75,-2.483 0.332,-0.066 0.729,-0.103 1.19,-0.103 1.791,0 3.884,0.695 6.271,2.091 0.063,0.266 0.229,0.764 0.498,1.489 0.264,0.729 0.396,1.265 0.396,1.595 0.003,0.532 -0.231,0.964 -0.693,1.294 z" />
	<path
   id="path24"
   d="m 400.139,247.531 c -0.598,2.387 -1.726,3.779 -3.383,4.178 -4.313,1.061 -11.805,2.453 -22.48,4.178 -1.325,16.514 -1.987,30.275 -1.987,41.283 0,4.178 0.063,8.291 0.196,12.334 0.064,1.26 0,2.221 -0.196,2.885 -0.333,1.063 -0.995,1.562 -1.99,1.492 -1.924,-0.063 -3.516,-0.879 -4.772,-2.438 -1.26,-1.562 -1.957,-3.297 -2.088,-5.226 -0.137,-2.448 -0.199,-5.036 -0.199,-7.758 0,-4.377 0.299,-11.31 0.896,-20.791 0.597,-9.086 0.861,-16.017 0.796,-20.791 -1.791,-0.131 -4.277,0.035 -7.461,0.498 -3.648,0.531 -6.168,0.795 -7.561,0.795 -3.248,0 -5.901,-0.868 -7.959,-2.604 -0.795,-1.738 -1.192,-2.644 -1.192,-2.707 0,-0.469 0.233,-0.971 0.696,-1.506 2.123,-0.734 6.466,-1.402 13.031,-2.006 5.77,-0.604 10.08,-1.675 12.932,-3.209 2.32,0.795 4.975,1.19 7.958,1.19 2.983,0 5.835,-0.363 8.556,-1.097 0.797,-0.063 2.817,-0.528 6.067,-1.395 2.388,-0.596 4.378,-0.795 5.969,-0.596 1.194,0 1.69,0.498 1.492,1.492 1.783,0.008 2.679,0.604 2.679,1.799 z" />
	<path
   id="path26"
   d="m 422.719,304.73 c 0.398,1.061 0.6,1.985 0.6,2.782 0,1.326 -0.564,2.486 -1.69,3.48 -1.129,0.996 -1.891,1.459 -2.288,1.393 -3.25,-0.596 -5.307,-3.215 -6.168,-7.854 -0.93,-5.039 -2.021,-9.252 -3.282,-12.635 -2.256,0.199 -4.511,0.396 -6.765,0.598 -2.587,0.332 -4.61,1.129 -6.067,2.387 -0.729,2.057 -1.69,5.705 -2.886,10.943 -1.128,4.84 -2.224,8.52 -3.281,11.041 -0.531,1.19 -1.658,1.522 -3.384,0.996 -2.188,-0.73 -3.353,-1.729 -3.479,-2.984 -0.198,-2.521 0.529,-5.902 2.188,-10.146 1.989,-4.842 3.084,-8.291 3.283,-10.346 0.063,-0.598 -0.366,-1.26 -1.294,-1.99 -0.931,-0.729 -1.394,-1.293 -1.394,-1.688 0,-0.33 0.147,-0.683 0.446,-1.045 0.298,-0.363 0.994,-0.662 2.089,-0.896 1.096,-0.23 1.706,-0.58 1.842,-1.046 1.192,-3.313 3.084,-9.481 5.67,-18.502 2.188,-7.823 4.146,-13.827 5.868,-18.006 0.397,-0.928 1.229,-1.394 2.486,-1.394 0.928,0 1.757,0.3 2.487,0.896 1.854,1.593 3.049,3.979 3.581,7.164 0.396,2.72 0.762,5.438 1.094,8.156 3.313,15.652 6.763,28.548 10.344,38.696 z m -14.524,-19 c -0.199,-2.453 -0.631,-5.207 -1.293,-8.258 -0.664,-2.65 -1.294,-5.308 -1.894,-7.957 -1.987,5.504 -3.715,11.008 -5.173,16.512 1.063,-0.199 3.851,-0.297 8.36,-0.297 z" />
	<path
   id="path28"
   d="m 462.21,284.635 c -1.791,4.443 -2.952,9.916 -3.481,16.414 -0.33,5.637 -0.632,11.273 -0.896,16.91 -0.134,1.658 -1.228,2.488 -3.283,2.488 -0.597,0 -1.161,-0.103 -1.688,-0.299 -2.854,-1.193 -4.277,-3.416 -4.277,-6.664 0,-0.933 0.132,-2.338 0.397,-4.229 0.265,-1.891 0.396,-3.266 0.396,-4.129 0.265,-1.922 0.598,-4.808 0.995,-8.653 -4.576,4.313 -9.749,7.526 -15.52,9.649 -0.798,0.266 -1.593,0.396 -2.389,0.396 -3.052,0 -5.869,-1.723 -8.456,-5.172 -1.458,-1.924 -2.188,-4.311 -2.188,-7.162 0,-2.52 0.563,-5.473 1.688,-8.854 3.518,-10.744 9.117,-21.254 16.813,-31.535 3.846,-5.105 7.262,-7.658 10.246,-7.658 2.648,0 4.144,0.994 4.477,2.984 0.267,1.658 -0.299,2.852 -1.688,3.58 -2.322,1.262 -3.552,1.957 -3.684,2.09 -5.567,6.166 -10.678,14.125 -15.316,23.873 -2.854,6.035 -4.277,11.441 -4.277,16.215 0,0.863 0.032,1.727 0.1,2.586 0.134,0.068 0.331,0.383 0.6,0.945 0.265,0.564 0.63,0.746 1.094,0.547 4.377,-1.723 10.976,-6.266 19.796,-13.627 0.662,-0.531 1.426,-2.055 2.288,-4.576 0.662,-1.855 1.854,-2.785 3.581,-2.785 -0.531,0 0,-0.066 1.592,-0.199 0.796,-0.133 1.326,0 1.592,0.398 1.261,1.857 1.893,3.381 1.893,4.576 -0.008,0.598 -0.14,1.229 -0.405,1.891 z" />
</g>
<g
   transform="translate(-104.37591,-85.117763)"
   id="g46">
	<g
   id="g44"
   enable-background="new    ">
		<path
   id="path32"
   d="m 252.902,150.974 c -2.547,1.033 -6.297,2.237 -11.252,3.613 -4.955,1.378 -8.707,2.581 -11.252,3.613 -0.619,1.79 -1.067,5.781 -1.342,11.975 1.1,0.413 2.375,0.62 3.819,0.62 1.033,0 2.649,-0.172 4.852,-0.517 2.202,-0.344 3.82,-0.517 4.852,-0.517 1.926,0 3.578,0.413 4.955,1.239 0.963,1.378 1.445,2.271 1.445,2.684 0,0.482 -0.242,0.861 -0.723,1.136 -0.139,0.069 -0.62,0.552 -1.445,1.445 -0.552,0.619 -1.239,0.896 -2.064,0.826 -1.445,0.345 -4.096,0.552 -7.949,0.619 -3.235,0.069 -5.816,0.482 -7.742,1.239 -1.308,5.094 -1.961,9.119 -1.961,12.078 0,1.996 0.274,3.579 0.826,4.748 3.234,2.271 8.843,3.236 16.827,2.891 0.55,0 1.135,-0.258 1.755,-0.774 0.619,-0.516 1.135,-0.774 1.548,-0.774 1.926,-0.412 3.2,1.033 3.819,4.336 0.207,1.102 0.016,2.116 -0.567,3.046 -0.586,0.929 -1.429,1.427 -2.529,1.496 -8.328,0.274 -15.554,-0.379 -21.679,-1.961 -1.928,-0.482 -3.683,-1.549 -5.265,-3.2 -1.584,-1.651 -2.478,-3.51 -2.684,-5.574 -0.62,-5.987 -0.62,-11.355 0,-16.104 -1.928,-1.307 -2.787,-2.581 -2.581,-3.819 0.068,-0.619 0.602,-1.188 1.6,-1.703 0.997,-0.517 1.565,-1.049 1.704,-1.601 0.137,-0.55 0.413,-3.819 0.826,-9.807 -3.855,-0.757 -5.747,-2.202 -5.678,-4.336 0.068,-1.995 1.272,-3.578 3.613,-4.749 2.202,-0.894 4.403,-1.788 6.607,-2.684 2.545,-1.307 5.745,-2.478 9.6,-3.51 3.372,-0.894 6.744,-1.755 10.117,-2.581 0.344,-0.067 0.757,-0.104 1.239,-0.104 1.858,0 4.026,0.723 6.504,2.168 0.068,0.276 0.24,0.792 0.516,1.549 0.274,0.758 0.413,1.308 0.413,1.651 -0.001,0.553 -0.243,1 -0.724,1.343 z" />
		<path
   id="path34"
   d="m 292.336,146.329 c -0.482,4.817 -1.858,11.252 -4.129,19.304 -3.097,10.806 -4.888,17.343 -5.368,19.614 -1.515,6.952 -4.405,13.283 -8.671,18.994 -2.684,3.647 -5.781,5.437 -9.291,5.368 -3.097,-0.069 -5.403,-2.03 -6.917,-5.884 -2.616,-6.469 -3.923,-14.073 -3.923,-22.814 0,-5.022 0.481,-11.492 1.445,-19.407 -0.069,0.688 -0.103,-1.445 -0.103,-6.4 0,-4.267 1.651,-6.4 4.955,-6.4 0.687,0 1.427,0.19 2.219,0.567 0.791,0.379 1.564,0.774 2.323,1.188 0.068,3.51 -0.036,8.671 -0.31,15.484 -0.345,7.296 -0.516,12.561 -0.516,15.795 0,3.441 0.103,6.572 0.31,9.394 0.137,1.445 0.756,4.199 1.858,8.259 2.891,-3.234 5.162,-7.536 6.813,-12.904 0.55,-1.788 1.652,-6.674 3.303,-14.658 1.307,-6.056 2.788,-10.804 4.439,-14.246 0.481,-0.963 0.894,-2.787 1.239,-5.472 0.344,-2.684 0.757,-4.542 1.239,-5.574 0.757,-1.651 2.065,-2.478 3.923,-2.478 2.409,-0.001 4.13,0.756 5.162,2.27 z" />
		<path
   id="path36"
   d="m 332.699,176.782 c -1.857,4.611 -3.063,10.289 -3.613,17.033 -0.345,5.85 -0.654,11.699 -0.929,17.549 -0.139,1.72 -1.274,2.581 -3.407,2.581 -0.619,0 -1.205,-0.104 -1.754,-0.31 -2.96,-1.239 -4.439,-3.546 -4.439,-6.917 0,-0.964 0.137,-2.426 0.413,-4.387 0.274,-1.962 0.413,-3.39 0.413,-4.284 0.274,-1.995 0.62,-4.989 1.032,-8.981 -4.749,4.475 -10.117,7.812 -16.104,10.014 -0.826,0.275 -1.652,0.413 -2.478,0.413 -3.167,0 -6.091,-1.789 -8.774,-5.368 -1.513,-1.995 -2.271,-4.473 -2.271,-7.433 0,-2.615 0.585,-5.678 1.755,-9.188 3.647,-11.149 9.462,-22.057 17.446,-32.725 3.991,-5.299 7.536,-7.949 10.633,-7.949 2.752,0 4.301,1.032 4.646,3.098 0.274,1.721 -0.31,2.959 -1.755,3.716 -2.41,1.309 -3.683,2.031 -3.82,2.168 -5.781,6.4 -11.081,14.659 -15.897,24.775 -2.96,6.264 -4.439,11.872 -4.439,16.827 0,0.895 0.034,1.79 0.103,2.684 0.137,0.069 0.344,0.397 0.62,0.98 0.274,0.586 0.653,0.774 1.136,0.568 4.542,-1.789 11.389,-6.504 20.543,-14.143 0.687,-0.551 1.479,-2.133 2.374,-4.749 0.688,-1.926 1.926,-2.891 3.717,-2.891 -0.552,0 0,-0.067 1.651,-0.206 0.826,-0.138 1.376,0 1.651,0.413 1.307,1.927 1.962,3.51 1.962,4.748 -0.002,0.621 -0.14,1.277 -0.415,1.964 z" />
		<path
   id="path38"
   d="m 375.023,150.974 c -2.547,1.033 -6.297,2.237 -11.252,3.613 -4.955,1.378 -8.707,2.581 -11.253,3.613 -0.619,1.79 -1.067,5.781 -1.342,11.975 1.101,0.413 2.374,0.62 3.819,0.62 1.033,0 2.648,-0.172 4.852,-0.517 2.202,-0.344 3.82,-0.517 4.853,-0.517 1.926,0 3.577,0.413 4.955,1.239 0.963,1.378 1.445,2.271 1.445,2.684 0,0.482 -0.242,0.861 -0.723,1.136 -0.139,0.069 -0.62,0.552 -1.445,1.445 -0.552,0.619 -1.239,0.896 -2.064,0.826 -1.445,0.345 -4.096,0.552 -7.949,0.619 -3.235,0.069 -5.816,0.482 -7.742,1.239 -1.308,5.094 -1.962,9.119 -1.962,12.078 0,1.996 0.275,3.579 0.826,4.748 3.234,2.271 8.843,3.236 16.827,2.891 0.55,0 1.136,-0.258 1.755,-0.774 0.619,-0.516 1.135,-0.774 1.549,-0.774 1.926,-0.412 3.199,1.033 3.818,4.336 0.207,1.102 0.017,2.116 -0.566,3.046 -0.586,0.929 -1.43,1.427 -2.529,1.496 -8.328,0.274 -15.555,-0.379 -21.68,-1.961 -1.928,-0.482 -3.682,-1.549 -5.264,-3.2 -1.584,-1.651 -2.479,-3.51 -2.685,-5.574 -0.62,-5.987 -0.62,-11.355 0,-16.104 -1.928,-1.307 -2.787,-2.581 -2.581,-3.819 0.068,-0.619 0.602,-1.188 1.6,-1.703 0.998,-0.517 1.565,-1.049 1.704,-1.601 0.138,-0.55 0.413,-3.819 0.825,-9.807 -3.854,-0.757 -5.746,-2.202 -5.678,-4.336 0.068,-1.995 1.273,-3.578 3.613,-4.749 2.202,-0.894 4.404,-1.788 6.607,-2.684 2.614,-1.307 5.849,-2.478 9.703,-3.51 3.304,-0.894 6.641,-1.755 10.014,-2.581 0.344,-0.067 0.757,-0.104 1.238,-0.104 1.859,0 4.027,0.723 6.504,2.168 0.068,0.276 0.24,0.792 0.517,1.549 0.274,0.758 0.413,1.308 0.413,1.651 10e-4,0.553 -0.241,1 -0.722,1.343 z" />
		<path
   id="path40"
   d="m 421.064,140.031 c -0.965,9.224 -1.894,18.479 -2.787,27.77 -1.171,11.012 -1.755,20.199 -1.755,27.563 0,2.41 0.067,4.784 0.206,7.123 0.068,1.101 -0.327,2.064 -1.188,2.891 -0.861,0.826 -1.842,1.239 -2.941,1.239 -2.135,0 -3.923,-1.445 -5.368,-4.336 -4.405,-8.603 -9.876,-22.092 -16.413,-40.467 -0.14,-0.413 -0.311,-0.619 -0.518,-0.619 -0.481,0 -0.791,0.481 -0.928,1.445 -1.172,9.842 -1.756,20.199 -1.756,31.072 0,5.23 0.137,10.563 0.413,16.001 0.067,1.995 -0.517,3.371 -1.755,4.129 -0.482,0.481 -0.998,0.723 -1.549,0.723 -0.482,0 -1.102,-0.206 -1.857,-0.619 -1.033,-0.482 -1.688,-0.792 -1.962,-0.929 -0.896,-0.276 -1.445,-1.102 -1.651,-2.478 -0.069,-1.103 -0.139,-2.237 -0.207,-3.407 -0.206,-3.854 -0.309,-7.879 -0.309,-12.078 0,-7.294 0.412,-16.414 1.238,-27.356 1.307,-16.654 2.029,-25.875 2.168,-27.666 0.067,-1.513 1.342,-2.271 3.819,-2.271 1.169,-0.138 2.891,0.723 5.161,2.58 2.202,4.199 4.92,11.013 8.156,20.44 3.096,9.017 5.918,15.863 8.465,20.543 1.031,-9.152 2.648,-22.985 4.852,-41.499 0.207,-1.376 1.203,-2.064 2.994,-2.064 0.619,0 1.342,0.103 2.168,0.31 1.1,0.275 1.754,0.448 1.961,0.516 0.689,0.275 1.136,0.758 1.343,1.444 z" />
		<path
   id="path42"
   d="m 461.84,150.974 c -2.547,1.033 -6.297,2.237 -11.252,3.613 -4.955,1.378 -8.707,2.581 -11.252,3.613 -0.619,1.79 -1.068,5.781 -1.342,11.975 1.1,0.413 2.374,0.62 3.818,0.62 1.033,0 2.649,-0.172 4.853,-0.517 2.202,-0.344 3.819,-0.517 4.853,-0.517 1.926,0 3.577,0.413 4.955,1.239 0.963,1.378 1.445,2.271 1.445,2.684 0,0.482 -0.242,0.861 -0.723,1.136 -0.139,0.069 -0.62,0.552 -1.445,1.445 -0.553,0.619 -1.239,0.896 -2.064,0.826 -1.445,0.345 -4.096,0.552 -7.949,0.619 -3.236,0.069 -5.816,0.482 -7.742,1.239 -1.309,5.094 -1.962,9.119 -1.962,12.078 0,1.996 0.274,3.579 0.825,4.748 3.234,2.271 8.844,3.236 16.828,2.891 0.549,0 1.135,-0.258 1.754,-0.774 0.619,-0.516 1.136,-0.774 1.549,-0.774 1.926,-0.412 3.2,1.033 3.819,4.336 0.206,1.102 0.017,2.116 -0.567,3.046 -0.586,0.929 -1.43,1.427 -2.529,1.496 -8.328,0.274 -15.555,-0.379 -21.679,-1.961 -1.928,-0.482 -3.683,-1.549 -5.265,-3.2 -1.584,-1.651 -2.478,-3.51 -2.684,-5.574 -0.62,-5.987 -0.62,-11.355 0,-16.104 -1.928,-1.307 -2.787,-2.581 -2.582,-3.819 0.068,-0.619 0.603,-1.188 1.601,-1.703 0.997,-0.517 1.565,-1.049 1.704,-1.601 0.137,-0.55 0.412,-3.819 0.825,-9.807 -3.854,-0.757 -5.747,-2.202 -5.678,-4.336 0.067,-1.995 1.272,-3.578 3.613,-4.749 2.202,-0.894 4.403,-1.788 6.606,-2.684 2.615,-1.307 5.85,-2.478 9.704,-3.51 3.304,-0.894 6.641,-1.755 10.013,-2.581 0.344,-0.067 0.758,-0.104 1.239,-0.104 1.858,0 4.026,0.723 6.504,2.168 0.067,0.276 0.24,0.792 0.517,1.549 0.273,0.758 0.412,1.308 0.412,1.651 10e-4,0.553 -0.242,1 -0.722,1.343 z" />
	</g>
</g>
</svg>
