<?xml version="1.0" encoding="utf-8"?>
<!-- Generator: Adobe Illustrator 16.2.1, SVG Export Plug-In . SVG Version: 6.00 Build 0)  -->
<!DOCTYPE svg PUBLIC "-//W3C//DTD SVG 1.1//EN" "http://www.w3.org/Graphics/SVG/1.1/DTD/svg11.dtd">
<svg version="1.1" id="Layer_1" xmlns="http://www.w3.org/2000/svg" xmlns:xlink="http://www.w3.org/1999/xlink" x="0px" y="0px"
	 width="18px" height="18px" viewBox="-1.5 -1.5 18 18" enable-background="new -1.5 -1.5 18 18" xml:space="preserve">
<path id="House_2_x2C__Home_2" fill="#FFFFFF" d="M7.863-0.329C7.662-0.526,7.338-0.549,7.137-0.352l-8.521,8.447
	C-1.585,8.294-1.518,8.5-1.234,8.5H0.5V15c0,0.276,0.224,0.5,0.5,0.5h3.932c0.283,0,0.568-0.227,0.568-0.507V11
	c0-0.276,0.224-0.5,0.5-0.5h3c0.276,0,0.5,0.224,0.5,0.5v3.993c0,0.28,0.285,0.507,0.568,0.507H14c0.276,0,0.5-0.224,0.5-0.5V8.5
	h1.734c0.283,0,0.351-0.206,0.15-0.404L7.863-0.329z"/>
</svg>
