<?xml version="1.0" encoding="UTF-8" standalone="no"?>
<svg
   xmlns:dc="http://purl.org/dc/elements/1.1/"
   xmlns:cc="http://creativecommons.org/ns#"
   xmlns:rdf="http://www.w3.org/1999/02/22-rdf-syntax-ns#"
   xmlns:svg="http://www.w3.org/2000/svg"
   xmlns="http://www.w3.org/2000/svg"
   xmlns:sodipodi="http://sodipodi.sourceforge.net/DTD/sodipodi-0.dtd"
   xmlns:inkscape="http://www.inkscape.org/namespaces/inkscape"
   inkscape:version="1.0 (4035a4f, 2020-05-01)"
   sodipodi:docname="IndianapolisIcon.svg"
   xml:space="preserve"
   enable-background="new 0 0 597 437"
   viewBox="0 0 437.25705 283.22855"
   height="283.22855"
   width="437.25705"
   y="0px"
   x="0px"
   id="Layer_1"
   version="1.1"><metadata
   id="metadata176"><rdf:RDF><cc:Work
       rdf:about=""><dc:format>image/svg+xml</dc:format><dc:type
         rdf:resource="http://purl.org/dc/dcmitype/StillImage" /></cc:Work></rdf:RDF></metadata><defs
   id="defs174" /><sodipodi:namedview
   inkscape:current-layer="Layer_1"
   inkscape:window-maximized="1"
   inkscape:window-y="23"
   inkscape:window-x="0"
   inkscape:cy="146.50923"
   inkscape:cx="222.59709"
   inkscape:zoom="1.7621441"
   showgrid="false"
   id="namedview172"
   inkscape:window-height="933"
   inkscape:window-width="1680"
   inkscape:pageshadow="2"
   inkscape:pageopacity="0"
   guidetolerance="10"
   gridtolerance="10"
   objecttolerance="10"
   borderopacity="1"
   bordercolor="#666666"
   pagecolor="#ffffff" />
<g
   transform="translate(-75.902908,-71.990773)"
   id="g131">
	<path
   id="path129"
   d="m 114.638,232.142 c 0.205,-10.38 2.634,-22.152 -1.702,-31.942 -1.79,-4.047 -6.104,-6.389 -10.126,-4.859 -4.098,1.557 -5.279,8.261 -5.954,12.175 -1.633,9.553 -1.82,22.331 5.703,29.103 10.303,9.266 13.583,-13.509 14.26,-19.353 0.326,-2.779 -3.275,-7.167 -3.805,-2.584 -0.636,5.492 -1.971,20.686 -10.189,15.56 -5.218,-3.252 -2.902,-16.047 -1.878,-21.148 0.739,-3.691 2.271,-7.751 6.384,-7.315 4.487,0.474 4.116,6.708 4.216,10.274 0.169,5.859 -0.595,11.662 -0.713,17.507 -0.051,2.719 3.718,7.195 3.804,2.582 z" />
</g>
<g
   transform="translate(-75.902908,-71.990773)"
   id="g137">
	<g
   id="g135">
		<path
   id="path133"
   d="m 458.47,89.992 c 14.146,-0.027 32.104,-2.871 41.215,10.641 6.063,8.993 7.047,21.131 8.1,31.583 1.633,16.207 1.166,32.581 0.802,48.837 -0.728,32.409 1.432,64.721 1.48,97.126 0.021,14.16 0.442,28.821 -2.187,42.795 -1.62,8.613 -5.176,17.117 -12.393,22.459 -6.612,4.895 -15.432,5.764 -23.386,5.925 -14.086,0.285 -28.168,-0.387 -42.273,0.079 -32.112,1.063 -64.145,3.965 -96.295,3.894 -16.928,-0.036 -33.798,-1.439 -50.694,-2.318 -16.555,-0.861 -33.117,-1.566 -49.681,-2.198 -30.216,-1.153 -60.624,-3.107 -90.825,-1.759 -6.813,0.304 -13.049,-0.95 -17.638,-6.354 -3.956,-4.656 -4.995,-10.773 -5.652,-16.648 -1.309,-11.715 -1.214,-22.297 -6.489,-33.126 -8.947,-18.371 -23.873,-33.501 -29.655,-53.413 -3.508,-12.079 -3.101,-25.33 -0.433,-37.527 2.255,-10.313 9.018,-15.688 15.573,-23.206 7.956,-9.123 11.302,-20.135 12.23,-32.018 0.987,-12.633 -0.974,-25.464 2.183,-37.88 5.114,-20.116 25.105,-21.32 42.473,-21.288 30.625,0.055 61.246,0.326 91.867,0.862 65.51,1.146 131.005,3.142 196.527,3.478 5.977,0.03 11.953,0.042 17.93,0.044 1.675,0 2.206,-2.174 0.242,-2.175 C 395.883,87.786 330.298,85.91 264.706,84.614 231.779,83.963 198.847,83.491 165.913,83.463 150.684,83.45 131.866,81.2 119.059,91.298 c -17.179,13.545 -9.876,41.452 -12.407,60.059 -1.68,12.349 -8.053,21.867 -16.702,30.421 -7.162,7.083 -10.22,15.198 -11.617,25.116 -1.591,11.294 -1.021,22.816 2.368,33.73 2.805,9.033 7.782,17.217 12.937,25.072 5.703,8.692 11.597,17.209 16.268,26.523 5.66,11.288 4.986,23.177 6.575,35.384 1.216,9.346 6.129,18.924 16.146,20.964 4.954,1.01 9.942,0.695 14.95,0.326 7.849,-0.579 15.658,-0.199 23.517,0.04 32.945,1.002 65.889,2.079 98.813,3.642 32.2,1.527 64.013,3.557 96.27,2.196 31.985,-1.349 63.923,-4.1 95.963,-3.443 14.985,0.307 31.572,0.452 41.522,-12.721 5.229,-6.922 7.127,-15.938 8.163,-24.358 1.866,-15.18 1.282,-30.913 1.121,-46.175 -0.174,-16.509 -0.811,-33.009 -1.442,-49.505 -0.604,-15.744 -0.074,-31.475 0.221,-47.219 0.284,-15.144 0.015,-30.21 -1.612,-45.277 -1.018,-9.421 -2.869,-19.45 -8.261,-27.447 -9.287,-13.773 -28.887,-10.835 -43.139,-10.808 -1.676,0.003 -2.208,2.178 -0.243,2.174 z" />
	</g>
</g>
<g
   transform="translate(-75.902908,-71.990773)"
   id="g147">
	<path
   id="path139"
   d="m 244.348,123.53 c 0.172,2.972 0.26,6.044 0.26,9.217 0,6.966 -0.605,17.462 -1.814,31.491 -1.21,14.032 -1.813,24.631 -1.813,31.798 0,2.665 0.042,5.273 0.129,7.834 -0.777,2.866 -2.461,4.249 -5.051,4.147 -3.715,-0.207 -5.744,-2.1 -6.088,-5.684 -0.346,-3.583 -0.519,-7.374 -0.519,-11.368 0,-6.963 0.712,-17.358 2.138,-31.183 1.424,-13.825 2.137,-24.168 2.137,-31.03 0,-2.662 -0.087,-5.273 -0.259,-7.834 0.862,-1.944 2.331,-2.918 4.403,-2.918 1.64,0 3.281,0.564 4.922,1.69 0.344,-0.308 0.604,-0.461 0.777,-0.461 0.26,0 0.389,0.514 0.389,1.536 -0.087,1.229 -0.087,1.946 0,2.15 0.085,0.308 0.215,0.514 0.389,0.615 z" />
	<path
   id="path141"
   d="m 308.52,133.452 c -1.21,10.257 -2.376,20.551 -3.497,30.884 -1.47,12.247 -2.202,22.464 -2.202,30.654 0,2.68 0.085,5.321 0.26,7.922 0.084,1.223 -0.412,2.296 -1.49,3.214 -1.08,0.918 -2.311,1.378 -3.691,1.378 -2.678,0 -4.922,-1.607 -6.735,-4.822 -5.526,-9.566 -12.392,-24.569 -20.595,-45.005 -0.174,-0.459 -0.389,-0.689 -0.647,-0.689 -0.604,0 -0.993,0.537 -1.165,1.607 -1.47,10.946 -2.203,22.465 -2.203,34.558 0,5.818 0.173,11.748 0.519,17.795 0.085,2.219 -0.647,3.749 -2.202,4.593 -0.604,0.534 -1.252,0.803 -1.942,0.803 -0.604,0 -1.382,-0.229 -2.331,-0.688 -1.296,-0.536 -2.117,-0.881 -2.461,-1.033 -1.123,-0.307 -1.814,-1.225 -2.072,-2.755 -0.088,-1.225 -0.175,-2.488 -0.26,-3.789 -0.259,-4.288 -0.389,-8.764 -0.389,-13.433 0,-8.112 0.518,-18.254 1.555,-30.424 1.639,-18.522 2.546,-28.778 2.72,-30.769 0.085,-1.683 1.685,-2.526 4.792,-2.526 1.468,-0.153 3.627,0.804 6.477,2.87 2.763,4.67 6.173,12.247 10.232,22.732 3.887,10.028 7.426,17.644 10.621,22.848 1.295,-10.179 3.323,-25.563 6.088,-46.154 0.26,-1.53 1.51,-2.296 3.756,-2.296 0.777,0 1.684,0.115 2.721,0.344 1.38,0.307 2.201,0.499 2.461,0.574 0.857,0.306 1.421,0.843 1.68,1.607 z" />
	<path
   id="path143"
   d="m 352.687,172.694 c -0.864,1.987 -1.684,3.973 -2.461,5.958 -1.036,2.332 -2.159,4.189 -3.368,5.57 -2.677,3.368 -5.354,6.693 -8.029,9.973 -3.196,3.973 -6.088,6.735 -8.679,8.29 -0.864,1.037 -1.813,2.115 -2.85,3.238 -1.036,1.121 -2.073,1.684 -3.108,1.684 -0.519,0 -1.123,-0.13 -1.813,-0.389 -0.692,-0.259 -1.447,-0.563 -2.267,-0.907 -0.822,-0.346 -1.404,-0.907 -1.749,-1.684 -0.259,-3.626 -0.389,-7.512 -0.389,-11.657 0,-4.229 0.173,-10.534 0.519,-18.911 0.344,-8.375 0.518,-14.679 0.518,-18.911 0,-5.612 -0.217,-10.75 -0.647,-15.414 -0.087,-0.085 -1.036,-1.079 -2.85,-2.979 -1.123,-1.121 -1.684,-2.157 -1.684,-3.108 0,-0.431 0.085,-0.862 0.259,-1.295 0.432,-1.036 1.381,-1.639 2.85,-1.813 1.121,-0.172 2.244,-0.301 3.367,-0.389 7.254,1.555 14.852,5.614 22.797,12.176 2.072,1.728 3.756,3.542 5.052,5.44 4.145,6.132 6.218,11.874 6.218,17.227 -0.002,2.765 -0.565,5.398 -1.686,7.901 z m -9.326,-13.859 c -0.777,-5.44 -5.398,-10.232 -13.859,-14.377 -0.605,14.422 -0.777,29.706 -0.519,45.852 9.757,-9.757 14.636,-19.04 14.636,-27.848 0,-1.209 -0.086,-2.417 -0.258,-3.627 z" />
	<path
   id="path145"
   d="m 402.682,124.64 c -2.418,9.759 -6.864,22.453 -13.341,38.081 -7.6,18.221 -12.479,30.785 -14.636,37.692 -0.434,1.38 -0.648,3.109 -0.648,5.181 0.086,2.85 0.086,4.663 0,5.44 -0.259,3.021 -1.857,4.533 -4.792,4.533 -1.47,0.173 -3.044,-0.323 -4.728,-1.488 -1.684,-1.167 -2.483,-2.397 -2.396,-3.692 0.26,-6.304 1.855,-13.513 4.793,-21.631 2.675,-6.907 5.353,-13.814 8.03,-20.724 -6.132,-16.405 -11.356,-28.409 -15.673,-36.008 -0.259,-0.431 -0.389,-0.862 -0.389,-1.295 0,-0.949 0.539,-1.833 1.619,-2.655 1.078,-0.82 2.137,-1.23 3.174,-1.23 0.172,0 1.813,0.476 4.922,1.425 2.157,3.283 4.403,7.512 6.734,12.693 1.986,4.404 3.929,8.808 5.829,13.211 1.727,-5.181 3.452,-10.317 5.181,-15.413 1.986,-5.958 4.188,-10.88 6.606,-14.766 0.69,-1.208 1.898,-1.813 3.626,-1.813 2.418,-0.002 4.448,0.82 6.089,2.459 z" />
</g>
<g
   transform="translate(-75.902908,-71.990773)"
   id="g163">
	<path
   id="path149"
   d="m 217.669,261.488 c -0.928,3.849 -3.28,7.342 -7.058,10.479 -3.635,2.566 -7.271,5.097 -10.906,7.592 0.214,1.068 0.944,1.871 2.192,2.405 1.246,0.534 2.44,1.053 3.582,1.55 5.916,3.85 8.874,8.412 8.874,13.687 0,4.063 -1.39,7.806 -4.17,11.228 -2.139,2.637 -5.311,5.239 -9.516,7.806 -3.422,1.994 -6.844,3.991 -10.266,5.987 -0.854,0.498 -1.782,0.749 -2.779,0.749 -2.353,0 -3.993,-0.963 -4.919,-2.888 0.143,-5.987 0.284,-11.94 0.428,-17.856 0.142,-7.127 0.535,-13.008 1.176,-17.643 -1.496,-0.997 -2.245,-2.138 -2.245,-3.421 0,-0.642 0.268,-1.23 0.802,-1.765 0.535,-0.534 1.265,-1.122 2.192,-1.765 0.855,-10.834 1.032,-20.813 0.534,-29.938 -3.352,-0.642 -5.56,-2.138 -6.629,-4.491 -0.072,-0.283 0.054,-0.711 0.374,-1.283 0.321,-0.569 0.481,-1.031 0.481,-1.39 1.639,-1.211 3.456,-1.817 5.453,-1.817 1.425,0 4.704,0.465 9.837,1.39 2.637,0.428 5.382,1.39 8.233,2.888 7.698,3.992 12.225,7.877 13.579,11.654 0.928,2.708 1.179,4.989 0.751,6.842 z m -13.259,36.568 c 0.142,-0.783 0.214,-1.531 0.214,-2.245 0,-2.139 -0.679,-4.026 -2.032,-5.667 -3.635,-1.781 -5.952,-2.673 -6.949,-2.673 -0.572,0 -1.106,0.106 -1.604,0.32 0.07,0.714 0.107,1.497 0.107,2.353 0,1.497 -0.197,3.796 -0.589,6.896 -0.393,3.101 -0.588,5.437 -0.588,7.004 0,2.282 0.284,4.347 0.855,6.201 0.855,-0.999 2.192,-2.05 4.01,-3.154 1.818,-1.104 3.082,-2.085 3.796,-2.94 1.283,-1.498 2.209,-3.529 2.78,-6.095 z m 3.207,-41.914 c -0.357,-2.637 -2.495,-4.668 -6.415,-6.095 -0.571,-0.214 -1.462,-0.677 -2.673,-1.391 -0.855,-0.569 -1.569,-0.855 -2.139,-0.855 -0.286,0 -0.606,0.072 -0.962,0.215 -0.072,1.213 -0.107,2.496 -0.107,3.849 0,1.854 0.142,4.991 0.428,9.409 0.214,4.063 0.284,7.236 0.214,9.517 0.498,0 1.246,-0.374 2.245,-1.122 0.998,-0.749 1.567,-1.158 1.711,-1.23 2.139,-0.997 4.026,-2.673 5.667,-5.025 1.639,-2.353 2.315,-4.776 2.031,-7.272 z" />
	<path
   id="path151"
   d="m 234.134,253.896 c 0.142,2.068 0.214,4.207 0.214,6.415 0,4.849 -0.5,12.154 -1.497,21.919 -0.999,9.768 -1.497,17.146 -1.497,22.134 0,1.854 0.035,3.671 0.106,5.453 -0.642,1.995 -2.031,2.957 -4.17,2.888 -3.065,-0.145 -4.741,-1.462 -5.025,-3.957 -0.285,-2.494 -0.428,-5.132 -0.428,-7.912 0,-4.847 0.588,-12.082 1.765,-21.705 1.176,-9.623 1.764,-16.822 1.764,-21.6 0,-1.853 -0.071,-3.67 -0.214,-5.453 0.712,-1.354 1.925,-2.031 3.636,-2.031 1.354,0 2.708,0.393 4.063,1.176 0.284,-0.213 0.498,-0.32 0.642,-0.32 0.214,0 0.32,0.357 0.32,1.068 -0.071,0.855 -0.071,1.355 0,1.498 0.07,0.213 0.177,0.357 0.321,0.427 z" />
	<path
   id="path153"
   d="m 276.903,302.119 c 0.428,0.357 0.642,0.855 0.642,1.497 0,0.428 -0.286,1.497 -0.855,3.208 -0.286,-0.07 -0.535,-0.107 -0.749,-0.107 -0.428,0 -0.98,0.179 -1.657,0.535 -0.678,0.357 -1.194,0.534 -1.551,0.534 -0.357,0 -0.748,-0.142 -1.176,-0.428 -4.776,-2.994 -12.189,-7.484 -22.24,-13.473 0.214,2.639 0.391,6.416 0.534,11.334 0,0.571 0.07,1.427 0.214,2.566 0.143,1.14 0.214,1.96 0.214,2.459 0,1.711 -0.748,2.888 -2.245,3.529 -0.428,0.283 -1.034,0.427 -1.817,0.427 -0.855,0 -1.391,-0.25 -1.604,-0.748 -1.854,-0.642 -2.924,-1.89 -3.207,-3.742 -0.855,-5.133 -1.283,-11.155 -1.283,-18.07 0,-2.494 0.07,-6.219 0.214,-11.174 0.142,-4.953 0.214,-8.678 0.214,-11.174 0,-7.555 -0.5,-14.113 -1.497,-19.674 -0.144,-0.855 0.355,-1.426 1.497,-1.711 0.855,-0.143 1.745,-0.284 2.673,-0.428 0.926,0.285 1.888,0.625 2.887,1.016 0.998,0.393 1.532,1.016 1.604,1.871 1.069,9.695 1.531,17.395 1.39,23.096 2.922,-2.636 6.271,-6.129 10.051,-10.479 3.208,-3.635 6.379,-7.306 9.517,-11.014 0.855,-0.355 1.781,-0.533 2.78,-0.533 2.779,0 4.24,0.961 4.384,2.887 -1.997,4.42 -5.918,9.66 -11.762,15.717 -6.844,7.058 -11.228,12.083 -13.152,15.077 4.419,2.638 8.875,5.276 13.366,7.912 4.985,3.139 9.192,6.168 12.614,9.09 z" />
	<path
   id="path155"
   d="m 317.001,254.537 c -2.639,1.07 -6.522,2.318 -11.655,3.742 -5.132,1.428 -9.019,2.674 -11.654,3.743 -0.642,1.854 -1.106,5.987 -1.391,12.403 1.14,0.428 2.46,0.642 3.956,0.642 1.069,0 2.744,-0.177 5.025,-0.534 2.281,-0.356 3.957,-0.535 5.026,-0.535 1.994,0 3.705,0.428 5.132,1.283 0.997,1.427 1.497,2.352 1.497,2.779 0,0.5 -0.251,0.893 -0.748,1.177 -0.145,0.071 -0.642,0.571 -1.497,1.497 -0.571,0.642 -1.283,0.928 -2.139,0.855 -1.497,0.357 -4.242,0.571 -8.233,0.641 -3.352,0.072 -6.024,0.5 -8.02,1.283 -1.354,5.276 -2.031,9.446 -2.031,12.511 0,2.068 0.284,3.707 0.855,4.919 3.35,2.352 9.158,3.351 17.429,2.993 0.569,0 1.176,-0.267 1.817,-0.802 0.642,-0.534 1.177,-0.802 1.604,-0.802 1.994,-0.428 3.314,1.069 3.956,4.491 0.214,1.141 0.017,2.191 -0.588,3.154 -0.606,0.962 -1.48,1.479 -2.62,1.55 -8.626,0.284 -16.11,-0.393 -22.454,-2.031 -1.997,-0.5 -3.814,-1.604 -5.453,-3.314 -1.641,-1.711 -2.566,-3.636 -2.78,-5.774 -0.642,-6.201 -0.642,-11.762 0,-16.68 -1.996,-1.354 -2.887,-2.674 -2.673,-3.957 0.07,-0.641 0.623,-1.229 1.657,-1.764 1.032,-0.535 1.62,-1.086 1.765,-1.658 0.142,-0.568 0.427,-3.955 0.854,-10.157 -3.992,-0.784 -5.952,-2.28 -5.881,-4.491 0.07,-2.066 1.318,-3.705 3.743,-4.918 2.28,-0.926 4.561,-1.854 6.843,-2.78 2.637,-1.353 5.951,-2.565 9.944,-3.636 3.491,-0.926 6.985,-1.817 10.479,-2.673 0.355,-0.07 0.783,-0.106 1.283,-0.106 1.925,0 4.17,0.748 6.736,2.245 0.07,0.286 0.249,0.82 0.534,1.604 0.284,0.785 0.428,1.354 0.428,1.71 0.002,0.572 -0.249,1.035 -0.746,1.39 z" />
	<path
   id="path157"
   d="m 373.242,241.386 c -0.642,2.566 -1.854,4.063 -3.636,4.491 -4.634,1.141 -12.688,2.638 -24.164,4.49 -1.427,17.75 -2.139,32.543 -2.139,44.374 0,4.491 0.07,8.912 0.214,13.259 0.07,1.354 0,2.388 -0.214,3.101 -0.357,1.14 -1.069,1.674 -2.139,1.604 -2.068,-0.072 -3.779,-0.946 -5.133,-2.62 -1.354,-1.676 -2.104,-3.545 -2.245,-5.613 -0.144,-2.637 -0.214,-5.417 -0.214,-8.34 0,-4.705 0.321,-12.153 0.962,-22.348 0.642,-9.765 0.926,-17.215 0.855,-22.347 -1.924,-0.143 -4.598,0.036 -8.019,0.533 -3.922,0.572 -6.63,0.855 -8.127,0.855 -3.491,0 -6.344,-0.934 -8.554,-2.803 -0.855,-1.867 -1.283,-2.838 -1.283,-2.91 0,-0.503 0.251,-1.043 0.749,-1.617 2.281,-0.791 6.949,-1.509 14.007,-2.157 6.201,-0.646 10.834,-1.796 13.9,-3.45 2.494,0.855 5.346,1.283 8.554,1.283 3.208,0 6.271,-0.391 9.195,-1.176 0.855,-0.07 3.029,-0.57 6.522,-1.497 2.566,-0.642 4.705,-0.855 6.416,-0.642 1.282,0 1.817,0.535 1.604,1.604 1.927,0.001 2.889,0.643 2.889,1.926 z" />
	<path
   id="path159"
   d="m 397.514,302.867 c 0.428,1.142 0.642,2.139 0.642,2.994 0,1.427 -0.606,2.673 -1.817,3.742 -1.213,1.069 -2.032,1.567 -2.46,1.497 -3.493,-0.642 -5.703,-3.456 -6.629,-8.447 -0.999,-5.416 -2.176,-9.943 -3.528,-13.579 -2.425,0.214 -4.849,0.428 -7.271,0.642 -2.779,0.357 -4.955,1.213 -6.522,2.566 -0.785,2.21 -1.817,6.131 -3.101,11.762 -1.213,5.202 -2.389,9.158 -3.528,11.868 -0.571,1.283 -1.783,1.64 -3.636,1.069 -2.353,-0.785 -3.601,-1.854 -3.742,-3.207 -0.214,-2.71 0.569,-6.344 2.353,-10.907 2.139,-5.202 3.314,-8.909 3.528,-11.12 0.07,-0.642 -0.393,-1.353 -1.39,-2.138 -0.999,-0.784 -1.497,-1.391 -1.497,-1.818 0,-0.355 0.16,-0.729 0.48,-1.122 0.321,-0.392 1.069,-0.712 2.246,-0.963 1.176,-0.249 1.834,-0.623 1.978,-1.123 1.283,-3.563 3.315,-10.192 6.095,-19.888 2.353,-8.41 4.454,-14.862 6.309,-19.354 0.428,-0.997 1.318,-1.496 2.674,-1.496 0.997,0 1.888,0.32 2.673,0.962 1.995,1.71 3.277,4.276 3.85,7.698 0.427,2.924 0.818,5.846 1.176,8.768 3.56,16.825 7.267,30.688 11.117,41.594 z m -15.612,-20.422 c -0.214,-2.637 -0.678,-5.596 -1.39,-8.875 -0.714,-2.85 -1.39,-5.702 -2.031,-8.555 -2.139,5.918 -3.993,11.834 -5.561,17.75 1.141,-0.213 4.135,-0.32 8.982,-0.32 z" />
	<path
   id="path161"
   d="m 439.962,281.27 c -1.924,4.775 -3.172,10.656 -3.742,17.642 -0.357,6.06 -0.678,12.118 -0.962,18.178 -0.144,1.78 -1.32,2.673 -3.528,2.673 -0.642,0 -1.248,-0.106 -1.818,-0.32 -3.065,-1.283 -4.598,-3.673 -4.598,-7.164 0,-0.999 0.143,-2.513 0.428,-4.545 0.284,-2.031 0.428,-3.51 0.428,-4.438 0.284,-2.066 0.642,-5.167 1.069,-9.302 -4.919,4.634 -10.479,8.091 -16.681,10.371 -0.854,0.286 -1.71,0.428 -2.565,0.428 -3.28,0 -6.309,-1.853 -9.089,-5.56 -1.567,-2.067 -2.353,-4.633 -2.353,-7.699 0,-2.708 0.606,-5.881 1.817,-9.516 3.778,-11.549 9.801,-22.846 18.07,-33.896 4.134,-5.488 7.806,-8.233 11.014,-8.233 2.851,0 4.454,1.069 4.812,3.208 0.284,1.782 -0.32,3.065 -1.817,3.849 -2.496,1.355 -3.814,2.104 -3.956,2.246 -5.988,6.629 -11.479,15.184 -16.467,25.662 -3.065,6.487 -4.598,12.296 -4.598,17.429 0,0.927 0.035,1.854 0.106,2.78 0.143,0.071 0.356,0.41 0.642,1.016 0.284,0.606 0.677,0.802 1.177,0.588 4.704,-1.853 11.797,-6.736 21.277,-14.648 0.712,-0.57 1.532,-2.209 2.46,-4.919 0.712,-1.995 1.994,-2.993 3.849,-2.993 -0.571,0 0,-0.07 1.711,-0.215 0.855,-0.142 1.426,0 1.711,0.428 1.354,1.997 2.031,3.636 2.031,4.919 0,0.64 -0.144,1.318 -0.428,2.031 z" />
</g>
<g
   transform="translate(-75.902908,-71.990773)"
   id="g169">
	<g
   id="g167">
		<path
   id="path165"
   d="m 85.945,193.185 c 6.373,-10.071 16.885,-18.601 19.743,-30.578 3.357,-14.07 5.543,-28.399 8.964,-42.46 2.279,-9.37 5.75,-18.568 11.826,-26.158 6.615,-8.262 16.317,-12.732 26.389,-15.192 14.229,-3.476 29.702,-3.838 44.268,-4.567 15.105,-0.755 30.241,-0.844 45.36,-0.581 29.968,0.521 59.672,3.608 89.555,5.399 16.349,0.979 32.709,1.744 49.057,2.735 14.013,0.85 28.088,2.805 42.124,2.841 20.636,0.054 44.173,-3.074 63.487,5.832 19.748,9.105 14.116,38.872 12.201,55.99 -1.191,10.649 -1.919,20.923 -1.39,31.65 0.763,15.467 3.049,30.822 4.44,46.236 1.336,14.79 0.479,29.527 1.258,44.32 0.744,14.127 2.477,28.187 2.46,42.352 -0.013,10.195 0.04,22.824 -8.888,29.525 -7.618,5.718 -18.819,6.424 -27.962,6.945 -9.024,0.516 -18.069,0.213 -27.102,0.405 -13.373,0.284 -26.664,1.333 -40.065,1.199 -32.624,-0.325 -65.122,-3.754 -97.671,-5.63 -16.305,-0.94 -32.554,-0.994 -48.874,-1.143 -17.022,-0.155 -34.006,-1.689 -50.95,-3.193 -12.522,-1.111 -24.906,-2.106 -37.479,-2.108 -9.019,-0.001 -18.346,0.069 -26.679,-3.845 -10.278,-4.828 -14.613,-15.302 -19.223,-24.909 -4.524,-9.43 -11.45,-17.382 -18.271,-25.197 -7.239,-8.295 -13.99,-16.782 -18.011,-27.15 -4.833,-12.461 -6.263,-28.107 -5.202,-41.32 0.989,-12.326 7.39,-21.356 15.458,-30.184 8.192,-8.962 13.809,-17.612 16.154,-29.717 2.443,-12.608 1.583,-25.612 6.056,-37.828 4.735,-12.935 16.037,-21.441 28.753,-25.6 26.5,-8.667 55.738,-4.051 82.783,-1.716 30.505,2.634 61.288,-1.051 91.842,-1.113 1.005,-0.002 3.112,-1.53 1.158,-1.526 -33.042,0.067 -66.015,3.663 -98.999,0.44 -25.464,-2.488 -52.222,-5.011 -77.137,2.602 -9.688,2.96 -18.421,8.229 -24.862,16.108 -8.412,10.291 -9.753,23.434 -10.895,36.174 -1.243,13.878 -3.849,26.135 -12.974,37.068 -7.377,8.839 -15.348,16.133 -18.763,27.491 -3.82,12.708 -1.345,27.422 0.991,40.168 1.959,10.689 7.187,20.17 13.779,28.668 6.423,8.279 13.894,15.658 19.885,24.286 6.371,9.175 9.091,20.323 16.864,28.56 12.204,12.933 32.39,9.711 48.348,10.198 15.56,0.475 31.11,2.637 46.634,3.771 16.408,1.199 32.717,1.197 49.151,1.422 32.623,0.446 65.116,3.898 97.671,5.713 16.263,0.906 32.552,1.333 48.836,0.87 10.261,-0.291 20.438,-1.1 30.708,-1.108 15.705,-0.014 34.797,0.955 48.343,-8.421 7.49,-5.185 8.5,-13.995 9.181,-22.434 1.086,-13.467 -0.426,-27.092 -1.466,-40.514 -1.115,-14.408 -0.454,-28.743 -1.144,-43.151 -0.743,-15.525 -3.02,-30.937 -4.436,-46.405 -1.149,-12.546 -1.35,-24.832 0.013,-37.347 1.136,-10.438 2.463,-20.868 2.404,-31.387 -0.048,-8.749 -1.198,-18.376 -7.07,-25.274 -5.473,-6.427 -15.597,-8.529 -23.477,-9.841 -21.424,-3.567 -43.433,-0.63 -65.008,-2.46 -31.962,-2.712 -64.046,-3.525 -96.004,-6.26 -29.435,-2.519 -58.977,-4.025 -88.524,-3.828 -14.448,0.097 -28.892,0.702 -43.293,1.871 -11.939,0.97 -24.062,1.946 -35.457,5.86 -17.404,5.978 -27.147,20.053 -32.091,37.166 -3.841,13.299 -5.893,27.145 -8.724,40.678 -1.648,7.88 -4.551,14.035 -9.325,20.517 -3.741,5.08 -8.034,9.749 -11.414,15.091 -0.675,1.079 2.22,0.731 2.686,-0.006 z" />
	</g>
</g>
</svg>
