<?xml version="1.0" encoding="utf-8"?>
<!-- Generator: Adobe Illustrator 16.0.0, SVG Export Plug-In . SVG Version: 6.00 Build 0)  -->
<!DOCTYPE svg PUBLIC "-//W3C//DTD SVG 1.1//EN" "http://www.w3.org/Graphics/SVG/1.1/DTD/svg11.dtd">
<svg version="1.1" id="Layer_1" xmlns="http://www.w3.org/2000/svg" xmlns:xlink="http://www.w3.org/1999/xlink" x="0px" y="0px"
	 width="597px" height="437px" viewBox="0 0 597 437" enable-background="new 0 0 597 437" xml:space="preserve">
<g>
	<path d="M114.638,232.142c0.205-10.38,2.634-22.152-1.702-31.942c-1.79-4.047-6.104-6.389-10.126-4.859
		c-4.098,1.557-5.279,8.261-5.954,12.175c-1.633,9.553-1.82,22.331,5.703,29.103c10.303,9.266,13.583-13.509,14.26-19.353
		c0.326-2.779-3.275-7.167-3.805-2.584c-0.636,5.492-1.971,20.686-10.189,15.56c-5.218-3.252-2.902-16.047-1.878-21.148
		c0.739-3.691,2.271-7.751,6.384-7.315c4.487,0.474,4.116,6.708,4.216,10.274c0.169,5.859-0.595,11.662-0.713,17.507
		C110.783,232.279,114.552,236.755,114.638,232.142L114.638,232.142z"/>
</g>
<g>
	<g>
		<path d="M458.47,89.992c14.146-0.027,32.104-2.871,41.215,10.641c6.063,8.993,7.047,21.131,8.1,31.583
			c1.633,16.207,1.166,32.581,0.802,48.837c-0.728,32.409,1.432,64.721,1.48,97.126c0.021,14.16,0.442,28.821-2.187,42.795
			c-1.62,8.613-5.176,17.117-12.393,22.459c-6.612,4.895-15.432,5.764-23.386,5.925c-14.086,0.285-28.168-0.387-42.273,0.079
			c-32.112,1.063-64.145,3.965-96.295,3.894c-16.928-0.036-33.798-1.439-50.694-2.318c-16.555-0.861-33.117-1.566-49.681-2.198
			c-30.216-1.153-60.624-3.107-90.825-1.759c-6.813,0.304-13.049-0.95-17.638-6.354c-3.956-4.656-4.995-10.773-5.652-16.648
			c-1.309-11.715-1.214-22.297-6.489-33.126c-8.947-18.371-23.873-33.501-29.655-53.413c-3.508-12.079-3.101-25.33-0.433-37.527
			c2.255-10.313,9.018-15.688,15.573-23.206c7.956-9.123,11.302-20.135,12.23-32.018c0.987-12.633-0.974-25.464,2.183-37.88
			c5.114-20.116,25.105-21.32,42.473-21.288c30.625,0.055,61.246,0.326,91.867,0.862c65.51,1.146,131.005,3.142,196.527,3.478
			c5.977,0.03,11.953,0.042,17.93,0.044c1.675,0,2.206-2.174,0.242-2.175c-65.608-0.019-131.193-1.895-196.785-3.191
			c-32.927-0.651-65.859-1.123-98.793-1.151c-15.229-0.013-34.047-2.263-46.854,7.835c-17.179,13.545-9.876,41.452-12.407,60.059
			c-1.68,12.349-8.053,21.867-16.702,30.421c-7.162,7.083-10.22,15.198-11.617,25.116c-1.591,11.294-1.021,22.816,2.368,33.73
			c2.805,9.033,7.782,17.217,12.937,25.072c5.703,8.692,11.597,17.209,16.268,26.523c5.66,11.288,4.986,23.177,6.575,35.384
			c1.216,9.346,6.129,18.924,16.146,20.964c4.954,1.01,9.942,0.695,14.95,0.326c7.849-0.579,15.658-0.199,23.517,0.04
			c32.945,1.002,65.889,2.079,98.813,3.642c32.2,1.527,64.013,3.557,96.27,2.196c31.985-1.349,63.923-4.1,95.963-3.443
			c14.985,0.307,31.572,0.452,41.522-12.721c5.229-6.922,7.127-15.938,8.163-24.358c1.866-15.18,1.282-30.913,1.121-46.175
			c-0.174-16.509-0.811-33.009-1.442-49.505c-0.604-15.744-0.074-31.475,0.221-47.219c0.284-15.144,0.015-30.21-1.612-45.277
			c-1.018-9.421-2.869-19.45-8.261-27.447c-9.287-13.773-28.887-10.835-43.139-10.808C457.037,87.821,456.505,89.996,458.47,89.992
			L458.47,89.992z"/>
	</g>
</g>
<g>
	<path d="M244.348,123.53c0.172,2.972,0.26,6.044,0.26,9.217c0,6.966-0.605,17.462-1.814,31.491
		c-1.21,14.032-1.813,24.631-1.813,31.798c0,2.665,0.042,5.273,0.129,7.834c-0.777,2.866-2.461,4.249-5.051,4.147
		c-3.715-0.207-5.744-2.1-6.088-5.684c-0.346-3.583-0.519-7.374-0.519-11.368c0-6.963,0.712-17.358,2.138-31.183
		c1.424-13.825,2.137-24.168,2.137-31.03c0-2.662-0.087-5.273-0.259-7.834c0.862-1.944,2.331-2.918,4.403-2.918
		c1.64,0,3.281,0.564,4.922,1.69c0.344-0.308,0.604-0.461,0.777-0.461c0.26,0,0.389,0.514,0.389,1.536
		c-0.087,1.229-0.087,1.946,0,2.15C244.044,123.223,244.174,123.429,244.348,123.53z"/>
	<path d="M308.52,133.452c-1.21,10.257-2.376,20.551-3.497,30.884c-1.47,12.247-2.202,22.464-2.202,30.654
		c0,2.68,0.085,5.321,0.26,7.922c0.084,1.223-0.412,2.296-1.49,3.214c-1.08,0.918-2.311,1.378-3.691,1.378
		c-2.678,0-4.922-1.607-6.735-4.822c-5.526-9.566-12.392-24.569-20.595-45.005c-0.174-0.459-0.389-0.689-0.647-0.689
		c-0.604,0-0.993,0.537-1.165,1.607c-1.47,10.946-2.203,22.465-2.203,34.558c0,5.818,0.173,11.748,0.519,17.795
		c0.085,2.219-0.647,3.749-2.202,4.593c-0.604,0.534-1.252,0.803-1.942,0.803c-0.604,0-1.382-0.229-2.331-0.688
		c-1.296-0.536-2.117-0.881-2.461-1.033c-1.123-0.307-1.814-1.225-2.072-2.755c-0.088-1.225-0.175-2.488-0.26-3.789
		c-0.259-4.288-0.389-8.764-0.389-13.433c0-8.112,0.518-18.254,1.555-30.424c1.639-18.522,2.546-28.778,2.72-30.769
		c0.085-1.683,1.685-2.526,4.792-2.526c1.468-0.153,3.627,0.804,6.477,2.87c2.763,4.67,6.173,12.247,10.232,22.732
		c3.887,10.028,7.426,17.644,10.621,22.848c1.295-10.179,3.323-25.563,6.088-46.154c0.26-1.53,1.51-2.296,3.756-2.296
		c0.777,0,1.684,0.115,2.721,0.344c1.38,0.307,2.201,0.499,2.461,0.574C307.697,132.151,308.261,132.688,308.52,133.452z"/>
	<path d="M352.687,172.694c-0.864,1.987-1.684,3.973-2.461,5.958c-1.036,2.332-2.159,4.189-3.368,5.57
		c-2.677,3.368-5.354,6.693-8.029,9.973c-3.196,3.973-6.088,6.735-8.679,8.29c-0.864,1.037-1.813,2.115-2.85,3.238
		c-1.036,1.121-2.073,1.684-3.108,1.684c-0.519,0-1.123-0.13-1.813-0.389c-0.692-0.259-1.447-0.563-2.267-0.907
		c-0.822-0.346-1.404-0.907-1.749-1.684c-0.259-3.626-0.389-7.512-0.389-11.657c0-4.229,0.173-10.534,0.519-18.911
		c0.344-8.375,0.518-14.679,0.518-18.911c0-5.612-0.217-10.75-0.647-15.414c-0.087-0.085-1.036-1.079-2.85-2.979
		c-1.123-1.121-1.684-2.157-1.684-3.108c0-0.431,0.085-0.862,0.259-1.295c0.432-1.036,1.381-1.639,2.85-1.813
		c1.121-0.172,2.244-0.301,3.367-0.389c7.254,1.555,14.852,5.614,22.797,12.176c2.072,1.728,3.756,3.542,5.052,5.44
		c4.145,6.132,6.218,11.874,6.218,17.227C354.371,167.558,353.808,170.191,352.687,172.694z M343.361,158.835
		c-0.777-5.44-5.398-10.232-13.859-14.377c-0.605,14.422-0.777,29.706-0.519,45.852c9.757-9.757,14.636-19.04,14.636-27.848
		C343.619,161.253,343.533,160.045,343.361,158.835z"/>
	<path d="M402.682,124.64c-2.418,9.759-6.864,22.453-13.341,38.081c-7.6,18.221-12.479,30.785-14.636,37.692
		c-0.434,1.38-0.648,3.109-0.648,5.181c0.086,2.85,0.086,4.663,0,5.44c-0.259,3.021-1.857,4.533-4.792,4.533
		c-1.47,0.173-3.044-0.323-4.728-1.488c-1.684-1.167-2.483-2.397-2.396-3.692c0.26-6.304,1.855-13.513,4.793-21.631
		c2.675-6.907,5.353-13.814,8.03-20.724c-6.132-16.405-11.356-28.409-15.673-36.008c-0.259-0.431-0.389-0.862-0.389-1.295
		c0-0.949,0.539-1.833,1.619-2.655c1.078-0.82,2.137-1.23,3.174-1.23c0.172,0,1.813,0.476,4.922,1.425
		c2.157,3.283,4.403,7.512,6.734,12.693c1.986,4.404,3.929,8.808,5.829,13.211c1.727-5.181,3.452-10.317,5.181-15.413
		c1.986-5.958,4.188-10.88,6.606-14.766c0.69-1.208,1.898-1.813,3.626-1.813C399.011,122.179,401.041,123.001,402.682,124.64z"/>
</g>
<g>
	<path d="M217.669,261.488c-0.928,3.849-3.28,7.342-7.058,10.479c-3.635,2.566-7.271,5.097-10.906,7.592
		c0.214,1.068,0.944,1.871,2.192,2.405c1.246,0.534,2.44,1.053,3.582,1.55c5.916,3.85,8.874,8.412,8.874,13.687
		c0,4.063-1.39,7.806-4.17,11.228c-2.139,2.637-5.311,5.239-9.516,7.806c-3.422,1.994-6.844,3.991-10.266,5.987
		c-0.854,0.498-1.782,0.749-2.779,0.749c-2.353,0-3.993-0.963-4.919-2.888c0.143-5.987,0.284-11.94,0.428-17.856
		c0.142-7.127,0.535-13.008,1.176-17.643c-1.496-0.997-2.245-2.138-2.245-3.421c0-0.642,0.268-1.23,0.802-1.765
		c0.535-0.534,1.265-1.122,2.192-1.765c0.855-10.834,1.032-20.813,0.534-29.938c-3.352-0.642-5.56-2.138-6.629-4.491
		c-0.072-0.283,0.054-0.711,0.374-1.283c0.321-0.569,0.481-1.031,0.481-1.39c1.639-1.211,3.456-1.817,5.453-1.817
		c1.425,0,4.704,0.465,9.837,1.39c2.637,0.428,5.382,1.39,8.233,2.888c7.698,3.992,12.225,7.877,13.579,11.654
		C217.846,257.354,218.097,259.635,217.669,261.488z M204.41,298.056c0.142-0.783,0.214-1.531,0.214-2.245
		c0-2.139-0.679-4.026-2.032-5.667c-3.635-1.781-5.952-2.673-6.949-2.673c-0.572,0-1.106,0.106-1.604,0.32
		c0.07,0.714,0.107,1.497,0.107,2.353c0,1.497-0.197,3.796-0.589,6.896c-0.393,3.101-0.588,5.437-0.588,7.004
		c0,2.282,0.284,4.347,0.855,6.201c0.855-0.999,2.192-2.05,4.01-3.154s3.082-2.085,3.796-2.94
		C202.913,302.653,203.839,300.622,204.41,298.056z M207.617,256.142c-0.357-2.637-2.495-4.668-6.415-6.095
		c-0.571-0.214-1.462-0.677-2.673-1.391c-0.855-0.569-1.569-0.855-2.139-0.855c-0.286,0-0.606,0.072-0.962,0.215
		c-0.072,1.213-0.107,2.496-0.107,3.849c0,1.854,0.142,4.991,0.428,9.409c0.214,4.063,0.284,7.236,0.214,9.517
		c0.498,0,1.246-0.374,2.245-1.122c0.998-0.749,1.567-1.158,1.711-1.23c2.139-0.997,4.026-2.673,5.667-5.025
		C207.225,261.061,207.901,258.638,207.617,256.142z"/>
	<path d="M234.134,253.896c0.142,2.068,0.214,4.207,0.214,6.415c0,4.849-0.5,12.154-1.497,21.919
		c-0.999,9.768-1.497,17.146-1.497,22.134c0,1.854,0.035,3.671,0.106,5.453c-0.642,1.995-2.031,2.957-4.17,2.888
		c-3.065-0.145-4.741-1.462-5.025-3.957c-0.285-2.494-0.428-5.132-0.428-7.912c0-4.847,0.588-12.082,1.765-21.705
		c1.176-9.623,1.764-16.822,1.764-21.6c0-1.853-0.071-3.67-0.214-5.453c0.712-1.354,1.925-2.031,3.636-2.031
		c1.354,0,2.708,0.393,4.063,1.176c0.284-0.213,0.498-0.32,0.642-0.32c0.214,0,0.32,0.357,0.32,1.068
		c-0.071,0.855-0.071,1.355,0,1.498C233.883,253.682,233.99,253.826,234.134,253.896z"/>
	<path d="M276.903,302.119c0.428,0.357,0.642,0.855,0.642,1.497c0,0.428-0.286,1.497-0.855,3.208
		c-0.286-0.07-0.535-0.107-0.749-0.107c-0.428,0-0.98,0.179-1.657,0.535c-0.678,0.357-1.194,0.534-1.551,0.534
		c-0.357,0-0.748-0.142-1.176-0.428c-4.776-2.994-12.189-7.484-22.24-13.473c0.214,2.639,0.391,6.416,0.534,11.334
		c0,0.571,0.07,1.427,0.214,2.566c0.143,1.14,0.214,1.96,0.214,2.459c0,1.711-0.748,2.888-2.245,3.529
		c-0.428,0.283-1.034,0.427-1.817,0.427c-0.855,0-1.391-0.25-1.604-0.748c-1.854-0.642-2.924-1.89-3.207-3.742
		c-0.855-5.133-1.283-11.155-1.283-18.07c0-2.494,0.07-6.219,0.214-11.174c0.142-4.953,0.214-8.678,0.214-11.174
		c0-7.555-0.5-14.113-1.497-19.674c-0.144-0.855,0.355-1.426,1.497-1.711c0.855-0.143,1.745-0.284,2.673-0.428
		c0.926,0.285,1.888,0.625,2.887,1.016c0.998,0.393,1.532,1.016,1.604,1.871c1.069,9.695,1.531,17.395,1.39,23.096
		c2.922-2.636,6.271-6.129,10.051-10.479c3.208-3.635,6.379-7.306,9.517-11.014c0.855-0.355,1.781-0.533,2.78-0.533
		c2.779,0,4.24,0.961,4.384,2.887c-1.997,4.42-5.918,9.66-11.762,15.717c-6.844,7.058-11.228,12.083-13.152,15.077
		c4.419,2.638,8.875,5.276,13.366,7.912C269.274,296.168,273.481,299.197,276.903,302.119z"/>
	<path d="M317.001,254.537c-2.639,1.07-6.522,2.318-11.655,3.742c-5.132,1.428-9.019,2.674-11.654,3.743
		c-0.642,1.854-1.106,5.987-1.391,12.403c1.14,0.428,2.46,0.642,3.956,0.642c1.069,0,2.744-0.177,5.025-0.534
		c2.281-0.356,3.957-0.535,5.026-0.535c1.994,0,3.705,0.428,5.132,1.283c0.997,1.427,1.497,2.352,1.497,2.779
		c0,0.5-0.251,0.893-0.748,1.177c-0.145,0.071-0.642,0.571-1.497,1.497c-0.571,0.642-1.283,0.928-2.139,0.855
		c-1.497,0.357-4.242,0.571-8.233,0.641c-3.352,0.072-6.024,0.5-8.02,1.283c-1.354,5.276-2.031,9.446-2.031,12.511
		c0,2.068,0.284,3.707,0.855,4.919c3.35,2.352,9.158,3.351,17.429,2.993c0.569,0,1.176-0.267,1.817-0.802
		c0.642-0.534,1.177-0.802,1.604-0.802c1.994-0.428,3.314,1.069,3.956,4.491c0.214,1.141,0.017,2.191-0.588,3.154
		c-0.606,0.962-1.48,1.479-2.62,1.55c-8.626,0.284-16.11-0.393-22.454-2.031c-1.997-0.5-3.814-1.604-5.453-3.314
		c-1.641-1.711-2.566-3.636-2.78-5.774c-0.642-6.201-0.642-11.762,0-16.68c-1.996-1.354-2.887-2.674-2.673-3.957
		c0.07-0.641,0.623-1.229,1.657-1.764c1.032-0.535,1.62-1.086,1.765-1.658c0.142-0.568,0.427-3.955,0.854-10.157
		c-3.992-0.784-5.952-2.28-5.881-4.491c0.07-2.066,1.318-3.705,3.743-4.918c2.28-0.926,4.561-1.854,6.843-2.78
		c2.637-1.353,5.951-2.565,9.944-3.636c3.491-0.926,6.985-1.817,10.479-2.673c0.355-0.07,0.783-0.106,1.283-0.106
		c1.925,0,4.17,0.748,6.736,2.245c0.07,0.286,0.249,0.82,0.534,1.604c0.284,0.785,0.428,1.354,0.428,1.71
		C317.749,253.719,317.498,254.182,317.001,254.537z"/>
	<path d="M373.242,241.386c-0.642,2.566-1.854,4.063-3.636,4.491c-4.634,1.141-12.688,2.638-24.164,4.49
		c-1.427,17.75-2.139,32.543-2.139,44.374c0,4.491,0.07,8.912,0.214,13.259c0.07,1.354,0,2.388-0.214,3.101
		c-0.357,1.14-1.069,1.674-2.139,1.604c-2.068-0.072-3.779-0.946-5.133-2.62c-1.354-1.676-2.104-3.545-2.245-5.613
		c-0.144-2.637-0.214-5.417-0.214-8.34c0-4.705,0.321-12.153,0.962-22.348c0.642-9.765,0.926-17.215,0.855-22.347
		c-1.924-0.143-4.598,0.036-8.019,0.533c-3.922,0.572-6.63,0.855-8.127,0.855c-3.491,0-6.344-0.934-8.554-2.803
		c-0.855-1.867-1.283-2.838-1.283-2.91c0-0.503,0.251-1.043,0.749-1.617c2.281-0.791,6.949-1.509,14.007-2.157
		c6.201-0.646,10.834-1.796,13.9-3.45c2.494,0.855,5.346,1.283,8.554,1.283s6.271-0.391,9.195-1.176
		c0.855-0.07,3.029-0.57,6.522-1.497c2.566-0.642,4.705-0.855,6.416-0.642c1.282,0,1.817,0.535,1.604,1.604
		C372.28,239.461,373.242,240.103,373.242,241.386z"/>
	<path d="M397.514,302.867c0.428,1.142,0.642,2.139,0.642,2.994c0,1.427-0.606,2.673-1.817,3.742
		c-1.213,1.069-2.032,1.567-2.46,1.497c-3.493-0.642-5.703-3.456-6.629-8.447c-0.999-5.416-2.176-9.943-3.528-13.579
		c-2.425,0.214-4.849,0.428-7.271,0.642c-2.779,0.357-4.955,1.213-6.522,2.566c-0.785,2.21-1.817,6.131-3.101,11.762
		c-1.213,5.202-2.389,9.158-3.528,11.868c-0.571,1.283-1.783,1.64-3.636,1.069c-2.353-0.785-3.601-1.854-3.742-3.207
		c-0.214-2.71,0.569-6.344,2.353-10.907c2.139-5.202,3.314-8.909,3.528-11.12c0.07-0.642-0.393-1.353-1.39-2.138
		c-0.999-0.784-1.497-1.391-1.497-1.818c0-0.355,0.16-0.729,0.48-1.122c0.321-0.392,1.069-0.712,2.246-0.963
		c1.176-0.249,1.834-0.623,1.978-1.123c1.283-3.563,3.315-10.192,6.095-19.888c2.353-8.41,4.454-14.862,6.309-19.354
		c0.428-0.997,1.318-1.496,2.674-1.496c0.997,0,1.888,0.32,2.673,0.962c1.995,1.71,3.277,4.276,3.85,7.698
		c0.427,2.924,0.818,5.846,1.176,8.768C389.957,278.098,393.664,291.961,397.514,302.867z M381.902,282.445
		c-0.214-2.637-0.678-5.596-1.39-8.875c-0.714-2.85-1.39-5.702-2.031-8.555c-2.139,5.918-3.993,11.834-5.561,17.75
		C374.061,282.552,377.055,282.445,381.902,282.445z"/>
	<path d="M439.962,281.27c-1.924,4.775-3.172,10.656-3.742,17.642c-0.357,6.06-0.678,12.118-0.962,18.178
		c-0.144,1.78-1.32,2.673-3.528,2.673c-0.642,0-1.248-0.106-1.818-0.32c-3.065-1.283-4.598-3.673-4.598-7.164
		c0-0.999,0.143-2.513,0.428-4.545c0.284-2.031,0.428-3.51,0.428-4.438c0.284-2.066,0.642-5.167,1.069-9.302
		c-4.919,4.634-10.479,8.091-16.681,10.371c-0.854,0.286-1.71,0.428-2.565,0.428c-3.28,0-6.309-1.853-9.089-5.56
		c-1.567-2.067-2.353-4.633-2.353-7.699c0-2.708,0.606-5.881,1.817-9.516c3.778-11.549,9.801-22.846,18.07-33.896
		c4.134-5.488,7.806-8.233,11.014-8.233c2.851,0,4.454,1.069,4.812,3.208c0.284,1.782-0.32,3.065-1.817,3.849
		c-2.496,1.355-3.814,2.104-3.956,2.246c-5.988,6.629-11.479,15.184-16.467,25.662c-3.065,6.487-4.598,12.296-4.598,17.429
		c0,0.927,0.035,1.854,0.106,2.78c0.143,0.071,0.356,0.41,0.642,1.016c0.284,0.606,0.677,0.802,1.177,0.588
		c4.704-1.853,11.797-6.736,21.277-14.648c0.712-0.57,1.532-2.209,2.46-4.919c0.712-1.995,1.994-2.993,3.849-2.993
		c-0.571,0,0-0.07,1.711-0.215c0.855-0.142,1.426,0,1.711,0.428c1.354,1.997,2.031,3.636,2.031,4.919
		C440.39,279.879,440.246,280.557,439.962,281.27z"/>
</g>
<g>
	<g>
		<path d="M85.945,193.185c6.373-10.071,16.885-18.601,19.743-30.578c3.357-14.07,5.543-28.399,8.964-42.46
			c2.279-9.37,5.75-18.568,11.826-26.158c6.615-8.262,16.317-12.732,26.389-15.192c14.229-3.476,29.702-3.838,44.268-4.567
			c15.105-0.755,30.241-0.844,45.36-0.581c29.968,0.521,59.672,3.608,89.555,5.399c16.349,0.979,32.709,1.744,49.057,2.735
			c14.013,0.85,28.088,2.805,42.124,2.841c20.636,0.054,44.173-3.074,63.487,5.832c19.748,9.105,14.116,38.872,12.201,55.99
			c-1.191,10.649-1.919,20.923-1.39,31.65c0.763,15.467,3.049,30.822,4.44,46.236c1.336,14.79,0.479,29.527,1.258,44.32
			c0.744,14.127,2.477,28.187,2.46,42.352c-0.013,10.195,0.04,22.824-8.888,29.525c-7.618,5.718-18.819,6.424-27.962,6.945
			c-9.024,0.516-18.069,0.213-27.102,0.405c-13.373,0.284-26.664,1.333-40.065,1.199c-32.624-0.325-65.122-3.754-97.671-5.63
			c-16.305-0.94-32.554-0.994-48.874-1.143c-17.022-0.155-34.006-1.689-50.95-3.193c-12.522-1.111-24.906-2.106-37.479-2.108
			c-9.019-0.001-18.346,0.069-26.679-3.845c-10.278-4.828-14.613-15.302-19.223-24.909c-4.524-9.43-11.45-17.382-18.271-25.197
			c-7.239-8.295-13.99-16.782-18.011-27.15c-4.833-12.461-6.263-28.107-5.202-41.32c0.989-12.326,7.39-21.356,15.458-30.184
			c8.192-8.962,13.809-17.612,16.154-29.717c2.443-12.608,1.583-25.612,6.056-37.828c4.735-12.935,16.037-21.441,28.753-25.6
			c26.5-8.667,55.738-4.051,82.783-1.716c30.505,2.634,61.288-1.051,91.842-1.113c1.005-0.002,3.112-1.53,1.158-1.526
			c-33.042,0.067-66.015,3.663-98.999,0.44c-25.464-2.488-52.222-5.011-77.137,2.602c-9.688,2.96-18.421,8.229-24.862,16.108
			c-8.412,10.291-9.753,23.434-10.895,36.174c-1.243,13.878-3.849,26.135-12.974,37.068c-7.377,8.839-15.348,16.133-18.763,27.491
			c-3.82,12.708-1.345,27.422,0.991,40.168c1.959,10.689,7.187,20.17,13.779,28.668c6.423,8.279,13.894,15.658,19.885,24.286
			c6.371,9.175,9.091,20.323,16.864,28.56c12.204,12.933,32.39,9.711,48.348,10.198c15.56,0.475,31.11,2.637,46.634,3.771
			c16.408,1.199,32.717,1.197,49.151,1.422c32.623,0.446,65.116,3.898,97.671,5.713c16.263,0.906,32.552,1.333,48.836,0.87
			c10.261-0.291,20.438-1.1,30.708-1.108c15.705-0.014,34.797,0.955,48.343-8.421c7.49-5.185,8.5-13.995,9.181-22.434
			c1.086-13.467-0.426-27.092-1.466-40.514c-1.115-14.408-0.454-28.743-1.144-43.151c-0.743-15.525-3.02-30.937-4.436-46.405
			c-1.149-12.546-1.35-24.832,0.013-37.347c1.136-10.438,2.463-20.868,2.404-31.387c-0.048-8.749-1.198-18.376-7.07-25.274
			c-5.473-6.427-15.597-8.529-23.477-9.841c-21.424-3.567-43.433-0.63-65.008-2.46c-31.962-2.712-64.046-3.525-96.004-6.26
			c-29.435-2.519-58.977-4.025-88.524-3.828c-14.448,0.097-28.892,0.702-43.293,1.871c-11.939,0.97-24.062,1.946-35.457,5.86
			c-17.404,5.978-27.147,20.053-32.091,37.166c-3.841,13.299-5.893,27.145-8.724,40.678c-1.648,7.88-4.551,14.035-9.325,20.517
			c-3.741,5.08-8.034,9.749-11.414,15.091C82.584,194.27,85.479,193.922,85.945,193.185L85.945,193.185z"/>
	</g>
</g>
</svg>
