<?xml version="1.0" encoding="utf-8"?>
<!-- www.vectorico.com -->
<svg version="1.1" id="Instagram" xmlns="http://www.w3.org/2000/svg" xmlns:xlink="http://www.w3.org/1999/xlink" x="0px" y="0px"
	 viewBox="0 0 64 64" style="enable-background:new 0 0 64 64;" xml:space="preserve">
<title>Instagram Logo</title>
<path d="M32,6.6c8.3,0,9.3,0,12.5,0.2c3,0.1,4.7,0.6,5.8,1.1c1.4,0.6,2.5,1.2,3.6,2.3c1.1,1.1,1.8,2.1,2.3,3.6
	c0.4,1.1,0.9,2.7,1.1,5.8c0.1,3.3,0.2,4.2,0.2,12.5s0,9.3-0.2,12.5c-0.1,3-0.6,4.7-1.1,5.8c-0.6,1.4-1.2,2.5-2.3,3.6
	c-1.1,1.1-2.1,1.8-3.6,2.3c-1.1,0.4-2.7,0.9-5.8,1.1c-3.3,0.1-4.2,0.2-12.5,0.2s-9.3,0-12.5-0.2c-3-0.1-4.7-0.6-5.8-1.1
	c-1.4-0.6-2.5-1.2-3.6-2.3c-1.1-1.1-1.8-2.1-2.3-3.6c-0.4-1.1-0.9-2.7-1.1-5.8C6.6,41.3,6.6,40.3,6.6,32s0-9.3,0.2-12.5
	c0.1-3,0.6-4.7,1.1-5.8c0.6-1.4,1.2-2.5,2.3-3.6c1.1-1.1,2.1-1.8,3.6-2.3c1.1-0.4,2.7-0.9,5.8-1.1C22.7,6.6,23.7,6.6,32,6.6 M32,1
	c-8.4,0-9.5,0-12.8,0.2c-3.3,0.2-5.6,0.7-7.5,1.4c-2,0.8-3.8,1.9-5.5,3.6c-1.7,1.7-2.8,3.5-3.6,5.5c-0.8,2-1.3,4.2-1.4,7.5
	C1,22.5,1,23.6,1,32c0,8.4,0,9.5,0.2,12.8c0.2,3.3,0.7,5.6,1.4,7.5c0.8,2,1.9,3.8,3.6,5.5c1.7,1.7,3.5,2.8,5.5,3.6
	c2,0.8,4.2,1.3,7.5,1.4C22.5,63,23.6,63,32,63s9.5,0,12.8-0.2c3.3-0.2,5.6-0.7,7.5-1.4c2-0.8,3.8-1.9,5.5-3.6
	c1.7-1.7,2.8-3.5,3.6-5.5c0.8-2,1.3-4.2,1.4-7.5C63,41.5,63,40.4,63,32s0-9.5-0.2-12.8c-0.2-3.3-0.7-5.6-1.4-7.5
	c-0.8-2-1.9-3.8-3.6-5.5c-1.7-1.7-3.5-2.8-5.5-3.6c-2-0.8-4.2-1.3-7.5-1.4C41.5,1,40.4,1,32,1L32,1z"/>
<path d="M32,16.1c-8.8,0-15.9,7.1-15.9,15.9S23.2,47.9,32,47.9S47.9,40.8,47.9,32S40.8,16.1,32,16.1z M32,42.3
	c-5.7,0-10.3-4.6-10.3-10.3c0-5.7,4.6-10.3,10.3-10.3c5.7,0,10.3,4.6,10.3,10.3C42.3,37.7,37.7,42.3,32,42.3z"/>
<circle cx="48.5" cy="15.5" r="3.7"/>
</svg>
