<?xml version="1.0" encoding="UTF-8" standalone="no"?>
<svg
   xmlns:dc="http://purl.org/dc/elements/1.1/"
   xmlns:cc="http://creativecommons.org/ns#"
   xmlns:rdf="http://www.w3.org/1999/02/22-rdf-syntax-ns#"
   xmlns:svg="http://www.w3.org/2000/svg"
   xmlns="http://www.w3.org/2000/svg"
   xmlns:sodipodi="http://sodipodi.sourceforge.net/DTD/sodipodi-0.dtd"
   xmlns:inkscape="http://www.inkscape.org/namespaces/inkscape"
   inkscape:version="1.0 (4035a4f, 2020-05-01)"
   sodipodi:docname="MiamiIcon.svg"
   xml:space="preserve"
   enable-background="new 0 0 646 449"
   viewBox="0 0 437.25211 283.224"
   height="283.224"
   width="437.25211"
   y="0px"
   x="0px"
   id="Layer_1"
   version="1.1"><metadata
   id="metadata127"><rdf:RDF><cc:Work
       rdf:about=""><dc:format>image/svg+xml</dc:format><dc:type
         rdf:resource="http://purl.org/dc/dcmitype/StillImage" /></cc:Work></rdf:RDF></metadata><defs
   id="defs125" /><sodipodi:namedview
   inkscape:current-layer="Layer_1"
   inkscape:window-maximized="1"
   inkscape:window-y="23"
   inkscape:window-x="0"
   inkscape:cy="130.84824"
   inkscape:cx="218.62609"
   inkscape:zoom="1.628483"
   showgrid="false"
   id="namedview123"
   inkscape:window-height="933"
   inkscape:window-width="1680"
   inkscape:pageshadow="2"
   inkscape:pageopacity="0"
   guidetolerance="10"
   gridtolerance="10"
   objecttolerance="10"
   borderopacity="1"
   bordercolor="#666666"
   pagecolor="#ffffff" />
<g
   transform="translate(-104.37391,-93.651763)"
   id="g92">
	<path
   id="path88"
   d="m 541.412,289.732 c -0.174,-16.508 -0.812,-33.008 -1.442,-49.504 -0.604,-15.745 -0.073,-31.476 0.222,-47.22 0.283,-15.145 0.015,-30.211 -1.612,-45.277 -1.019,-9.421 -2.869,-19.451 -8.261,-27.447 -2.537,-3.762 -5.848,-6.271 -9.604,-7.939 -5.593,-3.609 -13.037,-5.111 -19.144,-6.127 -21.425,-3.566 -43.434,-0.631 -65.009,-2.461 -31.962,-2.711 -64.045,-3.524 -96.004,-6.26 -29.435,-2.52 -58.977,-4.025 -88.522,-3.828 -14.449,0.097 -28.892,0.701 -43.293,1.871 -11.939,0.97 -24.062,1.945 -35.457,5.859 -3.611,1.24 -6.875,2.848 -9.852,4.74 -5.789,1.107 -11.247,3.143 -15.907,6.816 -14.188,11.188 -11.68,32.167 -11.801,49.617 -1.071,5.57 -2.1,11.146 -3.255,16.67 -0.95,4.544 -2.335,8.508 -4.238,12.297 -2.706,4.252 -6.043,8.166 -9.815,11.896 -6.511,6.438 -9.625,13.736 -11.188,22.462 -0.314,0.828 -0.612,1.67 -0.875,2.543 -3.82,12.707 -1.345,27.423 0.991,40.168 1.959,10.689 7.187,20.17 13.779,28.668 6.423,8.279 13.894,15.658 19.885,24.287 0.183,0.263 0.352,0.531 0.529,0.798 2.297,8.706 2.213,17.713 3.409,26.898 1.216,9.348 6.129,18.924 16.146,20.964 4.954,1.011 9.942,0.695 14.95,0.326 7.849,-0.579 15.658,-0.199 23.517,0.04 32.945,1.003 65.889,2.079 98.813,3.643 32.2,1.526 64.013,3.557 96.271,2.195 31.984,-1.349 63.922,-4.099 95.963,-3.443 14.984,0.307 31.571,0.452 41.521,-12.722 5.229,-6.92 7.127,-15.937 8.163,-24.356 1.865,-15.177 1.281,-30.911 1.12,-46.174 z M 181.334,100.457 c 14.229,-3.477 29.702,-3.839 44.268,-4.567 15.105,-0.755 30.24,-0.844 45.359,-0.581 29.969,0.521 59.673,3.609 89.557,5.399 16.349,0.979 32.709,1.744 49.057,2.735 14.013,0.85 28.088,2.805 42.124,2.842 18.22,0.047 38.698,-2.38 56.538,3.18 -6.521,-0.545 -13.32,-0.098 -19.331,-0.004 -65.257,-0.039 -130.491,-1.898 -195.73,-3.188 -32.928,-0.652 -65.859,-1.123 -98.793,-1.152 -8.387,-0.006 -17.861,-0.688 -26.821,0.384 4.315,-2.258 9,-3.883 13.772,-5.048 z m 143.798,8.656 c -24.731,0.889 -49.436,2.301 -74.146,-0.113 -5.139,-0.502 -10.331,-1.004 -15.549,-1.426 13.274,0.137 26.549,0.311 39.823,0.543 16.625,0.291 33.249,0.637 49.872,0.996 z M 161.8,109.09 c 6.826,-1.646 14.432,-1.848 21.593,-1.834 4.146,0.007 8.291,0.029 12.437,0.044 -7.431,0.753 -14.783,2.103 -21.981,4.302 -9.688,2.959 -18.421,8.229 -24.862,16.108 -1.044,1.276 -1.978,2.599 -2.817,3.957 2.118,-5.742 4.921,-11.204 8.776,-16.019 2.021,-2.524 4.333,-4.691 6.854,-6.558 z m -20.88,19.453 c 2.607,-10.256 9.086,-15.59 17.108,-18.355 -8.228,7.188 -13.58,17.116 -16.833,28.379 -0.8,2.769 -1.508,5.564 -2.176,8.372 0.041,-6.183 0.361,-12.339 1.901,-18.396 z m -11.003,65.554 c -1.362,2.341 -2.938,4.627 -4.798,6.855 -0.252,0.303 -0.507,0.599 -0.761,0.898 1.998,-2.508 3.914,-5.067 5.559,-7.753 z m 1.076,110.618 c -7.239,-8.295 -13.99,-16.783 -18.011,-27.15 -2.063,-5.318 -3.501,-11.221 -4.395,-17.266 0.184,0.664 0.377,1.325 0.582,1.984 2.805,9.033 7.782,17.217 12.937,25.072 5.427,8.271 11.013,16.392 15.567,25.184 -2.181,-2.652 -4.432,-5.249 -6.68,-7.824 z M 362,374.992 c -16.928,-0.037 -33.798,-1.44 -50.694,-2.319 -16.554,-0.86 -33.116,-1.565 -49.681,-2.198 -30.216,-1.152 -60.624,-3.106 -90.825,-1.76 -6.813,0.305 -13.049,-0.949 -17.638,-6.352 -3.956,-4.656 -4.995,-10.773 -5.652,-16.649 -0.604,-5.401 -0.914,-10.563 -1.584,-15.618 3.502,6.983 6.474,14.229 11.948,20.029 12.204,12.933 32.39,9.711 48.348,10.197 15.56,0.476 31.11,2.638 46.634,3.771 16.408,1.199 32.717,1.197 49.15,1.422 32.623,0.446 65.116,3.898 97.672,5.713 10.829,0.604 21.671,0.986 32.515,1.045 -23.386,1.244 -46.757,2.77 -70.193,2.719 z m 161.954,-9.898 c -6.612,4.896 -15.433,5.765 -23.386,5.925 -7.026,0.144 -14.052,0.047 -21.078,-0.026 14.815,-0.003 32.584,0.802 45.865,-7.018 -0.452,0.385 -0.917,0.76 -1.401,1.119 z m 1.314,-2.904 c -7.617,5.718 -18.818,6.425 -27.962,6.945 -9.023,0.515 -18.068,0.212 -27.102,0.404 -13.373,0.283 -26.664,1.333 -40.065,1.199 -32.624,-0.324 -65.121,-3.754 -97.671,-5.631 -16.305,-0.939 -32.554,-0.993 -48.873,-1.143 -17.022,-0.155 -34.006,-1.689 -50.951,-3.192 -12.522,-1.11 -24.905,-2.106 -37.479,-2.108 -9.019,-0.002 -18.346,0.068 -26.679,-3.846 -10.278,-4.827 -14.613,-15.302 -19.223,-24.908 -1.455,-3.032 -3.176,-5.898 -5.043,-8.67 -0.772,-2.884 -1.79,-5.761 -3.199,-8.654 -8.947,-18.371 -23.873,-33.501 -29.655,-53.412 -3.131,-10.784 -3.138,-22.499 -1.206,-33.565 2.751,-7.287 7.518,-13.467 13.077,-19.549 8.192,-8.963 13.809,-17.613 16.154,-29.718 2.443,-12.608 1.583,-25.612 6.056,-37.828 4.735,-12.935 16.037,-21.44 28.753,-25.6 26.5,-8.667 55.738,-4.052 82.783,-1.716 30.506,2.634 61.289,-1.051 91.843,-1.113 0.35,0 0.832,-0.188 1.23,-0.43 40.572,0.886 81.146,1.729 121.729,1.938 4.95,0.025 9.901,0.032 14.852,0.036 0.094,0.013 0.19,0.021 0.298,0.021 0.553,-0.001 1.11,-0.008 1.674,-0.016 0.369,0 0.737,0.002 1.106,0.002 0.113,0 0.22,-0.011 0.322,-0.029 9.803,-0.223 20.904,-1.086 29.505,3.167 14.473,11.269 9.602,37.62 7.843,53.33 -1.19,10.649 -1.919,20.923 -1.39,31.65 0.763,15.468 3.049,30.821 4.439,46.236 1.337,14.79 0.479,29.527 1.259,44.318 0.744,14.129 2.477,28.188 2.46,42.353 -0.01,10.199 0.042,22.828 -8.885,29.529 z m 11.445,-21.655 c 0.011,-0.133 0.022,-0.267 0.033,-0.398 1.086,-13.467 -0.426,-27.092 -1.466,-40.514 -1.115,-14.408 -0.454,-28.744 -1.145,-43.15 -0.743,-15.525 -3.02,-30.938 -4.436,-46.406 -1.149,-12.546 -1.351,-24.831 0.013,-37.346 1.136,-10.438 2.463,-20.868 2.404,-31.387 -0.028,-5.16 -0.449,-10.621 -1.986,-15.652 4.318,8.514 5.193,19.004 6.119,28.194 1.633,16.206 1.166,32.581 0.802,48.837 -0.728,32.409 1.433,64.723 1.48,97.127 0.022,13.453 0.398,27.357 -1.818,40.695 z" />
	<path
   id="path90"
   d="m 141.402,221.859 c -1.79,-4.047 -6.104,-6.389 -10.126,-4.859 -4.098,1.557 -5.279,8.261 -5.954,12.175 -1.633,9.554 -1.82,22.331 5.703,29.103 4.784,4.304 8.052,1.693 10.25,-2.916 0.905,0.765 1.789,0.646 1.83,-1.56 0.026,-1.329 0.089,-2.682 0.17,-4.049 1.163,-4.276 1.763,-8.688 2.011,-10.828 0.148,-1.265 -0.518,-2.854 -1.336,-3.789 -0.092,-4.611 -0.708,-9.122 -2.548,-13.277 z m -1.95,25.612 c -1.413,4.189 -3.831,7.131 -8.161,4.43 -5.218,-3.252 -2.902,-16.047 -1.878,-21.147 0.739,-3.69 2.271,-7.751 6.384,-7.315 4.487,0.474 4.116,6.708 4.216,10.274 0.133,4.603 -0.308,9.174 -0.561,13.758 z" />
</g>
<g
   transform="translate(-104.37391,-93.651763)"
   id="g104">
	<path
   id="path94"
   d="m 301.106,213.336 c 0.289,1.451 -0.763,2.25 -3.158,2.396 -1.598,0.07 -3.231,-0.618 -4.9,-2.07 -1.381,-1.234 -2.47,-3.229 -3.268,-5.989 -0.727,-2.541 -1.162,-6.135 -1.307,-10.782 -0.146,-5.228 -0.4,-8.821 -0.763,-10.781 -0.944,3.268 -2.505,8.132 -4.683,14.594 -1.307,3.558 -2.107,5.592 -2.396,6.098 -1.162,2.252 -2.613,3.268 -4.355,3.05 -3.485,-0.798 -6.172,-2.759 -8.06,-5.881 -1.235,-2.032 -2.396,-5.263 -3.485,-9.692 -1.162,-4.863 -2.143,-8.131 -2.939,-9.802 -3.123,15.175 -6.463,26.501 -10.02,33.979 -0.51,1.09 -2.034,1.016 -4.574,-0.219 -2.107,-1.018 -3.158,-2.469 -3.158,-4.355 0,-0.654 0.762,-2.977 2.287,-6.971 0.652,-1.742 3.193,-10.129 7.623,-25.157 1.524,-5.228 3.121,-14.411 4.791,-27.554 0.146,-0.145 0.508,-0.906 1.09,-2.287 0.362,-1.016 1.016,-1.524 1.961,-1.524 2.467,0 4.174,0.473 5.118,1.415 0,2.107 0.344,5.5 1.034,10.184 0.689,4.683 1.035,8.223 1.035,10.618 0.653,4.067 1.27,8.168 1.852,12.307 0.798,4.647 2.249,8.459 4.355,11.435 6.971,-19.385 11.397,-34.703 13.287,-45.958 0.289,-1.161 1.378,-1.743 3.267,-1.743 2.686,0 4.21,0.871 4.574,2.614 0.507,2.614 0.763,5.628 0.763,9.039 0,1.089 -0.073,3.485 -0.218,7.188 -0.073,2.978 -0.073,5.409 0,7.297 0.654,15.319 2.07,28.169 4.247,38.551 z" />
	<path
   id="path96"
   d="m 318.857,156.377 c 0.145,2.107 0.218,4.285 0.218,6.535 0,4.938 -0.509,12.379 -1.524,22.326 -1.018,9.947 -1.524,17.462 -1.524,22.543 0,1.889 0.035,3.738 0.108,5.555 -0.653,2.031 -2.069,3.012 -4.247,2.94 -3.123,-0.146 -4.829,-1.489 -5.119,-4.03 -0.291,-2.54 -0.436,-5.227 -0.436,-8.059 0,-4.937 0.6,-12.307 1.797,-22.107 1.198,-9.803 1.797,-17.135 1.797,-22 0,-1.887 -0.072,-3.738 -0.218,-5.555 0.726,-1.378 1.961,-2.068 3.703,-2.068 1.379,0 2.759,0.399 4.139,1.197 0.289,-0.217 0.507,-0.326 0.653,-0.326 0.218,0 0.327,0.364 0.327,1.089 -0.073,0.872 -0.073,1.38 0,1.524 0.072,0.219 0.18,0.366 0.326,0.436 z" />
	<path
   id="path98"
   d="m 364.271,206.257 c 0.436,1.162 0.652,2.179 0.652,3.05 0,1.453 -0.617,2.723 -1.852,3.812 -1.235,1.089 -2.069,1.597 -2.506,1.524 -3.558,-0.653 -5.81,-3.521 -6.752,-8.604 -1.018,-5.518 -2.215,-10.129 -3.594,-13.831 -2.47,0.218 -4.938,0.436 -7.406,0.653 -2.83,0.364 -5.047,1.235 -6.644,2.613 -0.8,2.252 -1.851,6.246 -3.157,11.98 -1.236,5.299 -2.434,9.328 -3.595,12.09 -0.582,1.307 -1.815,1.668 -3.703,1.088 -2.396,-0.799 -3.667,-1.889 -3.812,-3.268 -0.218,-2.76 0.58,-6.461 2.396,-11.108 2.179,-5.299 3.376,-9.075 3.595,-11.326 0.07,-0.653 -0.4,-1.378 -1.416,-2.179 -1.019,-0.798 -1.524,-1.416 -1.524,-1.852 0,-0.361 0.163,-0.743 0.489,-1.143 0.326,-0.398 1.09,-0.725 2.287,-0.98 1.197,-0.254 1.869,-0.635 2.016,-1.144 1.307,-3.63 3.376,-10.382 6.207,-20.257 2.396,-8.566 4.537,-15.139 6.426,-19.712 0.436,-1.017 1.344,-1.524 2.723,-1.524 1.017,0 1.924,0.326 2.724,0.979 2.032,1.743 3.339,4.356 3.921,7.841 0.436,2.979 0.834,5.955 1.197,8.932 3.631,17.136 7.409,31.257 11.328,42.366 z m -15.9,-20.802 c -0.219,-2.685 -0.691,-5.698 -1.416,-9.039 -0.727,-2.902 -1.416,-5.808 -2.069,-8.713 -2.178,6.027 -4.065,12.054 -5.663,18.079 1.16,-0.218 4.211,-0.327 9.148,-0.327 z" />
	<path
   id="path100"
   d="m 421.774,213.336 c 0.288,1.451 -0.763,2.25 -3.158,2.396 -1.599,0.07 -3.232,-0.618 -4.9,-2.07 -1.381,-1.234 -2.471,-3.229 -3.268,-5.989 -0.728,-2.541 -1.162,-6.135 -1.308,-10.782 -0.146,-5.228 -0.399,-8.821 -0.764,-10.781 -0.943,3.268 -2.504,8.132 -4.682,14.594 -1.308,3.558 -2.107,5.592 -2.396,6.098 -1.162,2.252 -2.613,3.268 -4.354,3.05 -3.486,-0.798 -6.173,-2.759 -8.062,-5.881 -1.234,-2.032 -2.395,-5.263 -3.484,-9.692 -1.162,-4.863 -2.143,-8.131 -2.939,-9.802 -3.123,15.175 -6.463,26.501 -10.02,33.979 -0.51,1.09 -2.035,1.016 -4.574,-0.219 -2.106,-1.018 -3.158,-2.469 -3.158,-4.355 0,-0.654 0.762,-2.977 2.287,-6.971 0.652,-1.742 3.193,-10.129 7.623,-25.157 1.523,-5.228 3.121,-14.411 4.792,-27.554 0.145,-0.145 0.507,-0.906 1.089,-2.287 0.361,-1.016 1.016,-1.524 1.961,-1.524 2.468,0 4.175,0.473 5.118,1.415 0,2.107 0.344,5.5 1.034,10.184 0.689,4.683 1.035,8.223 1.035,10.618 0.652,4.067 1.271,8.168 1.853,12.307 0.797,4.647 2.248,8.459 4.354,11.435 6.972,-19.385 11.398,-34.703 13.287,-45.958 0.289,-1.161 1.377,-1.743 3.269,-1.743 2.684,0 4.209,0.871 4.571,2.614 0.509,2.614 0.765,5.628 0.765,9.039 0,1.089 -0.074,3.45 -0.219,7.079 -0.072,3.049 -0.072,5.519 0,7.406 0.655,15.319 2.071,28.169 4.248,38.551 z" />
	<path
   id="path102"
   d="m 439.525,156.377 c 0.145,2.107 0.218,4.285 0.218,6.535 0,4.938 -0.509,12.379 -1.524,22.326 -1.018,9.947 -1.524,17.462 -1.524,22.543 0,1.889 0.036,3.738 0.108,5.555 -0.652,2.031 -2.068,3.012 -4.247,2.94 -3.123,-0.146 -4.83,-1.489 -5.118,-4.03 -0.291,-2.54 -0.437,-5.227 -0.437,-8.059 0,-4.937 0.599,-12.307 1.797,-22.107 1.198,-9.803 1.797,-17.135 1.797,-22 0,-1.887 -0.073,-3.738 -0.218,-5.555 0.727,-1.378 1.961,-2.068 3.703,-2.068 1.378,0 2.759,0.399 4.139,1.197 0.289,-0.217 0.507,-0.326 0.653,-0.326 0.218,0 0.326,0.364 0.326,1.089 -0.073,0.872 -0.073,1.38 0,1.524 0.073,0.219 0.181,0.366 0.327,0.436 z" />
</g>
<g
   transform="translate(-104.37391,-93.651763)"
   id="g120">
	<path
   id="path106"
   d="m 254.063,268.662 c -0.862,3.58 -3.052,6.83 -6.565,9.748 -3.383,2.389 -6.765,4.742 -10.146,7.063 0.199,0.996 0.878,1.742 2.039,2.238 1.16,0.498 2.271,0.98 3.332,1.443 5.504,3.58 8.257,7.826 8.257,12.731 0,3.781 -1.293,7.263 -3.88,10.445 -1.989,2.453 -4.941,4.875 -8.854,7.262 -3.183,1.855 -6.366,3.713 -9.549,5.57 -0.797,0.463 -1.658,0.697 -2.587,0.697 -2.188,0 -3.715,-0.896 -4.576,-2.687 0.132,-5.572 0.264,-11.109 0.398,-16.613 0.132,-6.631 0.497,-12.102 1.094,-16.414 -1.393,-0.928 -2.089,-1.987 -2.089,-3.184 0,-0.596 0.249,-1.143 0.746,-1.641 0.498,-0.498 1.177,-1.045 2.04,-1.641 0.796,-10.08 0.96,-19.365 0.497,-27.854 -3.118,-0.599 -5.172,-1.99 -6.167,-4.181 -0.067,-0.264 0.05,-0.662 0.348,-1.192 0.299,-0.529 0.448,-0.961 0.448,-1.293 1.525,-1.127 3.216,-1.691 5.073,-1.691 1.326,0 4.377,0.435 9.152,1.294 2.452,0.397 5.006,1.295 7.659,2.688 7.163,3.715 11.373,7.328 12.634,10.842 0.861,2.524 1.093,4.646 0.696,6.37 z m -12.335,34.022 c 0.132,-0.729 0.199,-1.426 0.199,-2.09 0,-1.99 -0.631,-3.746 -1.891,-5.271 -3.383,-1.658 -5.538,-2.488 -6.466,-2.488 -0.532,0 -1.028,0.101 -1.492,0.299 0.065,0.664 0.1,1.394 0.1,2.189 0,1.393 -0.184,3.53 -0.548,6.415 -0.365,2.886 -0.547,5.058 -0.547,6.517 0,2.123 0.265,4.043 0.796,5.771 0.796,-0.931 2.04,-1.908 3.73,-2.937 1.691,-1.027 2.868,-1.938 3.532,-2.734 1.194,-1.394 2.055,-3.285 2.587,-5.671 z m 2.984,-38.996 c -0.333,-2.453 -2.322,-4.342 -5.969,-5.67 -0.531,-0.199 -1.36,-0.629 -2.487,-1.293 -0.796,-0.529 -1.46,-0.795 -1.989,-0.795 -0.266,0 -0.564,0.066 -0.896,0.197 -0.067,1.129 -0.099,2.322 -0.099,3.582 0,1.725 0.131,4.643 0.397,8.754 0.198,3.779 0.265,6.732 0.198,8.854 0.464,0 1.16,-0.348 2.09,-1.045 0.928,-0.694 1.457,-1.076 1.592,-1.145 1.988,-0.928 3.746,-2.486 5.271,-4.674 1.527,-2.189 2.156,-4.443 1.892,-6.765 z" />
	<path
   id="path108"
   d="m 269.38,261.6 c 0.133,1.924 0.199,3.914 0.199,5.969 0,4.511 -0.465,11.308 -1.393,20.394 -0.93,9.086 -1.393,15.949 -1.393,20.592 0,1.726 0.033,3.414 0.1,5.072 -0.597,1.855 -1.891,2.752 -3.879,2.687 -2.853,-0.134 -4.412,-1.359 -4.676,-3.681 -0.266,-2.319 -0.398,-4.774 -0.398,-7.36 0,-4.51 0.547,-11.242 1.642,-20.193 1.095,-8.953 1.642,-15.65 1.642,-20.096 0,-1.724 -0.066,-3.414 -0.199,-5.072 0.662,-1.26 1.791,-1.891 3.383,-1.891 1.258,0 2.52,0.364 3.779,1.094 0.265,-0.197 0.463,-0.297 0.598,-0.297 0.198,0 0.298,0.332 0.298,0.994 -0.067,0.795 -0.067,1.26 0,1.393 0.064,0.195 0.164,0.328 0.297,0.395 z" />
	<path
   id="path110"
   d="m 309.171,306.463 c 0.398,0.332 0.597,0.795 0.597,1.394 0,0.397 -0.266,1.393 -0.796,2.983 -0.266,-0.063 -0.497,-0.1 -0.696,-0.1 -0.397,0 -0.912,0.166 -1.542,0.498 -0.631,0.332 -1.111,0.496 -1.442,0.496 -0.333,0 -0.696,-0.132 -1.095,-0.396 -4.443,-2.785 -11.34,-6.965 -20.69,-12.535 0.198,2.455 0.364,5.969 0.497,10.545 0,0.531 0.065,1.328 0.199,2.388 0.133,1.061 0.199,1.823 0.199,2.289 0,1.592 -0.697,2.686 -2.09,3.282 -0.397,0.265 -0.961,0.396 -1.69,0.396 -0.796,0 -1.294,-0.232 -1.492,-0.695 -1.726,-0.598 -2.72,-1.758 -2.984,-3.481 -0.796,-4.775 -1.194,-10.378 -1.194,-16.812 0,-2.32 0.066,-5.785 0.199,-10.396 0.133,-4.606 0.199,-8.071 0.199,-10.395 0,-7.029 -0.465,-13.131 -1.393,-18.305 -0.134,-0.795 0.331,-1.324 1.393,-1.592 0.796,-0.131 1.625,-0.264 2.486,-0.396 0.861,0.266 1.758,0.58 2.687,0.945 0.929,0.365 1.425,0.943 1.492,1.74 0.995,9.02 1.425,16.182 1.294,21.485 2.718,-2.452 5.834,-5.702 9.35,-9.747 2.984,-3.384 5.936,-6.798 8.854,-10.246 0.797,-0.332 1.657,-0.498 2.587,-0.498 2.587,0 3.944,0.896 4.078,2.686 -1.856,4.113 -5.505,8.988 -10.942,14.623 -6.366,6.566 -10.445,11.242 -12.235,14.027 4.111,2.453 8.257,4.908 12.435,7.36 4.637,2.92 8.551,5.738 11.735,8.457 z" />
	<path
   id="path112"
   d="m 346.475,262.195 c -2.455,0.996 -6.067,2.156 -10.843,3.481 -4.774,1.328 -8.391,2.486 -10.844,3.482 -0.597,1.725 -1.028,5.569 -1.293,11.539 1.062,0.396 2.288,0.596 3.682,0.596 0.994,0 2.552,-0.164 4.675,-0.496 2.123,-0.332 3.682,-0.498 4.676,-0.498 1.855,0 3.447,0.398 4.773,1.193 0.93,1.327 1.395,2.188 1.395,2.586 0,0.465 -0.233,0.83 -0.696,1.096 -0.133,0.066 -0.599,0.531 -1.394,1.394 -0.53,0.596 -1.192,0.861 -1.989,0.795 -1.392,0.332 -3.946,0.531 -7.659,0.598 -3.117,0.066 -5.605,0.465 -7.461,1.193 -1.26,4.908 -1.89,8.787 -1.89,11.639 0,1.924 0.265,3.449 0.796,4.576 3.116,2.188 8.521,3.117 16.214,2.785 0.53,0 1.096,-0.248 1.69,-0.746 0.598,-0.498 1.094,-0.746 1.492,-0.746 1.855,-0.398 3.084,0.994 3.682,4.178 0.197,1.063 0.017,2.039 -0.549,2.935 -0.563,0.896 -1.377,1.377 -2.436,1.442 -8.025,0.265 -14.989,-0.365 -20.891,-1.891 -1.857,-0.465 -3.549,-1.492 -5.073,-3.084 -1.526,-1.592 -2.388,-3.381 -2.586,-5.371 -0.598,-5.77 -0.598,-10.941 0,-15.518 -1.857,-1.261 -2.687,-2.488 -2.487,-3.683 0.065,-0.596 0.579,-1.146 1.542,-1.642 0.961,-0.497 1.508,-1.01 1.641,-1.543 0.133,-0.528 0.398,-3.68 0.797,-9.448 -3.715,-0.729 -5.539,-2.121 -5.472,-4.179 0.065,-1.924 1.226,-3.446 3.481,-4.575 2.121,-0.861 4.243,-1.726 6.367,-2.586 2.452,-1.261 5.535,-2.39 9.25,-3.384 3.25,-0.86 6.5,-1.69 9.75,-2.485 0.332,-0.065 0.729,-0.101 1.192,-0.101 1.791,0 3.881,0.695 6.269,2.088 0.065,0.267 0.231,0.765 0.498,1.492 0.264,0.73 0.396,1.262 0.396,1.592 0,0.535 -0.232,0.966 -0.695,1.296 z" />
	<path
   id="path114"
   d="m 398.8,249.961 c -0.598,2.387 -1.726,3.779 -3.383,4.178 -4.312,1.062 -11.806,2.453 -22.481,4.178 -1.326,16.515 -1.988,30.275 -1.988,41.283 0,4.178 0.064,8.291 0.197,12.334 0.065,1.261 0,2.222 -0.197,2.886 -0.333,1.061 -0.995,1.559 -1.99,1.491 -1.924,-0.065 -3.516,-0.879 -4.773,-2.438 -1.262,-1.559 -1.957,-3.297 -2.09,-5.223 -0.134,-2.451 -0.199,-5.039 -0.199,-7.758 0,-4.377 0.299,-11.308 0.896,-20.791 0.598,-9.086 0.861,-16.017 0.796,-20.791 -1.791,-0.131 -4.276,0.035 -7.461,0.498 -3.647,0.53 -6.168,0.795 -7.562,0.795 -3.248,0 -5.9,-0.869 -7.957,-2.607 -0.797,-1.738 -1.193,-2.641 -1.193,-2.707 0,-0.469 0.232,-0.971 0.695,-1.506 2.123,-0.734 6.467,-1.402 13.031,-2.006 5.771,-0.603 10.08,-1.672 12.933,-3.209 2.321,0.795 4.975,1.192 7.958,1.192 2.984,0 5.835,-0.362 8.556,-1.094 0.796,-0.065 2.817,-0.531 6.067,-1.396 2.388,-0.596 4.378,-0.795 5.969,-0.596 1.193,0 1.691,0.498 1.492,1.492 1.788,0.004 2.684,0.6 2.684,1.795 z" />
	<path
   id="path116"
   d="m 421.38,307.16 c 0.398,1.061 0.597,1.988 0.597,2.785 0,1.326 -0.563,2.485 -1.689,3.479 -1.129,0.996 -1.891,1.459 -2.288,1.394 -3.25,-0.597 -5.307,-3.215 -6.168,-7.857 -0.93,-5.039 -2.023,-9.252 -3.282,-12.635 -2.256,0.199 -4.511,0.398 -6.765,0.598 -2.587,0.332 -4.61,1.129 -6.068,2.387 -0.729,2.058 -1.69,5.705 -2.885,10.943 -1.128,4.84 -2.224,8.521 -3.282,11.041 -0.531,1.193 -1.658,1.525 -3.383,0.996 -2.188,-0.73 -3.35,-1.727 -3.48,-2.984 -0.199,-2.521 0.529,-5.901 2.188,-10.146 1.988,-4.843 3.084,-8.291 3.283,-10.347 0.063,-0.598 -0.366,-1.26 -1.295,-1.989 -0.93,-0.729 -1.393,-1.293 -1.393,-1.691 0,-0.329 0.149,-0.68 0.448,-1.045 0.298,-0.362 0.994,-0.662 2.089,-0.896 1.094,-0.231 1.706,-0.58 1.84,-1.045 1.194,-3.313 3.084,-9.481 5.67,-18.502 2.188,-7.824 4.146,-13.828 5.869,-18.006 0.398,-0.928 1.228,-1.393 2.487,-1.393 0.928,0 1.757,0.299 2.487,0.895 1.854,1.592 3.049,3.98 3.58,7.164 0.397,2.719 0.763,5.438 1.095,8.156 3.315,15.653 6.764,28.55 10.345,38.698 z m -14.525,-19 c -0.198,-2.453 -0.631,-5.207 -1.293,-8.258 -0.663,-2.65 -1.294,-5.305 -1.891,-7.957 -1.989,5.504 -3.715,11.008 -5.173,16.512 1.063,-0.199 3.848,-0.297 8.357,-0.297 z" />
	<path
   id="path118"
   d="m 460.871,287.064 c -1.791,4.442 -2.952,9.916 -3.481,16.414 -0.333,5.637 -0.632,11.272 -0.896,16.909 -0.134,1.658 -1.229,2.488 -3.283,2.488 -0.597,0 -1.161,-0.1 -1.689,-0.299 -2.854,-1.193 -4.277,-3.416 -4.277,-6.664 0,-0.93 0.132,-2.338 0.396,-4.229 0.266,-1.891 0.397,-3.266 0.397,-4.129 0.265,-1.922 0.598,-4.807 0.995,-8.654 -4.576,4.313 -9.749,7.527 -15.52,9.65 -0.796,0.267 -1.591,0.396 -2.387,0.396 -3.052,0 -5.869,-1.724 -8.456,-5.172 -1.458,-1.924 -2.188,-4.312 -2.188,-7.162 0,-2.521 0.563,-5.473 1.69,-8.854 3.516,-10.743 9.117,-21.254 16.813,-31.534 3.846,-5.105 7.262,-7.658 10.246,-7.658 2.65,0 4.144,0.994 4.477,2.983 0.264,1.658 -0.299,2.853 -1.691,3.58 -2.321,1.263 -3.549,1.957 -3.681,2.091 -5.57,6.165 -10.678,14.125 -15.319,23.872 -2.853,6.035 -4.276,11.441 -4.276,16.216 0,0.862 0.032,1.727 0.1,2.586 0.132,0.067 0.331,0.383 0.597,0.944 0.266,0.563 0.631,0.746 1.095,0.547 4.377,-1.723 10.976,-6.266 19.796,-13.627 0.662,-0.53 1.426,-2.055 2.288,-4.575 0.662,-1.855 1.855,-2.785 3.581,-2.785 -0.531,0 0,-0.066 1.592,-0.199 0.796,-0.133 1.326,0 1.592,0.398 1.259,1.856 1.891,3.381 1.891,4.575 -0.003,0.599 -0.137,1.23 -0.402,1.892 z" />
</g>
</svg>
