<?xml version="1.0" encoding="utf-8"?>
<!-- Generator: Adobe Illustrator 16.0.0, SVG Export Plug-In . SVG Version: 6.00 Build 0)  -->
<!DOCTYPE svg PUBLIC "-//W3C//DTD SVG 1.1//EN" "http://www.w3.org/Graphics/SVG/1.1/DTD/svg11.dtd">
<svg version="1.1" id="Layer_1" xmlns="http://www.w3.org/2000/svg" xmlns:xlink="http://www.w3.org/1999/xlink" x="0px" y="0px"
	 width="646px" height="449px" viewBox="0 0 646 449" enable-background="new 0 0 646 449" xml:space="preserve">
<g>
	<path fill="#FFFFFF" d="M302.007,365.517c-16.434-0.225-32.742-0.223-49.15-1.422c-15.524-1.135-31.074-3.297-46.634-3.772
		c-15.958-0.486-36.145,2.735-48.348-10.197c-5.475-5.801-8.446-13.046-11.948-20.029c0.671,5.056,0.981,10.216,1.584,15.618
		c0.657,5.876,1.696,11.993,5.652,16.649c4.589,5.402,10.826,6.656,17.638,6.352c30.201-1.348,60.609,0.606,90.825,1.76
		c16.564,0.632,33.127,1.337,49.681,2.198c16.896,0.879,33.767,2.282,50.694,2.319c23.435,0.051,46.807-1.476,70.192-2.719
		c-10.843-0.058-21.685-0.44-32.514-1.044C367.123,369.415,334.63,365.963,302.007,365.517z"/>
	<path fill="#FFFFFF" d="M479.49,370.991c7.027,0.073,14.052,0.17,21.078,0.027c7.954-0.161,16.773-1.03,23.386-5.925
		c0.484-0.358,0.949-0.733,1.401-1.119C512.074,371.793,494.307,370.988,479.49,370.991z"/>
	<path fill="#FFFFFF" d="M158.028,110.188c-8.022,2.766-14.501,8.1-17.108,18.355c-1.54,6.057-1.86,12.213-1.9,18.396
		c0.667-2.808,1.376-5.604,2.176-8.372C144.449,127.304,149.801,117.376,158.028,110.188z"/>
	<path fill="#FFFFFF" d="M537.053,202.713c0.364-16.256,0.831-32.631-0.802-48.837c-0.926-9.19-1.801-19.681-6.119-28.194
		c1.537,5.031,1.958,10.492,1.986,15.652c0.059,10.519-1.269,20.948-2.404,31.387c-1.362,12.515-1.162,24.8-0.013,37.346
		c1.416,15.469,3.692,30.88,4.436,46.405c0.689,14.407,0.028,28.743,1.144,43.151c1.04,13.422,2.552,27.047,1.466,40.514
		c-0.011,0.133-0.022,0.266-0.033,0.398c2.216-13.338,1.84-27.242,1.82-40.695C538.484,267.436,536.325,235.122,537.053,202.713z"/>
	<path fill="#FFFFFF" d="M109.169,262.283c-0.205-0.659-0.398-1.32-0.582-1.984c0.894,6.045,2.332,11.946,4.395,17.266
		c4.021,10.367,10.772,18.855,18.011,27.15c2.248,2.575,4.499,5.172,6.68,7.824c-4.554-8.792-10.141-16.912-15.567-25.184
		C116.951,279.5,111.974,271.316,109.169,262.283z"/>
	<path fill="#FFFFFF" d="M194.381,105.121c32.934,0.029,65.866,0.5,98.793,1.152c65.239,1.289,130.474,3.148,195.73,3.188
		c6.011-0.094,12.812-0.541,19.331,0.004c-17.84-5.56-38.318-3.133-56.538-3.18c-14.036-0.037-28.111-1.992-42.124-2.842
		c-16.348-0.991-32.708-1.756-49.057-2.735c-29.883-1.79-59.587-4.878-89.556-5.399c-15.119-0.263-30.254-0.174-45.359,0.581
		c-14.566,0.729-30.039,1.091-44.268,4.567c-4.772,1.165-9.457,2.79-13.774,5.048C176.52,104.434,185.994,105.115,194.381,105.121z"
		/>
	<path fill="#FFFFFF" d="M129.917,194.097c-1.644,2.687-3.56,5.245-5.559,7.754c0.254-0.3,0.508-0.596,0.761-0.898
		C126.978,198.724,128.555,196.438,129.917,194.097z"/>
	<path fill="#FFFFFF" d="M146.169,131.667c0.839-1.358,1.773-2.681,2.817-3.957c6.441-7.88,15.174-13.149,24.862-16.108
		c7.198-2.199,14.551-3.549,21.981-4.302c-4.146-0.015-8.291-0.037-12.437-0.044c-7.162-0.014-14.767,0.188-21.593,1.834
		c-2.521,1.867-4.833,4.034-6.854,6.559C151.091,120.463,148.288,125.925,146.169,131.667z"/>
	<path fill="#FFFFFF" d="M530.438,245.993c-1.392-15.415-3.678-30.769-4.44-46.236c-0.529-10.728,0.198-21.001,1.39-31.65
		c1.758-15.71,6.63-42.062-7.843-53.33c-8.601-4.253-19.702-3.39-29.505-3.167c-0.103,0.019-0.209,0.029-0.322,0.029
		c-0.369,0-0.738-0.002-1.107-0.002c-0.563,0.008-1.121,0.015-1.673,0.016c-0.107,0-0.205-0.009-0.298-0.021
		c-4.95-0.004-9.901-0.011-14.852-0.036c-40.584-0.208-81.157-1.053-121.73-1.938c-0.398,0.242-0.881,0.43-1.23,0.43
		c-30.554,0.063-61.337,3.747-91.843,1.113c-27.045-2.336-56.282-6.951-82.783,1.716c-12.717,4.159-24.018,12.665-28.753,25.6
		c-4.473,12.216-3.613,25.22-6.056,37.828c-2.345,12.104-7.962,20.755-16.154,29.718c-5.559,6.082-10.326,12.262-13.077,19.549
		c-1.932,11.067-1.925,22.782,1.206,33.566c5.782,19.911,20.708,35.041,29.655,53.412c1.409,2.894,2.427,5.771,3.199,8.654
		c1.867,2.771,3.588,5.638,5.043,8.67c4.61,9.607,8.945,20.081,19.223,24.908c8.333,3.914,17.66,3.844,26.679,3.846
		c12.573,0.002,24.957,0.998,37.479,2.108c16.945,1.503,33.929,3.038,50.951,3.193c16.319,0.148,32.568,0.202,48.873,1.142
		c32.549,1.877,65.047,5.307,97.671,5.631c13.401,0.134,26.692-0.916,40.065-1.199c9.032-0.192,18.077,0.109,27.102-0.404
		c9.143-0.521,20.344-1.229,27.962-6.946c8.928-6.701,8.875-19.33,8.888-29.526c0.017-14.164-1.716-28.223-2.46-42.352
		C530.917,275.521,531.773,260.783,530.438,245.993z M145.285,238.925c-0.248,2.14-0.848,6.552-2.011,10.828
		c-0.081,1.367-0.144,2.72-0.17,4.049c-0.041,2.206-0.924,2.323-1.83,1.559c-2.198,4.61-5.466,7.22-10.25,2.917
		c-7.523-6.771-7.336-19.55-5.703-29.103c0.675-3.914,1.856-10.618,5.954-12.175c4.022-1.529,8.336,0.813,10.126,4.859
		c1.84,4.154,2.456,8.666,2.546,13.276C144.767,236.07,145.434,237.66,145.285,238.925z"/>
	<path fill="#FFFFFF" d="M135.797,223.437c-4.113-0.436-5.645,3.624-6.384,7.315c-1.024,5.102-3.34,17.896,1.878,21.148
		c4.33,2.701,6.748-0.24,8.161-4.43c0.253-4.584,0.693-9.154,0.561-13.76C139.913,230.145,140.284,223.91,135.797,223.437z"/>
	<path fill="#FFFFFF" d="M235.437,107.574c5.218,0.422,10.41,0.924,15.549,1.426c24.711,2.414,49.415,1.002,74.146,0.113
		c-16.623-0.359-33.247-0.705-49.872-0.996C261.985,107.885,248.711,107.711,235.437,107.574z"/>
	<path d="M541.412,289.733c-0.174-16.509-0.811-33.009-1.442-49.505c-0.604-15.744-0.074-31.475,0.221-47.219
		c0.284-15.145,0.015-30.211-1.612-45.277c-1.018-9.421-2.869-19.451-8.261-27.447c-2.537-3.762-5.847-6.271-9.603-7.939
		c-5.593-3.609-13.037-5.111-19.144-6.127c-21.424-3.566-43.433-0.631-65.008-2.461c-31.962-2.711-64.046-3.524-96.004-6.26
		c-29.435-2.52-58.977-4.025-88.523-3.828c-14.449,0.097-28.892,0.701-43.293,1.871c-11.939,0.97-24.062,1.945-35.457,5.859
		c-3.611,1.24-6.875,2.848-9.852,4.74c-5.789,1.107-11.247,3.143-15.907,6.816c-14.188,11.188-11.68,32.167-11.801,49.617
		c-1.071,5.57-2.1,11.146-3.255,16.67c-0.95,4.544-2.335,8.508-4.238,12.297c-2.706,4.252-6.043,8.166-9.815,11.896
		c-6.511,6.438-9.625,13.736-11.188,22.462c-0.314,0.828-0.612,1.67-0.875,2.544c-3.82,12.707-1.345,27.422,0.991,40.168
		c1.959,10.689,7.187,20.17,13.779,28.668c6.423,8.279,13.894,15.658,19.885,24.286c0.183,0.263,0.352,0.532,0.529,0.798
		c2.297,8.706,2.213,17.713,3.409,26.899c1.216,9.347,6.129,18.924,16.146,20.964c4.954,1.01,9.942,0.695,14.95,0.326
		c7.849-0.579,15.658-0.199,23.517,0.04c32.945,1.003,65.889,2.079,98.813,3.642c32.2,1.527,64.013,3.557,96.27,2.196
		c31.985-1.349,63.923-4.099,95.963-3.444c14.985,0.307,31.572,0.453,41.522-12.721c5.229-6.92,7.127-15.937,8.163-24.357
		C542.157,320.729,541.573,304.995,541.412,289.733z M181.334,100.457c14.229-3.477,29.702-3.839,44.268-4.567
		c15.105-0.755,30.24-0.844,45.359-0.581c29.969,0.521,59.673,3.609,89.556,5.399c16.349,0.979,32.709,1.744,49.057,2.735
		c14.013,0.85,28.088,2.805,42.124,2.842c18.22,0.047,38.698-2.38,56.538,3.18c-6.52-0.545-13.32-0.098-19.331-0.004
		c-65.257-0.039-130.491-1.898-195.73-3.188c-32.928-0.652-65.859-1.123-98.793-1.152c-8.387-0.006-17.861-0.688-26.821,0.384
		C171.877,103.247,176.562,101.622,181.334,100.457z M325.132,109.113c-24.731,0.889-49.436,2.301-74.146-0.113
		c-5.139-0.502-10.331-1.004-15.549-1.426c13.274,0.137,26.549,0.311,39.823,0.543C291.885,108.408,308.509,108.754,325.132,109.113
		z M161.8,109.09c6.826-1.646,14.432-1.848,21.593-1.834c4.146,0.007,8.291,0.029,12.437,0.044
		c-7.431,0.753-14.783,2.103-21.981,4.302c-9.688,2.959-18.421,8.229-24.862,16.108c-1.044,1.276-1.978,2.599-2.817,3.957
		c2.118-5.742,4.921-11.204,8.776-16.019C156.967,113.124,159.279,110.957,161.8,109.09z M140.92,128.543
		c2.607-10.256,9.086-15.59,17.108-18.355c-8.228,7.188-13.58,17.116-16.833,28.379c-0.8,2.769-1.508,5.564-2.176,8.372
		C139.06,140.756,139.38,134.6,140.92,128.543z M129.917,194.097c-1.362,2.341-2.938,4.627-4.798,6.855
		c-0.252,0.303-0.507,0.599-0.761,0.898C126.356,199.342,128.272,196.783,129.917,194.097z M130.993,304.715
		c-7.239-8.295-13.99-16.783-18.011-27.15c-2.063-5.319-3.501-11.221-4.395-17.266c0.184,0.664,0.377,1.325,0.582,1.984
		c2.805,9.033,7.782,17.217,12.937,25.072c5.427,8.271,11.013,16.392,15.567,25.184C135.492,309.887,133.241,307.29,130.993,304.715
		z M362,374.992c-16.928-0.037-33.798-1.44-50.694-2.319c-16.554-0.861-33.116-1.566-49.681-2.198
		c-30.216-1.153-60.624-3.107-90.825-1.76c-6.813,0.305-13.049-0.949-17.638-6.352c-3.956-4.656-4.995-10.773-5.652-16.649
		c-0.604-5.402-0.914-10.563-1.584-15.618c3.502,6.983,6.474,14.229,11.948,20.029c12.204,12.933,32.39,9.711,48.348,10.197
		c15.56,0.476,31.11,2.638,46.634,3.772c16.408,1.199,32.717,1.197,49.15,1.422c32.623,0.446,65.116,3.898,97.672,5.713
		c10.829,0.604,21.671,0.986,32.514,1.044C408.807,373.517,385.435,375.043,362,374.992z M523.954,365.094
		c-6.612,4.895-15.432,5.764-23.386,5.925c-7.026,0.143-14.051,0.046-21.078-0.027c14.816-0.003,32.584,0.802,45.865-7.017
		C524.903,364.36,524.438,364.735,523.954,365.094z M525.268,362.19c-7.618,5.718-18.819,6.425-27.962,6.946
		c-9.024,0.514-18.069,0.212-27.102,0.404c-13.373,0.283-26.664,1.333-40.065,1.199c-32.624-0.324-65.122-3.754-97.671-5.631
		c-16.305-0.939-32.554-0.993-48.873-1.142c-17.022-0.155-34.006-1.69-50.951-3.193c-12.522-1.11-24.905-2.106-37.479-2.108
		c-9.019-0.002-18.346,0.068-26.679-3.846c-10.278-4.827-14.613-15.301-19.223-24.908c-1.455-3.032-3.176-5.898-5.043-8.67
		c-0.772-2.884-1.79-5.761-3.199-8.654c-8.947-18.371-23.873-33.501-29.655-53.412c-3.131-10.784-3.138-22.499-1.206-33.566
		c2.751-7.287,7.518-13.467,13.077-19.549c8.192-8.963,13.809-17.613,16.154-29.718c2.443-12.608,1.583-25.612,6.056-37.828
		c4.735-12.935,16.037-21.44,28.753-25.6c26.5-8.667,55.738-4.052,82.783-1.716c30.506,2.634,61.289-1.051,91.843-1.113
		c0.35,0,0.832-0.188,1.23-0.43c40.573,0.886,81.146,1.73,121.73,1.938c4.95,0.025,9.901,0.032,14.852,0.036
		c0.093,0.013,0.19,0.021,0.298,0.021c0.552-0.001,1.11-0.008,1.673-0.016c0.369,0,0.738,0.002,1.107,0.002
		c0.113,0,0.22-0.011,0.322-0.029c9.803-0.223,20.904-1.086,29.505,3.167c14.473,11.269,9.601,37.62,7.843,53.33
		c-1.191,10.649-1.919,20.923-1.39,31.65c0.763,15.468,3.049,30.821,4.44,46.236c1.336,14.79,0.479,29.527,1.258,44.319
		c0.744,14.129,2.477,28.188,2.46,42.352C534.143,342.86,534.195,355.489,525.268,362.19z M536.713,340.535
		c0.011-0.133,0.022-0.266,0.033-0.398c1.086-13.467-0.426-27.092-1.466-40.514c-1.115-14.408-0.454-28.744-1.144-43.151
		c-0.743-15.525-3.02-30.937-4.436-46.405c-1.149-12.546-1.35-24.831,0.013-37.346c1.136-10.438,2.463-20.868,2.404-31.387
		c-0.028-5.16-0.449-10.621-1.986-15.652c4.318,8.514,5.193,19.004,6.119,28.194c1.633,16.206,1.166,32.581,0.802,48.837
		c-0.728,32.409,1.432,64.723,1.48,97.127C538.553,313.293,538.929,327.197,536.713,340.535z"/>
	<path d="M141.402,221.859c-1.79-4.047-6.104-6.389-10.126-4.859c-4.098,1.557-5.279,8.261-5.954,12.175
		c-1.633,9.553-1.82,22.331,5.703,29.103c4.784,4.303,8.052,1.693,10.25-2.917c0.905,0.765,1.789,0.647,1.83-1.559
		c0.026-1.329,0.089-2.682,0.17-4.049c1.163-4.276,1.763-8.688,2.011-10.828c0.148-1.265-0.518-2.854-1.336-3.789
		C143.858,230.525,143.242,226.014,141.402,221.859z M139.452,247.471c-1.413,4.189-3.831,7.131-8.161,4.43
		c-5.218-3.252-2.902-16.047-1.878-21.148c0.739-3.691,2.271-7.751,6.384-7.315c4.487,0.474,4.116,6.708,4.216,10.274
		C140.146,238.316,139.705,242.887,139.452,247.471z"/>
</g>
<g>
	<path d="M301.106,213.336c0.289,1.451-0.763,2.25-3.158,2.396c-1.598,0.07-3.231-0.618-4.9-2.07
		c-1.381-1.234-2.47-3.229-3.268-5.989c-0.727-2.541-1.162-6.135-1.307-10.782c-0.146-5.228-0.4-8.821-0.763-10.781
		c-0.944,3.268-2.505,8.132-4.683,14.594c-1.307,3.558-2.107,5.592-2.396,6.098c-1.162,2.252-2.613,3.268-4.355,3.05
		c-3.485-0.798-6.172-2.759-8.06-5.881c-1.235-2.032-2.396-5.263-3.485-9.692c-1.162-4.863-2.143-8.131-2.939-9.802
		c-3.123,15.175-6.463,26.501-10.02,33.979c-0.51,1.09-2.034,1.016-4.574-0.219c-2.107-1.018-3.158-2.469-3.158-4.355
		c0-0.654,0.762-2.977,2.287-6.971c0.652-1.742,3.193-10.129,7.623-25.157c1.524-5.228,3.121-14.411,4.791-27.554
		c0.146-0.145,0.508-0.906,1.09-2.287c0.362-1.016,1.016-1.524,1.961-1.524c2.467,0,4.174,0.473,5.118,1.415
		c0,2.107,0.344,5.5,1.034,10.184c0.689,4.683,1.035,8.223,1.035,10.618c0.653,4.067,1.27,8.168,1.852,12.307
		c0.798,4.647,2.249,8.459,4.355,11.435c6.971-19.385,11.397-34.703,13.287-45.958c0.289-1.161,1.378-1.743,3.267-1.743
		c2.686,0,4.21,0.871,4.574,2.614c0.507,2.614,0.763,5.628,0.763,9.039c0,1.089-0.073,3.485-0.218,7.188
		c-0.073,2.978-0.073,5.409,0,7.297C297.513,190.104,298.929,202.954,301.106,213.336z"/>
	<path d="M318.857,156.377c0.145,2.107,0.218,4.285,0.218,6.535c0,4.938-0.509,12.379-1.524,22.326
		c-1.018,9.947-1.524,17.462-1.524,22.543c0,1.889,0.035,3.738,0.108,5.555c-0.653,2.031-2.069,3.012-4.247,2.94
		c-3.123-0.146-4.829-1.489-5.119-4.03c-0.291-2.54-0.436-5.227-0.436-8.059c0-4.937,0.6-12.307,1.797-22.107
		c1.198-9.803,1.797-17.135,1.797-22c0-1.887-0.072-3.738-0.218-5.555c0.726-1.378,1.961-2.068,3.703-2.068
		c1.379,0,2.759,0.399,4.139,1.197c0.289-0.217,0.507-0.326,0.653-0.326c0.218,0,0.327,0.364,0.327,1.089
		c-0.073,0.872-0.073,1.38,0,1.524C318.603,156.16,318.711,156.307,318.857,156.377z"/>
	<path d="M364.271,206.257c0.436,1.162,0.653,2.179,0.653,3.05c0,1.453-0.618,2.723-1.852,3.812
		c-1.235,1.089-2.069,1.597-2.505,1.524c-3.558-0.653-5.81-3.521-6.752-8.604c-1.018-5.518-2.216-10.129-3.594-13.831
		c-2.47,0.218-4.938,0.436-7.406,0.653c-2.831,0.364-5.047,1.235-6.644,2.613c-0.8,2.252-1.851,6.246-3.158,11.98
		c-1.235,5.299-2.433,9.328-3.594,12.09c-0.582,1.307-1.815,1.668-3.703,1.088c-2.396-0.799-3.667-1.889-3.812-3.268
		c-0.218-2.76,0.58-6.461,2.396-11.108c2.178-5.299,3.376-9.075,3.594-11.326c0.071-0.653-0.4-1.378-1.416-2.179
		c-1.018-0.798-1.524-1.416-1.524-1.852c0-0.361,0.163-0.743,0.49-1.143c0.326-0.398,1.089-0.725,2.287-0.98
		c1.197-0.254,1.868-0.635,2.015-1.144c1.307-3.63,3.376-10.382,6.207-20.257c2.396-8.566,4.537-15.139,6.426-19.712
		c0.436-1.017,1.343-1.524,2.723-1.524c1.016,0,1.923,0.326,2.723,0.979c2.032,1.743,3.339,4.356,3.921,7.841
		c0.436,2.979,0.834,5.955,1.198,8.932C356.574,181.027,360.351,195.148,364.271,206.257z M348.371,185.455
		c-0.218-2.685-0.691-5.698-1.416-9.039c-0.727-2.902-1.416-5.808-2.069-8.713c-2.178,6.027-4.066,12.054-5.663,18.079
		C340.383,185.564,343.433,185.455,348.371,185.455z"/>
	<path d="M421.774,213.336c0.289,1.451-0.762,2.25-3.158,2.396c-1.598,0.07-3.232-0.618-4.9-2.07
		c-1.381-1.234-2.471-3.229-3.268-5.989c-0.727-2.541-1.162-6.135-1.307-10.782c-0.146-5.228-0.4-8.821-0.764-10.781
		c-0.943,3.268-2.504,8.132-4.682,14.594c-1.307,3.558-2.107,5.592-2.396,6.098c-1.162,2.252-2.613,3.268-4.355,3.05
		c-3.486-0.798-6.172-2.759-8.061-5.881c-1.234-2.032-2.395-5.263-3.484-9.692c-1.162-4.863-2.143-8.131-2.94-9.802
		c-3.123,15.175-6.463,26.501-10.02,33.979c-0.509,1.09-2.034,1.016-4.574-0.219c-2.106-1.018-3.158-2.469-3.158-4.355
		c0-0.654,0.762-2.977,2.287-6.971c0.653-1.742,3.193-10.129,7.623-25.157c1.524-5.228,3.121-14.411,4.792-27.554
		c0.145-0.145,0.507-0.906,1.089-2.287c0.362-1.016,1.016-1.524,1.961-1.524c2.468,0,4.175,0.473,5.118,1.415
		c0,2.107,0.344,5.5,1.035,10.184c0.689,4.683,1.035,8.223,1.035,10.618c0.652,4.067,1.27,8.168,1.852,12.307
		c0.797,4.647,2.248,8.459,4.355,11.435c6.971-19.385,11.398-34.703,13.287-45.958c0.289-1.161,1.377-1.743,3.268-1.743
		c2.684,0,4.209,0.871,4.572,2.614c0.508,2.614,0.764,5.628,0.764,9.039c0,1.089-0.074,3.45-0.219,7.079
		c-0.072,3.049-0.072,5.519,0,7.406C418.181,190.104,419.597,202.954,421.774,213.336z"/>
	<path d="M439.525,156.377c0.145,2.107,0.218,4.285,0.218,6.535c0,4.938-0.509,12.379-1.524,22.326
		c-1.018,9.947-1.525,17.462-1.525,22.543c0,1.889,0.036,3.738,0.109,5.555c-0.653,2.031-2.069,3.012-4.247,2.94
		c-3.123-0.146-4.83-1.489-5.119-4.03c-0.291-2.54-0.436-5.227-0.436-8.059c0-4.937,0.599-12.307,1.797-22.107
		c1.198-9.803,1.797-17.135,1.797-22c0-1.887-0.073-3.738-0.218-5.555c0.726-1.378,1.961-2.068,3.703-2.068
		c1.378,0,2.759,0.399,4.139,1.197c0.289-0.217,0.507-0.326,0.653-0.326c0.218,0,0.326,0.364,0.326,1.089
		c-0.073,0.872-0.073,1.38,0,1.524C439.271,156.16,439.379,156.307,439.525,156.377z"/>
</g>
<g>
	<path d="M254.063,268.662c-0.862,3.58-3.052,6.83-6.565,9.748c-3.383,2.389-6.765,4.742-10.146,7.063
		c0.199,0.996,0.878,1.742,2.039,2.238c1.16,0.498,2.271,0.98,3.332,1.443c5.504,3.58,8.257,7.826,8.257,12.732
		c0,3.781-1.293,7.262-3.88,10.445c-1.989,2.453-4.941,4.875-8.854,7.262c-3.183,1.855-6.366,3.713-9.549,5.57
		c-0.797,0.463-1.658,0.697-2.587,0.697c-2.188,0-3.715-0.896-4.576-2.686c0.132-5.572,0.264-11.109,0.398-16.613
		c0.132-6.631,0.497-12.102,1.094-16.414c-1.393-0.928-2.089-1.988-2.089-3.184c0-0.596,0.249-1.143,0.746-1.641
		c0.498-0.498,1.177-1.045,2.04-1.641c0.796-10.08,0.96-19.365,0.497-27.854c-3.118-0.598-5.172-1.99-6.167-4.18
		c-0.067-0.264,0.05-0.662,0.348-1.193c0.299-0.529,0.448-0.961,0.448-1.293c1.525-1.127,3.216-1.691,5.073-1.691
		c1.326,0,4.377,0.434,9.152,1.293c2.452,0.398,5.006,1.295,7.659,2.688c7.163,3.715,11.373,7.328,12.634,10.842
		C254.228,264.816,254.46,266.938,254.063,268.662z M241.728,302.684c0.132-0.73,0.199-1.426,0.199-2.09
		c0-1.99-0.631-3.746-1.891-5.271c-3.383-1.658-5.538-2.488-6.466-2.488c-0.532,0-1.028,0.1-1.492,0.299
		c0.065,0.664,0.1,1.393,0.1,2.189c0,1.393-0.184,3.531-0.548,6.416c-0.365,2.885-0.547,5.057-0.547,6.516
		c0,2.123,0.265,4.043,0.796,5.77c0.796-0.93,2.04-1.908,3.73-2.936c1.691-1.027,2.868-1.939,3.532-2.734
		C240.335,306.961,241.196,305.07,241.728,302.684z M244.712,263.688c-0.333-2.453-2.322-4.342-5.969-5.67
		c-0.531-0.199-1.36-0.629-2.487-1.293c-0.796-0.529-1.46-0.795-1.989-0.795c-0.266,0-0.564,0.066-0.896,0.197
		c-0.067,1.129-0.099,2.322-0.099,3.582c0,1.725,0.131,4.643,0.397,8.754c0.198,3.779,0.265,6.732,0.198,8.854
		c0.464,0,1.16-0.348,2.09-1.045c0.928-0.695,1.457-1.076,1.592-1.145c1.988-0.928,3.746-2.486,5.271-4.674
		C244.347,268.264,244.976,266.01,244.712,263.688z"/>
	<path d="M269.38,261.6c0.133,1.924,0.199,3.914,0.199,5.969c0,4.51-0.465,11.307-1.393,20.393
		c-0.93,9.086-1.393,15.949-1.393,20.592c0,1.725,0.033,3.414,0.1,5.072c-0.597,1.855-1.891,2.752-3.879,2.686
		c-2.853-0.133-4.412-1.359-4.676-3.68c-0.266-2.32-0.398-4.775-0.398-7.361c0-4.51,0.547-11.242,1.642-20.193
		c1.095-8.953,1.642-15.65,1.642-20.096c0-1.723-0.066-3.414-0.199-5.072c0.662-1.26,1.791-1.891,3.383-1.891
		c1.258,0,2.52,0.365,3.779,1.094c0.265-0.197,0.463-0.297,0.598-0.297c0.198,0,0.298,0.332,0.298,0.994
		c-0.067,0.795-0.067,1.26,0,1.393C269.147,261.4,269.247,261.533,269.38,261.6z"/>
	<path d="M309.171,306.463c0.398,0.332,0.597,0.795,0.597,1.393c0,0.398-0.266,1.393-0.796,2.984c-0.266-0.064-0.497-0.1-0.696-0.1
		c-0.397,0-0.912,0.166-1.542,0.498c-0.631,0.332-1.111,0.496-1.442,0.496c-0.333,0-0.696-0.131-1.095-0.396
		c-4.443-2.785-11.34-6.965-20.69-12.535c0.198,2.455,0.364,5.969,0.497,10.545c0,0.531,0.065,1.328,0.199,2.387
		c0.133,1.061,0.199,1.824,0.199,2.289c0,1.592-0.697,2.686-2.09,3.283c-0.397,0.264-0.961,0.396-1.69,0.396
		c-0.796,0-1.294-0.232-1.492-0.695c-1.726-0.598-2.72-1.758-2.984-3.482c-0.796-4.775-1.194-10.377-1.194-16.811
		c0-2.32,0.066-5.785,0.199-10.396c0.133-4.607,0.199-8.072,0.199-10.395c0-7.029-0.465-13.131-1.393-18.305
		c-0.134-0.795,0.331-1.324,1.393-1.592c0.796-0.131,1.625-0.264,2.486-0.396c0.861,0.266,1.758,0.58,2.687,0.945
		s1.425,0.943,1.492,1.74c0.995,9.02,1.425,16.182,1.294,21.486c2.718-2.453,5.834-5.703,9.35-9.748
		c2.984-3.383,5.936-6.797,8.854-10.246c0.797-0.332,1.657-0.498,2.587-0.498c2.587,0,3.944,0.896,4.078,2.686
		c-1.856,4.113-5.505,8.988-10.942,14.623c-6.366,6.566-10.445,11.242-12.235,14.027c4.111,2.453,8.257,4.908,12.435,7.361
		C302.073,300.926,305.987,303.744,309.171,306.463z"/>
	<path d="M346.475,262.195c-2.455,0.996-6.068,2.156-10.843,3.482c-4.775,1.328-8.391,2.486-10.844,3.482
		c-0.596,1.725-1.028,5.57-1.293,11.539c1.061,0.396,2.288,0.596,3.682,0.596c0.994,0,2.551-0.164,4.675-0.496
		c2.122-0.332,3.681-0.498,4.675-0.498c1.856,0,3.448,0.398,4.774,1.193c0.93,1.328,1.395,2.189,1.395,2.586
		c0,0.465-0.234,0.83-0.697,1.096c-0.133,0.066-0.598,0.531-1.393,1.393c-0.531,0.596-1.193,0.861-1.99,0.795
		c-1.392,0.332-3.946,0.531-7.659,0.598c-3.117,0.066-5.605,0.465-7.461,1.193c-1.26,4.908-1.89,8.787-1.89,11.639
		c0,1.924,0.265,3.449,0.796,4.576c3.116,2.188,8.521,3.117,16.214,2.785c0.531,0,1.096-0.248,1.691-0.746
		c0.598-0.498,1.094-0.746,1.492-0.746c1.855-0.398,3.084,0.994,3.682,4.178c0.197,1.063,0.016,2.039-0.549,2.934
		c-0.563,0.896-1.377,1.377-2.436,1.443c-8.025,0.264-14.989-0.365-20.891-1.891c-1.857-0.465-3.549-1.492-5.073-3.084
		c-1.526-1.592-2.388-3.381-2.586-5.371c-0.598-5.77-0.598-10.941,0-15.518c-1.857-1.26-2.687-2.488-2.487-3.682
		c0.065-0.596,0.579-1.145,1.542-1.641c0.961-0.498,1.508-1.01,1.641-1.543c0.133-0.529,0.398-3.68,0.797-9.449
		c-3.715-0.729-5.539-2.121-5.472-4.178c0.065-1.924,1.226-3.447,3.481-4.576c2.121-0.861,4.243-1.725,6.367-2.586
		c2.452-1.26,5.535-2.389,9.25-3.383c3.249-0.861,6.5-1.691,9.749-2.486c0.332-0.066,0.729-0.1,1.193-0.1
		c1.791,0,3.881,0.695,6.268,2.088c0.066,0.266,0.232,0.764,0.498,1.492c0.264,0.73,0.396,1.262,0.396,1.592
		C347.17,261.434,346.938,261.865,346.475,262.195z"/>
	<path d="M398.8,249.961c-0.598,2.387-1.726,3.779-3.383,4.178c-4.312,1.061-11.805,2.453-22.481,4.178
		c-1.327,16.514-1.989,30.275-1.989,41.283c0,4.178,0.065,8.291,0.198,12.334c0.065,1.26,0,2.221-0.198,2.885
		c-0.333,1.061-0.995,1.559-1.99,1.492c-1.924-0.066-3.516-0.879-4.774-2.438c-1.261-1.559-1.957-3.297-2.089-5.223
		c-0.134-2.451-0.199-5.039-0.199-7.758c0-4.377,0.299-11.307,0.896-20.791c0.597-9.086,0.861-16.016,0.796-20.791
		c-1.791-0.131-4.277,0.035-7.461,0.498c-3.648,0.531-6.168,0.795-7.561,0.795c-3.248,0-5.901-0.869-7.958-2.607
		c-0.796-1.738-1.193-2.641-1.193-2.707c0-0.469,0.233-0.971,0.696-1.506c2.123-0.734,6.466-1.402,13.031-2.006
		c5.77-0.602,10.08-1.672,12.932-3.209c2.321,0.795,4.975,1.193,7.958,1.193c2.984,0,5.835-0.363,8.556-1.094
		c0.796-0.066,2.817-0.531,6.067-1.395c2.388-0.596,4.378-0.795,5.969-0.596c1.194,0,1.691,0.498,1.492,1.492
		C397.904,248.17,398.8,248.766,398.8,249.961z"/>
	<path d="M421.38,307.16c0.398,1.061,0.597,1.988,0.597,2.785c0,1.326-0.564,2.486-1.69,3.48c-1.129,0.996-1.891,1.459-2.288,1.393
		c-3.25-0.596-5.307-3.215-6.168-7.857c-0.93-5.039-2.023-9.252-3.282-12.635c-2.256,0.199-4.511,0.398-6.765,0.598
		c-2.587,0.332-4.61,1.129-6.068,2.387c-0.73,2.057-1.691,5.705-2.885,10.943c-1.128,4.84-2.223,8.52-3.282,11.041
		c-0.532,1.193-1.659,1.525-3.383,0.996c-2.188-0.73-3.35-1.727-3.481-2.984c-0.199-2.521,0.53-5.902,2.188-10.146
		c1.989-4.842,3.084-8.291,3.283-10.346c0.064-0.598-0.366-1.26-1.294-1.99c-0.93-0.729-1.393-1.293-1.393-1.691
		c0-0.33,0.149-0.68,0.448-1.045c0.298-0.363,0.994-0.662,2.089-0.895c1.094-0.232,1.706-0.58,1.84-1.045
		c1.194-3.314,3.084-9.482,5.67-18.502c2.188-7.824,4.145-13.828,5.869-18.006c0.398-0.928,1.227-1.393,2.487-1.393
		c0.928,0,1.757,0.299,2.487,0.895c1.855,1.592,3.049,3.98,3.581,7.164c0.397,2.719,0.762,5.438,1.094,8.156
		C414.35,284.115,417.799,297.012,421.38,307.16z M406.856,288.16c-0.199-2.453-0.631-5.207-1.293-8.258
		c-0.664-2.65-1.294-5.305-1.891-7.957c-1.989,5.504-3.715,11.008-5.173,16.512C399.561,288.258,402.346,288.16,406.856,288.16z"/>
	<path d="M460.871,287.064c-1.791,4.443-2.952,9.916-3.481,16.414c-0.333,5.637-0.632,11.273-0.896,16.91
		c-0.134,1.658-1.228,2.488-3.283,2.488c-0.597,0-1.161-0.1-1.69-0.299c-2.853-1.193-4.277-3.416-4.277-6.664
		c0-0.93,0.132-2.338,0.397-4.229c0.265-1.891,0.397-3.266,0.397-4.129c0.265-1.922,0.598-4.807,0.995-8.654
		c-4.576,4.313-9.749,7.527-15.519,9.65c-0.796,0.266-1.591,0.396-2.387,0.396c-3.052,0-5.869-1.723-8.456-5.172
		c-1.458-1.924-2.188-4.311-2.188-7.162c0-2.52,0.564-5.473,1.691-8.854c3.515-10.744,9.117-21.254,16.812-31.535
		c3.846-5.105,7.262-7.658,10.246-7.658c2.651,0,4.144,0.994,4.477,2.984c0.264,1.658-0.299,2.852-1.691,3.58
		c-2.322,1.262-3.549,1.957-3.681,2.09c-5.57,6.166-10.678,14.125-15.319,23.873c-2.853,6.035-4.277,11.441-4.277,16.215
		c0,0.863,0.032,1.727,0.1,2.586c0.132,0.068,0.331,0.383,0.597,0.945c0.265,0.564,0.63,0.746,1.094,0.547
		c4.377-1.723,10.976-6.266,19.796-13.627c0.662-0.531,1.426-2.055,2.288-4.576c0.662-1.855,1.856-2.785,3.581-2.785
		c-0.531,0,0-0.066,1.592-0.199c0.796-0.133,1.326,0,1.592,0.398c1.259,1.857,1.89,3.381,1.89,4.576
		C461.269,285.771,461.136,286.402,460.871,287.064z"/>
</g>
</svg>
