<?xml version="1.0" encoding="utf-8"?>
<!-- Generator: Adobe Illustrator 16.0.0, SVG Export Plug-In . SVG Version: 6.00 Build 0)  -->
<!DOCTYPE svg PUBLIC "-//W3C//DTD SVG 1.1//EN" "http://www.w3.org/Graphics/SVG/1.1/DTD/svg11.dtd">
<svg version="1.1" id="Layer_1" xmlns="http://www.w3.org/2000/svg" xmlns:xlink="http://www.w3.org/1999/xlink" x="0px" y="0px"
	 width="646px" height="449px" viewBox="0 0 646 449" enable-background="new 0 0 646 449" xml:space="preserve">
<path fill="none" d="M194.385,96.585c32.934,0.029,65.865,0.5,98.793,1.152c65.239,1.29,130.474,3.149,195.73,3.188
	c6.011-0.094,12.81-0.541,19.331,0.004c-17.84-5.56-38.318-3.133-56.538-3.18c-14.036-0.037-28.111-1.992-42.124-2.842
	c-16.351-0.991-32.708-1.756-49.06-2.735c-29.884-1.79-59.587-4.878-89.557-5.399c-15.119-0.263-30.254-0.174-45.359,0.581
	c-14.566,0.728-30.039,1.09-44.268,4.567c-4.772,1.165-9.457,2.79-13.77,5.048C176.524,95.897,185.998,96.579,194.385,96.585z"/>
<path fill="none" d="M146.17,123.131c0.839-1.358,1.773-2.681,2.817-3.957c6.441-7.879,15.174-13.149,24.862-16.108
	c7.198-2.199,14.55-3.549,21.981-4.302c-4.146-0.015-8.291-0.037-12.437-0.044c-7.161-0.014-14.767,0.188-21.593,1.834
	c-2.521,1.867-4.833,4.034-6.854,6.558C151.091,111.927,148.288,117.389,146.17,123.131z"/>
<path fill="none" d="M135.797,214.905c-4.113-0.436-5.645,3.624-6.384,7.315c-1.024,5.098-3.34,17.897,1.878,21.149
	c4.33,2.697,6.748-0.244,8.161-4.434c0.253-4.584,0.694-9.154,0.561-13.754C139.913,221.613,140.284,215.379,135.797,214.905z"/>
<path fill="none" d="M109.169,253.748c-0.205-0.66-0.398-1.32-0.582-1.984c0.894,6.045,2.332,11.949,4.395,17.266
	c4.021,10.367,10.772,18.855,18.011,27.15c2.248,2.574,4.499,5.172,6.68,7.824c-4.554-8.793-10.14-16.913-15.567-25.184
	C116.951,270.965,111.974,262.781,109.169,253.748z"/>
<path fill="none" d="M158.028,101.652c-8.022,2.765-14.501,8.099-17.108,18.355c-1.54,6.057-1.86,12.213-1.901,18.396
	c0.668-2.809,1.376-5.603,2.176-8.372C144.448,118.768,149.8,108.84,158.028,101.652z"/>
<path fill="none" d="M129.917,185.561c-1.645,2.687-3.561,5.245-5.559,7.753c0.254-0.299,0.509-0.595,0.761-0.898
	C126.979,190.188,128.555,187.902,129.917,185.561z"/>
<path fill="none" d="M302.006,356.982c-16.433-0.228-32.742-0.226-49.15-1.424c-15.524-1.135-31.074-3.297-46.634-3.771
	c-15.958-0.486-36.144,2.738-48.348-10.197c-5.474-5.8-8.446-13.047-11.948-20.029c0.67,5.055,0.98,10.219,1.584,15.617
	c0.657,5.877,1.696,11.994,5.652,16.65c4.589,5.406,10.825,6.66,17.638,6.352c30.201-1.344,60.609,0.609,90.825,1.764
	c16.565,0.631,33.127,1.336,49.681,2.193c16.896,0.879,33.767,2.283,50.694,2.32c23.436,0.051,46.807-1.477,70.195-2.716
	c-10.847-0.062-21.688-0.441-32.518-1.046C367.122,360.879,334.629,357.427,302.006,356.982z"/>
<path fill="none" d="M479.49,362.459c7.023,0.074,14.052,0.17,21.078,0.027c7.95-0.16,16.773-1.031,23.386-5.928
	c0.483-0.359,0.949-0.734,1.401-1.115C512.074,363.262,494.303,362.457,479.49,362.459z"/>
<path fill="none" d="M537.05,194.18c0.364-16.256,0.831-32.631-0.802-48.837c-0.926-9.19-1.801-19.68-6.119-28.194
	c1.537,5.031,1.958,10.492,1.986,15.652c0.059,10.519-1.269,20.949-2.404,31.387c-1.366,12.515-1.162,24.8-0.013,37.346
	c1.416,15.466,3.692,30.88,4.436,46.401c0.692,14.408,0.031,28.744,1.146,43.152c1.04,13.422,2.552,27.047,1.466,40.514
	c-0.011,0.133-0.022,0.266-0.033,0.398c2.216-13.338,1.84-27.242,1.817-40.693C538.485,258.904,536.322,226.589,537.05,194.18z"/>
<path fill="none" d="M530.433,237.454c-1.389-15.415-3.675-30.768-4.438-46.236c-0.529-10.727,0.202-21.001,1.39-31.65
	c1.762-15.71,6.63-42.061-7.843-53.33c-8.601-4.253-19.702-3.39-29.505-3.167c-0.1,0.018-0.209,0.029-0.322,0.029
	c-0.369,0-0.734-0.002-1.104-0.002c-0.566,0.008-1.121,0.015-1.674,0.016c-0.11,0-0.204-0.008-0.301-0.021
	c-4.95-0.004-9.901-0.011-14.852-0.036c-40.583-0.208-81.159-1.052-121.729-1.938c-0.397,0.242-0.88,0.43-1.229,0.43
	c-30.554,0.062-61.337,3.747-91.843,1.113c-27.045-2.336-56.283-6.951-82.783,1.716c-12.716,4.16-24.018,12.665-28.753,25.6
	c-4.473,12.216-3.613,25.22-6.056,37.828c-2.345,12.105-7.962,20.755-16.154,29.718c-5.559,6.082-10.326,12.262-13.077,19.549
	c-1.932,11.067-1.925,22.782,1.206,33.567c5.782,19.906,20.708,35.041,29.655,53.408c1.409,2.893,2.427,5.77,3.199,8.654
	c1.867,2.771,3.588,5.637,5.043,8.67c4.61,9.607,8.945,20.08,19.223,24.908c8.333,3.914,17.66,3.844,26.679,3.846
	c12.574,0.002,24.957,0.998,37.479,2.107c16.945,1.502,33.929,3.039,50.951,3.189c16.319,0.152,32.568,0.207,48.873,1.146
	c32.55,1.877,65.047,5.307,97.671,5.631c13.401,0.133,26.692-0.916,40.065-1.199c9.036-0.193,18.081,0.113,27.102-0.404
	c9.146-0.518,20.348-1.225,27.962-6.943c8.928-6.701,8.875-19.33,8.887-29.528c0.017-14.165-1.716-28.224-2.46-42.353
	C530.912,266.98,531.772,252.245,530.433,237.454z M145.286,230.389c-0.248,2.137-0.848,6.553-2.011,10.825
	c-0.081,1.367-0.144,2.724-0.17,4.052c-0.041,2.207-0.925,2.325-1.83,1.56c-2.198,4.61-5.466,7.221-10.25,2.918
	c-7.523-6.771-7.336-19.552-5.703-29.103c0.675-3.914,1.856-10.618,5.954-12.175c4.022-1.53,8.336,0.812,10.126,4.859
	c1.84,4.154,2.456,8.666,2.548,13.275C144.768,227.534,145.434,229.122,145.286,230.389z"/>
<path fill="none" d="M235.437,99.039c5.218,0.422,10.41,0.924,15.549,1.426c24.71,2.414,49.415,1.002,74.146,0.113
	c-16.623-0.36-33.247-0.705-49.872-0.996C261.986,99.35,248.711,99.176,235.437,99.039z"/>
<path d="M541.412,281.197c-0.174-16.508-0.813-33.008-1.442-49.504c-0.604-15.745-0.073-31.479,0.225-47.219
	c0.28-15.145,0.015-30.211-1.612-45.277c-1.021-9.421-2.869-19.451-8.261-27.447c-2.537-3.762-5.851-6.271-9.604-7.939
	c-5.593-3.609-13.037-5.111-19.144-6.127c-21.427-3.566-43.437-0.631-65.012-2.461c-31.962-2.711-64.044-3.524-96.003-6.26
	c-29.436-2.52-58.978-4.025-88.521-3.828c-14.449,0.097-28.892,0.701-43.293,1.871c-11.939,0.97-24.062,1.945-35.457,5.859
	c-3.611,1.24-6.875,2.848-9.852,4.74c-5.789,1.107-11.247,3.143-15.907,6.816c-14.188,11.188-11.68,32.167-11.801,49.617
	c-1.071,5.57-2.1,11.146-3.255,16.67c-0.95,4.544-2.335,8.508-4.238,12.297c-2.706,4.252-6.043,8.166-9.815,11.896
	c-6.511,6.438-9.625,13.736-11.188,22.462c-0.314,0.828-0.612,1.67-0.875,2.544c-3.82,12.708-1.345,27.422,0.991,40.168
	c1.959,10.688,7.187,20.17,13.779,28.668c6.423,8.278,13.894,15.657,19.885,24.284c0.183,0.265,0.352,0.531,0.529,0.8
	c2.297,8.705,2.213,17.713,3.409,26.896c1.216,9.352,6.129,18.928,16.146,20.969c4.954,1.01,9.942,0.691,14.95,0.322
	c7.849-0.578,15.658-0.195,23.517,0.039c32.945,1.004,65.889,2.08,98.813,3.646c32.2,1.523,64.014,3.557,96.271,2.191
	c31.983-1.348,63.924-4.098,95.964-3.439c14.982,0.307,31.569,0.453,41.521-12.723c5.229-6.922,7.127-15.938,8.163-24.355
	C542.157,312.193,541.573,296.459,541.412,281.197z M181.334,91.921c14.229-3.477,29.702-3.839,44.268-4.567
	c15.105-0.755,30.24-0.844,45.359-0.581c29.969,0.521,59.673,3.609,89.557,5.399c16.352,0.979,32.709,1.744,49.06,2.735
	c14.013,0.85,28.088,2.805,42.124,2.842c18.22,0.047,38.698-2.38,56.538,3.18c-6.521-0.545-13.32-0.098-19.331-0.004
	c-65.257-0.039-130.491-1.898-195.73-3.188c-32.928-0.652-65.859-1.123-98.793-1.152c-8.387-0.006-17.861-0.688-26.821,0.384
	C171.877,94.711,176.562,93.086,181.334,91.921z M325.132,100.578c-24.731,0.889-49.436,2.301-74.146-0.113
	c-5.139-0.502-10.331-1.004-15.549-1.426c13.274,0.137,26.549,0.311,39.823,0.543C291.885,99.873,308.509,100.218,325.132,100.578z
	 M161.8,100.554c6.826-1.646,14.432-1.848,21.593-1.834c4.146,0.007,8.291,0.029,12.437,0.044
	c-7.431,0.753-14.783,2.103-21.981,4.302c-9.688,2.959-18.421,8.229-24.862,16.108c-1.044,1.276-1.978,2.599-2.817,3.957
	c2.118-5.742,4.921-11.204,8.776-16.019C156.967,104.588,159.279,102.421,161.8,100.554z M140.92,120.007
	c2.607-10.256,9.086-15.59,17.108-18.355c-8.228,7.188-13.58,17.116-16.833,28.379c-0.8,2.769-1.508,5.563-2.176,8.372
	C139.06,132.22,139.38,126.064,140.92,120.007z M129.917,185.561c-1.362,2.341-2.938,4.627-4.798,6.855
	c-0.252,0.303-0.507,0.599-0.761,0.898C126.356,190.806,128.272,188.248,129.917,185.561z M130.993,296.18
	c-7.239-8.295-13.99-16.783-18.011-27.15c-2.063-5.316-3.501-11.221-4.395-17.266c0.184,0.664,0.377,1.324,0.582,1.984
	c2.805,9.033,7.782,17.217,12.937,25.072c5.427,8.271,11.013,16.391,15.567,25.184C135.492,301.352,133.241,298.754,130.993,296.18z
	 M362,366.457c-16.928-0.037-33.798-1.441-50.694-2.32c-16.554-0.857-33.116-1.563-49.681-2.193
	c-30.216-1.154-60.624-3.107-90.825-1.764c-6.813,0.309-13.049-0.945-17.638-6.352c-3.956-4.656-4.995-10.773-5.652-16.65
	c-0.604-5.398-0.914-10.563-1.584-15.617c3.502,6.982,6.474,14.229,11.948,20.029c12.204,12.936,32.39,9.711,48.348,10.197
	c15.56,0.475,31.11,2.637,46.634,3.771c16.408,1.198,32.717,1.196,49.15,1.424c32.623,0.444,65.116,3.896,97.672,5.713
	c10.829,0.604,21.671,0.984,32.518,1.046C408.807,364.98,385.436,366.508,362,366.457z M523.954,356.559
	c-6.612,4.896-15.436,5.768-23.386,5.928c-7.026,0.143-14.055,0.047-21.078-0.027c14.813-0.002,32.584,0.803,45.865-7.016
	C524.903,355.824,524.438,356.199,523.954,356.559z M525.268,353.654c-7.614,5.719-18.815,6.426-27.962,6.943
	c-9.021,0.518-18.065,0.211-27.102,0.404c-13.373,0.283-26.664,1.332-40.065,1.199c-32.624-0.324-65.121-3.754-97.671-5.631
	c-16.305-0.939-32.554-0.994-48.873-1.146c-17.022-0.15-34.006-1.688-50.951-3.189c-12.522-1.109-24.905-2.105-37.479-2.107
	c-9.019-0.002-18.346,0.068-26.679-3.846c-10.278-4.828-14.613-15.301-19.223-24.908c-1.455-3.033-3.176-5.898-5.043-8.67
	c-0.772-2.885-1.79-5.762-3.199-8.654c-8.947-18.367-23.873-33.502-29.655-53.408c-3.131-10.785-3.138-22.5-1.206-33.567
	c2.751-7.287,7.518-13.467,13.077-19.549c8.192-8.963,13.809-17.613,16.154-29.718c2.443-12.608,1.583-25.612,6.056-37.828
	c4.735-12.935,16.037-21.44,28.753-25.6c26.5-8.667,55.738-4.052,82.783-1.716c30.506,2.634,61.29-1.051,91.843-1.113
	c0.35,0,0.832-0.188,1.229-0.43c40.57,0.886,81.146,1.73,121.729,1.938c4.95,0.025,9.901,0.032,14.852,0.036
	c0.097,0.013,0.19,0.021,0.301,0.021c0.553-0.001,1.107-0.008,1.674-0.016c0.369,0,0.734,0.002,1.104,0.002
	c0.113,0,0.223-0.011,0.322-0.029c9.803-0.223,20.904-1.086,29.505,3.167c14.473,11.269,9.604,37.62,7.843,53.33
	c-1.188,10.649-1.919,20.923-1.39,31.65c0.763,15.468,3.049,30.821,4.438,46.236c1.34,14.791,0.479,29.526,1.262,44.319
	c0.744,14.129,2.477,28.188,2.46,42.353C534.143,334.324,534.195,346.953,525.268,353.654z M536.713,332
	c0.011-0.133,0.022-0.266,0.033-0.398c1.086-13.467-0.426-27.092-1.466-40.514c-1.115-14.408-0.454-28.744-1.146-43.152
	c-0.743-15.521-3.02-30.936-4.436-46.401c-1.149-12.546-1.354-24.831,0.013-37.346c1.136-10.438,2.463-20.868,2.404-31.387
	c-0.028-5.16-0.449-10.621-1.986-15.652c4.318,8.514,5.193,19.004,6.119,28.194c1.633,16.206,1.166,32.581,0.802,48.837
	c-0.728,32.409,1.436,64.724,1.48,97.126C538.553,304.758,538.929,318.662,536.713,332z"/>
<path d="M141.402,213.324c-1.79-4.047-6.104-6.389-10.126-4.859c-4.098,1.557-5.279,8.261-5.954,12.175
	c-1.633,9.551-1.82,22.333,5.703,29.103c4.784,4.303,8.052,1.692,10.25-2.918c0.905,0.766,1.789,0.647,1.83-1.56
	c0.026-1.328,0.089-2.685,0.17-4.052c1.163-4.272,1.763-8.688,2.011-10.825c0.148-1.267-0.518-2.854-1.336-3.789
	C143.858,221.99,143.242,217.478,141.402,213.324z M139.452,238.936c-1.413,4.189-3.831,7.131-8.161,4.434
	c-5.218-3.252-2.902-16.051-1.878-21.149c0.739-3.691,2.271-7.751,6.384-7.315c4.487,0.474,4.116,6.708,4.216,10.277
	C140.146,229.781,139.705,234.352,139.452,238.936z"/>
<g>
	<path d="M265.531,270.505c-0.76,3.152-2.686,6.015-5.781,8.584c-2.978,2.104-5.957,4.176-8.935,6.219
		c0.176,0.877,0.774,1.534,1.796,1.971c1.021,0.438,2,0.862,2.935,1.271c4.847,3.148,7.27,6.888,7.27,11.208
		c0,3.326-1.138,6.395-3.416,9.197c-1.752,2.157-4.351,4.293-7.796,6.395c-2.804,1.633-5.606,3.27-8.409,4.905
		c-0.701,0.407-1.46,0.61-2.277,0.61c-1.927,0-3.272-0.789-4.03-2.364c0.116-4.907,0.232-9.783,0.351-14.629
		c0.116-5.839,0.438-10.656,0.963-14.454c-1.226-0.816-1.839-1.751-1.839-2.803c0-0.525,0.219-1.009,0.657-1.446
		c0.438-0.438,1.036-0.922,1.796-1.447c0.701-8.876,0.845-17.052,0.438-24.526c-2.746-0.528-4.555-1.753-5.431-3.683
		c-0.059-0.233,0.044-0.583,0.306-1.049c0.264-0.464,0.395-0.847,0.395-1.139c1.343-0.993,2.832-1.487,4.467-1.487
		c1.168,0,3.854,0.383,8.059,1.139c2.16,0.349,4.408,1.14,6.745,2.366c6.307,3.271,10.015,6.453,11.125,9.547
		C265.676,267.118,265.883,268.986,265.531,270.505z M254.67,300.463c0.116-0.644,0.174-1.256,0.174-1.84
		c0-1.753-0.556-3.299-1.665-4.643c-2.978-1.46-4.876-2.19-5.693-2.19c-0.469,0-0.906,0.091-1.314,0.267
		c0.057,0.584,0.088,1.229,0.088,1.926c0,1.229-0.162,3.108-0.482,5.649c-0.321,2.541-0.481,4.456-0.481,5.74
		c0,1.87,0.233,3.561,0.7,5.081c0.701-0.819,1.795-1.68,3.284-2.585c1.49-0.906,2.525-1.707,3.11-2.408
		C253.443,304.229,254.202,302.564,254.67,300.463z M257.297,266.125c-0.292-2.16-2.044-3.823-5.255-4.993
		c-0.468-0.176-1.197-0.554-2.189-1.139c-0.701-0.466-1.285-0.7-1.752-0.7c-0.234,0-0.497,0.059-0.789,0.174
		c-0.059,0.994-0.087,2.045-0.087,3.154c0,1.519,0.116,4.088,0.35,7.708c0.176,3.328,0.233,5.929,0.176,7.797
		c0.408,0,1.021-0.307,1.838-0.921c0.818-0.612,1.285-0.947,1.402-1.008c1.752-0.816,3.298-2.189,4.643-4.115
		C256.976,270.154,257.53,268.169,257.297,266.125z"/>
	<path d="M279.021,264.286c0.116,1.694,0.175,3.446,0.175,5.256c0,3.971-0.409,9.956-1.227,17.96
		c-0.818,8.001-1.228,14.041-1.228,18.133c0,1.519,0.028,3.006,0.088,4.466c-0.526,1.633-1.665,2.424-3.417,2.365
		c-2.512-0.117-3.883-1.193-4.117-3.24c-0.234-2.043-0.349-4.201-0.349-6.482c0-3.971,0.482-9.896,1.445-17.777
		c0.963-7.884,1.446-13.781,1.446-17.696c0-1.52-0.059-3.006-0.175-4.466c0.583-1.109,1.576-1.669,2.979-1.669
		c1.109,0,2.219,0.322,3.329,0.967c0.232-0.174,0.408-0.261,0.525-0.261c0.175,0,0.263,0.292,0.263,0.871
		c-0.058,0.702-0.058,1.113,0,1.23C278.814,264.11,278.903,264.228,279.021,264.286z"/>
	<path d="M314.058,303.791c0.35,0.292,0.526,0.7,0.526,1.227c0,0.351-0.235,1.229-0.702,2.627c-0.234-0.057-0.437-0.091-0.612-0.091
		c-0.351,0-0.803,0.146-1.358,0.438c-0.556,0.293-0.979,0.438-1.27,0.438c-0.292,0-0.613-0.115-0.963-0.35
		c-3.913-2.451-9.986-6.135-18.219-11.037c0.175,2.162,0.319,5.256,0.438,9.285c0,0.467,0.057,1.17,0.174,2.102
		c0.116,0.937,0.176,1.606,0.176,2.016c0,1.403-0.613,2.368-1.84,2.892c-0.351,0.233-0.848,0.349-1.489,0.349
		c-0.701,0-1.138-0.203-1.314-0.611c-1.519-0.527-2.396-1.548-2.627-3.066c-0.701-4.201-1.05-9.138-1.05-14.803
		c0-2.043,0.056-5.094,0.175-9.154c0.115-4.056,0.174-7.108,0.174-9.154c0-6.189-0.409-11.564-1.227-16.121
		c-0.118-0.699,0.292-1.166,1.227-1.401c0.701-0.116,1.43-0.233,2.19-0.349c0.758,0.234,1.546,0.511,2.365,0.832
		c0.817,0.32,1.256,0.828,1.314,1.53c0.875,7.944,1.255,14.251,1.138,18.92c2.395-2.16,5.138-5.022,8.235-8.584
		c2.627-2.979,5.225-5.986,7.796-9.022c0.7-0.292,1.458-0.438,2.277-0.438c2.278,0,3.474,0.788,3.591,2.367
		c-1.635,3.62-4.848,7.913-9.635,12.877c-5.605,5.779-9.197,9.898-10.774,12.349c3.621,2.16,7.271,4.322,10.95,6.481
		C307.809,298.915,311.255,301.396,314.058,303.791z"/>
	<path d="M346.905,264.811c-2.161,0.877-5.34,1.898-9.548,3.066c-4.203,1.17-7.389,2.189-9.547,3.066
		c-0.527,1.519-0.906,4.901-1.139,10.161c0.934,0.349,2.014,0.524,3.24,0.524c0.876,0,2.248-0.145,4.117-0.437
		c1.867-0.293,3.243-0.438,4.119-0.438c1.633,0,3.033,0.351,4.201,1.051c0.819,1.169,1.229,1.926,1.229,2.276
		c0,0.41-0.206,0.731-0.614,0.965c-0.116,0.059-0.527,0.468-1.228,1.227c-0.466,0.524-1.049,0.759-1.751,0.7
		c-1.229,0.292-3.475,0.468-6.744,0.529c-2.746,0.056-4.934,0.409-6.568,1.048c-1.113,4.321-1.666,7.737-1.666,10.252
		c0,1.694,0.232,3.033,0.701,4.026c2.742,1.927,7.503,2.744,14.277,2.452c0.466,0,0.965-0.219,1.487-0.657
		c0.528-0.438,0.964-0.657,1.313-0.657c1.634-0.348,2.716,0.876,3.244,3.683c0.173,0.936,0.016,1.796-0.484,2.583
		c-0.495,0.79-1.213,1.213-2.146,1.271c-7.066,0.231-13.198-0.322-18.396-1.665c-1.636-0.413-3.126-1.314-4.467-2.718
		c-1.344-1.403-2.103-2.979-2.278-4.731c-0.526-5.08-0.526-9.631,0-13.664c-1.636-1.109-2.366-2.19-2.189-3.241
		c0.057-0.524,0.511-1.008,1.357-1.445c0.846-0.438,1.328-0.893,1.446-1.358c0.116-0.466,0.35-3.243,0.701-8.32
		c-3.272-0.643-4.876-1.868-4.818-3.679c0.057-1.698,1.081-3.036,3.065-4.03c1.869-0.758,3.737-1.521,5.606-2.276
		c2.159-1.113,4.875-2.107,8.146-2.982c2.861-0.755,5.723-1.486,8.585-2.186c0.293-0.059,0.642-0.092,1.048-0.092
		c1.577,0,3.42,0.612,5.522,1.842c0.055,0.234,0.201,0.673,0.438,1.311c0.231,0.642,0.348,1.115,0.348,1.405
		C347.519,264.14,347.313,264.52,346.905,264.811z"/>
	<path d="M392.981,254.037c-0.526,2.102-1.52,3.328-2.979,3.679c-3.797,0.935-10.395,2.16-19.795,3.679
		c-1.166,14.542-1.749,26.66-1.749,36.353c0,3.679,0.055,7.301,0.173,10.861c0.056,1.109,0,1.955-0.173,2.54
		c-0.294,0.937-0.877,1.376-1.753,1.313c-1.694-0.055-3.096-0.773-4.201-2.146c-1.11-1.376-1.724-2.903-1.839-4.603
		c-0.121-2.155-0.176-4.434-0.176-6.831c0-3.854,0.264-9.96,0.789-18.309c0.526-8,0.758-14.104,0.7-18.308
		c-1.577-0.115-3.766,0.031-6.569,0.438c-3.212,0.468-5.432,0.7-6.657,0.7c-2.86,0-5.197-0.765-7.009-2.292
		c-0.7-1.531-1.05-2.329-1.05-2.384c0-0.413,0.205-0.855,0.613-1.326c1.869-0.646,5.693-1.235,11.475-1.767
		c5.08-0.532,8.876-1.476,11.387-2.826c2.044,0.7,4.381,1.048,7.008,1.048s5.138-0.319,7.534-0.967
		c0.701-0.055,2.48-0.464,5.342-1.228c2.103-0.524,3.855-0.7,5.256-0.524c1.052,0,1.489,0.438,1.314,1.313
		C392.193,252.46,392.981,252.985,392.981,254.037z"/>
	<path d="M412.865,304.405c0.351,0.934,0.528,1.747,0.528,2.448c0,1.168-0.497,2.189-1.488,3.065
		c-0.994,0.877-1.665,1.284-2.015,1.226c-2.862-0.524-4.673-2.83-5.432-6.915c-0.818-4.438-1.779-8.147-2.89-11.126
		c-1.986,0.176-3.973,0.349-5.957,0.526c-2.278,0.292-4.06,0.994-5.343,2.102c-0.642,1.812-1.487,5.023-2.541,9.637
		c-0.993,4.262-1.958,7.502-2.89,9.722c-0.467,1.048-1.459,1.34-2.979,0.878c-1.926-0.644-2.952-1.523-3.063-2.628
		c-0.175-2.221,0.465-5.198,1.926-8.935c1.752-4.264,2.716-7.301,2.892-9.11c0.055-0.526-0.323-1.109-1.14-1.753
		c-0.819-0.642-1.229-1.139-1.229-1.485c0-0.291,0.13-0.603,0.394-0.921c0.262-0.319,0.875-0.583,1.839-0.789
		c0.966-0.202,1.503-0.511,1.623-0.92c1.049-2.918,2.716-8.349,4.992-16.293c1.927-6.889,3.65-12.176,5.167-15.855
		c0.35-0.816,1.082-1.227,2.189-1.227c0.816,0,1.547,0.264,2.19,0.788c1.632,1.402,2.685,3.504,3.153,6.309
		c0.348,2.395,0.67,4.789,0.963,7.182C406.674,284.112,409.712,295.469,412.865,304.405z M400.076,287.674
		c-0.176-2.16-0.556-4.585-1.139-7.271c-0.585-2.334-1.14-4.674-1.668-7.006c-1.749,4.846-3.271,9.692-4.555,14.539
		C393.65,287.76,396.105,287.674,400.076,287.674z"/>
	<path d="M447.64,286.709c-1.577,3.913-2.6,8.732-3.066,14.454c-0.289,4.963-0.556,9.927-0.788,14.891
		c-0.118,1.46-1.081,2.19-2.891,2.19c-0.525,0-1.022-0.091-1.486-0.263c-2.514-1.051-3.767-3.008-3.767-5.868
		c0-0.822,0.116-2.059,0.35-3.725c0.233-1.665,0.349-2.875,0.349-3.636c0.233-1.692,0.526-4.233,0.876-7.619
		c-4.029,3.798-8.584,6.627-13.665,8.496c-0.704,0.235-1.404,0.349-2.104,0.349c-2.688,0-5.168-1.517-7.446-4.554
		c-1.284-1.694-1.926-3.796-1.926-6.308c0-2.218,0.495-4.818,1.485-7.796c3.099-9.461,8.028-18.715,14.806-27.769
		c3.386-4.495,6.395-6.743,9.022-6.743c2.331,0,3.648,0.875,3.941,2.628c0.235,1.46-0.263,2.511-1.485,3.152
		c-2.045,1.111-3.129,1.724-3.245,1.84c-4.901,5.43-9.402,12.438-13.486,21.022c-2.514,5.313-3.767,10.074-3.767,14.277
		c0,0.761,0.029,1.521,0.088,2.277c0.119,0.061,0.292,0.337,0.529,0.833c0.232,0.497,0.555,0.656,0.963,0.481
		c3.854-1.518,9.665-5.518,17.432-12c0.583-0.468,1.256-1.809,2.015-4.029c0.583-1.634,1.632-2.452,3.153-2.452
		c-0.468,0,0-0.059,1.401-0.176c0.701-0.117,1.168,0,1.402,0.351c1.11,1.636,1.667,2.978,1.667,4.03
		C447.989,285.57,447.872,286.126,447.64,286.709z"/>
</g>
<g>
	<path fill="none" d="M261.221,175.767c-0.305-0.121-0.578-0.182-0.819-0.182c-0.729,0-1.639,0.607-2.731,1.821
		c-1.215,1.397-2.155,2.216-2.822,2.458c-0.425,0.182-1.033,0-1.82-0.546c-0.79-0.546-1.306-0.819-1.548-0.819
		c-0.182,0-0.334,0.062-0.455,0.182c-2.125,1.821-3.186,4.643-3.186,8.466c0,2.61,0.606,4.825,1.821,6.646
		c1.698,2.489,3.125,3.732,4.278,3.732c2.67,0,5.249-1.668,7.738-5.007c2.367-3.155,3.398-6.099,3.095-8.83
		C264.345,179.257,263.162,176.617,261.221,175.767z"/>
	<path fill="none" d="M370.91,168.757c0.182-1.092,0.242-2.063,0.182-2.913c-0.182-1.274-0.713-2.426-1.592-3.459
		c-0.881-1.031-2.293-1.547-4.234-1.547c-1.455,0-2.365,0.455-2.73,1.365c-0.305,1.518-0.455,3.247-0.455,5.189
		c0,0.789,0.092,2.822,0.273,6.099c0.121,2.489,0.121,4.521,0,6.099C367.391,175.828,370.242,172.217,370.91,168.757z"/>
	<path fill="none" d="M435.359,172.398c-1.82,5.038-3.398,10.075-4.734,15.111c0.971-0.182,3.52-0.273,7.646-0.273
		c-0.182-2.245-0.576-4.764-1.182-7.556C436.482,177.254,435.906,174.827,435.359,172.398z"/>
	<path d="M233.092,178.315c-0.061-1.577-0.061-3.61,0-6.099c0.121-3.095,0.182-5.098,0.182-6.008c0-2.852-0.213-5.371-0.637-7.556
		c-0.304-1.457-1.579-2.185-3.823-2.185c-1.579,0-2.489,0.486-2.731,1.457c-1.579,9.407-5.28,22.211-11.106,38.415
		c-1.761-2.488-2.974-5.674-3.641-9.558c-0.486-3.459-1.001-6.887-1.547-10.287c0-2.003-0.289-4.961-0.865-8.875
		c-0.578-3.915-0.865-6.75-0.865-8.512c-0.789-0.788-2.216-1.183-4.278-1.183c-0.79,0-1.335,0.425-1.639,1.274
		c-0.486,1.153-0.789,1.791-0.91,1.912c-1.397,10.985-2.731,18.661-4.005,23.031c-3.703,12.563-5.826,19.572-6.372,21.028
		c-1.274,3.338-1.912,5.28-1.912,5.826c0,1.577,0.879,2.791,2.64,3.641c2.124,1.031,3.398,1.092,3.823,0.182
		c2.973-6.25,5.765-15.717,8.375-28.402c0.667,1.396,1.486,4.127,2.458,8.193c0.91,3.702,1.88,6.403,2.913,8.102
		c1.577,2.61,3.823,4.249,6.736,4.916c1.456,0.182,2.669-0.667,3.641-2.549c0.242-0.424,0.91-2.124,2.002-5.098
		c1.821-5.4,3.125-9.467,3.915-12.198c0.303,1.639,0.515,4.643,0.637,9.012c0.121,3.885,0.485,6.889,1.092,9.012
		c0.667,2.307,1.578,3.974,2.731,5.007c1.396,1.213,2.761,1.789,4.096,1.729c2.003-0.123,2.882-0.79,2.64-2.003
		C234.822,201.863,233.639,191.121,233.092,178.315z"/>
	<path d="M263.587,169.486c-3.703-1.213-5.979-2.185-6.828-2.913c-0.851-0.729-1.761-1.092-2.731-1.092
		c-1.7,0-3.49,0.941-5.371,2.822c-1.639,1.579-3.035,3.459-4.188,5.644c-2.671,5.159-4.005,9.983-4.005,14.474
		c0,4.067,1.184,7.374,3.55,9.922c3.519,3.764,7.009,5.644,10.469,5.644c0.788,0,1.577-0.091,2.367-0.273
		c6.554-1.516,11.621-6.311,15.202-14.383c0.606-1.334,0.91-2.822,0.91-4.46c0-2.913-1.063-6.402-3.186-10.469
		C268.563,172.096,266.5,170.457,263.587,169.486z M261.676,192.517c-2.489,3.338-5.068,5.007-7.738,5.007
		c-1.153,0-2.58-1.243-4.278-3.732c-1.215-1.821-1.821-4.035-1.821-6.646c0-3.823,1.061-6.645,3.186-8.466
		c0.121-0.121,0.273-0.182,0.455-0.182c0.242,0,0.758,0.273,1.548,0.819c0.788,0.546,1.395,0.729,1.82,0.546
		c0.667-0.242,1.607-1.061,2.822-2.458c1.092-1.213,2.002-1.821,2.731-1.821c0.242,0,0.515,0.062,0.819,0.182
		c1.941,0.851,3.125,3.491,3.55,7.92C265.074,186.417,264.042,189.362,261.676,192.517z"/>
	<path d="M381.197,199.526c-6.615-6.008-9.955-9.042-10.014-9.103c-0.973-0.788-1.943-1.578-2.914-2.367
		c-1.273-1.093-1.91-2.033-1.91-2.822c0-0.728,0.545-1.395,1.639-2.002c2.67-1.457,4.914-3.459,6.736-6.008
		c2.123-2.852,3.186-5.704,3.186-8.557c0-3.398-1.123-6.554-3.369-9.467c-2.428-3.155-5.279-4.793-8.557-4.916
		c-0.553-0.026-1.075-0.031-1.585-0.028c0.315-0.545,0.573-1.2,0.767-1.975c0-1.092-0.818-1.639-2.457-1.639
		c0.182-0.91-0.273-1.365-1.365-1.365c-1.457-0.182-3.277,0-5.463,0.546c-2.975,0.79-4.824,1.215-5.553,1.274
		c-2.488,0.668-5.098,1.001-7.828,1.001c-2.731,0-5.159-0.364-7.283-1.092c-2.609,1.408-6.554,2.387-11.833,2.937
		c-3.744,0.344-6.696,0.711-8.861,1.102c0.042-0.404,0.08-0.813,0.122-1.217c-0.182-0.606-0.577-1.031-1.183-1.274
		c-0.182-0.06-0.76-0.212-1.73-0.455c-0.728-0.182-1.365-0.273-1.912-0.273c-1.579,0-2.458,0.607-2.64,1.82
		c-1.943,16.326-3.368,28.524-4.278,36.595c-2.246-4.126-4.734-10.164-7.465-18.115c-2.853-8.313-5.25-14.322-7.191-18.024
		c-2.003-1.639-3.521-2.397-4.552-2.276c-2.185,0-3.308,0.668-3.368,2.002c-0.122,1.579-0.759,9.71-1.912,24.396
		c-0.728,9.649-1.092,17.691-1.092,24.123c0,3.703,0.091,7.251,0.273,10.651c0.06,1.031,0.121,2.033,0.182,3.004
		c0.182,1.213,0.667,1.942,1.457,2.185c0.242,0.121,0.819,0.394,1.729,0.819c0.667,0.364,1.213,0.546,1.639,0.546
		c0.485,0,0.94-0.213,1.366-0.637c1.092-0.668,1.607-1.882,1.547-3.641c-0.243-4.795-0.364-9.497-0.364-14.11
		c0-9.588,0.515-18.721,1.548-27.4c0.121-0.849,0.394-1.274,0.819-1.274c0.182,0,0.333,0.182,0.455,0.546
		c5.765,16.204,10.589,28.099,14.474,35.685c1.274,2.549,2.852,3.823,4.734,3.823c0.97,0,1.835-0.364,2.594-1.092
		c0.758-0.729,1.106-1.579,1.047-2.549c-0.122-2.063-0.182-4.156-0.182-6.281c0-6.493,0.515-14.595,1.548-24.306
		c0.559-5.817,1.154-11.601,1.745-17.388c1.508,0.724,3.259,1.094,5.264,1.094c1.274,0,3.58-0.242,6.917-0.728
		c2.914-0.424,5.189-0.576,6.828-0.455c0.06,4.369-0.182,10.711-0.729,19.025c-0.546,8.679-0.818,15.02-0.818,19.025
		c0,2.489,0.059,4.856,0.182,7.101c0.121,1.761,0.758,3.353,1.911,4.779c1.152,1.425,2.608,2.169,4.37,2.23
		c0.91,0.06,1.516-0.396,1.82-1.365c0.182-0.607,0.242-1.488,0.182-2.64c-0.122-3.701-0.182-7.464-0.182-11.288
		c0-10.073,0.605-22.667,1.82-37.778c5.954-0.961,10.82-1.809,14.611-2.545c-0.385,0.609-0.648,1.303-0.775,2.09
		c-0.91,5.644-1.365,12.594-1.365,20.846v9.922c-0.061,4.856-0.213,9.043-0.455,12.563c-0.061,0.425-0.213,1.518-0.455,3.277
		c-0.244,1.518-0.365,2.731-0.365,3.641c0,3.095,1.336,4.946,4.006,5.553c0.424,0.121,0.957,0.03,1.594-0.273
		c0.637-0.305,1.016-0.456,1.137-0.456c0.789-2.974,1.336-6.978,1.639-12.016c0.486-6.675,0.82-10.801,1.002-12.38
		c2.609,2.246,6.584,6.251,11.926,12.016c4.793,5.159,8.799,8.98,12.016,11.47c2.912-0.728,4.369-1.791,4.369-3.186
		c0-0.304-0.09-0.578-0.273-0.819C388.357,206.658,385.385,203.29,381.197,199.526z M362.354,173.491
		c-0.182-3.277-0.273-5.31-0.273-6.099c0-1.942,0.15-3.671,0.455-5.189c0.365-0.91,1.275-1.365,2.73-1.365
		c1.941,0,3.354,0.516,4.234,1.547c0.879,1.033,1.41,2.185,1.592,3.459c0.061,0.851,0,1.821-0.182,2.913
		c-0.668,3.459-3.52,7.071-8.557,10.833C362.475,178.013,362.475,175.98,362.354,173.491z"/>
	<path d="M412.42,204.168c-0.365,0-0.82,0.228-1.365,0.683c-0.547,0.456-1.063,0.683-1.549,0.683
		c-7.039,0.304-11.986-0.546-14.838-2.549c-0.486-1.031-0.729-2.426-0.729-4.187c0-2.609,0.576-6.159,1.73-10.651
		c1.699-0.667,3.975-1.031,6.828-1.092c3.396-0.06,5.734-0.242,7.008-0.546c0.729,0.062,1.334-0.182,1.822-0.728
		c0.727-0.788,1.15-1.213,1.273-1.274c0.424-0.242,0.637-0.576,0.637-1.001c0-0.364-0.424-1.152-1.273-2.367
		c-1.215-0.729-2.672-1.092-4.369-1.092c-0.91,0-2.338,0.152-4.279,0.455c-1.943,0.304-3.367,0.455-4.279,0.455
		c-1.273,0-2.396-0.182-3.367-0.546c0.242-5.462,0.637-8.98,1.184-10.56c2.244-0.91,5.553-1.971,9.922-3.186
		c4.369-1.213,7.678-2.276,9.922-3.186c0.424-0.303,0.639-0.697,0.639-1.184c0-0.303-0.123-0.788-0.365-1.456
		c-0.242-0.667-0.395-1.123-0.455-1.366c-2.184-1.274-4.096-1.912-5.734-1.912c-0.426,0-0.789,0.031-1.092,0.091
		c-2.975,0.729-5.918,1.488-8.83,2.276c-3.4,0.911-6.252,1.943-8.559,3.095c-1.941,0.79-3.883,1.579-5.824,2.367
		c-2.064,1.033-3.127,2.428-3.188,4.188c-0.061,1.882,1.607,3.156,5.008,3.823c-0.365,5.28-0.607,8.163-0.729,8.648
		c-0.123,0.486-0.623,0.956-1.502,1.411c-0.881,0.455-1.352,0.956-1.412,1.502c-0.182,1.092,0.576,2.216,2.277,3.368
		c-0.547,4.188-0.547,8.921,0,14.201c0.182,1.821,0.969,3.459,2.365,4.916s2.943,2.396,4.643,2.822
		c5.402,1.396,11.773,1.971,19.117,1.729c0.971-0.061,1.715-0.5,2.23-1.32s0.684-1.714,0.5-2.686
		C415.242,205.079,414.117,203.804,412.42,204.168z"/>
	<path d="M442.096,169.212c-0.305-2.488-0.637-4.975-1.002-7.464c-0.486-2.913-1.578-5.098-3.277-6.554
		c-0.668-0.546-1.426-0.819-2.275-0.819c-1.152,0-1.912,0.425-2.275,1.274c-1.578,3.823-3.367,9.316-5.371,16.477
		c-2.367,8.254-4.096,13.898-5.188,16.932c-0.123,0.425-0.684,0.744-1.686,0.956c-1,0.213-1.639,0.486-1.91,0.819
		c-0.273,0.334-0.41,0.653-0.41,0.956c0,0.364,0.424,0.881,1.273,1.548c0.85,0.668,1.244,1.274,1.184,1.82
		c-0.182,1.882-1.184,5.038-3.004,9.467c-1.518,3.885-2.184,6.978-2.002,9.285c0.121,1.152,1.184,2.063,3.186,2.731
		c1.578,0.485,2.609,0.182,3.096-0.91c0.969-2.307,1.971-5.675,3.004-10.104c1.092-4.793,1.971-8.132,2.639-10.013
		c1.334-1.152,3.188-1.88,5.553-2.185c2.063-0.182,4.127-0.364,6.191-0.546c1.152,3.095,2.152,6.949,3.004,11.561
		c0.787,4.249,2.67,6.646,5.645,7.192c0.363,0.06,1.061-0.364,2.094-1.275c1.031-0.91,1.547-1.971,1.547-3.186
		c0-0.728-0.182-1.577-0.547-2.549C448.285,195.338,445.129,183.536,442.096,169.212z M430.625,187.51
		c1.336-5.037,2.914-10.073,4.734-15.111c0.547,2.428,1.123,4.856,1.73,7.283c0.605,2.792,1,5.311,1.182,7.556
		C434.145,187.237,431.596,187.328,430.625,187.51z"/>
	<path d="M481.057,195.072c-0.547-0.976-1.426-1.463-2.641-1.463c-0.363,0-0.926,0.061-1.684,0.182
		c-0.76,0.122-1.289,0.182-1.594,0.182c-1.334,0.668-3.49,2.034-6.463,4.096c-2.73,1.821-4.947,3.095-6.645,3.823
		c-0.123-4.975,0.121-12.426,0.729-22.348c0.605-9.922,0.818-17.371,0.637-22.348c-0.363-1.698-1.699-2.549-4.006-2.549
		c-1.215,0-2.215,0.396-3.004,1.185c0.242,2.736,0.365,5.654,0.365,8.753c0,4.498-0.455,11.823-1.365,21.973
		c-0.791,9.544-1.125,16.99-1.002,22.338c0.059,0.061,0.637,0.819,1.729,2.279c0.729,1.094,1.518,1.641,2.367,1.641
		c0.365,0,0.729-0.092,1.092-0.274c3.156-1.402,6.768-3.567,10.834-6.495c6.979-5,10.527-7.53,10.65-7.591
		C481.785,197.543,481.785,196.415,481.057,195.072z"/>
</g>
</svg>
