<?xml version="1.0" encoding="UTF-8" standalone="no"?>
<svg
   xmlns:dc="http://purl.org/dc/elements/1.1/"
   xmlns:cc="http://creativecommons.org/ns#"
   xmlns:rdf="http://www.w3.org/1999/02/22-rdf-syntax-ns#"
   xmlns:svg="http://www.w3.org/2000/svg"
   xmlns="http://www.w3.org/2000/svg"
   xmlns:sodipodi="http://sodipodi.sourceforge.net/DTD/sodipodi-0.dtd"
   xmlns:inkscape="http://www.inkscape.org/namespaces/inkscape"
   inkscape:version="1.0 (4035a4f, 2020-05-01)"
   sodipodi:docname="OmahaIcon.svg"
   xml:space="preserve"
   enable-background="new 0 0 646 449"
   viewBox="0 0 437.25211 283.22354"
   height="283.22354"
   width="437.25211"
   y="0px"
   x="0px"
   id="Layer_1"
   version="1.1"><metadata
   id="metadata86"><rdf:RDF><cc:Work
       rdf:about=""><dc:format>image/svg+xml</dc:format><dc:type
         rdf:resource="http://purl.org/dc/dcmitype/StillImage" /></cc:Work></rdf:RDF></metadata><defs
   id="defs84" /><sodipodi:namedview
   inkscape:current-layer="Layer_1"
   inkscape:window-maximized="1"
   inkscape:window-y="23"
   inkscape:window-x="0"
   inkscape:cy="139.38224"
   inkscape:cx="218.62609"
   inkscape:zoom="1.628483"
   showgrid="false"
   id="namedview82"
   inkscape:window-height="933"
   inkscape:window-width="1680"
   inkscape:pageshadow="2"
   inkscape:pageopacity="0"
   guidetolerance="10"
   gridtolerance="10"
   objecttolerance="10"
   borderopacity="1"
   bordercolor="#666666"
   pagecolor="#ffffff" />
<g
   transform="translate(-104.37391,-85.117763)"
   id="g51">
	<path
   id="path47"
   d="m 541.412,281.197 c -0.174,-16.508 -0.812,-33.008 -1.442,-49.504 -0.604,-15.745 -0.073,-31.476 0.222,-47.219 0.283,-15.145 0.015,-30.211 -1.612,-45.277 -1.019,-9.421 -2.869,-19.451 -8.261,-27.447 -2.537,-3.762 -5.848,-6.271 -9.604,-7.939 -5.593,-3.609 -13.037,-5.111 -19.144,-6.127 -21.425,-3.566 -43.434,-0.631 -65.009,-2.461 -31.962,-2.711 -64.045,-3.524 -96.004,-6.26 -29.435,-2.52 -58.977,-4.025 -88.522,-3.828 -14.449,0.097 -28.892,0.701 -43.293,1.871 -11.939,0.97 -24.062,1.945 -35.457,5.859 -3.611,1.24 -6.875,2.848 -9.852,4.74 -5.789,1.107 -11.247,3.143 -15.907,6.816 -14.188,11.188 -11.68,32.167 -11.801,49.617 -1.071,5.57 -2.1,11.146 -3.255,16.67 -0.95,4.544 -2.335,8.508 -4.238,12.297 -2.706,4.252 -6.043,8.166 -9.815,11.896 -6.511,6.438 -9.625,13.736 -11.188,22.462 -0.314,0.828 -0.612,1.67 -0.875,2.544 -3.82,12.708 -1.345,27.422 0.991,40.168 1.959,10.688 7.187,20.17 13.779,28.668 6.423,8.278 13.894,15.657 19.885,24.285 0.183,0.264 0.352,0.532 0.529,0.799 2.297,8.705 2.213,17.713 3.409,26.897 1.216,9.349 6.129,18.925 16.146,20.966 4.954,1.01 9.942,0.694 14.95,0.325 7.849,-0.58 15.658,-0.198 23.517,0.039 32.945,1.004 65.889,2.08 98.813,3.644 32.2,1.526 64.013,3.557 96.271,2.194 31.984,-1.348 63.922,-4.098 95.963,-3.442 14.984,0.307 31.571,0.453 41.521,-12.721 5.229,-6.921 7.127,-15.938 8.163,-24.357 1.865,-15.179 1.281,-30.913 1.12,-46.175 z M 181.334,91.921 c 14.229,-3.477 29.702,-3.839 44.268,-4.567 15.105,-0.755 30.24,-0.844 45.359,-0.581 29.969,0.521 59.673,3.609 89.557,5.399 16.349,0.979 32.709,1.744 49.057,2.735 14.013,0.85 28.088,2.805 42.124,2.842 18.22,0.047 38.698,-2.38 56.538,3.18 -6.521,-0.545 -13.32,-0.098 -19.331,-0.004 -65.257,-0.039 -130.491,-1.898 -195.73,-3.188 -32.928,-0.652 -65.859,-1.123 -98.793,-1.152 -8.387,-0.006 -17.861,-0.688 -26.821,0.384 4.315,-2.258 9,-3.883 13.772,-5.048 z m 143.798,8.657 c -24.731,0.889 -49.436,2.301 -74.146,-0.113 -5.139,-0.502 -10.331,-1.004 -15.549,-1.426 13.274,0.137 26.549,0.311 39.823,0.543 16.625,0.291 33.249,0.636 49.872,0.996 z M 161.8,100.554 c 6.826,-1.646 14.432,-1.848 21.593,-1.834 4.146,0.007 8.291,0.029 12.437,0.044 -7.431,0.753 -14.783,2.103 -21.981,4.302 -9.688,2.959 -18.421,8.229 -24.862,16.108 -1.044,1.276 -1.978,2.599 -2.817,3.957 2.118,-5.742 4.921,-11.204 8.776,-16.019 2.021,-2.524 4.333,-4.691 6.854,-6.558 z m -20.88,19.453 c 2.607,-10.256 9.086,-15.59 17.108,-18.355 -8.228,7.188 -13.58,17.116 -16.833,28.379 -0.8,2.769 -1.508,5.563 -2.176,8.372 0.041,-6.183 0.361,-12.339 1.901,-18.396 z m -11.003,65.554 c -1.362,2.341 -2.938,4.627 -4.798,6.855 -0.252,0.303 -0.507,0.599 -0.761,0.898 1.998,-2.508 3.914,-5.066 5.559,-7.753 z m 1.076,110.619 c -7.239,-8.295 -13.99,-16.783 -18.011,-27.15 -2.063,-5.319 -3.501,-11.221 -4.395,-17.266 0.184,0.664 0.377,1.324 0.582,1.984 2.805,9.033 7.782,17.217 12.937,25.072 5.427,8.271 11.013,16.391 15.567,25.184 -2.181,-2.652 -4.432,-5.25 -6.68,-7.824 z M 362,366.457 c -16.928,-0.037 -33.798,-1.441 -50.694,-2.32 -16.554,-0.86 -33.116,-1.565 -49.681,-2.196 -30.216,-1.154 -60.624,-3.107 -90.825,-1.761 -6.813,0.306 -13.049,-0.948 -17.638,-6.352 -3.956,-4.656 -4.995,-10.773 -5.652,-16.65 -0.604,-5.401 -0.914,-10.563 -1.584,-15.617 3.502,6.982 6.474,14.229 11.948,20.029 12.204,12.933 32.39,9.711 48.348,10.197 15.56,0.475 31.11,2.637 46.634,3.771 16.408,1.199 32.717,1.197 49.15,1.423 32.623,0.446 65.116,3.897 97.672,5.713 10.829,0.604 21.671,0.985 32.515,1.045 -23.386,1.241 -46.757,2.769 -70.193,2.718 z m 161.954,-9.898 c -6.612,4.896 -15.433,5.765 -23.386,5.925 -7.026,0.143 -14.052,0.047 -21.078,-0.027 14.815,-0.002 32.584,0.803 45.865,-7.016 -0.452,0.383 -0.917,0.758 -1.401,1.118 z m 1.314,-2.905 c -7.617,5.719 -18.818,6.426 -27.962,6.946 -9.023,0.515 -18.068,0.211 -27.102,0.404 -13.373,0.283 -26.664,1.332 -40.065,1.199 -32.624,-0.324 -65.121,-3.754 -97.671,-5.631 -16.305,-0.939 -32.554,-0.994 -48.873,-1.144 -17.022,-0.153 -34.006,-1.688 -50.951,-3.192 -12.522,-1.109 -24.905,-2.105 -37.479,-2.107 -9.019,-0.002 -18.346,0.068 -26.679,-3.846 -10.278,-4.828 -14.613,-15.301 -19.223,-24.908 -1.455,-3.033 -3.176,-5.898 -5.043,-8.67 -0.772,-2.885 -1.79,-5.762 -3.199,-8.654 -8.947,-18.37 -23.873,-33.502 -29.655,-53.411 -3.131,-10.785 -3.138,-22.5 -1.206,-33.567 2.751,-7.287 7.518,-13.467 13.077,-19.549 8.192,-8.963 13.809,-17.613 16.154,-29.718 2.443,-12.608 1.583,-25.612 6.056,-37.828 4.735,-12.935 16.037,-21.44 28.753,-25.6 26.5,-8.667 55.738,-4.052 82.783,-1.716 30.506,2.634 61.289,-1.051 91.843,-1.113 0.35,0 0.832,-0.188 1.23,-0.43 40.572,0.886 81.146,1.73 121.729,1.938 4.95,0.025 9.901,0.032 14.852,0.036 0.094,0.013 0.19,0.021 0.298,0.021 0.553,-0.001 1.11,-0.008 1.674,-0.016 0.369,0 0.737,0.002 1.106,0.002 0.113,0 0.22,-0.011 0.322,-0.029 9.803,-0.223 20.904,-1.086 29.505,3.167 14.473,11.269 9.602,37.62 7.843,53.33 -1.19,10.649 -1.919,20.923 -1.39,31.65 0.763,15.468 3.049,30.821 4.439,46.236 1.337,14.791 0.479,29.526 1.259,44.319 0.744,14.129 2.477,28.188 2.46,42.353 -0.01,10.198 0.042,22.827 -8.885,29.528 z M 536.713,332 c 0.011,-0.133 0.022,-0.266 0.033,-0.398 1.086,-13.467 -0.426,-27.092 -1.466,-40.514 -1.115,-14.408 -0.454,-28.744 -1.145,-43.152 -0.743,-15.524 -3.02,-30.936 -4.436,-46.404 -1.149,-12.546 -1.351,-24.831 0.013,-37.346 1.136,-10.438 2.463,-20.868 2.404,-31.387 -0.028,-5.16 -0.449,-10.621 -1.986,-15.652 4.318,8.514 5.193,19.004 6.119,28.194 1.633,16.206 1.166,32.581 0.802,48.837 -0.728,32.409 1.433,64.724 1.48,97.127 0.022,13.453 0.398,27.357 -1.818,40.695 z" />
	<path
   id="path49"
   d="m 141.402,213.324 c -1.79,-4.047 -6.104,-6.389 -10.126,-4.859 -4.098,1.557 -5.279,8.261 -5.954,12.175 -1.633,9.551 -1.82,22.333 5.703,29.103 4.784,4.303 8.052,1.692 10.25,-2.918 0.905,0.766 1.789,0.647 1.83,-1.56 0.026,-1.328 0.089,-2.682 0.17,-4.049 1.163,-4.275 1.763,-8.688 2.011,-10.828 0.148,-1.264 -0.518,-2.854 -1.336,-3.789 -0.092,-4.609 -0.708,-9.121 -2.548,-13.275 z m -1.95,25.612 c -1.413,4.189 -3.831,7.131 -8.161,4.431 -5.218,-3.252 -2.902,-16.048 -1.878,-21.149 0.739,-3.691 2.271,-7.751 6.384,-7.315 4.487,0.474 4.116,6.708 4.216,10.275 0.133,4.603 -0.308,9.174 -0.561,13.758 z" />
</g>
<g
   transform="translate(-104.37391,-85.117763)"
   id="g63">
	<path
   id="path53"
   d="m 257.782,185.531 c -4.284,9.656 -10.346,15.393 -18.188,17.207 -0.943,0.218 -1.889,0.326 -2.831,0.326 -4.138,0 -8.314,-2.249 -12.524,-6.752 -2.832,-3.049 -4.247,-7.006 -4.247,-11.871 0,-5.372 1.596,-11.145 4.792,-17.316 1.378,-2.613 3.049,-4.863 5.01,-6.752 2.25,-2.25 4.392,-3.376 6.426,-3.376 1.16,0 2.249,0.436 3.267,1.308 1.017,0.871 3.739,2.033 8.168,3.484 3.485,1.162 5.952,3.123 7.405,5.881 2.541,4.865 3.813,9.039 3.813,12.524 -10e-4,1.96 -0.365,3.74 -1.091,5.337 z m -8.712,-6.753 c -0.509,-5.299 -1.925,-8.457 -4.247,-9.475 -0.364,-0.145 -0.691,-0.218 -0.98,-0.218 -0.871,0 -1.961,0.727 -3.268,2.178 -1.453,1.672 -2.578,2.651 -3.376,2.941 -0.509,0.217 -1.235,0 -2.178,-0.654 -0.944,-0.653 -1.563,-0.98 -1.852,-0.98 -0.218,0 -0.399,0.074 -0.544,0.219 -2.543,2.178 -3.813,5.554 -3.813,10.128 0,3.122 0.725,5.772 2.178,7.95 2.032,2.979 3.739,4.465 5.119,4.465 3.193,0 6.279,-1.996 9.258,-5.99 2.832,-3.774 4.066,-7.297 3.703,-10.564 z" />
	<path
   id="path55"
   d="m 316.265,210.906 c 0.289,1.451 -0.763,2.25 -3.159,2.396 -1.598,0.07 -3.231,-0.618 -4.9,-2.07 -1.38,-1.234 -2.469,-3.229 -3.268,-5.989 -0.727,-2.541 -1.162,-6.135 -1.307,-10.782 -0.146,-5.228 -0.399,-8.821 -0.762,-10.781 -0.945,3.268 -2.505,8.132 -4.684,14.594 -1.307,3.558 -2.106,5.592 -2.396,6.098 -1.162,2.252 -2.614,3.268 -4.356,3.05 -3.485,-0.798 -6.172,-2.759 -8.06,-5.881 -1.235,-2.032 -2.396,-5.263 -3.484,-9.692 -1.162,-4.863 -2.143,-8.131 -2.94,-9.802 -3.122,15.175 -6.463,26.501 -10.02,33.979 -0.509,1.09 -2.034,1.016 -4.574,-0.219 -2.106,-1.018 -3.158,-2.469 -3.158,-4.355 0,-0.654 0.763,-2.977 2.287,-6.971 0.653,-1.742 3.194,-10.129 7.624,-25.157 1.523,-5.228 3.12,-14.411 4.791,-27.554 0.145,-0.145 0.508,-0.906 1.09,-2.287 0.361,-1.016 1.016,-1.524 1.96,-1.524 2.468,0 4.174,0.473 5.118,1.415 0,2.107 0.344,5.5 1.035,10.184 0.688,4.683 1.034,8.223 1.034,10.618 0.653,4.067 1.27,8.168 1.852,12.307 0.798,4.647 2.249,8.459 4.356,11.435 6.97,-19.385 11.397,-34.703 13.286,-45.958 0.289,-1.161 1.379,-1.743 3.268,-1.743 2.685,0 4.21,0.871 4.574,2.614 0.507,2.614 0.762,5.628 0.762,9.039 0,1.089 -0.073,3.45 -0.218,7.079 -0.073,3.049 -0.073,5.519 0,7.406 0.654,15.318 2.07,28.169 4.249,38.551 z" />
	<path
   id="path57"
   d="m 360.916,203.827 c 0.436,1.162 0.652,2.179 0.652,3.05 0,1.453 -0.617,2.723 -1.852,3.812 -1.235,1.089 -2.068,1.597 -2.505,1.524 -3.56,-0.653 -5.81,-3.521 -6.753,-8.604 -1.018,-5.518 -2.215,-10.129 -3.594,-13.831 -2.469,0.218 -4.938,0.436 -7.405,0.653 -2.832,0.364 -5.048,1.235 -6.644,2.613 -0.801,2.252 -1.853,6.246 -3.158,11.98 -1.235,5.299 -2.434,9.328 -3.594,12.09 -0.582,1.307 -1.816,1.668 -3.704,1.088 -2.396,-0.799 -3.667,-1.889 -3.812,-3.268 -0.218,-2.76 0.58,-6.461 2.396,-11.108 2.179,-5.299 3.376,-9.075 3.594,-11.326 0.072,-0.653 -0.398,-1.378 -1.415,-2.179 -1.018,-0.798 -1.525,-1.416 -1.525,-1.852 0,-0.361 0.164,-0.743 0.49,-1.143 0.327,-0.398 1.089,-0.725 2.287,-0.98 1.198,-0.254 1.868,-0.635 2.015,-1.144 1.308,-3.63 3.377,-10.382 6.209,-20.257 2.396,-8.566 4.535,-15.139 6.426,-19.712 0.436,-1.017 1.343,-1.524 2.723,-1.524 1.016,0 1.923,0.326 2.723,0.979 2.031,1.743 3.34,4.356 3.92,7.841 0.438,2.979 0.834,5.955 1.198,8.932 3.631,17.136 7.407,31.257 11.328,42.366 z m -15.9,-20.802 c -0.219,-2.685 -0.69,-5.698 -1.416,-9.039 -0.728,-2.902 -1.416,-5.808 -2.068,-8.713 -2.18,6.027 -4.067,12.054 -5.663,18.079 1.158,-0.218 4.208,-0.327 9.147,-0.327 z" />
	<path
   id="path59"
   d="m 402.082,148.175 c -0.146,6.463 -1.198,16.7 -3.158,30.711 -1.814,13.287 -2.723,23.488 -2.723,30.604 0,2.25 0.071,4.393 0.218,6.426 0,0.508 -0.218,0.998 -0.653,1.471 -0.436,0.471 -0.943,0.707 -1.523,0.707 -2.034,0 -3.376,-0.182 -4.03,-0.543 -2.76,-1.6 -4.138,-4.613 -4.138,-9.041 0,-0.871 0.054,-2.232 0.162,-4.084 0.108,-1.852 0.164,-3.213 0.164,-4.084 0,-1.451 0.181,-3.665 0.545,-6.643 0.361,-2.977 0.544,-5.264 0.544,-6.861 -1.019,0.072 -2.414,-0.072 -4.192,-0.436 -1.779,-0.363 -3.068,-0.545 -3.865,-0.545 -0.944,0 -1.853,0.146 -2.724,0.436 -1.742,5.736 -2.76,14.195 -3.05,25.375 -2.469,1.017 -4.865,0.908 -7.188,-0.326 -1.672,-0.871 -2.506,-2.613 -2.506,-5.228 0,-0.581 0.055,-1.361 0.163,-2.342 0.109,-0.979 0.163,-1.579 0.163,-1.797 0.219,-3.921 1.052,-11.688 2.505,-23.306 1.234,-9.729 1.813,-17.461 1.743,-23.197 0,-0.799 0.563,-1.307 1.688,-1.525 1.125,-0.217 1.761,-0.437 1.906,-0.652 0.437,0.508 1.487,0.943 3.158,1.307 1.379,0.291 2.214,0.943 2.505,1.96 0.58,1.815 0.871,3.849 0.871,6.099 0,1.598 -0.235,4.121 -0.708,7.569 -0.473,3.449 -0.708,6.081 -0.708,7.896 0.872,0.653 1.961,1.053 3.269,1.198 0.871,0.146 2.104,0.183 3.703,0.108 2.104,-0.145 3.375,-0.217 3.812,-0.217 1.813,-7.624 3.412,-17.497 4.792,-29.623 0.289,-2.541 1.197,-3.813 2.723,-3.813 3.846,-0.362 6.023,0.435 6.532,2.396 z" />
	<path
   id="path61"
   d="m 448.258,203.827 c 0.437,1.162 0.653,2.179 0.653,3.05 0,1.453 -0.618,2.723 -1.853,3.812 -1.235,1.089 -2.068,1.597 -2.505,1.524 -3.559,-0.653 -5.81,-3.521 -6.752,-8.604 -1.018,-5.518 -2.216,-10.129 -3.595,-13.831 -2.469,0.218 -4.938,0.436 -7.405,0.653 -2.832,0.364 -5.047,1.235 -6.644,2.613 -0.8,2.252 -1.853,6.246 -3.158,11.98 -1.235,5.299 -2.434,9.328 -3.594,12.09 -0.582,1.307 -1.815,1.668 -3.703,1.088 -2.396,-0.799 -3.667,-1.889 -3.813,-3.268 -0.218,-2.76 0.58,-6.461 2.396,-11.108 2.179,-5.299 3.377,-9.075 3.595,-11.326 0.071,-0.653 -0.399,-1.378 -1.416,-2.179 -1.018,-0.798 -1.523,-1.416 -1.523,-1.852 0,-0.361 0.163,-0.743 0.488,-1.143 0.327,-0.398 1.091,-0.725 2.287,-0.98 1.198,-0.254 1.869,-0.635 2.016,-1.144 1.308,-3.63 3.377,-10.382 6.208,-20.257 2.396,-8.566 4.537,-15.139 6.426,-19.712 0.436,-1.017 1.343,-1.524 2.723,-1.524 1.017,0 1.923,0.326 2.723,0.979 2.032,1.743 3.34,4.356 3.922,7.841 0.436,2.979 0.834,5.955 1.196,8.932 3.631,17.136 7.407,31.257 11.328,42.366 z m -15.901,-20.802 c -0.219,-2.685 -0.691,-5.698 -1.416,-9.039 -0.728,-2.902 -1.416,-5.808 -2.069,-8.713 -2.179,6.027 -4.067,12.054 -5.663,18.079 1.16,-0.218 4.21,-0.327 9.148,-0.327 z" />
</g>
<g
   transform="translate(-104.37391,-85.117763)"
   id="g79">
	<path
   id="path65"
   d="m 247.401,266.232 c -0.863,3.58 -3.051,6.83 -6.565,9.748 -3.382,2.389 -6.765,4.742 -10.147,7.063 0.199,0.996 0.879,1.742 2.04,2.238 1.159,0.498 2.271,0.979 3.333,1.443 5.504,3.579 8.256,7.825 8.256,12.731 0,3.78 -1.293,7.262 -3.879,10.445 -1.99,2.452 -4.941,4.875 -8.854,7.262 -3.184,1.854 -6.367,3.713 -9.55,5.57 -0.796,0.463 -1.658,0.696 -2.586,0.696 -2.188,0 -3.715,-0.896 -4.576,-2.686 0.132,-5.572 0.264,-11.109 0.398,-16.613 0.132,-6.631 0.497,-12.102 1.094,-16.414 -1.393,-0.928 -2.089,-1.988 -2.089,-3.184 0,-0.596 0.249,-1.143 0.746,-1.641 0.498,-0.498 1.177,-1.045 2.04,-1.642 0.796,-10.08 0.96,-19.365 0.497,-27.854 -3.118,-0.598 -5.172,-1.989 -6.167,-4.18 -0.067,-0.264 0.05,-0.662 0.348,-1.193 0.299,-0.528 0.448,-0.961 0.448,-1.293 1.525,-1.127 3.216,-1.69 5.073,-1.69 1.326,0 4.377,0.435 9.152,1.293 2.453,0.397 5.006,1.295 7.66,2.688 7.162,3.715 11.373,7.328 12.634,10.842 0.858,2.526 1.093,4.647 0.694,6.371 z m -12.335,34.022 c 0.132,-0.73 0.198,-1.426 0.198,-2.09 0,-1.99 -0.631,-3.746 -1.89,-5.271 -3.382,-1.658 -5.538,-2.488 -6.466,-2.488 -0.532,0 -1.029,0.101 -1.492,0.3 0.065,0.664 0.1,1.394 0.1,2.188 0,1.394 -0.184,3.531 -0.547,6.416 -0.365,2.885 -0.547,5.058 -0.547,6.517 0,2.123 0.264,4.043 0.795,5.77 0.796,-0.93 2.039,-1.908 3.73,-2.936 1.691,-1.028 2.867,-1.939 3.531,-2.734 1.195,-1.395 2.056,-3.285 2.588,-5.672 z m 2.984,-38.996 c -0.332,-2.453 -2.321,-4.342 -5.968,-5.67 -0.532,-0.199 -1.36,-0.629 -2.487,-1.293 -0.795,-0.529 -1.459,-0.795 -1.989,-0.795 -0.266,0 -0.564,0.066 -0.896,0.197 -0.067,1.129 -0.099,2.322 -0.099,3.582 0,1.725 0.132,4.643 0.398,8.754 0.199,3.779 0.264,6.732 0.199,8.854 0.463,0 1.159,-0.348 2.088,-1.045 0.929,-0.695 1.459,-1.076 1.592,-1.145 1.99,-0.928 3.746,-2.486 5.273,-4.674 1.524,-2.189 2.153,-4.443 1.889,-6.765 z" />
	<path
   id="path67"
   d="m 262.72,259.17 c 0.132,1.924 0.199,3.914 0.199,5.969 0,4.51 -0.465,11.307 -1.393,20.394 -0.93,9.086 -1.394,15.948 -1.394,20.592 0,1.725 0.032,3.414 0.1,5.072 -0.597,1.854 -1.89,2.752 -3.88,2.686 -2.852,-0.133 -4.41,-1.358 -4.675,-3.68 -0.267,-2.32 -0.397,-4.774 -0.397,-7.361 0,-4.51 0.547,-11.241 1.641,-20.192 1.094,-8.953 1.642,-15.65 1.642,-20.096 0,-1.724 -0.067,-3.414 -0.199,-5.072 0.662,-1.26 1.79,-1.892 3.382,-1.892 1.26,0 2.52,0.365 3.781,1.095 0.264,-0.197 0.463,-0.297 0.596,-0.297 0.199,0 0.299,0.332 0.299,0.993 -0.066,0.795 -0.066,1.261 0,1.394 0.064,0.196 0.164,0.329 0.298,0.395 z" />
	<path
   id="path69"
   d="m 302.51,304.033 c 0.397,0.332 0.597,0.795 0.597,1.393 0,0.398 -0.266,1.394 -0.796,2.984 -0.266,-0.064 -0.497,-0.101 -0.696,-0.101 -0.398,0 -0.912,0.166 -1.542,0.498 -0.631,0.332 -1.111,0.496 -1.442,0.496 -0.332,0 -0.696,-0.131 -1.094,-0.396 -4.444,-2.785 -11.341,-6.965 -20.691,-12.535 0.199,2.455 0.363,5.969 0.498,10.545 0,0.531 0.064,1.328 0.198,2.387 0.132,1.062 0.199,1.824 0.199,2.289 0,1.592 -0.696,2.687 -2.089,3.283 -0.398,0.264 -0.963,0.396 -1.691,0.396 -0.796,0 -1.293,-0.232 -1.492,-0.695 -1.725,-0.598 -2.721,-1.758 -2.984,-3.482 -0.796,-4.774 -1.193,-10.377 -1.193,-16.811 0,-2.32 0.064,-5.785 0.199,-10.396 0.131,-4.606 0.198,-8.072 0.198,-10.395 0,-7.029 -0.464,-13.131 -1.393,-18.305 -0.134,-0.795 0.331,-1.324 1.393,-1.592 0.796,-0.132 1.624,-0.265 2.487,-0.396 0.861,0.266 1.756,0.58 2.686,0.945 0.928,0.365 1.426,0.942 1.492,1.74 0.994,9.02 1.426,16.182 1.293,21.485 2.719,-2.453 5.835,-5.703 9.352,-9.748 2.984,-3.383 5.934,-6.797 8.854,-10.246 0.795,-0.332 1.656,-0.498 2.586,-0.498 2.586,0 3.945,0.896 4.078,2.687 -1.857,4.113 -5.506,8.988 -10.942,14.623 -6.366,6.565 -10.444,11.242 -12.235,14.026 4.111,2.453 8.256,4.908 12.435,7.361 4.638,2.921 8.551,5.739 11.735,8.458 z" />
	<path
   id="path71"
   d="m 339.813,259.766 c -2.455,0.996 -6.067,2.156 -10.844,3.482 -4.773,1.328 -8.39,2.486 -10.842,3.482 -0.598,1.725 -1.029,5.569 -1.293,11.539 1.06,0.396 2.287,0.596 3.68,0.596 0.995,0 2.553,-0.164 4.675,-0.496 2.121,-0.332 3.682,-0.498 4.677,-0.498 1.854,0 3.446,0.398 4.772,1.193 0.93,1.328 1.396,2.188 1.396,2.586 0,0.465 -0.234,0.83 -0.697,1.096 -0.133,0.066 -0.598,0.531 -1.394,1.393 -0.53,0.596 -1.192,0.861 -1.989,0.795 -1.394,0.332 -3.945,0.531 -7.659,0.599 -3.118,0.065 -5.604,0.465 -7.46,1.192 -1.262,4.908 -1.891,8.787 -1.891,11.64 0,1.924 0.264,3.448 0.796,4.575 3.116,2.188 8.521,3.117 16.214,2.785 0.53,0 1.096,-0.248 1.69,-0.746 0.599,-0.498 1.095,-0.746 1.492,-0.746 1.855,-0.397 3.084,0.994 3.682,4.179 0.197,1.063 0.017,2.039 -0.549,2.934 -0.563,0.896 -1.377,1.377 -2.436,1.443 -8.025,0.264 -14.988,-0.365 -20.891,-1.891 -1.857,-0.466 -3.549,-1.492 -5.073,-3.085 -1.526,-1.592 -2.388,-3.381 -2.587,-5.371 -0.597,-5.77 -0.597,-10.94 0,-15.518 -1.857,-1.26 -2.686,-2.488 -2.486,-3.682 0.064,-0.596 0.58,-1.145 1.541,-1.641 0.961,-0.498 1.508,-1.011 1.643,-1.543 0.131,-0.529 0.397,-3.681 0.795,-9.449 -3.715,-0.729 -5.537,-2.121 -5.471,-4.178 0.064,-1.925 1.227,-3.447 3.481,-4.576 2.122,-0.861 4.243,-1.726 6.366,-2.586 2.453,-1.261 5.537,-2.39 9.252,-3.384 3.249,-0.86 6.499,-1.69 9.749,-2.485 0.332,-0.066 0.729,-0.101 1.192,-0.101 1.791,0 3.882,0.695 6.269,2.089 0.065,0.266 0.231,0.764 0.498,1.491 0.264,0.729 0.396,1.263 0.396,1.593 0.002,0.532 -0.232,0.964 -0.694,1.294 z" />
	<path
   id="path73"
   d="m 392.139,247.531 c -0.598,2.387 -1.726,3.779 -3.383,4.178 -4.313,1.061 -11.805,2.453 -22.48,4.178 -1.327,16.514 -1.989,30.275 -1.989,41.283 0,4.178 0.065,8.291 0.198,12.334 0.064,1.26 0,2.221 -0.198,2.885 -0.333,1.062 -0.995,1.56 -1.99,1.492 -1.924,-0.065 -3.516,-0.879 -4.774,-2.438 -1.26,-1.56 -1.957,-3.297 -2.088,-5.224 -0.135,-2.45 -0.199,-5.038 -0.199,-7.758 0,-4.377 0.299,-11.308 0.896,-20.791 0.597,-9.086 0.861,-16.016 0.796,-20.791 -1.791,-0.131 -4.277,0.035 -7.461,0.498 -3.648,0.531 -6.168,0.795 -7.561,0.795 -3.248,0 -5.901,-0.868 -7.958,-2.606 -0.796,-1.738 -1.193,-2.642 -1.193,-2.707 0,-0.469 0.233,-0.971 0.696,-1.506 2.123,-0.734 6.466,-1.402 13.031,-2.006 5.77,-0.603 10.08,-1.673 12.932,-3.209 2.32,0.795 4.975,1.192 7.958,1.192 2.983,0 5.835,-0.363 8.556,-1.095 0.797,-0.065 2.817,-0.53 6.067,-1.395 2.388,-0.596 4.378,-0.795 5.969,-0.596 1.194,0 1.691,0.498 1.492,1.492 1.787,0.004 2.683,0.6 2.683,1.795 z" />
	<path
   id="path75"
   d="m 414.719,304.73 c 0.398,1.061 0.598,1.987 0.598,2.784 0,1.326 -0.564,2.486 -1.69,3.48 -1.129,0.996 -1.891,1.459 -2.288,1.393 -3.25,-0.596 -5.307,-3.215 -6.168,-7.856 -0.93,-5.039 -2.023,-9.252 -3.282,-12.635 -2.256,0.199 -4.511,0.397 -6.765,0.598 -2.587,0.332 -4.61,1.129 -6.068,2.387 -0.729,2.057 -1.691,5.705 -2.885,10.943 -1.128,4.84 -2.223,8.52 -3.282,11.041 -0.532,1.192 -1.659,1.524 -3.383,0.996 -2.188,-0.73 -3.351,-1.728 -3.481,-2.984 -0.198,-2.521 0.53,-5.902 2.188,-10.146 1.989,-4.842 3.084,-8.291 3.283,-10.346 0.063,-0.598 -0.366,-1.26 -1.294,-1.99 -0.93,-0.729 -1.393,-1.293 -1.393,-1.69 0,-0.33 0.148,-0.681 0.447,-1.045 0.298,-0.363 0.994,-0.662 2.089,-0.896 1.095,-0.231 1.706,-0.58 1.841,-1.045 1.193,-3.314 3.084,-9.482 5.67,-18.502 2.188,-7.824 4.145,-13.828 5.868,-18.006 0.398,-0.928 1.228,-1.393 2.487,-1.393 0.928,0 1.757,0.299 2.487,0.895 1.854,1.592 3.049,3.98 3.581,7.164 0.396,2.719 0.762,5.438 1.094,8.156 3.315,15.653 6.765,28.549 10.346,38.697 z m -14.524,-19 c -0.199,-2.453 -0.631,-5.207 -1.293,-8.258 -0.664,-2.65 -1.294,-5.306 -1.892,-7.957 -1.989,5.504 -3.715,11.008 -5.173,16.512 1.061,-0.199 3.849,-0.297 8.358,-0.297 z" />
	<path
   id="path77"
   d="m 454.21,284.635 c -1.791,4.443 -2.952,9.916 -3.481,16.414 -0.332,5.637 -0.632,11.273 -0.896,16.91 -0.134,1.658 -1.228,2.488 -3.283,2.488 -0.597,0 -1.161,-0.101 -1.689,-0.299 -2.854,-1.193 -4.277,-3.416 -4.277,-6.664 0,-0.931 0.132,-2.338 0.397,-4.229 0.265,-1.891 0.396,-3.266 0.396,-4.129 0.265,-1.922 0.598,-4.808 0.995,-8.653 -4.576,4.313 -9.749,7.526 -15.519,9.649 -0.797,0.266 -1.592,0.396 -2.388,0.396 -3.052,0 -5.869,-1.723 -8.456,-5.172 -1.458,-1.924 -2.188,-4.311 -2.188,-7.162 0,-2.52 0.563,-5.473 1.69,-8.854 3.516,-10.744 9.117,-21.254 16.813,-31.535 3.846,-5.105 7.262,-7.658 10.246,-7.658 2.65,0 4.144,0.994 4.477,2.984 0.265,1.658 -0.299,2.852 -1.69,3.58 -2.322,1.262 -3.55,1.957 -3.682,2.09 -5.569,6.166 -10.678,14.125 -15.318,23.873 -2.854,6.035 -4.277,11.441 -4.277,16.215 0,0.863 0.032,1.727 0.1,2.586 0.133,0.068 0.331,0.383 0.598,0.945 0.265,0.564 0.63,0.746 1.094,0.547 4.377,-1.723 10.976,-6.266 19.796,-13.627 0.662,-0.531 1.426,-2.055 2.288,-4.576 0.662,-1.855 1.855,-2.785 3.581,-2.785 -0.531,0 0,-0.066 1.592,-0.199 0.796,-0.133 1.326,0 1.592,0.398 1.259,1.857 1.891,3.381 1.891,4.576 -0.005,0.598 -0.137,1.229 -0.402,1.891 z" />
</g>
</svg>
