<?xml version="1.0" encoding="utf-8"?>
<!-- Generator: Adobe Illustrator 16.0.0, SVG Export Plug-In . SVG Version: 6.00 Build 0)  -->
<!DOCTYPE svg PUBLIC "-//W3C//DTD SVG 1.1//EN" "http://www.w3.org/Graphics/SVG/1.1/DTD/svg11.dtd">
<svg version="1.1" id="Layer_1" xmlns="http://www.w3.org/2000/svg" xmlns:xlink="http://www.w3.org/1999/xlink" x="0px" y="0px"
	 width="646px" height="449px" viewBox="0 0 646 449" enable-background="new 0 0 646 449" xml:space="preserve">
<path fill="none" d="M194.385,96.585c32.934,0.029,65.865,0.5,98.793,1.152c65.239,1.29,130.474,3.149,195.73,3.188
	c6.011-0.094,12.81-0.541,19.331,0.004c-17.84-5.56-38.318-3.133-56.538-3.18c-14.036-0.037-28.111-1.992-42.124-2.842
	c-16.351-0.991-32.708-1.756-49.06-2.735c-29.884-1.79-59.587-4.878-89.557-5.399c-15.119-0.263-30.254-0.174-45.359,0.581
	c-14.566,0.728-30.039,1.09-44.268,4.567c-4.772,1.165-9.457,2.79-13.77,5.048C176.524,95.897,185.998,96.579,194.385,96.585z"/>
<path fill="none" d="M146.17,123.131c0.839-1.358,1.773-2.681,2.817-3.957c6.441-7.879,15.174-13.149,24.862-16.108
	c7.198-2.199,14.55-3.549,21.981-4.302c-4.146-0.015-8.291-0.037-12.437-0.044c-7.161-0.014-14.767,0.188-21.593,1.834
	c-2.521,1.867-4.833,4.034-6.854,6.558C151.091,111.927,148.288,117.389,146.17,123.131z"/>
<path fill="none" d="M135.797,214.905c-4.113-0.436-5.645,3.624-6.384,7.315c-1.024,5.098-3.34,17.897,1.878,21.149
	c4.33,2.697,6.748-0.244,8.161-4.434c0.253-4.584,0.694-9.154,0.561-13.754C139.913,221.613,140.284,215.379,135.797,214.905z"/>
<path fill="none" d="M109.169,253.748c-0.205-0.66-0.398-1.32-0.582-1.984c0.894,6.045,2.332,11.949,4.395,17.266
	c4.021,10.367,10.772,18.855,18.011,27.15c2.248,2.574,4.499,5.172,6.68,7.824c-4.554-8.793-10.14-16.913-15.567-25.184
	C116.951,270.965,111.974,262.781,109.169,253.748z"/>
<path fill="none" d="M158.028,101.652c-8.022,2.765-14.501,8.099-17.108,18.355c-1.54,6.057-1.86,12.213-1.901,18.396
	c0.668-2.809,1.376-5.603,2.176-8.372C144.448,118.768,149.8,108.84,158.028,101.652z"/>
<path fill="none" d="M129.917,185.561c-1.645,2.687-3.561,5.245-5.559,7.753c0.254-0.299,0.509-0.595,0.761-0.898
	C126.979,190.188,128.555,187.902,129.917,185.561z"/>
<path fill="none" d="M302.006,356.982c-16.433-0.228-32.742-0.226-49.15-1.424c-15.524-1.135-31.074-3.297-46.634-3.771
	c-15.958-0.486-36.144,2.738-48.348-10.197c-5.474-5.8-8.446-13.047-11.948-20.029c0.67,5.055,0.98,10.219,1.584,15.617
	c0.657,5.877,1.696,11.994,5.652,16.65c4.589,5.406,10.825,6.66,17.638,6.352c30.201-1.344,60.609,0.609,90.825,1.764
	c16.565,0.631,33.127,1.336,49.681,2.193c16.896,0.879,33.767,2.283,50.694,2.32c23.436,0.051,46.807-1.477,70.195-2.716
	c-10.847-0.062-21.688-0.441-32.518-1.046C367.122,360.879,334.629,357.427,302.006,356.982z"/>
<path fill="none" d="M479.49,362.459c7.023,0.074,14.052,0.17,21.078,0.027c7.95-0.16,16.773-1.031,23.386-5.928
	c0.483-0.359,0.949-0.734,1.401-1.115C512.074,363.262,494.303,362.457,479.49,362.459z"/>
<path fill="none" d="M537.05,194.18c0.364-16.256,0.831-32.631-0.802-48.837c-0.926-9.19-1.801-19.68-6.119-28.194
	c1.537,5.031,1.958,10.492,1.986,15.652c0.059,10.519-1.269,20.949-2.404,31.387c-1.366,12.515-1.162,24.8-0.013,37.346
	c1.416,15.466,3.692,30.88,4.436,46.401c0.692,14.408,0.031,28.744,1.146,43.152c1.04,13.422,2.552,27.047,1.466,40.514
	c-0.011,0.133-0.022,0.266-0.033,0.398c2.216-13.338,1.84-27.242,1.817-40.693C538.485,258.904,536.322,226.589,537.05,194.18z"/>
<path fill="none" d="M530.433,237.454c-1.389-15.415-3.675-30.768-4.438-46.236c-0.529-10.727,0.202-21.001,1.39-31.65
	c1.762-15.71,6.63-42.061-7.843-53.33c-8.601-4.253-19.702-3.39-29.505-3.167c-0.1,0.018-0.209,0.029-0.322,0.029
	c-0.369,0-0.734-0.002-1.104-0.002c-0.566,0.008-1.121,0.015-1.674,0.016c-0.11,0-0.204-0.008-0.301-0.021
	c-4.95-0.004-9.901-0.011-14.852-0.036c-40.583-0.208-81.159-1.052-121.729-1.938c-0.397,0.242-0.88,0.43-1.229,0.43
	c-30.554,0.062-61.337,3.747-91.843,1.113c-27.045-2.336-56.283-6.951-82.783,1.716c-12.716,4.16-24.018,12.665-28.753,25.6
	c-4.473,12.216-3.613,25.22-6.056,37.828c-2.345,12.105-7.962,20.755-16.154,29.718c-5.559,6.082-10.326,12.262-13.077,19.549
	c-1.932,11.067-1.925,22.782,1.206,33.567c5.782,19.906,20.708,35.041,29.655,53.408c1.409,2.893,2.427,5.77,3.199,8.654
	c1.867,2.771,3.588,5.637,5.043,8.67c4.61,9.607,8.945,20.08,19.223,24.908c8.333,3.914,17.66,3.844,26.679,3.846
	c12.574,0.002,24.957,0.998,37.479,2.107c16.945,1.502,33.929,3.039,50.951,3.189c16.319,0.152,32.568,0.207,48.873,1.146
	c32.55,1.877,65.047,5.307,97.671,5.631c13.401,0.133,26.692-0.916,40.065-1.199c9.036-0.193,18.081,0.113,27.102-0.404
	c9.146-0.518,20.348-1.225,27.962-6.943c8.928-6.701,8.875-19.33,8.887-29.528c0.017-14.165-1.716-28.224-2.46-42.353
	C530.912,266.98,531.772,252.245,530.433,237.454z M145.286,230.389c-0.248,2.137-0.848,6.553-2.011,10.825
	c-0.081,1.367-0.144,2.724-0.17,4.052c-0.041,2.207-0.925,2.325-1.83,1.56c-2.198,4.61-5.466,7.221-10.25,2.918
	c-7.523-6.771-7.336-19.552-5.703-29.103c0.675-3.914,1.856-10.618,5.954-12.175c4.022-1.53,8.336,0.812,10.126,4.859
	c1.84,4.154,2.456,8.666,2.548,13.275C144.768,227.534,145.434,229.122,145.286,230.389z"/>
<path fill="none" d="M235.437,99.039c5.218,0.422,10.41,0.924,15.549,1.426c24.71,2.414,49.415,1.002,74.146,0.113
	c-16.623-0.36-33.247-0.705-49.872-0.996C261.986,99.35,248.711,99.176,235.437,99.039z"/>
<path d="M541.412,281.197c-0.174-16.508-0.813-33.008-1.442-49.504c-0.604-15.745-0.073-31.479,0.225-47.219
	c0.28-15.145,0.015-30.211-1.612-45.277c-1.021-9.421-2.869-19.451-8.261-27.447c-2.537-3.762-5.851-6.271-9.604-7.939
	c-5.593-3.609-13.037-5.111-19.144-6.127c-21.427-3.566-43.437-0.631-65.012-2.461c-31.962-2.711-64.044-3.524-96.003-6.26
	c-29.436-2.52-58.978-4.025-88.521-3.828c-14.449,0.097-28.892,0.701-43.293,1.871c-11.939,0.97-24.062,1.945-35.457,5.859
	c-3.611,1.24-6.875,2.848-9.852,4.74c-5.789,1.107-11.247,3.143-15.907,6.816c-14.188,11.188-11.68,32.167-11.801,49.617
	c-1.071,5.57-2.1,11.146-3.255,16.67c-0.95,4.544-2.335,8.508-4.238,12.297c-2.706,4.252-6.043,8.166-9.815,11.896
	c-6.511,6.438-9.625,13.736-11.188,22.462c-0.314,0.828-0.612,1.67-0.875,2.544c-3.82,12.708-1.345,27.422,0.991,40.168
	c1.959,10.688,7.187,20.17,13.779,28.668c6.423,8.278,13.894,15.657,19.885,24.284c0.183,0.265,0.352,0.531,0.529,0.8
	c2.297,8.705,2.213,17.713,3.409,26.896c1.216,9.352,6.129,18.928,16.146,20.969c4.954,1.01,9.942,0.691,14.95,0.322
	c7.849-0.578,15.658-0.195,23.517,0.039c32.945,1.004,65.889,2.08,98.813,3.646c32.2,1.523,64.014,3.557,96.271,2.191
	c31.983-1.348,63.924-4.098,95.964-3.439c14.982,0.307,31.569,0.453,41.521-12.723c5.229-6.922,7.127-15.938,8.163-24.355
	C542.157,312.193,541.573,296.459,541.412,281.197z M181.334,91.921c14.229-3.477,29.702-3.839,44.268-4.567
	c15.105-0.755,30.24-0.844,45.359-0.581c29.969,0.521,59.673,3.609,89.557,5.399c16.352,0.979,32.709,1.744,49.06,2.735
	c14.013,0.85,28.088,2.805,42.124,2.842c18.22,0.047,38.698-2.38,56.538,3.18c-6.521-0.545-13.32-0.098-19.331-0.004
	c-65.257-0.039-130.491-1.898-195.73-3.188c-32.928-0.652-65.859-1.123-98.793-1.152c-8.387-0.006-17.861-0.688-26.821,0.384
	C171.877,94.711,176.562,93.086,181.334,91.921z M325.132,100.578c-24.731,0.889-49.436,2.301-74.146-0.113
	c-5.139-0.502-10.331-1.004-15.549-1.426c13.274,0.137,26.549,0.311,39.823,0.543C291.885,99.873,308.509,100.218,325.132,100.578z
	 M161.8,100.554c6.826-1.646,14.432-1.848,21.593-1.834c4.146,0.007,8.291,0.029,12.437,0.044
	c-7.431,0.753-14.783,2.103-21.981,4.302c-9.688,2.959-18.421,8.229-24.862,16.108c-1.044,1.276-1.978,2.599-2.817,3.957
	c2.118-5.742,4.921-11.204,8.776-16.019C156.967,104.588,159.279,102.421,161.8,100.554z M140.92,120.007
	c2.607-10.256,9.086-15.59,17.108-18.355c-8.228,7.188-13.58,17.116-16.833,28.379c-0.8,2.769-1.508,5.563-2.176,8.372
	C139.06,132.22,139.38,126.064,140.92,120.007z M129.917,185.561c-1.362,2.341-2.938,4.627-4.798,6.855
	c-0.252,0.303-0.507,0.599-0.761,0.898C126.356,190.806,128.272,188.248,129.917,185.561z M130.993,296.18
	c-7.239-8.295-13.99-16.783-18.011-27.15c-2.063-5.316-3.501-11.221-4.395-17.266c0.184,0.664,0.377,1.324,0.582,1.984
	c2.805,9.033,7.782,17.217,12.937,25.072c5.427,8.271,11.013,16.391,15.567,25.184C135.492,301.352,133.241,298.754,130.993,296.18z
	 M362,366.457c-16.928-0.037-33.798-1.441-50.694-2.32c-16.554-0.857-33.116-1.563-49.681-2.193
	c-30.216-1.154-60.624-3.107-90.825-1.764c-6.813,0.309-13.049-0.945-17.638-6.352c-3.956-4.656-4.995-10.773-5.652-16.65
	c-0.604-5.398-0.914-10.563-1.584-15.617c3.502,6.982,6.474,14.229,11.948,20.029c12.204,12.936,32.39,9.711,48.348,10.197
	c15.56,0.475,31.11,2.637,46.634,3.771c16.408,1.198,32.717,1.196,49.15,1.424c32.623,0.444,65.116,3.896,97.672,5.713
	c10.829,0.604,21.671,0.984,32.518,1.046C408.807,364.98,385.436,366.508,362,366.457z M523.954,356.559
	c-6.612,4.896-15.436,5.768-23.386,5.928c-7.026,0.143-14.055,0.047-21.078-0.027c14.813-0.002,32.584,0.803,45.865-7.016
	C524.903,355.824,524.438,356.199,523.954,356.559z M525.268,353.654c-7.614,5.719-18.815,6.426-27.962,6.943
	c-9.021,0.518-18.065,0.211-27.102,0.404c-13.373,0.283-26.664,1.332-40.065,1.199c-32.624-0.324-65.121-3.754-97.671-5.631
	c-16.305-0.939-32.554-0.994-48.873-1.146c-17.022-0.15-34.006-1.688-50.951-3.189c-12.522-1.109-24.905-2.105-37.479-2.107
	c-9.019-0.002-18.346,0.068-26.679-3.846c-10.278-4.828-14.613-15.301-19.223-24.908c-1.455-3.033-3.176-5.898-5.043-8.67
	c-0.772-2.885-1.79-5.762-3.199-8.654c-8.947-18.367-23.873-33.502-29.655-53.408c-3.131-10.785-3.138-22.5-1.206-33.567
	c2.751-7.287,7.518-13.467,13.077-19.549c8.192-8.963,13.809-17.613,16.154-29.718c2.443-12.608,1.583-25.612,6.056-37.828
	c4.735-12.935,16.037-21.44,28.753-25.6c26.5-8.667,55.738-4.052,82.783-1.716c30.506,2.634,61.29-1.051,91.843-1.113
	c0.35,0,0.832-0.188,1.229-0.43c40.57,0.886,81.146,1.73,121.729,1.938c4.95,0.025,9.901,0.032,14.852,0.036
	c0.097,0.013,0.19,0.021,0.301,0.021c0.553-0.001,1.107-0.008,1.674-0.016c0.369,0,0.734,0.002,1.104,0.002
	c0.113,0,0.223-0.011,0.322-0.029c9.803-0.223,20.904-1.086,29.505,3.167c14.473,11.269,9.604,37.62,7.843,53.33
	c-1.188,10.649-1.919,20.923-1.39,31.65c0.763,15.468,3.049,30.821,4.438,46.236c1.34,14.791,0.479,29.526,1.262,44.319
	c0.744,14.129,2.477,28.188,2.46,42.353C534.143,334.324,534.195,346.953,525.268,353.654z M536.713,332
	c0.011-0.133,0.022-0.266,0.033-0.398c1.086-13.467-0.426-27.092-1.466-40.514c-1.115-14.408-0.454-28.744-1.146-43.152
	c-0.743-15.521-3.02-30.936-4.436-46.401c-1.149-12.546-1.354-24.831,0.013-37.346c1.136-10.438,2.463-20.868,2.404-31.387
	c-0.028-5.16-0.449-10.621-1.986-15.652c4.318,8.514,5.193,19.004,6.119,28.194c1.633,16.206,1.166,32.581,0.802,48.837
	c-0.728,32.409,1.436,64.724,1.48,97.126C538.553,304.758,538.929,318.662,536.713,332z"/>
<path d="M141.402,213.324c-1.79-4.047-6.104-6.389-10.126-4.859c-4.098,1.557-5.279,8.261-5.954,12.175
	c-1.633,9.551-1.82,22.333,5.703,29.103c4.784,4.303,8.052,1.692,10.25-2.918c0.905,0.766,1.789,0.647,1.83-1.56
	c0.026-1.328,0.089-2.685,0.17-4.052c1.163-4.272,1.763-8.688,2.011-10.825c0.148-1.267-0.518-2.854-1.336-3.789
	C143.858,221.99,143.242,217.478,141.402,213.324z M139.452,238.936c-1.413,4.189-3.831,7.131-8.161,4.434
	c-5.218-3.252-2.902-16.051-1.878-21.149c0.739-3.691,2.271-7.751,6.384-7.315c4.487,0.474,4.116,6.708,4.216,10.277
	C140.146,229.781,139.705,234.352,139.452,238.936z"/>
<g>
	<path d="M254.086,264.367c-0.845,3.505-2.987,6.688-6.429,9.546c-3.312,2.339-6.625,4.644-9.936,6.915
		c0.195,0.976,0.861,1.706,1.998,2.191c1.136,0.488,2.224,0.959,3.264,1.414c5.39,3.502,8.084,7.66,8.084,12.464
		c0,3.699-1.266,7.111-3.798,10.229c-1.948,2.398-4.838,4.773-8.67,7.11c-3.118,1.816-6.234,3.636-9.352,5.455
		c-0.78,0.453-1.624,0.679-2.532,0.679c-2.143,0-3.639-0.877-4.481-2.629c0.129-5.457,0.258-10.88,0.39-16.269
		c0.128-6.493,0.486-11.85,1.071-16.073c-1.364-0.908-2.046-1.947-2.046-3.117c0-0.584,0.244-1.121,0.731-1.608
		c0.488-0.486,1.152-1.024,1.998-1.609c0.779-9.87,0.939-18.962,0.486-27.274c-3.053-0.587-5.065-1.949-6.039-4.095
		c-0.066-0.26,0.049-0.648,0.34-1.167c0.293-0.516,0.439-0.941,0.439-1.266c1.493-1.104,3.148-1.654,4.967-1.654
		c1.299,0,4.286,0.426,8.962,1.267c2.402,0.388,4.902,1.267,7.501,2.631c7.013,3.638,11.137,7.177,12.372,10.616
		C254.247,260.601,254.477,262.679,254.086,264.367z M242.008,297.682c0.129-0.716,0.194-1.396,0.194-2.046
		c0-1.949-0.618-3.668-1.851-5.163c-3.312-1.623-5.423-2.436-6.332-2.436c-0.521,0-1.008,0.101-1.461,0.297
		c0.063,0.649,0.098,1.367,0.098,2.142c0,1.366-0.18,3.456-0.537,6.282c-0.356,2.825-0.535,4.955-0.535,6.383
		c0,2.08,0.259,3.96,0.778,5.65c0.78-0.911,1.997-1.867,3.652-2.874c1.657-1.008,2.808-1.898,3.458-2.678
		C240.643,301.87,241.487,300.019,242.008,297.682z M244.93,259.496c-0.326-2.402-2.273-4.251-5.844-5.553
		c-0.521-0.195-1.332-0.615-2.435-1.266c-0.779-0.519-1.429-0.779-1.948-0.779c-0.261,0-0.552,0.065-0.877,0.193
		c-0.065,1.105-0.097,2.274-0.097,3.508c0,1.688,0.129,4.546,0.389,8.572c0.196,3.7,0.259,6.593,0.196,8.67
		c0.453,0,1.135-0.341,2.044-1.023c0.91-0.682,1.428-1.054,1.559-1.121c1.948-0.908,3.667-2.435,5.164-4.576
		C244.572,263.978,245.188,261.77,244.93,259.496z"/>
	<path d="M269.087,257.451c0.129,1.885,0.194,3.833,0.194,5.845c0,4.416-0.455,11.072-1.364,19.973
		c-0.91,8.897-1.365,15.614-1.365,20.165c0,1.688,0.031,3.342,0.098,4.966c-0.585,1.815-1.851,2.695-3.799,2.63
		c-2.793-0.13-4.318-1.327-4.579-3.603c-0.261-2.272-0.388-4.672-0.388-7.209c0-4.416,0.536-11.005,1.606-19.77
		c1.072-8.768,1.608-15.325,1.608-19.679c0-1.69-0.065-3.343-0.195-4.967c0.648-1.233,1.753-1.855,3.313-1.855
		c1.233,0,2.467,0.358,3.702,1.075c0.258-0.193,0.454-0.29,0.583-0.29c0.194,0,0.292,0.324,0.292,0.969
		c-0.064,0.78-0.064,1.237,0,1.368C268.857,257.256,268.956,257.387,269.087,257.451z"/>
	<path d="M308.05,301.383c0.39,0.325,0.586,0.778,0.586,1.364c0,0.39-0.262,1.367-0.78,2.921c-0.26-0.063-0.486-0.101-0.681-0.101
		c-0.391,0-0.894,0.163-1.511,0.487c-0.617,0.326-1.088,0.486-1.412,0.486c-0.325,0-0.682-0.128-1.071-0.389
		c-4.352-2.726-11.105-6.822-20.261-12.273c0.194,2.404,0.355,5.845,0.487,10.325c0,0.52,0.063,1.301,0.194,2.337
		c0.129,1.042,0.195,1.787,0.195,2.242c0,1.561-0.682,2.633-2.046,3.215c-0.39,0.26-0.943,0.388-1.656,0.388
		c-0.779,0-1.266-0.226-1.461-0.68c-1.688-0.586-2.664-1.721-2.921-3.41c-0.779-4.672-1.168-10.161-1.168-16.461
		c0-2.272,0.062-5.665,0.195-10.18c0.128-4.511,0.194-7.905,0.194-10.181c0-6.883-0.455-12.86-1.364-17.928
		c-0.131-0.777,0.324-1.296,1.364-1.558c0.779-0.13,1.59-0.26,2.435-0.388c0.843,0.261,1.72,0.567,2.63,0.925
		c0.909,0.356,1.396,0.921,1.461,1.702c0.973,8.834,1.396,15.848,1.266,21.04c2.663-2.402,5.714-5.586,9.158-9.546
		c2.922-3.313,5.811-6.657,8.67-10.034c0.778-0.324,1.621-0.487,2.532-0.487c2.533,0,3.863,0.876,3.994,2.633
		c-1.818,4.025-5.392,8.8-10.715,14.319c-6.233,6.427-10.227,11.008-11.981,13.732c4.026,2.402,8.085,4.807,12.177,7.208
		C301.101,295.961,304.933,298.72,308.05,301.383z"/>
	<path d="M344.578,258.034c-2.403,0.976-5.938,2.111-10.618,3.41c-4.674,1.301-8.216,2.435-10.616,3.41
		c-0.587,1.688-1.008,5.45-1.267,11.3c1.038,0.388,2.239,0.583,3.604,0.583c0.975,0,2.5-0.16,4.578-0.485
		c2.077-0.326,3.607-0.487,4.581-0.487c1.815,0,3.373,0.39,4.672,1.168c0.911,1.3,1.367,2.142,1.367,2.532
		c0,0.456-0.229,0.813-0.683,1.072c-0.13,0.065-0.587,0.521-1.365,1.364c-0.519,0.583-1.166,0.844-1.947,0.778
		c-1.366,0.325-3.864,0.521-7.5,0.589c-3.054,0.062-5.486,0.455-7.304,1.165c-1.238,4.806-1.854,8.604-1.854,11.401
		c0,1.884,0.259,3.373,0.78,4.478c3.049,2.143,8.344,3.051,15.877,2.727c0.518,0,1.073-0.243,1.654-0.731
		c0.587-0.487,1.071-0.73,1.459-0.73c1.817-0.387,3.021,0.975,3.607,4.096c0.192,1.04,0.018,1.997-0.538,2.872
		c-0.551,0.879-1.349,1.349-2.386,1.414c-7.858,0.257-14.678-0.358-20.457-1.852c-1.819-0.46-3.477-1.462-4.969-3.022
		c-1.494-1.561-2.337-3.313-2.532-5.262c-0.585-5.649-0.585-10.71,0-15.195c-1.819-1.233-2.631-2.436-2.435-3.604
		c0.063-0.583,0.567-1.12,1.509-1.606c0.941-0.488,1.477-0.993,1.607-1.511c0.131-0.519,0.391-3.606,0.78-9.253
		c-3.638-0.715-5.422-2.077-5.357-4.091c0.063-1.889,1.202-3.376,3.408-4.481c2.078-0.843,4.156-1.692,6.234-2.532
		c2.401-1.237,5.421-2.343,9.06-3.316c3.182-0.839,6.363-1.652,9.547-2.431c0.325-0.064,0.713-0.102,1.165-0.102
		c1.754,0,3.803,0.681,6.142,2.048c0.061,0.261,0.224,0.748,0.487,1.458c0.258,0.713,0.387,1.239,0.387,1.563
		C345.26,257.288,345.032,257.711,344.578,258.034z"/>
	<path d="M395.817,246.054c-0.586,2.337-1.69,3.701-3.313,4.091c-4.223,1.04-11.56,2.402-22.013,4.091
		c-1.297,16.172-1.945,29.647-1.945,40.427c0,4.091,0.061,8.118,0.192,12.078c0.062,1.233,0,2.174-0.192,2.824
		c-0.327,1.042-0.976,1.53-1.949,1.461c-1.885-0.061-3.442-0.86-4.672-2.386c-1.235-1.53-1.917-3.229-2.045-5.118
		c-0.135-2.397-0.195-4.931-0.195-7.597c0-4.286,0.293-11.076,0.877-20.36c0.586-8.896,0.843-15.685,0.778-20.358
		c-1.753-0.129-4.188,0.034-7.305,0.487c-3.572,0.521-6.041,0.778-7.403,0.778c-3.181,0-5.779-0.851-7.794-2.549
		c-0.779-1.703-1.168-2.59-1.168-2.65c0-0.46,0.229-0.951,0.683-1.475c2.078-0.72,6.331-1.374,12.76-1.965
		c5.649-0.592,9.871-1.641,12.663-3.143c2.272,0.778,4.871,1.165,7.793,1.165c2.921,0,5.713-0.355,8.378-1.075
		c0.78-0.061,2.759-0.516,5.94-1.365c2.338-0.583,4.288-0.778,5.845-0.583c1.17,0,1.656,0.487,1.462,1.461
		C394.94,244.3,395.817,244.885,395.817,246.054z"/>
	<path d="M417.929,302.066c0.39,1.038,0.588,1.942,0.588,2.722c0,1.299-0.553,2.436-1.655,3.409
		c-1.105,0.976-1.852,1.429-2.24,1.363c-3.184-0.583-5.196-3.147-6.04-7.69c-0.91-4.935-1.979-9.061-3.214-12.372
		c-2.209,0.195-4.418,0.388-6.625,0.585c-2.533,0.325-4.514,1.105-5.941,2.337c-0.713,2.015-1.653,5.587-2.825,10.717
		c-1.104,4.739-2.178,8.343-3.214,10.811c-0.519,1.166-1.622,1.49-3.313,0.977c-2.141-0.716-3.282-1.694-3.405-2.922
		c-0.194-2.47,0.517-5.781,2.142-9.936c1.948-4.742,3.021-8.119,3.216-10.132c0.061-0.585-0.359-1.233-1.268-1.949
		c-0.911-0.714-1.366-1.267-1.366-1.651c0-0.324,0.145-0.671,0.438-1.024c0.291-0.355,0.974-0.648,2.045-0.878
		c1.074-0.225,1.672-0.567,1.805-1.022c1.167-3.245,3.021-9.284,5.552-18.119c2.143-7.66,4.06-13.54,5.746-17.632
		c0.389-0.907,1.203-1.364,2.435-1.364c0.908,0,1.721,0.294,2.437,0.877c1.814,1.56,2.985,3.896,3.506,7.016
		c0.387,2.662,0.745,5.325,1.071,7.986C411.044,279.499,414.422,292.128,417.929,302.066z M403.707,283.46
		c-0.195-2.402-0.618-5.099-1.267-8.087c-0.65-2.595-1.268-5.197-1.854-7.79c-1.945,5.389-3.639,10.778-5.065,16.168
		C396.561,283.556,399.291,283.46,403.707,283.46z"/>
	<path d="M456.6,282.387c-1.754,4.352-2.891,9.711-3.41,16.073c-0.321,5.52-0.617,11.039-0.876,16.56
		c-0.132,1.624-1.202,2.436-3.215,2.436c-0.584,0-1.137-0.101-1.652-0.292c-2.796-1.168-4.189-3.345-4.189-6.525
		c0-0.914,0.13-2.289,0.39-4.142c0.259-1.852,0.388-3.197,0.388-4.044c0.259-1.882,0.585-4.707,0.974-8.473
		c-4.48,4.224-9.546,7.37-15.196,9.448c-0.783,0.262-1.562,0.388-2.34,0.388c-2.989,0-5.747-1.687-8.281-5.063
		c-1.428-1.885-2.142-4.222-2.142-7.015c0-2.467,0.551-5.358,1.652-8.67c3.445-10.521,8.928-20.812,16.465-30.88
		c3.765-4.999,7.11-7.499,10.033-7.499c2.592,0,4.057,0.974,4.383,2.923c0.262,1.623-0.292,2.792-1.651,3.506
		c-2.274,1.235-3.479,1.916-3.609,2.046c-5.45,6.038-10.456,13.832-14.997,23.378c-2.796,5.909-4.188,11.203-4.188,15.877
		c0,0.846,0.032,1.691,0.098,2.532c0.132,0.067,0.324,0.375,0.588,0.927c0.259,0.553,0.617,0.729,1.071,0.535
		c4.286-1.688,10.748-6.136,19.385-13.345c0.648-0.52,1.396-2.011,2.24-4.48c0.648-1.816,1.814-2.727,3.507-2.727
		c-0.521,0,0-0.065,1.559-0.196c0.779-0.13,1.299,0,1.56,0.391c1.234,1.818,1.854,3.311,1.854,4.481
		C456.988,281.12,456.858,281.738,456.6,282.387z"/>
</g>
<g>
	<path fill="none" d="M359.625,160.5c0.215-1.29,0.285-2.435,0.215-3.438c-0.215-1.504-0.843-2.864-1.881-4.083
		c-1.039-1.217-2.705-1.827-4.996-1.827c-1.72,0-2.794,0.537-3.224,1.612c-0.359,1.792-0.537,3.833-0.537,6.125
		c0,0.932,0.107,3.331,0.322,7.199c0.143,2.938,0.143,5.337,0,7.199C355.47,168.846,358.836,164.583,359.625,160.5z"/>
	<path fill="none" d="M315.569,164.798c-2.148,5.946-4.012,11.892-5.586,17.836c1.145-0.215,4.152-0.322,9.025-0.322
		c-0.215-2.649-0.682-5.623-1.396-8.918C316.896,170.53,316.214,167.664,315.569,164.798z"/>
	<path fill="none" d="M278.393,155.772c-0.145,0-2.724-1.038-7.737-3.116c0.788,13.181,1.038,22.422,0.752,27.722
		c6.375-6.017,9.92-11.962,10.637-17.837C282.403,159.677,281.186,157.421,278.393,155.772z"/>
	<path d="M267.433,143.845c-3.368-0.5-5.587-0.572-6.662-0.215c-0.86,0-1.469,1.146-1.827,3.438c0.357,0.145,0.788,0.682,1.29,1.612
		c0.5,0.932,1.038,1.289,1.612,1.074c0.645,4.657,0.967,9.778,0.967,15.366c0,3.868-0.215,9.563-0.645,17.084
		c-0.43,7.521-0.645,13.181-0.645,16.977c0,5.732,0.358,10.923,1.075,15.581c0.143,0.93,0.823,1.719,2.042,2.364l3.009,1.612
		c2.292-2.436,3.438-6.089,3.438-10.96c0-1.29-0.108-3.313-0.323-6.071c-0.215-2.757-0.322-4.817-0.322-6.179
		c0-1.934,0.143-3.616,0.43-5.05c2.077-0.357,4.154-1.36,6.232-3.008c0.285-0.286,1.934-1.934,4.942-4.943
		c1.935-1.934,4.261-5.837,6.984-11.712c1.145-2.579,1.719-5.05,1.719-7.414c0-2.722-0.752-5.158-2.256-7.307
		C283.765,149.433,276.744,145.35,267.433,143.845z M282.045,162.542c-0.717,5.875-4.263,11.82-10.637,17.837
		c0.285-5.3,0.035-14.541-0.752-27.722c5.013,2.079,7.592,3.116,7.737,3.116C281.186,157.421,282.403,159.677,282.045,162.542z"/>
	<path d="M323.521,161.037c-0.359-2.936-0.752-5.873-1.182-8.811c-0.574-3.438-1.863-6.018-3.867-7.737
		c-0.789-0.645-1.684-0.967-2.688-0.967c-1.361,0-2.256,0.502-2.686,1.504c-1.863,4.513-3.977,10.997-6.34,19.448
		c-2.793,9.743-4.836,16.405-6.125,19.986c-0.145,0.502-0.805,0.878-1.986,1.128c-1.184,0.252-1.936,0.574-2.257,0.967
		c-0.322,0.395-0.483,0.771-0.483,1.128c0,0.43,0.5,1.039,1.504,1.827c1.002,0.789,1.467,1.504,1.396,2.149
		c-0.215,2.221-1.396,5.947-3.546,11.175c-1.792,4.585-2.579,8.237-2.364,10.96c0.143,1.36,1.397,2.435,3.761,3.224
		c1.861,0.572,3.078,0.215,3.652-1.075c1.146-2.723,2.328-6.699,3.547-11.927c1.289-5.658,2.326-9.599,3.115-11.82
		c1.574-1.36,3.762-2.219,6.555-2.579c2.434-0.215,4.871-0.43,7.307-0.645c1.359,3.653,2.541,8.203,3.547,13.646
		c0.93,5.015,3.15,7.844,6.66,8.489c0.43,0.07,1.254-0.43,2.473-1.504c1.217-1.075,1.826-2.327,1.826-3.761
		c0-0.86-0.215-1.862-0.645-3.009C330.827,191.875,327.103,177.944,323.521,161.037z M309.983,182.635
		c1.574-5.945,3.438-11.89,5.586-17.836c0.645,2.866,1.326,5.731,2.043,8.596c0.715,3.296,1.182,6.269,1.396,8.918
		C314.136,182.313,311.128,182.42,309.983,182.635z"/>
	<path d="M388.635,153.193c-0.072-0.143-0.072-0.645,0-1.504c0-0.715-0.107-1.074-0.322-1.074c-0.145,0-0.359,0.107-0.645,0.322
		c-1.361-0.788-2.724-1.182-4.083-1.182c-1.72,0-2.938,0.682-3.653,2.042c0.143,1.792,0.215,3.618,0.215,5.48
		c0,4.8-0.591,12.035-1.773,21.705c-1.182,9.67-1.772,16.942-1.772,21.813c0,0.246,0.017,0.476,0.019,0.72
		c-1.426-1.503-3.041-3.067-4.853-4.695c-7.809-7.092-11.749-10.673-11.819-10.745c-1.147-0.93-2.294-1.862-3.438-2.793
		c-1.505-1.29-2.257-2.399-2.257-3.331c0-0.86,0.645-1.647,1.935-2.364c3.151-1.719,5.802-4.083,7.951-7.091
		c2.507-3.366,3.761-6.732,3.761-10.101c0-4.011-1.326-7.736-3.976-11.175c-2.866-3.724-6.232-5.658-10.101-5.802
		c-7.666-0.358-11.856,1.684-12.571,6.125c-1.075,6.662-1.612,14.865-1.612,24.606v11.712c-0.072,5.732-0.252,10.674-0.537,14.828
		c-0.072,0.502-0.252,1.792-0.537,3.868c-0.287,1.792-0.43,3.224-0.43,4.298c0,3.653,1.574,5.838,4.728,6.555
		c0.5,0.143,1.128,0.035,1.881-0.322c0.752-0.359,1.198-0.537,1.343-0.537c0.93-3.511,1.575-8.237,1.934-14.184
		c0.573-7.879,0.968-12.75,1.183-14.613c3.079,2.651,7.771,7.379,14.076,14.184c5.657,6.089,10.386,10.601,14.183,13.539
		c1.162-0.291,2.111-0.63,2.881-1.01c0.522,0.134,1.093,0.228,1.738,0.258c2.149,0.07,3.546-0.897,4.19-2.901
		c-0.072-1.792-0.107-3.616-0.107-5.48c0-5.013,0.501-12.427,1.505-22.242c1.002-9.813,1.504-17.155,1.504-22.027
		c0-2.22-0.072-4.369-0.215-6.447C388.813,153.553,388.705,153.408,388.635,153.193z M349.524,166.087
		c-0.215-3.868-0.322-6.267-0.322-7.199c0-2.292,0.178-4.333,0.537-6.125c0.43-1.075,1.504-1.612,3.224-1.612
		c2.291,0,3.957,0.609,4.996,1.827c1.038,1.219,1.666,2.579,1.881,4.083c0.07,1.004,0,2.149-0.215,3.438
		c-0.789,4.083-4.155,8.346-10.101,12.787C349.667,171.425,349.667,169.025,349.524,166.087z"/>
	<path d="M413.455,183.709c-5.158-10.315-7.881-15.866-8.166-16.655c-0.646-1.79-0.968-3.724-0.968-5.802
		c0-5.587,1.935-10.315,5.803-14.184c0.43-0.43,0.859-0.645,1.289-0.645c0.07,0,0.608,0.144,1.612,0.43
		c0.645,0.215,1.252,0.18,1.826-0.107c2.077-1.075,3.116-2.327,3.116-3.761c0-0.788-0.359-1.575-1.074-2.364
		c-1.505-1.647-3.761-2.471-6.77-2.471c-1.576,0-3.188,0.395-4.835,1.182c-3.583,1.719-6.34,4.55-8.274,8.488
		c-1.719,3.438-2.578,7.344-2.578,11.712c0,5.302,2.31,12.375,6.931,21.221c4.62,8.848,6.93,15.599,6.93,20.254
		c0,3.296-0.752,6.52-2.256,9.67c-0.359,0.788-1.074,1.217-2.149,1.29c-1.074,0.071-1.756,0.286-2.041,0.645
		c-1.075,1.217-1.612,2.256-1.612,3.116c0,1.432,1.075,2.614,3.224,3.546c0.572,0.215,1.182,0.322,1.827,0.322
		c1.646,0,3.509-0.752,5.587-2.256c2.579-1.934,4.19-3.511,4.835-4.728c1.935-3.653,2.901-7.45,2.901-11.39
		C418.612,196.425,416.894,190.586,413.455,183.709z"/>
</g>
</svg>
