<?xml version="1.0" encoding="utf-8"?>
<!-- Generator: Adobe Illustrator 16.0.0, SVG Export Plug-In . SVG Version: 6.00 Build 0)  -->
<!DOCTYPE svg PUBLIC "-//W3C//DTD SVG 1.1//EN" "http://www.w3.org/Graphics/SVG/1.1/DTD/svg11.dtd">
<svg version="1.1" id="Layer_1" xmlns="http://www.w3.org/2000/svg" xmlns:xlink="http://www.w3.org/1999/xlink" x="0px" y="0px"
	 width="646px" height="449px" viewBox="0 0 646 449" enable-background="new 0 0 646 449" xml:space="preserve">
<g>
	<path fill="none" d="M194.385,96.585c32.934,0.029,65.865,0.5,98.793,1.152c65.239,1.29,130.474,3.149,195.73,3.188
		c6.011-0.094,12.81-0.541,19.331,0.004c-17.84-5.56-38.318-3.133-56.538-3.18c-14.036-0.037-28.111-1.992-42.124-2.842
		c-16.351-0.991-32.708-1.756-49.06-2.735c-29.884-1.79-59.587-4.878-89.557-5.399c-15.119-0.263-30.254-0.174-45.359,0.581
		c-14.566,0.728-30.039,1.09-44.268,4.567c-4.772,1.165-9.457,2.79-13.77,5.048C176.524,95.897,185.998,96.579,194.385,96.585z"/>
	<path fill="none" d="M352.621,143.224c-0.5-2-0.975-4-1.425-6.001c-1.5,4.152-2.802,8.302-3.901,12.452
		c0.8-0.15,2.9-0.225,6.302-0.225C353.446,147.601,353.12,145.524,352.621,143.224z"/>
	<path fill="none" d="M347.746,223.148c4.15-3.1,6.501-6.075,7.052-8.926c0.149-0.9,0.199-1.7,0.149-2.4
		c-0.149-1.051-0.588-2-1.313-2.851c-0.726-0.85-1.888-1.275-3.488-1.275c-1.2,0-1.95,0.375-2.25,1.125
		c-0.251,1.251-0.375,2.676-0.375,4.276c0,0.65,0.075,2.325,0.225,5.025C347.846,220.174,347.846,221.849,347.746,223.148z"/>
	<path fill="none" d="M260.47,286.721c-0.401-0.149-1.025-0.475-1.875-0.975c-0.6-0.399-1.101-0.601-1.5-0.601
		c-0.2,0-0.425,0.051-0.675,0.15c-0.051,0.851-0.075,1.751-0.075,2.7c0,1.301,0.1,3.501,0.3,6.602
		c0.15,2.851,0.199,5.076,0.15,6.676c0.349,0,0.874-0.263,1.575-0.787c0.7-0.525,1.099-0.813,1.2-0.863
		c1.5-0.699,2.825-1.875,3.976-3.525c1.15-1.65,1.625-3.35,1.425-5.101C264.72,289.147,263.22,287.722,260.47,286.721z"/>
	<path fill="none" d="M255.444,313.2c0.049,0.501,0.075,1.051,0.075,1.65c0,1.051-0.138,2.663-0.413,4.839
		c-0.275,2.175-0.413,3.813-0.413,4.913c0,1.601,0.199,3.05,0.6,4.351c0.6-0.701,1.538-1.438,2.813-2.213
		c1.275-0.774,2.163-1.463,2.663-2.063c0.9-1.051,1.549-2.476,1.95-4.276c0.1-0.549,0.15-1.074,0.15-1.575
		c0-1.5-0.476-2.824-1.425-3.976c-2.551-1.249-4.176-1.875-4.876-1.875C256.168,312.976,255.793,313.051,255.444,313.2z"/>
	<path fill="none" d="M292.912,148.1c4.451-4.201,6.926-8.351,7.426-12.452c0.25-2-0.6-3.575-2.55-4.726
		c-0.101,0-1.901-0.725-5.401-2.175C292.937,137.948,293.111,144.399,292.912,148.1z"/>
	<path fill="none" d="M146.17,123.131c0.839-1.358,1.773-2.681,2.817-3.957c6.441-7.879,15.174-13.149,24.862-16.108
		c7.198-2.199,14.55-3.549,21.981-4.302c-4.146-0.015-8.291-0.037-12.437-0.044c-7.161-0.014-14.767,0.188-21.593,1.834
		c-2.521,1.867-4.833,4.034-6.854,6.558C151.091,111.927,148.288,117.389,146.17,123.131z"/>
	<path fill="none" d="M135.797,214.905c-4.113-0.436-5.645,3.624-6.384,7.315c-1.024,5.098-3.34,17.897,1.878,21.149
		c4.33,2.697,6.748-0.244,8.161-4.434c0.253-4.584,0.694-9.154,0.561-13.754C139.913,221.613,140.284,215.379,135.797,214.905z"/>
	<path fill="none" d="M109.169,253.748c-0.205-0.66-0.398-1.32-0.582-1.984c0.894,6.045,2.332,11.949,4.395,17.266
		c4.021,10.367,10.772,18.855,18.011,27.15c2.248,2.574,4.499,5.172,6.68,7.824c-4.554-8.793-10.14-16.913-15.567-25.184
		C116.951,270.965,111.974,262.781,109.169,253.748z"/>
	<path fill="none" d="M158.028,101.652c-8.022,2.765-14.501,8.099-17.108,18.355c-1.54,6.057-1.86,12.213-1.901,18.396
		c0.668-2.809,1.376-5.603,2.176-8.372C144.448,118.768,149.8,108.84,158.028,101.652z"/>
	<path fill="none" d="M129.917,185.561c-1.645,2.687-3.561,5.245-5.559,7.753c0.254-0.299,0.509-0.595,0.761-0.898
		C126.979,190.188,128.555,187.902,129.917,185.561z"/>
	<path fill="none" d="M302.006,356.982c-16.433-0.228-32.742-0.226-49.15-1.424c-15.524-1.135-31.074-3.297-46.634-3.771
		c-15.958-0.486-36.144,2.738-48.348-10.197c-5.474-5.8-8.446-13.047-11.948-20.029c0.67,5.055,0.98,10.219,1.584,15.617
		c0.657,5.877,1.696,11.994,5.652,16.65c4.589,5.406,10.825,6.66,17.638,6.352c30.201-1.344,60.609,0.609,90.825,1.764
		c16.565,0.631,33.127,1.336,49.681,2.193c16.896,0.879,33.767,2.283,50.694,2.32c23.436,0.051,46.807-1.477,70.195-2.716
		c-10.847-0.062-21.688-0.441-32.518-1.046C367.122,360.879,334.629,357.427,302.006,356.982z"/>
	<path fill="none" d="M479.49,362.459c7.023,0.074,14.052,0.17,21.078,0.027c7.95-0.16,16.773-1.031,23.386-5.928
		c0.483-0.359,0.949-0.734,1.401-1.115C512.074,363.262,494.303,362.457,479.49,362.459z"/>
	<path fill="none" d="M260.809,214.447c-0.351,8.353-0.45,17.204-0.3,26.555c5.651-5.65,8.477-11.027,8.477-16.128
		c0-0.699-0.05-1.399-0.15-2.101C268.385,219.623,265.709,216.848,260.809,214.447z"/>
	<path fill="none" d="M537.05,194.18c0.364-16.256,0.831-32.631-0.802-48.837c-0.926-9.19-1.801-19.68-6.119-28.194
		c1.537,5.031,1.958,10.492,1.986,15.652c0.059,10.519-1.269,20.949-2.404,31.387c-1.366,12.515-1.162,24.8-0.013,37.346
		c1.416,15.466,3.692,30.88,4.436,46.401c0.692,14.408,0.031,28.744,1.146,43.152c1.04,13.422,2.552,27.047,1.466,40.514
		c-0.011,0.133-0.022,0.266-0.033,0.398c2.216-13.338,1.84-27.242,1.817-40.693C538.485,258.904,536.322,226.589,537.05,194.18z"/>
	<path fill="none" d="M530.433,237.454c-1.389-15.415-3.675-30.768-4.438-46.236c-0.529-10.727,0.202-21.001,1.39-31.65
		c1.762-15.71,6.63-42.061-7.843-53.33c-8.601-4.253-19.702-3.39-29.505-3.167c-0.1,0.018-0.209,0.029-0.322,0.029
		c-0.369,0-0.734-0.002-1.104-0.002c-0.566,0.008-1.121,0.015-1.674,0.016c-0.11,0-0.204-0.008-0.301-0.021
		c-4.95-0.004-9.901-0.011-14.852-0.036c-40.583-0.208-81.159-1.052-121.729-1.938c-0.397,0.242-0.88,0.43-1.229,0.43
		c-30.554,0.062-61.337,3.747-91.843,1.113c-27.045-2.336-56.283-6.951-82.783,1.716c-12.716,4.16-24.018,12.665-28.753,25.6
		c-4.473,12.216-3.613,25.22-6.056,37.828c-2.345,12.105-7.962,20.755-16.154,29.718c-5.559,6.082-10.326,12.262-13.077,19.549
		c-1.932,11.067-1.925,22.782,1.206,33.567c5.782,19.906,20.708,35.041,29.655,53.408c1.409,2.893,2.427,5.77,3.199,8.654
		c1.867,2.771,3.588,5.637,5.043,8.67c4.61,9.607,8.945,20.08,19.223,24.908c8.333,3.914,17.66,3.844,26.679,3.846
		c12.574,0.002,24.957,0.998,37.479,2.107c16.945,1.502,33.929,3.039,50.951,3.189c16.319,0.152,32.568,0.207,48.873,1.146
		c32.55,1.877,65.047,5.307,97.671,5.631c13.401,0.133,26.692-0.916,40.065-1.199c9.036-0.193,18.081,0.113,27.102-0.404
		c9.146-0.518,20.348-1.225,27.962-6.943c8.928-6.701,8.875-19.33,8.887-29.528c0.017-14.165-1.716-28.224-2.46-42.353
		C530.912,266.98,531.772,252.245,530.433,237.454z M145.286,230.389c-0.248,2.137-0.848,6.553-2.011,10.825
		c-0.081,1.367-0.144,2.724-0.17,4.052c-0.041,2.207-0.925,2.325-1.83,1.56c-2.198,4.61-5.466,7.221-10.25,2.918
		c-7.523-6.771-7.336-19.552-5.703-29.103c0.675-3.914,1.856-10.618,5.954-12.175c4.022-1.53,8.336,0.812,10.126,4.859
		c1.84,4.154,2.456,8.666,2.548,13.275C144.768,227.534,145.434,229.122,145.286,230.389z M367.474,125.221
		c0.6-0.1,1.225-0.199,1.875-0.3c0.649,0.2,1.324,0.438,2.025,0.712c0.7,0.275,1.075,0.713,1.125,1.313
		c0.75,6.801,1.075,12.202,0.976,16.203c2.05-1.85,4.399-4.3,7.051-7.351c2.251-2.551,4.476-5.125,6.677-7.727
		c0.6-0.25,1.249-0.375,1.95-0.375c1.95,0,2.975,0.675,3.075,2.025c-1.4,3.101-4.151,6.777-8.251,11.027
		c-4.801,4.951-7.877,8.477-9.227,10.577c3.1,1.851,6.226,3.702,9.376,5.551c3.5,2.201,6.451,4.326,8.852,6.376
		c0.3,0.25,0.45,0.6,0.45,1.05c0,0.3-0.2,1.05-0.6,2.25c-0.201-0.049-0.376-0.075-0.525-0.075c-0.3,0-0.688,0.125-1.163,0.375
		c-0.476,0.25-0.838,0.375-1.088,0.375s-0.524-0.1-0.824-0.3c-3.352-2.1-8.552-5.251-15.604-9.452
		c0.15,1.851,0.274,4.501,0.375,7.952c0,0.401,0.05,1.001,0.15,1.8c0.1,0.799,0.15,1.375,0.15,1.725c0,1.2-0.525,2.025-1.575,2.476
		c-0.301,0.199-0.726,0.3-1.275,0.3c-0.601,0-0.976-0.176-1.125-0.525c-1.302-0.45-2.052-1.326-2.251-2.625
		c-0.6-3.601-0.899-7.826-0.899-12.677c0-1.75,0.049-4.362,0.149-7.839c0.1-3.475,0.15-6.087,0.15-7.839
		c0-5.3-0.351-9.901-1.051-13.802C366.322,125.821,366.673,125.421,367.474,125.221z M338.519,154.476
		c-0.7-0.549-1.05-0.975-1.05-1.275c0-0.25,0.112-0.512,0.338-0.788c0.225-0.274,0.75-0.5,1.575-0.675
		c0.825-0.175,1.287-0.437,1.388-0.788c0.9-2.5,2.325-7.151,4.275-13.952c1.65-5.9,3.125-10.427,4.426-13.578
		c0.3-0.7,0.925-1.05,1.875-1.05c0.7,0,1.325,0.225,1.876,0.675c1.399,1.2,2.3,3,2.7,5.401c0.3,2.051,0.574,4.101,0.825,6.151
		c2.5,11.803,5.101,21.528,7.801,29.18c0.301,0.8,0.45,1.5,0.45,2.1c0,1.001-0.425,1.875-1.274,2.625
		c-0.852,0.75-1.426,1.1-1.726,1.05c-2.451-0.45-4.002-2.425-4.651-5.926c-0.7-3.8-1.525-6.976-2.475-9.527
		c-1.701,0.15-3.401,0.3-5.102,0.45c-1.95,0.251-3.476,0.851-4.575,1.8c-0.551,1.551-1.275,4.301-2.176,8.251
		c-0.851,3.65-1.676,6.425-2.476,8.326c-0.4,0.9-1.25,1.15-2.55,0.75c-1.65-0.551-2.526-1.301-2.626-2.25
		c-0.149-1.901,0.4-4.451,1.65-7.651c1.5-3.65,2.325-6.25,2.476-7.801C339.543,155.526,339.219,155.027,338.519,154.476z
		 M310.915,131.447c1.6-0.649,3.2-1.3,4.801-1.95c1.9-0.949,4.25-1.8,7.051-2.55c2.4-0.649,4.825-1.275,7.276-1.875
		c0.25-0.049,0.55-0.075,0.9-0.075c1.35,0,2.926,0.525,4.726,1.576c0.049,0.2,0.175,0.575,0.375,1.125
		c0.199,0.551,0.3,0.951,0.3,1.2c0,0.401-0.176,0.726-0.524,0.975c-1.851,0.75-4.576,1.625-8.177,2.625
		c-3.601,1.001-6.327,1.875-8.176,2.625c-0.45,1.301-0.776,4.201-0.975,8.702c0.799,0.3,1.726,0.45,2.775,0.45
		c0.75,0,1.925-0.124,3.525-0.375c1.6-0.25,2.775-0.375,3.525-0.375c1.399,0,2.6,0.3,3.601,0.9c0.7,1,1.051,1.65,1.051,1.95
		c0,0.351-0.176,0.626-0.525,0.825c-0.101,0.05-0.45,0.401-1.05,1.05c-0.401,0.45-0.9,0.651-1.501,0.6
		c-1.05,0.251-2.976,0.401-5.775,0.45c-2.351,0.05-4.227,0.351-5.626,0.9c-0.95,3.701-1.425,6.627-1.425,8.776
		c0,1.451,0.199,2.601,0.6,3.451c2.35,1.65,6.425,2.351,12.227,2.1c0.4,0,0.825-0.188,1.275-0.563s0.825-0.563,1.125-0.563
		c1.399-0.3,2.326,0.75,2.776,3.15c0.149,0.801,0.012,1.538-0.413,2.213c-0.426,0.675-1.038,1.037-1.838,1.088
		c-6.052,0.199-11.302-0.275-15.752-1.425c-1.4-0.351-2.676-1.125-3.826-2.326c-1.151-1.2-1.8-2.55-1.95-4.05
		c-0.45-4.351-0.45-8.251,0-11.702c-1.4-0.949-2.025-1.875-1.875-2.775c0.049-0.45,0.437-0.863,1.163-1.238
		c0.724-0.375,1.137-0.762,1.238-1.163c0.1-0.4,0.3-2.775,0.6-7.126c-2.801-0.549-4.176-1.6-4.126-3.15
		C308.339,133.448,309.214,132.298,310.915,131.447z M307.541,201.995c0,0.41-0.128,0.797-0.372,1.166
		c1.825-0.412,4.64-0.793,8.473-1.145c4.351-0.454,7.601-1.26,9.751-2.421c1.75,0.6,3.751,0.9,6.001,0.9
		c2.251,0,4.4-0.274,6.451-0.825c0.601-0.049,2.125-0.4,4.576-1.05c1.8-0.45,3.301-0.6,4.501-0.45c0.899,0,1.274,0.375,1.125,1.125
		c1.35,0,2.025,0.45,2.025,1.35c-0.159,0.638-0.372,1.177-0.633,1.627c0.421-0.003,0.852,0.001,1.308,0.022
		c2.7,0.102,5.05,1.451,7.051,4.051c1.85,2.4,2.775,5.002,2.775,7.802c0,2.351-0.875,4.701-2.625,7.051
		c-1.5,2.101-3.352,3.751-5.551,4.951c-0.9,0.5-1.351,1.05-1.351,1.65c0,0.65,0.525,1.425,1.575,2.325c0.8,0.65,1.6,1.301,2.4,1.95
		c0.049,0.051,2.8,2.551,8.252,7.501c1.265,1.137,2.392,2.229,3.388,3.277c-0.002-0.17-0.014-0.329-0.014-0.501
		c0-3.4,0.413-8.477,1.238-15.228c0.825-6.752,1.237-11.802,1.237-15.153c0-1.3-0.051-2.575-0.15-3.825
		c0.5-0.949,1.351-1.426,2.551-1.426c0.949,0,1.9,0.275,2.851,0.825c0.199-0.149,0.35-0.225,0.45-0.225
		c0.149,0,0.225,0.251,0.225,0.75c-0.05,0.601-0.05,0.95,0,1.05c0.05,0.15,0.124,0.251,0.226,0.301c0.1,1.451,0.149,2.951,0.149,4.5
		c0,3.401-0.351,8.527-1.05,15.378c-0.701,6.852-1.05,12.028-1.05,15.527c0,1.302,0.024,2.575,0.074,3.826
		c-0.45,1.399-1.425,2.074-2.925,2.025c-0.451-0.021-0.85-0.087-1.215-0.181c-0.537,0.266-1.199,0.503-2.01,0.705
		c-2.651-2.051-5.952-5.2-9.902-9.451c-4.4-4.75-7.677-8.051-9.826-9.901c-0.15,1.301-0.426,4.701-0.825,10.201
		c-0.251,4.151-0.701,7.451-1.351,9.902c-0.101,0-0.412,0.124-0.938,0.375c-0.525,0.249-0.964,0.324-1.313,0.225
		c-2.201-0.5-3.301-2.025-3.301-4.575c0-0.751,0.1-1.75,0.3-3.001c0.199-1.45,0.325-2.35,0.375-2.7
		c0.199-2.9,0.325-6.351,0.375-10.352v-8.177c0-6.801,0.376-12.527,1.126-17.178c0.104-0.65,0.322-1.221,0.64-1.724
		c-3.125,0.607-7.131,1.306-12.042,2.099c-1.001,12.452-1.5,22.829-1.5,31.13c0,3.15,0.05,6.252,0.15,9.302
		c0.049,0.949,0,1.675-0.15,2.176c-0.251,0.799-0.75,1.174-1.5,1.125c-1.451-0.051-2.651-0.664-3.601-1.838
		c-0.951-1.176-1.476-2.487-1.575-3.938c-0.101-1.85-0.15-3.8-0.15-5.851c0-3.301,0.225-8.525,0.675-15.678
		c0.45-6.851,0.649-12.077,0.6-15.678c-1.35-0.1-3.226,0.025-5.626,0.375c-2.75,0.401-4.65,0.601-5.701,0.601
		c-2.45,0-4.45-0.655-6.001-1.967c-0.6-1.311-0.9-1.992-0.9-2.042c0-0.004,0.001-0.009,0.001-0.014
		c-0.379,0.168-0.778,0.187-1.201,0.046c-0.701-0.199-1.076-0.3-1.125-0.3c-0.3,0-0.6,0.15-0.9,0.45
		c-2.701,2.7-4.051,6.001-4.051,9.901c0,1.451,0.225,2.802,0.675,4.051c0.199,0.551,2.1,4.426,5.701,11.627
		c2.4,4.801,3.601,8.878,3.601,12.228c0,2.751-0.675,5.4-2.025,7.951c-0.45,0.85-1.575,1.95-3.375,3.301
		c-1.451,1.05-2.751,1.575-3.9,1.575c-0.45,0-0.876-0.075-1.275-0.226c-1.5-0.65-2.25-1.476-2.25-2.475
		c0-0.601,0.375-1.326,1.125-2.176c0.199-0.251,0.675-0.401,1.425-0.45c0.75-0.051,1.25-0.351,1.5-0.9
		c1.05-2.199,1.575-4.45,1.575-6.751c0-3.25-1.613-7.963-4.838-14.14c-3.226-6.176-4.838-11.113-4.838-14.815
		c0-3.05,0.6-5.775,1.8-8.176c1.351-2.75,3.275-4.726,5.776-5.926c1.149-0.55,2.275-0.825,3.375-0.825
		c2.1,0,3.675,0.576,4.726,1.726C307.29,200.896,307.541,201.446,307.541,201.995z M285.485,122.445c0.75-0.25,2.3-0.199,4.651,0.15
		c6.5,1.05,11.402,3.901,14.703,8.552c1.05,1.5,1.575,3.201,1.575,5.101c0,1.65-0.401,3.375-1.2,5.176
		c-1.901,4.101-3.526,6.826-4.876,8.177c-2.1,2.1-3.251,3.251-3.451,3.45c-1.451,1.151-2.901,1.851-4.351,2.101
		c-0.2,1.001-0.3,2.175-0.3,3.525c0,0.951,0.075,2.389,0.225,4.313c0.15,1.926,0.225,3.338,0.225,4.238c0,3.4-0.8,5.951-2.4,7.651
		l-2.1-1.125c-0.851-0.45-1.326-1.001-1.425-1.65c-0.5-3.251-0.75-6.875-0.75-10.876c0-2.65,0.15-6.601,0.45-11.852
		c0.3-5.251,0.45-9.227,0.45-11.927c0-3.9-0.225-7.475-0.675-10.727c-0.401,0.15-0.776-0.1-1.125-0.75
		c-0.351-0.649-0.65-1.024-0.9-1.125C284.46,123.246,284.885,122.445,285.485,122.445z M272.022,294.747
		c-0.65,2.701-2.301,5.151-4.951,7.352c-2.55,1.801-5.101,3.576-7.651,5.326c0.15,0.75,0.662,1.313,1.538,1.688
		c0.875,0.375,1.712,0.738,2.513,1.088c4.15,2.7,6.226,5.901,6.226,9.602c0,2.851-0.975,5.476-2.925,7.876
		c-1.5,1.85-3.726,3.676-6.676,5.477c-2.4,1.399-4.801,2.8-7.201,4.2c-0.6,0.35-1.25,0.525-1.95,0.525
		c-1.65,0-2.801-0.676-3.451-2.025c0.1-4.201,0.199-8.377,0.3-12.527c0.1-5,0.375-9.126,0.825-12.377c-1.05-0.7-1.576-1.5-1.576-2.4
		c0-0.45,0.188-0.862,0.563-1.237c0.375-0.376,0.887-0.788,1.538-1.238c0.6-7.601,0.724-14.602,0.375-21.003
		c-2.351-0.45-3.9-1.501-4.651-3.151c-0.05-0.199,0.038-0.499,0.263-0.899s0.337-0.725,0.337-0.976
		c1.15-0.85,2.425-1.275,3.826-1.275c1,0,3.301,0.326,6.901,0.976c1.85,0.3,3.775,0.975,5.776,2.025
		c5.401,2.801,8.576,5.526,9.526,8.176C272.146,291.848,272.322,293.447,272.022,294.747z M272.811,234.251
		c-0.6,1.35-1.25,2.426-1.95,3.226c-1.551,1.95-3.102,3.876-4.651,5.775c-1.851,2.301-3.525,3.901-5.026,4.801
		c-0.5,0.601-1.05,1.226-1.65,1.876c-0.6,0.649-1.2,0.975-1.8,0.975c-0.3,0-0.65-0.075-1.05-0.225
		c-0.401-0.15-0.838-0.326-1.313-0.525c-0.476-0.2-0.813-0.525-1.013-0.975c-0.15-2.101-0.225-4.352-0.225-6.752
		c0-2.449,0.1-6.101,0.3-10.951c0.199-4.851,0.3-8.501,0.3-10.952c0-3.25-0.125-6.226-0.375-8.927c-0.05-0.049-0.6-0.624-1.65-1.725
		c-0.65-0.649-0.975-1.25-0.975-1.801c0-0.25,0.049-0.499,0.15-0.75c0.25-0.601,0.799-0.949,1.65-1.05
		c0.649-0.1,1.3-0.175,1.951-0.226c4.201,0.9,8.601,3.251,13.202,7.052c1.2,1,2.175,2.051,2.925,3.15
		c2.4,3.551,3.601,6.876,3.601,9.977c0,1.601-0.326,3.126-0.975,4.575C273.735,231.951,273.261,233.101,272.811,234.251z
		 M282.672,309.3c-0.701,6.852-1.05,12.028-1.05,15.527c0,1.302,0.024,2.575,0.075,3.826c-0.45,1.399-1.425,2.074-2.925,2.025
		c-2.151-0.101-3.327-1.025-3.526-2.775c-0.2-1.75-0.3-3.601-0.3-5.551c0-3.4,0.413-8.477,1.238-15.228
		c0.825-6.752,1.238-11.802,1.238-15.153c0-1.3-0.051-2.575-0.15-3.825c0.5-0.949,1.351-1.426,2.551-1.426
		c0.949,0,1.9,0.275,2.85,0.825c0.199-0.149,0.35-0.225,0.45-0.225c0.15,0,0.225,0.251,0.225,0.75c-0.05,0.601-0.05,0.95,0,1.05
		c0.049,0.15,0.124,0.251,0.225,0.301c0.1,1.451,0.15,2.951,0.15,4.5C283.723,297.323,283.372,302.449,282.672,309.3z
		 M285.412,248.653c-0.45,1.399-1.425,2.074-2.925,2.025c-2.151-0.101-3.327-1.025-3.526-2.775c-0.2-1.75-0.3-3.601-0.3-5.551
		c0-3.4,0.413-8.477,1.238-15.228c0.825-6.752,1.238-11.802,1.238-15.153c0-1.3-0.051-2.575-0.15-3.825
		c0.5-0.949,1.351-1.426,2.551-1.426c0.949,0,1.9,0.275,2.85,0.825c0.199-0.149,0.35-0.225,0.45-0.225
		c0.15,0,0.225,0.251,0.225,0.75c-0.05,0.601-0.05,0.95,0,1.05c0.049,0.15,0.124,0.251,0.225,0.301c0.1,1.451,0.15,2.951,0.15,4.5
		c0,3.401-0.351,8.527-1.05,15.378c-0.701,6.852-1.05,12.028-1.05,15.527C285.337,246.129,285.362,247.402,285.412,248.653z
		 M313.428,326.553c-0.201-0.049-0.375-0.075-0.525-0.075c-0.3,0-0.688,0.126-1.163,0.375c-0.476,0.251-0.838,0.375-1.088,0.375
		c-0.25,0-0.525-0.1-0.825-0.3c-3.351-2.101-8.552-5.251-15.603-9.451c0.15,1.851,0.274,4.5,0.375,7.951c0,0.4,0.049,1.001,0.15,1.8
		c0.1,0.8,0.15,1.375,0.15,1.726c0,1.2-0.525,2.025-1.575,2.476c-0.3,0.199-0.726,0.3-1.275,0.3c-0.6,0-0.975-0.176-1.125-0.525
		c-1.301-0.449-2.051-1.325-2.25-2.625c-0.6-3.601-0.9-7.826-0.9-12.677c0-1.75,0.049-4.363,0.15-7.839
		c0.1-3.476,0.15-6.088,0.15-7.839c0-5.301-0.351-9.902-1.05-13.803c-0.101-0.6,0.25-1,1.05-1.2c0.6-0.1,1.225-0.199,1.875-0.3
		c0.649,0.2,1.324,0.438,2.025,0.713c0.7,0.275,1.075,0.712,1.125,1.313c0.75,6.802,1.075,12.202,0.975,16.202
		c2.05-1.849,4.4-4.3,7.051-7.351c2.25-2.551,4.475-5.126,6.676-7.727c0.6-0.25,1.249-0.375,1.95-0.375
		c1.95,0,2.975,0.675,3.076,2.025c-1.401,3.102-4.152,6.776-8.251,11.026c-4.801,4.951-7.876,8.477-9.227,10.577
		c3.1,1.851,6.226,3.701,9.376,5.551c3.5,2.201,6.451,4.326,8.852,6.376c0.3,0.251,0.45,0.601,0.45,1.051
		C314.028,324.603,313.827,325.353,313.428,326.553z M360.311,327.378c0.049,0.949,0,1.675-0.15,2.176
		c-0.251,0.799-0.75,1.174-1.5,1.125c-1.451-0.051-2.651-0.664-3.601-1.838c-0.951-1.176-1.476-2.487-1.575-3.938
		c-0.101-1.85-0.15-3.8-0.15-5.851c0-3.301,0.226-8.525,0.675-15.678c0.45-6.851,0.649-12.077,0.601-15.678
		c-1.351-0.1-3.226,0.025-5.626,0.375c-2.751,0.401-4.65,0.601-5.701,0.601c-0.376,0-0.737-0.021-1.093-0.052
		c0.017,0.095,0.043,0.205,0.043,0.276c0,0.4-0.176,0.726-0.525,0.976c-1.851,0.75-4.575,1.625-8.176,2.625
		c-3.601,1.001-6.327,1.875-8.177,2.625c-0.45,1.302-0.776,4.201-0.976,8.702c0.8,0.3,1.726,0.45,2.775,0.45
		c0.751,0,1.925-0.125,3.526-0.375c1.6-0.25,2.775-0.375,3.525-0.375c1.399,0,2.6,0.3,3.601,0.899c0.699,1.001,1.05,1.65,1.05,1.95
		c0,0.351-0.176,0.626-0.524,0.825c-0.102,0.051-0.45,0.401-1.051,1.051c-0.4,0.45-0.9,0.65-1.5,0.6
		c-1.05,0.251-2.976,0.401-5.776,0.45c-2.351,0.051-4.227,0.351-5.626,0.9c-0.95,3.701-1.425,6.627-1.425,8.776
		c0,1.451,0.199,2.601,0.6,3.45c2.351,1.65,6.426,2.352,12.228,2.101c0.399,0,0.825-0.188,1.275-0.563s0.825-0.563,1.125-0.563
		c1.399-0.3,2.325,0.75,2.775,3.15c0.15,0.801,0.012,1.538-0.412,2.213c-0.426,0.675-1.039,1.037-1.838,1.088
		c-6.052,0.199-11.303-0.275-15.753-1.426c-1.4-0.35-2.676-1.125-3.826-2.325c-1.151-1.2-1.8-2.55-1.95-4.051
		c-0.45-4.351-0.45-8.251,0-11.702c-1.4-0.949-2.025-1.875-1.875-2.775c0.049-0.449,0.437-0.862,1.163-1.237
		c0.724-0.375,1.137-0.762,1.238-1.163c0.1-0.399,0.3-2.775,0.6-7.126c-2.801-0.55-4.176-1.6-4.126-3.15
		c0.049-1.45,0.925-2.6,2.625-3.45c1.6-0.649,3.2-1.3,4.801-1.951c1.9-0.949,4.25-1.8,7.051-2.55c2.4-0.649,4.825-1.275,7.276-1.875
		c0.169-0.034,0.37-0.052,0.586-0.063c-0.09-0.209-0.137-0.325-0.137-0.345c0-0.353,0.176-0.731,0.525-1.135
		c1.602-0.555,4.876-1.059,9.827-1.513c4.351-0.454,7.601-1.261,9.751-2.421c1.75,0.601,3.751,0.9,6.001,0.9
		c2.251,0,4.4-0.274,6.451-0.825c0.601-0.049,2.125-0.399,4.576-1.05c1.8-0.45,3.301-0.601,4.501-0.45
		c0.899,0,1.274,0.375,1.125,1.125c1.35,0,2.025,0.45,2.025,1.351c-0.45,1.8-1.302,2.85-2.551,3.15
		c-3.251,0.8-8.901,1.851-16.953,3.15c-1.001,12.452-1.5,22.829-1.5,31.13C360.16,321.227,360.21,324.328,360.311,327.378z
		 M397.366,328.503c-0.851,0.75-1.425,1.1-1.726,1.051c-2.45-0.45-4.001-2.426-4.65-5.927c-0.701-3.8-1.526-6.976-2.476-9.526
		c-1.7,0.15-3.401,0.3-5.101,0.45c-1.95,0.251-3.477,0.851-4.576,1.801c-0.551,1.55-1.275,4.301-2.175,8.251
		c-0.852,3.649-1.677,6.425-2.476,8.326c-0.401,0.9-1.251,1.15-2.551,0.75c-1.65-0.551-2.525-1.301-2.625-2.25
		c-0.15-1.901,0.399-4.45,1.65-7.651c1.5-3.649,2.325-6.251,2.475-7.802c0.05-0.449-0.275-0.949-0.975-1.5
		c-0.701-0.55-1.05-0.975-1.05-1.275c0-0.249,0.112-0.512,0.337-0.787c0.226-0.274,0.75-0.499,1.575-0.675
		c0.825-0.175,1.287-0.438,1.388-0.788c0.9-2.5,2.325-7.15,4.276-13.952c1.649-5.9,3.124-10.427,4.426-13.577
		c0.3-0.7,0.925-1.051,1.875-1.051c0.699,0,1.324,0.226,1.875,0.676c1.399,1.2,2.3,3,2.7,5.4c0.301,2.051,0.575,4.102,0.825,6.151
		c2.5,11.803,5.102,21.528,7.802,29.18c0.3,0.801,0.45,1.5,0.45,2.101C398.642,326.879,398.216,327.753,397.366,328.503z
		 M427.971,308.625c-1.35,3.351-2.226,7.477-2.625,12.377c-0.251,4.251-0.476,8.501-0.675,12.752
		c-0.102,1.25-0.927,1.875-2.476,1.875c-0.45,0-0.876-0.074-1.275-0.225c-2.151-0.9-3.226-2.576-3.226-5.025
		c0-0.701,0.1-1.764,0.3-3.188c0.199-1.425,0.3-2.463,0.3-3.113c0.199-1.449,0.45-3.625,0.751-6.525
		c-3.451,3.251-7.352,5.676-11.702,7.275c-0.601,0.201-1.2,0.301-1.801,0.301c-2.301,0-4.426-1.3-6.376-3.901
		c-1.1-1.449-1.65-3.25-1.65-5.4c0-1.9,0.426-4.126,1.275-6.677c2.65-8.101,6.875-16.026,12.677-23.778
		c2.9-3.851,5.477-5.776,7.727-5.776c2,0,3.125,0.75,3.376,2.251c0.199,1.25-0.226,2.15-1.275,2.7
		c-1.751,0.95-2.676,1.476-2.775,1.575c-4.201,4.65-8.053,10.651-11.552,18.003c-2.151,4.551-3.226,8.626-3.226,12.228
		c0,0.65,0.024,1.301,0.075,1.95c0.1,0.05,0.249,0.288,0.449,0.712c0.199,0.426,0.475,0.563,0.825,0.413
		c3.301-1.3,8.276-4.726,14.928-10.277c0.499-0.399,1.075-1.549,1.726-3.45c0.499-1.399,1.399-2.101,2.7-2.101
		c-0.4,0,0-0.049,1.2-0.149c0.601-0.1,1,0,1.2,0.3c0.949,1.4,1.426,2.551,1.426,3.45
		C428.271,307.649,428.17,308.125,427.971,308.625z M434.159,203.796c-3.252,0.8-8.902,1.851-16.953,3.15
		c-1.001,12.452-1.5,22.829-1.5,31.13c0,3.15,0.049,6.252,0.149,9.302c0.05,0.949,0,1.675-0.149,2.176
		c-0.251,0.799-0.751,1.174-1.501,1.125c-1.451-0.051-2.651-0.664-3.601-1.838c-0.95-1.176-1.476-2.487-1.575-3.938
		c-0.101-1.85-0.149-3.8-0.149-5.851c0-3.301,0.225-8.525,0.675-15.678c0.45-6.851,0.649-12.077,0.6-15.678
		c-1.35-0.1-3.226,0.025-5.626,0.375c-2.75,0.401-4.65,0.601-5.7,0.601c-2.45,0-4.45-0.655-6.001-1.967
		c-0.028-0.063-0.054-0.117-0.081-0.177c-5.442,5.866-8.17,13.404-8.17,22.622c0,4.401,0.7,8.552,2.101,12.452
		c1.149,3.201,1.975,5.302,2.476,6.302c1.249,2.449,2.775,4.2,4.575,5.251c0.751,0.349,1.501,0.675,2.251,0.975
		c0.799,0.45,1.2,1.075,1.2,1.875s-0.263,1.525-0.788,2.176c-0.524,0.649-1.087,0.9-1.688,0.75c-0.65-0.101-1.65-0.425-3-0.975
		c-2.401-1.401-5.002-4.377-7.802-8.927c-0.701-1.151-1.413-2.337-2.138-3.563c-0.726-1.225-1.264-2.388-1.613-3.488
		c-0.251-0.799-0.675-4.024-1.274-9.676c-0.201-1.75-0.301-3.451-0.301-5.102c0-8.852,2.575-16.377,7.727-22.578
		c3-3.601,6.125-5.401,9.377-5.401c1.399,0,2.674,0.426,3.825,1.275c0.35,0.251,0.525,0.8,0.525,1.65
		c0,0.033-0.007,0.063-0.008,0.095c0.714-0.076,1.455-0.151,2.257-0.225c4.351-0.454,7.601-1.26,9.752-2.421
		c1.75,0.6,3.75,0.9,6.001,0.9c2.25,0,4.399-0.274,6.451-0.825c0.6-0.049,2.125-0.4,4.575-1.05c1.801-0.45,3.301-0.6,4.501-0.45
		c0.9,0,1.275,0.375,1.125,1.125c1.351,0,2.025,0.45,2.025,1.35C436.259,202.445,435.408,203.495,434.159,203.796z"/>
	<path fill="none" d="M384.839,297.223c-1.5,4.151-2.801,8.302-3.9,12.452c0.8-0.149,2.899-0.225,6.301-0.225
		c-0.149-1.85-0.476-3.926-0.975-6.227C385.764,301.225,385.289,299.224,384.839,297.223z"/>
	<path fill="none" d="M235.437,99.039c5.218,0.422,10.41,0.924,15.549,1.426c24.71,2.414,49.415,1.002,74.146,0.113
		c-16.623-0.36-33.247-0.705-49.872-0.996C261.986,99.35,248.711,99.176,235.437,99.039z"/>
	<path d="M541.412,281.197c-0.174-16.508-0.813-33.008-1.442-49.504c-0.604-15.745-0.073-31.479,0.225-47.219
		c0.28-15.145,0.015-30.211-1.612-45.277c-1.021-9.421-2.869-19.451-8.261-27.447c-2.537-3.762-5.851-6.271-9.604-7.939
		c-5.593-3.609-13.037-5.111-19.144-6.127c-21.427-3.566-43.437-0.631-65.012-2.461c-31.962-2.711-64.044-3.524-96.003-6.26
		c-29.436-2.52-58.978-4.025-88.521-3.828c-14.449,0.097-28.892,0.701-43.293,1.871c-11.939,0.97-24.062,1.945-35.457,5.859
		c-3.611,1.24-6.875,2.848-9.852,4.74c-5.789,1.107-11.247,3.143-15.907,6.816c-14.188,11.188-11.68,32.167-11.801,49.617
		c-1.071,5.57-2.1,11.146-3.255,16.67c-0.95,4.544-2.335,8.508-4.238,12.297c-2.706,4.252-6.043,8.166-9.815,11.896
		c-6.511,6.438-9.625,13.736-11.188,22.462c-0.314,0.828-0.612,1.67-0.875,2.544c-3.82,12.708-1.345,27.422,0.991,40.168
		c1.959,10.688,7.187,20.17,13.779,28.668c6.423,8.278,13.894,15.657,19.885,24.284c0.183,0.265,0.352,0.531,0.529,0.8
		c2.297,8.705,2.213,17.713,3.409,26.896c1.216,9.352,6.129,18.928,16.146,20.969c4.954,1.01,9.942,0.691,14.95,0.322
		c7.849-0.578,15.658-0.195,23.517,0.039c32.945,1.004,65.889,2.08,98.813,3.646c32.2,1.523,64.014,3.557,96.271,2.191
		c31.983-1.348,63.924-4.098,95.964-3.439c14.982,0.307,31.569,0.453,41.521-12.723c5.229-6.922,7.127-15.938,8.163-24.355
		C542.157,312.193,541.573,296.459,541.412,281.197z M181.334,91.921c14.229-3.477,29.702-3.839,44.268-4.567
		c15.105-0.755,30.24-0.844,45.359-0.581c29.969,0.521,59.673,3.609,89.557,5.399c16.352,0.979,32.709,1.744,49.06,2.735
		c14.013,0.85,28.088,2.805,42.124,2.842c18.22,0.047,38.698-2.38,56.538,3.18c-6.521-0.545-13.32-0.098-19.331-0.004
		c-65.257-0.039-130.491-1.898-195.73-3.188c-32.928-0.652-65.859-1.123-98.793-1.152c-8.387-0.006-17.861-0.688-26.821,0.384
		C171.877,94.711,176.562,93.086,181.334,91.921z M325.132,100.578c-24.731,0.889-49.436,2.301-74.146-0.113
		c-5.139-0.502-10.331-1.004-15.549-1.426c13.274,0.137,26.549,0.311,39.823,0.543C291.885,99.873,308.509,100.218,325.132,100.578z
		 M161.8,100.554c6.826-1.646,14.432-1.848,21.593-1.834c4.146,0.007,8.291,0.029,12.437,0.044
		c-7.431,0.753-14.783,2.103-21.981,4.302c-9.688,2.959-18.421,8.229-24.862,16.108c-1.044,1.276-1.978,2.599-2.817,3.957
		c2.118-5.742,4.921-11.204,8.776-16.019C156.967,104.588,159.279,102.421,161.8,100.554z M140.92,120.007
		c2.607-10.256,9.086-15.59,17.108-18.355c-8.228,7.188-13.58,17.116-16.833,28.379c-0.8,2.769-1.508,5.563-2.176,8.372
		C139.06,132.22,139.38,126.064,140.92,120.007z M129.917,185.561c-1.362,2.341-2.938,4.627-4.798,6.855
		c-0.252,0.303-0.507,0.599-0.761,0.898C126.356,190.806,128.272,188.248,129.917,185.561z M130.993,296.18
		c-7.239-8.295-13.99-16.783-18.011-27.15c-2.063-5.316-3.501-11.221-4.395-17.266c0.184,0.664,0.377,1.324,0.582,1.984
		c2.805,9.033,7.782,17.217,12.937,25.072c5.427,8.271,11.013,16.391,15.567,25.184C135.492,301.352,133.241,298.754,130.993,296.18
		z M362,366.457c-16.928-0.037-33.798-1.441-50.694-2.32c-16.554-0.857-33.116-1.563-49.681-2.193
		c-30.216-1.154-60.624-3.107-90.825-1.764c-6.813,0.309-13.049-0.945-17.638-6.352c-3.956-4.656-4.995-10.773-5.652-16.65
		c-0.604-5.398-0.914-10.563-1.584-15.617c3.502,6.982,6.474,14.229,11.948,20.029c12.204,12.936,32.39,9.711,48.348,10.197
		c15.56,0.475,31.11,2.637,46.634,3.771c16.408,1.198,32.717,1.196,49.15,1.424c32.623,0.444,65.116,3.896,97.672,5.713
		c10.829,0.604,21.671,0.984,32.518,1.046C408.807,364.98,385.436,366.508,362,366.457z M523.954,356.559
		c-6.612,4.896-15.436,5.768-23.386,5.928c-7.026,0.143-14.055,0.047-21.078-0.027c14.813-0.002,32.584,0.803,45.865-7.016
		C524.903,355.824,524.438,356.199,523.954,356.559z M525.268,353.654c-7.614,5.719-18.815,6.426-27.962,6.943
		c-9.021,0.518-18.065,0.211-27.102,0.404c-13.373,0.283-26.664,1.332-40.065,1.199c-32.624-0.324-65.121-3.754-97.671-5.631
		c-16.305-0.939-32.554-0.994-48.873-1.146c-17.022-0.15-34.006-1.688-50.951-3.189c-12.522-1.109-24.905-2.105-37.479-2.107
		c-9.019-0.002-18.346,0.068-26.679-3.846c-10.278-4.828-14.613-15.301-19.223-24.908c-1.455-3.033-3.176-5.898-5.043-8.67
		c-0.772-2.885-1.79-5.762-3.199-8.654c-8.947-18.367-23.873-33.502-29.655-53.408c-3.131-10.785-3.138-22.5-1.206-33.567
		c2.751-7.287,7.518-13.467,13.077-19.549c8.192-8.963,13.809-17.613,16.154-29.718c2.443-12.608,1.583-25.612,6.056-37.828
		c4.735-12.935,16.037-21.44,28.753-25.6c26.5-8.667,55.738-4.052,82.783-1.716c30.506,2.634,61.29-1.051,91.843-1.113
		c0.35,0,0.832-0.188,1.229-0.43c40.57,0.886,81.146,1.73,121.729,1.938c4.95,0.025,9.901,0.032,14.852,0.036
		c0.097,0.013,0.19,0.021,0.301,0.021c0.553-0.001,1.107-0.008,1.674-0.016c0.369,0,0.734,0.002,1.104,0.002
		c0.113,0,0.223-0.011,0.322-0.029c9.803-0.223,20.904-1.086,29.505,3.167c14.473,11.269,9.604,37.62,7.843,53.33
		c-1.188,10.649-1.919,20.923-1.39,31.65c0.763,15.468,3.049,30.821,4.438,46.236c1.34,14.791,0.479,29.526,1.262,44.319
		c0.744,14.129,2.477,28.188,2.46,42.353C534.143,334.324,534.195,346.953,525.268,353.654z M536.713,332
		c0.011-0.133,0.022-0.266,0.033-0.398c1.086-13.467-0.426-27.092-1.466-40.514c-1.115-14.408-0.454-28.744-1.146-43.152
		c-0.743-15.521-3.02-30.936-4.436-46.401c-1.149-12.546-1.354-24.831,0.013-37.346c1.136-10.438,2.463-20.868,2.404-31.387
		c-0.028-5.16-0.449-10.621-1.986-15.652c4.318,8.514,5.193,19.004,6.119,28.194c1.633,16.206,1.166,32.581,0.802,48.837
		c-0.728,32.409,1.436,64.724,1.48,97.126C538.553,304.758,538.929,318.662,536.713,332z"/>
	<path d="M141.402,213.324c-1.79-4.047-6.104-6.389-10.126-4.859c-4.098,1.557-5.279,8.261-5.954,12.175
		c-1.633,9.551-1.82,22.333,5.703,29.103c4.784,4.303,8.052,1.692,10.25-2.918c0.905,0.766,1.789,0.647,1.83-1.56
		c0.026-1.328,0.089-2.685,0.17-4.052c1.163-4.272,1.763-8.688,2.011-10.825c0.148-1.267-0.518-2.854-1.336-3.789
		C143.858,221.99,143.242,217.478,141.402,213.324z M139.452,238.936c-1.413,4.189-3.831,7.131-8.161,4.434
		c-5.218-3.252-2.902-16.051-1.878-21.149c0.739-3.691,2.271-7.751,6.384-7.315c4.487,0.474,4.116,6.708,4.216,10.277
		C140.146,229.781,139.705,234.352,139.452,238.936z"/>
	<path d="M285.11,125.971c0.349,0.65,0.725,0.9,1.125,0.75c0.45,3.251,0.675,6.826,0.675,10.727c0,2.701-0.15,6.676-0.45,11.927
		c-0.3,5.251-0.45,9.202-0.45,11.852c0,4.001,0.25,7.625,0.75,10.876c0.1,0.649,0.574,1.2,1.425,1.65l2.1,1.125
		c1.6-1.701,2.4-4.251,2.4-7.651c0-0.9-0.075-2.313-0.225-4.238c-0.15-1.925-0.225-3.363-0.225-4.313c0-1.35,0.1-2.524,0.3-3.525
		c1.45-0.25,2.9-0.949,4.351-2.101c0.199-0.199,1.351-1.35,3.451-3.45c1.35-1.351,2.975-4.076,4.876-8.177
		c0.799-1.8,1.2-3.525,1.2-5.176c0-1.9-0.525-3.601-1.575-5.101c-3.301-4.651-8.202-7.501-14.703-8.552
		c-2.351-0.349-3.9-0.399-4.651-0.15c-0.6,0-1.025,0.801-1.275,2.4C284.46,124.947,284.76,125.322,285.11,125.971z M297.788,130.922
		c1.95,1.151,2.8,2.726,2.55,4.726c-0.5,4.101-2.976,8.251-7.426,12.452c0.199-3.7,0.025-10.151-0.525-19.353
		C295.886,130.197,297.687,130.922,297.788,130.922z"/>
	<path d="M312.416,138.048c-0.3,4.351-0.5,6.727-0.6,7.126c-0.101,0.401-0.514,0.788-1.238,1.163
		c-0.726,0.375-1.114,0.788-1.163,1.238c-0.15,0.9,0.475,1.826,1.875,2.775c-0.45,3.451-0.45,7.351,0,11.702
		c0.15,1.5,0.799,2.85,1.95,4.05c1.15,1.2,2.425,1.975,3.826,2.326c4.451,1.15,9.701,1.625,15.752,1.425
		c0.8-0.051,1.412-0.413,1.838-1.088c0.425-0.675,0.563-1.412,0.413-2.213c-0.45-2.4-1.377-3.451-2.776-3.15
		c-0.3,0-0.675,0.188-1.125,0.563s-0.875,0.563-1.275,0.563c-5.802,0.251-9.876-0.45-12.227-2.1c-0.401-0.85-0.6-2-0.6-3.451
		c0-2.149,0.475-5.075,1.425-8.776c1.399-0.55,3.275-0.85,5.626-0.9c2.8-0.049,4.726-0.199,5.775-0.45
		c0.601,0.051,1.1-0.15,1.501-0.6c0.6-0.649,0.949-1,1.05-1.05c0.35-0.199,0.525-0.475,0.525-0.825c0-0.3-0.351-0.95-1.051-1.95
		c-1.001-0.6-2.201-0.9-3.601-0.9c-0.75,0-1.926,0.125-3.525,0.375c-1.601,0.251-2.775,0.375-3.525,0.375
		c-1.05,0-1.976-0.15-2.775-0.45c0.199-4.501,0.525-7.401,0.975-8.702c1.85-0.75,4.576-1.625,8.176-2.625
		c3.601-1,6.326-1.875,8.177-2.625c0.349-0.25,0.524-0.574,0.524-0.975c0-0.25-0.101-0.649-0.3-1.2
		c-0.2-0.55-0.326-0.925-0.375-1.125c-1.8-1.05-3.376-1.576-4.726-1.576c-0.351,0-0.65,0.026-0.9,0.075
		c-2.451,0.6-4.876,1.226-7.276,1.875c-2.801,0.75-5.151,1.601-7.051,2.55c-1.601,0.65-3.201,1.301-4.801,1.95
		c-1.701,0.851-2.576,2.001-2.625,3.451C308.239,136.448,309.614,137.499,312.416,138.048z"/>
	<path d="M335.368,171.429c0.1,0.949,0.976,1.699,2.626,2.25c1.3,0.399,2.149,0.15,2.55-0.75c0.8-1.901,1.625-4.676,2.476-8.326
		c0.9-3.95,1.625-6.701,2.176-8.251c1.1-0.949,2.625-1.549,4.575-1.8c1.7-0.15,3.4-0.3,5.102-0.45
		c0.949,2.551,1.774,5.727,2.475,9.527c0.649,3.501,2.2,5.476,4.651,5.926c0.3,0.049,0.874-0.3,1.726-1.05
		c0.85-0.75,1.274-1.625,1.274-2.625c0-0.6-0.149-1.3-0.45-2.1c-2.7-7.651-5.301-17.377-7.801-29.18
		c-0.251-2.05-0.525-4.1-0.825-6.151c-0.4-2.4-1.301-4.201-2.7-5.401c-0.551-0.45-1.176-0.675-1.876-0.675
		c-0.95,0-1.575,0.35-1.875,1.05c-1.301,3.151-2.775,7.677-4.426,13.578c-1.95,6.801-3.375,11.452-4.275,13.952
		c-0.101,0.351-0.563,0.613-1.388,0.788c-0.825,0.176-1.351,0.401-1.575,0.675c-0.226,0.275-0.338,0.538-0.338,0.788
		c0,0.3,0.35,0.726,1.05,1.275c0.7,0.551,1.024,1.05,0.976,1.5c-0.15,1.551-0.976,4.151-2.476,7.801
		C335.769,166.978,335.219,169.527,335.368,171.429z M351.196,137.223c0.45,2.001,0.925,4.001,1.425,6.001
		c0.499,2.301,0.825,4.377,0.976,6.226c-3.401,0-5.502,0.075-6.302,0.225C348.395,145.524,349.696,141.375,351.196,137.223z"/>
	<path d="M367.323,148.062c-0.101,3.477-0.149,6.089-0.149,7.839c0,4.852,0.3,9.077,0.899,12.677c0.199,1.3,0.949,2.175,2.251,2.625
		c0.149,0.349,0.524,0.525,1.125,0.525c0.55,0,0.975-0.101,1.275-0.3c1.05-0.45,1.575-1.275,1.575-2.476
		c0-0.351-0.051-0.926-0.15-1.725c-0.101-0.799-0.15-1.399-0.15-1.8c-0.101-3.451-0.225-6.101-0.375-7.952
		c7.052,4.201,12.252,7.352,15.604,9.452c0.3,0.201,0.574,0.3,0.824,0.3s0.612-0.125,1.088-0.375
		c0.475-0.25,0.863-0.375,1.163-0.375c0.149,0,0.324,0.026,0.525,0.075c0.399-1.2,0.6-1.95,0.6-2.25c0-0.45-0.15-0.799-0.45-1.05
		c-2.4-2.05-5.352-4.175-8.852-6.376c-3.15-1.849-6.276-3.7-9.376-5.551c1.35-2.1,4.426-5.626,9.227-10.577
		c4.1-4.25,6.851-7.926,8.251-11.027c-0.101-1.35-1.125-2.025-3.075-2.025c-0.701,0-1.351,0.125-1.95,0.375
		c-2.201,2.601-4.426,5.176-6.677,7.727c-2.651,3.051-5.001,5.501-7.051,7.351c0.1-4-0.226-9.401-0.976-16.203
		c-0.05-0.6-0.425-1.038-1.125-1.313c-0.701-0.274-1.376-0.512-2.025-0.712c-0.65,0.101-1.275,0.2-1.875,0.3
		c-0.801,0.201-1.151,0.6-1.051,1.2c0.7,3.901,1.051,8.502,1.051,13.802C367.474,141.975,367.423,144.587,367.323,148.062z"/>
	<path d="M271.61,216.248c-0.75-1.1-1.725-2.15-2.925-3.15c-4.602-3.801-9.001-6.151-13.202-7.052
		c-0.651,0.051-1.301,0.126-1.951,0.226c-0.851,0.101-1.4,0.449-1.65,1.05c-0.101,0.251-0.15,0.5-0.15,0.75
		c0,0.551,0.325,1.151,0.975,1.801c1.05,1.101,1.6,1.676,1.65,1.725c0.25,2.701,0.375,5.677,0.375,8.927
		c0,2.451-0.101,6.102-0.3,10.952c-0.201,4.851-0.3,8.502-0.3,10.951c0,2.4,0.075,4.651,0.225,6.752
		c0.199,0.449,0.537,0.774,1.013,0.975c0.475,0.199,0.912,0.375,1.313,0.525c0.399,0.149,0.75,0.225,1.05,0.225
		c0.6,0,1.2-0.325,1.8-0.975c0.6-0.65,1.15-1.275,1.65-1.876c1.5-0.899,3.175-2.5,5.026-4.801c1.549-1.899,3.1-3.825,4.651-5.775
		c0.7-0.8,1.35-1.876,1.95-3.226c0.45-1.15,0.925-2.3,1.425-3.451c0.649-1.449,0.975-2.975,0.975-4.575
		C275.211,223.124,274.011,219.799,271.61,216.248z M260.508,241.002c-0.15-9.351-0.05-18.202,0.3-26.555
		c4.9,2.4,7.576,5.176,8.026,8.326c0.1,0.701,0.15,1.401,0.15,2.101C268.985,229.975,266.159,235.352,260.508,241.002z"/>
	<path d="M287.438,213.922c0-1.549-0.05-3.049-0.15-4.5c-0.101-0.05-0.176-0.15-0.225-0.301c-0.05-0.1-0.05-0.449,0-1.05
		c0-0.499-0.075-0.75-0.225-0.75c-0.101,0-0.251,0.075-0.45,0.225c-0.95-0.55-1.901-0.825-2.85-0.825
		c-1.2,0-2.051,0.477-2.551,1.426c0.1,1.25,0.15,2.525,0.15,3.825c0,3.352-0.413,8.401-1.238,15.153
		c-0.825,6.751-1.238,11.827-1.238,15.228c0,1.95,0.1,3.801,0.3,5.551c0.199,1.75,1.375,2.675,3.526,2.775
		c1.5,0.049,2.475-0.626,2.925-2.025c-0.05-1.251-0.075-2.524-0.075-3.826c0-3.499,0.349-8.676,1.05-15.527
		C287.087,222.449,287.438,217.323,287.438,213.922z"/>
	<path d="M298.689,199.445c-2.501,1.2-4.426,3.176-5.776,5.926c-1.2,2.4-1.8,5.126-1.8,8.176c0,3.702,1.613,8.64,4.838,14.815
		c3.226,6.177,4.838,10.89,4.838,14.14c0,2.301-0.525,4.552-1.575,6.751c-0.251,0.55-0.75,0.85-1.5,0.9
		c-0.75,0.049-1.226,0.199-1.425,0.45c-0.75,0.85-1.125,1.575-1.125,2.176c0,0.999,0.75,1.824,2.25,2.475
		c0.399,0.15,0.825,0.226,1.275,0.226c1.149,0,2.449-0.525,3.9-1.575c1.8-1.351,2.926-2.451,3.375-3.301
		c1.351-2.551,2.025-5.2,2.025-7.951c0-3.35-1.2-7.427-3.601-12.228c-3.601-7.201-5.501-11.076-5.701-11.627
		c-0.45-1.249-0.675-2.6-0.675-4.051c0-3.9,1.35-7.201,4.051-9.901c0.3-0.3,0.6-0.45,0.9-0.45c0.049,0,0.424,0.101,1.125,0.3
		c0.422,0.141,0.822,0.122,1.201-0.046c0,0.004-0.001,0.009-0.001,0.014c0,0.05,0.3,0.731,0.9,2.042
		c1.551,1.312,3.551,1.967,6.001,1.967c1.05,0,2.95-0.199,5.701-0.601c2.4-0.35,4.276-0.475,5.626-0.375
		c0.049,3.601-0.15,8.827-0.6,15.678c-0.45,7.152-0.675,12.377-0.675,15.678c0,2.051,0.049,4.001,0.15,5.851
		c0.1,1.451,0.625,2.763,1.575,3.938c0.949,1.174,2.149,1.787,3.601,1.838c0.75,0.049,1.249-0.326,1.5-1.125
		c0.15-0.501,0.199-1.227,0.15-2.176c-0.101-3.05-0.15-6.151-0.15-9.302c0-8.301,0.499-18.678,1.5-31.13
		c4.911-0.793,8.917-1.492,12.042-2.099c-0.317,0.502-0.535,1.074-0.64,1.724c-0.75,4.65-1.126,10.377-1.126,17.178v8.177
		c-0.05,4.001-0.176,7.451-0.375,10.352c-0.05,0.351-0.176,1.25-0.375,2.7c-0.2,1.251-0.3,2.25-0.3,3.001
		c0,2.55,1.1,4.075,3.301,4.575c0.349,0.1,0.787,0.024,1.313-0.225c0.525-0.251,0.837-0.375,0.938-0.375
		c0.649-2.451,1.1-5.751,1.351-9.902c0.399-5.5,0.675-8.9,0.825-10.201c2.149,1.851,5.426,5.151,9.826,9.901
		c3.95,4.251,7.251,7.4,9.902,9.451c0.811-0.202,1.473-0.439,2.01-0.705c0.365,0.094,0.764,0.159,1.215,0.181
		c1.5,0.049,2.475-0.626,2.925-2.025c-0.05-1.251-0.074-2.524-0.074-3.826c0-3.499,0.349-8.676,1.05-15.527
		c0.699-6.851,1.05-11.977,1.05-15.378c0-1.549-0.05-3.049-0.149-4.5c-0.102-0.05-0.176-0.15-0.226-0.301
		c-0.05-0.1-0.05-0.449,0-1.05c0-0.499-0.075-0.75-0.225-0.75c-0.101,0-0.251,0.075-0.45,0.225c-0.95-0.55-1.901-0.825-2.851-0.825
		c-1.2,0-2.051,0.477-2.551,1.426c0.1,1.25,0.15,2.525,0.15,3.825c0,3.352-0.412,8.401-1.237,15.153
		c-0.825,6.751-1.238,11.827-1.238,15.228c0,0.172,0.012,0.331,0.014,0.501c-0.996-1.049-2.123-2.141-3.388-3.277
		c-5.452-4.95-8.203-7.45-8.252-7.501c-0.801-0.649-1.601-1.3-2.4-1.95c-1.05-0.9-1.575-1.675-1.575-2.325
		c0-0.601,0.45-1.15,1.351-1.65c2.199-1.2,4.051-2.851,5.551-4.951c1.75-2.35,2.625-4.7,2.625-7.051c0-2.8-0.926-5.401-2.775-7.802
		c-2.001-2.6-4.351-3.949-7.051-4.051c-0.456-0.021-0.887-0.026-1.308-0.022c0.261-0.45,0.474-0.989,0.633-1.627
		c0-0.9-0.676-1.35-2.025-1.35c0.149-0.75-0.226-1.125-1.125-1.125c-1.2-0.15-2.701,0-4.501,0.45
		c-2.451,0.65-3.976,1.001-4.576,1.05c-2.051,0.551-4.2,0.825-6.451,0.825c-2.25,0-4.251-0.3-6.001-0.9
		c-2.15,1.161-5.4,1.967-9.751,2.421c-3.833,0.352-6.648,0.733-8.473,1.145c0.243-0.368,0.372-0.755,0.372-1.166
		c0-0.549-0.25-1.099-0.75-1.65c-1.05-1.15-2.625-1.726-4.726-1.726C300.964,198.62,299.839,198.895,298.689,199.445z
		 M347.896,208.821c0.3-0.75,1.05-1.125,2.25-1.125c1.601,0,2.763,0.426,3.488,1.275c0.725,0.851,1.163,1.8,1.313,2.851
		c0.05,0.7,0,1.5-0.149,2.4c-0.551,2.851-2.901,5.826-7.052,8.926c0.1-1.3,0.1-2.975,0-5.025c-0.149-2.7-0.225-4.375-0.225-5.025
		C347.521,211.497,347.646,210.072,347.896,208.821z"/>
	<path d="M434.684,199.295c0.15-0.75-0.225-1.125-1.125-1.125c-1.2-0.15-2.7,0-4.501,0.45c-2.45,0.65-3.976,1.001-4.575,1.05
		c-2.052,0.551-4.201,0.825-6.451,0.825c-2.251,0-4.251-0.3-6.001-0.9c-2.151,1.161-5.401,1.967-9.752,2.421
		c-0.802,0.074-1.543,0.149-2.257,0.225c0.001-0.033,0.008-0.062,0.008-0.095c0-0.85-0.176-1.399-0.525-1.65
		c-1.151-0.85-2.426-1.275-3.825-1.275c-3.252,0-6.377,1.8-9.377,5.401c-5.151,6.201-7.727,13.727-7.727,22.578
		c0,1.65,0.1,3.352,0.301,5.102c0.6,5.651,1.023,8.877,1.274,9.676c0.35,1.101,0.888,2.264,1.613,3.488
		c0.725,1.227,1.437,2.412,2.138,3.563c2.8,4.55,5.4,7.525,7.802,8.927c1.35,0.55,2.35,0.874,3,0.975
		c0.601,0.15,1.163-0.101,1.688-0.75c0.525-0.65,0.788-1.376,0.788-2.176s-0.401-1.425-1.2-1.875c-0.75-0.3-1.5-0.626-2.251-0.975
		c-1.8-1.051-3.326-2.802-4.575-5.251c-0.501-1-1.326-3.101-2.476-6.302c-1.4-3.9-2.101-8.051-2.101-12.452
		c0-9.218,2.728-16.756,8.17-22.622c0.027,0.06,0.053,0.114,0.081,0.177c1.551,1.312,3.551,1.967,6.001,1.967
		c1.05,0,2.95-0.199,5.7-0.601c2.4-0.35,4.276-0.475,5.626-0.375c0.05,3.601-0.149,8.827-0.6,15.678
		c-0.45,7.152-0.675,12.377-0.675,15.678c0,2.051,0.049,4.001,0.149,5.851c0.1,1.451,0.625,2.763,1.575,3.938
		c0.949,1.174,2.149,1.787,3.601,1.838c0.75,0.049,1.25-0.326,1.501-1.125c0.149-0.501,0.199-1.227,0.149-2.176
		c-0.101-3.05-0.149-6.151-0.149-9.302c0-8.301,0.499-18.678,1.5-31.13c8.051-1.3,13.701-2.351,16.953-3.15
		c1.249-0.301,2.1-1.351,2.55-3.151C436.709,199.745,436.034,199.295,434.684,199.295z"/>
	<path d="M261.97,281.771c-2.001-1.051-3.926-1.726-5.776-2.025c-3.601-0.649-5.901-0.976-6.901-0.976
		c-1.4,0-2.676,0.426-3.826,1.275c0,0.251-0.112,0.575-0.337,0.976s-0.313,0.7-0.263,0.899c0.75,1.65,2.3,2.701,4.651,3.151
		c0.349,6.401,0.225,13.402-0.375,21.003c-0.65,0.45-1.163,0.862-1.538,1.238c-0.375,0.375-0.563,0.787-0.563,1.237
		c0,0.9,0.525,1.7,1.576,2.4c-0.45,3.251-0.726,7.377-0.825,12.377c-0.101,4.15-0.201,8.326-0.3,12.527
		c0.649,1.35,1.8,2.025,3.451,2.025c0.7,0,1.35-0.176,1.95-0.525c2.4-1.4,4.801-2.801,7.201-4.2c2.95-1.801,5.176-3.627,6.676-5.477
		c1.95-2.4,2.925-5.025,2.925-7.876c0-3.7-2.076-6.901-6.226-9.602c-0.8-0.35-1.638-0.713-2.513-1.088
		c-0.875-0.375-1.388-0.938-1.538-1.688c2.55-1.75,5.101-3.525,7.651-5.326c2.65-2.2,4.301-4.65,4.951-7.352
		c0.3-1.3,0.124-2.899-0.525-4.801C270.546,287.297,267.371,284.571,261.97,281.771z M261.445,314.851
		c0.949,1.151,1.425,2.476,1.425,3.976c0,0.501-0.05,1.026-0.15,1.575c-0.401,1.801-1.05,3.226-1.95,4.276
		c-0.5,0.6-1.388,1.288-2.663,2.063c-1.275,0.774-2.213,1.512-2.813,2.213c-0.401-1.301-0.6-2.75-0.6-4.351
		c0-1.1,0.137-2.738,0.413-4.913c0.274-2.176,0.413-3.788,0.413-4.839c0-0.6-0.026-1.149-0.075-1.65
		c0.35-0.149,0.725-0.225,1.125-0.225C257.269,312.976,258.895,313.602,261.445,314.851z M263.545,296.098
		c-1.151,1.65-2.476,2.826-3.976,3.525c-0.101,0.051-0.5,0.338-1.2,0.863c-0.701,0.524-1.226,0.787-1.575,0.787
		c0.049-1.6,0-3.825-0.15-6.676c-0.201-3.101-0.3-5.301-0.3-6.602c0-0.949,0.024-1.85,0.075-2.7c0.25-0.1,0.475-0.15,0.675-0.15
		c0.4,0,0.9,0.201,1.5,0.601c0.85,0.5,1.474,0.825,1.875,0.975c2.75,1.001,4.25,2.427,4.501,4.276
		C265.17,292.748,264.695,294.447,263.545,296.098z"/>
	<path d="M283.348,289.121c-0.05-0.1-0.05-0.449,0-1.05c0-0.499-0.075-0.75-0.225-0.75c-0.101,0-0.251,0.075-0.45,0.225
		c-0.95-0.55-1.901-0.825-2.85-0.825c-1.2,0-2.051,0.477-2.551,1.426c0.1,1.25,0.15,2.525,0.15,3.825
		c0,3.352-0.413,8.401-1.238,15.153c-0.825,6.751-1.238,11.827-1.238,15.228c0,1.95,0.1,3.801,0.3,5.551
		c0.199,1.75,1.375,2.675,3.526,2.775c1.5,0.049,2.475-0.626,2.925-2.025c-0.05-1.251-0.075-2.524-0.075-3.826
		c0-3.499,0.349-8.676,1.05-15.527c0.7-6.851,1.05-11.977,1.05-15.378c0-1.549-0.05-3.049-0.15-4.5
		C283.472,289.372,283.397,289.271,283.348,289.121z"/>
	<path d="M304.726,316.876c-3.15-1.85-6.276-3.7-9.376-5.551c1.35-2.101,4.426-5.626,9.227-10.577
		c4.1-4.25,6.851-7.925,8.251-11.026c-0.101-1.351-1.125-2.025-3.076-2.025c-0.701,0-1.35,0.125-1.95,0.375
		c-2.201,2.601-4.426,5.176-6.676,7.727c-2.651,3.051-5.001,5.502-7.051,7.351c0.1-4-0.225-9.4-0.975-16.202
		c-0.05-0.601-0.425-1.037-1.125-1.313c-0.701-0.274-1.376-0.513-2.025-0.713c-0.651,0.101-1.275,0.2-1.875,0.3
		c-0.8,0.2-1.151,0.601-1.05,1.2c0.7,3.9,1.05,8.502,1.05,13.803c0,1.751-0.05,4.363-0.15,7.839c-0.101,3.476-0.15,6.089-0.15,7.839
		c0,4.851,0.3,9.076,0.9,12.677c0.199,1.3,0.949,2.176,2.25,2.625c0.15,0.35,0.525,0.525,1.125,0.525c0.55,0,0.975-0.101,1.275-0.3
		c1.05-0.45,1.575-1.275,1.575-2.476c0-0.351-0.05-0.926-0.15-1.726c-0.101-0.799-0.15-1.399-0.15-1.8
		c-0.101-3.451-0.225-6.101-0.375-7.951c7.051,4.2,12.252,7.351,15.603,9.451c0.3,0.2,0.574,0.3,0.825,0.3
		c0.25,0,0.612-0.124,1.088-0.375c0.475-0.249,0.863-0.375,1.163-0.375c0.15,0,0.325,0.026,0.525,0.075c0.399-1.2,0.6-1.95,0.6-2.25
		c0-0.45-0.15-0.8-0.45-1.051C311.177,321.202,308.226,319.077,304.726,316.876z"/>
	<path d="M378.613,283.796c1.249-0.301,2.101-1.351,2.551-3.15c0-0.9-0.676-1.351-2.025-1.351c0.149-0.75-0.226-1.125-1.125-1.125
		c-1.2-0.15-2.701,0-4.501,0.45c-2.451,0.65-3.976,1.001-4.576,1.05c-2.051,0.551-4.2,0.825-6.451,0.825
		c-2.25,0-4.251-0.3-6.001-0.9c-2.15,1.16-5.4,1.967-9.751,2.421c-4.951,0.454-8.226,0.958-9.827,1.513
		c-0.35,0.403-0.525,0.782-0.525,1.135c0,0.02,0.047,0.136,0.137,0.345c-0.216,0.012-0.417,0.029-0.586,0.063
		c-2.451,0.6-4.876,1.226-7.276,1.875c-2.802,0.75-5.151,1.601-7.051,2.55c-1.601,0.651-3.201,1.302-4.801,1.951
		c-1.701,0.851-2.576,2-2.625,3.45c-0.05,1.551,1.325,2.601,4.126,3.15c-0.3,4.351-0.5,6.727-0.6,7.126
		c-0.101,0.401-0.514,0.788-1.238,1.163c-0.726,0.375-1.114,0.788-1.163,1.237c-0.15,0.9,0.475,1.826,1.875,2.775
		c-0.45,3.451-0.45,7.352,0,11.702c0.15,1.501,0.799,2.851,1.95,4.051c1.15,1.2,2.425,1.976,3.826,2.325
		c4.45,1.15,9.701,1.625,15.753,1.426c0.799-0.051,1.412-0.413,1.838-1.088c0.424-0.675,0.563-1.412,0.412-2.213
		c-0.45-2.4-1.376-3.45-2.775-3.15c-0.3,0-0.675,0.188-1.125,0.563s-0.876,0.563-1.275,0.563c-5.802,0.251-9.877-0.45-12.228-2.101
		c-0.4-0.85-0.6-1.999-0.6-3.45c0-2.149,0.475-5.075,1.425-8.776c1.399-0.55,3.275-0.85,5.626-0.9
		c2.801-0.049,4.727-0.199,5.776-0.45c0.6,0.051,1.1-0.149,1.5-0.6c0.601-0.649,0.949-1,1.051-1.051
		c0.349-0.199,0.524-0.475,0.524-0.825c0-0.3-0.351-0.949-1.05-1.95c-1.001-0.6-2.201-0.899-3.601-0.899
		c-0.75,0-1.926,0.125-3.525,0.375c-1.602,0.25-2.775,0.375-3.526,0.375c-1.05,0-1.976-0.15-2.775-0.45
		c0.199-4.501,0.525-7.4,0.976-8.702c1.85-0.75,4.576-1.624,8.177-2.625c3.601-1,6.325-1.875,8.176-2.625
		c0.35-0.25,0.525-0.575,0.525-0.976c0-0.071-0.026-0.182-0.043-0.276c0.355,0.031,0.717,0.052,1.093,0.052
		c1.051,0,2.95-0.199,5.701-0.601c2.4-0.35,4.275-0.475,5.626-0.375c0.049,3.601-0.15,8.827-0.601,15.678
		c-0.449,7.152-0.675,12.377-0.675,15.678c0,2.051,0.05,4.001,0.15,5.851c0.1,1.451,0.624,2.763,1.575,3.938
		c0.949,1.174,2.149,1.787,3.601,1.838c0.75,0.049,1.249-0.326,1.5-1.125c0.15-0.501,0.199-1.227,0.15-2.176
		c-0.101-3.05-0.15-6.151-0.15-9.302c0-8.301,0.499-18.678,1.5-31.13C369.712,285.646,375.362,284.596,378.613,283.796z"/>
	<path d="M390.39,294.598c-0.25-2.05-0.524-4.101-0.825-6.151c-0.4-2.4-1.301-4.2-2.7-5.4c-0.551-0.45-1.176-0.676-1.875-0.676
		c-0.95,0-1.575,0.351-1.875,1.051c-1.302,3.15-2.776,7.677-4.426,13.577c-1.951,6.802-3.376,11.452-4.276,13.952
		c-0.101,0.351-0.563,0.613-1.388,0.788c-0.825,0.176-1.35,0.4-1.575,0.675c-0.225,0.275-0.337,0.538-0.337,0.787
		c0,0.301,0.349,0.726,1.05,1.275c0.699,0.551,1.024,1.051,0.975,1.5c-0.149,1.551-0.975,4.152-2.475,7.802
		c-1.251,3.201-1.801,5.75-1.65,7.651c0.1,0.949,0.975,1.699,2.625,2.25c1.3,0.4,2.149,0.15,2.551-0.75
		c0.799-1.901,1.624-4.677,2.476-8.326c0.899-3.95,1.624-6.701,2.175-8.251c1.1-0.95,2.626-1.55,4.576-1.801
		c1.699-0.15,3.4-0.3,5.101-0.45c0.949,2.551,1.774,5.727,2.476,9.526c0.649,3.501,2.2,5.477,4.65,5.927
		c0.301,0.049,0.875-0.301,1.726-1.051c0.85-0.75,1.275-1.624,1.275-2.625c0-0.601-0.15-1.3-0.45-2.101
		C395.491,316.126,392.89,306.4,390.39,294.598z M380.938,309.675c1.1-4.15,2.4-8.301,3.9-12.452
		c0.45,2.001,0.925,4.002,1.426,6.001c0.499,2.301,0.825,4.377,0.975,6.227C383.838,309.45,381.738,309.525,380.938,309.675z"/>
	<path d="M425.646,303.449c-1.2,0.101-1.601,0.149-1.2,0.149c-1.301,0-2.201,0.701-2.7,2.101c-0.65,1.901-1.227,3.051-1.726,3.45
		c-6.651,5.552-11.627,8.978-14.928,10.277c-0.351,0.149-0.626,0.013-0.825-0.413c-0.2-0.424-0.35-0.662-0.449-0.712
		c-0.051-0.649-0.075-1.3-0.075-1.95c0-3.602,1.074-7.677,3.226-12.228c3.499-7.352,7.351-13.353,11.552-18.003
		c0.1-0.1,1.024-0.625,2.775-1.575c1.05-0.55,1.475-1.45,1.275-2.7c-0.251-1.501-1.376-2.251-3.376-2.251
		c-2.25,0-4.826,1.926-7.727,5.776c-5.802,7.752-10.026,15.678-12.677,23.778c-0.85,2.551-1.275,4.776-1.275,6.677
		c0,2.15,0.551,3.951,1.65,5.4c1.95,2.602,4.075,3.901,6.376,3.901c0.601,0,1.2-0.1,1.801-0.301c4.351-1.6,8.251-4.024,11.702-7.275
		c-0.301,2.9-0.552,5.076-0.751,6.525c0,0.65-0.101,1.688-0.3,3.113c-0.2,1.425-0.3,2.487-0.3,3.188
		c0,2.449,1.074,4.125,3.226,5.025c0.399,0.15,0.825,0.225,1.275,0.225c1.549,0,2.374-0.625,2.476-1.875
		c0.199-4.251,0.424-8.501,0.675-12.752c0.399-4.9,1.275-9.026,2.625-12.377c0.199-0.5,0.301-0.976,0.301-1.426
		c0-0.899-0.477-2.05-1.426-3.45C426.646,303.449,426.246,303.35,425.646,303.449z"/>
</g>
</svg>
