<?xml version="1.0" encoding="UTF-8" standalone="no"?>
<svg
   xmlns:dc="http://purl.org/dc/elements/1.1/"
   xmlns:cc="http://creativecommons.org/ns#"
   xmlns:rdf="http://www.w3.org/1999/02/22-rdf-syntax-ns#"
   xmlns:svg="http://www.w3.org/2000/svg"
   xmlns="http://www.w3.org/2000/svg"
   xmlns:sodipodi="http://sodipodi.sourceforge.net/DTD/sodipodi-0.dtd"
   xmlns:inkscape="http://www.inkscape.org/namespaces/inkscape"
   inkscape:version="1.0 (4035a4f, 2020-05-01)"
   sodipodi:docname="PortlandIcon.svg"
   xml:space="preserve"
   enable-background="new 0 0 646 449"
   viewBox="0 0 437.255 283.22482"
   height="283.22482"
   width="437.255"
   y="0px"
   x="0px"
   id="Layer_1"
   version="1.1"><metadata
   id="metadata45"><rdf:RDF><cc:Work
       rdf:about=""><dc:format>image/svg+xml</dc:format><dc:type
         rdf:resource="http://purl.org/dc/dcmitype/StillImage" /></cc:Work></rdf:RDF></metadata><defs
   id="defs43" /><sodipodi:namedview
   inkscape:current-layer="Layer_1"
   inkscape:window-maximized="1"
   inkscape:window-y="23"
   inkscape:window-x="0"
   inkscape:cy="142.54623"
   inkscape:cx="219.43309"
   inkscape:zoom="1.630031"
   showgrid="false"
   id="namedview41"
   inkscape:window-height="933"
   inkscape:window-width="1680"
   inkscape:pageshadow="2"
   inkscape:pageopacity="0"
   guidetolerance="10"
   gridtolerance="10"
   objecttolerance="10"
   borderopacity="1"
   bordercolor="#666666"
   pagecolor="#ffffff" />
<g
   transform="translate(-103.56691,-81.953773)"
   id="g14">
	<path
   id="path10"
   d="m 540.607,278.033 c -0.175,-16.508 -0.812,-33.01 -1.442,-49.506 -0.604,-15.743 -0.074,-31.475 0.221,-47.218 0.284,-15.144 0.016,-30.21 -1.611,-45.277 -1.019,-9.421 -2.869,-19.451 -8.262,-27.447 -2.537,-3.762 -5.847,-6.271 -9.603,-7.939 -5.593,-3.61 -13.037,-5.111 -19.145,-6.127 -21.424,-3.567 -43.433,-0.63 -65.008,-2.46 -31.962,-2.712 -64.046,-3.525 -96.004,-6.26 -29.435,-2.519 -58.977,-4.025 -88.524,-3.828 -14.448,0.097 -28.892,0.702 -43.293,1.871 -11.939,0.97 -24.062,1.946 -35.457,5.86 -3.611,1.24 -6.875,2.847 -9.852,4.74 -5.789,1.107 -11.247,3.142 -15.907,6.816 -14.188,11.187 -11.68,32.167 -11.801,49.617 -1.071,5.57 -2.1,11.146 -3.255,16.671 -0.95,4.543 -2.335,8.507 -4.238,12.296 -2.706,4.252 -6.043,8.166 -9.815,11.896 -6.511,6.439 -9.625,13.737 -11.188,22.462 -0.314,0.828 -0.612,1.67 -0.875,2.543 -3.82,12.708 -1.345,27.423 0.991,40.169 1.959,10.688 7.187,20.169 13.779,28.667 6.423,8.278 13.894,15.657 19.885,24.286 0.183,0.263 0.352,0.532 0.529,0.799 2.297,8.705 2.213,17.712 3.409,26.898 1.216,9.346 6.129,18.924 16.146,20.964 4.954,1.009 9.942,0.694 14.95,0.325 7.849,-0.578 15.658,-0.197 23.517,0.04 32.945,1.002 65.889,2.078 98.813,3.642 32.2,1.527 64.013,3.559 96.27,2.197 31.985,-1.351 63.923,-4.101 95.963,-3.443 14.985,0.307 31.572,0.452 41.522,-12.721 5.229,-6.923 7.127,-15.938 8.163,-24.358 1.869,-15.18 1.284,-30.913 1.122,-46.175 z M 180.53,88.756 c 14.229,-3.476 29.702,-3.838 44.268,-4.567 15.105,-0.755 30.241,-0.844 45.36,-0.581 29.968,0.521 59.672,3.608 89.555,5.399 16.35,0.979 32.709,1.744 49.057,2.735 14.014,0.85 28.089,2.805 42.125,2.841 18.22,0.047 38.697,-2.379 56.537,3.18 -6.52,-0.544 -13.319,-0.097 -19.331,-0.004 C 422.844,97.721 357.61,95.862 292.372,94.571 259.444,93.92 226.513,93.448 193.579,93.42 c -8.387,-0.007 -17.861,-0.688 -26.821,0.383 4.315,-2.256 8.999,-3.881 13.772,-5.047 z m 143.797,8.657 c -24.731,0.889 -49.436,2.301 -74.146,-0.113 -5.139,-0.502 -10.331,-1.004 -15.549,-1.425 13.275,0.137 26.549,0.31 39.824,0.542 16.624,0.291 33.248,0.637 49.871,0.996 z M 160.995,97.389 c 6.826,-1.646 14.432,-1.847 21.593,-1.834 4.146,0.007 8.291,0.029 12.437,0.044 -7.431,0.753 -14.783,2.102 -21.981,4.301 -9.688,2.96 -18.421,8.229 -24.862,16.109 -1.044,1.277 -1.978,2.598 -2.817,3.957 2.118,-5.742 4.921,-11.205 8.776,-16.019 2.021,-2.523 4.334,-4.69 6.854,-6.558 z m -20.88,19.454 c 2.607,-10.256 9.086,-15.59 17.108,-18.356 -8.228,7.189 -13.58,17.117 -16.833,28.38 -0.8,2.768 -1.508,5.564 -2.176,8.372 0.041,-6.183 0.361,-12.339 1.901,-18.396 z m -11.003,65.553 c -1.362,2.341 -2.938,4.627 -4.798,6.855 -0.252,0.303 -0.507,0.599 -0.761,0.898 1.999,-2.507 3.915,-5.066 5.559,-7.753 z m 1.076,110.618 c -7.239,-8.293 -13.99,-16.781 -18.011,-27.148 -2.063,-5.319 -3.501,-11.223 -4.395,-17.266 0.184,0.662 0.377,1.324 0.582,1.983 2.805,9.034 7.782,17.218 12.937,25.072 5.427,8.271 11.013,16.392 15.567,25.185 -2.18,-2.654 -4.432,-5.25 -6.68,-7.826 z m 231.007,70.277 c -16.928,-0.037 -33.799,-1.439 -50.694,-2.318 -16.554,-0.86 -33.116,-1.565 -49.681,-2.198 -30.216,-1.152 -60.624,-3.106 -90.825,-1.759 -6.813,0.305 -13.049,-0.95 -17.638,-6.354 -3.956,-4.656 -4.995,-10.773 -5.652,-16.648 -0.604,-5.401 -0.914,-10.563 -1.584,-15.618 3.502,6.983 6.474,14.229 11.948,20.03 12.204,12.933 32.39,9.71 48.348,10.197 15.56,0.475 31.11,2.637 46.634,3.771 16.408,1.199 32.717,1.197 49.15,1.423 32.623,0.445 65.115,3.897 97.672,5.713 10.829,0.604 21.671,0.985 32.514,1.043 -23.385,1.243 -46.757,2.77 -70.192,2.718 z m 161.954,-9.897 c -6.612,4.895 -15.433,5.765 -23.387,5.926 -7.025,0.143 -14.051,0.047 -21.078,-0.027 14.816,-0.003 32.584,0.802 45.865,-7.018 -0.45,0.385 -0.915,0.76 -1.4,1.119 z m 1.314,-2.904 c -7.618,5.718 -18.818,6.424 -27.962,6.944 -9.024,0.517 -18.069,0.214 -27.102,0.404 -13.373,0.285 -26.664,1.334 -40.065,1.2 -32.624,-0.325 -65.122,-3.754 -97.671,-5.63 -16.305,-0.94 -32.554,-0.994 -48.874,-1.144 -17.022,-0.153 -34.006,-1.688 -50.95,-3.192 -12.522,-1.111 -24.906,-2.107 -37.479,-2.108 -9.019,-10e-4 -18.346,0.069 -26.679,-3.845 -10.278,-4.828 -14.613,-15.302 -19.223,-24.91 -1.455,-3.031 -3.176,-5.897 -5.043,-8.668 -0.772,-2.885 -1.79,-5.763 -3.199,-8.655 -8.947,-18.369 -23.873,-33.501 -29.655,-53.412 -3.131,-10.783 -3.138,-22.499 -1.206,-33.565 2.751,-7.287 7.518,-13.467 13.077,-19.549 8.192,-8.962 13.809,-17.612 16.154,-29.717 2.443,-12.608 1.583,-25.612 6.056,-37.828 4.735,-12.935 16.037,-21.441 28.753,-25.6 26.5,-8.667 55.738,-4.051 82.783,-1.716 30.505,2.634 61.289,-1.051 91.841,-1.113 0.351,0 0.832,-0.188 1.23,-0.43 40.573,0.886 81.146,1.73 121.73,1.938 4.949,0.025 9.9,0.032 14.852,0.037 0.093,0.012 0.19,0.021 0.298,0.021 0.552,-0.001 1.11,-0.007 1.673,-0.016 0.369,0 0.738,0.003 1.107,0.003 0.113,0 0.22,-0.011 0.322,-0.03 9.803,-0.223 20.903,-1.086 29.505,3.167 14.473,11.269 9.601,37.62 7.843,53.33 -1.191,10.649 -1.919,20.923 -1.39,31.65 0.763,15.467 3.049,30.822 4.439,46.236 1.336,14.79 0.479,29.526 1.258,44.319 0.744,14.128 2.478,28.188 2.46,42.353 -0.008,10.196 0.045,22.825 -8.883,29.526 z m 11.445,-21.655 c 0.011,-0.132 0.021,-0.266 0.033,-0.398 1.086,-13.468 -0.427,-27.093 -1.467,-40.514 -1.114,-14.407 -0.453,-28.743 -1.144,-43.151 -0.743,-15.524 -3.021,-30.937 -4.436,-46.404 -1.149,-12.546 -1.351,-24.832 0.013,-37.347 1.136,-10.438 2.463,-20.868 2.404,-31.387 -0.028,-5.159 -0.449,-10.621 -1.986,-15.651 4.318,8.513 5.193,19.004 6.119,28.194 1.633,16.207 1.166,32.581 0.802,48.837 -0.728,32.409 1.432,64.721 1.479,97.127 0.023,13.453 0.399,27.355 -1.817,40.694 z" />
	<path
   id="path12"
   d="m 140.598,210.159 c -1.79,-4.047 -6.104,-6.389 -10.126,-4.859 -4.098,1.557 -5.279,8.261 -5.954,12.175 -1.633,9.552 -1.82,22.332 5.703,29.103 4.784,4.302 8.052,1.693 10.25,-2.917 0.905,0.765 1.789,0.646 1.83,-1.56 0.026,-1.328 0.089,-2.682 0.17,-4.049 1.163,-4.277 1.763,-8.688 2.011,-10.828 0.148,-1.265 -0.518,-2.854 -1.336,-3.789 -0.093,-4.609 -0.708,-9.122 -2.548,-13.276 z m -1.951,25.611 c -1.413,4.189 -3.831,7.131 -8.161,4.432 -5.218,-3.252 -2.902,-16.047 -1.878,-21.148 0.739,-3.691 2.271,-7.751 6.384,-7.314 4.487,0.474 4.116,6.708 4.216,10.274 0.133,4.602 -0.308,9.174 -0.561,13.756 z" />
</g>
<g
   transform="translate(-103.56691,-81.953773)"
   id="g22">
	<path
   id="path16"
   d="m 299.305,164.734 c -3.44,7.421 -6.381,12.353 -8.824,14.797 -3.801,3.801 -5.884,5.884 -6.245,6.245 -2.626,2.083 -5.25,3.349 -7.874,3.801 -0.363,1.812 -0.543,3.937 -0.543,6.38 0,1.721 0.136,4.323 0.407,7.806 0.271,3.485 0.407,6.041 0.407,7.67 0,6.153 -1.449,10.769 -4.344,13.846 l -3.801,-2.035 c -1.54,-0.814 -2.399,-1.812 -2.58,-2.987 -0.905,-5.884 -1.357,-12.442 -1.357,-19.684 0,-4.796 0.271,-11.946 0.814,-21.449 0.543,-9.503 0.814,-16.698 0.814,-21.585 0,-7.059 -0.407,-13.528 -1.222,-19.413 -0.725,0.271 -1.404,-0.18 -2.036,-1.357 -0.634,-1.175 -1.177,-1.854 -1.629,-2.036 0.452,-2.896 1.222,-4.344 2.308,-4.344 1.357,-0.452 4.162,-0.36 8.417,0.271 11.764,1.9 20.634,7.059 26.608,15.476 1.9,2.715 2.851,5.792 2.851,9.231 10e-4,2.987 -0.725,6.109 -2.171,9.367 z m -8.825,-10.453 c 0.452,-3.619 -1.086,-6.47 -4.615,-8.552 -0.183,0 -3.44,-1.311 -9.774,-3.937 0.995,16.653 1.311,28.328 0.95,35.024 8.054,-7.603 12.533,-15.113 13.439,-22.535 z" />
	<path
   id="path18"
   d="m 347.359,181.703 c -0.904,2.083 -1.765,4.164 -2.578,6.245 -1.086,2.444 -2.264,4.391 -3.529,5.837 -2.807,3.53 -5.611,7.015 -8.417,10.453 -3.349,4.164 -6.38,7.059 -9.095,8.688 -0.906,1.086 -1.901,2.217 -2.987,3.394 -1.086,1.175 -2.172,1.765 -3.258,1.765 -0.543,0 -1.177,-0.136 -1.9,-0.407 -0.726,-0.271 -1.517,-0.59 -2.376,-0.95 -0.861,-0.363 -1.472,-0.95 -1.832,-1.765 -0.271,-3.801 -0.407,-7.874 -0.407,-12.218 0,-4.434 0.18,-11.041 0.543,-19.82 0.36,-8.777 0.543,-15.384 0.543,-19.82 0,-5.882 -0.228,-11.268 -0.679,-16.154 -0.092,-0.089 -1.087,-1.131 -2.987,-3.123 -1.177,-1.175 -1.765,-2.261 -1.765,-3.258 0,-0.452 0.089,-0.904 0.271,-1.358 0.452,-1.086 1.447,-1.718 2.986,-1.9 1.176,-0.18 2.353,-0.316 3.53,-0.407 7.602,1.629 15.564,5.884 23.893,12.761 2.172,1.812 3.938,3.712 5.295,5.702 4.344,6.427 6.517,12.445 6.517,18.055 -0.001,2.896 -0.591,5.656 -1.768,8.28 z m -9.772,-14.526 c -0.813,-5.702 -5.657,-10.725 -14.525,-15.068 -0.635,15.115 -0.815,31.134 -0.544,48.056 10.227,-10.226 15.341,-19.956 15.341,-29.187 -0.002,-1.266 -0.091,-2.532 -0.272,-3.801 z" />
	<path
   id="path20"
   d="m 401.797,133.782 c -6.97,10.588 -12.808,20.816 -17.512,30.68 1.086,2.626 3.98,7.92 8.688,15.883 3.892,6.516 6.381,11.993 7.468,16.426 -0.727,0.091 -1.493,0.702 -2.309,1.833 -0.813,1.133 -1.629,1.652 -2.442,1.561 -3.351,-0.271 -6.064,-1.809 -8.146,-4.616 -1.086,-1.446 -2.579,-4.479 -4.48,-9.095 -1.811,-4.073 -3.528,-6.923 -5.157,-8.552 -3.169,4.615 -6.539,11.946 -10.113,21.992 -3.576,10.046 -6.854,17.285 -9.843,21.721 -4.887,0.452 -7.69,-0.318 -8.416,-2.308 -0.271,-0.814 -0.407,-1.629 -0.407,-2.443 0,-1.449 0.543,-3.349 1.629,-5.702 1.538,-3.347 2.396,-5.248 2.579,-5.702 5.066,-14.842 11.355,-28.733 18.87,-41.676 -2.716,-6.062 -7.468,-12.578 -14.255,-19.548 -0.453,-0.452 -0.68,-0.903 -0.68,-1.357 0,-1.718 1.358,-3.076 4.073,-4.073 0.994,-0.36 1.989,-0.543 2.986,-0.543 2.624,0 5.203,1.72 7.737,5.159 3.619,4.979 5.565,7.602 5.838,7.874 0.451,-0.632 2.669,-4.569 6.652,-11.811 2.715,-4.887 5.293,-8.688 7.736,-11.403 1.811,-0.543 4.073,-0.632 6.788,-0.271 2.081,0.906 3.122,2.354 3.122,4.344 0.001,0.632 -0.135,1.175 -0.406,1.627 z" />
</g>
<g
   transform="translate(-103.56691,-81.953773)"
   id="g38">
	<path
   id="path24"
   d="m 249.453,267.95 c -0.863,3.581 -3.051,6.831 -6.565,9.749 -3.382,2.388 -6.765,4.742 -10.147,7.063 0.199,0.995 0.878,1.741 2.04,2.238 1.16,0.497 2.271,0.979 3.333,1.441 5.504,3.582 8.256,7.826 8.256,12.733 0,3.78 -1.293,7.262 -3.879,10.444 -1.99,2.453 -4.941,4.875 -8.854,7.263 -3.183,1.855 -6.367,3.713 -9.55,5.57 -0.796,0.463 -1.658,0.696 -2.586,0.696 -2.188,0 -3.715,-0.896 -4.576,-2.687 0.132,-5.571 0.264,-11.109 0.398,-16.612 0.132,-6.632 0.497,-12.103 1.094,-16.414 -1.393,-0.928 -2.089,-1.988 -2.089,-3.184 0,-0.597 0.249,-1.145 0.746,-1.643 0.498,-0.496 1.177,-1.043 2.04,-1.641 0.796,-10.08 0.96,-19.363 0.497,-27.854 -3.118,-0.598 -5.172,-1.99 -6.167,-4.18 -0.067,-0.264 0.05,-0.662 0.348,-1.192 0.299,-0.53 0.448,-0.961 0.448,-1.293 1.525,-1.127 3.216,-1.691 5.073,-1.691 1.326,0 4.377,0.433 9.152,1.294 2.453,0.397 5.006,1.293 7.66,2.687 7.163,3.715 11.373,7.327 12.634,10.843 0.859,2.525 1.092,4.647 0.694,6.37 z m -12.335,34.023 c 0.132,-0.729 0.199,-1.427 0.199,-2.09 0,-1.99 -0.631,-3.746 -1.89,-5.271 -3.382,-1.657 -5.538,-2.487 -6.466,-2.487 -0.532,0 -1.029,0.101 -1.492,0.299 0.065,0.663 0.1,1.394 0.1,2.188 0,1.393 -0.184,3.531 -0.547,6.416 -0.365,2.885 -0.547,5.058 -0.547,6.516 0,2.123 0.264,4.044 0.795,5.77 0.796,-0.93 2.04,-1.906 3.73,-2.935 1.691,-1.027 2.868,-1.938 3.532,-2.735 1.193,-1.395 2.054,-3.287 2.586,-5.671 z m 2.984,-38.996 c -0.333,-2.453 -2.322,-4.343 -5.968,-5.67 -0.532,-0.199 -1.36,-0.63 -2.487,-1.293 -0.795,-0.529 -1.459,-0.796 -1.989,-0.796 -0.266,0 -0.564,0.066 -0.896,0.198 -0.067,1.129 -0.099,2.322 -0.099,3.581 0,1.726 0.132,4.644 0.398,8.754 0.199,3.78 0.264,6.731 0.199,8.854 0.463,0 1.16,-0.349 2.089,-1.045 0.928,-0.695 1.458,-1.076 1.592,-1.145 1.989,-0.928 3.746,-2.486 5.272,-4.675 1.524,-2.187 2.153,-4.441 1.889,-6.763 z" />
	<path
   id="path26"
   d="m 264.771,260.889 c 0.132,1.924 0.199,3.913 0.199,5.969 0,4.511 -0.465,11.308 -1.393,20.393 -0.93,9.086 -1.393,15.95 -1.393,20.592 0,1.726 0.033,3.414 0.1,5.073 -0.597,1.854 -1.89,2.751 -3.879,2.686 -2.852,-0.134 -4.411,-1.359 -4.675,-3.681 -0.266,-2.32 -0.398,-4.773 -0.398,-7.361 0,-4.509 0.547,-11.24 1.641,-20.192 1.094,-8.953 1.642,-15.65 1.642,-20.095 0,-1.725 -0.067,-3.416 -0.199,-5.073 0.662,-1.259 1.791,-1.89 3.382,-1.89 1.259,0 2.52,0.364 3.78,1.094 0.264,-0.198 0.463,-0.299 0.597,-0.299 0.199,0 0.298,0.332 0.298,0.994 -0.067,0.797 -0.067,1.262 0,1.394 0.065,0.195 0.165,0.329 0.298,0.396 z" />
	<path
   id="path28"
   d="m 304.562,305.751 c 0.397,0.333 0.597,0.796 0.597,1.394 0,0.397 -0.266,1.394 -0.796,2.983 -0.266,-0.063 -0.497,-0.099 -0.696,-0.099 -0.398,0 -0.912,0.166 -1.542,0.497 -0.631,0.333 -1.111,0.497 -1.442,0.497 -0.332,0 -0.696,-0.133 -1.094,-0.397 -4.444,-2.785 -11.341,-6.964 -20.691,-12.534 0.199,2.454 0.364,5.969 0.498,10.545 0,0.531 0.065,1.327 0.199,2.388 0.132,1.061 0.199,1.822 0.199,2.288 0,1.592 -0.697,2.686 -2.089,3.282 -0.398,0.265 -0.962,0.397 -1.691,0.397 -0.796,0 -1.293,-0.233 -1.492,-0.696 -1.725,-0.597 -2.72,-1.758 -2.984,-3.48 -0.796,-4.775 -1.194,-10.378 -1.194,-16.813 0,-2.319 0.065,-5.785 0.199,-10.396 0.132,-4.608 0.199,-8.073 0.199,-10.396 0,-7.027 -0.464,-13.131 -1.393,-18.304 -0.134,-0.796 0.331,-1.325 1.393,-1.593 0.796,-0.131 1.625,-0.264 2.487,-0.396 0.861,0.266 1.757,0.581 2.686,0.945 0.928,0.365 1.425,0.943 1.492,1.74 0.995,9.021 1.425,16.183 1.293,21.486 2.718,-2.453 5.834,-5.703 9.351,-9.749 2.985,-3.382 5.934,-6.797 8.854,-10.245 0.795,-0.332 1.656,-0.498 2.586,-0.498 2.586,0 3.945,0.896 4.078,2.687 -1.857,4.112 -5.506,8.987 -10.942,14.623 -6.366,6.565 -10.445,11.241 -12.235,14.026 4.111,2.453 8.256,4.907 12.435,7.36 4.638,2.922 8.551,5.74 11.735,8.458 z" />
	<path
   id="path30"
   d="m 341.865,261.484 c -2.455,0.994 -6.068,2.156 -10.844,3.48 -4.774,1.328 -8.391,2.487 -10.843,3.482 -0.598,1.725 -1.029,5.57 -1.293,11.539 1.06,0.396 2.287,0.597 3.68,0.597 0.995,0 2.553,-0.165 4.676,-0.497 2.121,-0.331 3.681,-0.498 4.676,-0.498 1.855,0 3.447,0.398 4.773,1.194 0.93,1.327 1.395,2.188 1.395,2.586 0,0.465 -0.234,0.829 -0.697,1.095 -0.133,0.066 -0.598,0.531 -1.393,1.393 -0.531,0.598 -1.193,0.862 -1.99,0.797 -1.393,0.332 -3.945,0.531 -7.658,0.597 -3.119,0.065 -5.604,0.465 -7.461,1.192 -1.262,4.91 -1.891,8.789 -1.891,11.64 0,1.925 0.264,3.448 0.796,4.575 3.116,2.188 8.521,3.119 16.214,2.786 0.531,0 1.096,-0.248 1.691,-0.746 0.598,-0.497 1.094,-0.746 1.492,-0.746 1.854,-0.397 3.084,0.995 3.682,4.178 0.197,1.063 0.016,2.04 -0.549,2.935 -0.563,0.896 -1.377,1.377 -2.437,1.443 -8.024,0.264 -14.988,-0.366 -20.891,-1.891 -1.857,-0.465 -3.549,-1.492 -5.073,-3.084 -1.526,-1.593 -2.388,-3.382 -2.587,-5.371 -0.597,-5.77 -0.597,-10.942 0,-15.52 -1.857,-1.259 -2.686,-2.486 -2.486,-3.681 0.064,-0.597 0.58,-1.146 1.541,-1.642 0.961,-0.498 1.508,-1.01 1.643,-1.543 0.131,-0.528 0.397,-3.681 0.795,-9.449 -3.715,-0.729 -5.537,-2.121 -5.471,-4.178 0.064,-1.924 1.227,-3.447 3.481,-4.576 2.122,-0.861 4.243,-1.725 6.366,-2.586 2.453,-1.26 5.537,-2.389 9.252,-3.383 3.248,-0.86 6.498,-1.69 9.748,-2.486 0.332,-0.065 0.729,-0.1 1.192,-0.1 1.791,0 3.881,0.695 6.269,2.088 0.065,0.267 0.231,0.765 0.498,1.492 0.264,0.73 0.396,1.262 0.396,1.592 0.004,0.535 -0.229,0.964 -0.692,1.296 z" />
	<path
   id="path32"
   d="m 394.189,249.249 c -0.598,2.388 -1.726,3.78 -3.383,4.178 -4.312,1.062 -11.805,2.454 -22.48,4.179 -1.327,16.514 -1.989,30.274 -1.989,41.283 0,4.178 0.065,8.29 0.198,12.334 0.064,1.26 0,2.222 -0.198,2.886 -0.333,1.061 -0.995,1.558 -1.989,1.491 -1.925,-0.065 -3.517,-0.88 -4.774,-2.438 -1.261,-1.56 -1.957,-3.298 -2.089,-5.223 -0.135,-2.453 -0.199,-5.039 -0.199,-7.76 0,-4.377 0.299,-11.306 0.896,-20.789 0.596,-9.086 0.86,-16.018 0.795,-20.791 -1.791,-0.133 -4.276,0.033 -7.461,0.496 -3.647,0.532 -6.168,0.797 -7.561,0.797 -3.248,0 -5.9,-0.869 -7.958,-2.608 -0.796,-1.737 -1.192,-2.642 -1.192,-2.707 0,-0.468 0.232,-0.97 0.695,-1.505 2.123,-0.735 6.466,-1.403 13.031,-2.008 5.77,-0.602 10.08,-1.67 12.932,-3.209 2.321,0.797 4.975,1.193 7.958,1.193 2.984,0 5.835,-0.363 8.556,-1.094 0.797,-0.064 2.817,-0.53 6.067,-1.395 2.388,-0.597 4.378,-0.795 5.97,-0.597 1.193,0 1.69,0.498 1.491,1.492 1.79,0.004 2.684,0.601 2.684,1.795 z" />
	<path
   id="path34"
   d="m 416.771,306.448 c 0.397,1.062 0.597,1.989 0.597,2.785 0,1.326 -0.564,2.485 -1.69,3.48 -1.129,0.995 -1.891,1.458 -2.288,1.394 -3.25,-0.598 -5.307,-3.217 -6.168,-7.858 -0.93,-5.039 -2.022,-9.252 -3.282,-12.634 -2.256,0.199 -4.511,0.398 -6.765,0.597 -2.587,0.333 -4.61,1.129 -6.067,2.388 -0.73,2.058 -1.691,5.705 -2.886,10.942 -1.128,4.84 -2.223,8.521 -3.282,11.042 -0.531,1.193 -1.658,1.524 -3.383,0.995 -2.188,-0.73 -3.35,-1.727 -3.48,-2.984 -0.199,-2.521 0.529,-5.901 2.188,-10.146 1.989,-4.842 3.084,-8.29 3.283,-10.346 0.064,-0.599 -0.366,-1.261 -1.294,-1.99 -0.931,-0.729 -1.394,-1.293 -1.394,-1.69 0,-0.331 0.149,-0.68 0.449,-1.045 0.297,-0.362 0.993,-0.662 2.088,-0.896 1.094,-0.231 1.707,-0.58 1.84,-1.045 1.194,-3.314 3.084,-9.482 5.67,-18.502 2.188,-7.824 4.146,-13.828 5.869,-18.006 0.398,-0.928 1.228,-1.393 2.487,-1.393 0.929,0 1.757,0.298 2.487,0.895 1.854,1.592 3.049,3.979 3.581,7.163 0.396,2.72 0.762,5.438 1.094,8.156 3.315,15.652 6.764,28.551 10.346,38.698 z m -14.524,-19 c -0.199,-2.453 -0.631,-5.206 -1.293,-8.257 -0.664,-2.651 -1.294,-5.305 -1.892,-7.959 -1.988,5.506 -3.715,11.01 -5.172,16.514 1.061,-0.199 3.846,-0.298 8.357,-0.298 z" />
	<path
   id="path36"
   d="m 456.262,286.354 c -1.791,4.443 -2.952,9.916 -3.48,16.414 -0.333,5.638 -0.632,11.273 -0.896,16.91 -0.134,1.657 -1.228,2.487 -3.283,2.487 -0.597,0 -1.16,-0.1 -1.689,-0.299 -2.854,-1.193 -4.277,-3.416 -4.277,-6.664 0,-0.93 0.132,-2.338 0.397,-4.229 0.265,-1.89 0.396,-3.266 0.396,-4.128 0.266,-1.923 0.599,-4.808 0.995,-8.653 -4.576,4.312 -9.749,7.526 -15.519,9.648 -0.796,0.267 -1.591,0.397 -2.388,0.397 -3.052,0 -5.868,-1.725 -8.455,-5.173 -1.459,-1.924 -2.188,-4.311 -2.188,-7.162 0,-2.521 0.563,-5.473 1.691,-8.854 3.515,-10.743 9.116,-21.254 16.812,-31.534 3.846,-5.104 7.262,-7.658 10.246,-7.658 2.651,0 4.145,0.994 4.477,2.983 0.265,1.658 -0.299,2.853 -1.69,3.581 -2.322,1.262 -3.549,1.957 -3.681,2.089 -5.57,6.167 -10.679,14.126 -15.319,23.874 -2.854,6.035 -4.277,11.44 -4.277,16.215 0,0.862 0.032,1.727 0.101,2.586 0.132,0.067 0.33,0.383 0.597,0.945 0.265,0.564 0.63,0.746 1.094,0.547 4.377,-1.724 10.977,-6.267 19.796,-13.628 0.662,-0.53 1.426,-2.055 2.288,-4.575 0.662,-1.855 1.856,-2.785 3.581,-2.785 -0.531,0 0,-0.065 1.592,-0.199 0.796,-0.133 1.326,0 1.592,0.398 1.26,1.856 1.891,3.381 1.891,4.575 -0.007,0.599 -0.14,1.229 -0.404,1.892 z" />
</g>
</svg>
