<?xml version="1.0" encoding="utf-8"?>
<!-- Generator: Adobe Illustrator 16.0.0, SVG Export Plug-In . SVG Version: 6.00 Build 0)  -->
<!DOCTYPE svg PUBLIC "-//W3C//DTD SVG 1.1//EN" "http://www.w3.org/Graphics/SVG/1.1/DTD/svg11.dtd">
<svg version="1.1" id="Layer_1" xmlns="http://www.w3.org/2000/svg" xmlns:xlink="http://www.w3.org/1999/xlink" x="0px" y="0px"
	 width="646px" height="449px" viewBox="0 0 646 449" enable-background="new 0 0 646 449" xml:space="preserve">
<g>
	<path fill="#FFFFFF" d="M301.202,353.816c-16.433-0.225-32.742-0.223-49.15-1.422c-15.524-1.135-31.074-3.297-46.634-3.771
		c-15.958-0.487-36.145,2.734-48.348-10.197c-5.475-5.803-8.446-13.047-11.948-20.03c0.671,5.056,0.981,10.216,1.584,15.618
		c0.657,5.875,1.696,11.992,5.652,16.648c4.589,5.402,10.826,6.657,17.638,6.354c30.201-1.349,60.609,0.605,90.825,1.758
		c16.564,0.633,33.127,1.338,49.681,2.199c16.896,0.879,33.767,2.281,50.694,2.318c23.435,0.052,46.807-1.475,70.192-2.719
		c-10.843-0.057-21.685-0.439-32.514-1.043C366.318,357.715,333.825,354.263,301.202,353.816z"/>
	<path fill="#FFFFFF" d="M478.686,359.291c7.027,0.074,14.052,0.17,21.078,0.027c7.954-0.161,16.773-1.031,23.386-5.925
		c0.484-0.358,0.949-0.733,1.401-1.12C511.27,360.093,493.502,359.288,478.686,359.291z"/>
	<path fill="#FFFFFF" d="M157.224,98.487c-8.022,2.767-14.501,8.1-17.108,18.356c-1.54,6.057-1.86,12.212-1.9,18.395
		c0.667-2.808,1.376-5.604,2.176-8.372C143.644,115.604,148.996,105.676,157.224,98.487z"/>
	<path fill="#FFFFFF" d="M536.248,191.013c0.364-16.256,0.831-32.631-0.802-48.837c-0.926-9.19-1.801-19.681-6.119-28.194
		c1.537,5.031,1.958,10.492,1.986,15.651c0.059,10.519-1.269,20.949-2.404,31.387c-1.362,12.515-1.162,24.8-0.013,37.347
		c1.416,15.468,3.692,30.879,4.436,46.405c0.689,14.408,0.028,28.743,1.144,43.151c1.04,13.421,2.552,27.046,1.466,40.514
		c-0.011,0.133-0.022,0.267-0.033,0.398c2.216-13.339,1.84-27.241,1.82-40.694C537.68,255.734,535.521,223.422,536.248,191.013z"/>
	<path fill="#FFFFFF" d="M108.364,250.583c-0.205-0.659-0.398-1.321-0.582-1.983c0.894,6.043,2.332,11.945,4.395,17.265
		c4.021,10.368,10.772,18.856,18.011,27.149c2.248,2.576,4.499,5.172,6.68,7.826c-4.554-8.793-10.141-16.914-15.567-25.185
		C116.146,267.801,111.169,259.617,108.364,250.583z"/>
	<path fill="#FFFFFF" d="M193.577,93.421c32.934,0.028,65.866,0.5,98.793,1.151c65.239,1.29,130.474,3.149,195.73,3.188
		c6.011-0.093,12.812-0.54,19.331,0.004c-17.84-5.559-38.318-3.132-56.538-3.18c-14.036-0.037-28.111-1.991-42.124-2.841
		c-16.348-0.991-32.708-1.756-49.057-2.735c-29.883-1.791-59.587-4.877-89.555-5.399c-15.119-0.263-30.254-0.175-45.36,0.581
		c-14.566,0.729-30.039,1.091-44.268,4.567c-4.772,1.166-9.457,2.791-13.774,5.048C175.715,92.733,185.189,93.415,193.577,93.421z"
		/>
	<path fill="#FFFFFF" d="M129.112,182.396c-1.644,2.687-3.56,5.245-5.559,7.754c0.254-0.299,0.508-0.596,0.761-0.898
		C126.173,187.023,127.75,184.737,129.112,182.396z"/>
	<path fill="#FFFFFF" d="M145.365,119.967c0.839-1.359,1.773-2.68,2.817-3.957c6.441-7.88,15.174-13.149,24.862-16.109
		c7.198-2.199,14.551-3.548,21.981-4.301c-4.146-0.015-8.291-0.037-12.437-0.044c-7.162-0.013-14.767,0.188-21.593,1.834
		c-2.521,1.868-4.833,4.035-6.854,6.559C150.286,108.762,147.483,114.225,145.365,119.967z"/>
	<path fill="#FFFFFF" d="M529.633,234.293c-1.392-15.415-3.678-30.769-4.44-46.236c-0.529-10.728,0.198-21.001,1.39-31.65
		c1.758-15.71,6.63-42.061-7.843-53.33c-8.601-4.253-19.702-3.39-29.505-3.167c-0.103,0.019-0.209,0.03-0.322,0.03
		c-0.369,0-0.738-0.002-1.107-0.003c-0.563,0.009-1.121,0.015-1.673,0.016c-0.107,0-0.205-0.009-0.298-0.021
		c-4.95-0.004-9.901-0.011-14.852-0.037c-40.584-0.208-81.157-1.053-121.73-1.938c-0.398,0.242-0.881,0.429-1.23,0.43
		c-30.554,0.063-61.337,3.747-91.842,1.113c-27.045-2.335-56.283-6.951-82.783,1.716c-12.717,4.159-24.018,12.665-28.753,25.6
		c-4.473,12.216-3.613,25.22-6.056,37.828c-2.345,12.105-7.962,20.755-16.154,29.717c-5.559,6.083-10.326,12.262-13.077,19.549
		c-1.932,11.067-1.925,22.782,1.206,33.565c5.782,19.912,20.708,35.043,29.655,53.413c1.409,2.894,2.427,5.771,3.199,8.655
		c1.867,2.771,3.588,5.637,5.043,8.668c4.61,9.608,8.945,20.082,19.223,24.91c8.333,3.914,17.66,3.844,26.679,3.845
		c12.573,0.001,24.957,0.997,37.479,2.108c16.944,1.504,33.928,3.039,50.95,3.193c16.32,0.148,32.569,0.202,48.874,1.143
		c32.549,1.876,65.047,5.305,97.671,5.63c13.401,0.134,26.692-0.915,40.065-1.2c9.032-0.191,18.077,0.111,27.102-0.404
		c9.143-0.521,20.344-1.228,27.962-6.945c8.928-6.701,8.875-19.33,8.888-29.525c0.017-14.165-1.716-28.225-2.46-42.352
		C530.112,263.82,530.969,249.083,529.633,234.293z M144.48,227.225c-0.248,2.141-0.848,6.551-2.011,10.828
		c-0.081,1.367-0.144,2.72-0.17,4.049c-0.041,2.205-0.924,2.323-1.83,1.559c-2.198,4.61-5.466,7.219-10.25,2.917
		c-7.523-6.771-7.336-19.55-5.703-29.103c0.675-3.914,1.856-10.618,5.954-12.175c4.022-1.529,8.336,0.813,10.126,4.859
		c1.84,4.154,2.456,8.667,2.546,13.277C143.962,224.37,144.629,225.96,144.48,227.225z"/>
	<path fill="#FFFFFF" d="M134.992,211.736c-4.113-0.436-5.645,3.624-6.384,7.315c-1.024,5.102-3.34,17.896,1.878,21.148
		c4.33,2.7,6.748-0.241,8.161-4.431c0.253-4.582,0.693-9.153,0.561-13.759C139.108,218.444,139.479,212.21,134.992,211.736z"/>
	<path fill="#FFFFFF" d="M234.631,95.875c5.218,0.421,10.411,0.923,15.549,1.425c24.711,2.414,49.415,1.002,74.146,0.113
		c-16.623-0.359-33.247-0.705-49.872-0.996C261.181,96.185,247.906,96.011,234.631,95.875z"/>
	<path d="M540.607,278.033c-0.174-16.508-0.811-33.01-1.442-49.505c-0.604-15.744-0.074-31.475,0.221-47.219
		c0.284-15.144,0.015-30.21-1.612-45.277c-1.018-9.421-2.869-19.451-8.261-27.447c-2.537-3.762-5.847-6.271-9.603-7.939
		c-5.593-3.61-13.037-5.111-19.144-6.127c-21.424-3.567-43.433-0.63-65.008-2.46c-31.962-2.712-64.046-3.525-96.004-6.26
		c-29.435-2.519-58.977-4.025-88.524-3.828c-14.448,0.097-28.892,0.702-43.293,1.871c-11.939,0.97-24.062,1.946-35.457,5.86
		c-3.611,1.24-6.875,2.847-9.852,4.74c-5.789,1.107-11.247,3.142-15.907,6.816c-14.188,11.187-11.68,32.167-11.801,49.617
		c-1.071,5.57-2.1,11.146-3.255,16.671c-0.95,4.543-2.335,8.507-4.238,12.296c-2.706,4.252-6.043,8.166-9.815,11.896
		c-6.511,6.439-9.625,13.737-11.188,22.462c-0.314,0.828-0.612,1.67-0.875,2.543c-3.82,12.708-1.345,27.423,0.991,40.169
		c1.959,10.688,7.187,20.169,13.779,28.667c6.423,8.279,13.894,15.657,19.885,24.286c0.183,0.263,0.352,0.532,0.529,0.799
		c2.297,8.705,2.213,17.712,3.409,26.898c1.216,9.346,6.129,18.924,16.146,20.964c4.954,1.009,9.942,0.695,14.95,0.326
		c7.849-0.579,15.658-0.198,23.517,0.04c32.945,1.002,65.889,2.078,98.813,3.641c32.2,1.528,64.013,3.559,96.27,2.197
		c31.985-1.35,63.923-4.1,95.963-3.443c14.985,0.307,31.572,0.452,41.522-12.721c5.229-6.922,7.127-15.938,8.163-24.358
		C541.353,309.028,540.769,293.295,540.607,278.033z M180.53,88.756c14.229-3.476,29.702-3.838,44.268-4.567
		c15.105-0.755,30.241-0.844,45.36-0.581c29.968,0.521,59.672,3.608,89.555,5.399c16.349,0.979,32.709,1.744,49.057,2.735
		c14.013,0.85,28.088,2.805,42.124,2.841c18.22,0.047,38.698-2.379,56.538,3.18c-6.52-0.544-13.32-0.097-19.331-0.004
		c-65.257-0.038-130.491-1.897-195.73-3.188c-32.928-0.651-65.859-1.123-98.793-1.151c-8.387-0.007-17.861-0.688-26.821,0.383
		C171.073,91.547,175.757,89.922,180.53,88.756z M324.327,97.413c-24.731,0.889-49.436,2.301-74.146-0.113
		c-5.139-0.502-10.331-1.004-15.549-1.425c13.275,0.137,26.549,0.31,39.824,0.542C291.08,96.708,307.704,97.054,324.327,97.413z
		 M160.995,97.389c6.826-1.646,14.432-1.847,21.593-1.834c4.146,0.007,8.291,0.029,12.437,0.044
		c-7.431,0.753-14.783,2.102-21.981,4.301c-9.688,2.96-18.421,8.229-24.862,16.109c-1.044,1.277-1.978,2.598-2.817,3.957
		c2.118-5.742,4.921-11.205,8.776-16.019C156.162,101.424,158.475,99.257,160.995,97.389z M140.115,116.843
		c2.607-10.256,9.086-15.59,17.108-18.356c-8.228,7.189-13.58,17.117-16.833,28.38c-0.8,2.768-1.508,5.564-2.176,8.372
		C138.255,129.056,138.575,122.9,140.115,116.843z M129.112,182.396c-1.362,2.341-2.938,4.627-4.798,6.855
		c-0.252,0.303-0.507,0.599-0.761,0.898C125.552,187.642,127.468,185.083,129.112,182.396z M130.188,293.014
		c-7.239-8.293-13.99-16.781-18.011-27.149c-2.063-5.319-3.501-11.222-4.395-17.265c0.184,0.662,0.377,1.324,0.582,1.983
		c2.805,9.034,7.782,17.218,12.937,25.072c5.427,8.271,11.013,16.392,15.567,25.185C134.688,298.186,132.436,295.59,130.188,293.014
		z M361.195,363.291c-16.928-0.037-33.798-1.439-50.694-2.318c-16.554-0.861-33.116-1.566-49.681-2.199
		c-30.216-1.152-60.624-3.106-90.825-1.758c-6.813,0.304-13.049-0.951-17.638-6.354c-3.956-4.656-4.995-10.773-5.652-16.648
		c-0.604-5.402-0.914-10.563-1.584-15.618c3.502,6.983,6.474,14.228,11.948,20.03c12.204,12.932,32.39,9.71,48.348,10.197
		c15.56,0.475,31.11,2.637,46.634,3.771c16.408,1.199,32.717,1.197,49.15,1.422c32.623,0.446,65.116,3.898,97.672,5.713
		c10.829,0.604,21.671,0.986,32.514,1.043C408.002,361.816,384.63,363.343,361.195,363.291z M523.149,353.394
		c-6.612,4.894-15.432,5.764-23.386,5.925c-7.026,0.143-14.051,0.047-21.078-0.027c14.816-0.003,32.584,0.802,45.865-7.018
		C524.099,352.66,523.634,353.035,523.149,353.394z M524.463,350.49c-7.618,5.718-18.819,6.424-27.962,6.945
		c-9.024,0.516-18.069,0.213-27.102,0.404c-13.373,0.285-26.664,1.334-40.065,1.2c-32.624-0.325-65.122-3.754-97.671-5.63
		c-16.305-0.94-32.554-0.994-48.874-1.143c-17.022-0.154-34.006-1.689-50.95-3.193c-12.522-1.111-24.906-2.107-37.479-2.108
		c-9.019-0.001-18.346,0.069-26.679-3.845c-10.278-4.828-14.613-15.302-19.223-24.91c-1.455-3.031-3.176-5.897-5.043-8.668
		c-0.772-2.885-1.79-5.762-3.199-8.655c-8.947-18.37-23.873-33.501-29.655-53.413c-3.131-10.783-3.138-22.498-1.206-33.565
		c2.751-7.287,7.518-13.467,13.077-19.549c8.192-8.962,13.809-17.612,16.154-29.717c2.443-12.608,1.583-25.612,6.056-37.828
		c4.735-12.935,16.037-21.441,28.753-25.6c26.5-8.667,55.738-4.051,82.783-1.716c30.505,2.634,61.289-1.051,91.842-1.113
		c0.35,0,0.832-0.188,1.23-0.43c40.573,0.886,81.146,1.73,121.73,1.938c4.95,0.025,9.901,0.032,14.852,0.037
		c0.093,0.012,0.19,0.021,0.298,0.021c0.552-0.001,1.11-0.007,1.673-0.016c0.369,0,0.738,0.003,1.107,0.003
		c0.113,0,0.22-0.011,0.322-0.03c9.803-0.223,20.904-1.086,29.505,3.167c14.473,11.269,9.601,37.62,7.843,53.33
		c-1.191,10.649-1.919,20.923-1.39,31.65c0.763,15.467,3.049,30.822,4.44,46.236c1.336,14.79,0.479,29.527,1.258,44.32
		c0.744,14.127,2.477,28.187,2.46,42.352C533.338,331.16,533.391,343.789,524.463,350.49z M535.908,328.835
		c0.011-0.132,0.022-0.266,0.033-0.398c1.086-13.468-0.426-27.093-1.466-40.514c-1.115-14.408-0.454-28.743-1.144-43.151
		c-0.743-15.525-3.02-30.937-4.436-46.405c-1.149-12.546-1.35-24.832,0.013-37.347c1.136-10.438,2.463-20.868,2.404-31.387
		c-0.028-5.159-0.449-10.621-1.986-15.651c4.318,8.513,5.193,19.004,6.119,28.194c1.633,16.207,1.166,32.581,0.802,48.837
		c-0.728,32.409,1.432,64.721,1.48,97.127C537.748,301.594,538.124,315.496,535.908,328.835z"/>
	<path d="M140.598,210.159c-1.79-4.047-6.104-6.389-10.126-4.859c-4.098,1.557-5.279,8.261-5.954,12.175
		c-1.633,9.553-1.82,22.331,5.703,29.103c4.784,4.302,8.052,1.693,10.25-2.917c0.905,0.765,1.789,0.646,1.83-1.559
		c0.026-1.329,0.089-2.682,0.17-4.049c1.163-4.277,1.763-8.688,2.011-10.828c0.148-1.265-0.518-2.854-1.336-3.789
		C143.053,218.826,142.438,214.313,140.598,210.159z M138.647,235.77c-1.413,4.189-3.831,7.131-8.161,4.431
		c-5.218-3.252-2.902-16.047-1.878-21.148c0.739-3.691,2.271-7.751,6.384-7.315c4.487,0.474,4.116,6.708,4.216,10.274
		C139.341,226.616,138.9,231.188,138.647,235.77z"/>
</g>
<g>
	<path d="M299.305,164.734c-3.44,7.421-6.381,12.353-8.824,14.797c-3.801,3.801-5.884,5.884-6.245,6.245
		c-2.626,2.083-5.25,3.349-7.874,3.801c-0.363,1.812-0.543,3.937-0.543,6.38c0,1.721,0.136,4.323,0.407,7.806
		c0.271,3.485,0.407,6.041,0.407,7.67c0,6.153-1.449,10.769-4.344,13.847l-3.801-2.036c-1.54-0.814-2.399-1.812-2.58-2.987
		c-0.905-5.884-1.357-12.442-1.357-19.684c0-4.796,0.271-11.946,0.814-21.449c0.543-9.503,0.814-16.698,0.814-21.585
		c0-7.059-0.407-13.528-1.222-19.413c-0.725,0.271-1.404-0.18-2.036-1.357c-0.634-1.175-1.177-1.854-1.629-2.036
		c0.452-2.896,1.222-4.344,2.308-4.344c1.357-0.452,4.162-0.36,8.417,0.271c11.764,1.9,20.634,7.059,26.608,15.476
		c1.9,2.715,2.851,5.792,2.851,9.231C301.477,158.354,300.751,161.476,299.305,164.734z M290.48,154.281
		c0.452-3.619-1.086-6.47-4.615-8.552c-0.183,0-3.44-1.311-9.774-3.937c0.995,16.653,1.311,28.328,0.95,35.024
		C285.095,169.213,289.574,161.703,290.48,154.281z"/>
	<path d="M347.36,181.703c-0.905,2.083-1.765,4.164-2.579,6.245c-1.086,2.444-2.263,4.391-3.529,5.837
		c-2.807,3.53-5.612,7.015-8.417,10.453c-3.349,4.164-6.38,7.059-9.095,8.688c-0.906,1.086-1.901,2.217-2.987,3.394
		c-1.086,1.175-2.172,1.765-3.258,1.765c-0.543,0-1.177-0.136-1.9-0.407c-0.726-0.271-1.517-0.59-2.376-0.95
		c-0.861-0.363-1.472-0.95-1.832-1.765c-0.271-3.801-0.407-7.874-0.407-12.218c0-4.434,0.18-11.041,0.543-19.82
		c0.36-8.777,0.543-15.384,0.543-19.82c0-5.882-0.228-11.268-0.679-16.154c-0.092-0.089-1.087-1.131-2.987-3.123
		c-1.177-1.175-1.765-2.261-1.765-3.258c0-0.452,0.089-0.904,0.271-1.358c0.452-1.086,1.447-1.718,2.986-1.9
		c1.176-0.18,2.353-0.316,3.53-0.407c7.602,1.629,15.564,5.884,23.893,12.761c2.172,1.812,3.937,3.712,5.294,5.702
		c4.344,6.427,6.517,12.445,6.517,18.055C349.126,176.319,348.536,179.079,347.36,181.703z M337.587,167.177
		c-0.814-5.702-5.657-10.725-14.525-15.068c-0.635,15.115-0.815,31.134-0.544,48.056c10.227-10.226,15.341-19.956,15.341-29.187
		C337.858,169.712,337.767,168.446,337.587,167.177z"/>
	<path d="M401.797,133.782c-6.97,10.588-12.808,20.816-17.512,30.68c1.086,2.626,3.981,7.92,8.688,15.883
		c3.891,6.516,6.381,11.993,7.467,16.426c-0.726,0.091-1.493,0.702-2.308,1.833c-0.814,1.133-1.629,1.652-2.443,1.561
		c-3.35-0.271-6.064-1.809-8.146-4.616c-1.086-1.446-2.579-4.479-4.48-9.095c-1.811-4.073-3.529-6.923-5.158-8.552
		c-3.169,4.615-6.539,11.946-10.113,21.992c-3.576,10.046-6.855,17.285-9.843,21.721c-4.887,0.452-7.69-0.318-8.416-2.308
		c-0.271-0.814-0.407-1.629-0.407-2.443c0-1.449,0.543-3.349,1.629-5.702c1.538-3.347,2.396-5.248,2.579-5.702
		c5.067-14.842,11.356-28.733,18.87-41.676c-2.716-6.062-7.467-12.578-14.255-19.548c-0.453-0.452-0.679-0.903-0.679-1.357
		c0-1.718,1.358-3.076,4.073-4.073c0.994-0.36,1.989-0.543,2.986-0.543c2.624,0,5.203,1.72,7.738,5.159
		c3.618,4.979,5.565,7.602,5.837,7.874c0.452-0.632,2.669-4.569,6.652-11.811c2.715-4.887,5.294-8.688,7.737-11.403
		c1.81-0.543,4.073-0.632,6.788-0.271c2.081,0.906,3.122,2.354,3.122,4.344C402.204,132.787,402.068,133.33,401.797,133.782z"/>
</g>
<g>
	<path d="M249.453,267.95c-0.863,3.581-3.051,6.831-6.565,9.749c-3.382,2.388-6.765,4.742-10.147,7.063
		c0.199,0.995,0.878,1.741,2.04,2.238c1.16,0.497,2.271,0.979,3.333,1.442c5.504,3.581,8.256,7.826,8.256,12.733
		c0,3.78-1.293,7.262-3.879,10.444c-1.99,2.453-4.941,4.875-8.854,7.263c-3.183,1.855-6.367,3.713-9.55,5.57
		c-0.796,0.463-1.658,0.696-2.586,0.696c-2.188,0-3.715-0.896-4.576-2.686c0.132-5.571,0.264-11.109,0.398-16.613
		c0.132-6.631,0.497-12.102,1.094-16.413c-1.393-0.928-2.089-1.989-2.089-3.184c0-0.597,0.249-1.144,0.746-1.642
		c0.498-0.497,1.177-1.044,2.04-1.641c0.796-10.08,0.96-19.364,0.497-27.854c-3.118-0.597-5.172-1.99-6.167-4.179
		c-0.067-0.264,0.05-0.662,0.348-1.193c0.299-0.53,0.448-0.961,0.448-1.293c1.525-1.127,3.216-1.691,5.073-1.691
		c1.326,0,4.377,0.433,9.152,1.293c2.453,0.398,5.006,1.294,7.66,2.687c7.163,3.715,11.373,7.328,12.634,10.843
		C249.618,264.105,249.851,266.227,249.453,267.95z M237.118,301.972c0.132-0.729,0.199-1.426,0.199-2.089
		c0-1.99-0.631-3.746-1.89-5.272c-3.382-1.657-5.538-2.487-6.466-2.487c-0.532,0-1.029,0.1-1.492,0.299
		c0.065,0.663,0.1,1.393,0.1,2.188c0,1.393-0.184,3.531-0.547,6.416c-0.365,2.885-0.547,5.058-0.547,6.516
		c0,2.123,0.264,4.044,0.795,5.77c0.796-0.93,2.04-1.907,3.73-2.935c1.691-1.027,2.868-1.939,3.532-2.735
		C235.725,306.249,236.586,304.358,237.118,301.972z M240.102,262.977c-0.333-2.453-2.322-4.343-5.968-5.67
		c-0.532-0.199-1.36-0.63-2.487-1.293c-0.795-0.53-1.459-0.796-1.989-0.796c-0.266,0-0.564,0.066-0.896,0.198
		c-0.067,1.129-0.099,2.322-0.099,3.581c0,1.726,0.132,4.644,0.398,8.754c0.199,3.78,0.264,6.732,0.199,8.854
		c0.463,0,1.16-0.348,2.089-1.044c0.928-0.696,1.458-1.077,1.592-1.145c1.989-0.928,3.746-2.486,5.272-4.675
		C239.737,267.553,240.366,265.299,240.102,262.977z"/>
	<path d="M264.771,260.888c0.132,1.924,0.199,3.914,0.199,5.969c0,4.511-0.465,11.308-1.393,20.393
		c-0.93,9.086-1.393,15.95-1.393,20.592c0,1.725,0.033,3.414,0.1,5.073c-0.597,1.855-1.89,2.751-3.879,2.686
		c-2.852-0.134-4.411-1.36-4.675-3.681c-0.266-2.32-0.398-4.774-0.398-7.361c0-4.509,0.547-11.241,1.641-20.193
		c1.094-8.953,1.642-15.65,1.642-20.095c0-1.724-0.067-3.415-0.199-5.073c0.662-1.259,1.791-1.89,3.382-1.89
		c1.259,0,2.52,0.365,3.78,1.094c0.264-0.198,0.463-0.298,0.597-0.298c0.199,0,0.298,0.332,0.298,0.994
		c-0.067,0.796-0.067,1.261,0,1.393C264.538,260.688,264.638,260.822,264.771,260.888z"/>
	<path d="M304.562,305.751c0.397,0.333,0.597,0.796,0.597,1.394c0,0.397-0.266,1.393-0.796,2.983
		c-0.266-0.064-0.497-0.099-0.696-0.099c-0.398,0-0.912,0.166-1.542,0.497c-0.631,0.333-1.111,0.497-1.442,0.497
		c-0.332,0-0.696-0.132-1.094-0.397c-4.444-2.785-11.341-6.964-20.691-12.534c0.199,2.454,0.364,5.969,0.498,10.545
		c0,0.531,0.065,1.327,0.199,2.387c0.132,1.061,0.199,1.823,0.199,2.288c0,1.592-0.697,2.686-2.089,3.283
		c-0.398,0.264-0.962,0.397-1.691,0.397c-0.796,0-1.293-0.233-1.492-0.696c-1.725-0.597-2.72-1.758-2.984-3.481
		c-0.796-4.775-1.194-10.378-1.194-16.812c0-2.32,0.065-5.785,0.199-10.396c0.132-4.608,0.199-8.073,0.199-10.396
		c0-7.028-0.464-13.131-1.393-18.304c-0.134-0.796,0.331-1.325,1.393-1.592c0.796-0.132,1.625-0.264,2.487-0.397
		c0.861,0.266,1.757,0.581,2.686,0.945c0.928,0.365,1.425,0.944,1.492,1.74c0.995,9.021,1.425,16.183,1.293,21.487
		c2.718-2.453,5.834-5.703,9.351-9.749c2.985-3.382,5.934-6.797,8.854-10.246c0.795-0.331,1.656-0.497,2.586-0.497
		c2.586,0,3.945,0.896,4.078,2.686c-1.857,4.113-5.506,8.987-10.942,14.623c-6.366,6.565-10.445,11.241-12.235,14.026
		c4.111,2.454,8.256,4.908,12.435,7.361C297.465,300.215,301.378,303.033,304.562,305.751z"/>
	<path d="M341.865,261.484c-2.455,0.995-6.068,2.156-10.844,3.481c-4.774,1.328-8.39,2.487-10.842,3.482
		c-0.598,1.725-1.029,5.57-1.293,11.539c1.06,0.397,2.287,0.597,3.68,0.597c0.995,0,2.553-0.165,4.676-0.497
		c2.121-0.331,3.681-0.498,4.676-0.498c1.855,0,3.447,0.398,4.773,1.194c0.93,1.327,1.395,2.188,1.395,2.586
		c0,0.465-0.234,0.83-0.697,1.095c-0.133,0.066-0.598,0.531-1.393,1.393c-0.531,0.597-1.193,0.862-1.99,0.796
		c-1.393,0.332-3.945,0.531-7.659,0.597c-3.118,0.066-5.604,0.465-7.46,1.193c-1.262,4.909-1.891,8.788-1.891,11.639
		c0,1.925,0.264,3.449,0.796,4.576c3.116,2.188,8.521,3.118,16.214,2.785c0.531,0,1.096-0.248,1.691-0.746
		c0.598-0.497,1.094-0.746,1.492-0.746c1.855-0.397,3.084,0.995,3.682,4.178c0.197,1.063,0.016,2.04-0.549,2.935
		c-0.563,0.896-1.377,1.376-2.436,1.443c-8.025,0.264-14.988-0.366-20.891-1.891c-1.857-0.465-3.549-1.492-5.073-3.084
		c-1.526-1.592-2.388-3.382-2.587-5.371c-0.597-5.77-0.597-10.942,0-15.519c-1.857-1.259-2.686-2.487-2.486-3.681
		c0.064-0.597,0.58-1.145,1.541-1.642s1.508-1.01,1.643-1.542c0.131-0.529,0.397-3.681,0.795-9.45
		c-3.715-0.729-5.537-2.121-5.471-4.178c0.064-1.923,1.227-3.447,3.481-4.576c2.122-0.861,4.243-1.724,6.366-2.586
		c2.453-1.259,5.537-2.388,9.252-3.383c3.248-0.86,6.498-1.69,9.748-2.486c0.332-0.065,0.729-0.1,1.193-0.1
		c1.791,0,3.881,0.696,6.268,2.089c0.066,0.266,0.232,0.764,0.498,1.492c0.264,0.73,0.396,1.261,0.396,1.592
		C342.561,260.723,342.328,261.153,341.865,261.484z"/>
	<path d="M394.19,249.249c-0.598,2.388-1.726,3.78-3.383,4.178c-4.312,1.062-11.805,2.454-22.481,4.178
		c-1.327,16.514-1.989,30.275-1.989,41.283c0,4.178,0.065,8.291,0.198,12.335c0.065,1.259,0,2.221-0.198,2.885
		c-0.333,1.061-0.995,1.558-1.99,1.492c-1.924-0.066-3.516-0.88-4.774-2.438c-1.261-1.559-1.957-3.298-2.089-5.223
		c-0.134-2.452-0.199-5.039-0.199-7.759c0-4.377,0.299-11.306,0.896-20.79c0.597-9.086,0.861-16.017,0.796-20.791
		c-1.791-0.132-4.277,0.034-7.461,0.497c-3.648,0.532-6.168,0.796-7.561,0.796c-3.248,0-5.901-0.869-7.958-2.608
		c-0.796-1.737-1.193-2.641-1.193-2.707c0-0.468,0.233-0.97,0.696-1.505c2.123-0.735,6.466-1.403,13.031-2.007
		c5.77-0.602,10.08-1.671,12.932-3.209c2.321,0.796,4.975,1.193,7.958,1.193c2.984,0,5.835-0.363,8.556-1.094
		c0.796-0.065,2.817-0.53,6.067-1.394c2.388-0.597,4.378-0.795,5.969-0.597c1.194,0,1.691,0.498,1.492,1.492
		C393.295,247.458,394.19,248.055,394.19,249.249z"/>
	<path d="M416.771,306.448c0.398,1.062,0.597,1.989,0.597,2.785c0,1.327-0.564,2.486-1.69,3.481
		c-1.129,0.995-1.891,1.458-2.288,1.393c-3.25-0.597-5.307-3.216-6.168-7.858c-0.93-5.039-2.023-9.252-3.282-12.634
		c-2.256,0.199-4.511,0.398-6.765,0.597c-2.587,0.333-4.61,1.129-6.068,2.388c-0.73,2.057-1.691,5.704-2.885,10.942
		c-1.128,4.84-2.223,8.521-3.282,11.042c-0.532,1.193-1.659,1.524-3.383,0.995c-2.188-0.73-3.35-1.726-3.481-2.984
		c-0.199-2.521,0.53-5.902,2.188-10.146c1.989-4.841,3.084-8.29,3.283-10.346c0.064-0.598-0.366-1.26-1.294-1.99
		c-0.93-0.729-1.393-1.293-1.393-1.69c0-0.331,0.149-0.68,0.448-1.045c0.298-0.363,0.994-0.662,2.089-0.896
		c1.094-0.231,1.706-0.579,1.84-1.044c1.194-3.315,3.084-9.483,5.67-18.503c2.188-7.824,4.145-13.827,5.869-18.005
		c0.398-0.928,1.227-1.393,2.487-1.393c0.928,0,1.757,0.298,2.487,0.895c1.855,1.592,3.049,3.979,3.581,7.163
		c0.397,2.72,0.762,5.438,1.094,8.156C409.74,283.403,413.189,296.301,416.771,306.448z M402.247,287.448
		c-0.199-2.453-0.631-5.206-1.293-8.257c-0.664-2.651-1.294-5.305-1.891-7.958c-1.989,5.505-3.715,11.009-5.173,16.513
		C394.951,287.547,397.736,287.448,402.247,287.448z"/>
	<path d="M456.262,286.354c-1.791,4.443-2.952,9.915-3.481,16.414c-0.333,5.637-0.632,11.273-0.896,16.91
		c-0.134,1.657-1.228,2.487-3.283,2.487c-0.597,0-1.161-0.1-1.69-0.299c-2.853-1.193-4.277-3.416-4.277-6.664
		c0-0.93,0.132-2.338,0.397-4.229c0.265-1.89,0.397-3.266,0.397-4.128c0.265-1.923,0.598-4.808,0.995-8.654
		c-4.576,4.312-9.749,7.527-15.519,9.649c-0.796,0.266-1.591,0.397-2.387,0.397c-3.052,0-5.869-1.724-8.456-5.173
		c-1.458-1.923-2.188-4.31-2.188-7.162c0-2.52,0.564-5.472,1.691-8.854c3.515-10.743,9.117-21.254,16.812-31.534
		c3.846-5.105,7.262-7.659,10.246-7.659c2.651,0,4.144,0.994,4.477,2.984c0.264,1.658-0.299,2.852-1.691,3.581
		c-2.322,1.261-3.549,1.957-3.681,2.089c-5.57,6.167-10.678,14.126-15.319,23.874c-2.853,6.035-4.277,11.44-4.277,16.215
		c0,0.862,0.032,1.726,0.1,2.586c0.132,0.067,0.331,0.383,0.597,0.945c0.265,0.564,0.63,0.746,1.094,0.547
		c4.377-1.724,10.976-6.267,19.796-13.628c0.662-0.53,1.426-2.055,2.288-4.576c0.662-1.855,1.856-2.785,3.581-2.785
		c-0.531,0,0-0.065,1.592-0.199c0.796-0.132,1.326,0,1.592,0.398c1.259,1.857,1.89,3.382,1.89,4.576
		C456.659,285.061,456.526,285.691,456.262,286.354z"/>
</g>
</svg>
