<?xml version="1.0" encoding="UTF-8" standalone="no"?>
<svg
   xmlns:dc="http://purl.org/dc/elements/1.1/"
   xmlns:cc="http://creativecommons.org/ns#"
   xmlns:rdf="http://www.w3.org/1999/02/22-rdf-syntax-ns#"
   xmlns:svg="http://www.w3.org/2000/svg"
   xmlns="http://www.w3.org/2000/svg"
   xmlns:sodipodi="http://sodipodi.sourceforge.net/DTD/sodipodi-0.dtd"
   xmlns:inkscape="http://www.inkscape.org/namespaces/inkscape"
   inkscape:version="1.0 (4035a4f, 2020-05-01)"
   sodipodi:docname="SeattleIcon.svg"
   xml:space="preserve"
   enable-background="new 0 0 646 449"
   viewBox="0 0 437.25201 283.22455"
   height="283.22455"
   width="437.25201"
   y="0px"
   x="0px"
   id="Layer_1"
   version="1.1"><metadata
   id="metadata53"><rdf:RDF><cc:Work
       rdf:about=""><dc:format>image/svg+xml</dc:format><dc:type
         rdf:resource="http://purl.org/dc/dcmitype/StillImage" /></cc:Work></rdf:RDF></metadata><defs
   id="defs51" /><sodipodi:namedview
   inkscape:current-layer="Layer_1"
   inkscape:window-maximized="0"
   inkscape:window-y="23"
   inkscape:window-x="0"
   inkscape:cy="138.82923"
   inkscape:cx="195.36341"
   inkscape:zoom="1.630031"
   showgrid="false"
   id="namedview49"
   inkscape:window-height="745"
   inkscape:window-width="1213"
   inkscape:pageshadow="2"
   inkscape:pageopacity="0"
   guidetolerance="10"
   gridtolerance="10"
   objecttolerance="10"
   borderopacity="1"
   bordercolor="#666666"
   pagecolor="#ffffff" />
<g
   transform="translate(-127.63659,-85.670773)"
   id="g14">
	<path
   id="path10"
   d="m 564.674,281.75 c -0.174,-16.509 -0.811,-33.009 -1.44,-49.505 -0.604,-15.744 -0.074,-31.475 0.221,-47.219 0.283,-15.144 0.014,-30.21 -1.613,-45.277 -1.018,-9.421 -2.869,-19.451 -8.26,-27.447 -2.537,-3.762 -5.848,-6.271 -9.604,-7.939 -5.592,-3.61 -13.036,-5.111 -19.143,-6.127 -21.424,-3.567 -43.434,-0.63 -65.008,-2.46 -31.963,-2.712 -64.047,-3.525 -96.004,-6.26 -29.436,-2.519 -58.977,-4.025 -88.525,-3.828 -14.447,0.097 -28.891,0.702 -43.293,1.871 -11.939,0.97 -24.061,1.946 -35.456,5.86 -3.611,1.24 -6.874,2.847 -9.853,4.74 -5.789,1.107 -11.246,3.142 -15.906,6.816 -14.188,11.187 -11.68,32.167 -11.801,49.617 -1.07,5.57 -2.1,11.146 -3.255,16.671 -0.95,4.543 -2.335,8.507 -4.238,12.296 -2.706,4.252 -6.044,8.166 -9.815,11.896 -6.511,6.439 -9.625,13.737 -11.188,22.462 -0.314,0.828 -0.612,1.67 -0.875,2.543 -3.82,12.708 -1.346,27.422 0.99,40.168 1.96,10.688 7.188,20.17 13.779,28.668 6.424,8.279 13.895,15.658 19.885,24.286 0.184,0.263 0.353,0.532 0.529,0.798 2.297,8.706 2.213,17.713 3.408,26.899 1.217,9.347 6.129,18.924 16.146,20.964 4.954,1.01 9.942,0.694 14.95,0.326 7.849,-0.579 15.658,-0.199 23.517,0.04 32.945,1.003 65.889,2.078 98.813,3.642 32.201,1.527 64.013,3.557 96.27,2.196 31.985,-1.35 63.924,-4.1 95.963,-3.444 14.986,0.307 31.572,0.453 41.522,-12.721 5.229,-6.92 7.127,-15.938 8.162,-24.357 1.868,-15.18 1.284,-30.913 1.122,-46.175 z M 204.596,92.473 c 14.23,-3.476 29.702,-3.838 44.269,-4.567 15.105,-0.755 30.241,-0.844 45.36,-0.581 29.968,0.521 59.671,3.608 89.554,5.399 16.35,0.979 32.709,1.744 49.057,2.735 14.014,0.85 28.088,2.805 42.125,2.841 18.219,0.047 38.697,-2.379 56.537,3.18 -6.521,-0.544 -13.32,-0.097 -19.33,-0.004 -65.258,-0.038 -130.492,-1.897 -195.731,-3.188 -32.928,-0.651 -65.859,-1.123 -98.794,-1.151 -8.387,-0.007 -17.861,-0.688 -26.82,0.383 4.316,-2.256 9.002,-3.881 13.773,-5.047 z m 143.799,8.657 c -24.731,0.889 -49.436,2.301 -74.146,-0.113 -5.139,-0.502 -10.331,-1.004 -15.55,-1.425 13.275,0.137 26.55,0.31 39.824,0.542 16.624,0.291 33.248,0.637 49.872,0.996 z m -163.333,-0.024 c 6.826,-1.646 14.432,-1.847 21.593,-1.834 4.146,0.007 8.291,0.029 12.438,0.044 -7.431,0.753 -14.783,2.102 -21.981,4.301 -9.688,2.96 -18.421,8.229 -24.862,16.109 -1.044,1.277 -1.978,2.598 -2.816,3.957 2.117,-5.742 4.921,-11.205 8.775,-16.019 2.02,-2.523 4.333,-4.69 6.853,-6.558 z m -20.88,19.454 c 2.607,-10.256 9.086,-15.59 17.108,-18.356 -8.228,7.189 -13.579,17.117 -16.833,28.38 -0.8,2.768 -1.508,5.564 -2.176,8.372 0.042,-6.184 0.361,-12.339 1.901,-18.396 z m -11.004,65.553 c -1.361,2.341 -2.938,4.627 -4.798,6.854 -0.253,0.303 -0.507,0.599 -0.761,0.898 2,-2.507 3.916,-5.065 5.559,-7.752 z m 1.077,110.617 c -7.239,-8.295 -13.99,-16.782 -18.011,-27.149 -2.064,-5.319 -3.502,-11.222 -4.396,-17.267 0.185,0.664 0.378,1.326 0.582,1.984 2.805,9.033 7.782,17.217 12.937,25.072 5.427,8.271 11.014,16.393 15.567,25.184 -2.18,-2.652 -4.432,-5.247 -6.679,-7.824 z m 231.007,70.279 c -16.928,-0.037 -33.797,-1.439 -50.693,-2.318 -16.553,-0.861 -33.116,-1.566 -49.68,-2.198 -30.216,-1.153 -60.623,-3.107 -90.824,-1.76 -6.813,0.305 -13.049,-0.949 -17.639,-6.353 -3.955,-4.656 -4.995,-10.772 -5.652,-16.648 -0.604,-5.402 -0.913,-10.563 -1.584,-15.618 3.502,6.982 6.474,14.229 11.948,20.028 12.204,12.934 32.39,9.711 48.349,10.197 15.56,0.477 31.109,2.638 46.634,3.772 16.408,1.198 32.718,1.196 49.151,1.422 32.623,0.445 65.114,3.897 97.672,5.713 10.828,0.604 21.67,0.986 32.514,1.044 -23.39,1.243 -46.761,2.77 -70.196,2.719 z m 161.955,-9.899 c -6.613,4.895 -15.432,5.764 -23.387,5.925 -7.025,0.143 -14.051,0.046 -21.078,-0.027 14.816,-0.003 32.584,0.802 45.865,-7.017 -0.451,0.386 -0.916,0.761 -1.4,1.119 z m 1.312,-2.903 c -7.617,5.718 -18.818,6.425 -27.961,6.946 -9.025,0.514 -18.07,0.212 -27.103,0.403 -13.373,0.283 -26.664,1.333 -40.065,1.199 -32.623,-0.324 -65.121,-3.754 -97.67,-5.631 -16.306,-0.939 -32.556,-0.993 -48.875,-1.142 -17.021,-0.155 -34.006,-1.69 -50.949,-3.193 -12.523,-1.11 -24.906,-2.106 -37.479,-2.108 -9.019,-0.002 -18.347,0.068 -26.679,-3.846 -10.277,-4.827 -14.613,-15.301 -19.223,-24.908 -1.455,-3.031 -3.176,-5.897 -5.043,-8.67 -0.771,-2.884 -1.79,-5.761 -3.199,-8.654 -8.947,-18.371 -23.873,-33.5 -29.654,-53.412 -3.132,-10.783 -3.139,-22.498 -1.207,-33.565 2.752,-7.287 7.518,-13.467 13.077,-19.549 8.192,-8.962 13.809,-17.612 16.153,-29.717 2.443,-12.608 1.584,-25.612 6.057,-37.828 4.735,-12.935 16.037,-21.441 28.754,-25.6 26.5,-8.667 55.737,-4.051 82.783,-1.716 30.505,2.634 61.289,-1.051 91.841,-1.113 0.351,0 0.832,-0.188 1.229,-0.43 40.574,0.886 81.146,1.73 121.73,1.938 4.951,0.025 9.902,0.032 14.853,0.037 0.094,0.012 0.19,0.021 0.299,0.021 0.551,-10e-4 1.108,-0.007 1.672,-0.016 0.369,0 0.738,0.003 1.106,0.003 0.113,0 0.222,-0.011 0.322,-0.03 9.803,-0.223 20.904,-1.086 29.506,3.167 14.474,11.269 9.601,37.62 7.842,53.33 -1.19,10.649 -1.918,20.923 -1.389,31.65 0.762,15.467 3.049,30.822 4.439,46.236 1.336,14.79 0.479,29.527 1.258,44.319 0.744,14.129 2.477,28.188 2.461,42.352 -0.011,10.197 0.042,22.826 -8.886,29.527 z m 11.446,-21.655 c 0.013,-0.133 0.023,-0.266 0.033,-0.397 1.086,-13.468 -0.426,-27.092 -1.465,-40.514 -1.115,-14.408 -0.455,-28.744 -1.145,-43.152 -0.742,-15.524 -3.021,-30.937 -4.437,-46.404 -1.147,-12.546 -1.35,-24.832 0.014,-37.347 1.136,-10.438 2.464,-20.868 2.404,-31.387 -0.029,-5.159 -0.449,-10.621 -1.986,-15.651 4.318,8.513 5.193,19.004 6.119,28.194 1.633,16.207 1.166,32.581 0.802,48.837 -0.728,32.409 1.432,64.722 1.479,97.125 0.021,13.455 0.398,27.358 -1.818,40.696 z" />
	<path
   id="path12"
   d="m 164.665,213.876 c -1.79,-4.047 -6.104,-6.389 -10.126,-4.859 -4.098,1.557 -5.279,8.261 -5.954,12.175 -1.633,9.553 -1.82,22.332 5.703,29.103 4.783,4.303 8.052,1.693 10.25,-2.917 0.904,0.765 1.788,0.647 1.829,-1.56 0.026,-1.328 0.089,-2.682 0.17,-4.049 1.163,-4.275 1.763,-8.688 2.011,-10.828 0.148,-1.265 -0.518,-2.854 -1.336,-3.789 -0.092,-4.61 -0.708,-9.122 -2.547,-13.276 z m -1.951,25.61 c -1.413,4.189 -3.831,7.132 -8.161,4.431 -5.218,-3.252 -2.902,-16.047 -1.878,-21.148 0.739,-3.691 2.271,-7.751 6.384,-7.315 4.487,0.474 4.116,6.708 4.216,10.274 0.133,4.605 -0.308,9.174 -0.561,13.758 z" />
</g>
<g
   transform="translate(-127.63659,-85.670773)"
   id="g46">
	<path
   id="path16"
   d="m 426.105,272.995 c -1.988,5.506 -3.716,11.01 -5.173,16.514 1.062,-0.198 3.847,-0.299 8.355,-0.299 -0.199,-2.453 -0.631,-5.205 -1.293,-8.256 -0.662,-2.652 -1.291,-5.306 -1.889,-7.959 z"
   fill="none" />
	<path
   id="path18"
   d="m 254.511,294.186 c 0.065,0.662 0.1,1.393 0.1,2.188 0,1.393 -0.184,3.531 -0.548,6.416 -0.365,2.885 -0.547,5.059 -0.547,6.516 0,2.123 0.265,4.045 0.796,5.771 0.796,-0.931 2.04,-1.906 3.73,-2.935 1.691,-1.026 2.868,-1.938 3.532,-2.735 1.193,-1.394 2.055,-3.283 2.586,-5.671 0.132,-0.729 0.199,-1.426 0.199,-2.088 0,-1.99 -0.631,-3.746 -1.891,-5.272 -3.383,-1.656 -5.538,-2.486 -6.466,-2.486 -0.531,-0.004 -1.027,0.094 -1.491,0.296 z"
   fill="none" />
	<path
   id="path20"
   d="m 317.877,177.467 c -0.728,-2.903 -1.416,-5.808 -2.069,-8.713 -2.179,6.027 -4.067,12.053 -5.663,18.079 1.16,-0.218 4.21,-0.327 9.147,-0.327 -0.217,-2.685 -0.69,-5.698 -1.415,-9.039 z"
   fill="none" />
	<path
   id="path22"
   d="m 261.176,259.068 c -0.531,-0.198 -1.36,-0.631 -2.487,-1.293 -0.796,-0.53 -1.46,-0.797 -1.989,-0.797 -0.266,0 -0.564,0.066 -0.896,0.199 -0.067,1.129 -0.099,2.322 -0.099,3.58 0,1.727 0.131,4.645 0.397,8.754 0.198,3.781 0.265,6.732 0.198,8.854 0.464,0 1.16,-0.349 2.09,-1.043 0.928,-0.697 1.457,-1.078 1.592,-1.146 1.988,-0.928 3.746,-2.486 5.271,-4.676 1.525,-2.188 2.154,-4.441 1.891,-6.764 -0.332,-2.45 -2.321,-4.34 -5.968,-5.668 z"
   fill="none" />
	<path
   id="path24"
   d="m 246.871,217.218 c 1.96,-3.703 2.94,-7.55 2.94,-11.544 0,-4.863 -1.742,-10.782 -5.228,-17.751 -5.228,-10.455 -7.987,-16.081 -8.277,-16.881 -0.653,-1.814 -0.979,-3.774 -0.979,-5.881 0,-5.663 1.96,-10.455 5.881,-14.376 0.436,-0.436 0.871,-0.653 1.307,-0.653 0.071,0 0.616,0.146 1.634,0.436 0.653,0.218 1.27,0.182 1.852,-0.109 2.104,-1.089 3.158,-2.358 3.158,-3.812 0,-0.798 -0.364,-1.596 -1.089,-2.396 -1.525,-1.669 -3.813,-2.505 -6.861,-2.505 -1.598,0 -3.231,0.4 -4.901,1.198 -3.631,1.743 -6.425,4.612 -8.386,8.604 -1.742,3.485 -2.613,7.443 -2.613,11.871 0,5.374 2.341,12.543 7.024,21.509 4.683,8.968 7.024,15.81 7.024,20.529 0,3.34 -0.763,6.608 -2.287,9.802 -0.364,0.798 -1.089,1.234 -2.178,1.307 -1.09,0.071 -1.78,0.289 -2.069,0.653 -1.09,1.233 -1.634,2.287 -1.634,3.158 0,1.451 1.089,2.65 3.267,3.594 0.581,0.219 1.198,0.327 1.852,0.327 1.67,0 3.557,-0.762 5.663,-2.288 2.612,-1.96 4.246,-3.558 4.9,-4.792 z" />
	<path
   id="path26"
   d="m 288.364,206.763 c -0.438,0 -0.98,0.272 -1.634,0.817 -0.653,0.544 -1.271,0.816 -1.852,0.816 -8.424,0.364 -14.34,-0.653 -17.752,-3.049 -0.582,-1.233 -0.871,-2.903 -0.871,-5.01 0,-3.121 0.689,-7.368 2.069,-12.742 2.031,-0.798 4.754,-1.233 8.168,-1.307 4.065,-0.071 6.861,-0.289 8.386,-0.653 0.871,0.073 1.596,-0.218 2.178,-0.872 0.871,-0.942 1.379,-1.451 1.525,-1.524 0.507,-0.29 0.762,-0.689 0.762,-1.198 0,-0.436 -0.509,-1.378 -1.524,-2.832 -1.453,-0.871 -3.196,-1.307 -5.228,-1.307 -1.089,0 -2.796,0.182 -5.119,0.544 -2.324,0.364 -4.029,0.544 -5.118,0.544 -1.524,0 -2.869,-0.218 -4.029,-0.653 0.289,-6.535 0.762,-10.745 1.415,-12.633 2.686,-1.089 6.644,-2.358 11.871,-3.812 5.228,-1.452 9.185,-2.723 11.871,-3.812 0.507,-0.362 0.763,-0.833 0.763,-1.416 0,-0.363 -0.146,-0.943 -0.436,-1.743 -0.291,-0.798 -0.474,-1.343 -0.545,-1.634 -2.614,-1.524 -4.9,-2.287 -6.861,-2.287 -0.509,0 -0.944,0.038 -1.307,0.109 -3.559,0.871 -7.079,1.78 -10.564,2.723 -4.066,1.089 -7.479,2.324 -10.237,3.703 -2.324,0.944 -4.646,1.889 -6.97,2.832 -2.469,1.235 -3.74,2.905 -3.812,5.01 -0.073,2.251 1.923,3.776 5.989,4.574 -0.436,6.316 -0.727,9.766 -0.871,10.346 -0.146,0.582 -0.745,1.144 -1.797,1.688 -1.053,0.544 -1.616,1.144 -1.688,1.797 -0.218,1.307 0.688,2.651 2.723,4.03 -0.653,5.009 -0.653,10.673 0,16.989 0.218,2.178 1.16,4.139 2.831,5.881 1.67,1.743 3.521,2.868 5.555,3.376 6.461,1.669 14.085,2.358 22.87,2.069 1.161,-0.073 2.051,-0.599 2.668,-1.579 0.616,-0.98 0.817,-2.05 0.6,-3.212 -0.653,-3.484 -1.998,-5.008 -4.029,-4.573 z" />
	<path
   id="path28"
   d="m 300.343,220.595 c 1.16,-2.762 2.358,-6.791 3.594,-12.09 1.307,-5.734 2.358,-9.728 3.158,-11.979 1.596,-1.378 3.813,-2.25 6.645,-2.614 2.467,-0.218 4.937,-0.436 7.405,-0.653 1.379,3.703 2.577,8.314 3.594,13.831 0.943,5.083 3.193,7.95 6.752,8.604 0.436,0.072 1.27,-0.436 2.506,-1.524 1.232,-1.089 1.85,-2.359 1.85,-3.812 0,-0.871 -0.217,-1.887 -0.652,-3.049 -3.92,-11.108 -7.696,-25.229 -11.325,-42.365 -0.365,-2.976 -0.762,-5.953 -1.199,-8.931 -0.58,-3.485 -1.888,-6.099 -3.919,-7.841 -0.8,-0.653 -1.707,-0.98 -2.723,-0.98 -1.38,0 -2.287,0.509 -2.723,1.525 -1.89,4.574 -4.03,11.146 -6.426,19.712 -2.832,9.875 -4.901,16.627 -6.208,20.257 -0.146,0.509 -0.816,0.89 -2.015,1.144 -1.198,0.255 -1.96,0.582 -2.287,0.98 -0.326,0.4 -0.49,0.781 -0.49,1.144 0,0.436 0.508,1.053 1.525,1.852 1.016,0.8 1.487,1.524 1.415,2.178 -0.218,2.251 -1.415,6.027 -3.594,11.326 -1.815,4.647 -2.613,8.349 -2.396,11.108 0.145,1.379 1.416,2.469 3.812,3.268 1.885,0.577 3.119,0.216 3.701,-1.091 z m 15.465,-51.841 c 0.653,2.905 1.342,5.81 2.069,8.713 0.725,3.34 1.197,6.354 1.415,9.039 -4.938,0 -7.987,0.109 -9.147,0.327 1.596,-6.025 3.484,-12.051 5.663,-18.079 z" />
	<path
   id="path30"
   d="m 338.895,156.339 c 1.525,0 4.283,-0.29 8.277,-0.872 3.486,-0.507 6.209,-0.689 8.168,-0.544 0.072,5.228 -0.217,12.815 -0.871,22.762 -0.652,10.383 -0.979,17.97 -0.979,22.761 0,2.978 0.071,5.81 0.219,8.495 0.146,2.106 0.906,4.011 2.287,5.717 1.379,1.705 3.121,2.595 5.229,2.668 1.088,0.071 1.813,-0.473 2.178,-1.634 0.217,-0.727 0.289,-1.78 0.217,-3.158 -0.146,-4.428 -0.217,-8.93 -0.217,-13.504 0,-12.051 0.725,-27.118 2.178,-45.196 1.641,-0.265 3.203,-0.522 4.707,-0.772 0.063,0.138 0.125,0.272 0.193,0.422 2.252,1.904 5.155,2.855 8.713,2.855 1.522,0 4.283,-0.29 8.276,-0.872 3.484,-0.507 6.207,-0.689 8.169,-0.544 0.069,5.228 -0.22,12.815 -0.871,22.762 -0.654,10.383 -0.98,17.97 -0.98,22.761 0,2.978 0.07,5.81 0.217,8.495 0.145,2.106 0.908,4.011 2.287,5.717 1.379,1.705 3.121,2.595 5.229,2.668 1.089,0.071 1.813,-0.473 2.179,-1.634 0.217,-0.727 0.289,-1.78 0.217,-3.158 -0.146,-4.428 -0.217,-8.93 -0.217,-13.504 0,-12.051 0.725,-27.118 2.178,-45.196 6.297,-1.017 11.572,-1.927 15.848,-2.733 0.179,2.637 0.271,5.403 0.271,8.306 0,5.381 -0.545,14.145 -1.633,26.288 -0.945,11.418 -1.345,20.326 -1.199,26.725 0.072,0.073 0.764,0.98 2.07,2.726 0.871,1.309 1.813,1.964 2.832,1.964 0.436,0 0.87,-0.111 1.307,-0.329 3.773,-1.678 8.094,-4.268 12.959,-7.77 8.35,-5.981 12.596,-9.009 12.742,-9.082 0.871,-1.092 0.871,-2.442 0,-4.048 -0.652,-1.167 -1.707,-1.751 -3.158,-1.751 -0.436,0 -1.107,0.073 -2.014,0.218 -0.91,0.146 -1.545,0.218 -1.906,0.218 -1.598,0.8 -4.176,2.434 -7.732,4.901 -3.268,2.178 -5.918,3.703 -7.951,4.574 -0.146,-5.953 0.146,-14.866 0.871,-26.737 0.727,-11.871 0.98,-20.783 0.765,-26.737 -0.088,-0.403 -0.232,-0.755 -0.41,-1.078 0.332,-0.078 0.649,-0.154 0.955,-0.229 1.813,-0.436 3.049,-1.96 3.703,-4.574 0,-1.307 -0.98,-1.96 -2.941,-1.96 0.219,-1.089 -0.326,-1.633 -1.633,-1.633 -1.742,-0.218 -3.922,0 -6.535,0.653 -3.559,0.944 -5.771,1.453 -6.643,1.525 -2.979,0.8 -6.101,1.198 -9.367,1.198 -3.266,0 -6.172,-0.436 -8.711,-1.307 -1.252,0.676 -2.773,1.265 -4.539,1.775 0.022,-0.085 0.051,-0.162 0.073,-0.25 0,-1.307 -0.979,-1.96 -2.94,-1.96 0.219,-1.089 -0.326,-1.633 -1.633,-1.633 -1.742,-0.218 -3.923,0 -6.535,0.653 -3.56,0.944 -5.771,1.453 -6.644,1.525 -2.979,0.8 -6.1,1.198 -9.366,1.198 -3.266,0 -6.173,-0.436 -8.714,-1.307 -3.123,1.685 -7.842,2.855 -14.157,3.514 -7.188,0.66 -11.941,1.392 -14.267,2.197 -0.508,0.585 -0.764,1.135 -0.764,1.647 0,0.073 0.436,1.062 1.309,2.964 2.243,1.903 5.147,2.854 8.704,2.854 z" />
	<path
   id="path32"
   d="m 491.906,154.923 c -0.291,-0.798 -0.474,-1.343 -0.543,-1.634 -2.615,-1.524 -4.902,-2.287 -6.861,-2.287 -0.51,0 -0.945,0.038 -1.307,0.109 -3.56,0.871 -7.08,1.78 -10.564,2.723 -4.065,1.089 -7.479,2.324 -10.238,3.703 -2.323,0.944 -4.646,1.889 -6.969,2.832 -2.471,1.235 -3.74,2.905 -3.813,5.01 -0.072,2.251 1.924,3.776 5.989,4.574 -0.436,6.316 -0.727,9.766 -0.87,10.346 -0.146,0.582 -0.746,1.144 -1.798,1.688 -1.055,0.544 -1.616,1.144 -1.688,1.797 -0.217,1.307 0.688,2.651 2.723,4.03 -0.651,5.009 -0.651,10.673 0,16.989 0.219,2.178 1.162,4.139 2.832,5.881 1.67,1.743 3.521,2.868 5.555,3.376 6.462,1.669 14.084,2.358 22.871,2.069 1.16,-0.073 2.052,-0.599 2.668,-1.579 0.615,-0.98 0.816,-2.05 0.601,-3.212 -0.654,-3.485 -1.998,-5.01 -4.031,-4.574 -0.436,0 -0.979,0.272 -1.633,0.817 -0.654,0.544 -1.271,0.816 -1.853,0.816 -8.424,0.364 -14.34,-0.653 -17.752,-3.049 -0.582,-1.233 -0.871,-2.903 -0.871,-5.01 0,-3.121 0.689,-7.368 2.068,-12.742 2.033,-0.798 4.756,-1.233 8.168,-1.307 4.066,-0.071 6.861,-0.289 8.387,-0.653 0.871,0.073 1.597,-0.218 2.179,-0.872 0.871,-0.942 1.379,-1.451 1.524,-1.524 0.508,-0.29 0.763,-0.689 0.763,-1.198 0,-0.436 -0.509,-1.378 -1.523,-2.832 -1.453,-0.871 -3.197,-1.307 -5.229,-1.307 -1.09,0 -2.795,0.182 -5.118,0.544 -2.324,0.364 -4.029,0.544 -5.117,0.544 -1.525,0 -2.869,-0.218 -4.031,-0.653 0.291,-6.535 0.765,-10.745 1.416,-12.633 2.687,-1.089 6.646,-2.358 11.871,-3.812 5.229,-1.452 9.184,-2.723 11.871,-3.812 0.508,-0.362 0.762,-0.833 0.762,-1.416 -0.003,-0.362 -0.148,-0.942 -0.439,-1.742 z" />
	<path
   id="path34"
   d="m 263.166,252.503 c -2.653,-1.394 -5.207,-2.287 -7.659,-2.687 -4.775,-0.86 -7.826,-1.293 -9.152,-1.293 -1.857,0 -3.549,0.564 -5.073,1.691 0,0.332 -0.149,0.762 -0.448,1.293 -0.298,0.531 -0.414,0.93 -0.348,1.193 0.995,2.188 3.05,3.582 6.168,4.178 0.463,8.49 0.299,17.773 -0.498,27.854 -0.862,0.599 -1.541,1.146 -2.039,1.642 -0.497,0.498 -0.746,1.045 -0.746,1.644 0,1.192 0.696,2.256 2.09,3.184 -0.598,4.311 -0.963,9.781 -1.095,16.412 -0.134,5.504 -0.267,11.043 -0.397,16.612 0.86,1.791 2.387,2.687 4.575,2.687 0.929,0 1.79,-0.232 2.587,-0.695 3.183,-1.856 6.366,-3.715 9.549,-5.57 3.912,-2.389 6.864,-4.811 8.854,-7.264 2.587,-3.182 3.88,-6.664 3.88,-10.443 0,-4.907 -2.753,-9.151 -8.257,-12.733 -1.061,-0.463 -2.172,-0.945 -3.332,-1.44 -1.161,-0.498 -1.84,-1.244 -2.039,-2.238 3.382,-2.32 6.764,-4.676 10.146,-7.063 3.514,-2.918 5.703,-6.168 6.565,-9.75 0.397,-1.723 0.165,-3.844 -0.696,-6.364 -1.262,-3.522 -5.472,-7.135 -12.635,-10.85 z m -0.697,43.869 c 1.26,1.526 1.891,3.282 1.891,5.272 0,0.662 -0.067,1.359 -0.199,2.088 -0.531,2.388 -1.393,4.277 -2.586,5.671 -0.664,0.797 -1.841,1.709 -3.532,2.735 -1.69,1.027 -2.935,2.004 -3.73,2.935 -0.531,-1.726 -0.796,-3.646 -0.796,-5.771 0,-1.457 0.182,-3.631 0.547,-6.516 0.364,-2.885 0.548,-5.023 0.548,-6.416 0,-0.795 -0.034,-1.525 -0.1,-2.188 0.464,-0.199 0.96,-0.299 1.492,-0.299 0.927,0.003 3.082,0.833 6.465,2.489 z m 2.785,-24.869 c -1.525,2.188 -3.283,3.748 -5.271,4.677 -0.135,0.065 -0.664,0.446 -1.592,1.145 -0.93,0.695 -1.626,1.043 -2.09,1.043 0.066,-2.121 0,-5.072 -0.198,-8.854 -0.267,-4.109 -0.397,-7.027 -0.397,-8.755 0,-1.258 0.031,-2.45 0.099,-3.579 0.331,-0.134 0.63,-0.199 0.896,-0.199 0.529,0 1.193,0.266 1.989,0.797 1.127,0.662 1.956,1.094 2.487,1.293 3.646,1.326 5.636,3.217 5.969,5.67 0.263,2.322 -0.366,4.573 -1.892,6.762 z" />
	<path
   id="path36"
   d="m 291.515,262.251 c -0.067,-0.131 -0.067,-0.597 0,-1.394 0,-0.662 -0.1,-0.993 -0.298,-0.993 -0.135,0 -0.333,0.1 -0.598,0.299 -1.26,-0.729 -2.521,-1.095 -3.779,-1.095 -1.592,0 -2.721,0.632 -3.383,1.89 0.133,1.658 0.199,3.351 0.199,5.074 0,4.442 -0.547,11.141 -1.642,20.094 -1.095,8.953 -1.642,15.687 -1.642,20.193 0,2.588 0.133,5.041 0.398,7.36 0.264,2.32 1.823,3.547 4.676,3.683 1.988,0.063 3.282,-0.83 3.879,-2.687 -0.066,-1.66 -0.1,-3.35 -0.1,-5.074 0,-4.641 0.463,-11.506 1.393,-20.592 0.928,-9.084 1.393,-15.881 1.393,-20.393 0,-2.055 -0.066,-4.045 -0.199,-5.969 -0.132,-0.062 -0.231,-0.197 -0.297,-0.396 z" />
	<path
   id="path38"
   d="m 319.866,299.059 c -4.178,-2.453 -8.323,-4.906 -12.435,-7.361 1.79,-2.785 5.869,-7.461 12.235,-14.025 5.438,-5.637 9.085,-10.51 10.943,-14.623 -0.135,-1.791 -1.492,-2.686 -4.078,-2.686 -0.93,0 -1.791,0.166 -2.588,0.496 -2.917,3.449 -5.869,6.865 -8.854,10.246 -3.516,4.047 -6.632,7.297 -9.35,9.75 0.131,-5.306 -0.299,-12.467 -1.294,-21.488 -0.067,-0.795 -0.563,-1.375 -1.492,-1.74 -0.929,-0.363 -1.825,-0.68 -2.687,-0.945 -0.861,0.135 -1.69,0.267 -2.486,0.398 -1.062,0.266 -1.526,0.795 -1.393,1.592 0.928,5.172 1.393,11.275 1.393,18.303 0,2.322 -0.066,5.787 -0.199,10.396 -0.133,4.609 -0.199,8.074 -0.199,10.395 0,6.435 0.398,12.037 1.194,16.813 0.265,1.723 1.259,2.885 2.984,3.479 0.198,0.464 0.696,0.697 1.492,0.697 0.729,0 1.293,-0.135 1.69,-0.397 1.393,-0.599 2.09,-1.691 2.09,-3.283 0,-0.465 -0.066,-1.228 -0.199,-2.287 -0.134,-1.062 -0.199,-1.855 -0.199,-2.387 -0.133,-4.576 -0.299,-8.093 -0.497,-10.546 9.351,5.57 16.247,9.749 20.69,12.533 0.397,0.267 0.762,0.398 1.097,0.398 0.329,0 0.811,-0.164 1.44,-0.498 0.631,-0.33 1.146,-0.496 1.543,-0.496 0.199,0 0.43,0.033 0.694,0.098 0.531,-1.59 0.798,-2.586 0.798,-2.981 0,-0.598 -0.199,-1.062 -0.599,-1.396 -3.18,-2.718 -7.094,-5.535 -11.734,-8.455 z" />
	<path
   id="path40"
   d="m 417.85,255.188 c 1.658,-0.396 2.785,-1.789 3.384,-4.178 0,-1.193 -0.896,-1.791 -2.687,-1.791 0.199,-0.994 -0.299,-1.492 -1.492,-1.492 -1.592,-0.197 -3.582,0 -5.969,0.599 -3.25,0.862 -5.271,1.327 -6.068,1.393 -2.721,0.73 -5.569,1.095 -8.555,1.095 -2.984,0 -5.637,-0.396 -7.959,-1.193 -2.852,1.539 -7.162,2.607 -12.932,3.209 -6.564,0.604 -10.908,1.271 -13.031,2.008 -0.463,0.535 -0.695,1.037 -0.695,1.504 0,0.026 0.062,0.182 0.18,0.458 -0.284,0.015 -0.553,0.039 -0.776,0.083 -3.25,0.797 -6.5,1.627 -9.75,2.486 -3.715,0.996 -6.797,2.125 -9.25,3.383 -2.123,0.863 -4.246,1.725 -6.367,2.586 -2.256,1.129 -3.416,2.654 -3.479,4.576 -0.068,2.057 1.756,3.449 5.471,4.178 -0.398,5.77 -0.664,8.922 -0.797,9.451 -0.133,0.531 -0.68,1.045 -1.641,1.541 -0.964,0.498 -1.478,1.045 -1.541,1.643 -0.199,1.193 0.629,2.422 2.485,3.68 -0.598,4.576 -0.598,9.75 0,15.521 0.199,1.988 1.062,3.779 2.586,5.371 1.525,1.592 3.218,2.619 5.074,3.084 5.899,1.523 12.864,2.154 20.892,1.892 1.059,-0.068 1.872,-0.55 2.436,-1.443 0.564,-0.896 0.746,-1.873 0.549,-2.937 -0.598,-3.182 -1.826,-4.573 -3.682,-4.178 -0.398,0 -0.896,0.25 -1.492,0.746 -0.596,0.498 -1.16,0.746 -1.691,0.746 -7.693,0.334 -13.098,-0.596 -16.215,-2.785 -0.531,-1.127 -0.795,-2.649 -0.795,-4.575 0,-2.851 0.629,-6.729 1.889,-11.64 1.855,-0.729 4.344,-1.127 7.461,-1.192 3.713,-0.064 6.269,-0.265 7.66,-0.597 0.797,0.065 1.459,-0.199 1.99,-0.797 0.795,-0.861 1.26,-1.326 1.393,-1.394 0.463,-0.264 0.697,-0.629 0.697,-1.094 0,-0.398 -0.465,-1.26 -1.395,-2.586 -1.326,-0.797 -2.918,-1.195 -4.775,-1.195 -0.994,0 -2.553,0.168 -4.674,0.498 -2.125,0.332 -3.682,0.498 -4.676,0.498 -1.394,0 -2.621,-0.199 -3.683,-0.598 0.267,-5.969 0.697,-9.814 1.293,-11.539 2.453,-0.994 6.068,-2.154 10.845,-3.482 4.774,-1.324 8.389,-2.485 10.844,-3.479 0.463,-0.332 0.695,-0.763 0.695,-1.293 0,-0.103 -0.019,-0.229 -0.043,-0.366 0.467,0.04 0.94,0.066 1.436,0.066 1.393,0 3.912,-0.264 7.561,-0.797 3.185,-0.463 5.67,-0.629 7.461,-0.496 0.066,4.773 -0.199,11.705 -0.795,20.791 -0.598,9.484 -0.896,16.412 -0.896,20.789 0,2.722 0.065,5.308 0.198,7.761 0.134,1.924 0.828,3.664 2.091,5.223 1.258,1.558 2.85,2.371 4.772,2.438 0.996,0.063 1.658,-0.433 1.99,-1.492 0.199,-0.664 0.264,-1.627 0.199,-2.885 -0.133,-4.045 -0.199,-8.158 -0.199,-12.336 0,-11.008 0.662,-24.771 1.99,-41.283 10.673,-1.727 18.167,-3.121 22.478,-4.184 z" />
	<path
   id="path42"
   d="m 433.467,269.514 c -0.332,-2.718 -0.695,-5.437 -1.094,-8.156 -0.531,-3.185 -1.725,-5.57 -3.58,-7.162 -0.73,-0.598 -1.561,-0.896 -2.488,-0.896 -1.26,0 -2.088,0.466 -2.485,1.394 -1.726,4.178 -3.683,10.18 -5.869,18.004 -2.586,9.02 -4.478,15.188 -5.67,18.504 -0.136,0.465 -0.746,0.813 -1.84,1.043 -1.097,0.234 -1.791,0.533 -2.091,0.896 -0.299,0.364 -0.446,0.713 -0.446,1.045 0,0.396 0.463,0.961 1.393,1.688 0.928,0.729 1.357,1.394 1.293,1.989 -0.199,2.058 -1.293,5.507 -3.283,10.347 -1.657,4.244 -2.387,7.625 -2.188,10.146 0.131,1.26 1.293,2.254 3.479,2.983 1.726,0.529 2.853,0.199 3.384,-0.994 1.061,-2.521 2.153,-6.203 3.282,-11.043 1.193,-5.238 2.154,-8.885 2.886,-10.941 1.457,-1.26 3.479,-2.055 6.067,-2.389 2.254,-0.197 4.508,-0.396 6.765,-0.596 1.26,3.381 2.354,7.594 3.282,12.633 0.861,4.644 2.918,7.262 6.168,7.859 0.396,0.063 1.158,-0.398 2.287,-1.394 1.127,-0.995 1.691,-2.153 1.691,-3.481 0,-0.795 -0.199,-1.723 -0.598,-2.785 -3.58,-10.145 -7.029,-23.043 -10.345,-38.694 z m -12.533,19.995 c 1.457,-5.504 3.185,-11.008 5.172,-16.514 0.599,2.653 1.228,5.307 1.892,7.959 0.662,3.051 1.094,5.803 1.293,8.256 -4.512,0 -7.297,0.101 -8.357,0.299 z" />
	<path
   id="path44"
   d="m 480.221,281.251 c -1.592,0.136 -2.123,0.199 -1.592,0.199 -1.725,0 -2.92,0.93 -3.582,2.784 -0.861,2.521 -1.625,4.048 -2.287,4.576 -8.819,7.361 -15.42,11.904 -19.797,13.629 -0.463,0.199 -0.828,0.019 -1.094,-0.547 -0.266,-0.563 -0.465,-0.879 -0.596,-0.944 -0.068,-0.861 -0.101,-1.726 -0.101,-2.587 0,-4.774 1.424,-10.18 4.277,-16.215 4.641,-9.748 9.748,-17.707 15.317,-23.875 0.134,-0.131 1.359,-0.828 3.683,-2.088 1.393,-0.729 1.955,-1.924 1.69,-3.582 -0.334,-1.99 -1.825,-2.983 -4.477,-2.983 -2.984,0 -6.4,2.555 -10.246,7.659 -7.695,10.279 -13.297,20.791 -16.813,31.533 -1.127,3.383 -1.691,6.334 -1.691,8.854 0,2.854 0.73,5.239 2.189,7.162 2.586,3.449 5.403,5.174 8.454,5.174 0.798,0 1.593,-0.133 2.388,-0.398 5.77,-2.12 10.942,-5.337 15.52,-9.647 -0.397,3.846 -0.729,6.729 -0.996,8.654 0,0.86 -0.133,2.237 -0.396,4.127 -0.267,1.891 -0.398,3.299 -0.398,4.229 0,3.248 1.426,5.471 4.277,6.664 0.528,0.199 1.094,0.299 1.69,0.299 2.056,0 3.148,-0.83 3.283,-2.485 0.265,-5.638 0.563,-11.273 0.896,-16.91 0.528,-6.5 1.69,-11.972 3.481,-16.414 0.265,-0.662 0.396,-1.293 0.396,-1.892 0,-1.192 -0.631,-2.719 -1.89,-4.576 -0.259,-0.4 -0.79,-0.531 -1.585,-0.4 z" />
</g>
</svg>
