<?xml version="1.0" encoding="utf-8"?>
<!-- Generator: Adobe Illustrator 16.0.0, SVG Export Plug-In . SVG Version: 6.00 Build 0)  -->
<!DOCTYPE svg PUBLIC "-//W3C//DTD SVG 1.1//EN" "http://www.w3.org/Graphics/SVG/1.1/DTD/svg11.dtd">
<svg version="1.1" id="Layer_1" xmlns="http://www.w3.org/2000/svg" xmlns:xlink="http://www.w3.org/1999/xlink" x="0px" y="0px"
	 width="646px" height="449px" viewBox="0 0 646 449" enable-background="new 0 0 646 449" xml:space="preserve">
<g>
	<path fill="#FFFFFF" d="M325.27,357.533c-16.433-0.225-32.743-0.223-49.151-1.422c-15.524-1.135-31.074-3.297-46.634-3.772
		c-15.959-0.486-36.145,2.735-48.349-10.197c-5.475-5.801-8.446-13.046-11.948-20.029c0.671,5.056,0.98,10.216,1.584,15.618
		c0.657,5.876,1.697,11.993,5.652,16.649c4.59,5.402,10.826,6.656,17.639,6.352c30.201-1.348,60.608,0.606,90.824,1.76
		c16.564,0.632,33.127,1.337,49.681,2.198c16.896,0.879,33.766,2.282,50.693,2.319c23.436,0.051,46.807-1.476,70.193-2.719
		c-10.844-0.058-21.686-0.44-32.514-1.044C390.385,361.432,357.893,357.979,325.27,357.533z"/>
	<path fill="#FFFFFF" d="M502.752,363.008c7.027,0.073,14.053,0.17,21.078,0.027c7.955-0.161,16.773-1.03,23.387-5.925
		c0.484-0.358,0.949-0.733,1.4-1.119C535.336,363.81,517.568,363.005,502.752,363.008z"/>
	<path fill="#FFFFFF" d="M181.291,102.204c-8.022,2.767-14.501,8.1-17.108,18.356c-1.54,6.057-1.859,12.212-1.9,18.395
		c0.668-2.808,1.376-5.604,2.176-8.372C167.711,119.32,173.063,109.393,181.291,102.204z"/>
	<path fill="#FFFFFF" d="M560.314,194.73c0.365-16.256,0.832-32.631-0.801-48.837c-0.926-9.19-1.801-19.681-6.119-28.194
		c1.537,5.031,1.957,10.492,1.986,15.651c0.059,10.519-1.27,20.949-2.404,31.387c-1.363,12.515-1.162,24.8-0.014,37.347
		c1.416,15.468,3.693,30.879,4.436,46.405c0.689,14.407,0.029,28.743,1.145,43.151c1.039,13.422,2.551,27.047,1.465,40.514
		c-0.01,0.133-0.021,0.266-0.033,0.398c2.217-13.338,1.84-27.242,1.82-40.695C561.746,259.452,559.588,227.139,560.314,194.73z"/>
	<path fill="#FFFFFF" d="M132.431,254.3c-0.204-0.659-0.397-1.32-0.582-1.984c0.894,6.045,2.331,11.946,4.396,17.266
		c4.021,10.367,10.771,18.855,18.011,27.15c2.247,2.575,4.499,5.172,6.68,7.824c-4.554-8.792-10.141-16.912-15.567-25.184
		C140.213,271.517,135.236,263.333,132.431,254.3z"/>
	<path fill="#FFFFFF" d="M217.643,97.138c32.935,0.028,65.866,0.5,98.794,1.151c65.239,1.29,130.473,3.149,195.731,3.188
		c6.01-0.093,12.811-0.54,19.33,0.004c-17.84-5.559-38.318-3.132-56.537-3.18c-14.037-0.037-28.111-1.991-42.125-2.841
		c-16.348-0.991-32.707-1.756-49.057-2.735c-29.883-1.791-59.586-4.877-89.554-5.399c-15.119-0.263-30.255-0.175-45.36,0.581
		c-14.566,0.729-30.038,1.091-44.269,4.567c-4.771,1.166-9.457,2.791-13.773,5.048C199.782,96.45,209.256,97.131,217.643,97.138z"/>
	<path fill="#FFFFFF" d="M153.178,186.113c-1.644,2.687-3.56,5.245-5.559,7.754c0.254-0.299,0.508-0.596,0.761-0.898
		C150.241,190.74,151.817,188.454,153.178,186.113z"/>
	<path fill="#FFFFFF" d="M169.432,123.684c0.839-1.359,1.772-2.68,2.816-3.957c6.441-7.88,15.174-13.149,24.862-16.109
		c7.198-2.199,14.551-3.548,21.981-4.301c-4.146-0.015-8.291-0.037-12.438-0.044c-7.161-0.013-14.767,0.188-21.593,1.834
		c-2.521,1.868-4.833,4.035-6.854,6.559C174.353,112.479,171.549,117.941,169.432,123.684z"/>
	<path fill="#FFFFFF" d="M553.699,238.01c-1.391-15.415-3.678-30.769-4.439-46.236c-0.529-10.728,0.197-21.001,1.389-31.65
		c1.758-15.71,6.631-42.061-7.842-53.33c-8.602-4.253-19.703-3.39-29.506-3.167c-0.102,0.019-0.209,0.03-0.322,0.03
		c-0.369,0-0.738-0.002-1.107-0.003c-0.563,0.009-1.121,0.015-1.672,0.016c-0.107,0-0.205-0.009-0.299-0.021
		c-4.949-0.004-9.9-0.011-14.852-0.037c-40.584-0.208-81.156-1.053-121.73-1.938c-0.398,0.242-0.881,0.429-1.23,0.43
		c-30.553,0.063-61.336,3.747-91.841,1.113c-27.046-2.335-56.283-6.951-82.783,1.716c-12.717,4.159-24.019,12.665-28.754,25.6
		c-4.473,12.216-3.613,25.22-6.057,37.828c-2.345,12.105-7.961,20.755-16.153,29.717c-5.56,6.083-10.325,12.262-13.077,19.549
		c-1.932,11.068-1.925,22.782,1.207,33.566c5.781,19.911,20.707,35.041,29.654,53.412c1.409,2.894,2.428,5.771,3.199,8.654
		c1.867,2.771,3.588,5.638,5.043,8.67c4.609,9.607,8.945,20.081,19.223,24.908c8.332,3.914,17.66,3.844,26.679,3.846
		c12.573,0.002,24.956,0.998,37.479,2.108c16.943,1.503,33.928,3.038,50.949,3.193c16.32,0.148,32.57,0.202,48.875,1.142
		c32.549,1.877,65.047,5.307,97.67,5.631c13.402,0.134,26.693-0.916,40.066-1.199c9.031-0.192,18.076,0.109,27.102-0.404
		c9.143-0.521,20.344-1.229,27.961-6.946c8.928-6.701,8.875-19.33,8.889-29.526c0.016-14.164-1.717-28.223-2.461-42.352
		C554.18,267.537,555.035,252.8,553.699,238.01z M168.547,230.941c-0.248,2.14-0.848,6.552-2.011,10.828
		c-0.081,1.367-0.144,2.72-0.17,4.049c-0.041,2.206-0.925,2.323-1.829,1.559c-2.198,4.61-5.467,7.22-10.25,2.917
		c-7.523-6.771-7.336-19.55-5.703-29.103c0.675-3.914,1.856-10.618,5.954-12.175c4.022-1.529,8.336,0.813,10.126,4.859
		c1.84,4.154,2.455,8.667,2.547,13.276C168.03,228.087,168.696,229.677,168.547,230.941z"/>
	<path fill="#FFFFFF" d="M159.059,215.453c-4.113-0.436-5.645,3.624-6.384,7.315c-1.024,5.102-3.34,17.896,1.878,21.148
		c4.33,2.701,6.748-0.24,8.161-4.43c0.253-4.584,0.693-9.154,0.561-13.76C163.175,222.161,163.546,215.927,159.059,215.453z"/>
	<path fill="#FFFFFF" d="M258.698,99.591c5.219,0.421,10.411,0.923,15.55,1.425c24.711,2.414,49.415,1.002,74.147,0.113
		c-16.623-0.359-33.248-0.705-49.873-0.996C285.248,99.901,271.973,99.728,258.698,99.591z"/>
	<path d="M564.674,281.75c-0.174-16.509-0.811-33.009-1.441-49.505c-0.604-15.744-0.074-31.475,0.221-47.219
		c0.283-15.144,0.014-30.21-1.613-45.277c-1.018-9.421-2.869-19.451-8.26-27.447c-2.537-3.762-5.848-6.271-9.604-7.939
		c-5.592-3.61-13.037-5.111-19.143-6.127c-21.424-3.567-43.434-0.63-65.008-2.46c-31.963-2.712-64.047-3.525-96.004-6.26
		c-29.436-2.519-58.977-4.025-88.525-3.828c-14.447,0.097-28.891,0.702-43.293,1.871c-11.939,0.97-24.061,1.946-35.456,5.86
		c-3.611,1.24-6.874,2.847-9.853,4.74c-5.789,1.107-11.246,3.142-15.906,6.816c-14.188,11.187-11.68,32.167-11.801,49.617
		c-1.07,5.57-2.1,11.146-3.255,16.671c-0.95,4.543-2.335,8.507-4.238,12.296c-2.706,4.252-6.044,8.166-9.815,11.896
		c-6.511,6.439-9.625,13.737-11.188,22.462c-0.314,0.828-0.612,1.67-0.875,2.543c-3.82,12.708-1.346,27.422,0.99,40.168
		c1.96,10.689,7.188,20.17,13.779,28.668c6.424,8.279,13.895,15.658,19.885,24.286c0.184,0.263,0.353,0.532,0.529,0.798
		c2.297,8.706,2.213,17.713,3.408,26.899c1.217,9.347,6.129,18.924,16.146,20.964c4.954,1.01,9.942,0.695,14.95,0.326
		c7.849-0.579,15.658-0.199,23.517,0.04c32.945,1.003,65.889,2.079,98.813,3.642c32.201,1.527,64.013,3.557,96.269,2.196
		c31.986-1.349,63.924-4.099,95.963-3.444c14.986,0.307,31.572,0.453,41.523-12.721c5.229-6.92,7.127-15.937,8.162-24.357
		C565.42,312.745,564.836,297.012,564.674,281.75z M204.596,92.473c14.23-3.476,29.702-3.838,44.269-4.567
		c15.105-0.755,30.241-0.844,45.36-0.581c29.968,0.521,59.671,3.608,89.554,5.399c16.35,0.979,32.709,1.744,49.057,2.735
		c14.014,0.85,28.088,2.805,42.125,2.841c18.219,0.047,38.697-2.379,56.537,3.18c-6.52-0.544-13.32-0.097-19.33-0.004
		c-65.258-0.038-130.492-1.897-195.731-3.188c-32.928-0.651-65.859-1.123-98.794-1.151c-8.387-0.007-17.861-0.688-26.82,0.383
		C195.139,95.264,199.825,93.639,204.596,92.473z M348.395,101.13c-24.732,0.889-49.436,2.301-74.147-0.113
		c-5.139-0.502-10.331-1.004-15.55-1.425c13.275,0.137,26.55,0.31,39.824,0.542C315.147,100.425,331.771,100.771,348.395,101.13z
		 M185.062,101.106c6.826-1.646,14.432-1.847,21.593-1.834c4.146,0.007,8.291,0.029,12.438,0.044
		c-7.431,0.753-14.783,2.102-21.981,4.301c-9.688,2.96-18.421,8.229-24.862,16.109c-1.044,1.277-1.978,2.598-2.816,3.957
		c2.117-5.742,4.921-11.205,8.775-16.019C180.229,105.141,182.542,102.974,185.062,101.106z M164.182,120.56
		c2.607-10.256,9.086-15.59,17.108-18.356c-8.228,7.189-13.579,17.117-16.833,28.38c-0.8,2.768-1.508,5.564-2.176,8.372
		C162.323,132.772,162.642,126.617,164.182,120.56z M153.178,186.113c-1.361,2.341-2.938,4.627-4.798,6.855
		c-0.253,0.303-0.507,0.599-0.761,0.898C149.619,191.358,151.535,188.8,153.178,186.113z M154.255,296.731
		c-7.239-8.295-13.99-16.783-18.011-27.15c-2.064-5.319-3.502-11.221-4.396-17.266c0.185,0.664,0.378,1.325,0.582,1.984
		c2.805,9.033,7.782,17.217,12.937,25.072c5.427,8.271,11.014,16.392,15.567,25.184
		C158.754,301.903,156.502,299.307,154.255,296.731z M385.262,367.009c-16.928-0.037-33.797-1.44-50.693-2.319
		c-16.554-0.861-33.117-1.566-49.681-2.198c-30.216-1.153-60.623-3.107-90.824-1.76c-6.813,0.305-13.049-0.949-17.639-6.352
		c-3.955-4.656-4.995-10.773-5.652-16.649c-0.604-5.402-0.913-10.563-1.584-15.618c3.502,6.983,6.474,14.229,11.948,20.029
		c12.204,12.933,32.39,9.711,48.349,10.197c15.56,0.476,31.109,2.638,46.634,3.772c16.408,1.199,32.718,1.197,49.151,1.422
		c32.623,0.446,65.115,3.898,97.672,5.713c10.828,0.604,21.67,0.986,32.514,1.044C432.068,365.533,408.697,367.06,385.262,367.009z
		 M547.217,357.11c-6.613,4.895-15.432,5.764-23.387,5.925c-7.025,0.143-14.051,0.046-21.078-0.027
		c14.816-0.003,32.584,0.802,45.865-7.017C548.166,356.377,547.701,356.752,547.217,357.11z M548.529,354.207
		c-7.617,5.718-18.818,6.425-27.961,6.946c-9.025,0.514-18.07,0.212-27.102,0.404c-13.373,0.283-26.664,1.333-40.066,1.199
		c-32.623-0.324-65.121-3.754-97.67-5.631c-16.305-0.939-32.555-0.993-48.875-1.142c-17.021-0.155-34.006-1.69-50.949-3.193
		c-12.523-1.11-24.906-2.106-37.479-2.108c-9.019-0.002-18.347,0.068-26.679-3.846c-10.277-4.827-14.613-15.301-19.223-24.908
		c-1.455-3.032-3.176-5.898-5.043-8.67c-0.771-2.884-1.79-5.761-3.199-8.654c-8.947-18.371-23.873-33.501-29.654-53.412
		c-3.132-10.784-3.139-22.498-1.207-33.566c2.752-7.287,7.518-13.467,13.077-19.549c8.192-8.962,13.809-17.612,16.153-29.717
		c2.443-12.608,1.584-25.612,6.057-37.828c4.735-12.935,16.037-21.441,28.754-25.6c26.5-8.667,55.737-4.051,82.783-1.716
		c30.505,2.634,61.289-1.051,91.841-1.113c0.35,0,0.832-0.188,1.23-0.43c40.574,0.886,81.146,1.73,121.73,1.938
		c4.951,0.025,9.902,0.032,14.852,0.037c0.094,0.012,0.191,0.021,0.299,0.021c0.551-0.001,1.109-0.007,1.672-0.016
		c0.369,0,0.738,0.003,1.107,0.003c0.113,0,0.221-0.011,0.322-0.03c9.803-0.223,20.904-1.086,29.506,3.167
		c14.473,11.269,9.6,37.62,7.842,53.33c-1.191,10.649-1.918,20.923-1.389,31.65c0.762,15.467,3.049,30.822,4.439,46.236
		c1.336,14.79,0.48,29.527,1.258,44.319c0.744,14.129,2.477,28.188,2.461,42.352C557.404,334.877,557.457,347.506,548.529,354.207z
		 M559.975,332.552c0.012-0.133,0.023-0.266,0.033-0.398c1.086-13.467-0.426-27.092-1.465-40.514
		c-1.115-14.408-0.455-28.744-1.145-43.151c-0.742-15.525-3.02-30.937-4.436-46.405c-1.148-12.546-1.35-24.832,0.014-37.347
		c1.135-10.438,2.463-20.868,2.404-31.387c-0.029-5.159-0.449-10.621-1.986-15.651c4.318,8.513,5.193,19.004,6.119,28.194
		c1.633,16.207,1.166,32.581,0.801,48.837c-0.727,32.409,1.432,64.722,1.48,97.126C561.814,305.31,562.191,319.214,559.975,332.552z
		"/>
	<path d="M164.665,213.876c-1.79-4.047-6.104-6.389-10.126-4.859c-4.098,1.557-5.279,8.261-5.954,12.175
		c-1.633,9.553-1.82,22.331,5.703,29.103c4.783,4.303,8.052,1.693,10.25-2.917c0.904,0.765,1.788,0.647,1.829-1.559
		c0.026-1.329,0.089-2.682,0.17-4.049c1.163-4.276,1.763-8.688,2.011-10.828c0.148-1.265-0.518-2.854-1.336-3.789
		C167.12,222.542,166.504,218.03,164.665,213.876z M162.714,239.487c-1.413,4.189-3.831,7.131-8.161,4.43
		c-5.218-3.252-2.902-16.047-1.878-21.148c0.739-3.691,2.271-7.751,6.384-7.315c4.487,0.474,4.116,6.708,4.216,10.274
		C163.408,230.333,162.967,234.903,162.714,239.487z"/>
</g>
<g>
	<path fill="none" d="M426.105,272.995c-1.988,5.506-3.715,11.01-5.172,16.514c1.061-0.199,3.846-0.299,8.355-0.299
		c-0.199-2.453-0.631-5.205-1.293-8.256C427.332,278.302,426.703,275.649,426.105,272.995z"/>
	<path fill="none" d="M254.511,294.185c0.065,0.662,0.1,1.393,0.1,2.188c0,1.393-0.184,3.531-0.548,6.416
		c-0.365,2.885-0.547,5.059-0.547,6.516c0,2.123,0.265,4.045,0.796,5.77c0.796-0.93,2.04-1.906,3.73-2.934
		c1.691-1.027,2.868-1.939,3.532-2.736c1.193-1.393,2.055-3.283,2.586-5.67c0.132-0.729,0.199-1.426,0.199-2.088
		c0-1.99-0.631-3.746-1.891-5.273c-3.383-1.656-5.538-2.486-6.466-2.486C255.471,293.886,254.975,293.985,254.511,294.185z"/>
	<path fill="none" d="M317.877,177.467c-0.728-2.903-1.416-5.808-2.069-8.713c-2.179,6.027-4.067,12.053-5.663,18.079
		c1.16-0.218,4.21-0.327,9.147-0.327C319.075,183.821,318.602,180.808,317.877,177.467z"/>
	<path fill="none" d="M261.176,259.069c-0.531-0.199-1.36-0.631-2.487-1.293c-0.796-0.531-1.46-0.797-1.989-0.797
		c-0.266,0-0.564,0.066-0.896,0.199c-0.067,1.129-0.099,2.322-0.099,3.58c0,1.727,0.131,4.645,0.397,8.754
		c0.198,3.781,0.265,6.732,0.198,8.854c0.464,0,1.16-0.348,2.09-1.043c0.928-0.697,1.457-1.078,1.592-1.145
		c1.988-0.928,3.746-2.486,5.271-4.676c1.525-2.188,2.154-4.441,1.891-6.764C266.812,262.286,264.823,260.396,261.176,259.069z"/>
	<path d="M246.871,217.218c1.96-3.703,2.94-7.55,2.94-11.544c0-4.863-1.742-10.782-5.228-17.751
		c-5.228-10.455-7.987-16.081-8.277-16.881c-0.653-1.814-0.979-3.774-0.979-5.881c0-5.663,1.96-10.455,5.881-14.376
		c0.436-0.436,0.871-0.653,1.307-0.653c0.071,0,0.616,0.146,1.634,0.436c0.653,0.218,1.27,0.182,1.852-0.109
		c2.104-1.089,3.158-2.358,3.158-3.812c0-0.798-0.364-1.596-1.089-2.396c-1.525-1.669-3.813-2.505-6.861-2.505
		c-1.598,0-3.231,0.4-4.901,1.198c-3.631,1.743-6.425,4.612-8.386,8.604c-1.742,3.485-2.613,7.443-2.613,11.871
		c0,5.374,2.341,12.543,7.024,21.509c4.683,8.968,7.024,15.81,7.024,20.529c0,3.34-0.763,6.608-2.287,9.802
		c-0.364,0.798-1.089,1.234-2.178,1.307c-1.09,0.071-1.78,0.289-2.069,0.653c-1.09,1.233-1.634,2.287-1.634,3.158
		c0,1.451,1.089,2.65,3.267,3.594c0.581,0.219,1.198,0.327,1.852,0.327c1.67,0,3.557-0.762,5.663-2.288
		C244.583,220.05,246.217,218.452,246.871,217.218z"/>
	<path d="M288.364,206.763c-0.437,0-0.98,0.272-1.634,0.817c-0.653,0.544-1.271,0.816-1.852,0.816
		c-8.424,0.364-14.34-0.653-17.752-3.049c-0.582-1.233-0.871-2.903-0.871-5.01c0-3.121,0.689-7.368,2.069-12.742
		c2.031-0.798,4.754-1.233,8.168-1.307c4.065-0.071,6.861-0.289,8.386-0.653c0.871,0.073,1.596-0.218,2.178-0.872
		c0.871-0.942,1.379-1.451,1.525-1.524c0.507-0.29,0.762-0.689,0.762-1.198c0-0.436-0.509-1.378-1.524-2.832
		c-1.453-0.871-3.196-1.307-5.228-1.307c-1.089,0-2.796,0.182-5.119,0.544c-2.324,0.364-4.029,0.544-5.118,0.544
		c-1.524,0-2.869-0.218-4.029-0.653c0.289-6.535,0.762-10.745,1.415-12.633c2.686-1.089,6.644-2.358,11.871-3.812
		c5.228-1.452,9.185-2.723,11.871-3.812c0.507-0.362,0.763-0.833,0.763-1.416c0-0.363-0.146-0.943-0.436-1.743
		c-0.291-0.798-0.474-1.343-0.545-1.634c-2.614-1.524-4.9-2.287-6.861-2.287c-0.509,0-0.944,0.038-1.307,0.109
		c-3.559,0.871-7.079,1.78-10.564,2.723c-4.066,1.089-7.479,2.324-10.237,3.703c-2.324,0.944-4.646,1.889-6.97,2.832
		c-2.469,1.235-3.74,2.905-3.812,5.01c-0.073,2.251,1.923,3.776,5.989,4.574c-0.436,6.316-0.727,9.766-0.871,10.346
		c-0.146,0.582-0.745,1.144-1.797,1.688c-1.053,0.544-1.616,1.144-1.688,1.797c-0.218,1.307,0.688,2.651,2.723,4.03
		c-0.653,5.009-0.653,10.673,0,16.989c0.218,2.178,1.16,4.139,2.831,5.881c1.67,1.743,3.521,2.868,5.555,3.376
		c6.461,1.669,14.085,2.358,22.87,2.069c1.161-0.073,2.051-0.599,2.668-1.579c0.616-0.98,0.817-2.05,0.6-3.212
		C291.74,207.852,290.395,206.328,288.364,206.763z"/>
	<path d="M300.343,220.595c1.16-2.762,2.358-6.791,3.594-12.09c1.307-5.734,2.358-9.728,3.158-11.979
		c1.596-1.378,3.812-2.25,6.644-2.614c2.467-0.218,4.937-0.436,7.405-0.653c1.379,3.703,2.577,8.314,3.594,13.831
		c0.943,5.083,3.193,7.95,6.752,8.604c0.436,0.072,1.27-0.436,2.506-1.524c1.232-1.089,1.85-2.359,1.85-3.812
		c0-0.871-0.217-1.887-0.652-3.049c-3.92-11.108-7.697-25.229-11.326-42.365c-0.365-2.976-0.762-5.953-1.199-8.931
		c-0.58-3.485-1.888-6.099-3.919-7.841c-0.8-0.653-1.707-0.98-2.723-0.98c-1.38,0-2.287,0.509-2.723,1.525
		c-1.89,4.574-4.03,11.146-6.426,19.712c-2.832,9.875-4.901,16.627-6.208,20.257c-0.146,0.509-0.816,0.89-2.015,1.144
		c-1.198,0.255-1.96,0.582-2.287,0.98c-0.326,0.4-0.49,0.781-0.49,1.144c0,0.436,0.508,1.053,1.525,1.852
		c1.016,0.8,1.487,1.524,1.415,2.178c-0.218,2.251-1.415,6.027-3.594,11.326c-1.815,4.647-2.613,8.349-2.396,11.108
		c0.145,1.379,1.416,2.469,3.812,3.268C298.527,222.263,299.761,221.902,300.343,220.595z M315.808,168.754
		c0.653,2.905,1.342,5.81,2.069,8.713c0.725,3.34,1.197,6.354,1.415,9.039c-4.938,0-7.987,0.109-9.147,0.327
		C311.741,180.808,313.629,174.782,315.808,168.754z"/>
	<path d="M338.895,156.339c1.525,0,4.283-0.29,8.277-0.872c3.486-0.507,6.209-0.689,8.168-0.544
		c0.072,5.228-0.217,12.815-0.871,22.762c-0.652,10.383-0.98,17.97-0.98,22.761c0,2.978,0.072,5.81,0.219,8.495
		c0.145,2.106,0.906,4.011,2.287,5.717c1.379,1.705,3.121,2.595,5.229,2.668c1.088,0.071,1.813-0.473,2.178-1.634
		c0.217-0.727,0.289-1.78,0.217-3.158c-0.146-4.428-0.217-8.93-0.217-13.504c0-12.051,0.725-27.118,2.178-45.196
		c1.641-0.265,3.203-0.522,4.707-0.772c0.063,0.138,0.125,0.272,0.193,0.422c2.252,1.904,5.156,2.855,8.713,2.855
		c1.523,0,4.283-0.29,8.277-0.872c3.484-0.507,6.207-0.689,8.168-0.544c0.07,5.228-0.219,12.815-0.871,22.762
		c-0.654,10.383-0.98,17.97-0.98,22.761c0,2.978,0.07,5.81,0.217,8.495c0.145,2.106,0.908,4.011,2.287,5.717
		c1.379,1.705,3.121,2.595,5.229,2.668c1.088,0.071,1.813-0.473,2.178-1.634c0.217-0.727,0.289-1.78,0.217-3.158
		c-0.146-4.428-0.217-8.93-0.217-13.504c0-12.051,0.725-27.118,2.178-45.196c6.297-1.017,11.572-1.927,15.848-2.733
		c0.178,2.637,0.27,5.403,0.27,8.306c0,5.381-0.545,14.145-1.633,26.288c-0.945,11.418-1.344,20.326-1.199,26.725
		c0.072,0.073,0.764,0.98,2.07,2.726c0.871,1.309,1.814,1.964,2.832,1.964c0.436,0,0.871-0.111,1.307-0.329
		c3.773-1.678,8.094-4.268,12.959-7.77c8.35-5.981,12.596-9.009,12.742-9.082c0.871-1.092,0.871-2.442,0-4.048
		c-0.652-1.167-1.707-1.751-3.158-1.751c-0.436,0-1.107,0.073-2.014,0.218c-0.91,0.146-1.545,0.218-1.906,0.218
		c-1.598,0.8-4.176,2.434-7.732,4.901c-3.268,2.178-5.918,3.703-7.951,4.574c-0.146-5.953,0.145-14.866,0.871-26.737
		s0.98-20.783,0.764-26.737c-0.088-0.403-0.232-0.755-0.41-1.078c0.332-0.078,0.65-0.154,0.955-0.229
		c1.814-0.436,3.049-1.96,3.703-4.574c0-1.307-0.98-1.96-2.941-1.96c0.219-1.089-0.326-1.633-1.633-1.633
		c-1.742-0.218-3.922,0-6.535,0.653c-3.559,0.944-5.771,1.453-6.643,1.525c-2.979,0.8-6.1,1.198-9.367,1.198
		c-3.266,0-6.172-0.436-8.711-1.307c-1.252,0.676-2.773,1.265-4.539,1.775c0.023-0.085,0.051-0.162,0.074-0.25
		c0-1.307-0.98-1.96-2.941-1.96c0.219-1.089-0.326-1.633-1.633-1.633c-1.742-0.218-3.922,0-6.535,0.653
		c-3.559,0.944-5.771,1.453-6.643,1.525c-2.979,0.8-6.1,1.198-9.367,1.198c-3.266,0-6.172-0.436-8.713-1.307
		c-3.123,1.685-7.842,2.855-14.158,3.514c-7.188,0.66-11.941,1.392-14.266,2.197c-0.508,0.585-0.764,1.135-0.764,1.647
		c0,0.073,0.436,1.062,1.309,2.964C332.434,155.388,335.338,156.339,338.895,156.339z"/>
	<path d="M491.906,154.923c-0.291-0.798-0.473-1.343-0.543-1.634c-2.615-1.524-4.902-2.287-6.861-2.287
		c-0.51,0-0.945,0.038-1.307,0.109c-3.559,0.871-7.08,1.78-10.564,2.723c-4.066,1.089-7.479,2.324-10.238,3.703
		c-2.324,0.944-4.646,1.889-6.969,2.832c-2.471,1.235-3.74,2.905-3.813,5.01c-0.072,2.251,1.924,3.776,5.99,4.574
		c-0.436,6.316-0.727,9.766-0.871,10.346c-0.146,0.582-0.746,1.144-1.797,1.688c-1.055,0.544-1.617,1.144-1.689,1.797
		c-0.217,1.307,0.689,2.651,2.723,4.03c-0.652,5.009-0.652,10.673,0,16.989c0.219,2.178,1.162,4.139,2.832,5.881
		c1.67,1.743,3.521,2.868,5.555,3.376c6.461,1.669,14.084,2.358,22.871,2.069c1.16-0.073,2.051-0.599,2.668-1.579
		c0.615-0.98,0.816-2.05,0.6-3.212c-0.654-3.485-1.998-5.01-4.031-4.574c-0.436,0-0.979,0.272-1.633,0.817
		c-0.654,0.544-1.271,0.816-1.852,0.816c-8.424,0.364-14.34-0.653-17.752-3.049c-0.582-1.233-0.871-2.903-0.871-5.01
		c0-3.121,0.689-7.368,2.068-12.742c2.033-0.798,4.756-1.233,8.168-1.307c4.066-0.071,6.861-0.289,8.387-0.653
		c0.871,0.073,1.596-0.218,2.178-0.872c0.871-0.942,1.379-1.451,1.525-1.524c0.508-0.29,0.762-0.689,0.762-1.198
		c0-0.436-0.508-1.378-1.523-2.832c-1.453-0.871-3.197-1.307-5.229-1.307c-1.09,0-2.795,0.182-5.119,0.544
		c-2.324,0.364-4.029,0.544-5.117,0.544c-1.525,0-2.869-0.218-4.031-0.653c0.291-6.535,0.764-10.745,1.416-12.633
		c2.686-1.089,6.645-2.358,11.871-3.812c5.229-1.452,9.184-2.723,11.871-3.812c0.508-0.362,0.762-0.833,0.762-1.416
		C492.342,156.303,492.197,155.723,491.906,154.923z"/>
	<path d="M263.166,252.503c-2.653-1.393-5.207-2.287-7.659-2.686c-4.775-0.861-7.826-1.293-9.152-1.293
		c-1.857,0-3.549,0.564-5.073,1.691c0,0.332-0.149,0.762-0.448,1.293c-0.298,0.531-0.414,0.93-0.348,1.193
		c0.995,2.188,3.05,3.582,6.168,4.178c0.463,8.49,0.299,17.773-0.498,27.854c-0.862,0.598-1.541,1.145-2.039,1.641
		c-0.497,0.498-0.746,1.045-0.746,1.643c0,1.193,0.696,2.256,2.09,3.184c-0.598,4.311-0.963,9.781-1.095,16.412
		c-0.134,5.504-0.267,11.043-0.397,16.613c0.86,1.791,2.387,2.686,4.575,2.686c0.929,0,1.79-0.232,2.587-0.695
		c3.183-1.857,6.366-3.715,9.549-5.57c3.912-2.389,6.864-4.811,8.854-7.264c2.587-3.182,3.88-6.664,3.88-10.443
		c0-4.908-2.753-9.152-8.257-12.734c-1.061-0.463-2.172-0.945-3.332-1.441c-1.161-0.498-1.84-1.244-2.039-2.238
		c3.382-2.32,6.764-4.676,10.146-7.063c3.514-2.918,5.703-6.168,6.565-9.75c0.397-1.723,0.165-3.844-0.696-6.365
		C274.539,259.831,270.329,256.218,263.166,252.503z M262.469,296.372c1.26,1.527,1.891,3.283,1.891,5.273
		c0,0.662-0.067,1.359-0.199,2.088c-0.531,2.387-1.393,4.277-2.586,5.67c-0.664,0.797-1.841,1.709-3.532,2.736
		c-1.69,1.027-2.935,2.004-3.73,2.934c-0.531-1.725-0.796-3.646-0.796-5.77c0-1.457,0.182-3.631,0.547-6.516
		c0.364-2.885,0.548-5.023,0.548-6.416c0-0.795-0.034-1.525-0.1-2.188c0.464-0.199,0.96-0.299,1.492-0.299
		C256.931,293.886,259.086,294.716,262.469,296.372z M265.254,271.503c-1.525,2.189-3.283,3.748-5.271,4.676
		c-0.135,0.066-0.664,0.447-1.592,1.145c-0.93,0.695-1.626,1.043-2.09,1.043c0.066-2.121,0-5.072-0.198-8.854
		c-0.267-4.109-0.397-7.027-0.397-8.754c0-1.258,0.031-2.451,0.099-3.58c0.331-0.133,0.63-0.199,0.896-0.199
		c0.529,0,1.193,0.266,1.989,0.797c1.127,0.662,1.956,1.094,2.487,1.293c3.646,1.326,5.636,3.217,5.969,5.67
		C267.409,267.062,266.78,269.315,265.254,271.503z"/>
	<path d="M291.515,262.251c-0.067-0.131-0.067-0.596,0-1.393c0-0.662-0.1-0.994-0.298-0.994c-0.135,0-0.333,0.1-0.598,0.299
		c-1.26-0.729-2.521-1.094-3.779-1.094c-1.592,0-2.721,0.631-3.383,1.889c0.133,1.658,0.199,3.35,0.199,5.074
		c0,4.443-0.547,11.141-1.642,20.094s-1.642,15.686-1.642,20.193c0,2.588,0.133,5.041,0.398,7.361
		c0.264,2.32,1.823,3.547,4.676,3.682c1.988,0.064,3.282-0.83,3.879-2.686c-0.066-1.66-0.1-3.35-0.1-5.074
		c0-4.641,0.463-11.506,1.393-20.592c0.928-9.084,1.393-15.881,1.393-20.393c0-2.055-0.066-4.045-0.199-5.969
		C291.68,262.585,291.581,262.45,291.515,262.251z"/>
	<path d="M319.866,299.058c-4.178-2.453-8.323-4.906-12.435-7.361c1.79-2.785,5.869-7.461,12.235-14.025
		c5.437-5.637,9.085-10.51,10.943-14.623c-0.135-1.791-1.492-2.686-4.078-2.686c-0.93,0-1.791,0.166-2.588,0.496
		c-2.917,3.449-5.869,6.865-8.853,10.246c-3.516,4.047-6.632,7.297-9.35,9.75c0.131-5.305-0.299-12.467-1.294-21.488
		c-0.067-0.795-0.563-1.375-1.492-1.74c-0.929-0.363-1.825-0.68-2.687-0.945c-0.861,0.135-1.69,0.266-2.486,0.398
		c-1.062,0.266-1.526,0.795-1.393,1.592c0.928,5.172,1.393,11.275,1.393,18.303c0,2.322-0.066,5.787-0.199,10.396
		s-0.199,8.074-0.199,10.395c0,6.434,0.398,12.037,1.194,16.813c0.265,1.723,1.259,2.885,2.984,3.48
		c0.198,0.463,0.696,0.697,1.492,0.697c0.729,0,1.293-0.135,1.69-0.398c1.393-0.598,2.09-1.691,2.09-3.283
		c0-0.465-0.066-1.227-0.199-2.287c-0.134-1.061-0.199-1.855-0.199-2.387c-0.133-4.576-0.299-8.092-0.497-10.545
		c9.351,5.57,16.247,9.748,20.69,12.533c0.398,0.266,0.762,0.398,1.096,0.398c0.33,0,0.811-0.164,1.441-0.498
		c0.631-0.33,1.145-0.496,1.543-0.496c0.199,0,0.43,0.033,0.695,0.098c0.531-1.59,0.797-2.586,0.797-2.982
		c0-0.598-0.199-1.061-0.598-1.395C328.42,304.796,324.506,301.978,319.866,299.058z"/>
	<path d="M417.85,255.188c1.658-0.396,2.785-1.789,3.383-4.178c0-1.193-0.895-1.791-2.686-1.791
		c0.199-0.994-0.299-1.492-1.492-1.492c-1.592-0.197-3.582,0-5.969,0.598c-3.25,0.863-5.271,1.328-6.068,1.393
		c-2.721,0.73-5.57,1.094-8.555,1.094s-5.637-0.396-7.959-1.193c-2.852,1.539-7.162,2.607-12.932,3.209
		c-6.564,0.604-10.908,1.271-13.031,2.008c-0.463,0.535-0.695,1.037-0.695,1.504c0,0.026,0.061,0.182,0.18,0.458
		c-0.285,0.015-0.553,0.039-0.777,0.083c-3.25,0.797-6.5,1.627-9.75,2.486c-3.715,0.996-6.797,2.125-9.25,3.383
		c-2.123,0.863-4.246,1.725-6.367,2.586c-2.256,1.129-3.416,2.654-3.48,4.576c-0.068,2.057,1.756,3.449,5.471,4.178
		c-0.398,5.77-0.664,8.922-0.797,9.451c-0.133,0.531-0.68,1.045-1.641,1.541c-0.963,0.498-1.477,1.045-1.541,1.643
		c-0.199,1.193,0.629,2.422,2.486,3.68c-0.598,4.576-0.598,9.75,0,15.52c0.199,1.988,1.061,3.779,2.586,5.371
		s3.217,2.619,5.074,3.084c5.9,1.523,12.865,2.154,20.891,1.891c1.059-0.068,1.873-0.549,2.436-1.443
		c0.564-0.895,0.746-1.873,0.549-2.936c-0.598-3.182-1.826-4.574-3.682-4.178c-0.398,0-0.895,0.25-1.492,0.746
		c-0.596,0.498-1.16,0.746-1.691,0.746c-7.693,0.334-13.098-0.596-16.215-2.785c-0.531-1.127-0.795-2.65-0.795-4.576
		c0-2.85,0.629-6.729,1.889-11.639c1.855-0.729,4.344-1.127,7.461-1.193c3.713-0.064,6.268-0.264,7.66-0.596
		c0.797,0.066,1.459-0.199,1.99-0.797c0.795-0.861,1.26-1.326,1.393-1.393c0.463-0.264,0.697-0.629,0.697-1.094
		c0-0.398-0.465-1.26-1.395-2.586c-1.326-0.797-2.918-1.195-4.775-1.195c-0.994,0-2.553,0.168-4.674,0.498
		c-2.125,0.332-3.682,0.498-4.676,0.498c-1.393,0-2.621-0.199-3.682-0.598c0.266-5.969,0.697-9.814,1.293-11.539
		c2.453-0.994,6.068-2.154,10.844-3.482c4.775-1.324,8.389-2.486,10.844-3.48c0.463-0.332,0.695-0.762,0.695-1.293
		c0-0.102-0.018-0.229-0.043-0.366c0.467,0.04,0.941,0.067,1.436,0.067c1.393,0,3.912-0.264,7.561-0.797
		c3.184-0.463,5.67-0.629,7.461-0.496c0.066,4.773-0.199,11.705-0.795,20.791c-0.598,9.484-0.896,16.412-0.896,20.789
		c0,2.721,0.066,5.307,0.199,7.76c0.133,1.924,0.828,3.664,2.09,5.223c1.258,1.557,2.85,2.371,4.773,2.438
		c0.996,0.064,1.658-0.432,1.99-1.492c0.199-0.664,0.264-1.627,0.199-2.885c-0.133-4.045-0.199-8.158-0.199-12.336
		c0-11.008,0.662-24.77,1.99-41.283C406.045,257.644,413.539,256.251,417.85,255.188z"/>
	<path d="M433.467,269.513c-0.332-2.717-0.695-5.436-1.094-8.156c-0.531-3.184-1.725-5.57-3.58-7.162
		c-0.73-0.598-1.561-0.895-2.488-0.895c-1.26,0-2.088,0.465-2.486,1.393c-1.725,4.178-3.682,10.18-5.869,18.004
		c-2.586,9.02-4.477,15.188-5.67,18.504c-0.135,0.465-0.746,0.813-1.84,1.043c-1.096,0.234-1.791,0.533-2.09,0.896
		c-0.299,0.365-0.447,0.713-0.447,1.045c0,0.396,0.463,0.961,1.393,1.689c0.928,0.73,1.357,1.393,1.293,1.99
		c-0.199,2.057-1.293,5.506-3.283,10.346c-1.658,4.244-2.387,7.625-2.188,10.146c0.131,1.26,1.293,2.254,3.48,2.984
		c1.725,0.529,2.852,0.199,3.383-0.994c1.061-2.521,2.154-6.203,3.283-11.043c1.193-5.238,2.154-8.885,2.885-10.941
		c1.457-1.26,3.48-2.055,6.068-2.389c2.254-0.197,4.508-0.396,6.764-0.596c1.26,3.381,2.354,7.594,3.283,12.633
		c0.861,4.643,2.918,7.262,6.168,7.859c0.396,0.064,1.158-0.398,2.287-1.393c1.127-0.996,1.691-2.154,1.691-3.482
		c0-0.795-0.199-1.723-0.598-2.785C440.232,298.063,436.783,285.165,433.467,269.513z M420.934,289.509
		c1.457-5.504,3.184-11.008,5.172-16.514c0.598,2.654,1.227,5.307,1.891,7.959c0.662,3.051,1.094,5.803,1.293,8.256
		C424.779,289.21,421.994,289.31,420.934,289.509z"/>
	<path d="M480.221,281.251c-1.592,0.135-2.123,0.199-1.592,0.199c-1.725,0-2.92,0.93-3.582,2.785
		c-0.861,2.521-1.625,4.047-2.287,4.576c-8.82,7.361-15.42,11.904-19.797,13.629c-0.463,0.199-0.828,0.018-1.094-0.547
		c-0.266-0.563-0.465-0.879-0.596-0.945c-0.068-0.861-0.1-1.725-0.1-2.586c0-4.775,1.424-10.18,4.277-16.215
		c4.641-9.748,9.748-17.707,15.318-23.875c0.133-0.131,1.359-0.828,3.682-2.088c1.393-0.73,1.955-1.924,1.691-3.582
		c-0.334-1.99-1.826-2.984-4.477-2.984c-2.984,0-6.4,2.555-10.246,7.66c-7.695,10.279-13.297,20.791-16.813,31.533
		c-1.127,3.383-1.691,6.334-1.691,8.854c0,2.854,0.73,5.24,2.189,7.162c2.586,3.449,5.404,5.174,8.455,5.174
		c0.797,0,1.592-0.133,2.387-0.398c5.77-2.121,10.943-5.338,15.52-9.648c-0.398,3.846-0.73,6.73-0.996,8.654
		c0,0.861-0.133,2.238-0.396,4.127c-0.266,1.891-0.398,3.299-0.398,4.229c0,3.248,1.426,5.471,4.277,6.664
		c0.529,0.199,1.094,0.299,1.691,0.299c2.055,0,3.148-0.83,3.283-2.486c0.264-5.637,0.563-11.273,0.895-16.91
		c0.529-6.5,1.691-11.971,3.482-16.414c0.264-0.662,0.396-1.293,0.396-1.891c0-1.193-0.631-2.719-1.889-4.576
		C481.547,281.251,481.016,281.12,480.221,281.251z"/>
</g>
</svg>
