<?xml version="1.0" encoding="UTF-8" standalone="no"?>
<svg
   xmlns:dc="http://purl.org/dc/elements/1.1/"
   xmlns:cc="http://creativecommons.org/ns#"
   xmlns:rdf="http://www.w3.org/1999/02/22-rdf-syntax-ns#"
   xmlns:svg="http://www.w3.org/2000/svg"
   xmlns="http://www.w3.org/2000/svg"
   xmlns:sodipodi="http://sodipodi.sourceforge.net/DTD/sodipodi-0.dtd"
   xmlns:inkscape="http://www.inkscape.org/namespaces/inkscape"
   inkscape:version="1.0 (4035a4f, 2020-05-01)"
   sodipodi:docname="StLouisIcon.svg"
   xml:space="preserve"
   enable-background="new 0 0 646 449"
   viewBox="0 0 437.25238 283.22455"
   height="283.22455"
   width="437.25238"
   y="0px"
   x="0px"
   id="Layer_1"
   version="1.1"><metadata
   id="metadata104"><rdf:RDF><cc:Work
       rdf:about=""><dc:format>image/svg+xml</dc:format><dc:type
         rdf:resource="http://purl.org/dc/dcmitype/StillImage" /></cc:Work></rdf:RDF></metadata><defs
   id="defs102" /><sodipodi:namedview
   inkscape:current-layer="Layer_1"
   inkscape:window-maximized="0"
   inkscape:window-y="23"
   inkscape:window-x="0"
   inkscape:cy="140.51523"
   inkscape:cx="210.15909"
   inkscape:zoom="1.628483"
   showgrid="false"
   id="namedview100"
   inkscape:window-height="861"
   inkscape:window-width="1323"
   inkscape:pageshadow="2"
   inkscape:pageopacity="0"
   guidetolerance="10"
   gridtolerance="10"
   objecttolerance="10"
   borderopacity="1"
   bordercolor="#666666"
   pagecolor="#ffffff" />
<g
   transform="translate(-112.84091,-83.984773)"
   id="g63">
	<path
   id="path59"
   d="m 549.88,280.064 c -0.174,-16.51 -0.811,-33.01 -1.443,-49.505 -0.604,-15.744 -0.073,-31.475 0.222,-47.219 0.285,-15.144 0.016,-30.21 -1.611,-45.277 -1.018,-9.421 -2.869,-19.451 -8.262,-27.447 -2.537,-3.762 -5.847,-6.271 -9.603,-7.939 -5.594,-3.61 -13.037,-5.111 -19.145,-6.127 -21.424,-3.567 -43.432,-0.63 -65.008,-2.46 -31.961,-2.712 -64.045,-3.525 -96.004,-6.26 -29.435,-2.519 -58.977,-4.025 -88.524,-3.828 -14.447,0.097 -28.891,0.702 -43.292,1.871 -11.939,0.97 -24.062,1.946 -35.457,5.86 -3.611,1.24 -6.875,2.847 -9.852,4.74 -5.789,1.107 -11.247,3.142 -15.907,6.816 -14.188,11.187 -11.68,32.167 -11.801,49.617 -1.071,5.57 -2.1,11.146 -3.255,16.671 -0.95,4.543 -2.335,8.507 -4.238,12.296 -2.706,4.252 -6.043,8.166 -9.815,11.896 -6.511,6.439 -9.625,13.737 -11.188,22.462 -0.314,0.828 -0.612,1.67 -0.875,2.543 -3.82,12.708 -1.345,27.422 0.991,40.168 1.959,10.688 7.187,20.17 13.779,28.668 6.423,8.278 13.894,15.658 19.885,24.286 0.183,0.263 0.352,0.532 0.529,0.798 2.297,8.706 2.213,17.713 3.409,26.899 1.216,9.347 6.129,18.924 16.146,20.964 4.954,1.01 9.942,0.694 14.95,0.326 7.849,-0.579 15.658,-0.199 23.517,0.04 32.945,1.003 65.889,2.078 98.813,3.642 32.2,1.527 64.012,3.557 96.27,2.196 31.984,-1.35 63.923,-4.1 95.964,-3.444 14.983,0.307 31.571,0.453 41.521,-12.721 5.229,-6.92 7.127,-15.938 8.164,-24.357 1.864,-15.179 1.28,-30.913 1.12,-46.175 z M 189.802,90.787 c 14.229,-3.476 29.702,-3.838 44.268,-4.567 15.105,-0.755 30.241,-0.844 45.36,-0.581 29.968,0.521 59.673,3.608 89.556,5.399 16.348,0.979 32.709,1.744 49.057,2.735 14.012,0.85 28.088,2.805 42.123,2.841 18.221,0.047 38.699,-2.379 56.539,3.18 -6.521,-0.544 -13.32,-0.097 -19.332,-0.004 -65.256,-0.038 -130.49,-1.897 -195.73,-3.188 -32.928,-0.651 -65.859,-1.123 -98.793,-1.151 -8.387,-0.007 -17.861,-0.688 -26.821,0.383 4.316,-2.256 9,-3.881 13.773,-5.047 z M 333.6,99.444 c -24.731,0.889 -49.437,2.301 -74.146,-0.113 -5.139,-0.502 -10.331,-1.004 -15.55,-1.425 13.275,0.137 26.55,0.31 39.824,0.542 16.624,0.291 33.248,0.637 49.872,0.996 z M 170.267,99.42 c 6.826,-1.646 14.432,-1.847 21.593,-1.834 4.146,0.007 8.291,0.029 12.437,0.044 -7.431,0.753 -14.783,2.102 -21.981,4.301 -9.688,2.96 -18.421,8.229 -24.862,16.109 -1.044,1.277 -1.978,2.598 -2.817,3.957 2.118,-5.742 4.921,-11.205 8.776,-16.019 2.021,-2.522 4.334,-4.689 6.854,-6.558 z m -20.88,19.455 c 2.607,-10.256 9.086,-15.59 17.108,-18.356 -8.228,7.189 -13.58,17.117 -16.833,28.38 -0.8,2.768 -1.508,5.564 -2.176,8.372 0.041,-6.184 0.361,-12.339 1.901,-18.396 z m -11.003,65.552 c -1.362,2.341 -2.938,4.627 -4.798,6.855 -0.252,0.303 -0.507,0.599 -0.761,0.898 1.999,-2.508 3.915,-5.066 5.559,-7.753 z m 1.077,110.62 c -7.239,-8.295 -13.99,-16.783 -18.011,-27.15 -2.063,-5.319 -3.501,-11.221 -4.395,-17.266 0.184,0.664 0.377,1.324 0.582,1.983 2.805,9.033 7.782,17.218 12.937,25.072 5.427,8.271 11.013,16.392 15.567,25.184 -2.181,-2.653 -4.433,-5.249 -6.68,-7.823 z m 231.007,70.276 c -16.928,-0.037 -33.799,-1.439 -50.695,-2.319 -16.554,-0.86 -33.116,-1.565 -49.681,-2.197 -30.216,-1.153 -60.624,-3.107 -90.825,-1.761 -6.813,0.306 -13.049,-0.948 -17.638,-6.352 -3.956,-4.656 -4.995,-10.773 -5.652,-16.649 -0.604,-5.401 -0.914,-10.563 -1.584,-15.617 3.502,6.982 6.474,14.229 11.948,20.028 12.204,12.934 32.39,9.711 48.348,10.197 15.56,0.476 31.11,2.638 46.634,3.772 16.408,1.198 32.718,1.196 49.15,1.422 32.623,0.445 65.117,3.897 97.671,5.713 10.83,0.604 21.672,0.985 32.515,1.044 -23.385,1.244 -46.758,2.77 -70.191,2.719 z m 161.953,-9.898 c -6.611,4.895 -15.432,5.764 -23.385,5.925 -7.027,0.143 -14.051,0.046 -21.078,-0.027 14.816,-0.003 32.584,0.802 45.865,-7.017 -0.453,0.385 -0.918,0.76 -1.402,1.119 z m 1.314,-2.904 c -7.619,5.718 -18.82,6.425 -27.964,6.946 -9.022,0.514 -18.067,0.212 -27.102,0.403 -13.373,0.283 -26.664,1.333 -40.063,1.199 -32.625,-0.324 -65.123,-3.754 -97.672,-5.631 -16.305,-0.939 -32.554,-0.993 -48.875,-1.143 -17.021,-0.154 -34.006,-1.689 -50.949,-3.192 -12.523,-1.11 -24.906,-2.106 -37.479,-2.108 -9.019,-0.002 -18.346,0.068 -26.679,-3.846 -10.278,-4.827 -14.613,-15.301 -19.223,-24.908 -1.455,-3.032 -3.176,-5.897 -5.043,-8.67 -0.772,-2.884 -1.79,-5.761 -3.199,-8.654 -8.947,-18.371 -23.873,-33.5 -29.655,-53.412 -3.131,-10.783 -3.138,-22.498 -1.206,-33.565 2.751,-7.287 7.518,-13.467 13.077,-19.549 8.192,-8.962 13.809,-17.612 16.154,-29.717 2.443,-12.608 1.583,-25.612 6.056,-37.828 4.735,-12.935 16.037,-21.441 28.753,-25.6 26.5,-8.667 55.738,-4.051 82.784,-1.716 30.505,2.634 61.287,-1.051 91.842,-1.113 0.351,0 0.832,-0.188 1.229,-0.43 40.572,0.886 81.146,1.73 121.73,1.938 4.949,0.025 9.9,0.032 14.852,0.037 0.093,0.012 0.189,0.021 0.298,0.021 0.553,-0.001 1.11,-0.007 1.674,-0.016 0.369,0 0.737,0.003 1.106,0.003 0.113,0 0.22,-0.011 0.322,-0.03 9.803,-0.223 20.904,-1.086 29.504,3.167 14.473,11.269 9.603,37.62 7.844,53.33 -1.19,10.649 -1.92,20.923 -1.391,31.65 0.764,15.467 3.049,30.822 4.441,46.236 1.336,14.79 0.479,29.527 1.258,44.319 0.744,14.129 2.477,28.188 2.459,42.352 -0.008,10.197 0.045,22.826 -8.883,29.527 z m 11.446,-21.655 c 0.01,-0.133 0.021,-0.266 0.033,-0.397 1.086,-13.468 -0.426,-27.092 -1.467,-40.515 -1.115,-14.407 -0.453,-28.743 -1.144,-43.151 -0.743,-15.524 -3.02,-30.937 -4.436,-46.404 -1.15,-12.546 -1.35,-24.832 0.012,-37.347 1.138,-10.438 2.463,-20.868 2.404,-31.387 -0.027,-5.159 -0.449,-10.621 -1.986,-15.651 4.318,8.513 5.193,19.004 6.119,28.194 1.633,16.207 1.166,32.581 0.803,48.837 -0.729,32.409 1.433,64.722 1.48,97.125 0.022,13.455 0.397,27.358 -1.818,40.696 z" />
	<path
   id="path61"
   d="m 149.87,212.19 c -1.79,-4.047 -6.104,-6.389 -10.126,-4.859 -4.098,1.557 -5.279,8.261 -5.954,12.175 -1.633,9.553 -1.82,22.332 5.703,29.103 4.784,4.303 8.052,1.693 10.25,-2.917 0.905,0.765 1.789,0.647 1.83,-1.56 0.026,-1.328 0.089,-2.682 0.17,-4.049 1.163,-4.275 1.763,-8.688 2.011,-10.828 0.148,-1.265 -0.518,-2.854 -1.336,-3.789 -0.093,-4.609 -0.708,-9.122 -2.548,-13.276 z m -1.95,25.611 c -1.413,4.189 -3.831,7.132 -8.161,4.431 -5.218,-3.252 -2.902,-16.047 -1.878,-21.148 0.739,-3.691 2.271,-7.751 6.384,-7.315 4.487,0.474 4.116,6.708 4.216,10.274 0.132,4.604 -0.309,9.174 -0.561,13.758 z" />
</g>
<g
   transform="translate(-112.84091,-83.984773)"
   id="g81">
	<path
   id="path65"
   d="m 230.062,144.083 c 0,1.357 -0.983,2.543 -2.949,3.56 -0.544,0.271 -1.119,0.305 -1.729,0.102 -0.95,-0.27 -1.459,-0.407 -1.525,-0.407 -0.407,0 -0.814,0.204 -1.221,0.61 -3.662,3.662 -5.493,8.137 -5.493,13.426 0,1.967 0.305,3.798 0.916,5.492 0.271,0.747 2.848,6.001 7.73,15.766 3.255,6.509 4.882,12.037 4.882,16.579 0,3.73 -0.916,7.324 -2.746,10.782 -0.61,1.152 -2.136,2.645 -4.577,4.474 -1.967,1.425 -3.73,2.136 -5.289,2.136 -0.61,0 -1.187,-0.101 -1.729,-0.305 -2.034,-0.881 -3.051,-2.001 -3.051,-3.356 0,-0.813 0.509,-1.797 1.526,-2.949 0.27,-0.34 0.916,-0.544 1.933,-0.61 1.017,-0.068 1.694,-0.475 2.034,-1.221 1.424,-2.983 2.136,-6.035 2.136,-9.154 0,-4.407 -2.187,-10.797 -6.56,-19.173 -4.374,-8.374 -6.561,-15.069 -6.561,-20.088 0,-4.135 0.813,-7.832 2.441,-11.086 1.831,-3.728 4.44,-6.408 7.832,-8.035 1.559,-0.746 3.085,-1.119 4.577,-1.119 2.848,0 4.984,0.78 6.408,2.339 0.675,0.746 1.015,1.492 1.015,2.237 z" />
	<path
   id="path67"
   d="m 287.733,142.252 c -0.611,2.441 -1.765,3.865 -3.459,4.272 -4.408,1.085 -12.07,2.509 -22.986,4.272 -1.357,16.884 -2.035,30.956 -2.035,42.21 0,4.272 0.067,8.477 0.204,12.612 0.066,1.288 0,2.271 -0.204,2.95 -0.34,1.084 -1.017,1.592 -2.033,1.526 -1.969,-0.068 -3.596,-0.9 -4.883,-2.492 -1.289,-1.594 -2.001,-3.373 -2.136,-5.34 -0.137,-2.508 -0.204,-5.152 -0.204,-7.934 0,-4.475 0.306,-11.561 0.916,-21.258 0.609,-9.289 0.881,-16.376 0.813,-21.258 -1.831,-0.135 -4.373,0.035 -7.628,0.508 -3.73,0.543 -6.307,0.814 -7.73,0.814 -3.322,0 -6.035,-0.889 -8.137,-2.667 -0.814,-1.777 -1.221,-2.7 -1.221,-2.769 0,-0.478 0.239,-0.992 0.712,-1.539 2.171,-0.751 6.611,-1.435 13.324,-2.051 5.899,-0.615 10.306,-1.708 13.223,-3.282 2.373,0.814 5.086,1.221 8.138,1.221 3.051,0 5.966,-0.372 8.746,-1.119 0.814,-0.067 2.882,-0.542 6.205,-1.424 2.441,-0.61 4.476,-0.814 6.103,-0.61 1.221,0 1.729,0.508 1.526,1.525 1.83,0.002 2.746,0.613 2.746,1.833 z" />
	<path
   id="path69"
   d="m 287.13,196.668 c 0.61,2.441 0.491,4.086 -0.355,4.933 -0.849,0.849 -2.085,1.205 -3.713,1.068 -1.356,-0.067 -2.645,-0.677 -3.865,-1.831 -1.22,-1.152 -1.831,-2.373 -1.831,-3.662 0,-0.814 0.339,-1.577 1.018,-2.289 0.677,-0.712 1.389,-1.033 2.137,-0.966 1.287,0.068 2.576,0.17 3.864,0.305 1.491,0.341 2.406,1.154 2.745,2.442 z" />
	<path
   id="path71"
   d="m 349.239,193.846 c -0.137,0.068 -4.104,2.896 -11.9,8.482 -4.543,3.271 -8.579,5.689 -12.104,7.256 -0.407,0.203 -0.813,0.307 -1.221,0.307 -0.951,0 -1.831,-0.612 -2.645,-1.834 -1.221,-1.631 -1.865,-2.479 -1.932,-2.546 -0.137,-5.976 0.236,-14.295 1.117,-24.959 1.018,-11.341 1.525,-19.525 1.525,-24.551 0,-3.463 -0.137,-6.723 -0.406,-9.78 0.881,-0.882 1.999,-1.324 3.356,-1.324 2.576,0 4.067,0.95 4.476,2.848 0.204,5.562 -0.035,13.884 -0.712,24.971 -0.68,11.087 -0.95,19.411 -0.813,24.97 1.896,-0.814 4.373,-2.237 7.424,-4.272 3.323,-2.304 5.729,-3.83 7.221,-4.577 0.34,0 0.935,-0.066 1.78,-0.203 0.849,-0.135 1.478,-0.204 1.884,-0.204 1.354,0 2.338,0.545 2.948,1.635 0.817,1.5 0.817,2.761 0.002,3.781 z" />
	<path
   id="path73"
   d="m 386.667,183.649 c -4.002,9.019 -9.662,14.376 -16.984,16.071 -0.883,0.203 -1.766,0.305 -2.646,0.305 -3.865,0 -7.765,-2.101 -11.695,-6.307 -2.646,-2.848 -3.967,-6.543 -3.967,-11.086 0,-5.018 1.489,-10.408 4.476,-16.172 1.286,-2.441 2.848,-4.542 4.68,-6.307 2.1,-2.101 4.102,-3.153 6,-3.153 1.084,0 2.102,0.407 3.051,1.221 0.949,0.814 3.492,1.899 7.629,3.255 3.256,1.085 5.561,2.916 6.918,5.492 2.371,4.544 3.559,8.442 3.559,11.697 -0.003,1.831 -0.343,3.493 -1.021,4.984 z m -8.137,-6.307 c -0.476,-4.949 -1.797,-7.898 -3.967,-8.849 -0.341,-0.135 -0.646,-0.203 -0.916,-0.203 -0.813,0 -1.83,0.678 -3.052,2.034 -1.356,1.561 -2.407,2.476 -3.151,2.746 -0.478,0.204 -1.154,0 -2.035,-0.61 -0.881,-0.61 -1.459,-0.916 -1.729,-0.916 -0.202,0 -0.372,0.068 -0.51,0.204 -2.373,2.034 -3.56,5.187 -3.56,9.459 0,2.917 0.677,5.391 2.035,7.425 1.896,2.781 3.49,4.17 4.779,4.17 2.982,0 5.865,-1.864 8.645,-5.595 2.649,-3.522 3.799,-6.812 3.461,-9.865 z" />
	<path
   id="path75"
   d="m 427.759,150.186 c -0.475,4.748 -1.83,11.087 -4.068,19.021 -3.051,10.646 -4.815,17.088 -5.288,19.326 -1.492,6.849 -4.343,13.087 -8.546,18.715 -2.645,3.593 -5.694,5.356 -9.151,5.289 -3.054,-0.069 -5.326,-2.001 -6.816,-5.798 -2.577,-6.373 -3.864,-13.866 -3.864,-22.479 0,-4.949 0.475,-11.323 1.424,-19.122 -0.068,0.679 -0.101,-1.424 -0.101,-6.306 0,-4.204 1.628,-6.306 4.882,-6.306 0.678,0 1.405,0.188 2.188,0.56 0.777,0.373 1.541,0.763 2.289,1.169 0.066,3.458 -0.037,8.543 -0.307,15.257 -0.34,7.188 -0.508,12.375 -0.508,15.562 0,3.392 0.305,6.469 0.305,9.256 0,3.408 -0.119,6.637 0.647,6.511 -0.188,0.031 6.275,2.171 7.896,-11.087 0.224,-1.831 1.628,-6.577 3.255,-14.443 1.287,-5.966 2.746,-10.645 4.373,-14.037 0.475,-0.949 0.881,-2.746 1.221,-5.391 0.338,-2.645 0.746,-4.475 1.221,-5.493 0.746,-1.627 2.035,-2.441 3.865,-2.441 2.37,-0.001 4.065,0.745 5.083,2.237 z" />
	<path
   id="path77"
   d="m 442.302,154.152 c 0.135,1.967 0.203,4.001 0.203,6.103 0,4.612 -0.475,11.562 -1.424,20.851 -0.949,9.291 -1.424,16.309 -1.424,21.055 0,1.764 0.033,3.491 0.102,5.188 -0.609,1.897 -1.932,2.813 -3.967,2.746 -2.916,-0.137 -4.51,-1.391 -4.779,-3.764 -0.272,-2.373 -0.408,-4.882 -0.408,-7.527 0,-4.61 0.562,-11.493 1.679,-20.647 1.119,-9.154 1.68,-16.002 1.68,-20.546 0,-1.763 -0.068,-3.491 -0.203,-5.188 0.678,-1.287 1.83,-1.933 3.457,-1.933 1.287,0 2.576,0.374 3.865,1.119 0.271,-0.203 0.475,-0.305 0.61,-0.305 0.203,0 0.306,0.34 0.306,1.017 -0.068,0.814 -0.068,1.289 0,1.424 0.064,0.204 0.166,0.341 0.303,0.407 z" />
	<path
   id="path79"
   d="m 469.765,144.083 c 0,1.357 -0.983,2.543 -2.949,3.56 -0.543,0.271 -1.118,0.305 -1.729,0.102 -0.949,-0.27 -1.459,-0.407 -1.525,-0.407 -0.405,0 -0.813,0.204 -1.221,0.61 -3.66,3.662 -5.492,8.137 -5.492,13.426 0,1.967 0.306,3.798 0.916,5.492 0.271,0.747 2.849,6.001 7.73,15.766 3.254,6.509 4.881,12.037 4.881,16.579 0,3.73 -0.914,7.324 -2.746,10.782 -0.609,1.152 -2.135,2.645 -4.576,4.474 -1.969,1.425 -3.729,2.136 -5.289,2.136 -0.61,0 -1.188,-0.101 -1.729,-0.305 -2.035,-0.881 -3.054,-2.001 -3.054,-3.356 0,-0.813 0.511,-1.797 1.527,-2.949 0.271,-0.34 0.914,-0.544 1.932,-0.61 1.019,-0.068 1.693,-0.475 2.033,-1.221 1.426,-2.983 2.138,-6.035 2.138,-9.154 0,-4.407 -2.188,-10.797 -6.562,-19.173 -4.373,-8.374 -6.561,-15.069 -6.561,-20.088 0,-4.135 0.813,-7.832 2.44,-11.086 1.832,-3.728 4.441,-6.408 7.832,-8.035 1.56,-0.746 3.084,-1.119 4.576,-1.119 2.85,0 4.984,0.78 6.408,2.339 0.68,0.746 1.02,1.492 1.02,2.237 z" />
</g>
<g
   transform="translate(-112.84091,-83.984773)"
   id="g97">
	<path
   id="path83"
   d="m 252.577,264.521 c -0.863,3.581 -3.052,6.831 -6.566,9.749 -3.382,2.388 -6.764,4.741 -10.146,7.063 0.199,0.994 0.879,1.74 2.039,2.237 1.16,0.497 2.271,0.979 3.333,1.442 5.504,3.58 8.257,7.826 8.257,12.732 0,3.78 -1.293,7.263 -3.88,10.444 -1.989,2.453 -4.941,4.875 -8.854,7.263 -3.183,1.855 -6.367,3.713 -9.55,5.57 -0.796,0.463 -1.658,0.696 -2.586,0.696 -2.188,0 -3.715,-0.896 -4.576,-2.687 0.132,-5.571 0.264,-11.108 0.398,-16.613 0.132,-6.631 0.497,-12.102 1.094,-16.412 -1.393,-0.929 -2.089,-1.989 -2.089,-3.185 0,-0.597 0.249,-1.144 0.746,-1.642 0.498,-0.497 1.177,-1.045 2.04,-1.641 0.796,-10.08 0.96,-19.365 0.497,-27.854 -3.118,-0.597 -5.172,-1.99 -6.167,-4.179 -0.067,-0.265 0.05,-0.662 0.348,-1.193 0.299,-0.53 0.448,-0.961 0.448,-1.293 1.525,-1.127 3.216,-1.691 5.073,-1.691 1.326,0 4.377,0.434 9.152,1.293 2.453,0.398 5.006,1.295 7.66,2.688 7.162,3.715 11.373,7.328 12.633,10.843 0.86,2.525 1.093,4.646 0.696,6.37 z m -12.336,34.022 c 0.133,-0.729 0.199,-1.426 0.199,-2.088 0,-1.99 -0.631,-3.746 -1.891,-5.272 -3.382,-1.657 -5.538,-2.487 -6.465,-2.487 -0.532,0 -1.029,0.1 -1.492,0.299 0.065,0.663 0.1,1.393 0.1,2.188 0,1.393 -0.184,3.53 -0.547,6.415 -0.365,2.886 -0.547,5.059 -0.547,6.517 0,2.123 0.264,4.044 0.795,5.771 0.796,-0.931 2.04,-1.907 3.73,-2.936 1.692,-1.027 2.868,-1.938 3.532,-2.734 1.193,-1.396 2.055,-3.286 2.586,-5.673 z m 2.984,-38.996 c -0.332,-2.453 -2.322,-4.342 -5.969,-5.67 -0.531,-0.199 -1.359,-0.629 -2.487,-1.293 -0.795,-0.529 -1.459,-0.795 -1.989,-0.795 -0.266,0 -0.564,0.065 -0.896,0.197 -0.067,1.129 -0.099,2.322 -0.099,3.581 0,1.726 0.132,4.644 0.398,8.754 0.199,3.78 0.264,6.731 0.199,8.854 0.463,0 1.16,-0.349 2.089,-1.045 0.928,-0.695 1.458,-1.076 1.592,-1.145 1.989,-0.928 3.746,-2.486 5.272,-4.675 1.525,-2.185 2.154,-4.44 1.89,-6.763 z" />
	<path
   id="path85"
   d="m 267.894,257.459 c 0.132,1.924 0.199,3.914 0.199,5.969 0,4.512 -0.465,11.309 -1.393,20.394 -0.93,9.086 -1.394,15.95 -1.394,20.592 0,1.726 0.033,3.414 0.1,5.073 -0.596,1.855 -1.89,2.751 -3.879,2.687 -2.852,-0.135 -4.411,-1.36 -4.676,-3.682 -0.266,-2.319 -0.397,-4.774 -0.397,-7.36 0,-4.51 0.547,-11.241 1.642,-20.193 1.094,-8.953 1.641,-15.65 1.641,-20.096 0,-1.724 -0.066,-3.414 -0.199,-5.072 0.662,-1.26 1.791,-1.891 3.383,-1.891 1.259,0 2.52,0.365 3.78,1.095 0.265,-0.198 0.463,-0.298 0.597,-0.298 0.199,0 0.299,0.332 0.299,0.994 -0.067,0.795 -0.067,1.26 0,1.393 0.064,0.196 0.163,0.33 0.297,0.395 z" />
	<path
   id="path87"
   d="m 307.684,302.322 c 0.398,0.333 0.598,0.796 0.598,1.395 0,0.396 -0.266,1.393 -0.797,2.982 -0.266,-0.063 -0.496,-0.099 -0.695,-0.099 -0.398,0 -0.912,0.166 -1.543,0.497 -0.631,0.333 -1.111,0.497 -1.441,0.497 -0.333,0 -0.697,-0.132 -1.095,-0.397 -4.444,-2.785 -11.341,-6.964 -20.69,-12.533 0.198,2.453 0.363,5.969 0.497,10.544 0,0.531 0.065,1.327 0.198,2.388 0.133,1.061 0.199,1.822 0.199,2.288 0,1.592 -0.696,2.686 -2.089,3.282 -0.397,0.265 -0.962,0.397 -1.69,0.397 -0.797,0 -1.294,-0.233 -1.492,-0.696 -1.726,-0.597 -2.721,-1.758 -2.984,-3.48 -0.797,-4.775 -1.194,-10.379 -1.194,-16.813 0,-2.32 0.065,-5.785 0.199,-10.396 0.132,-4.607 0.198,-8.072 0.198,-10.396 0,-7.028 -0.464,-13.131 -1.393,-18.304 -0.133,-0.796 0.332,-1.325 1.393,-1.592 0.797,-0.133 1.625,-0.264 2.487,-0.397 0.861,0.267 1.757,0.581 2.687,0.945 0.928,0.364 1.425,0.944 1.492,1.739 0.994,9.021 1.425,16.184 1.293,21.488 2.719,-2.453 5.834,-5.703 9.351,-9.75 2.984,-3.382 5.935,-6.797 8.854,-10.246 0.796,-0.33 1.657,-0.496 2.587,-0.496 2.586,0 3.944,0.896 4.078,2.686 -1.857,4.113 -5.506,8.986 -10.943,14.623 -6.365,6.564 -10.444,11.24 -12.234,14.025 4.111,2.455 8.256,4.908 12.434,7.361 4.638,2.922 8.552,5.74 11.735,8.458 z" />
	<path
   id="path89"
   d="m 344.989,258.055 c -2.455,0.996 -6.068,2.156 -10.845,3.481 -4.774,1.328 -8.391,2.487 -10.843,3.482 -0.597,1.725 -1.028,5.569 -1.293,11.539 1.06,0.397 2.288,0.597 3.681,0.597 0.994,0 2.553,-0.165 4.677,-0.497 2.12,-0.331 3.68,-0.498 4.675,-0.498 1.857,0 3.448,0.398 4.774,1.194 0.931,1.326 1.396,2.188 1.396,2.586 0,0.465 -0.233,0.83 -0.697,1.095 -0.133,0.066 -0.598,0.531 -1.393,1.394 -0.531,0.597 -1.193,0.861 -1.99,0.795 -1.393,0.332 -3.947,0.531 -7.661,0.598 -3.116,0.066 -5.604,0.465 -7.46,1.193 -1.261,4.908 -1.89,8.787 -1.89,11.639 0,1.925 0.264,3.449 0.795,4.576 3.116,2.188 8.521,3.118 16.215,2.785 0.531,0 1.096,-0.248 1.691,-0.746 0.598,-0.497 1.094,-0.746 1.492,-0.746 1.854,-0.396 3.084,0.994 3.682,4.178 0.197,1.063 0.016,2.04 -0.549,2.936 -0.563,0.896 -1.377,1.376 -2.437,1.442 -8.025,0.265 -14.99,-0.366 -20.891,-1.891 -1.857,-0.465 -3.549,-1.492 -5.074,-3.084 -1.525,-1.592 -2.387,-3.382 -2.586,-5.371 -0.598,-5.771 -0.598,-10.942 0,-15.519 -1.857,-1.26 -2.686,-2.488 -2.486,-3.682 0.064,-0.597 0.579,-1.145 1.541,-1.643 0.961,-0.496 1.508,-1.01 1.642,-1.541 0.132,-0.529 0.397,-3.682 0.796,-9.45 -3.715,-0.729 -5.538,-2.121 -5.471,-4.179 0.064,-1.922 1.226,-3.446 3.48,-4.575 2.122,-0.861 4.244,-1.724 6.367,-2.587 2.453,-1.258 5.535,-2.387 9.251,-3.383 3.249,-0.859 6.499,-1.689 9.75,-2.485 0.332,-0.065 0.729,-0.101 1.193,-0.101 1.791,0 3.881,0.696 6.268,2.09 0.066,0.266 0.232,0.764 0.498,1.492 0.264,0.729 0.396,1.26 0.396,1.592 0.002,0.534 -0.231,0.964 -0.694,1.294 z" />
	<path
   id="path91"
   d="m 397.313,245.82 c -0.598,2.389 -1.725,3.78 -3.383,4.178 -4.311,1.063 -11.805,2.454 -22.479,4.178 -1.328,16.515 -1.99,30.275 -1.99,41.283 0,4.178 0.065,8.291 0.199,12.335 0.063,1.26 0,2.222 -0.199,2.886 -0.332,1.061 -0.994,1.558 -1.99,1.491 -1.924,-0.065 -3.516,-0.88 -4.772,-2.438 -1.262,-1.559 -1.957,-3.298 -2.09,-5.223 -0.133,-2.452 -0.199,-5.04 -0.199,-7.759 0,-4.377 0.299,-11.307 0.896,-20.791 0.597,-9.086 0.861,-16.017 0.796,-20.791 -1.791,-0.131 -4.277,0.034 -7.462,0.498 -3.647,0.531 -6.168,0.795 -7.561,0.795 -3.248,0 -5.9,-0.869 -7.957,-2.607 -0.797,-1.737 -1.193,-2.641 -1.193,-2.707 0,-0.469 0.232,-0.971 0.695,-1.505 2.123,-0.735 6.467,-1.403 13.03,-2.007 5.771,-0.603 10.08,-1.672 12.933,-3.209 2.322,0.795 4.976,1.192 7.959,1.192 2.983,0 5.834,-0.362 8.556,-1.094 0.797,-0.065 2.817,-0.53 6.067,-1.394 2.387,-0.598 4.377,-0.795 5.969,-0.598 1.193,0 1.691,0.498 1.492,1.492 1.789,0.004 2.683,0.602 2.683,1.795 z" />
	<path
   id="path93"
   d="m 419.894,303.02 c 0.398,1.063 0.599,1.989 0.599,2.785 0,1.327 -0.564,2.485 -1.691,3.48 -1.129,0.995 -1.891,1.458 -2.287,1.394 -3.25,-0.598 -5.307,-3.217 -6.168,-7.858 -0.93,-5.039 -2.022,-9.252 -3.282,-12.634 -2.257,0.198 -4.511,0.397 -6.765,0.597 -2.588,0.333 -4.61,1.129 -6.067,2.389 -0.73,2.057 -1.691,5.703 -2.886,10.941 -1.129,4.84 -2.223,8.521 -3.282,11.042 -0.531,1.193 -1.658,1.524 -3.384,0.995 -2.188,-0.73 -3.35,-1.727 -3.479,-2.984 -0.199,-2.521 0.529,-5.901 2.188,-10.146 1.99,-4.841 3.084,-8.29 3.283,-10.347 0.064,-0.598 -0.365,-1.26 -1.293,-1.989 -0.93,-0.729 -1.393,-1.294 -1.393,-1.69 0,-0.331 0.147,-0.68 0.446,-1.045 0.3,-0.363 0.994,-0.662 2.091,-0.896 1.094,-0.23 1.705,-0.578 1.84,-1.043 1.192,-3.315 3.084,-9.483 5.67,-18.504 2.188,-7.824 4.145,-13.826 5.869,-18.004 0.397,-0.929 1.227,-1.394 2.485,-1.394 0.929,0 1.759,0.298 2.488,0.896 1.854,1.592 3.049,3.979 3.58,7.162 0.397,2.721 0.762,5.438 1.094,8.156 3.314,15.652 6.763,28.55 10.344,38.697 z m -14.524,-19 c -0.199,-2.453 -0.631,-5.206 -1.293,-8.258 -0.664,-2.65 -1.293,-5.305 -1.891,-7.957 -1.988,5.505 -3.716,11.009 -5.173,16.513 1.062,-0.2 3.847,-0.298 8.357,-0.298 z" />
	<path
   id="path95"
   d="m 459.386,282.924 c -1.791,4.443 -2.953,9.916 -3.481,16.414 -0.332,5.638 -0.632,11.273 -0.896,16.91 -0.135,1.657 -1.229,2.487 -3.283,2.487 -0.598,0 -1.162,-0.1 -1.69,-0.299 -2.853,-1.193 -4.277,-3.416 -4.277,-6.664 0,-0.93 0.133,-2.338 0.398,-4.229 0.264,-1.89 0.396,-3.266 0.396,-4.127 0.267,-1.924 0.598,-4.809 0.996,-8.654 -4.576,4.312 -9.75,7.527 -15.52,9.648 -0.795,0.267 -1.59,0.397 -2.388,0.397 -3.051,0 -5.868,-1.724 -8.455,-5.173 -1.459,-1.924 -2.188,-4.311 -2.188,-7.162 0,-2.521 0.563,-5.473 1.691,-8.854 3.516,-10.743 9.116,-21.254 16.813,-31.534 3.846,-5.104 7.262,-7.658 10.246,-7.658 2.65,0 4.143,0.994 4.477,2.983 0.265,1.658 -0.299,2.853 -1.69,3.581 -2.322,1.262 -3.549,1.957 -3.683,2.09 -5.569,6.166 -10.678,14.125 -15.317,23.873 -2.854,6.035 -4.277,11.44 -4.277,16.215 0,0.862 0.031,1.727 0.101,2.586 0.131,0.067 0.329,0.383 0.596,0.945 0.266,0.564 0.631,0.746 1.094,0.547 4.377,-1.724 10.977,-6.267 19.797,-13.628 0.662,-0.53 1.426,-2.055 2.287,-4.575 0.662,-1.855 1.857,-2.785 3.582,-2.785 -0.531,0 0,-0.065 1.592,-0.199 0.795,-0.133 1.326,0 1.592,0.398 1.259,1.856 1.89,3.381 1.89,4.575 -0.007,0.599 -0.14,1.23 -0.403,1.892 z" />
</g>
</svg>
