<?xml version="1.0" encoding="utf-8"?>
<!-- Generator: Adobe Illustrator 16.0.0, SVG Export Plug-In . SVG Version: 6.00 Build 0)  -->
<!DOCTYPE svg PUBLIC "-//W3C//DTD SVG 1.1//EN" "http://www.w3.org/Graphics/SVG/1.1/DTD/svg11.dtd">
<svg version="1.1" id="Layer_1" xmlns="http://www.w3.org/2000/svg" xmlns:xlink="http://www.w3.org/1999/xlink" x="0px" y="0px"
	 width="646px" height="449px" viewBox="0 0 646 449" enable-background="new 0 0 646 449" xml:space="preserve">
<g>
	<path fill="#FFFFFF" d="M296.846,357.738c-16.433-0.225-32.742-0.223-49.15-1.422c-15.524-1.135-31.074-3.297-46.634-3.772
		c-15.958-0.486-36.145,2.735-48.348-10.197c-5.475-5.801-8.446-13.046-11.948-20.029c0.671,5.056,0.981,10.216,1.584,15.618
		c0.657,5.876,1.696,11.993,5.652,16.649c4.589,5.402,10.826,6.656,17.638,6.352c30.201-1.348,60.609,0.606,90.825,1.76
		c16.564,0.632,33.127,1.337,49.681,2.198c16.896,0.879,33.767,2.282,50.695,2.319c23.434,0.051,46.807-1.476,70.191-2.719
		c-10.842-0.058-21.684-0.44-32.514-1.044C361.963,361.637,329.469,358.185,296.846,357.738z"/>
	<path fill="#FFFFFF" d="M474.33,363.213c7.027,0.073,14.051,0.17,21.078,0.027c7.953-0.161,16.773-1.03,23.385-5.925
		c0.484-0.358,0.949-0.733,1.402-1.119C506.914,364.015,489.146,363.21,474.33,363.213z"/>
	<path fill="#FFFFFF" d="M152.868,102.409c-8.022,2.767-14.501,8.1-17.108,18.356c-1.54,6.057-1.86,12.212-1.9,18.395
		c0.667-2.808,1.376-5.604,2.176-8.372C139.288,119.525,144.64,109.598,152.868,102.409z"/>
	<path fill="#FFFFFF" d="M531.893,194.935c0.363-16.256,0.83-32.631-0.803-48.837c-0.926-9.19-1.801-19.681-6.119-28.194
		c1.537,5.031,1.959,10.492,1.986,15.651c0.059,10.519-1.268,20.949-2.404,31.387c-1.361,12.515-1.162,24.8-0.012,37.347
		c1.416,15.468,3.691,30.879,4.436,46.405c0.689,14.407,0.027,28.743,1.143,43.151c1.041,13.422,2.553,27.047,1.467,40.514
		c-0.012,0.133-0.023,0.266-0.033,0.398c2.215-13.338,1.84-27.242,1.82-40.695C533.324,259.657,531.164,227.344,531.893,194.935z"/>
	<path fill="#FFFFFF" d="M104.008,254.505c-0.205-0.659-0.398-1.32-0.582-1.984c0.894,6.045,2.332,11.946,4.395,17.266
		c4.021,10.367,10.772,18.855,18.011,27.15c2.248,2.575,4.499,5.172,6.68,7.824c-4.554-8.792-10.141-16.912-15.567-25.184
		C111.79,271.722,106.813,263.538,104.008,254.505z"/>
	<path fill="#FFFFFF" d="M189.221,97.343c32.934,0.028,65.866,0.5,98.793,1.151c65.24,1.29,130.474,3.149,195.73,3.188
		c6.012-0.093,12.813-0.54,19.332,0.004c-17.84-5.559-38.318-3.132-56.539-3.18c-14.035-0.037-28.111-1.991-42.123-2.841
		c-16.348-0.991-32.709-1.756-49.057-2.735c-29.883-1.791-59.587-4.877-89.555-5.399c-15.119-0.263-30.255-0.175-45.36,0.581
		c-14.566,0.729-30.039,1.091-44.268,4.567c-4.772,1.166-9.457,2.791-13.774,5.048C171.359,96.655,180.833,97.336,189.221,97.343z"
		/>
	<path fill="#FFFFFF" d="M124.756,186.318c-1.644,2.687-3.56,5.245-5.559,7.754c0.254-0.299,0.508-0.596,0.761-0.898
		C121.817,190.945,123.394,188.659,124.756,186.318z"/>
	<path fill="#FFFFFF" d="M141.009,123.889c0.839-1.359,1.773-2.68,2.817-3.957c6.441-7.88,15.174-13.149,24.862-16.109
		c7.198-2.199,14.551-3.548,21.981-4.301c-4.146-0.015-8.291-0.037-12.437-0.044c-7.162-0.013-14.767,0.188-21.593,1.834
		c-2.521,1.868-4.833,4.035-6.854,6.559C145.93,112.684,143.127,118.146,141.009,123.889z"/>
	<path fill="#FFFFFF" d="M525.277,238.215c-1.393-15.415-3.678-30.769-4.441-46.236c-0.529-10.728,0.199-21.001,1.391-31.65
		c1.758-15.71,6.629-42.061-7.844-53.33c-8.6-4.253-19.701-3.39-29.504-3.167c-0.104,0.019-0.209,0.03-0.322,0.03
		c-0.369,0-0.738-0.002-1.107-0.003c-0.563,0.009-1.121,0.015-1.674,0.016c-0.107,0-0.205-0.009-0.297-0.021
		c-4.951-0.004-9.902-0.011-14.852-0.037c-40.584-0.208-81.158-1.053-121.73-1.938c-0.398,0.242-0.881,0.429-1.23,0.43
		c-30.554,0.063-61.337,3.747-91.842,1.113c-27.046-2.335-56.283-6.951-82.784,1.716c-12.717,4.159-24.018,12.665-28.753,25.6
		c-4.473,12.216-3.613,25.22-6.056,37.828c-2.345,12.105-7.962,20.755-16.154,29.717c-5.559,6.083-10.326,12.262-13.077,19.549
		c-1.932,11.067-1.925,22.782,1.206,33.566c5.782,19.911,20.708,35.041,29.655,53.412c1.409,2.894,2.427,5.771,3.199,8.654
		c1.867,2.771,3.588,5.638,5.043,8.67c4.61,9.607,8.945,20.081,19.223,24.908c8.333,3.914,17.66,3.844,26.679,3.846
		c12.573,0.002,24.957,0.998,37.479,2.108c16.943,1.503,33.928,3.038,50.949,3.193c16.32,0.148,32.569,0.202,48.874,1.142
		c32.549,1.877,65.047,5.307,97.672,5.631c13.4,0.134,26.691-0.916,40.064-1.199c9.033-0.192,18.078,0.109,27.102-0.404
		c9.143-0.521,20.344-1.229,27.963-6.946c8.928-6.701,8.875-19.33,8.887-29.526c0.018-14.164-1.715-28.223-2.459-42.352
		C525.756,267.742,526.613,253.005,525.277,238.215z M140.125,231.146c-0.248,2.14-0.848,6.552-2.011,10.828
		c-0.081,1.367-0.144,2.72-0.17,4.049c-0.041,2.206-0.924,2.323-1.83,1.559c-2.198,4.61-5.466,7.22-10.25,2.917
		c-7.523-6.771-7.336-19.55-5.703-29.103c0.675-3.914,1.856-10.618,5.954-12.175c4.022-1.529,8.336,0.813,10.126,4.859
		c1.84,4.154,2.456,8.667,2.546,13.276C139.606,228.292,140.273,229.882,140.125,231.146z"/>
	<path fill="#FFFFFF" d="M130.636,215.658c-4.113-0.436-5.645,3.624-6.384,7.315c-1.024,5.102-3.34,17.896,1.878,21.148
		c4.33,2.701,6.748-0.24,8.161-4.43c0.253-4.584,0.693-9.154,0.561-13.76C134.752,222.366,135.124,216.132,130.636,215.658z"/>
	<path fill="#FFFFFF" d="M230.275,99.796c5.219,0.421,10.411,0.923,15.55,1.425c24.711,2.414,49.415,1.002,74.146,0.113
		c-16.623-0.359-33.247-0.705-49.872-0.996C256.825,100.106,243.55,99.933,230.275,99.796z"/>
	<path d="M536.252,281.955c-0.174-16.509-0.811-33.009-1.443-49.505c-0.604-15.744-0.074-31.475,0.221-47.219
		c0.285-15.144,0.016-30.21-1.611-45.277c-1.018-9.421-2.869-19.451-8.262-27.447c-2.537-3.762-5.846-6.271-9.602-7.939
		c-5.594-3.61-13.037-5.111-19.145-6.127c-21.424-3.567-43.432-0.63-65.008-2.46c-31.961-2.712-64.045-3.525-96.004-6.26
		c-29.434-2.519-58.976-4.025-88.524-3.828c-14.447,0.097-28.891,0.702-43.292,1.871c-11.939,0.97-24.062,1.946-35.457,5.86
		c-3.611,1.24-6.875,2.847-9.852,4.74c-5.789,1.107-11.247,3.142-15.907,6.816c-14.188,11.187-11.68,32.167-11.801,49.617
		c-1.071,5.57-2.1,11.146-3.255,16.671c-0.95,4.543-2.335,8.507-4.238,12.296c-2.706,4.252-6.043,8.166-9.815,11.896
		c-6.511,6.439-9.625,13.737-11.188,22.462c-0.314,0.828-0.612,1.67-0.875,2.543c-3.82,12.708-1.345,27.422,0.991,40.168
		c1.959,10.689,7.187,20.17,13.779,28.668c6.423,8.279,13.894,15.658,19.885,24.286c0.183,0.263,0.352,0.532,0.529,0.798
		c2.297,8.706,2.213,17.713,3.409,26.899c1.216,9.347,6.129,18.924,16.146,20.964c4.954,1.01,9.942,0.695,14.95,0.326
		c7.849-0.579,15.658-0.199,23.517,0.04c32.945,1.003,65.889,2.079,98.813,3.642c32.2,1.527,64.012,3.557,96.27,2.196
		c31.984-1.349,63.922-4.099,95.963-3.444c14.984,0.307,31.572,0.453,41.521-12.721c5.229-6.92,7.127-15.937,8.164-24.357
		C536.996,312.95,536.412,297.217,536.252,281.955z M176.174,92.678c14.229-3.476,29.702-3.838,44.268-4.567
		c15.105-0.755,30.241-0.844,45.36-0.581c29.968,0.521,59.672,3.608,89.555,5.399c16.348,0.979,32.709,1.744,49.057,2.735
		c14.012,0.85,28.088,2.805,42.123,2.841c18.221,0.047,38.699-2.379,56.539,3.18c-6.52-0.544-13.32-0.097-19.332-0.004
		c-65.256-0.038-130.49-1.897-195.73-3.188c-32.928-0.651-65.859-1.123-98.793-1.151c-8.387-0.007-17.861-0.688-26.821,0.383
		C166.717,95.469,171.401,93.844,176.174,92.678z M319.971,101.335c-24.731,0.889-49.436,2.301-74.146-0.113
		c-5.139-0.502-10.331-1.004-15.55-1.425c13.275,0.137,26.55,0.31,39.824,0.542C286.724,100.63,303.348,100.976,319.971,101.335z
		 M156.639,101.311c6.826-1.646,14.432-1.847,21.593-1.834c4.146,0.007,8.291,0.029,12.437,0.044
		c-7.431,0.753-14.783,2.102-21.981,4.301c-9.688,2.96-18.421,8.229-24.862,16.109c-1.044,1.277-1.978,2.598-2.817,3.957
		c2.118-5.742,4.921-11.205,8.776-16.019C151.806,105.346,154.119,103.179,156.639,101.311z M135.759,120.765
		c2.607-10.256,9.086-15.59,17.108-18.356c-8.228,7.189-13.58,17.117-16.833,28.38c-0.8,2.768-1.508,5.564-2.176,8.372
		C133.899,132.978,134.219,126.822,135.759,120.765z M124.756,186.318c-1.362,2.341-2.938,4.627-4.798,6.855
		c-0.252,0.303-0.507,0.599-0.761,0.898C121.196,191.563,123.112,189.005,124.756,186.318z M125.833,296.937
		c-7.239-8.295-13.99-16.783-18.011-27.15c-2.063-5.319-3.501-11.221-4.395-17.266c0.184,0.664,0.377,1.325,0.582,1.984
		c2.805,9.033,7.782,17.217,12.937,25.072c5.427,8.271,11.013,16.392,15.567,25.184C130.332,302.108,128.08,299.512,125.833,296.937
		z M356.84,367.214c-16.928-0.037-33.799-1.44-50.695-2.319c-16.554-0.861-33.116-1.566-49.681-2.198
		c-30.216-1.153-60.624-3.107-90.825-1.76c-6.813,0.305-13.049-0.949-17.638-6.352c-3.956-4.656-4.995-10.773-5.652-16.649
		c-0.604-5.402-0.914-10.563-1.584-15.618c3.502,6.983,6.474,14.229,11.948,20.029c12.204,12.933,32.39,9.711,48.348,10.197
		c15.56,0.476,31.11,2.638,46.634,3.772c16.408,1.199,32.718,1.197,49.15,1.422c32.623,0.446,65.117,3.898,97.671,5.713
		c10.83,0.604,21.672,0.986,32.514,1.044C403.646,365.738,380.273,367.265,356.84,367.214z M518.793,357.315
		c-6.611,4.895-15.432,5.764-23.385,5.925c-7.027,0.143-14.051,0.046-21.078-0.027c14.816-0.003,32.584,0.802,45.865-7.017
		C519.742,356.582,519.277,356.957,518.793,357.315z M520.107,354.412c-7.619,5.718-18.82,6.425-27.963,6.946
		c-9.023,0.514-18.068,0.212-27.102,0.404c-13.373,0.283-26.664,1.333-40.064,1.199c-32.625-0.324-65.123-3.754-97.672-5.631
		c-16.304-0.939-32.553-0.993-48.874-1.142c-17.021-0.155-34.006-1.69-50.949-3.193c-12.523-1.11-24.906-2.106-37.479-2.108
		c-9.019-0.002-18.346,0.068-26.679-3.846c-10.278-4.827-14.613-15.301-19.223-24.908c-1.455-3.032-3.176-5.898-5.043-8.67
		c-0.772-2.884-1.79-5.761-3.199-8.654c-8.947-18.371-23.873-33.501-29.655-53.412c-3.131-10.784-3.138-22.499-1.206-33.566
		c2.751-7.287,7.518-13.467,13.077-19.549c8.192-8.962,13.809-17.612,16.154-29.717c2.443-12.608,1.583-25.612,6.056-37.828
		c4.735-12.935,16.037-21.441,28.753-25.6c26.5-8.667,55.738-4.051,82.784-1.716c30.505,2.634,61.288-1.051,91.842-1.113
		c0.35,0,0.832-0.188,1.23-0.43c40.572,0.886,81.146,1.73,121.73,1.938c4.949,0.025,9.9,0.032,14.852,0.037
		c0.092,0.012,0.189,0.021,0.297,0.021c0.553-0.001,1.111-0.007,1.674-0.016c0.369,0,0.738,0.003,1.107,0.003
		c0.113,0,0.219-0.011,0.322-0.03c9.803-0.223,20.904-1.086,29.504,3.167c14.473,11.269,9.602,37.62,7.844,53.33
		c-1.191,10.649-1.92,20.923-1.391,31.65c0.764,15.467,3.049,30.822,4.441,46.236c1.336,14.79,0.479,29.527,1.258,44.319
		c0.744,14.129,2.477,28.188,2.459,42.352C528.982,335.082,529.035,347.711,520.107,354.412z M531.553,332.757
		c0.01-0.133,0.021-0.266,0.033-0.398c1.086-13.467-0.426-27.092-1.467-40.514c-1.115-14.408-0.453-28.744-1.143-43.151
		c-0.744-15.525-3.02-30.937-4.436-46.405c-1.15-12.546-1.35-24.832,0.012-37.347c1.137-10.438,2.463-20.868,2.404-31.387
		c-0.027-5.159-0.449-10.621-1.986-15.651c4.318,8.513,5.193,19.004,6.119,28.194c1.633,16.207,1.166,32.581,0.803,48.837
		c-0.729,32.409,1.432,64.722,1.48,97.126C533.393,305.515,533.768,319.419,531.553,332.757z"/>
	<path d="M136.242,214.081c-1.79-4.047-6.104-6.389-10.126-4.859c-4.098,1.557-5.279,8.261-5.954,12.175
		c-1.633,9.553-1.82,22.331,5.703,29.103c4.784,4.303,8.052,1.693,10.25-2.917c0.905,0.765,1.789,0.647,1.83-1.559
		c0.026-1.329,0.089-2.682,0.17-4.049c1.163-4.276,1.763-8.688,2.011-10.828c0.148-1.265-0.518-2.854-1.336-3.789
		C138.697,222.748,138.082,218.235,136.242,214.081z M134.292,239.692c-1.413,4.189-3.831,7.131-8.161,4.43
		c-5.218-3.252-2.902-16.047-1.878-21.148c0.739-3.691,2.271-7.751,6.384-7.315c4.487,0.474,4.116,6.708,4.216,10.274
		C134.985,230.538,134.544,235.108,134.292,239.692z"/>
</g>
<g>
	<path d="M216.434,145.974c0,1.357-0.983,2.543-2.949,3.56c-0.544,0.271-1.119,0.305-1.729,0.102
		c-0.95-0.27-1.459-0.407-1.525-0.407c-0.407,0-0.814,0.204-1.221,0.61c-3.662,3.662-5.493,8.137-5.493,13.426
		c0,1.967,0.305,3.798,0.916,5.492c0.271,0.747,2.848,6.001,7.73,15.766c3.255,6.509,4.882,12.037,4.882,16.579
		c0,3.73-0.916,7.324-2.746,10.782c-0.61,1.152-2.136,2.645-4.577,4.474c-1.967,1.425-3.73,2.136-5.289,2.136
		c-0.61,0-1.187-0.101-1.729-0.305c-2.034-0.881-3.051-2.001-3.051-3.356c0-0.813,0.509-1.797,1.526-2.949
		c0.27-0.34,0.916-0.544,1.933-0.61c1.017-0.068,1.694-0.475,2.034-1.221c1.424-2.983,2.136-6.035,2.136-9.154
		c0-4.407-2.187-10.797-6.56-19.173c-4.374-8.374-6.561-15.069-6.561-20.088c0-4.135,0.813-7.832,2.441-11.086
		c1.831-3.728,4.44-6.408,7.832-8.035c1.559-0.746,3.085-1.119,4.577-1.119c2.848,0,4.984,0.78,6.408,2.339
		C216.094,144.483,216.434,145.229,216.434,145.974z"/>
	<path d="M274.105,144.143c-0.611,2.441-1.765,3.865-3.459,4.272c-4.408,1.085-12.07,2.509-22.986,4.272
		c-1.357,16.884-2.035,30.956-2.035,42.21c0,4.272,0.067,8.477,0.204,12.612c0.066,1.288,0,2.271-0.204,2.95
		c-0.34,1.084-1.017,1.592-2.033,1.526c-1.969-0.068-3.596-0.9-4.883-2.492c-1.289-1.594-2.001-3.373-2.136-5.34
		c-0.137-2.508-0.204-5.152-0.204-7.934c0-4.475,0.306-11.561,0.916-21.258c0.609-9.289,0.881-16.376,0.813-21.258
		c-1.831-0.135-4.373,0.035-7.628,0.508c-3.73,0.543-6.307,0.814-7.73,0.814c-3.322,0-6.035-0.889-8.137-2.667
		c-0.814-1.777-1.221-2.7-1.221-2.769c0-0.478,0.239-0.992,0.712-1.539c2.171-0.751,6.611-1.435,13.324-2.051
		c5.899-0.615,10.306-1.708,13.223-3.282c2.373,0.814,5.086,1.221,8.138,1.221c3.051,0,5.966-0.372,8.746-1.119
		c0.814-0.067,2.882-0.542,6.205-1.424c2.441-0.61,4.476-0.814,6.103-0.61c1.221,0,1.729,0.508,1.526,1.525
		C273.189,142.312,274.105,142.923,274.105,144.143z"/>
	<path d="M273.502,198.559c0.61,2.441,0.491,4.086-0.355,4.933c-0.849,0.849-2.085,1.205-3.713,1.068
		c-1.356-0.067-2.645-0.677-3.865-1.831c-1.22-1.152-1.831-2.373-1.831-3.662c0-0.814,0.339-1.577,1.018-2.289
		c0.677-0.712,1.389-1.033,2.137-0.966c1.287,0.068,2.576,0.17,3.864,0.305C272.248,196.458,273.163,197.271,273.502,198.559z"/>
	<path d="M335.611,195.737c-0.137,0.068-4.104,2.896-11.9,8.482c-4.543,3.271-8.579,5.689-12.105,7.256
		c-0.407,0.203-0.813,0.307-1.22,0.307c-0.951,0-1.831-0.612-2.645-1.834c-1.221-1.631-1.865-2.478-1.932-2.546
		c-0.137-5.976,0.236-14.295,1.117-24.959c1.018-11.341,1.525-19.525,1.525-24.551c0-3.463-0.137-6.723-0.406-9.78
		c0.881-0.882,1.999-1.324,3.356-1.324c2.576,0,4.068,0.95,4.476,2.848c0.204,5.561-0.035,13.884-0.712,24.971
		c-0.679,11.087-0.95,19.411-0.813,24.97c1.897-0.814,4.374-2.237,7.424-4.272c3.323-2.304,5.729-3.83,7.221-4.577
		c0.34,0,0.934-0.066,1.781-0.203c0.848-0.135,1.477-0.204,1.883-0.204c1.355,0,2.338,0.545,2.949,1.635
		C336.426,193.456,336.426,194.717,335.611,195.737z"/>
	<path d="M373.039,185.54c-4.002,9.019-9.662,14.376-16.984,16.071c-0.883,0.203-1.766,0.305-2.646,0.305
		c-3.865,0-7.764-2.101-11.695-6.307c-2.645-2.848-3.967-6.543-3.967-11.086c0-5.018,1.49-10.408,4.475-16.172
		c1.287-2.441,2.848-4.542,4.68-6.307c2.1-2.101,4.102-3.153,6-3.153c1.084,0,2.102,0.407,3.051,1.221s3.492,1.899,7.629,3.255
		c3.256,1.085,5.561,2.916,6.918,5.492c2.371,4.544,3.559,8.442,3.559,11.697C374.057,182.387,373.717,184.049,373.039,185.54z
		 M364.902,179.233c-0.475-4.949-1.797-7.898-3.967-8.849c-0.34-0.135-0.645-0.203-0.916-0.203c-0.813,0-1.83,0.678-3.051,2.034
		c-1.357,1.561-2.408,2.476-3.152,2.746c-0.477,0.204-1.154,0-2.035-0.61s-1.459-0.916-1.729-0.916c-0.203,0-0.373,0.068-0.51,0.204
		c-2.373,2.034-3.559,5.187-3.559,9.459c0,2.917,0.676,5.391,2.035,7.425c1.896,2.781,3.49,4.17,4.779,4.17
		c2.982,0,5.865-1.864,8.645-5.595C364.09,185.575,365.24,182.285,364.902,179.233z"/>
	<path d="M414.131,152.076c-0.475,4.748-1.83,11.087-4.068,19.021c-3.051,10.646-4.816,17.088-5.289,19.326
		c-1.492,6.849-4.342,13.087-8.545,18.715c-2.645,3.593-5.695,5.356-9.152,5.289c-3.053-0.069-5.326-2.001-6.816-5.798
		c-2.578-6.373-3.865-13.866-3.865-22.479c0-4.949,0.475-11.323,1.424-19.122c-0.068,0.679-0.1-1.424-0.1-6.306
		c0-4.204,1.627-6.306,4.881-6.306c0.678,0,1.406,0.188,2.188,0.56c0.777,0.373,1.541,0.763,2.289,1.169
		c0.066,3.458-0.037,8.543-0.307,15.257c-0.34,7.188-0.508,12.375-0.508,15.562c0,3.392,0.305,6.469,0.305,9.256
		c0,3.408-0.119,6.637,0.648,6.511c-0.189,0.031,6.275,2.171,7.896-11.087c0.223-1.831,1.627-6.577,3.254-14.443
		c1.287-5.966,2.746-10.645,4.373-14.037c0.475-0.949,0.881-2.746,1.221-5.391c0.338-2.645,0.746-4.475,1.221-5.493
		c0.746-1.627,2.035-2.441,3.865-2.441C411.418,149.839,413.113,150.585,414.131,152.076z"/>
	<path d="M428.674,156.043c0.135,1.967,0.203,4.001,0.203,6.103c0,4.612-0.475,11.562-1.424,20.851
		c-0.949,9.291-1.424,16.309-1.424,21.055c0,1.764,0.033,3.491,0.102,5.188c-0.609,1.897-1.932,2.813-3.967,2.746
		c-2.916-0.137-4.51-1.391-4.779-3.764c-0.273-2.373-0.408-4.882-0.408-7.527c0-4.61,0.561-11.493,1.678-20.647
		c1.119-9.154,1.68-16.002,1.68-20.546c0-1.763-0.068-3.491-0.203-5.188c0.678-1.287,1.83-1.933,3.457-1.933
		c1.287,0,2.576,0.374,3.865,1.119c0.271-0.203,0.475-0.305,0.611-0.305c0.203,0,0.305,0.34,0.305,1.017
		c-0.068,0.814-0.068,1.289,0,1.424C428.436,155.84,428.537,155.977,428.674,156.043z"/>
	<path d="M456.137,145.974c0,1.357-0.984,2.543-2.949,3.56c-0.543,0.271-1.119,0.305-1.73,0.102
		c-0.949-0.27-1.459-0.407-1.525-0.407c-0.406,0-0.813,0.204-1.221,0.61c-3.66,3.662-5.492,8.137-5.492,13.426
		c0,1.967,0.305,3.798,0.916,5.492c0.27,0.747,2.848,6.001,7.73,15.766c3.254,6.509,4.881,12.037,4.881,16.579
		c0,3.73-0.914,7.324-2.746,10.782c-0.609,1.152-2.135,2.645-4.576,4.474c-1.969,1.425-3.73,2.136-5.289,2.136
		c-0.611,0-1.188-0.101-1.729-0.305c-2.035-0.881-3.053-2.001-3.053-3.356c0-0.813,0.51-1.797,1.527-2.949
		c0.27-0.34,0.914-0.544,1.932-0.61c1.018-0.068,1.693-0.475,2.033-1.221c1.426-2.983,2.137-6.035,2.137-9.154
		c0-4.407-2.188-10.797-6.561-19.173c-4.373-8.374-6.561-15.069-6.561-20.088c0-4.135,0.814-7.832,2.441-11.086
		c1.832-3.728,4.441-6.408,7.832-8.035c1.559-0.746,3.084-1.119,4.576-1.119c2.85,0,4.984,0.78,6.408,2.339
		C455.797,144.483,456.137,145.229,456.137,145.974z"/>
</g>
<g>
	<path d="M238.949,266.412c-0.863,3.581-3.052,6.831-6.566,9.749c-3.382,2.388-6.764,4.742-10.146,7.063
		c0.199,0.995,0.879,1.741,2.039,2.238s2.271,0.979,3.333,1.442c5.504,3.581,8.257,7.826,8.257,12.733
		c0,3.78-1.293,7.262-3.88,10.444c-1.989,2.453-4.941,4.875-8.854,7.263c-3.183,1.855-6.367,3.713-9.55,5.57
		c-0.796,0.463-1.658,0.696-2.586,0.696c-2.188,0-3.715-0.896-4.576-2.686c0.132-5.571,0.264-11.109,0.398-16.613
		c0.132-6.631,0.497-12.102,1.094-16.413c-1.393-0.928-2.089-1.989-2.089-3.184c0-0.597,0.249-1.144,0.746-1.642
		c0.498-0.497,1.177-1.044,2.04-1.641c0.796-10.08,0.96-19.364,0.497-27.854c-3.118-0.597-5.172-1.99-6.167-4.179
		c-0.067-0.264,0.05-0.662,0.348-1.193c0.299-0.53,0.448-0.961,0.448-1.293c1.525-1.127,3.216-1.691,5.073-1.691
		c1.326,0,4.377,0.433,9.152,1.293c2.453,0.398,5.006,1.294,7.66,2.687c7.162,3.715,11.373,7.328,12.633,10.843
		C239.113,262.567,239.346,264.688,238.949,266.412z M226.613,300.434c0.133-0.729,0.199-1.426,0.199-2.089
		c0-1.99-0.631-3.746-1.891-5.272c-3.382-1.657-5.538-2.487-6.465-2.487c-0.532,0-1.029,0.1-1.492,0.299
		c0.065,0.663,0.1,1.393,0.1,2.188c0,1.393-0.184,3.531-0.547,6.416c-0.365,2.885-0.547,5.058-0.547,6.516
		c0,2.123,0.264,4.044,0.795,5.77c0.796-0.93,2.04-1.907,3.73-2.935c1.692-1.027,2.868-1.939,3.532-2.735
		C225.22,304.711,226.082,302.82,226.613,300.434z M229.597,261.438c-0.332-2.453-2.322-4.343-5.969-5.67
		c-0.531-0.199-1.359-0.63-2.487-1.293c-0.795-0.53-1.459-0.796-1.989-0.796c-0.266,0-0.564,0.066-0.896,0.198
		c-0.067,1.129-0.099,2.322-0.099,3.581c0,1.726,0.132,4.644,0.398,8.754c0.199,3.78,0.264,6.732,0.199,8.854
		c0.463,0,1.16-0.348,2.089-1.044c0.928-0.696,1.458-1.077,1.592-1.145c1.989-0.928,3.746-2.486,5.272-4.675
		C229.232,266.015,229.861,263.761,229.597,261.438z"/>
	<path d="M254.266,259.35c0.132,1.924,0.199,3.914,0.199,5.969c0,4.511-0.465,11.308-1.393,20.393
		c-0.93,9.086-1.394,15.95-1.394,20.592c0,1.725,0.033,3.414,0.1,5.073c-0.596,1.855-1.89,2.751-3.879,2.686
		c-2.852-0.134-4.411-1.36-4.676-3.681c-0.266-2.32-0.397-4.774-0.397-7.361c0-4.509,0.547-11.241,1.642-20.193
		c1.094-8.953,1.641-15.65,1.641-20.095c0-1.724-0.066-3.415-0.199-5.073c0.662-1.259,1.791-1.89,3.383-1.89
		c1.259,0,2.52,0.365,3.78,1.094c0.265-0.198,0.463-0.298,0.597-0.298c0.199,0,0.299,0.332,0.299,0.994
		c-0.067,0.796-0.067,1.261,0,1.393C254.033,259.15,254.132,259.284,254.266,259.35z"/>
	<path d="M294.056,304.213c0.398,0.333,0.598,0.796,0.598,1.394c0,0.397-0.266,1.393-0.797,2.983
		c-0.266-0.064-0.496-0.099-0.695-0.099c-0.398,0-0.912,0.166-1.543,0.497c-0.631,0.333-1.111,0.497-1.441,0.497
		c-0.333,0-0.697-0.132-1.095-0.397c-4.444-2.785-11.341-6.964-20.69-12.534c0.198,2.454,0.363,5.969,0.497,10.545
		c0,0.531,0.065,1.327,0.198,2.387c0.133,1.061,0.199,1.823,0.199,2.288c0,1.592-0.696,2.686-2.089,3.283
		c-0.397,0.264-0.962,0.397-1.69,0.397c-0.797,0-1.294-0.233-1.492-0.696c-1.726-0.597-2.721-1.758-2.984-3.481
		c-0.797-4.775-1.194-10.378-1.194-16.812c0-2.32,0.065-5.785,0.199-10.396c0.132-4.608,0.198-8.073,0.198-10.396
		c0-7.028-0.464-13.131-1.393-18.304c-0.133-0.796,0.332-1.325,1.393-1.592c0.797-0.132,1.625-0.264,2.487-0.397
		c0.861,0.266,1.757,0.581,2.687,0.945c0.928,0.365,1.425,0.944,1.492,1.74c0.994,9.021,1.425,16.183,1.293,21.487
		c2.719-2.453,5.834-5.703,9.351-9.749c2.984-3.382,5.935-6.797,8.854-10.246c0.796-0.331,1.657-0.497,2.587-0.497
		c2.586,0,3.944,0.896,4.078,2.686c-1.857,4.113-5.506,8.987-10.943,14.623c-6.365,6.565-10.444,11.241-12.234,14.026
		c4.111,2.454,8.256,4.908,12.434,7.361C286.959,298.677,290.873,301.495,294.056,304.213z"/>
	<path d="M331.361,259.946c-2.455,0.995-6.068,2.156-10.844,3.481c-4.775,1.328-8.391,2.487-10.843,3.482
		c-0.597,1.725-1.028,5.57-1.293,11.539c1.06,0.397,2.288,0.597,3.681,0.597c0.994,0,2.552-0.165,4.676-0.497
		c2.121-0.331,3.68-0.498,4.675-0.498c1.857,0,3.449,0.398,4.775,1.194c0.93,1.327,1.395,2.188,1.395,2.586
		c0,0.465-0.234,0.83-0.697,1.095c-0.133,0.066-0.598,0.531-1.393,1.393c-0.531,0.597-1.193,0.862-1.99,0.796
		c-1.393,0.332-3.947,0.531-7.661,0.597c-3.117,0.066-5.604,0.465-7.46,1.193c-1.261,4.909-1.89,8.788-1.89,11.639
		c0,1.925,0.264,3.449,0.795,4.576c3.117,2.188,8.521,3.118,16.215,2.785c0.531,0,1.096-0.248,1.691-0.746
		c0.598-0.497,1.094-0.746,1.492-0.746c1.855-0.397,3.084,0.995,3.682,4.178c0.197,1.063,0.016,2.04-0.549,2.935
		c-0.563,0.896-1.377,1.376-2.436,1.443c-8.026,0.264-14.99-0.366-20.891-1.891c-1.857-0.465-3.549-1.492-5.074-3.084
		s-2.387-3.382-2.586-5.371c-0.598-5.77-0.598-10.942,0-15.519c-1.857-1.259-2.686-2.487-2.486-3.681
		c0.064-0.597,0.579-1.145,1.541-1.642c0.961-0.497,1.508-1.01,1.642-1.542c0.132-0.529,0.397-3.681,0.796-9.45
		c-3.715-0.729-5.538-2.121-5.471-4.178c0.064-1.923,1.226-3.447,3.48-4.576c2.122-0.861,4.244-1.724,6.367-2.586
		c2.453-1.259,5.536-2.388,9.251-3.383c3.249-0.86,6.499-1.69,9.75-2.486c0.332-0.065,0.729-0.1,1.193-0.1
		c1.791,0,3.881,0.696,6.268,2.089c0.066,0.266,0.232,0.764,0.498,1.492c0.264,0.73,0.396,1.261,0.396,1.592
		C332.057,259.185,331.824,259.615,331.361,259.946z"/>
	<path d="M383.686,247.711c-0.598,2.388-1.725,3.78-3.383,4.178c-4.311,1.062-11.805,2.454-22.48,4.178
		c-1.328,16.514-1.99,30.275-1.99,41.283c0,4.178,0.066,8.291,0.199,12.335c0.064,1.259,0,2.221-0.199,2.885
		c-0.332,1.061-0.994,1.558-1.99,1.492c-1.924-0.066-3.516-0.88-4.773-2.438c-1.262-1.559-1.957-3.298-2.09-5.223
		c-0.133-2.452-0.199-5.039-0.199-7.759c0-4.377,0.299-11.306,0.896-20.79c0.596-9.086,0.861-16.017,0.795-20.791
		c-1.791-0.132-4.277,0.034-7.461,0.497c-3.648,0.532-6.168,0.796-7.561,0.796c-3.248,0-5.9-0.869-7.957-2.608
		c-0.797-1.737-1.193-2.641-1.193-2.707c0-0.468,0.232-0.97,0.695-1.505c2.123-0.735,6.467-1.403,13.031-2.007
		c5.77-0.602,10.08-1.671,12.932-3.209c2.322,0.796,4.975,1.193,7.959,1.193s5.834-0.363,8.555-1.094
		c0.797-0.065,2.818-0.53,6.068-1.394c2.387-0.597,4.377-0.795,5.969-0.597c1.193,0,1.691,0.498,1.492,1.492
		C382.791,245.92,383.686,246.517,383.686,247.711z"/>
	<path d="M406.266,304.91c0.398,1.062,0.598,1.989,0.598,2.785c0,1.327-0.564,2.486-1.691,3.481
		c-1.129,0.995-1.891,1.458-2.287,1.393c-3.25-0.597-5.307-3.216-6.168-7.858c-0.93-5.039-2.023-9.252-3.283-12.634
		c-2.256,0.199-4.51,0.398-6.764,0.597c-2.588,0.333-4.611,1.129-6.068,2.388c-0.73,2.057-1.691,5.704-2.885,10.942
		c-1.129,4.84-2.223,8.521-3.283,11.042c-0.531,1.193-1.658,1.524-3.383,0.995c-2.188-0.73-3.35-1.726-3.48-2.984
		c-0.199-2.521,0.529-5.902,2.188-10.146c1.99-4.841,3.084-8.29,3.283-10.346c0.064-0.598-0.365-1.26-1.293-1.99
		c-0.93-0.729-1.393-1.293-1.393-1.69c0-0.331,0.148-0.68,0.447-1.045c0.299-0.363,0.994-0.662,2.09-0.896
		c1.094-0.231,1.705-0.579,1.84-1.044c1.193-3.315,3.084-9.483,5.67-18.503c2.188-7.824,4.145-13.827,5.869-18.005
		c0.398-0.928,1.227-1.393,2.486-1.393c0.928,0,1.758,0.298,2.488,0.895c1.855,1.592,3.049,3.979,3.58,7.163
		c0.398,2.72,0.762,5.438,1.094,8.156C399.236,281.865,402.686,294.763,406.266,304.91z M391.742,285.91
		c-0.199-2.453-0.631-5.206-1.293-8.257c-0.664-2.651-1.293-5.305-1.891-7.958c-1.988,5.505-3.715,11.009-5.172,16.513
		C384.447,286.009,387.232,285.91,391.742,285.91z"/>
	<path d="M445.758,284.815c-1.791,4.443-2.953,9.915-3.482,16.414c-0.332,5.637-0.631,11.273-0.895,16.91
		c-0.135,1.657-1.229,2.487-3.283,2.487c-0.598,0-1.162-0.1-1.691-0.299c-2.852-1.193-4.277-3.416-4.277-6.664
		c0-0.93,0.133-2.338,0.398-4.229c0.264-1.89,0.396-3.266,0.396-4.128c0.266-1.923,0.598-4.808,0.996-8.654
		c-4.576,4.312-9.75,7.527-15.52,9.649c-0.795,0.266-1.59,0.397-2.387,0.397c-3.051,0-5.869-1.724-8.455-5.173
		c-1.459-1.923-2.189-4.31-2.189-7.162c0-2.52,0.564-5.472,1.691-8.854c3.516-10.743,9.117-21.254,16.813-31.534
		c3.846-5.105,7.262-7.659,10.246-7.659c2.65,0,4.143,0.994,4.477,2.984c0.264,1.658-0.299,2.852-1.691,3.581
		c-2.322,1.261-3.549,1.957-3.682,2.089c-5.57,6.167-10.678,14.126-15.318,23.874c-2.854,6.035-4.277,11.44-4.277,16.215
		c0,0.862,0.031,1.726,0.1,2.586c0.131,0.067,0.33,0.383,0.596,0.945c0.266,0.564,0.631,0.746,1.094,0.547
		c4.377-1.724,10.977-6.267,19.797-13.628c0.662-0.53,1.426-2.055,2.287-4.576c0.662-1.855,1.857-2.785,3.582-2.785
		c-0.531,0,0-0.065,1.592-0.199c0.795-0.132,1.326,0,1.592,0.398c1.258,1.857,1.889,3.382,1.889,4.576
		C446.154,283.522,446.021,284.153,445.758,284.815z"/>
</g>
</svg>
