<?xml version="1.0" encoding="utf-8"?>
<!-- Generator: Adobe Illustrator 16.0.0, SVG Export Plug-In . SVG Version: 6.00 Build 0)  -->
<!DOCTYPE svg PUBLIC "-//W3C//DTD SVG 1.1//EN" "http://www.w3.org/Graphics/SVG/1.1/DTD/svg11.dtd">
<svg version="1.1" id="Layer_1" xmlns="http://www.w3.org/2000/svg" xmlns:xlink="http://www.w3.org/1999/xlink" x="0px" y="0px"
	 width="646px" height="449px" viewBox="0 0 646 449" enable-background="new 0 0 646 449" xml:space="preserve">
<path fill="none" d="M194.385,96.585c32.934,0.029,65.865,0.5,98.793,1.152c65.239,1.29,130.474,3.149,195.73,3.188
	c6.011-0.094,12.81-0.541,19.331,0.004c-17.84-5.56-38.318-3.133-56.538-3.18c-14.036-0.037-28.111-1.992-42.124-2.842
	c-16.351-0.991-32.708-1.756-49.06-2.735c-29.884-1.79-59.587-4.878-89.557-5.399c-15.119-0.263-30.254-0.174-45.359,0.581
	c-14.566,0.728-30.039,1.09-44.268,4.567c-4.772,1.165-9.457,2.79-13.77,5.048C176.524,95.897,185.998,96.579,194.385,96.585z"/>
<path fill="none" d="M146.17,123.131c0.839-1.358,1.773-2.681,2.817-3.957c6.441-7.879,15.174-13.149,24.862-16.108
	c7.198-2.199,14.55-3.549,21.981-4.302c-4.146-0.015-8.291-0.037-12.437-0.044c-7.161-0.014-14.767,0.188-21.593,1.834
	c-2.521,1.867-4.833,4.034-6.854,6.558C151.091,111.927,148.288,117.389,146.17,123.131z"/>
<path fill="none" d="M135.797,214.905c-4.113-0.436-5.645,3.624-6.384,7.315c-1.024,5.098-3.34,17.897,1.878,21.149
	c4.33,2.697,6.748-0.244,8.161-4.434c0.253-4.584,0.694-9.154,0.561-13.754C139.913,221.613,140.284,215.379,135.797,214.905z"/>
<path fill="none" d="M109.169,253.748c-0.205-0.66-0.398-1.32-0.582-1.984c0.894,6.045,2.332,11.949,4.395,17.266
	c4.021,10.367,10.772,18.855,18.011,27.15c2.248,2.574,4.499,5.172,6.68,7.824c-4.554-8.793-10.14-16.913-15.567-25.184
	C116.951,270.965,111.974,262.781,109.169,253.748z"/>
<path fill="none" d="M158.028,101.652c-8.022,2.765-14.501,8.099-17.108,18.355c-1.54,6.057-1.86,12.213-1.901,18.396
	c0.668-2.809,1.376-5.603,2.176-8.372C144.448,118.768,149.8,108.84,158.028,101.652z"/>
<path fill="none" d="M129.917,185.561c-1.645,2.687-3.561,5.245-5.559,7.753c0.254-0.299,0.509-0.595,0.761-0.898
	C126.979,190.188,128.555,187.902,129.917,185.561z"/>
<path fill="none" d="M302.006,356.982c-16.433-0.228-32.742-0.226-49.15-1.424c-15.524-1.135-31.074-3.297-46.634-3.771
	c-15.958-0.486-36.144,2.738-48.348-10.197c-5.474-5.8-8.446-13.047-11.948-20.029c0.67,5.055,0.98,10.219,1.584,15.617
	c0.657,5.877,1.696,11.994,5.652,16.65c4.589,5.406,10.825,6.66,17.638,6.352c30.201-1.344,60.609,0.609,90.825,1.764
	c16.565,0.631,33.127,1.336,49.681,2.193c16.896,0.879,33.767,2.283,50.694,2.32c23.436,0.051,46.807-1.477,70.195-2.716
	c-10.847-0.062-21.688-0.441-32.518-1.046C367.122,360.879,334.629,357.427,302.006,356.982z"/>
<path fill="none" d="M479.49,362.459c7.023,0.074,14.052,0.17,21.078,0.027c7.95-0.16,16.773-1.031,23.386-5.928
	c0.483-0.359,0.949-0.734,1.401-1.115C512.074,363.262,494.303,362.457,479.49,362.459z"/>
<path fill="none" d="M537.05,194.18c0.364-16.256,0.831-32.631-0.802-48.837c-0.926-9.19-1.801-19.68-6.119-28.194
	c1.537,5.031,1.958,10.492,1.986,15.652c0.059,10.519-1.269,20.949-2.404,31.387c-1.366,12.515-1.162,24.8-0.013,37.346
	c1.416,15.466,3.692,30.88,4.436,46.401c0.692,14.408,0.031,28.744,1.146,43.152c1.04,13.422,2.552,27.047,1.466,40.514
	c-0.011,0.133-0.022,0.266-0.033,0.398c2.216-13.338,1.84-27.242,1.817-40.693C538.485,258.904,536.322,226.589,537.05,194.18z"/>
<path fill="none" d="M530.433,237.454c-1.389-15.415-3.675-30.768-4.438-46.236c-0.529-10.727,0.202-21.001,1.39-31.65
	c1.762-15.71,6.63-42.061-7.843-53.33c-8.601-4.253-19.702-3.39-29.505-3.167c-0.1,0.018-0.209,0.029-0.322,0.029
	c-0.369,0-0.734-0.002-1.104-0.002c-0.566,0.008-1.121,0.015-1.674,0.016c-0.11,0-0.204-0.008-0.301-0.021
	c-4.95-0.004-9.901-0.011-14.852-0.036c-40.583-0.208-81.159-1.052-121.729-1.938c-0.397,0.242-0.88,0.43-1.229,0.43
	c-30.554,0.062-61.337,3.747-91.843,1.113c-27.045-2.336-56.283-6.951-82.783,1.716c-12.716,4.16-24.018,12.665-28.753,25.6
	c-4.473,12.216-3.613,25.22-6.056,37.828c-2.345,12.105-7.962,20.755-16.154,29.718c-5.559,6.082-10.326,12.262-13.077,19.549
	c-1.932,11.067-1.925,22.782,1.206,33.567c5.782,19.906,20.708,35.041,29.655,53.408c1.409,2.893,2.427,5.77,3.199,8.654
	c1.867,2.771,3.588,5.637,5.043,8.67c4.61,9.607,8.945,20.08,19.223,24.908c8.333,3.914,17.66,3.844,26.679,3.846
	c12.574,0.002,24.957,0.998,37.479,2.107c16.945,1.502,33.929,3.039,50.951,3.189c16.319,0.152,32.568,0.207,48.873,1.146
	c32.55,1.877,65.047,5.307,97.671,5.631c13.401,0.133,26.692-0.916,40.065-1.199c9.036-0.193,18.081,0.113,27.102-0.404
	c9.146-0.518,20.348-1.225,27.962-6.943c8.928-6.701,8.875-19.33,8.887-29.528c0.017-14.165-1.716-28.224-2.46-42.353
	C530.912,266.98,531.772,252.245,530.433,237.454z M145.286,230.389c-0.248,2.137-0.848,6.553-2.011,10.825
	c-0.081,1.367-0.144,2.724-0.17,4.052c-0.041,2.207-0.925,2.325-1.83,1.56c-2.198,4.61-5.466,7.221-10.25,2.918
	c-7.523-6.771-7.336-19.552-5.703-29.103c0.675-3.914,1.856-10.618,5.954-12.175c4.022-1.53,8.336,0.812,10.126,4.859
	c1.84,4.154,2.456,8.666,2.548,13.275C144.768,227.534,145.434,229.122,145.286,230.389z"/>
<path fill="none" d="M235.437,99.039c5.218,0.422,10.41,0.924,15.549,1.426c24.71,2.414,49.415,1.002,74.146,0.113
	c-16.623-0.36-33.247-0.705-49.872-0.996C261.986,99.35,248.711,99.176,235.437,99.039z"/>
<path d="M541.412,281.197c-0.174-16.508-0.813-33.008-1.442-49.504c-0.604-15.745-0.073-31.479,0.225-47.219
	c0.28-15.145,0.015-30.211-1.612-45.277c-1.021-9.421-2.869-19.451-8.261-27.447c-2.537-3.762-5.851-6.271-9.604-7.939
	c-5.593-3.609-13.037-5.111-19.144-6.127c-21.427-3.566-43.437-0.631-65.012-2.461c-31.962-2.711-64.044-3.524-96.003-6.26
	c-29.436-2.52-58.978-4.025-88.521-3.828c-14.449,0.097-28.892,0.701-43.293,1.871c-11.939,0.97-24.062,1.945-35.457,5.859
	c-3.611,1.24-6.875,2.848-9.852,4.74c-5.789,1.107-11.247,3.143-15.907,6.816c-14.188,11.188-11.68,32.167-11.801,49.617
	c-1.071,5.57-2.1,11.146-3.255,16.67c-0.95,4.544-2.335,8.508-4.238,12.297c-2.706,4.252-6.043,8.166-9.815,11.896
	c-6.511,6.438-9.625,13.736-11.188,22.462c-0.314,0.828-0.612,1.67-0.875,2.544c-3.82,12.708-1.345,27.422,0.991,40.168
	c1.959,10.688,7.187,20.17,13.779,28.668c6.423,8.278,13.894,15.657,19.885,24.284c0.183,0.265,0.352,0.531,0.529,0.8
	c2.297,8.705,2.213,17.713,3.409,26.896c1.216,9.352,6.129,18.928,16.146,20.969c4.954,1.01,9.942,0.691,14.95,0.322
	c7.849-0.578,15.658-0.195,23.517,0.039c32.945,1.004,65.889,2.08,98.813,3.646c32.2,1.523,64.014,3.557,96.271,2.191
	c31.983-1.348,63.924-4.098,95.964-3.439c14.982,0.307,31.569,0.453,41.521-12.723c5.229-6.922,7.127-15.938,8.163-24.355
	C542.157,312.193,541.573,296.459,541.412,281.197z M181.334,91.921c14.229-3.477,29.702-3.839,44.268-4.567
	c15.105-0.755,30.24-0.844,45.359-0.581c29.969,0.521,59.673,3.609,89.557,5.399c16.352,0.979,32.709,1.744,49.06,2.735
	c14.013,0.85,28.088,2.805,42.124,2.842c18.22,0.047,38.698-2.38,56.538,3.18c-6.521-0.545-13.32-0.098-19.331-0.004
	c-65.257-0.039-130.491-1.898-195.73-3.188c-32.928-0.652-65.859-1.123-98.793-1.152c-8.387-0.006-17.861-0.688-26.821,0.384
	C171.877,94.711,176.562,93.086,181.334,91.921z M325.132,100.578c-24.731,0.889-49.436,2.301-74.146-0.113
	c-5.139-0.502-10.331-1.004-15.549-1.426c13.274,0.137,26.549,0.311,39.823,0.543C291.885,99.873,308.509,100.218,325.132,100.578z
	 M161.8,100.554c6.826-1.646,14.432-1.848,21.593-1.834c4.146,0.007,8.291,0.029,12.437,0.044
	c-7.431,0.753-14.783,2.103-21.981,4.302c-9.688,2.959-18.421,8.229-24.862,16.108c-1.044,1.276-1.978,2.599-2.817,3.957
	c2.118-5.742,4.921-11.204,8.776-16.019C156.967,104.588,159.279,102.421,161.8,100.554z M140.92,120.007
	c2.607-10.256,9.086-15.59,17.108-18.355c-8.228,7.188-13.58,17.116-16.833,28.379c-0.8,2.769-1.508,5.563-2.176,8.372
	C139.06,132.22,139.38,126.064,140.92,120.007z M129.917,185.561c-1.362,2.341-2.938,4.627-4.798,6.855
	c-0.252,0.303-0.507,0.599-0.761,0.898C126.356,190.806,128.272,188.248,129.917,185.561z M130.993,296.18
	c-7.239-8.295-13.99-16.783-18.011-27.15c-2.063-5.316-3.501-11.221-4.395-17.266c0.184,0.664,0.377,1.324,0.582,1.984
	c2.805,9.033,7.782,17.217,12.937,25.072c5.427,8.271,11.013,16.391,15.567,25.184C135.492,301.352,133.241,298.754,130.993,296.18z
	 M362,366.457c-16.928-0.037-33.798-1.441-50.694-2.32c-16.554-0.857-33.116-1.563-49.681-2.193
	c-30.216-1.154-60.624-3.107-90.825-1.764c-6.813,0.309-13.049-0.945-17.638-6.352c-3.956-4.656-4.995-10.773-5.652-16.65
	c-0.604-5.398-0.914-10.563-1.584-15.617c3.502,6.982,6.474,14.229,11.948,20.029c12.204,12.936,32.39,9.711,48.348,10.197
	c15.56,0.475,31.11,2.637,46.634,3.771c16.408,1.198,32.717,1.196,49.15,1.424c32.623,0.444,65.116,3.896,97.672,5.713
	c10.829,0.604,21.671,0.984,32.518,1.046C408.807,364.98,385.436,366.508,362,366.457z M523.954,356.559
	c-6.612,4.896-15.436,5.768-23.386,5.928c-7.026,0.143-14.055,0.047-21.078-0.027c14.813-0.002,32.584,0.803,45.865-7.016
	C524.903,355.824,524.438,356.199,523.954,356.559z M525.268,353.654c-7.614,5.719-18.815,6.426-27.962,6.943
	c-9.021,0.518-18.065,0.211-27.102,0.404c-13.373,0.283-26.664,1.332-40.065,1.199c-32.624-0.324-65.121-3.754-97.671-5.631
	c-16.305-0.939-32.554-0.994-48.873-1.146c-17.022-0.15-34.006-1.688-50.951-3.189c-12.522-1.109-24.905-2.105-37.479-2.107
	c-9.019-0.002-18.346,0.068-26.679-3.846c-10.278-4.828-14.613-15.301-19.223-24.908c-1.455-3.033-3.176-5.898-5.043-8.67
	c-0.772-2.885-1.79-5.762-3.199-8.654c-8.947-18.367-23.873-33.502-29.655-53.408c-3.131-10.785-3.138-22.5-1.206-33.567
	c2.751-7.287,7.518-13.467,13.077-19.549c8.192-8.963,13.809-17.613,16.154-29.718c2.443-12.608,1.583-25.612,6.056-37.828
	c4.735-12.935,16.037-21.44,28.753-25.6c26.5-8.667,55.738-4.052,82.783-1.716c30.506,2.634,61.29-1.051,91.843-1.113
	c0.35,0,0.832-0.188,1.229-0.43c40.57,0.886,81.146,1.73,121.729,1.938c4.95,0.025,9.901,0.032,14.852,0.036
	c0.097,0.013,0.19,0.021,0.301,0.021c0.553-0.001,1.107-0.008,1.674-0.016c0.369,0,0.734,0.002,1.104,0.002
	c0.113,0,0.223-0.011,0.322-0.029c9.803-0.223,20.904-1.086,29.505,3.167c14.473,11.269,9.604,37.62,7.843,53.33
	c-1.188,10.649-1.919,20.923-1.39,31.65c0.763,15.468,3.049,30.821,4.438,46.236c1.34,14.791,0.479,29.526,1.262,44.319
	c0.744,14.129,2.477,28.188,2.46,42.353C534.143,334.324,534.195,346.953,525.268,353.654z M536.713,332
	c0.011-0.133,0.022-0.266,0.033-0.398c1.086-13.467-0.426-27.092-1.466-40.514c-1.115-14.408-0.454-28.744-1.146-43.152
	c-0.743-15.521-3.02-30.936-4.436-46.401c-1.149-12.546-1.354-24.831,0.013-37.346c1.136-10.438,2.463-20.868,2.404-31.387
	c-0.028-5.16-0.449-10.621-1.986-15.652c4.318,8.514,5.193,19.004,6.119,28.194c1.633,16.206,1.166,32.581,0.802,48.837
	c-0.728,32.409,1.436,64.724,1.48,97.126C538.553,304.758,538.929,318.662,536.713,332z"/>
<path d="M141.402,213.324c-1.79-4.047-6.104-6.389-10.126-4.859c-4.098,1.557-5.279,8.261-5.954,12.175
	c-1.633,9.551-1.82,22.333,5.703,29.103c4.784,4.303,8.052,1.692,10.25-2.918c0.905,0.766,1.789,0.647,1.83-1.56
	c0.026-1.328,0.089-2.685,0.17-4.052c1.163-4.272,1.763-8.688,2.011-10.825c0.148-1.267-0.518-2.854-1.336-3.789
	C143.858,221.99,143.242,217.478,141.402,213.324z M139.452,238.936c-1.413,4.189-3.831,7.131-8.161,4.434
	c-5.218-3.252-2.902-16.051-1.878-21.149c0.739-3.691,2.271-7.751,6.384-7.315c4.487,0.474,4.116,6.708,4.216,10.277
	C140.146,229.781,139.705,234.352,139.452,238.936z"/>
<g>
	<path d="M265.531,268.505c-0.76,3.152-2.686,6.015-5.781,8.584c-2.978,2.104-5.957,4.176-8.935,6.219
		c0.176,0.877,0.774,1.534,1.796,1.971c1.021,0.438,2,0.862,2.935,1.271c4.847,3.148,7.27,6.888,7.27,11.208
		c0,3.326-1.138,6.395-3.416,9.197c-1.752,2.157-4.351,4.293-7.796,6.395c-2.804,1.633-5.606,3.27-8.409,4.905
		c-0.701,0.407-1.46,0.61-2.277,0.61c-1.927,0-3.272-0.789-4.03-2.364c0.116-4.907,0.232-9.783,0.351-14.629
		c0.116-5.839,0.438-10.656,0.963-14.454c-1.226-0.816-1.839-1.751-1.839-2.803c0-0.525,0.219-1.009,0.657-1.446
		c0.438-0.438,1.036-0.922,1.796-1.447c0.701-8.876,0.845-17.052,0.438-24.526c-2.746-0.528-4.555-1.753-5.431-3.683
		c-0.059-0.233,0.044-0.583,0.306-1.049c0.264-0.464,0.395-0.847,0.395-1.139c1.343-0.993,2.832-1.487,4.467-1.487
		c1.168,0,3.854,0.383,8.059,1.139c2.16,0.349,4.408,1.14,6.745,2.366c6.307,3.271,10.015,6.453,11.125,9.547
		C265.676,265.118,265.883,266.986,265.531,268.505z M254.67,298.463c0.116-0.644,0.174-1.256,0.174-1.84
		c0-1.753-0.556-3.299-1.665-4.643c-2.978-1.46-4.876-2.19-5.693-2.19c-0.469,0-0.906,0.091-1.314,0.267
		c0.057,0.584,0.088,1.229,0.088,1.926c0,1.229-0.162,3.108-0.482,5.649c-0.321,2.541-0.481,4.456-0.481,5.74
		c0,1.87,0.233,3.561,0.7,5.081c0.701-0.819,1.795-1.68,3.284-2.585c1.49-0.906,2.525-1.707,3.11-2.408
		C253.443,302.229,254.202,300.564,254.67,298.463z M257.297,264.125c-0.292-2.16-2.044-3.823-5.255-4.993
		c-0.468-0.176-1.197-0.554-2.189-1.139c-0.701-0.466-1.285-0.7-1.752-0.7c-0.234,0-0.497,0.059-0.789,0.174
		c-0.059,0.994-0.087,2.045-0.087,3.154c0,1.519,0.116,4.088,0.35,7.708c0.176,3.328,0.233,5.929,0.176,7.797
		c0.408,0,1.021-0.307,1.838-0.921c0.818-0.612,1.285-0.947,1.402-1.008c1.752-0.816,3.298-2.189,4.643-4.115
		C256.976,268.154,257.53,266.169,257.297,264.125z"/>
	<path d="M279.021,262.286c0.116,1.694,0.175,3.446,0.175,5.256c0,3.971-0.409,9.956-1.227,17.96
		c-0.818,8.001-1.228,14.041-1.228,18.133c0,1.519,0.028,3.006,0.088,4.466c-0.526,1.633-1.665,2.424-3.417,2.365
		c-2.512-0.117-3.883-1.193-4.117-3.24c-0.234-2.043-0.349-4.201-0.349-6.482c0-3.971,0.482-9.896,1.445-17.777
		c0.963-7.884,1.446-13.781,1.446-17.696c0-1.52-0.059-3.006-0.175-4.466c0.583-1.109,1.576-1.669,2.979-1.669
		c1.109,0,2.219,0.322,3.329,0.967c0.232-0.174,0.408-0.261,0.525-0.261c0.175,0,0.263,0.292,0.263,0.871
		c-0.058,0.702-0.058,1.113,0,1.23C278.814,262.11,278.903,262.228,279.021,262.286z"/>
	<path d="M314.058,301.791c0.35,0.292,0.526,0.7,0.526,1.227c0,0.351-0.235,1.229-0.702,2.627c-0.234-0.057-0.437-0.091-0.612-0.091
		c-0.351,0-0.803,0.146-1.358,0.438c-0.556,0.293-0.979,0.438-1.27,0.438c-0.292,0-0.613-0.115-0.963-0.35
		c-3.913-2.451-9.986-6.135-18.219-11.037c0.175,2.162,0.319,5.256,0.438,9.285c0,0.467,0.057,1.17,0.174,2.102
		c0.116,0.937,0.176,1.606,0.176,2.016c0,1.403-0.613,2.368-1.84,2.892c-0.351,0.233-0.848,0.349-1.489,0.349
		c-0.701,0-1.138-0.203-1.314-0.611c-1.519-0.527-2.396-1.548-2.627-3.066c-0.701-4.201-1.05-9.138-1.05-14.803
		c0-2.043,0.056-5.094,0.175-9.154c0.115-4.056,0.174-7.108,0.174-9.154c0-6.189-0.409-11.564-1.227-16.121
		c-0.118-0.699,0.292-1.166,1.227-1.401c0.701-0.116,1.43-0.233,2.19-0.349c0.758,0.234,1.546,0.511,2.365,0.832
		c0.817,0.32,1.256,0.828,1.314,1.53c0.875,7.944,1.255,14.251,1.138,18.92c2.395-2.16,5.138-5.022,8.235-8.584
		c2.627-2.979,5.225-5.986,7.796-9.022c0.7-0.292,1.458-0.438,2.277-0.438c2.278,0,3.474,0.788,3.591,2.367
		c-1.635,3.62-4.848,7.913-9.635,12.877c-5.605,5.779-9.197,9.898-10.774,12.349c3.621,2.16,7.271,4.322,10.95,6.481
		C307.809,296.915,311.255,299.396,314.058,301.791z"/>
	<path d="M346.905,262.811c-2.161,0.877-5.34,1.898-9.548,3.066c-4.203,1.17-7.389,2.189-9.547,3.066
		c-0.527,1.519-0.906,4.901-1.139,10.161c0.934,0.349,2.014,0.524,3.24,0.524c0.876,0,2.248-0.145,4.117-0.437
		c1.867-0.293,3.243-0.438,4.119-0.438c1.633,0,3.033,0.351,4.201,1.051c0.819,1.169,1.229,1.926,1.229,2.276
		c0,0.41-0.206,0.731-0.614,0.965c-0.116,0.059-0.527,0.468-1.228,1.227c-0.466,0.524-1.049,0.759-1.751,0.7
		c-1.229,0.292-3.475,0.468-6.744,0.529c-2.746,0.056-4.934,0.409-6.568,1.048c-1.113,4.321-1.666,7.737-1.666,10.252
		c0,1.694,0.232,3.033,0.701,4.026c2.742,1.927,7.503,2.744,14.277,2.452c0.466,0,0.965-0.219,1.487-0.657
		c0.528-0.438,0.964-0.657,1.313-0.657c1.634-0.348,2.716,0.876,3.244,3.683c0.173,0.936,0.016,1.796-0.484,2.583
		c-0.495,0.79-1.213,1.213-2.146,1.271c-7.066,0.231-13.198-0.322-18.396-1.665c-1.636-0.413-3.126-1.314-4.467-2.718
		c-1.344-1.403-2.103-2.979-2.278-4.731c-0.526-5.08-0.526-9.631,0-13.664c-1.636-1.109-2.366-2.19-2.189-3.241
		c0.057-0.524,0.511-1.008,1.357-1.445c0.846-0.438,1.328-0.893,1.446-1.358c0.116-0.466,0.35-3.243,0.701-8.32
		c-3.272-0.643-4.876-1.868-4.818-3.679c0.057-1.698,1.081-3.036,3.065-4.03c1.869-0.758,3.737-1.521,5.606-2.276
		c2.159-1.113,4.875-2.107,8.146-2.982c2.861-0.755,5.723-1.486,8.585-2.186c0.293-0.059,0.642-0.092,1.048-0.092
		c1.577,0,3.42,0.612,5.522,1.842c0.055,0.234,0.201,0.673,0.438,1.311c0.231,0.642,0.348,1.115,0.348,1.405
		C347.519,262.14,347.313,262.52,346.905,262.811z"/>
	<path d="M392.981,252.037c-0.526,2.102-1.52,3.328-2.979,3.679c-3.797,0.935-10.395,2.16-19.795,3.679
		c-1.166,14.542-1.749,26.66-1.749,36.353c0,3.679,0.055,7.301,0.173,10.861c0.056,1.109,0,1.955-0.173,2.54
		c-0.294,0.937-0.877,1.376-1.753,1.313c-1.694-0.055-3.096-0.773-4.201-2.146c-1.11-1.376-1.724-2.903-1.839-4.603
		c-0.121-2.155-0.176-4.434-0.176-6.831c0-3.854,0.264-9.96,0.789-18.309c0.526-8,0.758-14.104,0.7-18.308
		c-1.577-0.115-3.766,0.031-6.569,0.438c-3.212,0.468-5.432,0.7-6.657,0.7c-2.86,0-5.197-0.765-7.009-2.292
		c-0.7-1.531-1.05-2.329-1.05-2.384c0-0.413,0.205-0.855,0.613-1.326c1.869-0.646,5.693-1.235,11.475-1.767
		c5.08-0.532,8.876-1.476,11.387-2.826c2.044,0.7,4.381,1.048,7.008,1.048s5.138-0.319,7.534-0.967
		c0.701-0.055,2.48-0.464,5.342-1.228c2.103-0.524,3.855-0.7,5.256-0.524c1.052,0,1.489,0.438,1.314,1.313
		C392.193,250.46,392.981,250.985,392.981,252.037z"/>
	<path d="M412.865,302.405c0.351,0.934,0.528,1.747,0.528,2.448c0,1.168-0.497,2.189-1.488,3.065
		c-0.994,0.877-1.665,1.284-2.015,1.226c-2.862-0.524-4.673-2.83-5.432-6.915c-0.818-4.438-1.779-8.147-2.89-11.126
		c-1.986,0.176-3.973,0.349-5.957,0.526c-2.278,0.292-4.06,0.994-5.343,2.102c-0.642,1.812-1.487,5.023-2.541,9.637
		c-0.993,4.262-1.958,7.502-2.89,9.722c-0.467,1.048-1.459,1.34-2.979,0.878c-1.926-0.644-2.952-1.523-3.063-2.628
		c-0.175-2.221,0.465-5.198,1.926-8.935c1.752-4.264,2.716-7.301,2.892-9.11c0.055-0.526-0.323-1.109-1.14-1.753
		c-0.819-0.642-1.229-1.139-1.229-1.485c0-0.291,0.13-0.603,0.394-0.921c0.262-0.319,0.875-0.583,1.839-0.789
		c0.966-0.202,1.503-0.511,1.623-0.92c1.049-2.918,2.716-8.349,4.992-16.293c1.927-6.889,3.65-12.176,5.167-15.855
		c0.35-0.816,1.082-1.227,2.189-1.227c0.816,0,1.547,0.264,2.19,0.788c1.632,1.402,2.685,3.504,3.153,6.309
		c0.348,2.395,0.67,4.789,0.963,7.182C406.674,282.112,409.712,293.469,412.865,302.405z M400.076,285.674
		c-0.176-2.16-0.556-4.585-1.139-7.271c-0.585-2.334-1.14-4.674-1.668-7.006c-1.749,4.846-3.271,9.692-4.555,14.539
		C393.65,285.76,396.105,285.674,400.076,285.674z"/>
	<path d="M447.64,284.709c-1.577,3.913-2.6,8.732-3.066,14.454c-0.289,4.963-0.556,9.927-0.788,14.891
		c-0.118,1.46-1.081,2.19-2.891,2.19c-0.525,0-1.022-0.091-1.486-0.263c-2.514-1.051-3.767-3.008-3.767-5.868
		c0-0.822,0.116-2.059,0.35-3.725c0.233-1.665,0.349-2.875,0.349-3.636c0.233-1.692,0.526-4.233,0.876-7.619
		c-4.029,3.798-8.584,6.627-13.665,8.496c-0.704,0.235-1.404,0.349-2.104,0.349c-2.688,0-5.168-1.517-7.446-4.554
		c-1.284-1.694-1.926-3.796-1.926-6.308c0-2.218,0.495-4.818,1.485-7.796c3.099-9.461,8.028-18.715,14.806-27.769
		c3.386-4.495,6.395-6.743,9.022-6.743c2.331,0,3.648,0.875,3.941,2.628c0.235,1.46-0.263,2.511-1.485,3.152
		c-2.045,1.111-3.129,1.724-3.245,1.84c-4.901,5.43-9.402,12.438-13.486,21.022c-2.514,5.313-3.767,10.074-3.767,14.277
		c0,0.761,0.029,1.521,0.088,2.277c0.119,0.061,0.292,0.337,0.529,0.833c0.232,0.497,0.555,0.656,0.963,0.481
		c3.854-1.518,9.665-5.518,17.432-12c0.583-0.468,1.256-1.809,2.015-4.029c0.583-1.634,1.632-2.452,3.153-2.452
		c-0.468,0,0-0.059,1.401-0.176c0.701-0.117,1.168,0,1.402,0.351c1.11,1.636,1.667,2.978,1.667,4.03
		C447.989,283.57,447.872,284.126,447.64,284.709z"/>
</g>
<g>
	<path fill="none" d="M264.419,181.595c-0.292-0.116-0.555-0.175-0.787-0.175c-0.699,0-1.573,0.583-2.622,1.748
		c-1.167,1.342-2.069,2.128-2.71,2.36c-0.408,0.175-0.991,0-1.748-0.524c-0.758-0.524-1.254-0.787-1.486-0.787
		c-0.175,0-0.321,0.06-0.437,0.175c-2.041,1.749-3.06,4.458-3.06,8.13c0,2.506,0.582,4.633,1.748,6.381
		c1.631,2.39,3.001,3.584,4.108,3.584c2.563,0,5.04-1.603,7.43-4.808c2.272-3.029,3.263-5.856,2.972-8.479
		C267.42,184.946,266.284,182.411,264.419,181.595z"/>
	<path fill="none" d="M359.695,181.595c-0.292-0.116-0.555-0.175-0.787-0.175c-0.699,0-1.573,0.583-2.622,1.748
		c-1.166,1.342-2.069,2.128-2.71,2.36c-0.408,0.175-0.991,0-1.748-0.524c-0.758-0.524-1.254-0.787-1.486-0.787
		c-0.175,0-0.32,0.06-0.437,0.175c-2.041,1.749-3.06,4.458-3.06,8.13c0,2.506,0.582,4.633,1.748,6.381
		c1.631,2.39,3.001,3.584,4.108,3.584c2.563,0,5.04-1.603,7.43-4.808c2.273-3.029,3.264-5.856,2.973-8.479
		C362.696,184.946,361.56,182.411,359.695,181.595z"/>
	<path d="M253.843,162.714c1.456-0.35,2.448-1.573,2.972-3.671c0-1.049-0.787-1.573-2.36-1.573c0.175-0.875-0.262-1.312-1.311-1.312
		c-1.398-0.175-3.147,0-5.245,0.524c-2.856,0.758-4.633,1.166-5.332,1.224c-2.39,0.642-4.895,0.962-7.518,0.962
		c-2.622,0-4.954-0.35-6.993-1.049c-2.506,1.352-6.294,2.291-11.364,2.82c-5.769,0.529-9.585,1.117-11.451,1.763
		c-0.407,0.47-0.612,0.911-0.612,1.322c0,0.059,0.35,0.853,1.049,2.379c1.807,1.528,4.138,2.292,6.993,2.292
		c1.224,0,3.438-0.232,6.643-0.699c2.797-0.407,4.982-0.553,6.556-0.437c0.058,4.195-0.175,10.285-0.699,18.269
		c-0.524,8.334-0.787,14.423-0.787,18.269c0,2.391,0.057,4.663,0.175,6.818c0.116,1.691,0.728,3.22,1.835,4.589
		c1.106,1.369,2.505,2.083,4.196,2.142c0.875,0.058,1.456-0.379,1.749-1.311c0.175-0.583,0.232-1.429,0.175-2.535
		c-0.118-3.554-0.175-7.168-0.175-10.839c0-9.673,0.582-21.766,1.748-36.276C243.47,164.87,250.054,163.646,253.843,162.714z"/>
	<path d="M266.692,175.563c-3.555-1.165-5.74-2.098-6.556-2.797c-0.817-0.699-1.691-1.049-2.623-1.049
		c-1.632,0-3.352,0.903-5.157,2.709c-1.573,1.517-2.915,3.322-4.021,5.42c-2.565,4.954-3.846,9.587-3.846,13.898
		c0,3.904,1.137,7.08,3.409,9.527c3.379,3.614,6.731,5.42,10.052,5.42c0.757,0,1.515-0.088,2.273-0.263
		c6.293-1.455,11.159-6.06,14.598-13.811c0.582-1.281,0.874-2.71,0.874-4.283c0-2.797-1.02-6.147-3.06-10.053
		C271.47,178.069,269.489,176.496,266.692,175.563z M264.856,197.679c-2.39,3.205-4.867,4.808-7.43,4.808
		c-1.107,0-2.478-1.194-4.108-3.584c-1.166-1.748-1.748-3.875-1.748-6.381c0-3.672,1.019-6.381,3.06-8.13
		c0.116-0.115,0.262-0.175,0.437-0.175c0.232,0,0.728,0.263,1.486,0.787c0.757,0.524,1.34,0.699,1.748,0.524
		c0.641-0.232,1.543-1.019,2.71-2.36c1.049-1.165,1.923-1.748,2.622-1.748c0.232,0,0.495,0.059,0.787,0.175
		c1.864,0.816,3,3.352,3.409,7.604C268.119,191.822,267.129,194.649,264.856,197.679z"/>
	<path d="M305.764,163.938c-1.573,0-2.681,0.699-3.321,2.098c-0.409,0.875-0.758,2.448-1.049,4.721
		c-0.292,2.272-0.642,3.817-1.049,4.633c-1.398,2.915-2.652,6.936-3.759,12.063c-1.398,6.761-2.331,10.898-2.797,12.413
		c-1.399,4.545-3.322,8.188-5.769,10.926c-0.933-3.438-1.458-5.769-1.574-6.993c-0.175-2.389-0.262-5.039-0.262-7.954
		c0-2.738,0.145-7.196,0.437-13.374c0.232-5.769,0.32-10.14,0.262-13.111c-0.642-0.35-1.297-0.685-1.967-1.006
		c-0.67-0.319-1.297-0.48-1.879-0.48c-2.797,0-4.195,1.807-4.195,5.42c0,4.195,0.028,6.002,0.087,5.419
		c-0.817,6.702-1.224,12.181-1.224,16.434c0,7.401,1.106,13.841,3.322,19.318c1.281,3.263,3.234,4.923,5.856,4.982
		c2.972,0.057,5.594-1.458,7.867-4.546c3.612-4.836,6.06-10.197,7.343-16.084c0.407-1.923,1.923-7.458,4.545-16.607
		c1.923-6.818,3.088-12.267,3.496-16.347C309.26,164.58,307.803,163.938,305.764,163.938z"/>
	<path d="M335.396,198.728c-0.35,0-0.891,0.059-1.617,0.175c-0.73,0.117-1.24,0.175-1.531,0.175
		c-1.281,0.642-3.352,1.953-6.205,3.934c-2.623,1.748-4.75,2.972-6.381,3.671c-0.117-4.777,0.115-11.932,0.699-21.459
		c0.582-9.528,0.787-16.681,0.611-21.46c-0.35-1.631-1.633-2.447-3.846-2.447c-1.166,0-2.129,0.38-2.885,1.138
		c0.232,2.628,0.35,5.429,0.35,8.405c0,4.318-0.437,11.353-1.311,21.099c-0.758,9.165-1.079,16.314-0.962,21.45
		c0.058,0.059,0.612,0.786,1.661,2.188c0.7,1.051,1.456,1.576,2.272,1.576c0.35,0,0.699-0.089,1.049-0.264
		c3.029-1.347,6.498-3.425,10.402-6.235c6.701-4.801,10.109-7.231,10.227-7.29c0.701-0.877,0.701-1.96,0-3.249
		C337.406,199.196,336.561,198.728,335.396,198.728z"/>
	<path d="M361.968,175.563c-3.555-1.165-5.74-2.098-6.556-2.797c-0.816-0.699-1.691-1.049-2.622-1.049
		c-1.633,0-3.353,0.903-5.157,2.709c-1.574,1.517-2.915,3.322-4.021,5.42c-2.564,4.954-3.846,9.587-3.846,13.898
		c0,3.904,1.136,7.08,3.409,9.527c3.379,3.614,6.73,5.42,10.052,5.42c0.757,0,1.515-0.088,2.272-0.263
		c6.294-1.455,11.159-6.06,14.598-13.811c0.582-1.281,0.875-2.71,0.875-4.283c0-2.797-1.021-6.147-3.06-10.053
		C366.745,178.069,364.765,176.496,361.968,175.563z M360.132,197.679c-2.39,3.205-4.866,4.808-7.43,4.808
		c-1.107,0-2.478-1.194-4.108-3.584c-1.166-1.748-1.748-3.875-1.748-6.381c0-3.672,1.019-6.381,3.06-8.13
		c0.116-0.115,0.262-0.175,0.437-0.175c0.232,0,0.729,0.263,1.486,0.787c0.757,0.524,1.34,0.699,1.748,0.524
		c0.641-0.232,1.544-1.019,2.71-2.36c1.049-1.165,1.923-1.748,2.622-1.748c0.232,0,0.495,0.059,0.787,0.175
		c1.864,0.816,3.001,3.352,3.409,7.604C363.396,191.822,362.405,194.649,360.132,197.679z"/>
	<path d="M401.039,163.938c-1.573,0-2.681,0.699-3.321,2.098c-0.408,0.875-0.758,2.448-1.049,4.721
		c-0.293,2.272-0.643,3.817-1.049,4.633c-1.399,2.915-2.652,6.936-3.759,12.063c-1.398,6.761-2.332,10.898-2.798,12.413
		c-1.398,4.545-3.321,8.188-5.769,10.926c-0.933-3.438-1.458-5.769-1.573-6.993c-0.175-2.389-0.263-5.039-0.263-7.954
		c0-2.738,0.145-7.196,0.438-13.374c0.231-5.769,0.319-10.14,0.262-13.111c-0.642-0.35-1.298-0.685-1.967-1.006
		c-0.671-0.319-1.297-0.48-1.879-0.48c-2.798,0-4.196,1.807-4.196,5.42c0,4.195,0.029,6.002,0.088,5.419
		c-0.817,6.702-1.224,12.181-1.224,16.434c0,7.401,1.106,13.841,3.321,19.318c1.281,3.263,3.234,4.923,5.856,4.982
		c2.972,0.057,5.595-1.458,7.867-4.546c3.612-4.836,6.06-10.197,7.343-16.084c0.407-1.923,1.923-7.458,4.545-16.607
		c1.923-6.818,3.088-12.267,3.497-16.347C404.536,164.58,403.078,163.938,401.039,163.938z"/>
	<path d="M416.335,180.196c-0.524-1.456-0.786-3.029-0.786-4.721c0-4.545,1.573-8.391,4.72-11.538
		c0.35-0.35,0.699-0.524,1.049-0.524c0.058,0,0.494,0.117,1.312,0.35c0.524,0.175,1.019,0.146,1.485-0.087
		c1.69-0.874,2.535-1.894,2.535-3.06c0-0.641-0.292-1.281-0.874-1.923c-1.224-1.34-3.06-2.011-5.507-2.011
		c-1.282,0-2.594,0.321-3.934,0.962c-2.914,1.398-5.157,3.701-6.73,6.905c-1.398,2.797-2.098,5.974-2.098,9.527
		c0,4.313,1.879,10.067,5.638,17.264c3.759,7.198,5.638,12.69,5.638,16.478c0,2.681-0.611,5.304-1.835,7.867
		c-0.293,0.641-0.874,0.99-1.748,1.049c-0.875,0.058-1.429,0.232-1.661,0.524c-0.874,0.99-1.312,1.836-1.312,2.535
		c0,1.165,0.874,2.126,2.623,2.884c0.465,0.176,0.961,0.263,1.485,0.263c1.34,0,2.854-0.612,4.546-1.836
		c2.098-1.573,3.409-2.855,3.934-3.846c1.573-2.972,2.359-6.061,2.359-9.266c0-3.903-1.398-8.654-4.195-14.248
		C418.782,185.354,416.567,180.838,416.335,180.196z"/>
	<path d="M462.488,167.26c-0.233-0.641-0.38-1.078-0.438-1.312c-2.098-1.224-3.933-1.836-5.507-1.836
		c-0.408,0-0.758,0.03-1.049,0.088c-2.855,0.699-5.682,1.429-8.479,2.185c-3.265,0.875-6.003,1.866-8.217,2.973
		c-1.865,0.758-3.73,1.516-5.595,2.272c-1.981,0.991-3.002,2.331-3.059,4.021c-0.06,1.808,1.543,3.031,4.808,3.672
		c-0.35,5.069-0.584,7.838-0.7,8.304c-0.117,0.468-0.598,0.918-1.441,1.355c-0.846,0.437-1.298,0.917-1.355,1.442
		c-0.175,1.049,0.554,2.128,2.186,3.233c-0.524,4.021-0.524,8.566,0,13.637c0.175,1.748,0.932,3.321,2.272,4.72
		c1.34,1.398,2.826,2.302,4.458,2.71c5.187,1.34,11.305,1.894,18.356,1.661c0.932-0.059,1.646-0.48,2.142-1.268
		c0.494-0.787,0.655-1.646,0.48-2.579c-0.524-2.797-1.604-4.021-3.233-3.671c-0.351,0-0.787,0.219-1.312,0.655
		c-0.524,0.438-1.021,0.656-1.486,0.656c-6.761,0.292-11.51-0.524-14.248-2.448c-0.467-0.99-0.699-2.33-0.699-4.021
		c0-2.505,0.554-5.914,1.661-10.228c1.631-0.641,3.815-0.99,6.556-1.049c3.263-0.057,5.507-0.232,6.73-0.524
		c0.699,0.059,1.281-0.175,1.748-0.699c0.699-0.757,1.106-1.165,1.225-1.224c0.406-0.232,0.611-0.553,0.611-0.962
		c0-0.35-0.408-1.105-1.224-2.272c-1.166-0.699-2.565-1.049-4.195-1.049c-0.875,0-2.244,0.146-4.108,0.438
		c-1.866,0.292-3.234,0.437-4.108,0.437c-1.224,0-2.303-0.175-3.234-0.524c0.232-5.244,0.611-8.624,1.136-10.14
		c2.155-0.874,5.333-1.893,9.528-3.06c4.195-1.165,7.371-2.186,9.527-3.06c0.407-0.291,0.612-0.669,0.612-1.136
		C462.838,168.367,462.721,167.901,462.488,167.26z"/>
</g>
</svg>
