<?xml version="1.0" encoding="utf-8"?>
<!-- Generator: Adobe Illustrator 16.2.1, SVG Export Plug-In . SVG Version: 6.00 Build 0)  -->
<!DOCTYPE svg PUBLIC "-//W3C//DTD SVG 1.1//EN" "http://www.w3.org/Graphics/SVG/1.1/DTD/svg11.dtd">
<svg version="1.1" id="Layer_1" xmlns="http://www.w3.org/2000/svg" xmlns:xlink="http://www.w3.org/1999/xlink" x="0px" y="0px"
	 width="18px" height="18px" viewBox="0 0 18 18" enable-background="new 0 0 18 18" xml:space="preserve">
<path fill="#FFFFFF" d="M18,3.731c-0.663,0.293-1.374,0.492-2.121,0.581c0.762-0.457,1.347-1.181,1.623-2.042
	C16.79,2.693,15.999,3,15.158,3.165C14.484,2.448,13.524,2,12.462,2c-2.039,0-3.693,1.652-3.693,3.692
	c0,0.289,0.032,0.571,0.096,0.842C5.795,6.379,3.074,4.909,1.253,2.676c-0.318,0.545-0.5,1.18-0.5,1.855
	c0,1.282,0.652,2.412,1.643,3.074C1.791,7.586,1.221,7.42,0.723,7.144c0,0.015,0,0.03,0,0.046c0,1.789,1.273,3.282,2.962,3.621
	c-0.31,0.084-0.636,0.129-0.973,0.129c-0.237,0-0.469-0.022-0.694-0.066c0.469,1.468,1.834,2.535,3.449,2.565
	c-1.263,0.991-2.855,1.581-4.585,1.581c-0.299,0-0.592-0.018-0.881-0.053c1.634,1.048,3.575,1.659,5.661,1.659
	c6.792,0,10.507-5.627,10.507-10.506c0-0.161-0.004-0.321-0.012-0.479C16.878,5.123,17.505,4.472,18,3.731z"/>
</svg>
