<?xml version="1.0" encoding="UTF-8" standalone="no"?>
<svg
   xmlns:dc="http://purl.org/dc/elements/1.1/"
   xmlns:cc="http://creativecommons.org/ns#"
   xmlns:rdf="http://www.w3.org/1999/02/22-rdf-syntax-ns#"
   xmlns:svg="http://www.w3.org/2000/svg"
   xmlns="http://www.w3.org/2000/svg"
   xmlns:sodipodi="http://sodipodi.sourceforge.net/DTD/sodipodi-0.dtd"
   xmlns:inkscape="http://www.inkscape.org/namespaces/inkscape"
   inkscape:version="1.0 (4035a4f, 2020-05-01)"
   sodipodi:docname="VancouverIcon.svg"
   xml:space="preserve"
   enable-background="new 0 0 646 449"
   viewBox="0 0 437.25204 283.22501"
   height="283.22501"
   width="437.25204"
   y="0px"
   x="0px"
   id="Layer_1"
   version="1.1"><metadata
   id="metadata57"><rdf:RDF><cc:Work
       rdf:about=""><dc:format>image/svg+xml</dc:format><dc:type
         rdf:resource="http://purl.org/dc/dcmitype/StillImage" /></cc:Work></rdf:RDF></metadata><defs
   id="defs55" /><sodipodi:namedview
   inkscape:current-layer="Layer_1"
   inkscape:window-maximized="0"
   inkscape:window-y="23"
   inkscape:window-x="0"
   inkscape:cy="141.28023"
   inkscape:cx="226.28909"
   inkscape:zoom="1.630031"
   showgrid="false"
   id="namedview53"
   inkscape:window-height="802"
   inkscape:window-width="1117"
   inkscape:pageshadow="2"
   inkscape:pageopacity="0"
   guidetolerance="10"
   gridtolerance="10"
   objecttolerance="10"
   borderopacity="1"
   bordercolor="#666666"
   pagecolor="#ffffff" />
<g
   transform="translate(-96.710908,-83.219773)"
   id="g14">
	<path
   id="path10"
   d="m 533.749,279.301 c -0.174,-16.51 -0.812,-33.01 -1.442,-49.506 -0.604,-15.744 -0.074,-31.476 0.221,-47.22 0.284,-15.144 0.016,-30.21 -1.611,-45.276 -1.019,-9.421 -2.869,-19.45 -8.261,-27.446 -2.537,-3.763 -5.848,-6.271 -9.604,-7.939 -5.593,-3.611 -13.037,-5.111 -19.145,-6.128 -21.424,-3.567 -43.433,-0.63 -65.008,-2.46 -31.962,-2.713 -64.046,-3.525 -96.004,-6.261 -29.435,-2.519 -58.977,-4.025 -88.523,-3.828 -14.449,0.097 -28.893,0.702 -43.293,1.871 -11.939,0.97 -24.063,1.946 -35.457,5.86 -3.611,1.24 -6.875,2.847 -9.852,4.739 -5.789,1.107 -11.247,3.142 -15.907,6.816 -14.188,11.187 -11.68,32.167 -11.801,49.616 -1.071,5.57 -2.1,11.146 -3.255,16.672 -0.95,4.543 -2.336,8.506 -4.238,12.296 -2.705,4.252 -6.043,8.166 -9.814,11.896 -6.512,6.439 -9.626,13.737 -11.188,22.463 -0.314,0.828 -0.612,1.67 -0.875,2.544 -3.82,12.707 -1.345,27.421 0.991,40.167 1.959,10.689 7.186,20.17 13.779,28.668 6.423,8.279 13.894,15.658 19.885,24.287 0.182,0.262 0.352,0.531 0.528,0.797 2.297,8.707 2.213,17.713 3.409,26.9 1.216,9.346 6.129,18.924 16.146,20.963 4.954,1.01 9.942,0.695 14.95,0.326 7.849,-0.578 15.658,-0.199 23.517,0.041 32.945,1.002 65.889,2.078 98.813,3.641 32.2,1.527 64.013,3.557 96.27,2.197 31.985,-1.35 63.923,-4.1 95.963,-3.445 14.985,0.307 31.572,0.453 41.522,-12.721 5.229,-6.92 7.127,-15.938 8.163,-24.357 1.866,-15.179 1.282,-30.911 1.121,-46.173 z M 173.672,90.023 c 14.229,-3.475 29.701,-3.838 44.268,-4.566 15.105,-0.756 30.24,-0.844 45.359,-0.58 29.969,0.521 59.673,3.607 89.556,5.398 16.35,0.979 32.709,1.744 49.058,2.735 14.013,0.851 28.088,2.805 42.124,2.841 18.22,0.048 38.697,-2.379 56.537,3.18 -6.52,-0.543 -13.319,-0.097 -19.33,-0.004 -65.258,-0.037 -130.491,-1.896 -195.73,-3.188 -32.928,-0.65 -65.859,-1.123 -98.793,-1.15 -8.388,-0.008 -17.861,-0.689 -26.822,0.383 4.316,-2.258 9,-3.883 13.773,-5.049 z m 143.797,8.657 c -24.731,0.889 -49.436,2.301 -74.146,-0.113 -5.139,-0.502 -10.331,-1.004 -15.549,-1.425 13.274,0.137 26.549,0.31 39.823,0.542 16.625,0.291 33.249,0.637 49.872,0.996 z M 154.137,98.656 c 6.826,-1.646 14.432,-1.847 21.594,-1.834 4.146,0.008 8.291,0.029 12.437,0.045 -7.431,0.753 -14.783,2.102 -21.981,4.301 -9.688,2.961 -18.421,8.229 -24.862,16.109 -1.044,1.277 -1.978,2.598 -2.817,3.957 2.119,-5.742 4.922,-11.205 8.776,-16.019 2.02,-2.524 4.332,-4.691 6.853,-6.559 z m -20.88,19.455 c 2.607,-10.257 9.086,-15.59 17.108,-18.357 -8.228,7.189 -13.58,17.117 -16.833,28.381 -0.8,2.768 -1.509,5.563 -2.176,8.371 0.041,-6.183 0.361,-12.339 1.901,-18.395 z m -11.003,65.552 c -1.362,2.341 -2.939,4.627 -4.799,6.855 -0.252,0.303 -0.507,0.6 -0.761,0.898 2,-2.508 3.916,-5.065 5.56,-7.753 z m 1.076,110.618 c -7.238,-8.295 -13.99,-16.783 -18.012,-27.15 -2.063,-5.318 -3.501,-11.221 -4.395,-17.266 0.184,0.664 0.377,1.324 0.582,1.984 2.805,9.033 7.781,17.217 12.937,25.072 5.427,8.27 11.013,16.391 15.567,25.184 -2.18,-2.652 -4.431,-5.248 -6.679,-7.824 z m 231.007,70.278 c -16.928,-0.037 -33.798,-1.439 -50.694,-2.318 -16.554,-0.861 -33.116,-1.566 -49.681,-2.197 -30.216,-1.154 -60.624,-3.107 -90.825,-1.76 -6.813,0.305 -13.049,-0.949 -17.638,-6.354 -3.956,-4.656 -4.995,-10.771 -5.651,-16.648 -0.604,-5.402 -0.914,-10.563 -1.585,-15.617 3.503,6.982 6.474,14.229 11.948,20.027 12.203,12.934 32.391,9.711 48.348,10.197 15.561,0.477 31.11,2.639 46.635,3.773 16.408,1.197 32.717,1.195 49.15,1.422 32.623,0.445 65.116,3.896 97.672,5.713 10.829,0.604 21.671,0.986 32.515,1.043 -23.387,1.244 -46.76,2.769 -70.194,2.719 z m 161.954,-9.899 c -6.612,4.895 -15.433,5.764 -23.386,5.926 -7.026,0.143 -14.052,0.045 -21.078,-0.027 14.815,-0.004 32.584,0.801 45.864,-7.018 -0.452,0.387 -0.916,0.762 -1.4,1.119 z m 1.313,-2.902 c -7.618,5.717 -18.818,6.424 -27.962,6.945 -9.023,0.514 -18.069,0.213 -27.102,0.404 -13.373,0.283 -26.664,1.332 -40.065,1.199 -32.624,-0.324 -65.122,-3.754 -97.671,-5.631 -16.305,-0.939 -32.554,-0.994 -48.873,-1.143 -17.022,-0.154 -34.006,-1.689 -50.951,-3.193 -12.521,-1.109 -24.905,-2.105 -37.479,-2.107 -9.02,-0.002 -18.346,0.068 -26.679,-3.846 -10.278,-4.828 -14.612,-15.301 -19.223,-24.908 -1.454,-3.033 -3.176,-5.898 -5.043,-8.67 -0.772,-2.885 -1.79,-5.762 -3.199,-8.654 -8.946,-18.371 -23.873,-33.502 -29.655,-53.412 -3.131,-10.783 -3.137,-22.5 -1.205,-33.566 2.75,-7.287 7.518,-13.467 13.076,-19.55 8.191,-8.962 13.809,-17.611 16.154,-29.717 2.442,-12.607 1.583,-25.612 6.056,-37.828 4.735,-12.936 16.036,-21.441 28.753,-25.6 26.501,-8.667 55.738,-4.051 82.783,-1.716 30.506,2.634 61.289,-1.051 91.843,-1.113 0.35,-0.001 0.832,-0.188 1.229,-0.43 40.573,0.886 81.146,1.73 121.73,1.938 4.95,0.025 9.9,0.032 14.852,0.037 0.093,0.012 0.19,0.021 0.298,0.021 0.553,-0.001 1.11,-0.007 1.674,-0.017 0.368,0.001 0.737,0.004 1.106,0.004 0.113,0 0.22,-0.012 0.322,-0.03 9.803,-0.224 20.903,-1.086 29.505,3.167 14.473,11.27 9.601,37.62 7.843,53.33 -1.19,10.648 -1.919,20.923 -1.39,31.65 0.763,15.467 3.049,30.821 4.439,46.236 1.336,14.789 0.479,29.527 1.258,44.318 0.744,14.129 2.478,28.188 2.461,42.352 -0.01,10.2 0.043,22.829 -8.885,29.53 z m 11.446,-21.656 c 0.011,-0.133 0.021,-0.266 0.033,-0.396 1.086,-13.469 -0.426,-27.094 -1.466,-40.516 -1.115,-14.408 -0.454,-28.744 -1.145,-43.15 -0.743,-15.525 -3.02,-30.937 -4.436,-46.404 -1.149,-12.547 -1.351,-24.832 0.013,-37.348 1.136,-10.438 2.463,-20.867 2.404,-31.387 -0.028,-5.158 -0.449,-10.62 -1.986,-15.65 4.318,8.513 5.193,19.004 6.119,28.193 1.633,16.207 1.166,32.581 0.802,48.838 -0.728,32.409 1.433,64.723 1.48,97.125 0.022,13.452 0.398,27.357 -1.818,40.695 z" />
	<path
   id="path12"
   d="m 133.74,211.426 c -1.79,-4.047 -6.104,-6.389 -10.126,-4.859 -4.098,1.557 -5.279,8.261 -5.954,12.175 -1.633,9.552 -1.82,22.33 5.703,29.103 4.784,4.303 8.052,1.691 10.249,-2.918 0.906,0.766 1.789,0.646 1.83,-1.559 0.026,-1.328 0.09,-2.682 0.17,-4.049 1.163,-4.275 1.763,-8.688 2.011,-10.828 0.148,-1.266 -0.519,-2.854 -1.337,-3.789 -0.09,-4.61 -0.707,-9.121 -2.546,-13.276 z m -1.951,25.611 c -1.413,4.189 -3.831,7.131 -8.161,4.43 -5.218,-3.252 -2.902,-16.047 -1.878,-21.148 0.739,-3.69 2.271,-7.75 6.384,-7.314 4.487,0.474 4.116,6.708 4.216,10.273 0.133,4.605 -0.308,9.175 -0.561,13.759 z" />
</g>
<g
   transform="translate(-96.710908,-83.219773)"
   id="g34">
	<path
   id="path16"
   d="m 211.401,153.201 c -2.396,4.486 -5.808,12.875 -10.232,25.166 -1.291,3.627 -2.827,9.618 -4.609,17.976 -1.721,7.99 -3.381,14.042 -4.978,18.16 -0.554,0.612 -1.198,0.922 -1.938,0.922 -0.861,0 -1.967,-0.461 -3.318,-1.383 -2.396,-5.716 -5.193,-15.118 -8.389,-28.208 -3.012,-12.475 -6.023,-21.97 -9.034,-28.484 0.798,-1.536 1.476,-2.305 2.028,-2.305 0.491,-0.307 0.982,-0.461 1.475,-0.461 0.982,0 2.704,0.922 5.163,2.766 2.212,5.039 4.332,11.216 6.36,18.528 1.598,6.331 3.227,12.629 4.886,18.897 2.272,-7.497 4.547,-15.025 6.821,-22.585 2.704,-8.48 5.469,-15.793 8.297,-21.939 0.922,-1.598 2.519,-2.12 4.793,-1.567 0.245,0.063 0.554,0.293 0.922,0.691 0.369,0.4 0.83,0.615 1.383,0.646 0.554,0.032 0.83,0.478 0.83,1.337 0.001,0.615 -0.154,1.229 -0.46,1.843 z" />
	<path
   id="path18"
   d="m 246.43,201.69 c 0.369,0.983 0.553,1.844 0.553,2.581 0,1.23 -0.522,2.305 -1.566,3.227 -1.046,0.922 -1.752,1.351 -2.12,1.29 -3.013,-0.553 -4.918,-2.979 -5.716,-7.282 -0.861,-4.67 -1.875,-8.573 -3.042,-11.707 -2.09,0.185 -4.18,0.369 -6.269,0.553 -2.396,0.309 -4.272,1.046 -5.623,2.213 -0.677,1.905 -1.567,5.286 -2.674,10.14 -1.045,4.485 -2.06,7.896 -3.042,10.232 -0.492,1.106 -1.536,1.413 -3.134,0.923 -2.028,-0.678 -3.104,-1.6 -3.227,-2.767 -0.185,-2.336 0.491,-5.469 2.028,-9.402 1.844,-4.485 2.857,-7.682 3.042,-9.587 0.061,-0.554 -0.339,-1.167 -1.198,-1.844 -0.861,-0.676 -1.291,-1.198 -1.291,-1.567 0,-0.307 0.139,-0.629 0.415,-0.968 0.276,-0.337 0.922,-0.613 1.936,-0.83 1.015,-0.214 1.582,-0.537 1.705,-0.968 1.106,-3.072 2.858,-8.787 5.255,-17.146 2.028,-7.251 3.84,-12.813 5.438,-16.686 0.369,-0.859 1.137,-1.29 2.305,-1.29 0.86,0 1.628,0.276 2.305,0.829 1.72,1.475 2.826,3.688 3.318,6.638 0.369,2.521 0.706,5.039 1.015,7.559 3.072,14.504 6.269,26.456 9.587,35.859 z m -13.459,-17.607 c -0.185,-2.272 -0.585,-4.823 -1.198,-7.65 -0.615,-2.458 -1.198,-4.916 -1.751,-7.375 -1.844,5.102 -3.443,10.202 -4.794,15.303 0.982,-0.186 3.563,-0.278 7.743,-0.278 z" />
	<path
   id="path20"
   d="m 288.741,150.251 c -0.861,8.236 -1.691,16.501 -2.489,24.798 -1.046,9.833 -1.567,18.037 -1.567,24.612 0,2.152 0.061,4.272 0.185,6.361 0.061,0.982 -0.292,1.844 -1.06,2.581 -0.77,0.737 -1.646,1.105 -2.628,1.105 -1.905,0 -3.503,-1.29 -4.793,-3.871 -3.934,-7.682 -8.819,-19.728 -14.657,-36.136 -0.124,-0.369 -0.276,-0.554 -0.461,-0.554 -0.431,0 -0.707,0.431 -0.83,1.291 -1.045,8.789 -1.566,18.037 -1.566,27.747 0,4.671 0.122,9.433 0.368,14.288 0.061,1.782 -0.461,3.012 -1.566,3.688 -0.431,0.431 -0.892,0.646 -1.383,0.646 -0.431,0 -0.984,-0.186 -1.66,-0.553 -0.922,-0.432 -1.506,-0.708 -1.751,-0.83 -0.8,-0.246 -1.291,-0.982 -1.475,-2.213 -0.063,-0.983 -0.124,-1.997 -0.185,-3.042 -0.185,-3.442 -0.276,-7.036 -0.276,-10.785 0,-6.514 0.368,-14.657 1.105,-24.429 1.167,-14.871 1.813,-23.106 1.937,-24.705 0.061,-1.351 1.198,-2.028 3.41,-2.028 1.045,-0.122 2.581,0.646 4.609,2.305 1.966,3.75 4.394,9.834 7.282,18.253 2.766,8.052 5.285,14.166 7.56,18.344 0.922,-8.172 2.365,-20.524 4.332,-37.058 0.185,-1.229 1.075,-1.844 2.674,-1.844 0.553,0 1.198,0.093 1.936,0.277 0.982,0.246 1.567,0.4 1.752,0.461 0.612,0.248 1.013,0.678 1.197,1.291 z" />
	<path
   id="path22"
   d="m 318.701,150.528 c 0,1.659 -1.106,2.705 -3.319,3.135 -2.889,0.553 -4.671,1.198 -5.347,1.936 -6.883,7.252 -10.324,16.625 -10.324,28.116 0,5.408 0.86,10.509 2.581,15.303 1.413,3.934 2.427,6.515 3.042,7.743 1.535,3.01 3.411,5.162 5.623,6.452 0.922,0.43 1.844,0.83 2.766,1.199 0.982,0.553 1.475,1.32 1.475,2.305 0,0.98 -0.322,1.873 -0.968,2.673 -0.645,0.798 -1.336,1.106 -2.074,0.922 -0.799,-0.124 -2.027,-0.522 -3.687,-1.198 -2.95,-1.722 -6.146,-5.379 -9.588,-10.97 -0.861,-1.415 -1.736,-2.872 -2.627,-4.379 -0.892,-1.505 -1.553,-2.935 -1.981,-4.286 -0.309,-0.982 -0.83,-4.946 -1.567,-11.893 -0.246,-2.15 -0.369,-4.24 -0.369,-6.268 0,-10.878 3.165,-20.127 9.495,-27.748 3.688,-4.425 7.527,-6.637 11.523,-6.637 1.72,0 3.286,0.522 4.701,1.567 0.429,0.308 0.645,0.984 0.645,2.028 z" />
	<path
   id="path24"
   d="m 348.659,186.203 c -3.627,8.174 -8.758,13.029 -15.396,14.564 -0.8,0.185 -1.601,0.276 -2.397,0.276 -3.502,0 -7.037,-1.904 -10.601,-5.715 -2.397,-2.581 -3.596,-5.931 -3.596,-10.048 0,-4.548 1.352,-9.434 4.057,-14.657 1.166,-2.213 2.581,-4.117 4.24,-5.716 1.903,-1.904 3.718,-2.857 5.438,-2.857 0.981,0 1.903,0.368 2.766,1.106 0.859,0.737 3.165,1.721 6.914,2.949 2.949,0.984 5.037,2.645 6.269,4.979 2.15,4.117 3.228,7.65 3.228,10.601 0,1.66 -0.309,3.167 -0.922,4.518 z m -7.375,-5.715 c -0.432,-4.485 -1.629,-7.158 -3.596,-8.02 -0.309,-0.123 -0.585,-0.185 -0.83,-0.185 -0.736,0 -1.658,0.615 -2.766,1.844 -1.229,1.414 -2.182,2.244 -2.857,2.488 -0.431,0.185 -1.045,0 -1.844,-0.553 -0.8,-0.553 -1.322,-0.83 -1.566,-0.83 -0.186,0 -0.338,0.063 -0.461,0.185 -2.151,1.844 -3.228,4.701 -3.228,8.573 0,2.644 0.614,4.886 1.845,6.729 1.719,2.521 3.164,3.779 4.332,3.779 2.703,0 5.314,-1.689 7.836,-5.07 2.398,-3.193 3.442,-6.175 3.135,-8.94 z" />
	<path
   id="path26"
   d="m 385.901,155.875 c -0.432,4.303 -1.66,10.048 -3.688,17.238 -2.767,9.649 -4.364,15.487 -4.794,17.516 -1.354,6.207 -3.934,11.861 -7.743,16.961 -2.396,3.257 -5.162,4.854 -8.297,4.794 -2.767,-0.063 -4.825,-1.813 -6.177,-5.255 -2.336,-5.775 -3.502,-12.566 -3.502,-20.372 0,-4.485 0.429,-10.263 1.289,-17.331 -0.062,0.615 -0.092,-1.29 -0.092,-5.715 0,-3.81 1.476,-5.716 4.426,-5.716 0.612,0 1.273,0.17 1.98,0.508 0.706,0.338 1.396,0.691 2.074,1.06 0.061,3.135 -0.031,7.743 -0.276,13.827 -0.309,6.516 -0.461,11.217 -0.461,14.104 0,3.074 0.093,5.869 0.276,8.389 0.123,1.291 0.676,3.749 1.658,7.375 2.582,-2.889 4.609,-6.729 6.086,-11.523 0.49,-1.597 1.475,-5.96 2.949,-13.09 1.166,-5.407 2.488,-9.647 3.963,-12.722 0.431,-0.859 0.799,-2.488 1.106,-4.886 0.308,-2.396 0.676,-4.056 1.106,-4.978 0.675,-1.475 1.844,-2.212 3.502,-2.212 2.156,0 3.693,0.677 4.615,2.028 z" />
	<path
   id="path28"
   d="m 429.502,153.201 c -2.396,4.486 -5.809,12.875 -10.232,25.166 -1.291,3.627 -2.827,9.618 -4.608,17.976 -1.722,7.99 -3.381,14.042 -4.979,18.16 -0.554,0.612 -1.198,0.922 -1.937,0.922 -0.861,0 -1.968,-0.461 -3.318,-1.383 -2.396,-5.716 -5.193,-15.118 -8.389,-28.208 -3.013,-12.475 -6.023,-21.97 -9.034,-28.484 0.798,-1.536 1.477,-2.305 2.027,-2.305 0.492,-0.307 0.982,-0.461 1.476,-0.461 0.981,0 2.704,0.922 5.163,2.766 2.212,5.039 4.332,11.216 6.359,18.528 1.599,6.331 3.228,12.629 4.887,18.897 2.271,-7.497 4.547,-15.025 6.82,-22.585 2.704,-8.48 5.47,-15.793 8.298,-21.939 0.922,-1.598 2.519,-2.12 4.793,-1.567 0.245,0.063 0.554,0.293 0.922,0.691 0.369,0.4 0.83,0.615 1.383,0.646 0.554,0.032 0.83,0.478 0.83,1.337 0,0.615 -0.154,1.229 -0.461,1.843 z" />
	<path
   id="path30"
   d="m 462.964,160.023 c -2.274,0.922 -5.623,1.998 -10.048,3.227 -4.425,1.229 -7.775,2.305 -10.048,3.227 -0.554,1.599 -0.953,5.162 -1.198,10.693 0.981,0.368 2.12,0.553 3.41,0.553 0.922,0 2.364,-0.152 4.333,-0.461 1.966,-0.307 3.41,-0.461 4.333,-0.461 1.72,0 3.193,0.369 4.425,1.106 0.859,1.229 1.29,2.028 1.29,2.396 0,0.431 -0.216,0.77 -0.646,1.015 -0.123,0.062 -0.553,0.492 -1.29,1.29 -0.492,0.553 -1.105,0.8 -1.844,0.737 -1.291,0.309 -3.657,0.493 -7.099,0.554 -2.89,0.062 -5.193,0.431 -6.913,1.105 -1.168,4.549 -1.752,8.145 -1.752,10.786 0,1.783 0.245,3.196 0.736,4.24 2.89,2.028 7.896,2.89 15.026,2.581 0.491,0 1.014,-0.23 1.567,-0.691 0.553,-0.461 1.014,-0.691 1.383,-0.691 1.72,-0.369 2.856,0.922 3.41,3.872 0.185,0.983 0.015,1.89 -0.508,2.719 -0.521,0.83 -1.275,1.275 -2.259,1.336 -7.437,0.246 -13.889,-0.338 -19.357,-1.75 -1.722,-0.431 -3.288,-1.383 -4.701,-2.858 -1.414,-1.475 -2.212,-3.134 -2.396,-4.978 -0.554,-5.347 -0.554,-10.141 0,-14.381 -1.722,-1.167 -2.488,-2.305 -2.305,-3.41 0.062,-0.554 0.537,-1.061 1.429,-1.521 0.892,-0.461 1.397,-0.937 1.521,-1.429 0.122,-0.491 0.368,-3.411 0.737,-8.758 -3.442,-0.675 -5.133,-1.966 -5.07,-3.871 0.061,-1.782 1.137,-3.195 3.227,-4.241 1.966,-0.798 3.933,-1.597 5.899,-2.396 2.272,-1.167 5.131,-2.212 8.573,-3.134 3.011,-0.798 6.021,-1.567 9.033,-2.305 0.308,-0.062 0.677,-0.093 1.106,-0.093 1.659,0 3.595,0.646 5.807,1.937 0.062,0.246 0.215,0.707 0.461,1.383 0.245,0.677 0.369,1.168 0.369,1.475 0.004,0.491 -0.211,0.89 -0.641,1.197 z" />
	<path
   id="path32"
   d="m 502.603,206.76 c 0.185,0.245 0.276,0.521 0.276,0.829 0,1.413 -1.477,2.489 -4.425,3.228 -3.26,-2.521 -7.314,-6.392 -12.168,-11.616 -5.409,-5.838 -9.436,-9.894 -12.076,-12.168 -0.186,1.599 -0.523,5.777 -1.016,12.537 -0.308,5.102 -0.86,9.156 -1.658,12.168 -0.124,0 -0.508,0.151 -1.152,0.461 -0.646,0.307 -1.184,0.398 -1.613,0.275 -2.705,-0.613 -4.056,-2.488 -4.056,-5.623 0,-0.922 0.122,-2.15 0.368,-3.688 0.245,-1.781 0.398,-2.888 0.461,-3.318 0.245,-3.563 0.398,-7.804 0.461,-12.722 v -10.048 c 0,-8.356 0.461,-15.395 1.383,-21.109 0.614,-3.811 4.209,-5.562 10.786,-5.255 3.318,0.124 6.206,1.783 8.665,4.979 2.271,2.949 3.411,6.146 3.411,9.587 0,2.889 -1.076,5.777 -3.228,8.665 -1.844,2.581 -4.117,4.609 -6.821,6.084 -1.105,0.615 -1.659,1.291 -1.659,2.028 0,0.799 0.646,1.751 1.937,2.857 0.981,0.8 1.966,1.599 2.949,2.396 0.062,0.063 3.441,3.135 10.142,9.219 4.239,3.813 7.249,7.224 9.033,10.234 z m -19.452,-41.391 c 0.186,-1.106 0.245,-2.089 0.186,-2.95 -0.186,-1.29 -0.725,-2.457 -1.613,-3.503 -0.892,-1.044 -2.32,-1.566 -4.286,-1.566 -1.476,0 -2.396,0.461 -2.766,1.383 -0.31,1.536 -0.461,3.288 -0.461,5.254 0,0.8 0.092,2.857 0.275,6.177 0.122,2.521 0.122,4.578 0,6.176 5.101,-3.81 7.989,-7.468 8.665,-10.971 z" />
</g>
<g
   transform="translate(-96.710908,-83.219773)"
   id="g50">
	<path
   id="path36"
   d="m 250.387,268.238 c -0.863,3.58 -3.051,6.83 -6.565,9.748 -3.382,2.391 -6.765,4.742 -10.147,7.064 0.199,0.996 0.879,1.742 2.04,2.236 1.159,0.498 2.271,0.98 3.333,1.443 5.504,3.58 8.256,7.826 8.256,12.732 0,3.781 -1.293,7.262 -3.879,10.445 -1.99,2.453 -4.941,4.875 -8.854,7.262 -3.184,1.855 -6.367,3.713 -9.551,5.57 -0.795,0.463 -1.658,0.697 -2.586,0.697 -2.188,0 -3.715,-0.896 -4.576,-2.686 0.133,-5.572 0.265,-11.109 0.398,-16.613 0.132,-6.631 0.497,-12.102 1.094,-16.414 -1.393,-0.928 -2.089,-1.988 -2.089,-3.186 0,-0.596 0.249,-1.143 0.746,-1.641 0.497,-0.498 1.177,-1.045 2.04,-1.641 0.795,-10.08 0.96,-19.365 0.496,-27.854 -3.117,-0.598 -5.172,-1.99 -6.167,-4.18 -0.067,-0.264 0.05,-0.662 0.349,-1.193 0.299,-0.529 0.447,-0.961 0.447,-1.293 1.525,-1.127 3.216,-1.691 5.073,-1.691 1.326,0 4.377,0.434 9.151,1.293 2.453,0.398 5.007,1.295 7.66,2.688 7.162,3.715 11.373,7.328 12.634,10.842 0.861,2.527 1.095,4.648 0.697,6.372 z m -12.335,34.022 c 0.132,-0.73 0.198,-1.426 0.198,-2.09 0,-1.99 -0.631,-3.746 -1.89,-5.271 -3.382,-1.656 -5.538,-2.486 -6.466,-2.486 -0.531,0 -1.029,0.1 -1.492,0.299 0.065,0.664 0.1,1.393 0.1,2.188 0,1.395 -0.184,3.531 -0.547,6.416 -0.365,2.887 -0.547,5.059 -0.547,6.518 0,2.123 0.264,4.043 0.795,5.77 0.796,-0.93 2.039,-1.908 3.73,-2.936 1.691,-1.029 2.867,-1.939 3.531,-2.734 1.194,-1.397 2.056,-3.288 2.588,-5.674 z m 2.983,-38.996 c -0.332,-2.453 -2.321,-4.342 -5.968,-5.67 -0.532,-0.199 -1.36,-0.629 -2.487,-1.293 -0.795,-0.529 -1.459,-0.795 -1.989,-0.795 -0.266,0 -0.564,0.066 -0.896,0.197 -0.066,1.129 -0.1,2.322 -0.1,3.582 0,1.725 0.133,4.643 0.398,8.754 0.199,3.779 0.264,6.732 0.199,8.854 0.463,0 1.159,-0.348 2.088,-1.045 0.929,-0.695 1.459,-1.076 1.592,-1.145 1.99,-0.928 3.746,-2.486 5.273,-4.674 1.525,-2.189 2.155,-4.443 1.89,-6.765 z" />
	<path
   id="path38"
   d="m 265.705,261.176 c 0.132,1.924 0.199,3.914 0.199,5.969 0,4.51 -0.465,11.307 -1.393,20.393 -0.93,9.088 -1.394,15.949 -1.394,20.594 0,1.725 0.032,3.414 0.1,5.072 -0.597,1.854 -1.89,2.752 -3.88,2.686 -2.852,-0.133 -4.41,-1.359 -4.675,-3.68 -0.267,-2.32 -0.397,-4.775 -0.397,-7.361 0,-4.51 0.547,-11.242 1.641,-20.193 1.094,-8.953 1.642,-15.65 1.642,-20.096 0,-1.723 -0.067,-3.414 -0.199,-5.072 0.662,-1.26 1.79,-1.891 3.382,-1.891 1.26,0 2.52,0.365 3.781,1.094 0.264,-0.197 0.463,-0.297 0.596,-0.297 0.199,0 0.299,0.332 0.299,0.994 -0.066,0.795 -0.066,1.26 0,1.393 0.065,0.196 0.165,0.328 0.298,0.395 z" />
	<path
   id="path40"
   d="m 305.495,306.039 c 0.397,0.332 0.597,0.795 0.597,1.393 0,0.398 -0.266,1.395 -0.796,2.984 -0.266,-0.064 -0.497,-0.1 -0.696,-0.1 -0.398,0 -0.912,0.166 -1.542,0.498 -0.631,0.332 -1.111,0.496 -1.442,0.496 -0.332,0 -0.696,-0.131 -1.094,-0.396 -4.444,-2.785 -11.341,-6.965 -20.691,-12.535 0.199,2.455 0.363,5.969 0.498,10.545 0,0.531 0.064,1.328 0.198,2.387 0.132,1.063 0.199,1.824 0.199,2.289 0,1.592 -0.696,2.688 -2.089,3.283 -0.398,0.264 -0.963,0.396 -1.691,0.396 -0.796,0 -1.293,-0.232 -1.492,-0.695 -1.725,-0.598 -2.721,-1.758 -2.984,-3.482 -0.796,-4.773 -1.193,-10.377 -1.193,-16.811 0,-2.32 0.064,-5.785 0.199,-10.396 0.131,-4.607 0.198,-8.072 0.198,-10.395 0,-7.029 -0.464,-13.131 -1.393,-18.305 -0.134,-0.795 0.331,-1.324 1.393,-1.592 0.796,-0.131 1.624,-0.264 2.487,-0.396 0.861,0.266 1.756,0.58 2.686,0.945 0.928,0.365 1.426,0.943 1.492,1.74 0.994,9.02 1.426,16.182 1.293,21.486 2.719,-2.453 5.835,-5.703 9.352,-9.748 2.984,-3.385 5.934,-6.797 8.854,-10.246 0.795,-0.332 1.656,-0.498 2.586,-0.498 2.586,0 3.945,0.895 4.078,2.686 -1.857,4.113 -5.506,8.988 -10.942,14.623 -6.366,6.566 -10.444,11.242 -12.235,14.027 4.111,2.453 8.256,4.908 12.435,7.361 4.639,2.919 8.552,5.737 11.735,8.456 z" />
	<path
   id="path42"
   d="m 342.799,261.771 c -2.455,0.996 -6.067,2.156 -10.845,3.482 -4.773,1.328 -8.389,2.486 -10.841,3.482 -0.598,1.725 -1.029,5.57 -1.293,11.539 1.06,0.396 2.287,0.596 3.68,0.596 0.995,0 2.553,-0.164 4.676,-0.496 2.121,-0.332 3.681,-0.498 4.676,-0.498 1.855,0 3.447,0.398 4.773,1.193 0.93,1.328 1.395,2.189 1.395,2.586 0,0.465 -0.233,0.83 -0.696,1.096 -0.133,0.066 -0.599,0.531 -1.394,1.393 -0.53,0.596 -1.192,0.861 -1.989,0.795 -1.394,0.332 -3.945,0.531 -7.66,0.598 -3.117,0.066 -5.604,0.467 -7.459,1.193 -1.262,4.908 -1.891,8.787 -1.891,11.641 0,1.924 0.264,3.447 0.796,4.574 3.116,2.189 8.521,3.117 16.215,2.785 0.53,0 1.096,-0.248 1.69,-0.746 0.598,-0.498 1.094,-0.746 1.492,-0.746 1.854,-0.396 3.084,0.994 3.682,4.18 0.197,1.063 0.017,2.039 -0.549,2.934 -0.563,0.896 -1.377,1.377 -2.437,1.443 -8.024,0.264 -14.987,-0.365 -20.891,-1.893 -1.857,-0.465 -3.549,-1.49 -5.073,-3.084 -1.526,-1.592 -2.388,-3.381 -2.587,-5.371 -0.597,-5.77 -0.597,-10.939 0,-15.518 -1.857,-1.26 -2.686,-2.488 -2.486,-3.682 0.064,-0.596 0.58,-1.145 1.541,-1.641 0.961,-0.498 1.508,-1.01 1.643,-1.543 0.131,-0.529 0.397,-3.68 0.795,-9.449 -3.715,-0.729 -5.537,-2.121 -5.471,-4.178 0.063,-1.924 1.227,-3.447 3.48,-4.576 2.122,-0.861 4.243,-1.725 6.366,-2.586 2.453,-1.26 5.537,-2.389 9.252,-3.383 3.248,-0.861 6.498,-1.691 9.748,-2.486 0.332,-0.066 0.729,-0.1 1.193,-0.1 1.791,0 3.881,0.695 6.268,2.088 0.066,0.266 0.232,0.764 0.498,1.492 0.264,0.729 0.396,1.262 0.396,1.592 10e-4,0.533 -0.23,0.964 -0.693,1.294 z" />
	<path
   id="path44"
   d="m 395.124,249.537 c -0.599,2.387 -1.727,3.779 -3.383,4.178 -4.313,1.061 -11.806,2.453 -22.481,4.178 -1.327,16.514 -1.989,30.275 -1.989,41.283 0,4.178 0.065,8.291 0.198,12.334 0.065,1.26 0,2.221 -0.198,2.885 -0.333,1.063 -0.994,1.561 -1.99,1.492 -1.924,-0.066 -3.516,-0.879 -4.773,-2.438 -1.262,-1.559 -1.957,-3.297 -2.089,-5.223 -0.134,-2.451 -0.199,-5.039 -0.199,-7.758 0,-4.377 0.299,-11.309 0.896,-20.791 0.598,-9.086 0.861,-16.018 0.797,-20.791 -1.791,-0.131 -4.277,0.035 -7.461,0.498 -3.648,0.531 -6.168,0.795 -7.562,0.795 -3.248,0 -5.901,-0.869 -7.958,-2.607 -0.796,-1.738 -1.193,-2.641 -1.193,-2.707 0,-0.469 0.233,-0.971 0.696,-1.506 2.123,-0.734 6.466,-1.402 13.031,-2.006 5.771,-0.602 10.08,-1.672 12.933,-3.209 2.32,0.795 4.975,1.193 7.957,1.193 2.984,0 5.836,-0.363 8.557,-1.096 0.796,-0.064 2.816,-0.529 6.066,-1.395 2.389,-0.596 4.379,-0.795 5.969,-0.596 1.194,0 1.691,0.498 1.492,1.492 1.789,0.004 2.684,0.6 2.684,1.795 z" />
	<path
   id="path46"
   d="m 417.704,306.736 c 0.397,1.063 0.597,1.988 0.597,2.785 0,1.326 -0.564,2.486 -1.69,3.48 -1.129,0.996 -1.891,1.459 -2.287,1.393 -3.25,-0.596 -5.308,-3.215 -6.168,-7.855 -0.931,-5.039 -2.023,-9.252 -3.282,-12.637 -2.257,0.199 -4.512,0.398 -6.766,0.6 -2.587,0.332 -4.61,1.129 -6.067,2.387 -0.73,2.057 -1.691,5.705 -2.885,10.943 -1.129,4.84 -2.224,8.52 -3.283,11.041 -0.531,1.191 -1.658,1.523 -3.383,0.996 -2.188,-0.73 -3.35,-1.729 -3.48,-2.984 -0.199,-2.521 0.529,-5.902 2.188,-10.146 1.989,-4.842 3.084,-8.291 3.283,-10.346 0.064,-0.598 -0.365,-1.26 -1.294,-1.99 -0.93,-0.729 -1.393,-1.293 -1.393,-1.691 0,-0.33 0.148,-0.68 0.448,-1.045 0.297,-0.363 0.994,-0.662 2.088,-0.895 1.095,-0.232 1.707,-0.58 1.841,-1.045 1.194,-3.314 3.084,-9.482 5.67,-18.502 2.188,-7.824 4.145,-13.828 5.869,-18.006 0.397,-0.93 1.227,-1.395 2.486,-1.395 0.929,0 1.757,0.299 2.487,0.896 1.855,1.592 3.049,3.979 3.581,7.164 0.397,2.719 0.762,5.438 1.094,8.154 3.316,15.653 6.765,28.55 10.346,38.698 z m -14.523,-19 c -0.199,-2.453 -0.631,-5.207 -1.293,-8.258 -0.664,-2.65 -1.294,-5.305 -1.891,-7.957 -1.989,5.504 -3.715,11.008 -5.174,16.512 1.062,-0.199 3.847,-0.297 8.358,-0.297 z" />
	<path
   id="path48"
   d="m 457.196,286.641 c -1.791,4.443 -2.952,9.916 -3.481,16.414 -0.333,5.637 -0.632,11.273 -0.896,16.91 -0.134,1.658 -1.228,2.488 -3.282,2.488 -0.598,0 -1.161,-0.1 -1.69,-0.299 -2.853,-1.193 -4.277,-3.416 -4.277,-6.664 0,-0.93 0.133,-2.338 0.397,-4.229 0.264,-1.891 0.396,-3.266 0.396,-4.129 0.266,-1.922 0.599,-4.807 0.995,-8.654 -4.575,4.313 -9.749,7.527 -15.519,9.65 -0.796,0.266 -1.591,0.395 -2.387,0.395 -3.053,0 -5.869,-1.723 -8.456,-5.172 -1.458,-1.924 -2.188,-4.311 -2.188,-7.162 0,-2.52 0.564,-5.473 1.691,-8.854 3.515,-10.744 9.117,-21.254 16.812,-31.535 3.847,-5.105 7.263,-7.658 10.246,-7.658 2.651,0 4.145,0.994 4.478,2.984 0.264,1.658 -0.3,2.852 -1.691,3.58 -2.322,1.262 -3.549,1.957 -3.681,2.09 -5.57,6.166 -10.679,14.125 -15.319,23.873 -2.853,6.035 -4.277,11.441 -4.277,16.215 0,0.863 0.032,1.727 0.101,2.586 0.132,0.068 0.331,0.383 0.597,0.945 0.266,0.564 0.63,0.746 1.094,0.547 4.377,-1.723 10.977,-6.266 19.796,-13.627 0.662,-0.531 1.427,-2.055 2.288,-4.576 0.662,-1.855 1.856,-2.785 3.581,-2.785 -0.53,0 0,-0.066 1.593,-0.199 0.796,-0.133 1.325,0 1.592,0.398 1.259,1.857 1.89,3.381 1.89,4.576 -0.006,0.599 -0.139,1.23 -0.403,1.892 z" />
</g>
</svg>
