<?xml version="1.0" encoding="utf-8"?>
<!-- Generator: Adobe Illustrator 16.0.0, SVG Export Plug-In . SVG Version: 6.00 Build 0)  -->
<!DOCTYPE svg PUBLIC "-//W3C//DTD SVG 1.1//EN" "http://www.w3.org/Graphics/SVG/1.1/DTD/svg11.dtd">
<svg version="1.1" id="Layer_1" xmlns="http://www.w3.org/2000/svg" xmlns:xlink="http://www.w3.org/1999/xlink" x="0px" y="0px"
	 width="646px" height="449px" viewBox="0 0 646 449" enable-background="new 0 0 646 449" xml:space="preserve">
<g>
	<path fill="#FFFFFF" d="M295.917,371.073c-16.434-0.225-32.742-0.223-49.15-1.422c-15.524-1.135-31.074-3.297-46.635-3.772
		c-15.957-0.486-36.145,2.735-48.348-10.197c-5.475-5.801-8.445-13.046-11.948-20.029c0.671,5.056,0.981,10.216,1.585,15.618
		c0.656,5.876,1.695,11.993,5.651,16.649c4.589,5.402,10.825,6.656,17.638,6.352c30.201-1.348,60.609,0.606,90.825,1.76
		c16.564,0.632,33.127,1.337,49.681,2.198c16.896,0.879,33.767,2.282,50.694,2.319c23.435,0.051,46.807-1.476,70.192-2.719
		c-10.843-0.058-21.685-0.44-32.514-1.044C361.033,374.972,328.54,371.52,295.917,371.073z"/>
	<path fill="#FFFFFF" d="M473.4,376.548c7.027,0.073,14.052,0.17,21.078,0.027c7.954-0.161,16.773-1.03,23.386-5.925
		c0.484-0.358,0.949-0.733,1.401-1.119C505.984,377.35,488.217,376.545,473.4,376.548z"/>
	<path fill="#FFFFFF" d="M151.938,115.743c-8.022,2.768-14.501,8.101-17.108,18.357c-1.54,6.057-1.86,12.212-1.9,18.395
		c0.667-2.808,1.376-5.604,2.176-8.371C138.358,132.86,143.711,122.933,151.938,115.743z"/>
	<path fill="#FFFFFF" d="M530.963,208.271c0.364-16.257,0.831-32.631-0.802-48.838c-0.926-9.189-1.801-19.681-6.119-28.193
		c1.537,5.03,1.958,10.492,1.986,15.65c0.059,10.52-1.269,20.949-2.404,31.387c-1.362,12.516-1.162,24.801-0.013,37.348
		c1.416,15.468,3.692,30.879,4.436,46.404c0.689,14.407,0.028,28.743,1.144,43.151c1.04,13.422,2.552,27.047,1.466,40.514
		c-0.011,0.133-0.022,0.266-0.033,0.398c2.216-13.338,1.84-27.242,1.82-40.695C532.395,272.992,530.235,240.679,530.963,208.271z"/>
	<path fill="#FFFFFF" d="M103.079,267.84c-0.205-0.659-0.398-1.32-0.582-1.984c0.894,6.045,2.332,11.946,4.395,17.266
		c4.021,10.367,10.773,18.855,18.012,27.15c2.248,2.575,4.499,5.172,6.68,7.824c-4.555-8.792-10.141-16.912-15.567-25.184
		C110.86,285.057,105.884,276.873,103.079,267.84z"/>
	<path fill="#FFFFFF" d="M188.292,110.679c32.934,0.027,65.865,0.5,98.793,1.15c65.239,1.291,130.474,3.15,195.73,3.188
		c6.011-0.093,12.812-0.539,19.331,0.004c-17.84-5.559-38.318-3.132-56.538-3.18c-14.036-0.036-28.111-1.99-42.124-2.841
		c-16.348-0.991-32.708-1.756-49.057-2.735c-29.883-1.791-59.587-4.877-89.556-5.398c-15.119-0.264-30.254-0.176-45.359,0.58
		c-14.566,0.729-30.039,1.092-44.268,4.566c-4.773,1.166-9.457,2.791-13.775,5.049C170.431,109.989,179.904,110.671,188.292,110.679
		z"/>
	<path fill="#FFFFFF" d="M123.827,199.653c-1.645,2.688-3.561,5.245-5.56,7.754c0.254-0.299,0.509-0.596,0.761-0.898
		C120.888,204.28,122.465,201.994,123.827,199.653z"/>
	<path fill="#FFFFFF" d="M140.079,137.224c0.84-1.359,1.773-2.68,2.817-3.957c6.441-7.88,15.174-13.148,24.862-16.109
		c7.198-2.199,14.551-3.548,21.981-4.301c-4.146-0.016-8.291-0.037-12.437-0.045c-7.162-0.013-14.768,0.188-21.594,1.834
		c-2.521,1.868-4.833,4.035-6.854,6.56C145.001,126.019,142.198,131.481,140.079,137.224z"/>
	<path fill="#FFFFFF" d="M524.348,251.55c-1.392-15.415-3.678-30.77-4.44-46.236c-0.529-10.728,0.198-21.002,1.39-31.65
		c1.758-15.71,6.63-42.061-7.843-53.33c-8.601-4.253-19.702-3.391-29.505-3.167c-0.103,0.019-0.209,0.03-0.322,0.03
		c-0.369,0-0.738-0.003-1.107-0.004c-0.563,0.01-1.121,0.016-1.673,0.017c-0.107,0-0.205-0.009-0.298-0.021
		c-4.95-0.005-9.901-0.012-14.852-0.037c-40.584-0.208-81.157-1.053-121.73-1.938c-0.398,0.241-0.881,0.429-1.23,0.43
		c-30.554,0.063-61.337,3.747-91.843,1.113c-27.045-2.335-56.282-6.951-82.783,1.716c-12.717,4.158-24.018,12.665-28.753,25.6
		c-4.473,12.216-3.613,25.221-6.056,37.828c-2.346,12.105-7.963,20.755-16.154,29.717c-5.559,6.083-10.326,12.263-13.076,19.55
		c-1.932,11.067-1.926,22.782,1.205,33.566c5.782,19.911,20.709,35.041,29.655,53.412c1.409,2.894,2.427,5.771,3.199,8.654
		c1.867,2.771,3.589,5.638,5.043,8.67c4.61,9.607,8.944,20.081,19.223,24.908c8.333,3.914,17.659,3.844,26.679,3.846
		c12.573,0.002,24.957,0.998,37.479,2.108c16.945,1.503,33.929,3.038,50.951,3.193c16.319,0.148,32.568,0.202,48.873,1.142
		c32.549,1.877,65.047,5.307,97.671,5.631c13.401,0.134,26.692-0.916,40.065-1.199c9.032-0.192,18.077,0.109,27.102-0.404
		c9.143-0.521,20.344-1.229,27.962-6.946c8.928-6.701,8.875-19.33,8.888-29.526c0.017-14.164-1.716-28.223-2.46-42.352
		C524.827,281.077,525.684,266.34,524.348,251.55z M139.195,244.481c-0.248,2.14-0.848,6.552-2.011,10.828
		c-0.08,1.367-0.144,2.72-0.17,4.049c-0.041,2.206-0.924,2.323-1.83,1.559c-2.197,4.61-5.465,7.22-10.249,2.917
		c-7.523-6.771-7.336-19.55-5.703-29.103c0.675-3.914,1.856-10.618,5.954-12.175c4.022-1.529,8.336,0.813,10.126,4.859
		c1.84,4.154,2.456,8.666,2.546,13.276C138.677,241.627,139.344,243.217,139.195,244.481z"/>
	<path fill="#FFFFFF" d="M129.707,228.993c-4.113-0.436-5.645,3.624-6.384,7.315c-1.024,5.102-3.34,17.896,1.878,21.148
		c4.33,2.701,6.748-0.24,8.161-4.43c0.253-4.584,0.693-9.154,0.561-13.76C133.823,235.701,134.194,229.467,129.707,228.993z"/>
	<path fill="#FFFFFF" d="M229.347,113.132c5.218,0.421,10.41,0.923,15.549,1.425c24.711,2.414,49.415,1.002,74.146,0.113
		c-16.623-0.359-33.247-0.705-49.872-0.996C255.896,113.441,242.621,113.269,229.347,113.132z"/>
	<path d="M535.322,295.29c-0.174-16.509-0.811-33.009-1.442-49.505c-0.604-15.744-0.074-31.476,0.221-47.22
		c0.284-15.144,0.015-30.21-1.612-45.276c-1.018-9.421-2.869-19.45-8.261-27.446c-2.537-3.763-5.847-6.271-9.603-7.939
		c-5.593-3.611-13.037-5.111-19.144-6.128c-21.424-3.567-43.433-0.63-65.008-2.46c-31.962-2.713-64.046-3.525-96.004-6.261
		c-29.435-2.519-58.977-4.025-88.523-3.828c-14.449,0.097-28.893,0.702-43.293,1.871c-11.939,0.97-24.063,1.946-35.457,5.86
		c-3.611,1.24-6.875,2.847-9.852,4.739c-5.789,1.107-11.247,3.142-15.907,6.816c-14.188,11.187-11.68,32.167-11.801,49.616
		c-1.071,5.57-2.1,11.146-3.255,16.672c-0.95,4.543-2.336,8.506-4.238,12.296c-2.705,4.252-6.043,8.166-9.814,11.896
		c-6.512,6.439-9.626,13.737-11.188,22.463c-0.314,0.828-0.612,1.67-0.875,2.544c-3.82,12.707-1.345,27.422,0.991,40.168
		c1.959,10.689,7.186,20.17,13.779,28.668c6.423,8.279,13.894,15.658,19.885,24.286c0.182,0.263,0.352,0.532,0.528,0.798
		c2.297,8.706,2.213,17.713,3.409,26.899c1.216,9.347,6.129,18.924,16.146,20.964c4.954,1.01,9.942,0.695,14.95,0.326
		c7.849-0.579,15.658-0.199,23.517,0.04c32.945,1.003,65.889,2.079,98.813,3.642c32.2,1.527,64.013,3.557,96.27,2.196
		c31.985-1.349,63.923-4.099,95.963-3.444c14.985,0.307,31.572,0.453,41.522-12.721c5.229-6.92,7.127-15.937,8.163-24.357
		C536.067,326.285,535.483,310.552,535.322,295.29z M175.245,106.013c14.229-3.475,29.701-3.838,44.268-4.566
		c15.105-0.756,30.24-0.844,45.359-0.58c29.969,0.521,59.673,3.607,89.556,5.398c16.349,0.979,32.709,1.744,49.057,2.735
		c14.013,0.851,28.088,2.805,42.124,2.841c18.22,0.048,38.698-2.379,56.538,3.18c-6.52-0.543-13.32-0.097-19.331-0.004
		c-65.257-0.037-130.491-1.896-195.73-3.188c-32.928-0.65-65.859-1.123-98.793-1.15c-8.388-0.008-17.861-0.689-26.822,0.383
		C165.788,108.804,170.472,107.179,175.245,106.013z M319.042,114.67c-24.731,0.889-49.436,2.301-74.146-0.113
		c-5.139-0.502-10.331-1.004-15.549-1.425c13.274,0.137,26.549,0.31,39.823,0.542C285.795,113.965,302.419,114.311,319.042,114.67z
		 M155.71,114.646c6.826-1.646,14.432-1.847,21.594-1.834c4.146,0.008,8.291,0.029,12.437,0.045
		c-7.431,0.753-14.783,2.102-21.981,4.301c-9.688,2.961-18.421,8.229-24.862,16.109c-1.044,1.277-1.978,2.598-2.817,3.957
		c2.119-5.742,4.922-11.205,8.776-16.019C150.877,118.681,153.189,116.514,155.71,114.646z M134.83,134.101
		c2.607-10.257,9.086-15.59,17.108-18.357c-8.228,7.189-13.58,17.117-16.833,28.381c-0.8,2.768-1.509,5.563-2.176,8.371
		C132.97,146.313,133.29,140.157,134.83,134.101z M123.827,199.653c-1.362,2.341-2.939,4.627-4.799,6.855
		c-0.252,0.303-0.507,0.6-0.761,0.898C120.267,204.898,122.183,202.341,123.827,199.653z M124.903,310.271
		c-7.238-8.295-13.99-16.783-18.012-27.15c-2.063-5.319-3.501-11.221-4.395-17.266c0.184,0.664,0.377,1.325,0.582,1.984
		c2.805,9.033,7.781,17.217,12.937,25.072c5.427,8.271,11.013,16.392,15.567,25.184
		C129.402,315.443,127.151,312.847,124.903,310.271z M355.91,380.549c-16.928-0.037-33.798-1.44-50.694-2.319
		c-16.554-0.861-33.116-1.566-49.681-2.198c-30.216-1.153-60.624-3.107-90.825-1.76c-6.813,0.305-13.049-0.949-17.638-6.352
		c-3.956-4.656-4.995-10.773-5.651-16.649c-0.604-5.402-0.914-10.563-1.585-15.618c3.503,6.983,6.474,14.229,11.948,20.029
		c12.203,12.933,32.391,9.711,48.348,10.197c15.561,0.476,31.11,2.638,46.635,3.772c16.408,1.199,32.717,1.197,49.15,1.422
		c32.623,0.446,65.116,3.898,97.672,5.713c10.829,0.604,21.671,0.986,32.514,1.044C402.717,379.073,379.345,380.6,355.91,380.549z
		 M517.864,370.65c-6.612,4.895-15.432,5.764-23.386,5.925c-7.026,0.143-14.051,0.046-21.078-0.027
		c14.816-0.003,32.584,0.802,45.865-7.017C518.813,369.917,518.349,370.292,517.864,370.65z M519.178,367.747
		c-7.618,5.718-18.819,6.425-27.962,6.946c-9.024,0.514-18.069,0.212-27.102,0.404c-13.373,0.283-26.664,1.333-40.065,1.199
		c-32.624-0.324-65.122-3.754-97.671-5.631c-16.305-0.939-32.554-0.993-48.873-1.142c-17.022-0.155-34.006-1.69-50.951-3.193
		c-12.521-1.11-24.905-2.106-37.479-2.108c-9.02-0.002-18.346,0.068-26.679-3.846c-10.278-4.827-14.612-15.301-19.223-24.908
		c-1.454-3.032-3.176-5.898-5.043-8.67c-0.772-2.884-1.79-5.761-3.199-8.654c-8.946-18.371-23.873-33.501-29.655-53.412
		c-3.131-10.784-3.137-22.499-1.205-33.566c2.75-7.287,7.518-13.467,13.076-19.55c8.191-8.962,13.809-17.611,16.154-29.717
		c2.442-12.607,1.583-25.612,6.056-37.828c4.735-12.935,16.036-21.441,28.753-25.6c26.501-8.667,55.738-4.051,82.783-1.716
		c30.506,2.634,61.289-1.051,91.843-1.113c0.35-0.001,0.832-0.188,1.23-0.43c40.573,0.886,81.146,1.73,121.73,1.938
		c4.95,0.025,9.901,0.032,14.852,0.037c0.093,0.012,0.19,0.021,0.298,0.021c0.552-0.001,1.11-0.007,1.673-0.017
		c0.369,0.001,0.738,0.004,1.107,0.004c0.113,0,0.22-0.012,0.322-0.03c9.803-0.224,20.904-1.086,29.505,3.167
		c14.473,11.27,9.601,37.62,7.843,53.33c-1.191,10.648-1.919,20.923-1.39,31.65c0.763,15.467,3.049,30.821,4.44,46.236
		c1.336,14.79,0.479,29.527,1.258,44.319c0.744,14.129,2.477,28.188,2.46,42.352C528.053,348.417,528.105,361.046,519.178,367.747z
		 M530.623,346.092c0.011-0.133,0.022-0.266,0.033-0.398c1.086-13.467-0.426-27.092-1.466-40.514
		c-1.115-14.408-0.454-28.744-1.144-43.151c-0.743-15.525-3.02-30.937-4.436-46.404c-1.149-12.547-1.35-24.832,0.013-37.348
		c1.136-10.438,2.463-20.867,2.404-31.387c-0.028-5.158-0.449-10.62-1.986-15.65c4.318,8.513,5.193,19.004,6.119,28.193
		c1.633,16.207,1.166,32.581,0.802,48.838c-0.728,32.408,1.432,64.722,1.48,97.126C532.463,318.85,532.839,332.754,530.623,346.092z
		"/>
	<path d="M135.313,227.416c-1.79-4.047-6.104-6.389-10.126-4.859c-4.098,1.557-5.279,8.261-5.954,12.175
		c-1.633,9.553-1.82,22.331,5.703,29.103c4.784,4.303,8.052,1.693,10.249-2.917c0.906,0.765,1.789,0.647,1.83-1.559
		c0.026-1.329,0.09-2.682,0.17-4.049c1.163-4.276,1.763-8.688,2.011-10.828c0.148-1.265-0.519-2.854-1.337-3.789
		C137.769,236.082,137.152,231.57,135.313,227.416z M133.362,253.027c-1.413,4.189-3.831,7.131-8.161,4.43
		c-5.218-3.252-2.902-16.047-1.878-21.148c0.739-3.691,2.271-7.751,6.384-7.315c4.487,0.474,4.116,6.708,4.216,10.274
		C134.056,243.873,133.615,248.443,133.362,253.027z"/>
</g>
<g>
	<path d="M212.974,169.191c-2.396,4.486-5.808,12.875-10.232,25.166c-1.291,3.627-2.827,9.618-4.609,17.976
		c-1.721,7.99-3.381,14.042-4.978,18.16c-0.554,0.613-1.198,0.922-1.937,0.922c-0.861,0-1.967-0.461-3.318-1.383
		c-2.396-5.716-5.193-15.118-8.389-28.208c-3.012-12.475-6.023-21.97-9.034-28.484c0.798-1.536,1.476-2.305,2.028-2.305
		c0.491-0.307,0.982-0.461,1.475-0.461c0.982,0,2.704,0.922,5.163,2.766c2.212,5.039,4.332,11.216,6.36,18.528
		c1.598,6.331,3.227,12.629,4.886,18.897c2.272-7.497,4.547-15.025,6.821-22.585c2.704-8.48,5.469-15.793,8.297-21.939
		c0.922-1.598,2.519-2.12,4.793-1.567c0.245,0.063,0.554,0.293,0.922,0.691c0.369,0.4,0.83,0.615,1.383,0.646
		c0.554,0.032,0.83,0.477,0.83,1.337C213.435,167.963,213.28,168.577,212.974,169.191z"/>
	<path d="M248.003,217.68c0.369,0.983,0.553,1.844,0.553,2.581c0,1.23-0.522,2.305-1.566,3.227c-1.046,0.922-1.752,1.351-2.12,1.29
		c-3.013-0.553-4.918-2.979-5.716-7.282c-0.861-4.67-1.875-8.573-3.042-11.707c-2.09,0.185-4.18,0.369-6.269,0.553
		c-2.396,0.309-4.272,1.046-5.623,2.213c-0.677,1.905-1.567,5.286-2.674,10.14c-1.045,4.485-2.06,7.896-3.042,10.232
		c-0.492,1.106-1.536,1.413-3.134,0.922c-2.028-0.677-3.104-1.599-3.227-2.766c-0.185-2.336,0.491-5.469,2.028-9.402
		c1.844-4.485,2.857-7.682,3.042-9.587c0.061-0.554-0.339-1.167-1.198-1.844c-0.861-0.676-1.291-1.198-1.291-1.567
		c0-0.307,0.139-0.629,0.415-0.968c0.276-0.337,0.922-0.613,1.936-0.83c1.015-0.214,1.582-0.537,1.705-0.968
		c1.106-3.072,2.858-8.787,5.255-17.146c2.028-7.251,3.84-12.813,5.438-16.686c0.369-0.859,1.137-1.29,2.305-1.29
		c0.86,0,1.628,0.276,2.305,0.829c1.72,1.475,2.826,3.688,3.318,6.638c0.369,2.521,0.706,5.039,1.015,7.559
		C241.488,196.325,244.685,208.277,248.003,217.68z M234.544,200.072c-0.185-2.272-0.585-4.823-1.198-7.65
		c-0.615-2.458-1.198-4.916-1.751-7.375c-1.844,5.102-3.443,10.202-4.794,15.303C227.783,200.165,230.364,200.072,234.544,200.072z"
		/>
	<path d="M290.314,166.241c-0.861,8.236-1.691,16.501-2.489,24.798c-1.046,9.833-1.567,18.037-1.567,24.612
		c0,2.152,0.061,4.272,0.185,6.361c0.061,0.982-0.292,1.844-1.06,2.581c-0.77,0.737-1.646,1.105-2.628,1.105
		c-1.905,0-3.503-1.29-4.793-3.871c-3.934-7.682-8.819-19.728-14.657-36.136c-0.124-0.369-0.276-0.554-0.461-0.554
		c-0.431,0-0.707,0.431-0.83,1.291c-1.045,8.789-1.566,18.037-1.566,27.747c0,4.671,0.122,9.433,0.368,14.288
		c0.061,1.782-0.461,3.011-1.566,3.688c-0.431,0.43-0.892,0.646-1.383,0.646c-0.431,0-0.984-0.185-1.66-0.553
		c-0.922-0.431-1.506-0.708-1.751-0.83c-0.8-0.246-1.291-0.983-1.475-2.213c-0.063-0.983-0.124-1.997-0.185-3.042
		c-0.185-3.442-0.276-7.036-0.276-10.785c0-6.514,0.368-14.657,1.105-24.429c1.167-14.871,1.813-23.106,1.937-24.705
		c0.061-1.351,1.198-2.028,3.41-2.028c1.045-0.122,2.581,0.646,4.609,2.305c1.966,3.75,4.394,9.834,7.282,18.253
		c2.766,8.052,5.285,14.166,7.56,18.344c0.922-8.172,2.365-20.524,4.332-37.058c0.185-1.229,1.075-1.844,2.674-1.844
		c0.553,0,1.198,0.093,1.936,0.277c0.982,0.246,1.567,0.4,1.752,0.461C289.729,165.197,290.13,165.628,290.314,166.241z"/>
	<path d="M320.274,166.518c0,1.659-1.106,2.705-3.319,3.135c-2.889,0.553-4.671,1.198-5.347,1.936
		c-6.883,7.252-10.324,16.625-10.324,28.116c0,5.408,0.86,10.509,2.581,15.303c1.413,3.934,2.427,6.515,3.042,7.743
		c1.535,3.01,3.411,5.162,5.623,6.452c0.922,0.43,1.844,0.83,2.766,1.199c0.982,0.553,1.475,1.32,1.475,2.305
		c0,0.981-0.322,1.873-0.968,2.673c-0.645,0.798-1.336,1.106-2.074,0.922c-0.799-0.124-2.027-0.522-3.687-1.198
		c-2.95-1.722-6.146-5.379-9.588-10.97c-0.861-1.415-1.736-2.872-2.627-4.379c-0.892-1.505-1.553-2.935-1.981-4.286
		c-0.309-0.982-0.83-4.946-1.567-11.893c-0.246-2.15-0.369-4.24-0.369-6.268c0-10.878,3.165-20.127,9.495-27.748
		c3.688-4.425,7.527-6.637,11.523-6.637c1.72,0,3.286,0.522,4.701,1.567C320.058,164.798,320.274,165.474,320.274,166.518z"/>
	<path d="M350.232,202.193c-3.627,8.174-8.758,13.029-15.395,14.564c-0.8,0.185-1.6,0.276-2.397,0.276
		c-3.503,0-7.037-1.904-10.601-5.715c-2.397-2.581-3.596-5.931-3.596-10.048c0-4.548,1.352-9.434,4.057-14.657
		c1.166-2.213,2.581-4.117,4.24-5.716c1.904-1.904,3.718-2.857,5.438-2.857c0.982,0,1.904,0.368,2.766,1.106
		c0.86,0.737,3.165,1.721,6.914,2.949c2.95,0.984,5.038,2.644,6.269,4.979c2.15,4.117,3.227,7.65,3.227,10.601
		C351.154,199.335,350.846,200.842,350.232,202.193z M342.857,196.478c-0.431-4.485-1.629-7.158-3.595-8.02
		c-0.309-0.123-0.585-0.185-0.83-0.185c-0.737,0-1.659,0.615-2.766,1.844c-1.229,1.414-2.182,2.244-2.857,2.488
		c-0.431,0.185-1.046,0-1.844-0.553c-0.8-0.553-1.322-0.83-1.567-0.83c-0.185,0-0.338,0.063-0.461,0.185
		c-2.151,1.844-3.227,4.701-3.227,8.573c0,2.644,0.614,4.886,1.844,6.729c1.72,2.521,3.165,3.779,4.333,3.779
		c2.703,0,5.314-1.689,7.836-5.07C342.12,202.225,343.164,199.243,342.857,196.478z"/>
	<path d="M387.474,171.864c-0.431,4.303-1.66,10.048-3.688,17.238c-2.766,9.649-4.364,15.487-4.794,17.516
		c-1.353,6.207-3.934,11.861-7.743,16.961c-2.396,3.257-5.162,4.854-8.297,4.794c-2.766-0.063-4.825-1.813-6.176-5.255
		c-2.337-5.775-3.503-12.566-3.503-20.372c0-4.485,0.429-10.263,1.29-17.331c-0.062,0.615-0.092-1.29-0.092-5.715
		c0-3.81,1.475-5.716,4.425-5.716c0.613,0,1.274,0.17,1.981,0.508c0.706,0.338,1.397,0.691,2.074,1.06
		c0.061,3.135-0.031,7.743-0.276,13.827c-0.309,6.516-0.461,11.217-0.461,14.104c0,3.074,0.093,5.869,0.276,8.389
		c0.123,1.291,0.676,3.749,1.659,7.375c2.582-2.889,4.609-6.729,6.085-11.523c0.491-1.597,1.475-5.96,2.949-13.09
		c1.167-5.407,2.489-9.647,3.964-12.722c0.43-0.859,0.798-2.488,1.106-4.886c0.307-2.396,0.676-4.056,1.106-4.978
		c0.675-1.475,1.844-2.212,3.503-2.212C385.015,169.837,386.552,170.514,387.474,171.864z"/>
	<path d="M431.075,169.191c-2.396,4.486-5.808,12.875-10.232,25.166c-1.291,3.627-2.827,9.618-4.609,17.976
		c-1.721,7.99-3.381,14.042-4.978,18.16c-0.554,0.613-1.198,0.922-1.937,0.922c-0.861,0-1.967-0.461-3.318-1.383
		c-2.396-5.716-5.193-15.118-8.389-28.208c-3.012-12.475-6.023-21.97-9.034-28.484c0.798-1.536,1.476-2.305,2.028-2.305
		c0.491-0.307,0.982-0.461,1.475-0.461c0.982,0,2.704,0.922,5.163,2.766c2.212,5.039,4.332,11.216,6.36,18.528
		c1.598,6.331,3.227,12.629,4.886,18.897c2.272-7.497,4.547-15.025,6.821-22.585c2.704-8.48,5.469-15.793,8.297-21.939
		c0.922-1.598,2.519-2.12,4.793-1.567c0.245,0.063,0.554,0.293,0.922,0.691c0.369,0.4,0.83,0.615,1.383,0.646
		c0.554,0.032,0.83,0.477,0.83,1.337C431.536,167.963,431.382,168.577,431.075,169.191z"/>
	<path d="M464.537,176.013c-2.274,0.922-5.623,1.998-10.048,3.227c-4.425,1.23-7.775,2.305-10.048,3.227
		c-0.553,1.599-0.953,5.162-1.198,10.693c0.982,0.368,2.12,0.553,3.41,0.553c0.922,0,2.365-0.152,4.333-0.461
		c1.966-0.307,3.411-0.461,4.333-0.461c1.72,0,3.194,0.369,4.425,1.106c0.859,1.229,1.29,2.028,1.29,2.396
		c0,0.431-0.216,0.77-0.646,1.015c-0.123,0.062-0.553,0.492-1.29,1.29c-0.493,0.553-1.106,0.8-1.844,0.737
		c-1.291,0.309-3.657,0.493-7.099,0.554c-2.889,0.062-5.193,0.431-6.913,1.105c-1.168,4.549-1.752,8.145-1.752,10.786
		c0,1.783,0.245,3.196,0.737,4.24c2.889,2.028,7.896,2.89,15.026,2.581c0.491,0,1.014-0.23,1.567-0.691
		c0.553-0.461,1.014-0.691,1.383-0.691c1.72-0.369,2.857,0.922,3.41,3.872c0.185,0.983,0.015,1.89-0.507,2.719
		c-0.522,0.83-1.276,1.275-2.259,1.337c-7.437,0.245-13.889-0.339-19.358-1.751c-1.721-0.431-3.288-1.383-4.701-2.858
		c-1.414-1.475-2.212-3.134-2.396-4.978c-0.554-5.347-0.554-10.141,0-14.381c-1.722-1.167-2.489-2.305-2.305-3.41
		c0.061-0.554,0.537-1.061,1.429-1.521c0.891-0.461,1.397-0.937,1.521-1.429c0.122-0.491,0.368-3.411,0.737-8.758
		c-3.442-0.675-5.132-1.966-5.07-3.871c0.061-1.782,1.137-3.195,3.227-4.241c1.966-0.798,3.932-1.597,5.899-2.396
		c2.273-1.167,5.131-2.212,8.573-3.134c3.011-0.798,6.022-1.567,9.034-2.305c0.307-0.061,0.676-0.093,1.106-0.093
		c1.659,0,3.595,0.646,5.807,1.937c0.061,0.246,0.215,0.707,0.461,1.383c0.245,0.677,0.369,1.168,0.369,1.475
		C465.183,175.307,464.967,175.706,464.537,176.013z"/>
	<path d="M504.176,222.75c0.184,0.245,0.276,0.521,0.276,0.829c0,1.413-1.476,2.489-4.425,3.227
		c-3.259-2.521-7.314-6.391-12.168-11.615c-5.409-5.838-9.435-9.894-12.076-12.168c-0.185,1.599-0.523,5.777-1.015,12.537
		c-0.308,5.102-0.861,9.156-1.659,12.168c-0.124,0-0.507,0.152-1.152,0.461c-0.646,0.307-1.184,0.399-1.613,0.276
		c-2.705-0.614-4.056-2.488-4.056-5.623c0-0.922,0.122-2.15,0.368-3.688c0.245-1.781,0.399-2.888,0.461-3.318
		c0.245-3.563,0.399-7.804,0.461-12.722v-10.048c0-8.356,0.461-15.395,1.383-21.109c0.614-3.811,4.209-5.562,10.786-5.255
		c3.318,0.124,6.206,1.783,8.665,4.979c2.272,2.949,3.411,6.146,3.411,9.587c0,2.889-1.076,5.777-3.227,8.665
		c-1.844,2.581-4.118,4.609-6.822,6.084c-1.105,0.615-1.659,1.291-1.659,2.028c0,0.799,0.646,1.751,1.937,2.857
		c0.981,0.8,1.966,1.599,2.949,2.396c0.061,0.063,3.441,3.135,10.141,9.219C499.382,216.329,502.393,219.739,504.176,222.75z
		 M484.725,181.359c0.185-1.106,0.245-2.089,0.185-2.95c-0.185-1.29-0.724-2.457-1.613-3.503c-0.892-1.044-2.32-1.566-4.286-1.566
		c-1.476,0-2.397,0.461-2.766,1.383c-0.309,1.536-0.461,3.288-0.461,5.254c0,0.8,0.092,2.857,0.276,6.177
		c0.122,2.521,0.122,4.578,0,6.176C481.16,188.52,484.048,184.862,484.725,181.359z"/>
</g>
<g>
	<path d="M251.96,284.229c-0.863,3.58-3.051,6.83-6.565,9.748c-3.382,2.389-6.765,4.742-10.147,7.063
		c0.199,0.996,0.879,1.742,2.04,2.238c1.159,0.498,2.271,0.98,3.333,1.443c5.504,3.58,8.256,7.826,8.256,12.732
		c0,3.781-1.293,7.262-3.879,10.445c-1.99,2.453-4.941,4.875-8.854,7.262c-3.184,1.855-6.367,3.713-9.551,5.57
		c-0.795,0.463-1.658,0.697-2.586,0.697c-2.188,0-3.715-0.896-4.576-2.686c0.133-5.572,0.265-11.109,0.398-16.613
		c0.132-6.631,0.497-12.102,1.094-16.414c-1.393-0.928-2.089-1.988-2.089-3.184c0-0.596,0.249-1.143,0.746-1.641
		s1.177-1.045,2.04-1.641c0.795-10.08,0.96-19.365,0.496-27.854c-3.117-0.598-5.172-1.99-6.167-4.18
		c-0.067-0.264,0.05-0.662,0.349-1.193c0.299-0.529,0.447-0.961,0.447-1.293c1.525-1.127,3.216-1.691,5.073-1.691
		c1.326,0,4.377,0.434,9.151,1.293c2.453,0.398,5.007,1.295,7.66,2.688c7.162,3.715,11.373,7.328,12.634,10.842
		C252.124,280.383,252.358,282.504,251.96,284.229z M239.625,318.25c0.132-0.73,0.198-1.426,0.198-2.09
		c0-1.99-0.631-3.746-1.89-5.271c-3.382-1.658-5.538-2.488-6.466-2.488c-0.531,0-1.029,0.1-1.492,0.299
		c0.065,0.664,0.1,1.393,0.1,2.189c0,1.393-0.184,3.531-0.547,6.416c-0.365,2.885-0.547,5.057-0.547,6.516
		c0,2.123,0.264,4.043,0.795,5.77c0.796-0.93,2.039-1.908,3.73-2.936s2.867-1.939,3.531-2.734
		C238.231,322.527,239.093,320.637,239.625,318.25z M242.608,279.254c-0.332-2.453-2.321-4.342-5.968-5.67
		c-0.532-0.199-1.36-0.629-2.487-1.293c-0.795-0.529-1.459-0.795-1.989-0.795c-0.266,0-0.564,0.066-0.896,0.197
		c-0.066,1.129-0.1,2.322-0.1,3.582c0,1.725,0.133,4.643,0.398,8.754c0.199,3.779,0.264,6.732,0.199,8.854
		c0.463,0,1.159-0.348,2.088-1.045c0.929-0.695,1.459-1.076,1.592-1.145c1.99-0.928,3.746-2.486,5.273-4.674
		C242.243,283.83,242.873,281.576,242.608,279.254z"/>
	<path d="M267.278,277.166c0.132,1.924,0.199,3.914,0.199,5.969c0,4.51-0.465,11.307-1.393,20.393
		c-0.93,9.086-1.394,15.949-1.394,20.592c0,1.725,0.032,3.414,0.1,5.072c-0.597,1.855-1.89,2.752-3.88,2.686
		c-2.852-0.133-4.41-1.359-4.675-3.68c-0.267-2.32-0.397-4.775-0.397-7.361c0-4.51,0.547-11.242,1.641-20.193
		c1.094-8.953,1.642-15.65,1.642-20.096c0-1.723-0.067-3.414-0.199-5.072c0.662-1.26,1.79-1.891,3.382-1.891
		c1.26,0,2.52,0.365,3.781,1.094c0.264-0.197,0.463-0.297,0.596-0.297c0.199,0,0.299,0.332,0.299,0.994
		c-0.066,0.795-0.066,1.26,0,1.393C267.045,276.967,267.145,277.1,267.278,277.166z"/>
	<path d="M307.068,322.029c0.397,0.332,0.597,0.795,0.597,1.393c0,0.398-0.266,1.393-0.796,2.984c-0.266-0.064-0.497-0.1-0.696-0.1
		c-0.398,0-0.912,0.166-1.542,0.498c-0.631,0.332-1.111,0.496-1.442,0.496c-0.332,0-0.696-0.131-1.094-0.396
		c-4.444-2.785-11.341-6.965-20.691-12.535c0.199,2.455,0.363,5.969,0.498,10.545c0,0.531,0.064,1.328,0.198,2.387
		c0.132,1.061,0.199,1.824,0.199,2.289c0,1.592-0.696,2.686-2.089,3.283c-0.398,0.264-0.963,0.396-1.691,0.396
		c-0.796,0-1.293-0.232-1.492-0.695c-1.725-0.598-2.721-1.758-2.984-3.482c-0.796-4.775-1.193-10.377-1.193-16.811
		c0-2.32,0.064-5.785,0.199-10.396c0.131-4.607,0.198-8.072,0.198-10.395c0-7.029-0.464-13.131-1.393-18.305
		c-0.134-0.795,0.331-1.324,1.393-1.592c0.796-0.131,1.624-0.264,2.487-0.396c0.861,0.266,1.756,0.58,2.686,0.945
		c0.928,0.365,1.426,0.943,1.492,1.74c0.994,9.02,1.426,16.182,1.293,21.486c2.719-2.453,5.835-5.703,9.352-9.748
		c2.984-3.383,5.934-6.797,8.854-10.246c0.795-0.332,1.656-0.498,2.586-0.498c2.586,0,3.945,0.896,4.078,2.686
		c-1.857,4.113-5.506,8.988-10.942,14.623c-6.366,6.566-10.444,11.242-12.235,14.027c4.111,2.453,8.256,4.908,12.435,7.361
		C299.972,316.492,303.885,319.311,307.068,322.029z"/>
	<path d="M344.372,277.762c-2.455,0.996-6.068,2.156-10.844,3.482c-4.774,1.328-8.39,2.486-10.842,3.482
		c-0.598,1.725-1.029,5.57-1.293,11.539c1.06,0.396,2.287,0.596,3.68,0.596c0.995,0,2.553-0.164,4.676-0.496
		c2.121-0.332,3.681-0.498,4.676-0.498c1.855,0,3.447,0.398,4.773,1.193c0.93,1.328,1.395,2.189,1.395,2.586
		c0,0.465-0.234,0.83-0.697,1.096c-0.133,0.066-0.598,0.531-1.393,1.393c-0.531,0.596-1.193,0.861-1.99,0.795
		c-1.393,0.332-3.945,0.531-7.659,0.598c-3.118,0.066-5.604,0.465-7.46,1.193c-1.262,4.908-1.891,8.787-1.891,11.639
		c0,1.924,0.264,3.449,0.796,4.576c3.116,2.188,8.521,3.117,16.214,2.785c0.531,0,1.096-0.248,1.691-0.746
		c0.598-0.498,1.094-0.746,1.492-0.746c1.855-0.398,3.084,0.994,3.682,4.178c0.197,1.063,0.016,2.039-0.549,2.934
		c-0.563,0.896-1.377,1.377-2.436,1.443c-8.025,0.264-14.988-0.365-20.891-1.891c-1.857-0.465-3.549-1.492-5.073-3.084
		c-1.526-1.592-2.388-3.381-2.587-5.371c-0.597-5.77-0.597-10.941,0-15.518c-1.857-1.26-2.686-2.488-2.486-3.682
		c0.064-0.596,0.58-1.145,1.541-1.641c0.961-0.498,1.508-1.01,1.643-1.543c0.131-0.529,0.397-3.68,0.795-9.449
		c-3.715-0.729-5.537-2.121-5.471-4.178c0.064-1.924,1.227-3.447,3.481-4.576c2.122-0.861,4.243-1.725,6.366-2.586
		c2.453-1.26,5.537-2.389,9.252-3.383c3.248-0.861,6.498-1.691,9.748-2.486c0.332-0.066,0.729-0.1,1.193-0.1
		c1.791,0,3.881,0.695,6.268,2.088c0.066,0.266,0.232,0.764,0.498,1.492c0.264,0.73,0.396,1.262,0.396,1.592
		C345.067,277,344.835,277.432,344.372,277.762z"/>
	<path d="M396.697,265.527c-0.598,2.387-1.726,3.779-3.383,4.178c-4.312,1.061-11.805,2.453-22.481,4.178
		c-1.327,16.514-1.989,30.275-1.989,41.283c0,4.178,0.065,8.291,0.198,12.334c0.065,1.26,0,2.221-0.198,2.885
		c-0.333,1.061-0.995,1.559-1.99,1.492c-1.924-0.066-3.516-0.879-4.774-2.438c-1.261-1.559-1.957-3.297-2.089-5.223
		c-0.134-2.451-0.199-5.039-0.199-7.758c0-4.377,0.299-11.307,0.896-20.791c0.597-9.086,0.861-16.016,0.796-20.791
		c-1.791-0.131-4.277,0.035-7.461,0.498c-3.648,0.531-6.168,0.795-7.561,0.795c-3.248,0-5.901-0.869-7.958-2.607
		c-0.796-1.738-1.193-2.641-1.193-2.707c0-0.469,0.233-0.971,0.696-1.506c2.123-0.734,6.466-1.402,13.031-2.006
		c5.77-0.602,10.08-1.672,12.932-3.209c2.321,0.795,4.975,1.193,7.958,1.193c2.984,0,5.835-0.363,8.556-1.094
		c0.796-0.066,2.817-0.531,6.067-1.395c2.388-0.596,4.378-0.795,5.969-0.596c1.194,0,1.691,0.498,1.492,1.492
		C395.802,263.736,396.697,264.332,396.697,265.527z"/>
	<path d="M419.277,322.727c0.398,1.061,0.597,1.988,0.597,2.785c0,1.326-0.564,2.486-1.69,3.48
		c-1.129,0.996-1.891,1.459-2.288,1.393c-3.25-0.596-5.307-3.215-6.168-7.857c-0.93-5.039-2.023-9.252-3.282-12.635
		c-2.256,0.199-4.511,0.398-6.765,0.598c-2.587,0.332-4.61,1.129-6.068,2.387c-0.73,2.057-1.691,5.705-2.885,10.943
		c-1.128,4.84-2.223,8.52-3.282,11.041c-0.532,1.193-1.659,1.525-3.383,0.996c-2.188-0.73-3.35-1.727-3.481-2.984
		c-0.199-2.521,0.53-5.902,2.188-10.146c1.989-4.842,3.084-8.291,3.283-10.346c0.064-0.598-0.366-1.26-1.294-1.99
		c-0.93-0.729-1.393-1.293-1.393-1.691c0-0.33,0.149-0.68,0.448-1.045c0.298-0.363,0.994-0.662,2.089-0.895
		c1.094-0.232,1.706-0.58,1.84-1.045c1.194-3.314,3.084-9.482,5.67-18.502c2.188-7.824,4.145-13.828,5.869-18.006
		c0.398-0.928,1.227-1.393,2.487-1.393c0.928,0,1.757,0.299,2.487,0.895c1.855,1.592,3.049,3.98,3.581,7.164
		c0.397,2.719,0.762,5.438,1.094,8.156C412.247,299.682,415.696,312.578,419.277,322.727z M404.754,303.727
		c-0.199-2.453-0.631-5.207-1.293-8.258c-0.664-2.65-1.294-5.305-1.891-7.957c-1.989,5.504-3.715,11.008-5.173,16.512
		C397.458,303.824,400.243,303.727,404.754,303.727z"/>
	<path d="M458.769,302.631c-1.791,4.443-2.952,9.916-3.481,16.414c-0.333,5.637-0.632,11.273-0.896,16.91
		c-0.134,1.658-1.228,2.488-3.283,2.488c-0.597,0-1.161-0.1-1.69-0.299c-2.853-1.193-4.277-3.416-4.277-6.664
		c0-0.93,0.132-2.338,0.397-4.229c0.265-1.891,0.397-3.266,0.397-4.129c0.265-1.922,0.598-4.807,0.995-8.654
		c-4.576,4.313-9.749,7.527-15.519,9.65c-0.796,0.266-1.591,0.396-2.387,0.396c-3.052,0-5.869-1.723-8.456-5.172
		c-1.458-1.924-2.188-4.311-2.188-7.162c0-2.52,0.564-5.473,1.691-8.854c3.515-10.744,9.117-21.254,16.812-31.535
		c3.846-5.105,7.262-7.658,10.246-7.658c2.651,0,4.144,0.994,4.477,2.984c0.264,1.658-0.299,2.852-1.691,3.58
		c-2.322,1.262-3.549,1.957-3.681,2.09c-5.57,6.166-10.678,14.125-15.319,23.873c-2.853,6.035-4.277,11.441-4.277,16.215
		c0,0.863,0.032,1.727,0.1,2.586c0.132,0.068,0.331,0.383,0.597,0.945c0.265,0.564,0.63,0.746,1.094,0.547
		c4.377-1.723,10.976-6.266,19.796-13.627c0.662-0.531,1.426-2.055,2.288-4.576c0.662-1.855,1.856-2.785,3.581-2.785
		c-0.531,0,0-0.066,1.592-0.199c0.796-0.133,1.326,0,1.592,0.398c1.259,1.857,1.89,3.381,1.89,4.576
		C459.166,301.338,459.033,301.969,458.769,302.631z"/>
</g>
</svg>
