<?xml version="1.0" encoding="UTF-8" standalone="no"?>
<svg
   xmlns:dc="http://purl.org/dc/elements/1.1/"
   xmlns:cc="http://creativecommons.org/ns#"
   xmlns:rdf="http://www.w3.org/1999/02/22-rdf-syntax-ns#"
   xmlns:svg="http://www.w3.org/2000/svg"
   xmlns="http://www.w3.org/2000/svg"
   xmlns:sodipodi="http://sodipodi.sourceforge.net/DTD/sodipodi-0.dtd"
   xmlns:inkscape="http://www.inkscape.org/namespaces/inkscape"
   inkscape:version="1.0 (4035a4f, 2020-05-01)"
   sodipodi:docname="ViennaIcon.svg"
   xml:space="preserve"
   enable-background="new 0 0 646 449"
   viewBox="0 0 437.2511 283.22598"
   height="283.22598"
   width="437.2511"
   y="0px"
   x="0px"
   id="Layer_1"
   version="1.1"><metadata
   id="metadata262"><rdf:RDF><cc:Work
       rdf:about=""><dc:format>image/svg+xml</dc:format><dc:type
         rdf:resource="http://purl.org/dc/dcmitype/StillImage" /></cc:Work></rdf:RDF></metadata><defs
   id="defs260" /><sodipodi:namedview
   inkscape:current-layer="Layer_1"
   inkscape:window-maximized="1"
   inkscape:window-y="23"
   inkscape:window-x="0"
   inkscape:cy="149.03423"
   inkscape:cx="203.66609"
   inkscape:zoom="1.628483"
   showgrid="false"
   id="namedview258"
   inkscape:window-height="933"
   inkscape:window-width="1680"
   inkscape:pageshadow="2"
   inkscape:pageopacity="0"
   guidetolerance="10"
   gridtolerance="10"
   objecttolerance="10"
   borderopacity="1"
   bordercolor="#666666"
   pagecolor="#ffffff" />
<g
   transform="translate(-119.33391,-75.465773)"
   id="g225">
	<path
   id="path221"
   d="m 556.371,271.545 c -0.174,-16.509 -0.812,-33.009 -1.442,-49.505 -0.604,-15.744 -0.073,-31.475 0.222,-47.219 0.283,-15.145 0.015,-30.21 -1.612,-45.277 -1.019,-9.421 -2.869,-19.451 -8.261,-27.447 -2.537,-3.762 -5.848,-6.271 -9.604,-7.939 -5.593,-3.61 -13.037,-5.111 -19.144,-6.127 -21.425,-3.567 -43.434,-0.63 -65.009,-2.46 -31.962,-2.712 -64.045,-3.525 -96.004,-6.26 -29.435,-2.519 -58.977,-4.025 -88.522,-3.828 -14.449,0.097 -28.893,0.702 -43.293,1.871 -11.939,0.97 -24.063,1.946 -35.457,5.86 -3.611,1.24 -6.875,2.847 -9.852,4.74 -5.789,1.107 -11.247,3.142 -15.907,6.816 -14.188,11.187 -11.68,32.167 -11.801,49.617 -1.071,5.57 -2.1,11.146 -3.255,16.671 -0.95,4.543 -2.336,8.507 -4.238,12.296 -2.705,4.252 -6.043,8.166 -9.814,11.896 -6.512,6.439 -9.626,13.737 -11.188,22.462 -0.314,0.828 -0.612,1.67 -0.875,2.544 -3.82,12.707 -1.345,27.422 0.991,40.168 1.959,10.689 7.186,20.17 13.779,28.668 6.423,8.279 13.894,15.658 19.885,24.286 0.182,0.263 0.352,0.532 0.528,0.798 2.297,8.706 2.213,17.713 3.409,26.899 1.216,9.347 6.129,18.924 16.146,20.964 4.954,1.01 9.942,0.695 14.95,0.326 7.849,-0.579 15.658,-0.199 23.517,0.04 32.945,1.003 65.889,2.079 98.813,3.642 32.2,1.527 64.013,3.558 96.27,2.196 31.985,-1.349 63.924,-4.099 95.964,-3.444 14.984,0.308 31.571,0.453 41.521,-12.721 5.229,-6.92 7.127,-15.938 8.163,-24.357 1.865,-15.181 1.281,-30.914 1.12,-46.176 z M 196.294,82.268 c 14.229,-3.476 29.701,-3.838 44.268,-4.567 15.105,-0.755 30.24,-0.844 45.359,-0.581 29.969,0.521 59.673,3.608 89.556,5.399 16.35,0.979 32.709,1.744 49.058,2.735 14.013,0.85 28.088,2.805 42.124,2.841 18.22,0.047 38.698,-2.379 56.538,3.18 -6.521,-0.544 -13.32,-0.097 -19.331,-0.004 -65.257,-0.038 -130.491,-1.897 -195.73,-3.188 -32.928,-0.651 -65.859,-1.123 -98.793,-1.151 -8.388,-0.007 -17.861,-0.688 -26.822,0.383 4.316,-2.256 9,-3.881 13.773,-5.047 z m 143.797,8.657 c -24.731,0.889 -49.436,2.301 -74.146,-0.113 -5.139,-0.502 -10.331,-1.004 -15.549,-1.425 13.274,0.137 26.549,0.31 39.823,0.542 16.625,0.291 33.249,0.636 49.872,0.996 z M 176.759,90.901 c 6.826,-1.646 14.432,-1.847 21.594,-1.834 4.146,0.007 8.291,0.029 12.437,0.044 -7.431,0.753 -14.783,2.102 -21.981,4.301 -9.688,2.96 -18.421,8.229 -24.862,16.109 -1.044,1.277 -1.978,2.598 -2.817,3.957 2.119,-5.742 4.922,-11.205 8.776,-16.019 2.02,-2.523 4.332,-4.69 6.853,-6.558 z m -20.88,19.454 c 2.607,-10.256 9.086,-15.59 17.108,-18.356 -8.228,7.189 -13.58,17.117 -16.833,28.38 -0.8,2.768 -1.509,5.564 -2.176,8.372 0.041,-6.184 0.361,-12.339 1.901,-18.396 z m -11.003,65.553 c -1.362,2.341 -2.939,4.627 -4.799,6.855 -0.252,0.303 -0.507,0.599 -0.761,0.898 1.999,-2.508 3.915,-5.066 5.56,-7.753 z m 1.076,110.617 c -7.238,-8.295 -13.99,-16.782 -18.012,-27.149 -2.063,-5.319 -3.501,-11.221 -4.395,-17.267 0.184,0.664 0.377,1.326 0.582,1.984 2.805,9.033 7.781,17.217 12.937,25.072 5.427,8.271 11.013,16.393 15.567,25.184 -2.18,-2.651 -4.431,-5.247 -6.679,-7.824 z m 231.007,70.279 c -16.928,-0.037 -33.798,-1.439 -50.693,-2.318 -16.555,-0.861 -33.117,-1.566 -49.682,-2.198 -30.216,-1.153 -60.624,-3.107 -90.825,-1.76 -6.813,0.305 -13.049,-0.949 -17.638,-6.353 -3.956,-4.656 -4.995,-10.772 -5.651,-16.648 -0.604,-5.402 -0.914,-10.563 -1.585,-15.618 3.503,6.982 6.474,14.229 11.948,20.028 12.203,12.934 32.391,9.712 48.348,10.197 15.561,0.477 31.11,2.638 46.635,3.772 16.408,1.199 32.717,1.196 49.15,1.422 32.623,0.446 65.116,3.897 97.672,5.713 10.829,0.604 21.671,0.986 32.515,1.044 -23.387,1.243 -46.758,2.769 -70.194,2.719 z m 161.954,-9.899 c -6.612,4.895 -15.432,5.764 -23.386,5.925 -7.026,0.143 -14.051,0.046 -21.078,-0.027 14.815,-0.003 32.584,0.803 45.865,-7.017 -0.452,0.386 -0.918,0.761 -1.401,1.119 z m 1.314,-2.903 c -7.617,5.718 -18.818,6.425 -27.962,6.946 -9.023,0.514 -18.068,0.212 -27.102,0.403 -13.373,0.283 -26.664,1.333 -40.065,1.199 -32.624,-0.324 -65.121,-3.754 -97.671,-5.631 -16.305,-0.938 -32.554,-0.993 -48.873,-1.142 -17.022,-0.155 -34.006,-1.69 -50.951,-3.193 -12.521,-1.11 -24.905,-2.105 -37.479,-2.108 -9.02,-0.002 -18.346,0.068 -26.679,-3.846 -10.278,-4.827 -14.612,-15.301 -19.223,-24.908 -1.454,-3.031 -3.176,-5.897 -5.043,-8.67 -0.772,-2.884 -1.79,-5.761 -3.199,-8.654 -8.946,-18.371 -23.873,-33.5 -29.655,-53.412 -3.131,-10.783 -3.137,-22.498 -1.205,-33.565 2.75,-7.287 7.518,-13.467 13.076,-19.549 8.191,-8.962 13.809,-17.612 16.154,-29.717 2.442,-12.608 1.583,-25.612 6.056,-37.828 4.735,-12.935 16.036,-21.441 28.753,-25.6 26.501,-8.667 55.738,-4.051 82.783,-1.716 30.506,2.634 61.289,-1.051 91.843,-1.113 0.35,0 0.832,-0.188 1.23,-0.43 40.572,0.886 81.146,1.73 121.729,1.938 4.95,0.025 9.901,0.032 14.852,0.037 0.094,0.012 0.19,0.021 0.298,0.021 0.553,-0.001 1.11,-0.007 1.674,-0.016 0.369,0 0.737,0.003 1.106,0.003 0.113,0 0.22,-0.011 0.322,-0.03 9.803,-0.223 20.904,-1.086 29.505,3.167 14.473,11.269 9.602,37.62 7.843,53.33 -1.19,10.649 -1.919,20.923 -1.39,31.65 0.763,15.467 3.049,30.821 4.439,46.237 1.337,14.789 0.479,29.526 1.259,44.318 0.744,14.129 2.477,28.188 2.46,42.352 -0.01,10.197 0.042,22.826 -8.885,29.527 z m 11.445,-21.655 c 0.011,-0.133 0.022,-0.266 0.033,-0.397 1.086,-13.467 -0.426,-27.092 -1.466,-40.514 -1.115,-14.408 -0.454,-28.744 -1.145,-43.151 -0.743,-15.525 -3.02,-30.937 -4.436,-46.405 -1.149,-12.546 -1.351,-24.832 0.013,-37.347 1.136,-10.438 2.463,-20.868 2.404,-31.387 -0.028,-5.159 -0.449,-10.621 -1.986,-15.651 4.318,8.513 5.193,19.004 6.119,28.194 1.633,16.207 1.166,32.581 0.802,48.837 -0.728,32.409 1.433,64.722 1.48,97.125 0.022,13.453 0.398,27.358 -1.818,40.696 z" />
	<path
   id="path223"
   d="m 156.361,203.671 c -1.79,-4.047 -6.104,-6.389 -10.126,-4.859 -4.098,1.557 -5.279,8.261 -5.954,12.175 -1.633,9.553 -1.82,22.332 5.703,29.103 4.784,4.303 8.052,1.693 10.249,-2.917 0.906,0.765 1.789,0.647 1.83,-1.559 0.026,-1.329 0.09,-2.683 0.17,-4.05 1.163,-4.275 1.763,-8.688 2.011,-10.828 0.148,-1.265 -0.519,-2.854 -1.337,-3.789 -0.09,-4.61 -0.706,-9.122 -2.546,-13.276 z m -1.95,25.611 c -1.413,4.188 -3.831,7.131 -8.161,4.43 -5.218,-3.252 -2.902,-16.047 -1.878,-21.148 0.739,-3.691 2.271,-7.751 6.384,-7.315 4.487,0.474 4.116,6.708 4.216,10.274 0.132,4.605 -0.308,9.175 -0.561,13.759 z" />
</g>
<g
   transform="translate(-119.33391,-75.465773)"
   id="g239">
	<path
   id="path227"
   d="m 273.439,135.89 c -2.832,5.301 -6.861,15.211 -12.089,29.731 -1.525,4.285 -3.341,11.364 -5.445,21.237 -2.034,9.439 -3.994,16.59 -5.881,21.453 -0.654,0.727 -1.416,1.09 -2.287,1.09 -1.018,0 -2.325,-0.545 -3.921,-1.633 -2.832,-6.752 -6.137,-17.861 -9.91,-33.326 -3.559,-14.738 -7.117,-25.956 -10.674,-33.652 0.943,-1.814 1.743,-2.723 2.396,-2.723 0.58,-0.362 1.16,-0.544 1.742,-0.544 1.161,0 3.194,1.089 6.099,3.267 2.614,5.954 5.119,13.251 7.515,21.89 1.888,7.479 3.813,14.92 5.772,22.326 2.686,-8.857 5.372,-17.752 8.06,-26.682 3.193,-10.02 6.461,-18.659 9.801,-25.92 1.09,-1.887 2.977,-2.505 5.663,-1.852 0.29,0.073 0.654,0.346 1.09,0.817 0.436,0.473 0.979,0.727 1.633,0.762 0.654,0.038 0.98,0.563 0.98,1.579 0,0.728 -0.181,1.455 -0.544,2.18 z" />
	<path
   id="path229"
   d="m 287.924,143.295 c 0.145,2.106 0.218,4.285 0.218,6.534 0,4.938 -0.509,12.38 -1.525,22.326 -1.018,9.948 -1.524,17.462 -1.524,22.544 0,1.889 0.036,3.739 0.109,5.554 -0.653,2.032 -2.069,3.012 -4.248,2.94 -3.122,-0.146 -4.829,-1.489 -5.118,-4.029 -0.291,-2.541 -0.436,-5.228 -0.436,-8.06 0,-4.937 0.599,-12.306 1.797,-22.108 1.198,-9.802 1.797,-17.134 1.797,-22 0,-1.887 -0.073,-3.738 -0.218,-5.554 0.725,-1.378 1.96,-2.069 3.703,-2.069 1.378,0 2.758,0.4 4.138,1.198 0.29,-0.218 0.508,-0.327 0.654,-0.327 0.218,0 0.326,0.364 0.326,1.089 -0.073,0.872 -0.073,1.38 0,1.525 0.071,0.22 0.18,0.366 0.327,0.437 z" />
	<path
   id="path231"
   d="m 331.484,143.949 c -2.687,1.089 -6.643,2.36 -11.869,3.812 -5.229,1.453 -9.187,2.723 -11.871,3.813 -0.653,1.889 -1.127,6.099 -1.416,12.633 1.161,0.436 2.505,0.653 4.029,0.653 1.09,0 2.795,-0.18 5.119,-0.544 2.322,-0.362 4.029,-0.544 5.118,-0.544 2.032,0 3.774,0.436 5.229,1.307 1.017,1.453 1.525,2.396 1.525,2.832 0,0.509 -0.257,0.909 -0.764,1.198 -0.146,0.073 -0.652,0.582 -1.523,1.524 -0.582,0.654 -1.308,0.945 -2.18,0.872 -1.524,0.364 -4.32,0.582 -8.386,0.653 -3.413,0.073 -6.136,0.509 -8.168,1.307 -1.38,5.374 -2.069,9.622 -2.069,12.742 0,2.107 0.29,3.776 0.871,5.01 3.412,2.396 9.329,3.414 17.752,3.049 0.581,0 1.198,-0.272 1.852,-0.816 0.654,-0.545 1.199,-0.817 1.635,-0.817 2.031,-0.436 3.376,1.089 4.029,4.574 0.218,1.162 0.018,2.232 -0.6,3.212 -0.618,0.98 -1.508,1.506 -2.668,1.579 -8.786,0.29 -16.409,-0.399 -22.871,-2.069 -2.033,-0.508 -3.885,-1.633 -5.554,-3.376 -1.671,-1.742 -2.614,-3.703 -2.832,-5.881 -0.653,-6.316 -0.653,-11.98 0,-16.989 -2.033,-1.378 -2.94,-2.723 -2.723,-4.03 0.071,-0.653 0.635,-1.252 1.688,-1.797 1.052,-0.544 1.65,-1.106 1.797,-1.688 0.146,-0.581 0.437,-4.03 0.871,-10.346 -4.067,-0.798 -6.063,-2.323 -5.99,-4.574 0.072,-2.105 1.343,-3.774 3.813,-5.01 2.322,-0.943 4.646,-1.887 6.97,-2.832 2.759,-1.378 6.17,-2.614 10.237,-3.703 3.485,-0.943 7.006,-1.852 10.563,-2.723 0.363,-0.072 0.798,-0.109 1.308,-0.109 1.96,0 4.247,0.763 6.859,2.287 0.072,0.291 0.254,0.836 0.545,1.634 0.289,0.8 0.437,1.38 0.437,1.743 10e-4,0.58 -0.254,1.051 -0.763,1.414 z" />
	<path
   id="path233"
   d="m 380.059,132.405 c -1.018,9.729 -1.998,19.494 -2.94,29.296 -1.234,11.617 -1.853,21.31 -1.853,29.078 0,2.542 0.072,5.047 0.219,7.515 0.072,1.16 -0.346,2.178 -1.252,3.049 -0.907,0.871 -1.942,1.307 -3.104,1.307 -2.252,0 -4.139,-1.524 -5.664,-4.574 -4.646,-9.075 -10.42,-23.306 -17.316,-42.691 -0.146,-0.436 -0.326,-0.654 -0.545,-0.654 -0.509,0 -0.834,0.509 -0.979,1.525 -1.234,10.384 -1.852,21.31 -1.852,32.781 0,5.519 0.145,11.145 0.436,16.881 0.07,2.104 -0.545,3.557 -1.852,4.355 -0.51,0.508 -1.054,0.762 -1.635,0.762 -0.509,0 -1.162,-0.217 -1.96,-0.652 -1.089,-0.51 -1.78,-0.836 -2.069,-0.98 -0.943,-0.291 -1.523,-1.162 -1.741,-2.613 -0.073,-1.162 -0.146,-2.361 -0.218,-3.594 -0.219,-4.066 -0.327,-8.313 -0.327,-12.742 0,-7.695 0.436,-17.316 1.307,-28.86 1.379,-17.57 2.142,-27.298 2.287,-29.187 0.071,-1.596 1.416,-2.396 4.03,-2.396 1.232,-0.145 3.049,0.762 5.445,2.723 2.321,4.429 5.188,11.617 8.604,21.563 3.268,9.512 6.243,16.736 8.931,21.672 1.089,-9.655 2.793,-24.249 5.119,-43.78 0.218,-1.452 1.271,-2.178 3.158,-2.178 0.651,0 1.416,0.109 2.287,0.327 1.159,0.291 1.852,0.473 2.067,0.544 0.725,0.289 1.198,0.798 1.417,1.523 z" />
	<path
   id="path235"
   d="m 431.788,132.405 c -1.019,9.729 -1.997,19.494 -2.94,29.296 -1.234,11.617 -1.852,21.31 -1.852,29.078 0,2.542 0.072,5.047 0.219,7.515 0.071,1.16 -0.346,2.178 -1.253,3.049 -0.908,0.871 -1.942,1.307 -3.104,1.307 -2.253,0 -4.14,-1.524 -5.663,-4.574 -4.647,-9.075 -10.42,-23.306 -17.316,-42.691 -0.146,-0.436 -0.327,-0.654 -0.545,-0.654 -0.509,0 -0.835,0.509 -0.979,1.525 -1.236,10.384 -1.853,21.31 -1.853,32.781 0,5.519 0.146,11.145 0.437,16.881 0.07,2.104 -0.546,3.557 -1.853,4.355 -0.509,0.508 -1.054,0.762 -1.634,0.762 -0.51,0 -1.162,-0.217 -1.96,-0.652 -1.091,-0.51 -1.78,-0.836 -2.069,-0.98 -0.943,-0.291 -1.523,-1.162 -1.742,-2.613 -0.072,-1.162 -0.146,-2.361 -0.219,-3.594 -0.218,-4.066 -0.326,-8.313 -0.326,-12.742 0,-7.695 0.437,-17.316 1.307,-28.86 1.38,-17.57 2.142,-27.298 2.287,-29.187 0.071,-1.596 1.416,-2.396 4.029,-2.396 1.234,-0.145 3.05,0.762 5.445,2.723 2.323,4.429 5.189,11.617 8.604,21.563 3.268,9.512 6.243,16.736 8.931,21.672 1.089,-9.655 2.794,-24.249 5.119,-43.78 0.218,-1.452 1.27,-2.178 3.157,-2.178 0.653,0 1.416,0.109 2.287,0.327 1.16,0.291 1.853,0.473 2.069,0.544 0.727,0.289 1.199,0.798 1.417,1.523 z" />
	<path
   id="path237"
   d="m 476.657,193.175 c 0.436,1.162 0.653,2.178 0.653,3.049 0,1.453 -0.618,2.722 -1.853,3.812 -1.235,1.089 -2.069,1.596 -2.505,1.524 -3.559,-0.653 -5.811,-3.521 -6.752,-8.604 -1.019,-5.517 -2.216,-10.128 -3.595,-13.831 -2.47,0.218 -4.938,0.436 -7.405,0.653 -2.832,0.364 -5.047,1.235 -6.645,2.614 -0.8,2.251 -1.852,6.245 -3.157,11.979 -1.235,5.299 -2.435,9.328 -3.595,12.089 -0.582,1.307 -1.814,1.668 -3.703,1.088 -2.396,-0.799 -3.666,-1.889 -3.812,-3.268 -0.218,-2.759 0.58,-6.46 2.396,-11.107 2.18,-5.299 3.377,-9.075 3.596,-11.326 0.07,-0.654 -0.4,-1.378 -1.416,-2.178 -1.019,-0.798 -1.524,-1.416 -1.524,-1.852 0,-0.362 0.163,-0.744 0.489,-1.144 0.327,-0.398 1.09,-0.725 2.287,-0.98 1.198,-0.253 1.869,-0.635 2.015,-1.144 1.309,-3.63 3.377,-10.382 6.208,-20.257 2.396,-8.566 4.537,-15.138 6.426,-19.712 0.437,-1.016 1.344,-1.525 2.724,-1.525 1.016,0 1.923,0.327 2.723,0.98 2.032,1.743 3.339,4.356 3.921,7.841 0.437,2.978 0.834,5.955 1.197,8.931 3.63,17.139 7.406,31.259 11.327,42.368 z m -15.9,-20.801 c -0.218,-2.685 -0.69,-5.699 -1.416,-9.039 -0.727,-2.903 -1.416,-5.808 -2.069,-8.713 -2.179,6.027 -4.066,12.053 -5.662,18.079 1.16,-0.219 4.208,-0.327 9.147,-0.327 z" />
</g>
<g
   transform="translate(-119.33391,-75.465773)"
   id="g255">
	<path
   id="path241"
   d="m 275.729,255.579 c -0.862,3.582 -3.052,6.832 -6.565,9.75 -3.383,2.387 -6.765,4.741 -10.146,7.063 0.199,0.993 0.878,1.739 2.039,2.237 1.16,0.496 2.271,0.979 3.332,1.44 5.504,3.582 8.257,7.826 8.257,12.734 0,3.779 -1.293,7.262 -3.88,10.443 -1.989,2.453 -4.941,4.875 -8.854,7.264 -3.183,1.855 -6.366,3.713 -9.549,5.57 -0.797,0.463 -1.658,0.695 -2.587,0.695 -2.188,0 -3.715,-0.896 -4.575,-2.687 0.131,-5.569 0.264,-11.108 0.397,-16.612 0.132,-6.631 0.497,-12.103 1.095,-16.412 -1.394,-0.928 -2.09,-1.99 -2.09,-3.185 0,-0.598 0.249,-1.146 0.746,-1.643 0.498,-0.496 1.177,-1.044 2.039,-1.642 0.797,-10.08 0.961,-19.363 0.498,-27.854 -3.118,-0.596 -5.173,-1.99 -6.168,-4.178 -0.066,-0.265 0.05,-0.662 0.348,-1.193 0.299,-0.531 0.448,-0.961 0.448,-1.293 1.524,-1.127 3.216,-1.691 5.073,-1.691 1.326,0 4.377,0.433 9.152,1.293 2.452,0.398 5.006,1.293 7.659,2.687 7.163,3.715 11.373,7.328 12.634,10.844 0.862,2.525 1.094,4.646 0.697,6.37 z m -12.335,34.023 c 0.132,-0.729 0.199,-1.427 0.199,-2.088 0,-1.99 -0.631,-3.746 -1.891,-5.273 -3.383,-1.656 -5.538,-2.486 -6.466,-2.486 -0.532,0 -1.028,0.1 -1.492,0.299 0.065,0.662 0.1,1.393 0.1,2.188 0,1.393 -0.184,3.53 -0.548,6.416 -0.365,2.885 -0.547,5.059 -0.547,6.516 0,2.123 0.265,4.045 0.796,5.771 0.796,-0.93 2.04,-1.906 3.73,-2.935 1.691,-1.026 2.868,-1.938 3.532,-2.735 1.194,-1.397 2.055,-3.289 2.587,-5.673 z m 2.984,-38.997 c -0.333,-2.453 -2.322,-4.344 -5.969,-5.67 -0.531,-0.199 -1.36,-0.631 -2.487,-1.293 -0.796,-0.531 -1.46,-0.797 -1.989,-0.797 -0.266,0 -0.564,0.066 -0.896,0.199 -0.067,1.129 -0.099,2.322 -0.099,3.58 0,1.727 0.131,4.645 0.397,8.754 0.198,3.781 0.265,6.732 0.198,8.854 0.464,0 1.16,-0.348 2.09,-1.043 0.928,-0.696 1.457,-1.078 1.592,-1.145 1.988,-0.928 3.746,-2.486 5.271,-4.676 1.527,-2.184 2.156,-4.438 1.892,-6.763 z" />
	<path
   id="path243"
   d="m 291.046,248.518 c 0.133,1.924 0.199,3.914 0.199,5.969 0,4.512 -0.465,11.309 -1.393,20.393 -0.93,9.086 -1.393,15.951 -1.393,20.592 0,1.725 0.033,3.414 0.1,5.074 -0.597,1.855 -1.891,2.75 -3.879,2.686 -2.853,-0.135 -4.412,-1.36 -4.676,-3.682 -0.266,-2.32 -0.398,-4.773 -0.398,-7.361 0,-4.508 0.547,-11.239 1.642,-20.192 1.095,-8.953 1.642,-15.649 1.642,-20.095 0,-1.725 -0.066,-3.416 -0.199,-5.073 0.662,-1.259 1.791,-1.89 3.383,-1.89 1.258,0 2.52,0.365 3.779,1.095 0.265,-0.199 0.463,-0.3 0.598,-0.3 0.198,0 0.298,0.332 0.298,0.994 -0.067,0.797 -0.067,1.263 0,1.394 0.064,0.194 0.164,0.33 0.297,0.396 z" />
	<path
   id="path245"
   d="m 330.837,293.38 c 0.397,0.334 0.597,0.797 0.597,1.396 0,0.396 -0.266,1.393 -0.795,2.981 -0.267,-0.063 -0.498,-0.098 -0.697,-0.098 -0.396,0 -0.911,0.166 -1.541,0.495 -0.631,0.335 -1.111,0.498 -1.442,0.498 -0.333,0 -0.696,-0.133 -1.095,-0.397 -4.443,-2.785 -11.34,-6.963 -20.69,-12.532 0.198,2.452 0.364,5.969 0.497,10.545 0,0.53 0.065,1.325 0.199,2.387 0.133,1.061 0.199,1.822 0.199,2.287 0,1.592 -0.697,2.686 -2.09,3.283 -0.397,0.264 -0.961,0.397 -1.69,0.397 -0.796,0 -1.294,-0.233 -1.492,-0.697 -1.726,-0.596 -2.72,-1.758 -2.984,-3.479 -0.796,-4.775 -1.194,-10.379 -1.194,-16.813 0,-2.319 0.066,-5.784 0.199,-10.396 0.133,-4.609 0.199,-8.073 0.199,-10.396 0,-7.026 -0.465,-13.131 -1.393,-18.303 -0.134,-0.797 0.331,-1.326 1.393,-1.593 0.796,-0.133 1.625,-0.264 2.486,-0.397 0.861,0.267 1.758,0.582 2.687,0.945 0.929,0.364 1.425,0.944 1.492,1.739 0.995,9.021 1.425,16.185 1.294,21.488 2.718,-2.453 5.834,-5.703 9.35,-9.75 2.984,-3.381 5.936,-6.797 8.854,-10.246 0.797,-0.33 1.657,-0.496 2.586,-0.496 2.588,0 3.944,0.896 4.078,2.687 -1.855,4.112 -5.505,8.985 -10.941,14.623 -6.366,6.563 -10.445,11.239 -12.235,14.024 4.111,2.455 8.257,4.908 12.435,7.361 4.636,2.923 8.549,5.74 11.734,8.457 z" />
	<path
   id="path247"
   d="m 368.141,249.114 c -2.455,0.993 -6.067,2.155 -10.843,3.479 -4.774,1.328 -8.391,2.488 -10.844,3.482 -0.597,1.725 -1.028,5.57 -1.293,11.539 1.062,0.398 2.288,0.598 3.682,0.598 0.994,0 2.552,-0.166 4.675,-0.498 2.123,-0.33 3.682,-0.498 4.676,-0.498 1.855,0 3.447,0.398 4.773,1.195 0.93,1.326 1.395,2.188 1.395,2.586 0,0.465 -0.233,0.83 -0.696,1.094 -0.133,0.066 -0.599,0.531 -1.394,1.393 -0.53,0.599 -1.192,0.863 -1.989,0.798 -1.392,0.332 -3.946,0.53 -7.659,0.596 -3.117,0.065 -5.605,0.465 -7.461,1.192 -1.26,4.91 -1.891,8.789 -1.891,11.64 0,1.927 0.266,3.449 0.797,4.576 3.115,2.188 8.521,3.118 16.214,2.784 0.53,0 1.096,-0.247 1.69,-0.745 0.598,-0.496 1.094,-0.746 1.492,-0.746 1.855,-0.396 3.084,0.996 3.682,4.178 0.197,1.063 0.017,2.041 -0.549,2.937 -0.563,0.895 -1.377,1.375 -2.436,1.443 -8.025,0.264 -14.989,-0.367 -20.891,-1.892 -1.857,-0.465 -3.55,-1.492 -5.073,-3.084 -1.526,-1.593 -2.388,-3.384 -2.587,-5.371 -0.598,-5.771 -0.598,-10.942 0,-15.521 -1.856,-1.258 -2.687,-2.485 -2.486,-3.68 0.064,-0.598 0.579,-1.145 1.542,-1.643 0.961,-0.496 1.508,-1.01 1.642,-1.541 0.133,-0.529 0.397,-3.682 0.797,-9.451 -3.715,-0.729 -5.539,-2.121 -5.473,-4.178 0.064,-1.922 1.227,-3.447 3.48,-4.576 2.121,-0.861 4.244,-1.723 6.367,-2.586 2.453,-1.258 5.535,-2.387 9.25,-3.383 3.25,-0.859 6.5,-1.689 9.75,-2.486 0.332,-0.064 0.729,-0.1 1.192,-0.1 1.791,0 3.881,0.697 6.269,2.09 0.065,0.266 0.231,0.764 0.498,1.492 0.264,0.729 0.396,1.26 0.396,1.592 0.001,0.535 -0.231,0.963 -0.694,1.295 z" />
	<path
   id="path249"
   d="m 420.466,236.878 c -0.598,2.39 -1.726,3.781 -3.383,4.179 -4.312,1.063 -11.805,2.454 -22.481,4.178 -1.326,16.514 -1.988,30.274 -1.988,41.283 0,4.178 0.064,8.291 0.197,12.336 0.065,1.258 0,2.221 -0.197,2.885 -0.333,1.061 -0.995,1.557 -1.99,1.492 -1.924,-0.066 -3.516,-0.881 -4.773,-2.438 -1.262,-1.56 -1.957,-3.299 -2.09,-5.224 -0.134,-2.452 -0.199,-5.038 -0.199,-7.76 0,-4.377 0.299,-11.305 0.896,-20.789 0.598,-9.086 0.861,-16.018 0.796,-20.791 -1.791,-0.133 -4.276,0.033 -7.461,0.496 -3.647,0.533 -6.168,0.797 -7.562,0.797 -3.248,0 -5.9,-0.869 -7.957,-2.608 -0.797,-1.735 -1.193,-2.642 -1.193,-2.707 0,-0.467 0.232,-0.97 0.695,-1.504 2.123,-0.736 6.467,-1.404 13.031,-2.009 5.771,-0.602 10.08,-1.67 12.933,-3.209 2.321,0.798 4.975,1.193 7.958,1.193 2.983,0 5.835,-0.363 8.556,-1.094 0.796,-0.064 2.817,-0.529 6.067,-1.393 2.388,-0.599 4.378,-0.795 5.969,-0.599 1.194,0 1.691,0.498 1.492,1.492 1.788,0.003 2.684,0.602 2.684,1.794 z" />
	<path
   id="path251"
   d="m 443.046,294.077 c 0.398,1.063 0.597,1.989 0.597,2.784 0,1.328 -0.563,2.486 -1.689,3.482 -1.129,0.994 -1.891,1.457 -2.288,1.393 -3.25,-0.598 -5.307,-3.217 -6.168,-7.858 -0.93,-5.039 -2.023,-9.252 -3.282,-12.633 -2.256,0.198 -4.511,0.397 -6.765,0.596 -2.587,0.334 -4.61,1.13 -6.068,2.39 -0.729,2.057 -1.69,5.703 -2.885,10.94 -1.128,4.841 -2.224,8.521 -3.282,11.043 -0.532,1.193 -1.659,1.523 -3.383,0.994 -2.188,-0.73 -3.35,-1.726 -3.481,-2.983 -0.198,-2.521 0.53,-5.902 2.188,-10.146 1.989,-4.84 3.084,-8.289 3.283,-10.346 0.063,-0.599 -0.366,-1.26 -1.294,-1.99 -0.931,-0.729 -1.394,-1.293 -1.394,-1.689 0,-0.332 0.149,-0.68 0.448,-1.045 0.298,-0.363 0.994,-0.662 2.089,-0.896 1.094,-0.229 1.706,-0.577 1.84,-1.043 1.194,-3.315 3.084,-9.483 5.67,-18.504 2.188,-7.823 4.146,-13.825 5.869,-18.004 0.398,-0.928 1.228,-1.393 2.487,-1.393 0.928,0 1.757,0.297 2.487,0.895 1.854,1.592 3.049,3.979 3.58,7.162 0.397,2.721 0.763,5.439 1.095,8.156 3.316,15.65 6.765,28.55 10.346,38.695 z m -14.525,-19 c -0.198,-2.453 -0.631,-5.205 -1.293,-8.257 -0.663,-2.651 -1.294,-5.305 -1.891,-7.959 -1.989,5.507 -3.715,11.011 -5.173,16.515 1.063,-0.199 3.848,-0.299 8.357,-0.299 z" />
	<path
   id="path253"
   d="m 482.537,273.982 c -1.791,4.443 -2.952,9.914 -3.481,16.414 -0.333,5.638 -0.632,11.273 -0.896,16.91 -0.134,1.656 -1.229,2.486 -3.283,2.486 -0.597,0 -1.161,-0.1 -1.689,-0.299 -2.854,-1.193 -4.277,-3.416 -4.277,-6.664 0,-0.93 0.132,-2.338 0.396,-4.229 0.266,-1.89 0.397,-3.267 0.397,-4.127 0.265,-1.925 0.598,-4.81 0.995,-8.654 -4.576,4.311 -9.749,7.527 -15.52,9.647 -0.796,0.267 -1.591,0.398 -2.387,0.398 -3.052,0 -5.869,-1.726 -8.456,-5.175 -1.458,-1.922 -2.188,-4.309 -2.188,-7.162 0,-2.52 0.563,-5.471 1.69,-8.854 3.516,-10.742 9.117,-21.254 16.813,-31.533 3.846,-5.104 7.262,-7.66 10.246,-7.66 2.65,0 4.144,0.994 4.477,2.984 0.264,1.658 -0.299,2.852 -1.691,3.582 -2.321,1.26 -3.549,1.957 -3.681,2.088 -5.57,6.168 -10.678,14.127 -15.319,23.875 -2.853,6.035 -4.276,11.439 -4.276,16.215 0,0.861 0.032,1.726 0.1,2.586 0.132,0.066 0.331,0.383 0.597,0.945 0.266,0.564 0.631,0.746 1.095,0.547 4.377,-1.725 10.976,-6.268 19.796,-13.629 0.662,-0.529 1.426,-2.055 2.288,-4.576 0.662,-1.854 1.855,-2.785 3.581,-2.785 -0.531,0 0,-0.063 1.592,-0.198 0.796,-0.132 1.326,0 1.592,0.397 1.259,1.857 1.891,3.383 1.891,4.576 -0.004,0.602 -0.137,1.233 -0.402,1.895 z" />
</g>
</svg>
