<?xml version="1.0" encoding="utf-8"?>
<!-- Generator: Adobe Illustrator 16.0.0, SVG Export Plug-In . SVG Version: 6.00 Build 0)  -->
<!DOCTYPE svg PUBLIC "-//W3C//DTD SVG 1.1//EN" "http://www.w3.org/Graphics/SVG/1.1/DTD/svg11.dtd">
<svg version="1.1" id="Layer_1" xmlns="http://www.w3.org/2000/svg" xmlns:xlink="http://www.w3.org/1999/xlink" x="0px" y="0px"
	 width="646px" height="449px" viewBox="0 0 646 449" enable-background="new 0 0 646 449" xml:space="preserve">
<g>
	<path fill="#FFFFFF" d="M316.966,347.328c-16.434-0.225-32.742-0.223-49.15-1.422c-15.524-1.135-31.074-3.297-46.635-3.772
		c-15.957-0.486-36.145,2.735-48.348-10.197c-5.475-5.801-8.445-13.046-11.948-20.029c0.671,5.056,0.981,10.216,1.585,15.618
		c0.656,5.876,1.695,11.993,5.651,16.649c4.589,5.402,10.825,6.656,17.638,6.352c30.201-1.348,60.609,0.606,90.825,1.76
		c16.564,0.632,33.127,1.337,49.681,2.198c16.896,0.879,33.767,2.282,50.694,2.319c23.435,0.051,46.807-1.476,70.192-2.719
		c-10.843-0.058-21.685-0.44-32.514-1.044C382.082,351.227,349.589,347.774,316.966,347.328z"/>
	<path fill="#FFFFFF" d="M494.449,352.803c7.027,0.073,14.052,0.17,21.078,0.027c7.954-0.161,16.773-1.03,23.386-5.925
		c0.484-0.358,0.949-0.733,1.401-1.119C527.033,353.604,509.266,352.8,494.449,352.803z"/>
	<path fill="#FFFFFF" d="M172.987,91.999c-8.022,2.767-14.501,8.1-17.108,18.356c-1.54,6.057-1.86,12.212-1.9,18.395
		c0.667-2.808,1.376-5.604,2.176-8.372C159.407,109.115,164.76,99.188,172.987,91.999z"/>
	<path fill="#FFFFFF" d="M552.012,184.525c0.364-16.256,0.831-32.631-0.802-48.837c-0.926-9.19-1.801-19.681-6.119-28.194
		c1.537,5.031,1.958,10.492,1.986,15.651c0.059,10.519-1.269,20.949-2.404,31.387c-1.362,12.515-1.162,24.8-0.013,37.347
		c1.416,15.468,3.692,30.879,4.436,46.405c0.689,14.407,0.028,28.743,1.144,43.151c1.04,13.422,2.552,27.047,1.466,40.514
		c-0.011,0.133-0.022,0.266-0.033,0.398c2.216-13.338,1.84-27.242,1.82-40.695C553.443,249.247,551.284,216.934,552.012,184.525z"/>
	<path fill="#FFFFFF" d="M124.128,244.095c-0.205-0.659-0.398-1.32-0.582-1.984c0.894,6.045,2.332,11.946,4.395,17.266
		c4.021,10.367,10.773,18.855,18.012,27.15c2.248,2.575,4.499,5.172,6.68,7.824c-4.555-8.792-10.141-16.912-15.567-25.184
		C131.909,261.312,126.933,253.128,124.128,244.095z"/>
	<path fill="#FFFFFF" d="M209.341,86.933c32.934,0.028,65.865,0.5,98.793,1.151c65.239,1.29,130.474,3.149,195.73,3.188
		c6.011-0.093,12.812-0.54,19.331,0.004c-17.84-5.559-38.318-3.132-56.538-3.18c-14.036-0.037-28.111-1.991-42.124-2.841
		c-16.348-0.991-32.708-1.756-49.057-2.735c-29.883-1.791-59.587-4.877-89.556-5.399c-15.119-0.263-30.254-0.175-45.359,0.581
		c-14.566,0.729-30.039,1.091-44.268,4.567c-4.773,1.166-9.457,2.791-13.775,5.048C191.479,86.245,200.953,86.926,209.341,86.933z"
		/>
	<path fill="#FFFFFF" d="M144.876,175.908c-1.645,2.687-3.561,5.245-5.56,7.754c0.254-0.299,0.509-0.596,0.761-0.898
		C141.937,180.535,143.514,178.249,144.876,175.908z"/>
	<path fill="#FFFFFF" d="M161.128,113.479c0.84-1.359,1.773-2.68,2.817-3.957c6.441-7.88,15.174-13.149,24.862-16.109
		c7.198-2.199,14.551-3.548,21.981-4.301c-4.146-0.015-8.291-0.037-12.437-0.044c-7.162-0.013-14.768,0.188-21.594,1.834
		c-2.521,1.868-4.833,4.035-6.854,6.559C166.05,102.274,163.247,107.736,161.128,113.479z"/>
	<path fill="#FFFFFF" d="M545.396,227.805c-1.392-15.415-3.678-30.769-4.44-46.236c-0.529-10.728,0.198-21.001,1.39-31.65
		c1.758-15.71,6.63-42.061-7.843-53.33c-8.601-4.253-19.702-3.39-29.505-3.167c-0.103,0.019-0.209,0.03-0.322,0.03
		c-0.369,0-0.738-0.002-1.107-0.003c-0.563,0.009-1.121,0.015-1.673,0.016c-0.107,0-0.205-0.009-0.298-0.021
		c-4.95-0.004-9.901-0.011-14.852-0.037c-40.584-0.208-81.157-1.053-121.73-1.938c-0.398,0.242-0.881,0.429-1.23,0.43
		c-30.554,0.063-61.337,3.747-91.843,1.113c-27.045-2.335-56.282-6.951-82.783,1.716c-12.717,4.159-24.018,12.665-28.753,25.6
		c-4.473,12.216-3.613,25.22-6.056,37.828c-2.346,12.105-7.963,20.755-16.154,29.717c-5.559,6.083-10.326,12.262-13.076,19.549
		c-1.932,11.067-1.926,22.782,1.205,33.566c5.782,19.911,20.709,35.041,29.655,53.412c1.409,2.894,2.427,5.771,3.199,8.654
		c1.867,2.771,3.589,5.638,5.043,8.67c4.61,9.607,8.944,20.081,19.223,24.908c8.333,3.914,17.659,3.844,26.679,3.846
		c12.573,0.002,24.957,0.998,37.479,2.108c16.945,1.503,33.929,3.038,50.951,3.193c16.319,0.148,32.568,0.202,48.873,1.142
		c32.549,1.877,65.047,5.307,97.671,5.631c13.401,0.134,26.692-0.916,40.065-1.199c9.032-0.192,18.077,0.109,27.102-0.404
		c9.143-0.521,20.344-1.229,27.962-6.946c8.928-6.701,8.875-19.33,8.888-29.526c0.017-14.164-1.716-28.223-2.46-42.352
		C545.876,257.332,546.732,242.595,545.396,227.805z M160.244,220.736c-0.248,2.14-0.848,6.552-2.011,10.828
		c-0.08,1.367-0.144,2.72-0.17,4.049c-0.041,2.206-0.924,2.323-1.83,1.559c-2.197,4.61-5.465,7.22-10.249,2.917
		c-7.523-6.771-7.336-19.55-5.703-29.103c0.675-3.914,1.856-10.618,5.954-12.175c4.022-1.529,8.336,0.813,10.126,4.859
		c1.84,4.154,2.456,8.666,2.546,13.276C159.726,217.882,160.393,219.472,160.244,220.736z"/>
	<path fill="#FFFFFF" d="M150.756,205.248c-4.113-0.436-5.645,3.624-6.384,7.315c-1.024,5.102-3.34,17.896,1.878,21.148
		c4.33,2.701,6.748-0.24,8.161-4.43c0.253-4.584,0.693-9.154,0.561-13.76C154.872,211.956,155.243,205.722,150.756,205.248z"/>
	<path fill="#FFFFFF" d="M250.396,89.386c5.218,0.421,10.41,0.923,15.549,1.425c24.711,2.414,49.415,1.002,74.146,0.113
		c-16.623-0.359-33.247-0.705-49.872-0.996C276.944,89.696,263.67,89.523,250.396,89.386z"/>
	<path d="M556.371,271.545c-0.174-16.509-0.811-33.009-1.442-49.505c-0.604-15.744-0.074-31.475,0.221-47.219
		c0.284-15.144,0.015-30.21-1.612-45.277c-1.018-9.421-2.869-19.451-8.261-27.447c-2.537-3.762-5.847-6.271-9.603-7.939
		c-5.593-3.61-13.037-5.111-19.144-6.127c-21.424-3.567-43.433-0.63-65.008-2.46c-31.962-2.712-64.046-3.525-96.004-6.26
		c-29.435-2.519-58.977-4.025-88.523-3.828c-14.449,0.097-28.893,0.702-43.293,1.871c-11.939,0.97-24.063,1.946-35.457,5.86
		c-3.611,1.24-6.875,2.847-9.852,4.74c-5.789,1.107-11.247,3.142-15.907,6.816c-14.188,11.187-11.68,32.167-11.801,49.617
		c-1.071,5.57-2.1,11.146-3.255,16.671c-0.95,4.543-2.336,8.507-4.238,12.296c-2.705,4.252-6.043,8.166-9.814,11.896
		c-6.512,6.439-9.626,13.737-11.188,22.462c-0.314,0.828-0.612,1.67-0.875,2.544c-3.82,12.707-1.345,27.422,0.991,40.168
		c1.959,10.689,7.186,20.17,13.779,28.668c6.423,8.279,13.894,15.658,19.885,24.286c0.182,0.263,0.352,0.532,0.528,0.798
		c2.297,8.706,2.213,17.713,3.409,26.899c1.216,9.347,6.129,18.924,16.146,20.964c4.954,1.01,9.942,0.695,14.95,0.326
		c7.849-0.579,15.658-0.199,23.517,0.04c32.945,1.003,65.889,2.079,98.813,3.642c32.2,1.527,64.013,3.557,96.27,2.196
		c31.985-1.349,63.923-4.099,95.963-3.444c14.985,0.307,31.572,0.453,41.522-12.721c5.229-6.92,7.127-15.937,8.163-24.357
		C557.116,302.54,556.532,286.807,556.371,271.545z M196.294,82.268c14.229-3.476,29.701-3.838,44.268-4.567
		c15.105-0.755,30.24-0.844,45.359-0.581c29.969,0.521,59.673,3.608,89.556,5.399c16.349,0.979,32.709,1.744,49.057,2.735
		c14.013,0.85,28.088,2.805,42.124,2.841c18.22,0.047,38.698-2.379,56.538,3.18c-6.52-0.544-13.32-0.097-19.331-0.004
		c-65.257-0.038-130.491-1.897-195.73-3.188c-32.928-0.651-65.859-1.123-98.793-1.151c-8.388-0.007-17.861-0.688-26.822,0.383
		C186.837,85.059,191.521,83.434,196.294,82.268z M340.091,90.925c-24.731,0.889-49.436,2.301-74.146-0.113
		c-5.139-0.502-10.331-1.004-15.549-1.425c13.274,0.137,26.549,0.31,39.823,0.542C306.844,90.22,323.468,90.565,340.091,90.925z
		 M176.759,90.901c6.826-1.646,14.432-1.847,21.594-1.834c4.146,0.007,8.291,0.029,12.437,0.044
		c-7.431,0.753-14.783,2.102-21.981,4.301c-9.688,2.96-18.421,8.229-24.862,16.109c-1.044,1.277-1.978,2.598-2.817,3.957
		c2.119-5.742,4.922-11.205,8.776-16.019C171.926,94.936,174.238,92.769,176.759,90.901z M155.879,110.355
		c2.607-10.256,9.086-15.59,17.108-18.356c-8.228,7.189-13.58,17.117-16.833,28.38c-0.8,2.768-1.509,5.564-2.176,8.372
		C154.019,122.567,154.339,116.412,155.879,110.355z M144.876,175.908c-1.362,2.341-2.939,4.627-4.799,6.855
		c-0.252,0.303-0.507,0.599-0.761,0.898C141.315,181.153,143.231,178.595,144.876,175.908z M145.952,286.526
		c-7.238-8.295-13.99-16.783-18.012-27.15c-2.063-5.319-3.501-11.221-4.395-17.266c0.184,0.664,0.377,1.325,0.582,1.984
		c2.805,9.033,7.781,17.217,12.937,25.072c5.427,8.271,11.013,16.392,15.567,25.184C150.451,291.698,148.2,289.102,145.952,286.526z
		 M376.959,356.804c-16.928-0.037-33.798-1.44-50.694-2.319c-16.554-0.861-33.116-1.566-49.681-2.198
		c-30.216-1.153-60.624-3.107-90.825-1.76c-6.813,0.305-13.049-0.949-17.638-6.352c-3.956-4.656-4.995-10.773-5.651-16.649
		c-0.604-5.402-0.914-10.563-1.585-15.618c3.503,6.983,6.474,14.229,11.948,20.029c12.203,12.933,32.391,9.711,48.348,10.197
		c15.561,0.476,31.11,2.638,46.635,3.772c16.408,1.199,32.717,1.197,49.15,1.422c32.623,0.446,65.116,3.898,97.672,5.713
		c10.829,0.604,21.671,0.986,32.514,1.044C423.766,355.328,400.394,356.854,376.959,356.804z M538.913,346.905
		c-6.612,4.895-15.432,5.764-23.386,5.925c-7.026,0.143-14.051,0.046-21.078-0.027c14.816-0.003,32.584,0.802,45.865-7.017
		C539.862,346.172,539.397,346.547,538.913,346.905z M540.227,344.002c-7.618,5.718-18.819,6.425-27.962,6.946
		c-9.024,0.514-18.069,0.212-27.102,0.404c-13.373,0.283-26.664,1.333-40.065,1.199c-32.624-0.324-65.122-3.754-97.671-5.631
		c-16.305-0.939-32.554-0.993-48.873-1.142c-17.022-0.155-34.006-1.69-50.951-3.193c-12.521-1.11-24.905-2.106-37.479-2.108
		c-9.02-0.002-18.346,0.068-26.679-3.846c-10.278-4.827-14.612-15.301-19.223-24.908c-1.454-3.032-3.176-5.898-5.043-8.67
		c-0.772-2.884-1.79-5.761-3.199-8.654c-8.946-18.371-23.873-33.501-29.655-53.412c-3.131-10.784-3.137-22.499-1.205-33.566
		c2.75-7.287,7.518-13.467,13.076-19.549c8.191-8.962,13.809-17.612,16.154-29.717c2.442-12.608,1.583-25.612,6.056-37.828
		c4.735-12.935,16.036-21.441,28.753-25.6c26.501-8.667,55.738-4.051,82.783-1.716c30.506,2.634,61.289-1.051,91.843-1.113
		c0.35,0,0.832-0.188,1.23-0.43c40.573,0.886,81.146,1.73,121.73,1.938c4.95,0.025,9.901,0.032,14.852,0.037
		c0.093,0.012,0.19,0.021,0.298,0.021c0.552-0.001,1.11-0.007,1.673-0.016c0.369,0,0.738,0.003,1.107,0.003
		c0.113,0,0.22-0.011,0.322-0.03c9.803-0.223,20.904-1.086,29.505,3.167c14.473,11.269,9.601,37.62,7.843,53.33
		c-1.191,10.649-1.919,20.923-1.39,31.65c0.763,15.467,3.049,30.821,4.44,46.236c1.336,14.79,0.479,29.527,1.258,44.319
		c0.744,14.129,2.477,28.188,2.46,42.352C549.102,324.672,549.154,337.301,540.227,344.002z M551.672,322.347
		c0.011-0.133,0.022-0.266,0.033-0.398c1.086-13.467-0.426-27.092-1.466-40.514c-1.115-14.408-0.454-28.744-1.144-43.151
		c-0.743-15.525-3.02-30.937-4.436-46.405c-1.149-12.546-1.35-24.832,0.013-37.347c1.136-10.438,2.463-20.868,2.404-31.387
		c-0.028-5.159-0.449-10.621-1.986-15.651c4.318,8.513,5.193,19.004,6.119,28.194c1.633,16.207,1.166,32.581,0.802,48.837
		c-0.728,32.409,1.432,64.722,1.48,97.126C553.512,295.104,553.888,309.009,551.672,322.347z"/>
	<path d="M156.361,203.671c-1.79-4.047-6.104-6.389-10.126-4.859c-4.098,1.557-5.279,8.261-5.954,12.175
		c-1.633,9.553-1.82,22.331,5.703,29.103c4.784,4.303,8.052,1.693,10.249-2.917c0.906,0.765,1.789,0.647,1.83-1.559
		c0.026-1.329,0.09-2.682,0.17-4.049c1.163-4.276,1.763-8.688,2.011-10.828c0.148-1.265-0.519-2.854-1.337-3.789
		C158.817,212.337,158.201,207.825,156.361,203.671z M154.411,229.282c-1.413,4.189-3.831,7.131-8.161,4.43
		c-5.218-3.252-2.902-16.047-1.878-21.148c0.739-3.691,2.271-7.751,6.384-7.315c4.487,0.474,4.116,6.708,4.216,10.274
		C155.104,220.128,154.664,224.698,154.411,229.282z"/>
</g>
<g>
	<path d="M273.439,135.89c-2.832,5.301-6.861,15.211-12.089,29.731c-1.525,4.285-3.341,11.364-5.445,21.237
		c-2.034,9.439-3.994,16.59-5.881,21.453c-0.654,0.727-1.416,1.09-2.287,1.09c-1.018,0-2.325-0.545-3.921-1.633
		c-2.832-6.752-6.137-17.861-9.91-33.326c-3.559-14.738-7.117-25.956-10.674-33.652c0.943-1.814,1.743-2.723,2.396-2.723
		c0.58-0.362,1.16-0.544,1.742-0.544c1.161,0,3.194,1.089,6.099,3.267c2.614,5.954,5.119,13.251,7.515,21.89
		c1.888,7.479,3.813,14.92,5.772,22.326c2.686-8.857,5.372-17.752,8.06-26.682c3.193-10.02,6.461-18.659,9.801-25.92
		c1.09-1.887,2.977-2.505,5.663-1.852c0.29,0.073,0.654,0.346,1.09,0.817c0.436,0.473,0.979,0.727,1.633,0.762
		c0.654,0.038,0.98,0.563,0.98,1.579C273.983,134.438,273.802,135.165,273.439,135.89z"/>
	<path d="M287.924,143.295c0.145,2.106,0.218,4.285,0.218,6.534c0,4.938-0.509,12.38-1.525,22.326
		c-1.018,9.948-1.524,17.462-1.524,22.544c0,1.889,0.036,3.739,0.109,5.554c-0.653,2.032-2.069,3.012-4.248,2.94
		c-3.122-0.146-4.829-1.489-5.118-4.029c-0.291-2.541-0.436-5.228-0.436-8.06c0-4.937,0.599-12.306,1.797-22.108
		s1.797-17.134,1.797-22c0-1.887-0.073-3.738-0.218-5.554c0.725-1.378,1.96-2.069,3.703-2.069c1.378,0,2.758,0.4,4.138,1.198
		c0.29-0.218,0.508-0.327,0.654-0.327c0.218,0,0.326,0.364,0.326,1.089c-0.073,0.872-0.073,1.38,0,1.525
		C287.668,143.078,287.777,143.224,287.924,143.295z"/>
	<path d="M331.485,143.949c-2.687,1.089-6.643,2.36-11.87,3.812c-5.228,1.453-9.186,2.723-11.871,3.812
		c-0.653,1.889-1.127,6.099-1.416,12.633c1.161,0.436,2.505,0.653,4.029,0.653c1.09,0,2.795-0.18,5.119-0.544
		c2.322-0.362,4.029-0.544,5.118-0.544c2.032,0,3.774,0.436,5.228,1.307c1.017,1.453,1.525,2.396,1.525,2.832
		c0,0.509-0.256,0.909-0.763,1.198c-0.146,0.073-0.653,0.582-1.524,1.524c-0.582,0.654-1.307,0.945-2.179,0.872
		c-1.524,0.364-4.32,0.582-8.386,0.653c-3.413,0.073-6.136,0.509-8.168,1.307c-1.38,5.374-2.069,9.622-2.069,12.742
		c0,2.107,0.29,3.776,0.871,5.01c3.412,2.396,9.329,3.414,17.752,3.049c0.581,0,1.198-0.272,1.852-0.816
		c0.653-0.545,1.198-0.817,1.634-0.817c2.032-0.436,3.376,1.089,4.029,4.574c0.218,1.162,0.018,2.232-0.599,3.212
		c-0.618,0.98-1.508,1.506-2.668,1.579c-8.786,0.29-16.409-0.399-22.871-2.069c-2.033-0.508-3.885-1.633-5.554-3.376
		c-1.671-1.742-2.614-3.703-2.832-5.881c-0.653-6.316-0.653-11.98,0-16.989c-2.033-1.378-2.94-2.723-2.723-4.03
		c0.071-0.653,0.635-1.252,1.688-1.797c1.052-0.544,1.65-1.106,1.797-1.688c0.145-0.581,0.436-4.03,0.871-10.346
		c-4.067-0.798-6.063-2.323-5.99-4.574c0.072-2.105,1.343-3.774,3.813-5.01c2.322-0.943,4.646-1.887,6.97-2.832
		c2.759-1.378,6.17-2.614,10.237-3.703c3.485-0.943,7.006-1.852,10.563-2.723c0.363-0.072,0.799-0.109,1.308-0.109
		c1.96,0,4.247,0.763,6.86,2.287c0.072,0.291,0.254,0.836,0.545,1.634c0.289,0.8,0.436,1.38,0.436,1.743
		C332.248,143.115,331.993,143.586,331.485,143.949z"/>
	<path d="M380.059,132.405c-1.018,9.73-1.998,19.494-2.941,29.296c-1.234,11.617-1.852,21.31-1.852,29.078
		c0,2.542,0.072,5.047,0.219,7.515c0.072,1.16-0.346,2.178-1.252,3.049c-0.908,0.871-1.943,1.307-3.104,1.307
		c-2.252,0-4.139-1.524-5.664-4.574c-4.646-9.075-10.42-23.306-17.316-42.691c-0.146-0.436-0.327-0.654-0.545-0.654
		c-0.509,0-0.835,0.509-0.979,1.525c-1.235,10.384-1.852,21.31-1.852,32.781c0,5.519,0.145,11.145,0.436,16.881
		c0.071,2.104-0.545,3.557-1.852,4.355c-0.509,0.508-1.053,0.762-1.634,0.762c-0.509,0-1.162-0.217-1.96-0.652
		c-1.089-0.51-1.78-0.836-2.069-0.98c-0.944-0.291-1.524-1.162-1.742-2.613c-0.073-1.162-0.146-2.361-0.218-3.594
		c-0.218-4.066-0.327-8.313-0.327-12.742c0-7.695,0.436-17.316,1.307-28.86c1.379-17.57,2.141-27.298,2.287-29.187
		c0.071-1.596,1.416-2.396,4.03-2.396c1.233-0.145,3.049,0.762,5.445,2.723c2.322,4.429,5.189,11.617,8.604,21.563
		c3.267,9.512,6.243,16.736,8.931,21.672c1.088-9.655,2.793-24.249,5.119-43.78c0.217-1.452,1.27-2.178,3.158-2.178
		c0.652,0,1.416,0.109,2.287,0.327c1.16,0.291,1.852,0.473,2.068,0.544C379.367,131.171,379.84,131.68,380.059,132.405z"/>
	<path d="M431.788,132.405c-1.018,9.73-1.997,19.494-2.94,29.296c-1.235,11.617-1.852,21.31-1.852,29.078
		c0,2.542,0.072,5.047,0.219,7.515c0.071,1.16-0.346,2.178-1.253,3.049c-0.908,0.871-1.943,1.307-3.104,1.307
		c-2.252,0-4.139-1.524-5.663-4.574c-4.647-9.075-10.42-23.306-17.316-42.691c-0.146-0.436-0.327-0.654-0.545-0.654
		c-0.509,0-0.835,0.509-0.979,1.525c-1.236,10.384-1.852,21.31-1.852,32.781c0,5.519,0.145,11.145,0.436,16.881
		c0.071,2.104-0.545,3.557-1.852,4.355c-0.509,0.508-1.054,0.762-1.634,0.762c-0.509,0-1.162-0.217-1.96-0.652
		c-1.09-0.51-1.78-0.836-2.069-0.98c-0.944-0.291-1.524-1.162-1.743-2.613c-0.072-1.162-0.146-2.361-0.218-3.594
		c-0.218-4.066-0.326-8.313-0.326-12.742c0-7.695,0.436-17.316,1.307-28.86c1.379-17.57,2.141-27.298,2.287-29.187
		c0.071-1.596,1.416-2.396,4.029-2.396c1.234-0.145,3.05,0.762,5.445,2.723c2.323,4.429,5.19,11.617,8.604,21.563
		c3.267,9.512,6.243,16.736,8.93,21.672c1.089-9.655,2.794-24.249,5.119-43.78c0.218-1.452,1.27-2.178,3.158-2.178
		c0.653,0,1.416,0.109,2.287,0.327c1.16,0.291,1.852,0.473,2.069,0.544C431.098,131.171,431.57,131.68,431.788,132.405z"/>
	<path d="M476.657,193.175c0.436,1.162,0.653,2.178,0.653,3.049c0,1.453-0.618,2.722-1.852,3.812
		c-1.235,1.089-2.069,1.596-2.505,1.524c-3.559-0.653-5.81-3.521-6.752-8.604c-1.018-5.517-2.216-10.128-3.595-13.831
		c-2.469,0.218-4.938,0.436-7.405,0.653c-2.832,0.364-5.047,1.235-6.644,2.614c-0.8,2.251-1.852,6.245-3.158,11.979
		c-1.235,5.299-2.434,9.328-3.594,12.089c-0.582,1.307-1.815,1.668-3.703,1.088c-2.396-0.799-3.667-1.889-3.812-3.268
		c-0.218-2.759,0.58-6.46,2.396-11.107c2.179-5.299,3.377-9.075,3.595-11.326c0.071-0.654-0.4-1.378-1.416-2.178
		c-1.018-0.798-1.524-1.416-1.524-1.852c0-0.362,0.163-0.744,0.489-1.144c0.327-0.398,1.09-0.725,2.287-0.98
		c1.198-0.253,1.869-0.635,2.015-1.144c1.308-3.63,3.377-10.382,6.208-20.257c2.396-8.566,4.537-15.138,6.426-19.712
		c0.436-1.016,1.343-1.525,2.723-1.525c1.016,0,1.923,0.327,2.723,0.98c2.032,1.743,3.339,4.356,3.921,7.841
		c0.436,2.978,0.834,5.955,1.197,8.931C468.96,167.946,472.736,182.066,476.657,193.175z M460.757,172.374
		c-0.218-2.685-0.691-5.699-1.416-9.039c-0.727-2.903-1.416-5.808-2.069-8.713c-2.179,6.027-4.067,12.053-5.663,18.079
		C452.769,172.482,455.818,172.374,460.757,172.374z"/>
</g>
<g>
	<path d="M275.729,255.579c-0.862,3.582-3.052,6.832-6.565,9.75c-3.383,2.387-6.765,4.742-10.146,7.063
		c0.199,0.994,0.878,1.74,2.039,2.238c1.16,0.496,2.271,0.979,3.332,1.441c5.504,3.582,8.257,7.826,8.257,12.734
		c0,3.779-1.293,7.262-3.88,10.443c-1.989,2.453-4.941,4.875-8.854,7.264c-3.183,1.855-6.366,3.713-9.549,5.57
		c-0.797,0.463-1.658,0.695-2.587,0.695c-2.188,0-3.715-0.895-4.575-2.686c0.131-5.57,0.264-11.109,0.397-16.613
		c0.132-6.631,0.497-12.102,1.095-16.412c-1.394-0.928-2.09-1.99-2.09-3.184c0-0.598,0.249-1.145,0.746-1.643
		c0.498-0.496,1.177-1.043,2.039-1.641c0.797-10.08,0.961-19.363,0.498-27.854c-3.118-0.596-5.173-1.99-6.168-4.178
		c-0.066-0.264,0.05-0.662,0.348-1.193c0.299-0.531,0.448-0.961,0.448-1.293c1.524-1.127,3.216-1.691,5.073-1.691
		c1.326,0,4.377,0.432,9.152,1.293c2.452,0.398,5.006,1.293,7.659,2.686c7.163,3.715,11.373,7.328,12.634,10.844
		C275.894,251.735,276.126,253.856,275.729,255.579z M263.394,289.601c0.132-0.729,0.199-1.426,0.199-2.088
		c0-1.99-0.631-3.746-1.891-5.273c-3.383-1.656-5.538-2.486-6.466-2.486c-0.532,0-1.028,0.1-1.492,0.299
		c0.065,0.662,0.1,1.393,0.1,2.188c0,1.393-0.184,3.531-0.548,6.416c-0.365,2.885-0.547,5.059-0.547,6.516
		c0,2.123,0.265,4.045,0.796,5.77c0.796-0.93,2.04-1.906,3.73-2.934c1.691-1.027,2.868-1.939,3.532-2.736
		C262.001,293.878,262.862,291.987,263.394,289.601z M266.378,250.606c-0.333-2.453-2.322-4.344-5.969-5.67
		c-0.531-0.199-1.36-0.631-2.487-1.293c-0.796-0.531-1.46-0.797-1.989-0.797c-0.266,0-0.564,0.066-0.896,0.199
		c-0.067,1.129-0.099,2.322-0.099,3.58c0,1.727,0.131,4.645,0.397,8.754c0.198,3.781,0.265,6.732,0.198,8.854
		c0.464,0,1.16-0.348,2.09-1.043c0.928-0.697,1.457-1.078,1.592-1.145c1.988-0.928,3.746-2.486,5.271-4.676
		C266.013,255.183,266.642,252.929,266.378,250.606z"/>
	<path d="M291.046,248.517c0.133,1.924,0.199,3.914,0.199,5.969c0,4.512-0.465,11.309-1.393,20.393
		c-0.93,9.086-1.393,15.951-1.393,20.592c0,1.725,0.033,3.414,0.1,5.074c-0.597,1.855-1.891,2.75-3.879,2.686
		c-2.853-0.135-4.412-1.361-4.676-3.682c-0.266-2.32-0.398-4.773-0.398-7.361c0-4.508,0.547-11.24,1.642-20.193
		s1.642-15.65,1.642-20.094c0-1.725-0.066-3.416-0.199-5.074c0.662-1.258,1.791-1.889,3.383-1.889c1.258,0,2.52,0.365,3.779,1.094
		c0.265-0.199,0.463-0.299,0.598-0.299c0.198,0,0.298,0.332,0.298,0.994c-0.067,0.797-0.067,1.262,0,1.393
		C290.813,248.317,290.913,248.452,291.046,248.517z"/>
	<path d="M330.837,293.38c0.398,0.334,0.597,0.797,0.597,1.395c0,0.396-0.266,1.393-0.796,2.982
		c-0.266-0.064-0.497-0.098-0.696-0.098c-0.397,0-0.912,0.166-1.542,0.496c-0.631,0.334-1.111,0.498-1.442,0.498
		c-0.333,0-0.696-0.133-1.095-0.398c-4.443-2.785-11.34-6.963-20.69-12.533c0.198,2.453,0.364,5.969,0.497,10.545
		c0,0.531,0.065,1.326,0.199,2.387c0.133,1.061,0.199,1.822,0.199,2.287c0,1.592-0.697,2.686-2.09,3.283
		c-0.397,0.264-0.961,0.398-1.69,0.398c-0.796,0-1.294-0.234-1.492-0.697c-1.726-0.596-2.72-1.758-2.984-3.48
		c-0.796-4.775-1.194-10.379-1.194-16.813c0-2.32,0.066-5.785,0.199-10.395s0.199-8.074,0.199-10.396
		c0-7.027-0.465-13.131-1.393-18.303c-0.134-0.797,0.331-1.326,1.393-1.592c0.796-0.133,1.625-0.264,2.486-0.398
		c0.861,0.266,1.758,0.582,2.687,0.945c0.929,0.365,1.425,0.945,1.492,1.74c0.995,9.021,1.425,16.184,1.294,21.488
		c2.718-2.453,5.834-5.703,9.35-9.75c2.984-3.381,5.936-6.797,8.854-10.246c0.797-0.33,1.657-0.496,2.587-0.496
		c2.587,0,3.944,0.895,4.078,2.686c-1.856,4.113-5.505,8.986-10.942,14.623c-6.366,6.564-10.445,11.24-12.235,14.025
		c4.111,2.455,8.257,4.908,12.435,7.361C323.739,287.845,327.653,290.663,330.837,293.38z"/>
	<path d="M368.141,249.114c-2.455,0.994-6.068,2.156-10.843,3.48c-4.775,1.328-8.391,2.488-10.844,3.482
		c-0.596,1.725-1.028,5.57-1.293,11.539c1.061,0.398,2.288,0.598,3.682,0.598c0.994,0,2.551-0.166,4.675-0.498
		c2.122-0.33,3.681-0.498,4.675-0.498c1.856,0,3.448,0.398,4.774,1.195c0.93,1.326,1.395,2.188,1.395,2.586
		c0,0.465-0.234,0.83-0.697,1.094c-0.133,0.066-0.598,0.531-1.393,1.393c-0.531,0.598-1.193,0.863-1.99,0.797
		c-1.392,0.332-3.946,0.531-7.659,0.596c-3.117,0.066-5.605,0.465-7.461,1.193c-1.26,4.91-1.89,8.789-1.89,11.639
		c0,1.926,0.265,3.449,0.796,4.576c3.116,2.189,8.521,3.119,16.214,2.785c0.531,0,1.096-0.248,1.691-0.746
		c0.598-0.496,1.094-0.746,1.492-0.746c1.855-0.396,3.084,0.996,3.682,4.178c0.197,1.063,0.016,2.041-0.549,2.936
		c-0.563,0.895-1.377,1.375-2.436,1.443c-8.025,0.264-14.989-0.367-20.891-1.891c-1.857-0.465-3.549-1.492-5.073-3.084
		c-1.526-1.592-2.388-3.383-2.586-5.371c-0.598-5.77-0.598-10.943,0-15.52c-1.857-1.258-2.687-2.486-2.487-3.68
		c0.065-0.598,0.579-1.145,1.542-1.643c0.961-0.496,1.508-1.01,1.641-1.541c0.133-0.529,0.398-3.682,0.797-9.451
		c-3.715-0.729-5.539-2.121-5.472-4.178c0.065-1.922,1.226-3.447,3.481-4.576c2.121-0.861,4.243-1.723,6.367-2.586
		c2.452-1.258,5.535-2.387,9.25-3.383c3.249-0.859,6.5-1.689,9.749-2.486c0.332-0.064,0.729-0.1,1.193-0.1
		c1.791,0,3.881,0.697,6.268,2.09c0.066,0.266,0.232,0.764,0.498,1.492c0.264,0.73,0.396,1.26,0.396,1.592
		C368.836,248.353,368.604,248.782,368.141,249.114z"/>
	<path d="M420.466,236.878c-0.598,2.389-1.726,3.781-3.383,4.178c-4.312,1.063-11.805,2.455-22.481,4.178
		c-1.327,16.514-1.989,30.275-1.989,41.283c0,4.178,0.065,8.291,0.198,12.336c0.065,1.258,0,2.221-0.198,2.885
		c-0.333,1.061-0.995,1.557-1.99,1.492c-1.924-0.066-3.516-0.881-4.774-2.438c-1.261-1.559-1.957-3.299-2.089-5.223
		c-0.134-2.453-0.199-5.039-0.199-7.76c0-4.377,0.299-11.305,0.896-20.789c0.597-9.086,0.861-16.018,0.796-20.791
		c-1.791-0.133-4.277,0.033-7.461,0.496c-3.648,0.533-6.168,0.797-7.561,0.797c-3.248,0-5.901-0.869-7.958-2.609
		c-0.796-1.736-1.193-2.641-1.193-2.707c0-0.467,0.233-0.969,0.696-1.504c2.123-0.736,6.466-1.404,13.031-2.008
		c5.77-0.602,10.08-1.67,12.932-3.209c2.321,0.797,4.975,1.193,7.958,1.193c2.984,0,5.835-0.363,8.556-1.094
		c0.796-0.064,2.817-0.529,6.067-1.393c2.388-0.598,4.378-0.795,5.969-0.598c1.194,0,1.691,0.498,1.492,1.492
		C419.57,235.087,420.466,235.685,420.466,236.878z"/>
	<path d="M443.046,294.077c0.398,1.063,0.597,1.99,0.597,2.785c0,1.328-0.564,2.486-1.69,3.482
		c-1.129,0.994-1.891,1.457-2.288,1.393c-3.25-0.598-5.307-3.217-6.168-7.859c-0.93-5.039-2.023-9.252-3.282-12.633
		c-2.256,0.199-4.511,0.398-6.765,0.596c-2.587,0.334-4.61,1.129-6.068,2.389c-0.73,2.057-1.691,5.703-2.885,10.941
		c-1.128,4.84-2.223,8.521-3.282,11.043c-0.532,1.193-1.659,1.523-3.383,0.994c-2.188-0.73-3.35-1.725-3.481-2.984
		c-0.199-2.521,0.53-5.902,2.188-10.146c1.989-4.84,3.084-8.289,3.283-10.346c0.064-0.598-0.366-1.26-1.294-1.99
		c-0.93-0.729-1.393-1.293-1.393-1.689c0-0.332,0.149-0.68,0.448-1.045c0.298-0.363,0.994-0.662,2.089-0.896
		c1.094-0.23,1.706-0.578,1.84-1.043c1.194-3.316,3.084-9.484,5.67-18.504c2.188-7.824,4.145-13.826,5.869-18.004
		c0.398-0.928,1.227-1.393,2.487-1.393c0.928,0,1.757,0.297,2.487,0.895c1.855,1.592,3.049,3.979,3.581,7.162
		c0.397,2.721,0.762,5.439,1.094,8.156C436.016,271.032,439.465,283.931,443.046,294.077z M428.522,275.077
		c-0.199-2.453-0.631-5.205-1.293-8.256c-0.664-2.652-1.294-5.305-1.891-7.959c-1.989,5.506-3.715,11.01-5.173,16.514
		C421.227,275.177,424.012,275.077,428.522,275.077z"/>
	<path d="M482.537,273.983c-1.791,4.443-2.952,9.914-3.481,16.414c-0.333,5.637-0.632,11.273-0.896,16.91
		c-0.134,1.656-1.228,2.486-3.283,2.486c-0.597,0-1.161-0.1-1.69-0.299c-2.853-1.193-4.277-3.416-4.277-6.664
		c0-0.93,0.132-2.338,0.397-4.229c0.265-1.889,0.397-3.266,0.397-4.127c0.265-1.924,0.598-4.809,0.995-8.654
		c-4.576,4.311-9.749,7.527-15.519,9.648c-0.796,0.266-1.591,0.398-2.387,0.398c-3.052,0-5.869-1.725-8.456-5.174
		c-1.458-1.922-2.188-4.309-2.188-7.162c0-2.52,0.564-5.471,1.691-8.854c3.515-10.742,9.117-21.254,16.812-31.533
		c3.846-5.105,7.262-7.66,10.246-7.66c2.651,0,4.144,0.994,4.477,2.984c0.264,1.658-0.299,2.852-1.691,3.582
		c-2.322,1.26-3.549,1.957-3.681,2.088c-5.57,6.168-10.678,14.127-15.319,23.875c-2.853,6.035-4.277,11.439-4.277,16.215
		c0,0.861,0.032,1.725,0.1,2.586c0.132,0.066,0.331,0.383,0.597,0.945c0.265,0.564,0.63,0.746,1.094,0.547
		c4.377-1.725,10.976-6.268,19.796-13.629c0.662-0.529,1.426-2.055,2.288-4.576c0.662-1.855,1.856-2.785,3.581-2.785
		c-0.531,0,0-0.064,1.592-0.199c0.796-0.131,1.326,0,1.592,0.398c1.259,1.857,1.89,3.383,1.89,4.576
		C482.935,272.69,482.802,273.321,482.537,273.983z"/>
</g>
</svg>
