<?xml version="1.0" encoding="utf-8"?>
<!-- Generator: Adobe Illustrator 16.0.0, SVG Export Plug-In . SVG Version: 6.00 Build 0)  -->
<!DOCTYPE svg PUBLIC "-//W3C//DTD SVG 1.1//EN" "http://www.w3.org/Graphics/SVG/1.1/DTD/svg11.dtd">
<svg version="1.1" id="Layer_1" xmlns="http://www.w3.org/2000/svg" xmlns:xlink="http://www.w3.org/1999/xlink" x="0px" y="0px"
	 width="646px" height="449px" viewBox="0 0 646 449" enable-background="new 0 0 646 449" xml:space="preserve">
<g>
	<path fill="none" d="M284.3,242.888c0.273-4.912-2.679-9.709-8.779-14.257c-1.721-1.287-3.559-2.472-5.469-3.529l-0.977,1.325
		c-5.676,7.671-11.533,15.592-16.799,23.739c1.729-0.121,3.559-0.184,5.55-0.184c3.602,0,7.263,0.203,10.806,0.398
		c2.334,0.131,4.658,0.258,6.975,0.334c2.783,0.088,5.57,0.429,8.268,0.756c0.586,0.072,1.176,0.144,1.763,0.213
		c0.02-0.176,0.043-0.348,0.065-0.52c0.203-1.715,0.297-3.394,0.287-4.984c-0.004-0.205-0.009-0.414-0.018-0.625
		C284.874,245.145,284.229,244.143,284.3,242.888z"/>
	<path fill="none" d="M276.652,256.582c-4.678-0.225-9.362-0.426-14.04-0.607c-1.947-0.07-3.959-0.145-5.963-0.145
		c-2.818,0-5.115,0.145-7.23,0.463c-1.492,0.222-2.796-0.402-3.346-1.592c-0.697-0.384-1.209-0.993-1.424-1.704
		c-0.227-0.741-0.107-1.518,0.338-2.235c5.851-9.465,12.564-18.538,19.059-27.314l0.662-0.892c-2.144-0.87-4.354-1.583-6.577-2.137
		c-8.771-2.161-16.989-2.046-23.582,0.379c-7.38,2.714-13.3,8.442-16.237,15.719c-0.261,0.647-0.533,1.295-0.806,1.941
		c-1.331,3.16-2.706,6.427-2.86,9.875c-0.189,4.209,0.377,8.608,1.68,13.082c1.203,4.121,2.467,8.092,4.675,11.336
		c1.563,2.293,3.904,4.395,7.164,6.418c2.624,1.631,5.728,3.039,9.476,4.301c2.766,0.93,6.414,2.054,10.113,2.502
		c6.588,0.793,13.078-1.233,19.078-5.963c7.153-5.643,13.022-12.74,16.527-19.983c0.4-0.833,0.749-1.698,1.053-2.624l-0.997-0.129
		C281.199,256.988,278.907,256.693,276.652,256.582z"/>
	<path fill="none" d="M289.921,239.242c0.247,0.219,0.464,0.487,0.636,0.801c1.437,2.59,1.376,5.797,1.196,8.859
		c-0.069,1.09-0.17,2.188-0.302,3.276c0.732,0.015,1.463,0.01,2.19-0.011c0.084-1.238,0.449-2.441,1.059-3.491
		c0.162-0.307,0.342-0.604,0.545-0.892c0.483-0.684,1.062-1.287,1.723-1.81c-3.32-7.315-6.084-14.728-8.356-21.032
		c-0.859-2.377-1.692-4.761-2.526-7.148c-1.154-3.298-2.34-6.7-3.588-10.04c-3.096,4.562-6.229,8.893-8.963,12.621
		C280.351,224.229,288.438,230.527,289.921,239.242z"/>
	<path fill="none" d="M294.812,257.867c-1.383,0.1-2.543,0.145-3.623,0.145l-0.46-0.004c-0.155-0.002-0.312-0.004-0.468-0.008
		c-0.002,0.016-0.006,0.034-0.011,0.048c-0.758,3.218-2.342,6.36-3.946,9.054c0.824-0.457,1.66-0.914,2.507-1.372
		c2.843-1.542,5.774-3.134,8.449-4.983c-0.194-0.189-0.372-0.373-0.522-0.545C295.979,259.552,295.335,258.77,294.812,257.867z"/>
	<path fill="none" d="M395.104,123.799c-17.692-14.448-38.457-25.553-60.795-30.723c-11.101-2.569-22.503-3.856-33.904-3.377
		c-3.502,0.147-6.986,0.464-10.465,0.841c0.206,1.367-0.588,2.957-2.379,3.033c-13.3,0.569-26.514,3.157-38.924,8.028
		c-21.807,8.558-41.254,23.458-54.666,42.737c-13.666,19.646-20.449,41.934-22.37,65.652c-1.957,24.168-0.289,49.357,7.84,72.357
		c8.58,24.273,25.656,43.098,46.385,57.978c21.354,15.328,45.915,26.021,71.829,30.651c25.691,4.591,52.673,4.794,76.562-6.886
		c44.998-22,79.753-70.18,79.993-121.063C454.428,196.877,430.477,152.685,395.104,123.799z M405.685,278.379
		c-4.586,4.272-10.31,7.045-15.844,9.728l-1.938,0.944c-4.41,2.16-9.355,3.303-14.305,3.303c-3.381,0-6.726-0.521-9.936-1.549
		c-7.557-2.408-13.811-7.402-18.087-14.434c-3.614-5.941-6.083-13.137-7.134-20.808c-1.998-14.491,4.945-29.501,17.303-37.568
		c-0.518-0.798-1.076-1.519-1.684-2.167c-1.207,0.282-2.369-0.285-2.924-1.472c-0.029-0.065-0.056-0.127-0.086-0.192
		c-3.688,4.398-8.141,8.101-12.457,11.69c-2.465,2.048-5.014,4.167-7.381,6.384c-2.25,2.109-4.6,4.193-6.875,6.21
		c-3.781,3.356-7.689,6.823-11.256,10.504c1.614,3.104,1.52,6.706-0.236,9.425c-0.245,0.844-0.652,1.568-1.219,2.164
		c-1.018,2.23-2.909,3.582-5.485,3.915c-1.125,0.147-2.25,0.056-3.392-0.253c-3.191,2.377-6.777,4.293-10.3,6.123
		c0.362,0.127,0.722,0.264,1.08,0.401c1.577,0.616,2.387,2.085,1.976,3.575c-0.814,2.907-2.697,4.383-5.604,4.383
		c-2.424,0-5.176-1.009-7.602-1.9c-0.997-0.369-1.947-0.718-2.762-0.951c-0.972,1.084-2.021,2.205-3.204,3.41
		c-6.284,6.41-12.4,10.309-18.693,11.914c-2.081,0.533-4.307,0.801-6.614,0.801c-5.694,0-11.232-1.609-15.416-3.016
		c-8.241-2.771-14.21-6.49-18.246-11.369c-2.677-3.237-4.007-6.924-5.439-10.884c-1.653-4.571-2.628-9.06-2.976-13.723
		c-0.403-5.329,0.136-9.362,1.745-13.072c0.503-1.155,0.963-2.327,1.424-3.499c1.037-2.639,2.109-5.373,3.664-7.867
		c4.119-6.622,11.524-11.927,19.807-14.19c3.066-0.838,6.471-1.263,10.11-1.263c2.954,0,6.071,0.265,9.532,0.813
		c4.439,0.705,8.82,1.995,13.029,3.846c3.599-4.91,7.754-10.673,11.648-16.614c-0.999-2.411-2.337-5.478-4-8.42
		c-0.616-1.09-1.253-2.166-1.891-3.241c-1.279-2.163-2.604-4.4-3.732-6.708c-0.038-0.076-0.074-0.159-0.104-0.238
		c-5.504,0.384-9.59-1.15-12.001-4.533c-0.568-0.805-0.623-1.838-0.142-2.771c0.525-1.017,1.545-1.674,2.641-1.674
		c0.861,0.015,1.782,0.082,2.805,0.199c6.316-1.22,13.5-2.596,20.506-2.423c0.428,0.009,0.824,0.098,1.182,0.262
		c1.352-0.291,2.685-0.444,4.114-0.467c1.826,0,2.793,1.439,2.803,2.859c0.011,1.459-0.958,2.953-2.836,2.98
		c-1.661,0.023-3.378,0.384-5.392,1.134c-1.217,1.483-3.334,2.392-6.299,2.701c-0.49,0.199-0.977,0.384-1.45,0.553
		c0.995,1.891,2.099,3.761,3.17,5.571c0.468,0.792,0.937,1.584,1.399,2.381c1.95,3.368,3.469,6.922,4.742,9.989l0.025,0.062
		c0.768-0.126,1.542-0.212,2.299-0.296c0.561-0.062,1.125-0.126,1.682-0.202c2.653-0.374,5.554-0.72,8.866-1.067
		c3.397-0.352,6.8-0.648,10.202-0.948c2.49-0.214,4.987-0.436,7.478-0.676c5.077-0.49,10.232-0.674,15.217-0.855l1.998-0.072
		c1.766-0.063,3.558,0.004,5.356,0.074c2.416,0.099,4.941,0.16,6.916-0.027l-0.082-0.369c-0.329-1.501-0.658-3.003-1.011-4.497
		c-0.696-0.907-0.854-2.111-0.407-3.071c0.354-1.424,1.73-2.181,2.943-2.198c0.801-0.388,1.62-0.75,2.438-1.107
		c0.867-0.383,1.735-0.762,2.574-1.178c1.381-0.684,2.465-1.309,3.422-1.978c0.05-0.039,0.105-0.076,0.154-0.116
		c-0.219-0.127-0.459-0.261-0.599-0.335c-1.17-0.613-2.497-1.027-3.669-1.388c-1.215-0.379-2.531-0.728-3.912-1.039
		c-0.705,0.209-1.463,0.14-2.158-0.21c-0.41-0.203-0.816-0.404-1.215-0.608c-1.186-0.592-1.744-1.712-1.456-2.933
		c0.372-1.576,1.94-2.719,3.603-2.439c2.708,0.464,5.422,1.149,8.061,2.039c2.519,0.854,6.73,2.276,7.621,5.699
		c1.023,3.942-3.636,6.569-5.392,7.558c-1.3,0.734-2.677,1.342-4.012,1.931c-0.704,0.311-1.415,0.625-2.11,0.954
		c0.302,1.35,0.594,2.709,0.88,4.067c1.192,5.566,2.415,11.316,4.699,16.556c0.796-0.055,1.544,0.259,2.147,0.875
		c1.086,1.119,2.026,2.349,2.859,3.746c4.296-1.91,8.836-2.913,13.572-2.987c0.207,0,0.417,0.023,0.622,0.067
		c0.169-0.036,0.333-0.058,0.495-0.064c4.043-0.218,7.941,0.348,11.519,1.69c3.507,1.318,6.92,2.966,9.798,4.407
		c4.01,2.005,7.084,3.965,9.668,6.167c3.453,2.935,5.281,6.732,6.492,9.716C418.476,247.688,417.717,267.18,405.685,278.379z"/>
	<path fill="none" d="M342.356,201.176c-1.271,0-2.545-0.041-3.82-0.078c-1.253-0.037-2.507-0.074-3.868-0.074
		c-0.001,0-0.001,0-0.006,0c-6.004,0.014-11.323,0.251-16.261,0.721c-3.024,0.288-6.047,0.565-9.072,0.838
		c-2.651,0.242-5.301,0.481-7.949,0.735c-3.191,0.302-6.074,0.613-8.822,0.958c-1.362,0.167-2.721,0.358-4.078,0.565
		c-0.26,0.037-0.538,0.067-0.823,0.087c1.376,3.659,2.681,7.387,3.948,11.006c0.612,1.75,1.223,3.499,1.844,5.242
		c2.32,6.509,5.133,14.157,8.423,21.544L302,243c1.249-0.395,2.605-0.435,3.984-0.117c1.144,0.264,2.257,0.796,3.319,1.584
		c1.141-1.164,2.34-2.336,3.645-3.563c-0.03-0.131-0.053-0.268-0.066-0.412c-0.445,0.121-0.896,0.186-1.344,0.186
		c-1.552,0-2.803-0.76-3.436-2.091c-1.197-2.526,0.02-5.313,0.848-6.75c1.067-1.843,2.78-2.982,4.434-4.087
		c0.794-0.528,1.543-1.025,2.229-1.597c0.819-0.688,1.443-1.548,2.1-2.455c0.912-1.265,1.852-2.566,3.375-3.397
		c0.161-1.244,1.068-2.392,2.663-2.392l0.181,0.005c4.15,0.224,5.391,2.105,5.703,3.642c0.486,2.425-0.998,4.452-2.432,6.162
		c-0.674,0.796-1.408,1.538-2.156,2.253c0.01,0.004,0.015,0.006,0.023,0.006c0.561-0.515,1.123-1.029,1.678-1.551
		c2.395-2.242,5.001-4.377,7.521-6.438c5.069-4.149,10.311-8.44,14.085-13.811c0.085-0.124,0.18-0.239,0.279-0.345
		c-0.635-1.995-1.24-4.201-1.876-6.866C345.446,201.108,344.032,201.176,342.356,201.176z"/>
	<path fill="none" d="M396.327,224.65c-2.902-1.599-6.125-3.131-9.853-4.687c-3.087-1.293-6.171-1.922-9.429-1.922
		c-0.477,0-0.955,0.013-1.449,0.04l-0.148,0.002c-0.196,0-0.387-0.017-0.57-0.052c-0.163,0.032-0.332,0.044-0.516,0.052
		c-3.808,0.059-7.531,0.867-11.07,2.407c0.661,1.82,1.213,3.705,1.75,5.534c0.508,1.741,1.035,3.544,1.651,5.271
		c2.621,7.354,7.213,14.047,12.928,18.846c0.898,0.756,1.212,1.824,0.834,2.857c-0.435,1.197-1.683,2.07-2.964,2.07
		c-0.692,0-1.355-0.253-1.916-0.721c-5.521-4.637-10.203-11.219-13.539-19.047c-0.956-2.246-1.641-4.691-2.309-7.059
		c-0.458-1.643-0.929-3.33-1.493-4.943c-5.838,3.994-10.304,9.929-12.622,16.804c-1.998,5.926-2.168,12.223-0.521,19.246
		c1.898,8.109,5.01,14.517,9.239,19.045c4.958,5.303,12.712,8.385,20.462,8.129c3.578-0.12,7.311-1.119,11.099-2.975l0.979-0.48
		c2.777-1.359,5.645-2.766,8.363-4.332c6.289-3.622,10.406-8.077,12.588-13.619c2.741-6.962,3.257-15.22,1.452-23.252
		c-1.009-4.516-2.416-7.976-4.304-10.588C402.88,228.395,399.554,226.424,396.327,224.65z"/>
	<path d="M451.531,196.158c-14.072-42.138-46.449-78.094-86.34-97.375c-15.69-7.584-32.64-12.262-49.998-13.755
		c-8.987-0.773-17.988-0.39-26.929,0.702c-8.67,1.059-17.924,1.489-25.967,5.183c-0.833,0.382-1.211,1.005-1.276,1.669
		c-34.86,9.124-64.8,32.879-81.211,65.845c-10.153,20.394-13.514,43.301-13.916,65.881c-0.418,23.492,3.174,47.452,12.556,69.089
		c9.607,22.156,27.947,39.351,47.393,53.051c20.974,14.776,45.313,24.623,70.482,29.348c24.209,4.544,49.889,5.02,73.059-4.148
		c23.25-9.2,43.24-26.005,58.751-45.374c15.104-18.862,25.903-41.057,29.604-65.021C461.11,239.42,458.505,217.038,451.531,196.158z
		 M374.216,364.09c-23.889,11.68-50.87,11.477-76.562,6.886c-25.914-4.631-50.476-15.323-71.829-30.651
		c-20.729-14.88-37.806-33.704-46.385-57.978c-8.129-23-9.797-48.188-7.84-72.357c1.921-23.719,8.704-46.007,22.37-65.652
		c13.412-19.28,32.859-34.179,54.666-42.737c12.41-4.871,25.624-7.458,38.924-8.028c1.792-0.077,2.585-1.666,2.379-3.033
		c3.479-0.377,6.963-0.693,10.465-0.841c11.401-0.479,22.804,0.808,33.904,3.377c22.338,5.17,43.103,16.275,60.795,30.723
		c35.373,28.886,59.324,73.078,59.105,119.229C453.969,293.91,419.214,342.09,374.216,364.09z"/>
	<path d="M406.519,224.507c-2.584-2.202-5.658-4.163-9.668-6.167c-2.878-1.441-6.291-3.088-9.798-4.407
		c-3.577-1.342-7.476-1.908-11.519-1.69c-0.162,0.006-0.326,0.028-0.495,0.064c-0.205-0.044-0.415-0.067-0.622-0.067
		c-4.736,0.074-9.276,1.077-13.572,2.987c-0.833-1.397-1.773-2.627-2.859-3.746c-0.604-0.617-1.352-0.931-2.147-0.875
		c-2.284-5.24-3.507-10.99-4.699-16.556c-0.286-1.358-0.578-2.717-0.88-4.067c0.695-0.329,1.406-0.643,2.11-0.954
		c1.335-0.589,2.712-1.197,4.012-1.931c1.756-0.988,6.415-3.616,5.392-7.558c-0.891-3.422-5.103-4.845-7.621-5.699
		c-2.639-0.889-5.353-1.574-8.061-2.039c-1.662-0.279-3.23,0.863-3.603,2.439c-0.288,1.221,0.271,2.34,1.456,2.933
		c0.398,0.204,0.805,0.405,1.215,0.608c0.695,0.35,1.453,0.419,2.158,0.21c1.381,0.311,2.697,0.659,3.912,1.039
		c1.172,0.361,2.499,0.774,3.669,1.388c0.14,0.074,0.38,0.208,0.599,0.335c-0.049,0.04-0.104,0.077-0.154,0.116
		c-0.957,0.669-2.041,1.294-3.422,1.978c-0.839,0.416-1.707,0.795-2.574,1.178c-0.817,0.357-1.637,0.719-2.438,1.107
		c-1.213,0.017-2.589,0.774-2.943,2.198c-0.447,0.96-0.289,2.165,0.407,3.071c0.353,1.494,0.682,2.996,1.011,4.497l0.082,0.369
		c-1.975,0.187-4.5,0.126-6.916,0.027c-1.799-0.07-3.591-0.138-5.356-0.074l-1.998,0.072c-4.984,0.181-10.14,0.365-15.217,0.855
		c-2.49,0.241-4.987,0.462-7.478,0.676c-3.402,0.299-6.805,0.596-10.202,0.948c-3.313,0.347-6.213,0.693-8.866,1.067
		c-0.557,0.075-1.121,0.14-1.682,0.202c-0.757,0.084-1.531,0.169-2.299,0.296l-0.025-0.062c-1.273-3.067-2.792-6.621-4.742-9.989
		c-0.463-0.797-0.932-1.59-1.399-2.381c-1.071-1.811-2.175-3.681-3.17-5.571c0.474-0.169,0.96-0.354,1.45-0.553
		c2.965-0.31,5.082-1.218,6.299-2.701c2.014-0.75,3.73-1.111,5.392-1.134c1.878-0.027,2.847-1.521,2.836-2.98
		c-0.01-1.42-0.977-2.859-2.803-2.859c-1.43,0.023-2.763,0.176-4.114,0.467c-0.357-0.165-0.754-0.253-1.182-0.262
		c-7.006-0.173-14.189,1.203-20.506,2.423c-1.022-0.117-1.943-0.184-2.805-0.199c-1.096,0-2.115,0.657-2.641,1.674
		c-0.481,0.934-0.427,1.966,0.142,2.771c2.411,3.382,6.497,4.917,12.001,4.533c0.029,0.079,0.065,0.162,0.104,0.238
		c1.128,2.308,2.453,4.545,3.732,6.708c0.638,1.075,1.274,2.151,1.891,3.241c1.663,2.942,3.001,6.009,4,8.42
		c-3.895,5.941-8.05,11.704-11.648,16.614c-4.209-1.851-8.59-3.141-13.029-3.846c-3.461-0.549-6.578-0.813-9.532-0.813
		c-3.64,0-7.044,0.425-10.11,1.263c-8.283,2.263-15.688,7.568-19.807,14.19c-1.554,2.494-2.626,5.229-3.664,7.867
		c-0.461,1.172-0.921,2.344-1.424,3.499c-1.609,3.71-2.148,7.743-1.745,13.072c0.348,4.663,1.323,9.151,2.976,13.723
		c1.433,3.96,2.763,7.646,5.439,10.884c4.036,4.879,10.005,8.599,18.246,11.369c4.184,1.406,9.722,3.016,15.416,3.016
		c2.308,0,4.533-0.268,6.614-0.801c6.293-1.605,12.409-5.504,18.693-11.914c1.183-1.205,2.232-2.326,3.204-3.41
		c0.814,0.233,1.765,0.582,2.762,0.951c2.426,0.892,5.178,1.9,7.602,1.9c2.906,0,4.789-1.476,5.604-4.383
		c0.411-1.49-0.398-2.959-1.976-3.575c-0.358-0.138-0.718-0.274-1.08-0.401c3.522-1.83,7.108-3.746,10.3-6.123
		c1.142,0.309,2.267,0.4,3.392,0.253c2.576-0.333,4.468-1.685,5.485-3.915c0.566-0.596,0.974-1.32,1.219-2.164
		c1.756-2.719,1.851-6.32,0.236-9.425c3.566-3.681,7.475-7.147,11.256-10.504c2.275-2.017,4.625-4.101,6.875-6.21
		c2.367-2.217,4.916-4.336,7.381-6.384c4.316-3.589,8.769-7.292,12.457-11.69c0.03,0.064,0.057,0.127,0.086,0.192
		c0.555,1.187,1.717,1.754,2.924,1.472c0.607,0.648,1.166,1.369,1.684,2.167c-12.357,8.067-19.301,23.077-17.303,37.568
		c1.051,7.671,3.52,14.866,7.134,20.808c4.276,7.031,10.53,12.025,18.087,14.434c3.21,1.028,6.555,1.549,9.936,1.549
		c4.949,0,9.895-1.143,14.305-3.303l1.938-0.944c5.534-2.683,11.258-5.455,15.844-9.728c12.032-11.199,12.791-30.69,7.326-44.156
		C411.8,231.239,409.972,227.441,406.519,224.507z M282.497,207.755c1.248,3.34,2.434,6.742,3.588,10.04
		c0.834,2.388,1.667,4.771,2.526,7.148c2.272,6.305,5.036,13.717,8.356,21.032c-0.661,0.522-1.239,1.126-1.723,1.81
		c-0.203,0.287-0.383,0.585-0.545,0.892c-0.609,1.05-0.975,2.253-1.059,3.491c-0.728,0.021-1.458,0.025-2.19,0.011
		c0.132-1.089,0.232-2.187,0.302-3.276c0.18-3.063,0.24-6.27-1.196-8.859c-0.172-0.313-0.389-0.582-0.636-0.801
		c-1.482-8.715-9.57-15.014-16.387-18.867C276.269,216.648,279.401,212.316,282.497,207.755z M283.358,260.026
		c-3.505,7.243-9.374,14.341-16.527,19.983c-6,4.729-12.49,6.756-19.078,5.963c-3.699-0.448-7.348-1.572-10.113-2.502
		c-3.748-1.262-6.852-2.67-9.476-4.301c-3.26-2.023-5.602-4.125-7.164-6.418c-2.208-3.244-3.472-7.215-4.675-11.336
		c-1.303-4.474-1.869-8.873-1.68-13.082c0.155-3.448,1.53-6.715,2.86-9.875c0.273-0.646,0.545-1.294,0.806-1.941
		c2.938-7.277,8.857-13.005,16.237-15.719c6.593-2.426,14.812-2.541,23.582-0.379c2.224,0.553,4.434,1.267,6.577,2.137l-0.662,0.892
		c-6.494,8.776-13.208,17.849-19.059,27.314c-0.445,0.718-0.564,1.494-0.338,2.235c0.215,0.711,0.727,1.32,1.424,1.704
		c0.55,1.189,1.854,1.813,3.346,1.592c2.115-0.318,4.412-0.463,7.23-0.463c2.004,0,4.016,0.074,5.963,0.145
		c4.678,0.182,9.362,0.383,14.04,0.607c2.255,0.111,4.547,0.406,6.762,0.691l0.997,0.129
		C284.107,258.328,283.759,259.193,283.358,260.026z M285.702,251.164c-0.022,0.172-0.046,0.344-0.065,0.52
		c-0.587-0.069-1.177-0.141-1.763-0.213c-2.697-0.327-5.484-0.668-8.268-0.756c-2.316-0.076-4.641-0.203-6.975-0.334
		c-3.543-0.195-7.204-0.398-10.806-0.398c-1.991,0-3.821,0.063-5.55,0.184c5.266-8.147,11.123-16.068,16.799-23.739l0.977-1.325
		c1.91,1.058,3.748,2.242,5.469,3.529c6.101,4.548,9.053,9.345,8.779,14.257c-0.07,1.255,0.574,2.257,1.672,2.667
		c0.009,0.211,0.014,0.42,0.018,0.625C285.999,247.771,285.905,249.449,285.702,251.164z M288.811,265.729
		c-0.847,0.458-1.683,0.915-2.507,1.372c1.604-2.693,3.188-5.836,3.946-9.054c0.005-0.014,0.009-0.032,0.011-0.048
		c0.156,0.004,0.313,0.006,0.468,0.008l0.46,0.004c1.08,0,2.24-0.045,3.623-0.145c0.523,0.902,1.168,1.685,1.926,2.334
		c0.15,0.172,0.328,0.355,0.522,0.545C294.585,262.596,291.653,264.188,288.811,265.729z M348.353,208.176
		c-3.774,5.371-9.016,9.662-14.085,13.811c-2.52,2.062-5.126,4.196-7.521,6.438c-0.555,0.521-1.117,1.036-1.678,1.551
		c-0.009,0-0.014-0.002-0.023-0.006c0.748-0.715,1.482-1.457,2.156-2.253c1.434-1.71,2.918-3.737,2.432-6.162
		c-0.313-1.537-1.553-3.417-5.703-3.642l-0.181-0.005c-1.595,0-2.502,1.147-2.663,2.392c-1.523,0.831-2.463,2.133-3.375,3.397
		c-0.656,0.907-1.28,1.767-2.1,2.455c-0.686,0.571-1.435,1.068-2.229,1.597c-1.653,1.104-3.366,2.244-4.434,4.087
		c-0.828,1.437-2.045,4.224-0.848,6.75c0.633,1.331,1.884,2.091,3.436,2.091c0.447,0,0.898-0.064,1.344-0.186
		c0.014,0.145,0.036,0.281,0.066,0.412c-1.305,1.227-2.504,2.398-3.645,3.563c-1.063-0.788-2.176-1.32-3.319-1.584
		c-1.379-0.317-2.735-0.277-3.984,0.117l-0.129-0.279c-3.29-7.387-6.103-15.035-8.423-21.544c-0.621-1.743-1.231-3.492-1.844-5.242
		c-1.268-3.619-2.572-7.347-3.948-11.006c0.285-0.02,0.563-0.05,0.823-0.087c1.357-0.208,2.716-0.398,4.078-0.565
		c2.748-0.346,5.631-0.656,8.822-0.958c2.648-0.253,5.298-0.493,7.949-0.735c3.025-0.273,6.048-0.55,9.072-0.838
		c4.938-0.47,10.257-0.707,16.261-0.721c0.005,0,0.005,0,0.006,0c1.361,0,2.615,0.037,3.868,0.074
		c1.275,0.037,2.549,0.078,3.82,0.078c1.676,0,3.09-0.067,4.399-0.21c0.636,2.665,1.241,4.871,1.876,6.866
		C348.532,207.937,348.438,208.053,348.353,208.176z M407.821,265.117c-2.182,5.542-6.299,9.997-12.588,13.619
		c-2.719,1.566-5.586,2.973-8.363,4.332l-0.979,0.48c-3.788,1.855-7.521,2.854-11.099,2.975c-7.75,0.256-15.504-2.826-20.462-8.129
		c-4.229-4.528-7.341-10.936-9.239-19.045c-1.646-7.023-1.477-13.32,0.521-19.246c2.318-6.875,6.784-12.811,12.622-16.804
		c0.564,1.613,1.035,3.3,1.493,4.943c0.668,2.367,1.353,4.813,2.309,7.059c3.336,7.828,8.018,14.41,13.539,19.047
		c0.561,0.468,1.224,0.721,1.916,0.721c1.281,0,2.529-0.873,2.964-2.07c0.378-1.033,0.064-2.102-0.834-2.857
		c-5.715-4.799-10.307-11.491-12.928-18.846c-0.616-1.727-1.144-3.529-1.651-5.271c-0.537-1.829-1.089-3.714-1.75-5.534
		c3.539-1.54,7.263-2.349,11.07-2.407c0.184-0.008,0.353-0.021,0.516-0.052c0.184,0.036,0.374,0.052,0.57,0.052l0.148-0.002
		c0.494-0.027,0.973-0.04,1.449-0.04c3.258,0,6.342,0.629,9.429,1.922c3.728,1.556,6.95,3.088,9.853,4.687
		c3.227,1.773,6.553,3.744,8.643,6.627c1.888,2.612,3.295,6.072,4.304,10.588C411.078,249.897,410.563,258.155,407.821,265.117z"/>
</g>
</svg>
