<?xml version="1.0" encoding="UTF-8" standalone="no"?>
<svg
   xmlns:dc="http://purl.org/dc/elements/1.1/"
   xmlns:cc="http://creativecommons.org/ns#"
   xmlns:rdf="http://www.w3.org/1999/02/22-rdf-syntax-ns#"
   xmlns:svg="http://www.w3.org/2000/svg"
   xmlns="http://www.w3.org/2000/svg"
   xmlns:sodipodi="http://sodipodi.sourceforge.net/DTD/sodipodi-0.dtd"
   xmlns:inkscape="http://www.inkscape.org/namespaces/inkscape"
   version="1.1"
   id="Layer_1"
   x="0px"
   y="0px"
   width="321.24173"
   height="637.61877"
   viewBox="0 0 321.24173 637.61877"
   enable-background="new 0 0 773.961 769.393"
   xml:space="preserve"
   sodipodi:docname="Tag-Logo-Stacked-V2.svg"
   inkscape:version="1.0 (4035a4f, 2020-05-01)"><metadata
   id="metadata193"><rdf:RDF><cc:Work
       rdf:about=""><dc:format>image/svg+xml</dc:format><dc:type
         rdf:resource="http://purl.org/dc/dcmitype/StillImage" /></cc:Work></rdf:RDF></metadata><defs
   id="defs191" /><sodipodi:namedview
   inkscape:document-rotation="0"
   pagecolor="#ffffff"
   bordercolor="#666666"
   borderopacity="1"
   objecttolerance="10"
   gridtolerance="10"
   guidetolerance="10"
   inkscape:pageopacity="0"
   inkscape:pageshadow="2"
   inkscape:window-width="1680"
   inkscape:window-height="933"
   id="namedview189"
   showgrid="false"
   inkscape:zoom="2.5585844"
   inkscape:cx="160.44999"
   inkscape:cy="173.80092"
   inkscape:window-x="0"
   inkscape:window-y="23"
   inkscape:window-maximized="1"
   inkscape:current-layer="Layer_1" />
<g
   id="g22"
   transform="translate(-220.54459,-56.540684)">
	<path
   fill="none"
   d="m 304.068,406.762 c -0.43,0 -0.847,0.049 -1.242,0.149 0.062,0.854 0.091,1.764 0.091,2.721 0,2.229 -0.282,5.568 -0.866,10.196 -0.565,4.457 -0.85,7.851 -0.85,10.1 0,2.529 0.248,4.883 0.743,7.034 1.234,-1.125 2.836,-2.283 4.785,-3.465 2.542,-1.552 4.32,-2.923 5.283,-4.077 1.761,-2.052 3.05,-4.892 3.845,-8.462 0.189,-1.045 0.287,-2.084 0.287,-3.053 0,-2.824 -0.845,-5.262 -2.589,-7.44 -6.587,-3.217 -8.771,-3.703 -9.487,-3.703 z"
   id="path10" />
	<path
   fill="none"
   d="m 317.737,369.998 c 2.233,-3.203 3.171,-6.538 2.789,-9.906 -0.459,-3.4 -3.386,-6.112 -8.694,-8.045 -0.908,-0.343 -2.237,-1.03 -4.074,-2.109 -1.386,-0.921 -2.172,-1.107 -2.598,-1.107 -0.125,0 -0.26,0.018 -0.409,0.048 -0.078,1.541 -0.115,3.157 -0.115,4.852 0,2.688 0.209,7.29 0.62,13.67 0.271,5.121 0.387,9.327 0.345,12.541 0.396,-0.21 0.917,-0.54 1.593,-1.043 2.096,-1.575 2.465,-1.8 2.663,-1.897 2.955,-1.382 5.6,-3.736 7.88,-7.004 z"
   id="path12" />
	<path
   d="m 314.833,341.685 c -4.059,-2.128 -7.996,-3.509 -11.711,-4.11 -7.44,-1.341 -12.21,-2.02 -14.201,-2.02 -2.529,0 -4.875,0.736 -6.98,2.19 -0.106,0.573 -0.365,1.224 -0.783,1.967 -0.465,0.83 -0.444,1.116 -0.441,1.127 1.361,2.946 4.282,4.9 8.869,5.781 l 0.84,0.96 c 0.726,13.328 0.464,28.083 -0.784,43.862 l -0.445,0.77 c -1.292,0.892 -2.32,1.72 -3.055,2.455 -0.585,0.58 -0.869,1.191 -0.869,1.844 0,1.519 0.921,2.87 2.817,4.136 l 0.451,1.003 c -0.926,6.715 -1.503,15.339 -1.706,25.646 l -0.619,25.826 c 1.188,2.295 3.2,3.411 6.14,3.411 1.258,0 2.45,-0.32 3.539,-0.949 l 14.988,-8.752 c 5.986,-3.651 10.574,-7.406 13.615,-11.153 3.887,-4.787 5.859,-10.08 5.859,-15.744 0,-7.293 -4.202,-13.725 -12.489,-19.119 -1.516,-0.644 -3.256,-1.399 -5.075,-2.178 -2.145,-0.919 -3.428,-2.354 -3.81,-4.267 l 0.432,-1.055 c 5.306,-3.641 10.611,-7.335 15.916,-11.082 5.25,-4.359 8.601,-9.324 9.894,-14.698 0.579,-2.489 0.217,-5.659 -1.066,-9.414 -1.872,-5.222 -8.376,-10.757 -19.326,-16.437 z m -0.159,67.017 0.343,0.272 c 2.125,2.57 3.204,5.577 3.204,8.932 0,1.094 -0.109,2.258 -0.329,3.468 -0.878,3.944 -2.319,7.088 -4.293,9.391 -1.118,1.337 -3.013,2.816 -5.792,4.504 -2.551,1.549 -4.437,3.025 -5.605,4.395 l -1.781,-0.374 c -0.858,-2.785 -1.294,-5.937 -1.294,-9.36 0,-2.333 0.29,-5.821 0.867,-10.361 0.563,-4.479 0.849,-7.822 0.849,-9.935 0,-1.215 -0.052,-2.327 -0.149,-3.334 l 0.623,-1.055 c 0.852,-0.367 1.78,-0.557 2.752,-0.557 1.038,-10e-4 3.266,0.413 10.605,4.014 z m 4.767,-37.519 c -2.491,3.57 -5.417,6.16 -8.688,7.688 -0.06,0.035 -0.469,0.305 -2.314,1.686 -1.686,1.263 -2.924,1.847 -3.902,1.847 l -1.038,-1.069 c 0.102,-3.303 -0.003,-7.948 -0.311,-13.813 -0.414,-6.415 -0.625,-11.059 -0.625,-13.792 0,-2 0.051,-3.896 0.154,-5.688 l 0.657,-0.904 c 1.898,-0.751 3.289,-0.42 5.484,1.042 1.661,0.975 2.92,1.633 3.696,1.921 6.079,2.214 9.457,5.489 10.031,9.733 0.445,3.908 -0.616,7.72 -3.144,11.349 z"
   id="path14" />
	<path
   d="m 359.274,357.202 c -0.171,-0.195 -0.332,-0.457 -0.447,-0.811 -0.128,-0.219 -0.203,-0.771 -0.047,-2.596 -0.002,-0.059 -0.002,-0.113 -0.002,-0.16 l -0.89,0.05 c -1.811,-1.044 -3.634,-1.575 -5.414,-1.575 -1.992,0 -3.384,0.707 -4.25,2.162 0.192,2.517 0.29,5.115 0.29,7.73 0,6.993 -0.87,17.646 -2.583,31.666 -1.704,13.953 -2.569,24.574 -2.569,31.576 0,4.02 0.209,7.864 0.617,11.44 0.225,1.969 1.126,4.615 6.358,4.861 l 0.268,0.004 c 2.438,0 3.942,-1.059 4.73,-3.334 -0.102,-2.557 -0.15,-5.159 -0.15,-7.813 0,-7.306 0.737,-18.217 2.191,-32.438 1.448,-14.161 2.182,-24.897 2.182,-31.901 -0.002,-3.019 -0.098,-5.998 -0.284,-8.861 z"
   id="path16" />
	<path
   d="m 422.643,429.307 c 0,-0.824 -0.324,-1.188 -0.564,-1.396 -4.924,-4.2 -11.084,-8.635 -18.313,-13.185 -6.531,-3.841 -13.042,-7.692 -19.499,-11.544 l -0.343,-1.455 c 2.84,-4.415 9.344,-11.875 19.338,-22.177 8.295,-8.603 13.971,-16.139 16.86,-22.411 -0.174,-1.358 -1.022,-3 -5.342,-3 -1.22,0 -2.375,0.204 -3.436,0.608 -4.525,5.346 -9.146,10.694 -13.743,15.906 -5.522,6.349 -10.488,11.525 -14.765,15.386 l -1.731,-0.796 c 0.207,-8.254 -0.473,-19.555 -2.023,-33.592 -0.044,-0.555 -0.271,-1.321 -1.691,-1.879 -1.351,-0.528 -2.656,-0.992 -3.916,-1.389 -1.264,0.198 -2.481,0.392 -3.655,0.586 -1.488,0.377 -1.392,0.957 -1.332,1.304 1.459,8.135 2.2,17.863 2.2,28.906 0,3.638 -0.103,8.988 -0.311,16.347 -0.209,7.131 -0.314,12.61 -0.314,16.291 0,9.985 0.625,18.808 1.861,26.223 0.356,2.328 1.667,3.847 4,4.648 l 0.615,0.575 c 0.163,0.38 0.843,0.459 1.388,0.459 0.936,0 1.634,-0.148 2.08,-0.446 1.972,-0.866 2.818,-2.205 2.818,-4.293 0,-0.679 -0.104,-1.841 -0.303,-3.458 -0.214,-1.687 -0.324,-2.992 -0.324,-3.88 -0.205,-7.114 -0.469,-12.669 -0.775,-16.468 l 1.565,-0.978 c 14.56,8.676 25.492,15.297 32.499,19.69 0.47,0.31 0.864,0.468 1.167,0.468 0.157,0 0.646,-0.065 1.781,-0.663 1.33,-0.698 2.302,-0.969 3.291,-0.879 0.818,-2.556 0.917,-3.297 0.917,-3.508 z"
   id="path18" />
	<path
   d="m 480.912,356.667 c 0.24,-0.209 0.444,-0.572 0.444,-1.066 0,-0.22 -0.074,-0.793 -0.565,-2.146 -0.316,-0.871 -0.547,-1.539 -0.685,-2.008 -3.42,-1.943 -6.431,-2.929 -8.956,-2.929 -0.649,0 -1.211,0.048 -1.67,0.137 -5.052,1.237 -10.149,2.539 -15.244,3.886 -5.716,1.534 -10.535,3.293 -14.308,5.23 l -10.083,4.102 c -3.126,1.569 -4.727,3.625 -4.819,6.253 -0.082,2.626 2.521,4.481 7.752,5.51 l 0.835,1.086 c -0.842,12.249 -1.129,14.434 -1.276,15.015 -0.291,1.152 -1.306,2.16 -3.11,3.091 -1.139,0.591 -1.802,1.223 -1.859,1.771 -0.247,1.486 0.916,3.084 3.45,4.803 l 0.447,0.997 c -0.922,7.066 -0.918,15.184 0.007,24.121 0.287,2.879 1.557,5.509 3.775,7.815 2.245,2.348 4.759,3.879 7.464,4.552 9.141,2.365 20.065,3.36 32.508,2.94 1.292,-0.075 2.277,-0.666 2.983,-1.784 0.747,-1.183 0.983,-2.451 0.718,-3.86 -0.818,-4.339 -2.292,-6.233 -4.54,-5.734 -0.39,0.021 -0.89,0.115 -1.896,0.957 -1.124,0.933 -2.244,1.403 -3.322,1.403 -1.563,0.072 -3.114,0.104 -4.599,0.104 -9.83,0 -17.046,-1.563 -21.451,-4.659 l -0.342,-0.408 c -0.892,-1.895 -1.347,-4.458 -1.347,-7.627 0,-4.544 1.011,-10.777 3.003,-18.524 l 0.622,-0.712 c 3.003,-1.179 7.064,-1.836 12.067,-1.945 5.725,-0.098 9.697,-0.399 11.805,-0.904 l 0.331,-0.026 0.28,0.014 c 0.796,0 1.42,-0.291 1.98,-0.919 2.012,-2.179 2.275,-2.313 2.486,-2.417 0.461,-0.266 0.529,-0.543 0.529,-0.796 -0.008,-0.104 -0.146,-0.784 -1.869,-3.283 -1.879,-1.074 -4.155,-1.616 -6.775,-1.616 -1.496,0 -3.908,0.258 -7.177,0.77 -3.355,0.522 -5.878,0.791 -7.502,0.791 -2.302,0 -4.369,-0.335 -6.141,-0.997 l -0.671,-1.023 c 0.423,-9.547 1.104,-15.57 2.084,-18.403 l 0.591,-0.624 c 3.856,-1.563 9.621,-3.415 17.131,-5.503 7.428,-2.07 13.12,-3.896 16.915,-5.435 z"
   id="path20" />
</g>
<g
   id="g34"
   transform="translate(-220.54459,-56.540684)">
	<path
   fill="none"
   d="m 375.21,522.538 c -2.44,6.987 -4.621,14.033 -6.505,20.995 2.114,-0.188 5.613,-0.283 10.583,-0.291 -0.339,-3.504 -0.981,-7.426 -1.911,-11.705 -0.745,-2.988 -1.469,-5.995 -2.167,-8.999 z"
   id="path24" />
	<polygon
   fill="none"
   points="321.197,588.446 321.189,588.446 321.197,588.475 "
   id="polygon26" />
	<path
   d="m 321.197,587.441 c 0.669,0 1.417,-0.192 1.866,-1.628 0.271,-0.902 0.361,-2.31 0.266,-4.163 -0.209,-6.302 -0.313,-12.83 -0.313,-19.417 0,-17.254 1.051,-39.089 3.126,-64.886 l 0.87,-0.943 c 16.691,-2.695 28.538,-4.899 35.207,-6.54 2.22,-0.531 3.706,-2.432 4.549,-5.799 -0.031,-0.285 -0.031,-1.526 -3.207,-1.526 l -1.02,-1.247 c 0.077,-0.367 0.06,-0.66 -0.046,-0.788 -0.058,-0.071 -0.324,-0.304 -1.279,-0.304 -0.714,-0.083 -1.336,-0.124 -1.994,-0.124 -2.008,0 -4.407,0.352 -7.124,1.027 -5.195,1.378 -8.37,2.103 -9.689,2.21 -4.155,1.132 -8.765,1.727 -13.517,1.727 -4.591,0 -8.761,-0.607 -12.4,-1.79 -4.583,2.358 -11.403,4.022 -20.284,4.945 -9.917,0.917 -16.621,1.927 -19.952,3.006 -0.388,0.497 -0.614,0.945 -0.658,1.33 0.116,0.293 0.491,1.166 1.673,3.75 3,2.457 6.918,3.702 11.648,3.702 2.135,0 6.079,-0.417 11.716,-1.239 3.925,-0.568 7.235,-0.859 9.838,-0.859 0.755,0 1.455,0.024 2.1,0.071 l 0.96,1.022 c 0.103,7.51 -0.319,18.518 -1.252,32.714 -0.931,14.787 -1.4,25.745 -1.4,32.569 0,4.279 0.103,8.359 0.31,12.127 0.194,2.812 1.189,5.302 3.049,7.604 1.796,2.216 3.997,3.34 6.726,3.438 l 0.224,1.017 c 0.002,0 0.004,0 0.008,0 v -1.006 z"
   id="path28" />
	<path
   d="m 402.25,574.46 c -5.617,-15.905 -11.093,-36.39 -16.284,-60.887 -0.536,-4.347 -1.105,-8.611 -1.726,-12.871 -0.789,-4.705 -2.56,-8.281 -5.271,-10.606 -0.947,-0.77 -2.011,-1.157 -3.229,-1.157 -2.046,0 -2.665,0.892 -2.951,1.557 -2.668,6.457 -5.753,15.929 -9.168,28.139 -4.048,14.116 -7.05,23.909 -8.922,29.112 -0.308,1.081 -1.508,1.849 -3.652,2.308 -2.057,0.44 -2.581,0.911 -2.691,1.049 -0.303,0.374 -0.468,0.716 -0.468,0.981 0.002,0 0.125,0.528 1.792,1.835 1.774,1.397 2.563,2.722 2.418,4.052 -0.323,3.357 -2.034,8.762 -5.224,16.523 -2.524,6.464 -3.659,11.669 -3.361,15.457 0.157,1.491 1.764,2.778 4.763,3.778 2.073,0.635 3.408,0.396 4.03,-1 1.629,-3.873 3.342,-9.65 5.09,-17.149 1.905,-8.359 3.398,-14.009 4.562,-17.285 l 0.298,-0.438 c 2.433,-2.101 5.822,-3.445 10.072,-3.995 l 10.662,-0.936 1.062,0.672 c 1.986,5.331 3.738,12.06 5.198,20.004 1.279,6.885 4.176,10.641 8.849,11.499 0,-0.014 0.644,-0.108 2.723,-1.938 1.546,-1.37 2.3,-2.903 2.3,-4.694 0,-1.113 -0.293,-2.463 -0.872,-4.01 z m -21.824,-29.15 c -6.984,0 -11.333,0.153 -12.927,0.451 l -1.195,-1.278 c 2.28,-8.617 5.02,-17.362 8.148,-26.011 l 1.988,0.122 c 0.934,4.162 1.921,8.313 2.958,12.471 1.058,4.86 1.746,9.269 2.058,13.125 z"
   id="path30" />
	<path
   d="m 460.543,532.802 c -1.513,0.137 -2.379,0.214 -2.667,0.259 v 0.07 c -2.272,0 -3.749,1.171 -4.646,3.685 -1.897,5.559 -3.146,7.027 -3.918,7.641 -13.857,11.57 -24.408,18.822 -31.342,21.551 -0.291,0.128 -0.612,0.193 -0.922,0.193 -0.629,0 -1.507,-0.272 -2.118,-1.578 -0.411,-0.875 -0.586,-1.07 -0.606,-1.091 l -0.426,-0.75 c -0.104,-1.376 -0.157,-2.761 -0.157,-4.136 0,-7.615 2.289,-16.33 6.813,-25.902 7.293,-15.313 15.436,-28.009 24.215,-37.728 0.213,-0.215 0.471,-0.468 6.056,-3.498 1.796,-0.938 2.469,-2.379 2.123,-4.545 -0.275,-1.629 -1.192,-3.808 -6.001,-3.808 -4.323,0 -9.455,3.905 -15.255,11.609 -11.952,15.96 -20.774,32.516 -26.233,49.199 -1.73,5.182 -2.603,9.751 -2.603,13.572 0,4.222 1.084,7.794 3.226,10.621 4.822,6.432 10.333,8.978 15.863,7.135 8.85,-3.25 16.921,-8.273 23.974,-14.919 l 1.743,0.867 c -0.611,5.952 -1.142,10.534 -1.559,13.62 0.003,1.259 -0.204,3.426 -0.629,6.476 -0.408,2.896 -0.615,5.081 -0.615,6.496 0,4.687 1.991,7.795 6.078,9.503 0.678,0.257 1.448,0.394 2.254,0.394 3.439,0 4.009,-1.578 4.117,-2.953 0.413,-8.816 0.885,-17.666 1.405,-26.521 0.837,-10.278 2.699,-19.049 5.54,-26.095 0.367,-0.911 0.547,-1.776 0.547,-2.579 0,-1.654 -0.938,-3.872 -2.786,-6.602 -0.168,-0.25 -0.73,-0.302 -1.471,-0.186 z"
   id="path32" />
</g>
<g
   id="g40"
   transform="translate(-220.54459,-56.540684)">
	<path
   fill="none"
   d="m 395.873,652.485 c -5.399,-0.321 -10.783,-0.88 -16.208,-0.712 -4.201,0.127 -11.543,-0.344 -12.103,5.353 -0.513,5.222 4.269,7.165 8.617,8.104 6.01,1.299 21.082,4.238 24.91,-2.386 3.182,-5.497 -0.281,-8.566 -5.216,-10.359 z"
   id="path36" />
	<path
   d="m 405.172,650.173 c 0.903,-1.149 0.757,-2.272 -1.842,-2.326 -1.566,-0.033 -3.16,-0.113 -4.771,-0.215 -5.037,-1.477 -10.232,-2.238 -12.754,-2.553 -1.49,-0.188 -3.371,0.657 -4.47,1.697 -5.428,0.116 -10.74,0.897 -15.63,3.231 -4.767,2.272 -7.525,7.747 -5.723,12.856 1.833,5.201 9.729,6.701 14.341,7.557 11.25,2.074 26.302,2.312 34.28,-7.24 5.064,-6.069 1.996,-10.216 -3.431,-13.007 z m -4.083,12.671 c -3.829,6.624 -18.9,3.685 -24.91,2.386 -4.348,-0.939 -9.129,-2.883 -8.617,-8.104 0.559,-5.696 7.901,-5.226 12.103,-5.353 5.425,-0.168 10.81,0.391 16.208,0.712 4.935,1.793 8.398,4.862 5.216,10.359 z"
   id="path38" />
</g>
<g
   id="g46"
   transform="translate(-220.54459,-56.540684)">
	<path
   fill="none"
   d="m 538.536,339.481 c 1.673,-65.006 -4.909,-129.832 -4.765,-194.816 0.044,-19.982 3.561,-43.387 -5.705,-62.039 -8.748,-17.609 -28.128,-22.693 -46.432,-23.417 -33.306,-1.317 -66.503,-0.203 -99.779,1.391 -31.694,1.518 -63.506,-2.191 -95.147,0.395 -18.558,1.517 -44.815,3.688 -53.459,23.458 -5.558,12.709 -4.857,27.732 -4.423,41.783 0.841,-0.267 1.89,-0.122 1.89,0.722 -0.011,55.702 -0.974,111.396 -2.197,167.083 -1.453,66.181 -3.248,132.356 -4.111,198.549 -0.395,30.254 -0.625,60.515 -0.583,90.771 0.023,16.979 -0.724,39.21 11.668,52.659 16.471,17.876 43.38,9.325 64.559,12.988 11.536,1.995 21.424,6.867 29.783,15.144 6.483,6.42 11.134,15.224 18.913,20.238 10.635,6.856 25.296,8.58 37.714,7.53 10.818,-0.914 21.036,-4.394 30.248,-10.135 17.295,-10.778 31.22,-26.101 48.651,-36.717 9.472,-5.769 18.627,-7.841 29.621,-8.749 12.383,-1.023 27.011,-2.007 33.124,-14.86 5.444,-11.445 2.931,-24.694 2.532,-36.87 -0.515,-15.756 0.562,-31.685 0.957,-47.443 0.823,-32.86 1.707,-65.72 2.832,-98.571 1.131,-33.033 3.258,-66.059 4.109,-99.094 z"
   id="path42" />
	<path
   d="m 540.862,354.972 c 3.269,-65.056 -3.109,-130.063 -4.068,-195.09 -0.212,-14.379 0.308,-28.735 0.29,-43.107 -0.012,-8.801 -0.66,-17.681 -2.911,-26.214 -4.039,-15.316 -14.838,-25.498 -29.841,-30.017 -11.263,-3.392 -23.309,-3.422 -34.955,-3.756 -15.908,-0.458 -31.833,-0.225 -47.737,0.252 -16.352,0.491 -32.682,1.534 -49.032,2.047 -16.347,0.513 -32.714,-0.337 -49.055,-0.689 -19.114,-0.412 -38.574,-0.305 -57.414,3.333 -10.746,2.075 -21.709,5.544 -29.584,13.514 -6.394,6.471 -8.868,15.497 -9.9,24.282 -1.395,11.872 -0.584,23.991 -0.57,35.912 0.001,0.776 0.89,0.961 1.687,0.779 -0.264,129.525 -5.534,258.976 -6.629,388.491 -0.217,25.613 -1.363,51.572 0.245,77.158 1.012,16.1 4.87,33.419 19.851,42.094 8.486,4.913 18.768,5.831 28.36,5.811 13.247,-0.028 26.679,-0.649 39.403,3.697 11.421,3.902 19.773,12.99 27.057,22.18 5.778,7.289 12.15,12.342 21.111,15.184 19.793,6.275 41.595,3.475 59.447,-6.735 17.563,-10.045 31.44,-25.454 48.372,-36.478 5.097,-3.319 10.197,-6.166 16.145,-7.607 6.246,-1.514 12.819,-1.688 19.196,-2.262 10.052,-0.903 19.103,-2.94 26.425,-10.259 7.669,-7.664 7.988,-19.638 7.522,-29.742 -0.697,-15.139 -0.521,-30.087 -0.149,-45.24 1.612,-65.869 3.427,-131.731 6.734,-197.538 z m -9.268,182.173 c -0.396,15.759 -1.472,31.688 -0.957,47.443 0.398,12.176 2.912,25.425 -2.532,36.87 -6.113,12.854 -20.741,13.837 -33.124,14.86 -10.994,0.908 -20.149,2.98 -29.621,8.749 -17.432,10.616 -31.356,25.938 -48.651,36.717 -9.212,5.741 -19.43,9.221 -30.248,10.135 -12.418,1.05 -27.08,-0.674 -37.714,-7.53 -7.778,-5.015 -12.43,-13.818 -18.913,-20.238 -8.358,-8.276 -18.247,-13.148 -29.783,-15.144 -21.178,-3.663 -48.088,4.888 -64.559,-12.988 -12.392,-13.449 -11.645,-35.681 -11.668,-52.659 -0.042,-30.256 0.188,-60.517 0.583,-90.771 0.864,-66.192 2.658,-132.368 4.111,-198.549 1.223,-55.687 2.186,-111.381 2.197,-167.083 0,-0.844 -1.049,-0.989 -1.89,-0.722 -0.435,-14.05 -1.135,-29.074 4.423,-41.783 8.645,-19.77 34.902,-21.941 53.459,-23.458 31.641,-2.586 63.453,1.123 95.147,-0.395 33.276,-1.594 66.474,-2.708 99.779,-1.391 18.304,0.724 37.684,5.808 46.432,23.417 9.266,18.651 5.749,42.056 5.705,62.039 -0.145,64.984 6.438,129.811 4.765,194.816 -0.851,33.035 -2.978,66.061 -4.109,99.093 -1.125,32.852 -2.009,65.712 -2.832,98.572 z"
   id="path44" />
</g>
<g
   id="g186"
   transform="translate(-220.54459,-56.540684)">
	<path
   fill="none"
   d="m 331.546,166.661 0.047,-0.018 c 0.069,-0.027 0.138,-0.045 0.207,-0.071 0.004,-2.425 0.213,-4.797 0.566,-7.124 -0.035,-0.012 -0.073,-0.024 -0.107,-0.036 l -0.267,-0.089 c -0.298,2.154 -0.473,4.347 -0.473,6.584 10e-4,0.253 0.016,0.503 0.027,0.754 z"
   id="path48" />
	<path
   fill="none"
   d="m 332.37,157.236 0.359,0.121 c 0.506,-2.579 1.218,-5.081 2.117,-7.493 l -0.508,-0.114 c -0.859,2.411 -1.53,4.909 -2,7.481 0.01,0.003 0.022,0.002 0.032,0.005 z"
   id="path50" />
	<path
   fill="none"
   d="m 413.292,133.261 c 0.306,0.317 0.622,0.624 0.919,0.949 -0.295,-0.328 -0.61,-0.638 -0.915,-0.958 -10e-4,0.004 -0.003,0.006 -0.004,0.009 z"
   id="path52" />
	<path
   fill="none"
   d="m 396.627,122.087 c 1.763,0.697 3.472,1.498 5.124,2.394 0.021,0.008 0.036,0.022 0.056,0.032 3.837,2.088 7.364,4.678 10.474,7.707 0.01,0 0.017,-0.001 0.026,-0.001 -4.446,-4.393 -9.765,-7.898 -15.659,-10.275 -0.006,0.047 -0.015,0.095 -0.021,0.143 z"
   id="path54" />
	<path
   fill="none"
   d="m 386.379,119.326 c 2.739,0.413 5.399,1.061 7.964,1.925 l 0.005,-0.023 0.066,-0.108 c 0.002,-0.006 0.011,-0.014 0.014,-0.02 -2.577,-0.891 -5.253,-1.563 -8.01,-2.002 z"
   id="path56" />
	<path
   fill="none"
   d="m 354.255,125.578 c 0.034,0.119 0.07,0.236 0.106,0.354 3.578,-2.235 7.463,-4.014 11.591,-5.233 -10e-4,-0.059 -0.006,-0.119 -0.007,-0.178 l -0.006,-0.229 c -4.174,1.181 -8.111,2.917 -11.733,5.124 0.016,0.055 0.033,0.108 0.049,0.162 z"
   id="path58" />
	<path
   fill="none"
   d="m 339.522,139.715 c 0.105,0.125 0.209,0.239 0.313,0.353 1.428,-2.15 3.023,-4.174 4.768,-6.06 -0.002,-0.002 -0.005,-0.005 -0.008,-0.007 l -0.43,-0.399 c -1.74,1.863 -3.33,3.865 -4.756,5.989 z"
   id="path60" />
	<path
   fill="none"
   d="m 335.524,147.821 c 0.039,0.009 0.076,0.022 0.115,0.032 0.771,-1.817 1.628,-3.588 2.607,-5.283 0.036,-0.06 0.068,-0.122 0.104,-0.18 0.054,-0.092 0.113,-0.181 0.17,-0.271 -0.038,-0.041 -0.08,-0.08 -0.118,-0.121 -0.106,-0.115 -0.208,-0.231 -0.31,-0.346 -0.104,0.176 -0.211,0.352 -0.313,0.529 -1.008,1.776 -1.883,3.636 -2.662,5.546 z"
   id="path62" />
	<path
   fill="none"
   d="m 333.134,178.193 c -0.003,10e-4 -0.005,10e-4 -0.008,0.002 0.072,0.269 0.146,0.538 0.222,0.805 0.024,-0.007 0.049,-0.016 0.072,-0.023 -0.07,-0.269 -0.139,-0.538 -0.205,-0.808 z"
   id="path64" />
	<path
   fill="none"
   d="m 332.727,176.093 c -0.206,-1.031 -0.367,-2.074 -0.503,-3.127 -0.195,-1.48 -0.299,-2.988 -0.354,-4.51 l -0.091,0.027 c -0.054,0.014 -0.1,0.009 -0.152,0.018 0.066,1.253 0.159,2.499 0.318,3.724 -0.028,0.226 -0.055,0.454 -0.081,0.679 0.113,0.783 0.246,1.558 0.397,2.327 0.063,0.04 0.125,0.079 0.188,0.119 0.084,0.427 0.189,0.848 0.29,1.27 l 0.083,-0.021 c 0.007,-0.002 0.014,-0.003 0.021,-0.005 -0.041,-0.167 -0.083,-0.332 -0.116,-0.501 z"
   id="path66" />
	<path
   fill="none"
   d="m 346.178,132.312 c 0.008,0.007 0.016,0.015 0.024,0.022 1.858,-1.822 3.863,-3.49 5.995,-4.987 -0.021,-0.063 -0.048,-0.125 -0.068,-0.188 -0.036,-0.111 -0.067,-0.222 -0.099,-0.334 -2.228,1.528 -4.319,3.239 -6.251,5.116 z"
   id="path68" />
	<path
   fill="none"
   d="m 333.845,180.668 c 0.295,0.923 0.61,1.837 0.959,2.733 -0.334,-0.902 -0.632,-1.821 -0.911,-2.749 z"
   id="path70" />
	<path
   fill="none"
   d="m 368.383,119.74 c 0.003,0.123 0.008,0.184 0.012,0.245 0.002,0.029 0.003,0.061 0.005,0.091 3.5,-0.832 7.138,-1.305 10.891,-1.305 1.6,0 3.174,0.1 4.732,0.257 0.002,-0.014 0.005,-0.027 0.007,-0.041 l 0.034,-0.195 c -1.7,-0.187 -3.42,-0.306 -5.169,-0.306 -3.62,0 -7.134,0.429 -10.522,1.196 0.001,0.02 0.01,0.037 0.01,0.058 z"
   id="path72" />
	<path
   d="m 437.519,130.592 c -10.86,-17.534 -26.936,-28.224 -47.755,-31.265 -26.666,-3.897 -56.496,6.703 -70.889,33.014 -11.372,20.791 -12.895,42.089 -1.857,63.142 8.02,15.296 18.026,29.54 26.592,44.568 8.646,15.168 17.151,30.47 24.667,46.217 4.58,9.596 7.173,20.143 10.753,30.543 0.441,-0.573 0.9,-0.909 0.996,-1.33 5.736,-25.238 17.158,-47.964 30.514,-69.897 10.394,-17.067 21.079,-34.011 30.411,-51.655 11.33,-21.426 9.062,-43.169 -3.432,-63.337 z m -103.181,19.158 0.508,0.114 0.071,0.016 c 3.535,0.834 7.01,2.103 10.387,3.335 3.765,1.375 7.658,2.796 11.704,3.638 l 0.203,0.04 c 3.057,2.228 6.294,4.35 9.379,6.343 -3.624,0.479 -6.863,0.822 -9.881,1.047 -0.704,0.053 -1.447,0.091 -2.406,0.124 -6.07,-1.824 -12.191,-3.888 -18.116,-5.885 l -3.458,-1.165 -0.359,-0.121 c -0.009,-0.003 -0.021,-0.002 -0.031,-0.005 0.469,-2.572 1.14,-5.07 1.999,-7.481 z m 81.737,5.032 c 2.819,-1.252 5.457,-2.415 7.995,-3.522 0.283,0.864 0.542,1.738 0.776,2.622 -1.403,-0.354 -3.668,-0.174 -6.977,0.561 -0.573,0.097 -1.177,0.213 -1.794,0.339 z m -34.033,18.851 c -0.574,2.53 -1.202,5.163 -1.868,7.836 -0.749,-1.473 -1.453,-2.829 -2.144,-4.124 0.977,-0.999 2.368,-2.431 3.741,-3.905 z m -13.466,-0.837 c -0.181,0.691 -0.364,1.382 -0.554,2.071 l -3.862,1.937 c 0.952,-1.178 1.968,-2.458 3.081,-3.883 0.444,-0.044 0.889,-0.085 1.335,-0.125 z m -35.838,3.825 c -0.101,-0.422 -0.205,-0.843 -0.29,-1.27 -0.063,-0.04 -0.125,-0.079 -0.188,-0.119 -0.151,-0.769 -0.284,-1.544 -0.397,-2.327 0.026,-0.225 0.053,-0.453 0.081,-0.679 -0.16,-1.226 -0.252,-2.471 -0.318,-3.724 0.052,-0.009 0.099,-0.004 0.152,-0.018 l 0.091,-0.027 0.043,-0.013 0.004,0.004 0.265,-0.085 -0.008,-0.02 c 5.546,-2.244 11.685,-2.428 18.549,-2.428 l 1.638,0.002 c 2.359,0.707 4.483,1.318 6.469,1.861 -1.685,0.748 -3.265,1.427 -4.81,2.068 -2.733,1.134 -5.447,2.472 -8.072,3.766 l -0.242,0.12 c -4.452,0.81 -8.779,1.773 -12.865,2.862 -0.007,0.002 -0.014,0.003 -0.021,0.005 z m 59.287,-5.658 1.314,0.894 c -1.442,-0.238 -2.77,-0.405 -3.741,-0.52 l -0.086,-0.154 0.567,-0.049 c 0.65,-0.055 1.299,-0.111 1.946,-0.171 z m -3.918,2.422 c 0.547,0.967 1.092,1.935 1.636,2.904 -1.421,-1.057 -2.939,-2.149 -4.6,-3.309 0.991,0.131 1.979,0.265 2.964,0.405 z m -1.489,-8.971 0.332,-1.397 0.664,0.195 c -0.333,0.399 -0.665,0.8 -0.996,1.202 z m -1.225,5.18 0.083,-0.351 0.179,-0.209 0.29,0.516 z m 3.091,-0.252 c -0.234,-0.421 -0.465,-0.844 -0.696,-1.267 l -0.027,-0.05 c 0.586,0.409 1.174,0.818 1.764,1.226 z m 0.734,-4.608 c 0.228,-0.286 0.455,-0.572 0.681,-0.859 l 0.725,0.207 z m -3.971,-4.553 -2.113,-0.586 -1.04,-1.891 c 1.6,-0.969 3.062,-1.877 4.445,-2.76 -0.428,1.746 -0.859,3.492 -1.292,5.237 z m 7.06,5.39 1.353,-0.625 c 3.225,0.916 6.663,1.908 10.159,3.01 -0.615,0.037 -1.196,0.082 -1.755,0.136 -3.036,0.293 -6.063,0.578 -9.091,0.852 -1.072,-0.731 -2.134,-1.468 -3.194,-2.208 0.841,-0.389 1.684,-0.778 2.528,-1.165 z m 0.209,-3.33 c -0.357,-0.107 -0.713,-0.215 -1.07,-0.321 0.248,-0.321 0.495,-0.643 0.742,-0.965 l 0.129,-0.169 c 2.919,-0.439 5.864,-0.971 8.774,-1.508 -2.436,1.109 -4.87,2.225 -7.301,3.345 -0.421,-0.125 -0.843,-0.252 -1.274,-0.382 z m 5.334,-11.499 c -2.162,2.892 -4.577,5.769 -6.869,8.47 l -3.266,0.579 0.284,-1.172 c 0.44,-1.832 0.881,-3.664 1.33,-5.494 1.18,-0.78 2.362,-1.561 3.536,-2.358 2.799,-1.902 5.802,-3.413 8.265,-4.561 -1.037,1.468 -2.138,3.009 -3.28,4.536 z m -12.141,2.288 c -1.318,0.887 -2.944,1.98 -4.528,3.005 -0.12,-0.223 -0.243,-0.449 -0.374,-0.692 2.167,-2.742 4.034,-5.751 5.848,-8.675 0.915,-1.474 1.854,-2.989 2.84,-4.477 -0.236,1.146 -0.452,2.152 -0.665,3.102 -0.436,1.948 -0.921,4.017 -1.57,6.699 z m -22.566,4.951 c 0.821,0.137 1.641,0.27 2.462,0.401 0.255,0.628 0.504,1.226 0.748,1.8 -1.073,-0.733 -2.143,-1.467 -3.21,-2.201 z m 4.241,-1.772 c -0.656,-1.564 -1.307,-3.168 -1.939,-4.782 2.106,1.618 4.323,3.302 6.751,5.127 -0.034,0.132 -0.067,0.264 -0.1,0.396 -1.371,-0.239 -2.842,-0.47 -4.712,-0.741 z m 6.294,4.244 c 0.045,-0.233 0.092,-0.465 0.14,-0.697 0.243,0.046 0.486,0.092 0.729,0.139 l -0.101,0.13 z m -1.264,6.558 c 0.018,0.012 0.036,0.024 0.054,0.036 0.006,0.039 0.006,0.079 0.013,0.117 -0.023,-0.045 -0.048,-0.089 -0.071,-0.134 0.002,-0.007 0.003,-0.013 0.004,-0.019 z m 0.19,5.583 -0.522,0.257 c -0.406,0.2 -0.812,0.399 -1.218,0.599 0.075,-0.288 0.15,-0.581 0.227,-0.881 l 1.43,-0.122 z m -3.293,-6.077 0.046,0.088 -1.155,1.502 c -1.301,-0.293 -2.639,-0.611 -3.988,-0.949 1.438,-0.665 2.903,-1.361 4.367,-2.076 l 0.02,0.041 c 0.225,0.46 0.461,0.914 0.71,1.394 z m 2.208,-7.165 c -0.211,0.948 -0.379,1.771 -0.521,2.562 -0.229,0.118 -0.463,0.235 -0.73,0.37 l -0.155,0.078 c -0.536,-1.143 -1.07,-2.321 -1.592,-3.51 1,0.162 1.999,0.329 2.998,0.5 z m -7.596,6.078 c -0.783,0.373 -1.543,0.728 -2.272,1.063 -0.829,-0.22 -1.649,-0.443 -2.476,-0.674 1.289,-0.057 2.464,-0.142 3.563,-0.257 0.387,-0.041 0.78,-0.084 1.185,-0.132 z m 5.256,4.973 c -0.029,0.117 -0.058,0.233 -0.087,0.349 -0.064,0.005 -0.129,0.011 -0.194,0.017 z m 5.626,-14.718 c 0.366,-1.349 0.782,-2.74 1.266,-4.232 0.651,1.252 1.301,2.48 1.941,3.678 -0.443,0.651 -0.899,1.303 -1.361,1.944 z m -22.476,16.711 c 2.488,-1.07 5.758,-2.483 9.033,-3.948 1.795,0.466 3.612,0.909 5.541,1.35 l -0.945,1.229 c -5.158,0.471 -9.903,1.038 -14.443,1.726 0.276,-0.123 0.547,-0.242 0.814,-0.357 z m 21.278,1.954 c 0.589,1.024 1.181,2.046 1.774,3.068 -0.568,0.581 -1.138,1.161 -1.708,1.74 -1.859,1.889 -3.781,3.842 -5.615,5.856 -0.325,0.356 -0.653,0.729 -0.992,1.125 1.221,-3.742 2.209,-6.978 3.084,-10.087 1.152,-0.572 2.303,-1.14 3.457,-1.702 z m 3.372,-1.622 0.588,-0.283 c 0.018,-0.009 0.037,-0.018 0.055,-0.026 0.411,0.089 0.834,0.144 1.272,0.144 0.392,0 0.772,-0.042 1.142,-0.114 -0.892,1.007 -1.852,2.05 -2.928,3.177 -0.426,-0.779 -0.861,-1.559 -1.298,-2.338 0.389,-0.188 0.778,-0.375 1.169,-0.56 z m 1.917,-2.32 c -0.147,0 -0.288,-0.029 -0.431,-0.043 -1.53,-0.151 -2.818,-1.075 -3.476,-2.387 -0.224,-0.449 -0.369,-0.938 -0.428,-1.459 -0.019,-0.164 -0.049,-0.324 -0.049,-0.493 0,-1.174 0.469,-2.234 1.219,-3.022 0.215,-0.225 0.449,-0.433 0.708,-0.608 0.702,-0.477 1.546,-0.754 2.458,-0.754 0.38,0 0.743,0.064 1.094,0.155 0.974,0.252 1.811,0.825 2.398,1.606 0.551,0.733 0.891,1.635 0.891,2.624 0,0.954 -0.313,1.828 -0.829,2.547 -0.796,1.107 -2.087,1.834 -3.555,1.834 z m -46.637,-10.996 c 0.035,0.012 0.072,0.024 0.107,0.036 4.695,1.577 9.949,3.34 15.281,5.017 -5.662,0.003 -10.777,0.185 -15.848,2.106 -0.069,0.026 -0.138,0.044 -0.207,0.071 l -0.047,0.018 c -0.012,-0.251 -0.026,-0.501 -0.026,-0.754 0,-2.237 0.174,-4.43 0.473,-6.584 z M 333.348,179 c -0.076,-0.267 -0.15,-0.536 -0.222,-0.805 0.003,-0.001 0.005,-0.001 0.008,-0.002 l 0.082,-0.024 0.159,-0.046 v -10e-4 c 1.177,-0.325 3.011,-0.716 5.471,-1.168 -1.945,0.83 -3.733,1.495 -5.425,2.023 -0.024,0.007 -0.049,0.016 -0.073,0.023 z m 90.02,-29.683 c -4.911,2.143 -9.82,4.33 -15.448,6.879 -1.922,0.338 -3.844,0.685 -5.765,1.032 l -0.382,0.069 c -2.62,0.473 -5.242,0.946 -7.864,1.399 1.923,-2.538 3.837,-5.123 5.692,-7.628 l 0.299,-0.404 c 1.453,-1.965 2.906,-3.929 4.372,-5.884 l 1.652,-0.728 c 3.702,-1.626 7.531,-3.308 11.106,-5.44 0.21,-0.127 0.327,-0.26 0.407,-0.391 2.448,3.388 4.458,7.109 5.952,11.086 z m -57.423,-28.796 c 0.001,0.059 0.006,0.119 0.007,0.178 0.18,9.824 4.718,20.084 8.685,27.96 -0.673,1.932 -1.259,3.754 -1.785,5.555 -2.507,-1.89 -5.728,-4.332 -8.946,-6.847 l -0.159,-0.422 c -0.114,-0.305 -0.229,-0.611 -0.341,-0.92 -1.154,-3.157 -2.72,-6.202 -4.238,-9.157 -1.783,-3.469 -3.625,-7.056 -4.76,-10.779 -0.016,-0.053 -0.031,-0.105 -0.047,-0.158 -0.036,-0.118 -0.072,-0.235 -0.106,-0.354 -0.016,-0.054 -0.033,-0.107 -0.049,-0.162 3.622,-2.208 7.559,-3.943 11.733,-5.124 z m -13.915,6.303 c 0.032,0.112 0.063,0.223 0.099,0.334 0.021,0.063 0.048,0.125 0.068,0.188 1.123,3.423 2.795,6.643 4.442,9.797 1.181,2.26 2.401,4.597 3.392,6.987 0.034,0.081 0.067,0.162 0.101,0.243 -5.291,-4.247 -9.854,-8.191 -13.929,-12.04 -0.008,-0.007 -0.016,-0.015 -0.024,-0.022 l -0.399,-0.372 c 1.93,-1.876 4.022,-3.586 6.25,-5.115 z m -7.864,6.778 0.43,0.399 c 0.002,0.002 0.005,0.005 0.008,0.007 4.984,4.679 10.456,9.324 17.212,14.613 0.342,0.885 0.679,1.769 1.016,2.652 l 0.094,0.245 c 0.546,1.433 1.094,2.865 1.652,4.292 -1.913,-0.271 -3.924,-0.563 -5.881,-0.889 l -1.383,-0.95 c -0.701,-0.479 -1.401,-0.959 -2.095,-1.446 -1.621,-1.138 -3.143,-2.533 -4.635,-3.901 -0.938,-0.861 -2,-1.837 -3.082,-2.721 -1.042,-0.852 -2.116,-1.563 -3.17,-2.262 -1.587,-1.053 -3.086,-2.048 -4.448,-3.524 l -0.046,-0.049 c 0,0 0,-0.001 -0.001,-0.001 -0.104,-0.113 -0.208,-0.227 -0.313,-0.353 l -0.112,-0.125 c 1.423,-2.122 3.013,-4.124 4.754,-5.987 z m -6.387,8.58 c 0.103,-0.177 0.209,-0.353 0.313,-0.529 0.102,0.115 0.204,0.231 0.31,0.346 0.038,0.041 0.08,0.08 0.118,0.121 2.703,2.889 6.209,5.432 9.605,7.89 1.803,1.306 3.509,2.542 5.068,3.804 -2.886,-0.756 -5.709,-1.841 -8.495,-2.912 -2.92,-1.12 -5.94,-2.275 -9.059,-3.05 -0.039,-0.01 -0.077,-0.022 -0.115,-0.032 l -0.407,-0.093 c 0.779,-1.909 1.654,-3.769 2.662,-5.545 z m 1.284,48.752 c 6.142,-2.538 12.087,-5.396 17.204,-7.93 -1.724,1.95 -3.679,3.762 -5.584,5.528 -2.784,2.583 -5.658,5.255 -7.872,8.399 -1.589,-1.854 -3.036,-3.833 -4.328,-5.918 0.198,0.012 0.397,-0.002 0.58,-0.079 z m 53.876,20.449 c -3.313,-9.398 -6.951,-18.106 -11.121,-26.62 0.775,-3.073 1.483,-6.099 2.294,-9.65 3.108,2.239 5.938,4.386 8.64,6.554 3.608,6.517 8.231,15.134 12.049,24.086 l 0.041,0.092 c -3.646,2.382 -7.643,4.267 -11.893,5.581 z m 21.071,-13.352 -0.08,-0.053 c -3.794,-2.473 -7.103,-5.96 -10.302,-9.333 l -0.048,-0.052 c -1.82,-1.917 -3.703,-3.901 -5.644,-5.656 -1,-0.904 -2.114,-1.855 -3.502,-2.992 l -3.436,-6.117 c 2.918,0.479 5.381,1.019 7.71,1.691 7.972,5.463 14.464,10.256 20.23,15.881 l 0.087,0.08 c -1.482,2.331 -3.162,4.52 -5.015,6.551 z m 6.228,-8.573 c -4.438,-4.235 -9.188,-7.891 -12.889,-10.581 5.096,2.296 9.957,4.415 15.688,4.766 -0.804,2.011 -1.74,3.952 -2.799,5.815 z m 3.519,-7.718 -0.168,-0.013 c -5.741,-0.338 -11.027,-2.759 -16.152,-5.105 -2.064,-0.944 -4.198,-1.92 -6.341,-2.752 -0.596,-0.232 -1.217,-0.434 -1.801,-0.618 l -3.837,-2.615 c 1.942,-0.186 3.884,-0.376 5.827,-0.566 l 3.682,-0.359 c 1.307,-0.125 2.579,-0.169 3.656,-0.196 l 0.238,0.077 c 0.757,0.264 1.505,0.532 2.246,0.798 4.101,1.475 7.974,2.868 12.368,2.868 0.798,0 1.606,-0.048 2.404,-0.142 -0.443,2.972 -1.154,5.857 -2.122,8.623 z m 2.311,-10.699 -0.201,0.005 c -0.708,0.084 -1.447,0.127 -2.196,0.127 -3.285,0 -6.579,-0.829 -9.313,-1.698 4.087,-0.014 8.084,-0.171 12.003,-1.372 -0.042,0.992 -0.114,1.976 -0.216,2.951 -0.027,-0.002 -0.047,-0.012 -0.077,-0.013 z m 0.358,-4.783 c -0.191,-0.022 -0.388,-0.013 -0.586,0.048 -4.745,1.454 -9.997,1.474 -15.078,1.493 l -1.151,0.005 -1.491,-0.561 c -2.131,-0.806 -4.145,-1.566 -6.155,-2.192 -1.635,-0.507 -3.284,-0.99 -4.933,-1.473 l -0.242,-0.071 c 4.298,-1.976 8.699,-3.979 13.056,-5.947 l 0.949,-0.24 c 1.261,-0.32 2.828,-0.717 4.406,-1.069 l 0.707,-0.116 c 0.508,-0.076 1.161,-0.224 1.916,-0.394 l 0.293,-0.065 c 3.059,-0.511 5.102,-0.478 5.988,0.09 0.157,0.099 0.346,0.149 0.562,0.149 0.247,0 0.472,-0.066 0.632,-0.122 0.727,3.297 1.133,6.715 1.133,10.231 -0.001,0.079 -0.004,0.156 -0.006,0.234 z m -9.831,-29.165 c -0.014,0 -0.021,-0.005 -0.036,-0.005 -0.126,0 -0.563,0.015 -0.883,0.202 -2.923,1.747 -6.009,3.161 -9.18,4.543 2.505,-3.282 4.584,-5.887 6.671,-8.362 0.061,-0.072 0.093,-0.142 0.124,-0.211 10e-4,-0.003 0.004,-0.005 0.005,-0.008 0.305,0.32 0.619,0.629 0.915,0.958 0.834,0.927 1.623,1.894 2.384,2.883 z m -4.288,-4.876 c -0.009,0 -0.016,10e-4 -0.026,10e-4 -0.272,0.02 -0.862,0.104 -1.168,0.462 -2.785,3.307 -5.237,6.751 -7.92,10.584 -2.293,0.995 -4.731,2.082 -7.055,3.295 -1.851,0.971 -3.797,2.118 -6.085,3.591 0.391,-1.599 0.782,-3.197 1.168,-4.8 0.532,-2.21 1.16,-4.523 1.768,-6.76 l 0.468,-1.722 0.198,-0.24 c 0.111,-0.137 0.222,-0.274 0.342,-0.406 0.607,-0.673 1.4,-1.436 2.167,-2.172 2.555,-2.458 5.734,-5.517 6.105,-8.742 0.029,-0.224 -0.036,-0.438 -0.183,-0.604 -0.075,-0.085 -0.173,-0.144 -0.279,-0.192 -0.02,-0.009 -0.035,-0.023 -0.056,-0.032 -0.125,-0.046 -0.265,-0.072 -0.426,-0.072 -0.446,0 -1.394,0.228 -1.478,0.932 -0.293,2.559 -2.861,5.389 -5.436,7.917 0.865,-3.376 1.756,-7.256 2.216,-11.17 0.006,-0.048 0.015,-0.096 0.021,-0.145 5.894,2.377 11.213,5.882 15.659,10.275 z M 394.429,121.1 c -0.003,0.006 -0.012,0.014 -0.014,0.02 l -0.066,0.108 -0.005,0.023 -0.041,0.18 c -0.178,1.812 -0.712,3.325 -1.277,4.928 -0.407,1.154 -0.869,2.461 -1.15,3.875 -0.232,1.161 -0.459,2.323 -0.686,3.485 l -0.656,3.357 c -0.173,0.188 -0.338,0.371 -0.488,0.548 -3.112,3.622 -5.772,7.802 -8.362,11.872 l -0.084,0.133 c -0.695,1.093 -1.391,2.186 -2.096,3.27 -0.878,-1.674 -1.649,-3.207 -2.349,-4.671 0.855,-2.427 1.796,-4.917 2.633,-7.131 2.632,-6.971 5.354,-14.18 6.591,-21.769 v -0.002 l 0.04,-0.228 c 2.756,0.439 5.433,1.111 8.01,2.002 z m -10.365,-2.308 -0.034,0.195 c -0.002,0.014 -0.005,0.027 -0.007,0.041 -1.196,7.699 -3.957,15.035 -6.628,22.129 l -0.052,0.138 c -0.506,1.347 -1.013,2.692 -1.509,4.041 -0.547,-1.236 -1.001,-2.329 -1.415,-3.403 l -0.679,-1.752 c -2.463,-6.338 -5.255,-13.522 -5.333,-19.982 -10e-4,-0.042 -0.004,-0.082 -0.007,-0.123 -10e-4,-0.03 -0.002,-0.062 -0.005,-0.091 -0.004,-0.061 -0.009,-0.122 -0.012,-0.245 0,-0.021 -0.009,-0.038 -0.01,-0.058 3.388,-0.768 6.902,-1.196 10.522,-1.196 1.749,0 3.469,0.119 5.169,0.306 z m -50.219,61.876 0.049,-0.015 0.003,-0.001 c 3.864,-1.211 7.444,-2.935 11.075,-4.744 3.778,-0.607 7.052,-1.078 7.675,-1.167 3.751,-0.579 7.649,-1.09 11.596,-1.522 -1.511,1.927 -3.112,3.92 -4.766,5.935 -6.801,3.396 -14.099,6.953 -21.406,9.974 -0.235,0.097 -0.384,0.228 -0.499,0.367 -1.055,-1.955 -1.986,-3.985 -2.767,-6.093 -0.35,-0.897 -0.665,-1.811 -0.96,-2.734 z m 10.415,17.885 0.082,-0.129 c 2.681,-4.273 6.649,-8.058 10.492,-11.722 l 0.05,-0.048 c 2.014,-1.921 4.097,-3.908 5.956,-5.936 l 2.502,-1.258 c 1.312,-0.66 2.624,-1.319 3.935,-1.977 -1.485,5.12 -3.105,10.037 -4.505,14.198 -1.069,1.493 -2.109,3.009 -3.114,4.476 -2.172,3.169 -4.417,6.446 -6.933,9.458 l -0.033,0.041 c -3.08,-2.04 -5.911,-4.422 -8.432,-7.103 z m 10.211,8.238 c 2.115,-2.491 4.017,-5.113 5.787,-7.653 -0.867,2.587 -1.817,5.468 -2.717,8.346 l -0.071,0.341 0.181,0.241 c 0.233,0.314 0.629,0.314 0.759,0.314 0.052,0 1.267,-0.009 1.508,-0.761 1.31,-4.19 2.765,-8.466 4.171,-12.601 l 0.932,-2.738 c 1.216,-1.708 2.251,-3.089 3.254,-4.345 2.622,-3.279 5.73,-6.475 8.064,-8.861 1.216,2.108 2.169,3.803 3.063,5.446 -1.36,5.245 -2.708,9.922 -4.12,14.294 -0.36,1.112 -0.684,2.251 -1.026,3.457 -1.027,3.614 -2.089,7.352 -4.124,10.202 l -0.153,0.225 c -5.575,-1.059 -10.805,-3.084 -15.508,-5.907 z m 24.424,6.769 c -2.254,0 -4.467,-0.172 -6.637,-0.476 2.094,-2.886 3.128,-6.501 4.126,-9.999 0.388,-1.358 0.788,-2.763 1.251,-4.087 1.183,-3.376 2.308,-7.089 3.436,-11.333 0.304,0.597 0.602,1.196 0.894,1.8 2.792,5.776 4.927,11.991 6.992,18.001 l 0.075,0.219 c 0.495,1.438 0.993,2.881 1.545,4.404 -3.74,0.945 -7.648,1.471 -11.682,1.471 z m 28.009,-9.154 c -2.999,-6.951 -6.43,-13.481 -9.238,-18.62 1.635,1.529 3.202,3.191 4.741,4.823 3.071,3.257 6.246,6.621 10.061,9.04 -1.729,1.724 -3.589,3.313 -5.564,4.757 z"
   id="path74" />
	<path
   fill="#ffffff"
   d="m 333.375,178.122 v 0 l -0.159,0.047 c 0.066,0.271 0.134,0.54 0.205,0.808 1.692,-0.528 3.48,-1.193 5.425,-2.023 -2.46,0.452 -4.295,0.843 -5.471,1.168 z"
   id="path76" />
	<path
   fill="#ffffff"
   d="m 332.727,176.093 c 0.033,0.168 0.075,0.334 0.114,0.5 4.085,-1.088 8.413,-2.052 12.865,-2.862 l 0.242,-0.12 c 2.625,-1.294 5.339,-2.632 8.072,-3.766 1.545,-0.641 3.125,-1.32 4.81,-2.068 -1.986,-0.543 -4.11,-1.154 -6.469,-1.861 l -1.638,-0.002 c -6.865,0 -13.003,0.184 -18.549,2.428 l 0.008,0.02 -0.265,0.085 -0.004,-0.004 -0.043,0.013 c 0.056,1.521 0.159,3.03 0.354,4.51 0.136,1.053 0.297,2.097 0.503,3.127 z"
   id="path78" />
	<path
   fill="#ffffff"
   d="m 414.359,169.475 c 2.733,0.869 6.027,1.698 9.313,1.698 0.749,0 1.488,-0.043 2.196,-0.127 l 0.201,-0.005 c 0.03,0.001 0.05,0.011 0.078,0.014 0.102,-0.975 0.173,-1.959 0.216,-2.951 -3.92,1.2 -7.917,1.357 -12.004,1.371 z"
   id="path80" />
	<path
   fill="#ffffff"
   d="m 350.683,188.533 c 1.906,-1.767 3.86,-3.578 5.584,-5.528 -5.117,2.534 -11.063,5.392 -17.204,7.93 -0.183,0.077 -0.382,0.091 -0.58,0.079 1.292,2.086 2.739,4.064 4.328,5.918 2.213,-3.144 5.087,-5.816 7.872,-8.399 z"
   id="path82" />
	<path
   fill="#ffffff"
   d="m 338.07,189.127 c 7.307,-3.021 14.605,-6.578 21.406,-9.974 1.654,-2.014 3.255,-4.008 4.766,-5.935 -3.947,0.432 -7.845,0.944 -11.596,1.522 -0.623,0.089 -3.896,0.56 -7.675,1.167 -3.631,1.809 -7.211,3.532 -11.075,4.744 l -0.003,10e-4 c 0.279,0.928 0.576,1.847 0.911,2.749 0.781,2.107 1.712,4.138 2.767,6.093 0.115,-0.139 0.264,-0.27 0.499,-0.367 z"
   id="path84" />
	<path
   fill="#ffffff"
   d="m 389.031,207.684 -0.075,-0.219 c -2.065,-6.01 -4.2,-12.225 -6.992,-18.001 -0.292,-0.604 -0.59,-1.203 -0.894,-1.8 -1.127,4.244 -2.253,7.957 -3.436,11.333 -0.463,1.324 -0.863,2.729 -1.251,4.087 -0.999,3.498 -2.032,7.113 -4.126,9.999 2.17,0.304 4.383,0.476 6.637,0.476 4.034,0 7.942,-0.525 11.682,-1.472 -0.552,-1.522 -1.05,-2.965 -1.545,-4.403 z"
   id="path86" />
	<path
   fill="#ffffff"
   d="m 360.131,144.373 c -0.033,-0.081 -0.067,-0.162 -0.101,-0.243 -0.99,-2.39 -2.211,-4.727 -3.392,-6.987 -1.647,-3.154 -3.319,-6.374 -4.442,-9.797 -2.132,1.498 -4.137,3.166 -5.995,4.987 4.077,3.849 8.64,7.793 13.93,12.04 z"
   id="path88" />
	<path
   fill="#ffffff"
   d="m 339.836,140.069 0.046,0.049 c 1.361,1.476 2.86,2.471 4.448,3.524 1.055,0.698 2.128,1.41 3.17,2.262 1.082,0.884 2.144,1.86 3.082,2.721 1.493,1.368 3.015,2.763 4.635,3.901 0.694,0.487 1.394,0.966 2.095,1.446 l 1.383,0.95 c 1.958,0.327 3.969,0.618 5.881,0.889 -0.558,-1.427 -1.105,-2.859 -1.652,-4.292 l -0.094,-0.245 c -0.337,-0.884 -0.674,-1.768 -1.016,-2.652 -6.757,-5.289 -12.228,-9.934 -17.212,-14.613 -1.744,1.885 -3.339,3.908 -4.766,6.06 -0.001,-10e-4 -0.001,-10e-4 0,0 z"
   id="path90" />
	<path
   fill="#ffffff"
   d="m 368.4,120.076 c 0.002,0.041 0.006,0.082 0.007,0.123 0.078,6.459 2.87,13.644 5.333,19.982 l 0.679,1.752 c 0.414,1.074 0.868,2.167 1.415,3.403 0.497,-1.349 1.003,-2.694 1.509,-4.041 l 0.052,-0.138 c 2.671,-7.095 5.433,-14.431 6.628,-22.129 -1.559,-0.157 -3.133,-0.257 -4.732,-0.257 -3.753,0 -7.391,0.473 -10.891,1.305 z"
   id="path92" />
	<path
   fill="#ffffff"
   d="m 354.408,126.09 c 1.134,3.723 2.977,7.31 4.76,10.779 1.519,2.955 3.084,6 4.238,9.157 0.112,0.309 0.227,0.615 0.341,0.92 l 0.159,0.422 c 3.218,2.515 6.439,4.957 8.946,6.847 0.526,-1.801 1.112,-3.624 1.785,-5.555 -3.966,-7.875 -8.504,-18.136 -8.685,-27.96 -4.128,1.219 -8.013,2.998 -11.591,5.233 0.015,0.052 0.031,0.105 0.047,0.157 z"
   id="path94" />
	<path
   fill="#ffffff"
   d="m 424.666,155.916 c -0.216,0 -0.405,-0.05 -0.562,-0.149 -0.886,-0.568 -2.929,-0.601 -5.988,-0.09 l -0.293,0.065 c -0.755,0.17 -1.408,0.317 -1.916,0.394 l -0.707,0.116 c -1.578,0.352 -3.145,0.749 -4.406,1.069 l -0.949,0.24 c -4.356,1.968 -8.758,3.971 -13.056,5.947 l 0.242,0.071 c 1.648,0.483 3.298,0.966 4.933,1.473 2.011,0.626 4.024,1.387 6.155,2.192 l 1.491,0.561 1.151,-0.005 c 5.081,-0.019 10.333,-0.039 15.078,-1.493 0.198,-0.061 0.395,-0.07 0.586,-0.048 0.002,-0.078 0.005,-0.155 0.005,-0.234 0,-3.516 -0.406,-6.934 -1.133,-10.231 -0.159,0.056 -0.384,0.122 -0.631,0.122 z"
   id="path96" />
	<path
   fill="#ffffff"
   d="m 386.378,119.328 c -1.237,7.589 -3.959,14.797 -6.591,21.769 -0.836,2.214 -1.778,4.704 -2.633,7.131 0.7,1.464 1.471,2.997 2.349,4.671 0.705,-1.084 1.4,-2.177 2.096,-3.27 l 0.084,-0.133 c 2.59,-4.07 5.25,-8.25 8.362,-11.872 0.15,-0.177 0.315,-0.36 0.488,-0.548 l 0.656,-3.357 c 0.227,-1.162 0.453,-2.324 0.686,-3.485 0.281,-1.414 0.743,-2.722 1.15,-3.875 0.565,-1.603 1.099,-3.116 1.277,-4.928 l 0.041,-0.18 c -2.565,-0.864 -5.225,-1.512 -7.964,-1.925 z"
   id="path98" />
	<path
   fill="#ffffff"
   d="m 417.031,138.612 c -3.576,2.132 -7.404,3.814 -11.106,5.44 l -1.652,0.728 c -1.466,1.955 -2.919,3.919 -4.372,5.884 l -0.299,0.404 c -1.855,2.505 -3.769,5.09 -5.692,7.628 2.622,-0.453 5.244,-0.926 7.864,-1.399 l 0.382,-0.069 c 1.921,-0.347 3.843,-0.694 5.765,-1.032 5.628,-2.55 10.538,-4.736 15.448,-6.879 l 0.022,-0.01 c -1.494,-3.977 -3.504,-7.698 -5.952,-11.086 -0.081,0.131 -0.198,0.264 -0.408,0.391 z"
   id="path100" />
	<path
   fill="#ffffff"
   d="m 402.086,124.705 c 0.147,0.166 0.212,0.38 0.183,0.604 -0.371,3.226 -3.55,6.284 -6.105,8.742 -0.767,0.737 -1.56,1.499 -2.167,2.172 -0.12,0.132 -0.231,0.27 -0.342,0.406 l -0.198,0.24 -0.468,1.722 c -0.607,2.237 -1.235,4.55 -1.768,6.76 -0.387,1.603 -0.777,3.202 -1.168,4.8 2.289,-1.473 4.234,-2.62 6.085,-3.591 2.324,-1.214 4.762,-2.301 7.055,-3.295 2.683,-3.833 5.135,-7.277 7.92,-10.584 0.306,-0.357 0.896,-0.442 1.168,-0.462 -3.109,-3.029 -6.637,-5.619 -10.474,-7.707 0.107,0.049 0.204,0.108 0.279,0.193 z"
   id="path102" />
	<path
   fill="#ffffff"
   d="m 413.168,133.472 c -2.087,2.475 -4.166,5.08 -6.671,8.362 3.17,-1.383 6.257,-2.797 9.18,-4.543 0.319,-0.188 0.756,-0.202 0.883,-0.202 0.014,0 0.022,0.004 0.036,0.005 -0.76,-0.99 -1.549,-1.957 -2.384,-2.883 -0.297,-0.325 -0.613,-0.632 -0.919,-0.949 -0.032,0.068 -0.064,0.138 -0.125,0.21 z"
   id="path104" />
	<path
   fill="#ffffff"
   d="m 394.412,133.257 c 2.575,-2.527 5.143,-5.357 5.436,-7.917 0.084,-0.704 1.032,-0.932 1.478,-0.932 0.161,0 0.301,0.025 0.426,0.072 -1.652,-0.896 -3.361,-1.696 -5.124,-2.394 -0.46,3.914 -1.351,7.795 -2.216,11.171 z"
   id="path106" />
	<path
   fill="#ffffff"
   d="m 347.648,164.465 c -5.332,-1.677 -10.586,-3.44 -15.281,-5.017 -0.353,2.326 -0.563,4.699 -0.566,7.124 5.07,-1.922 10.185,-2.104 15.847,-2.107 z"
   id="path108" />
	<path
   fill="#ffffff"
   d="m 338.247,142.57 c -0.979,1.694 -1.837,3.466 -2.607,5.283 3.119,0.775 6.139,1.93 9.059,3.05 2.786,1.071 5.609,2.156 8.495,2.912 -1.559,-1.262 -3.265,-2.499 -5.068,-3.804 -3.396,-2.458 -6.902,-5.001 -9.605,-7.89 -0.057,0.09 -0.116,0.178 -0.17,0.271 -0.036,0.056 -0.068,0.118 -0.104,0.178 z"
   id="path110" />
	<path
   fill="#ffffff"
   d="m 336.187,158.521 c 5.924,1.997 12.045,4.061 18.116,5.885 0.958,-0.033 1.702,-0.071 2.406,-0.124 3.019,-0.225 6.257,-0.568 9.881,-1.047 -3.085,-1.994 -6.322,-4.116 -9.379,-6.343 l -0.203,-0.04 c -4.046,-0.842 -7.939,-2.263 -11.704,-3.638 -3.377,-1.232 -6.853,-2.5 -10.387,-3.335 l -0.071,-0.016 c -0.899,2.412 -1.611,4.914 -2.117,7.493 z"
   id="path112" />
	<path
   fill="#ffffff"
   d="m 423.475,173.258 c -4.394,0 -8.268,-1.393 -12.368,-2.868 -0.741,-0.267 -1.488,-0.535 -2.246,-0.798 l -0.238,-0.077 c -1.077,0.027 -2.35,0.071 -3.656,0.196 l -3.682,0.359 c -1.943,0.19 -3.885,0.38 -5.827,0.566 l 3.837,2.615 c 0.584,0.184 1.206,0.386 1.801,0.618 2.143,0.832 4.277,1.808 6.341,2.752 5.125,2.347 10.411,4.767 16.152,5.105 l 0.168,0.013 c 0.968,-2.766 1.678,-5.65 2.121,-8.624 -0.797,0.094 -1.606,0.143 -2.403,0.143 z"
   id="path114" />
	<path
   fill="#ffffff"
   d="m 383.134,159.595 2.113,0.586 c 0.433,-1.745 0.864,-3.491 1.292,-5.237 -1.384,0.883 -2.845,1.791 -4.445,2.76 z"
   id="path116" />
	<path
   fill="#ffffff"
   d="m 373.818,159.756 c -0.048,0.232 -0.095,0.464 -0.14,0.697 l 0.769,-0.428 0.101,-0.13 c -0.243,-0.047 -0.486,-0.093 -0.73,-0.139 z"
   id="path118" />
	<path
   fill="#ffffff"
   d="m 368.022,174.868 c 0.19,-0.689 0.373,-1.38 0.554,-2.071 -0.445,0.04 -0.891,0.081 -1.334,0.125 -1.113,1.425 -2.129,2.705 -3.081,3.883 z"
   id="path120" />
	<path
   fill="#ffffff"
   d="m 407.349,178.878 c 3.701,2.689 8.45,6.345 12.889,10.581 1.06,-1.863 1.996,-3.804 2.799,-5.814 -5.731,-0.353 -10.592,-2.471 -15.688,-4.767 z"
   id="path122" />
	<polygon
   fill="#ffffff"
   points="385.944,169.55 385.655,169.034 385.476,169.243 385.393,169.594 "
   id="polygon124" />
	<path
   fill="#ffffff"
   d="m 418.938,191.4 c -5.766,-5.625 -12.258,-10.418 -20.23,-15.881 -2.329,-0.672 -4.792,-1.212 -7.71,-1.691 l 3.436,6.117 c 1.389,1.137 2.502,2.088 3.502,2.992 1.941,1.755 3.824,3.739 5.644,5.656 l 0.048,0.052 c 3.2,3.373 6.508,6.86 10.302,9.333 l 0.08,0.053 c 1.853,-2.031 3.533,-4.22 5.015,-6.55 z"
   id="path126" />
	<path
   fill="#ffffff"
   d="m 387.788,168.076 c 0.231,0.423 0.462,0.845 0.696,1.267 l 1.041,-0.091 c -0.59,-0.408 -1.177,-0.817 -1.764,-1.226 z"
   id="path128" />
	<path
   fill="#ffffff"
   d="m 389.218,164.734 1.406,-0.652 -0.725,-0.207 c -0.226,0.287 -0.453,0.573 -0.681,0.859 z"
   id="path130" />
	<path
   fill="#ffffff"
   d="m 386.95,163.016 -0.332,1.397 c 0.332,-0.402 0.663,-0.803 0.996,-1.203 z"
   id="path132" />
	<path
   fill="#ffffff"
   d="m 424.845,153.882 c -0.234,-0.884 -0.493,-1.758 -0.776,-2.622 -2.538,1.107 -5.176,2.27 -7.995,3.522 0.618,-0.125 1.222,-0.242 1.794,-0.339 3.309,-0.735 5.574,-0.915 6.977,-0.561 z"
   id="path134" />
	<path
   fill="#ffffff"
   d="m 389.599,171.337 c 0.971,0.115 2.298,0.282 3.741,0.52 l -1.314,-0.894 c -0.647,0.06 -1.296,0.115 -1.945,0.171 l -0.567,0.049 z"
   id="path136" />
	<path
   fill="#ffffff"
   d="m 370.864,173.45 c 0.406,-0.2 0.812,-0.399 1.218,-0.599 l 0.522,-0.257 -0.083,-0.147 -1.43,0.122 c -0.077,0.3 -0.152,0.593 -0.227,0.881 z"
   id="path138" />
	<path
   fill="#ffffff"
   d="m 369.092,170.752 c 0.029,-0.116 0.058,-0.232 0.087,-0.349 l -0.281,0.366 c 0.065,-0.005 0.13,-0.011 0.194,-0.017 z"
   id="path140" />
	<path
   fill="#ffffff"
   d="m 380.174,181.469 c 0.667,-2.673 1.294,-5.306 1.868,-7.836 l -0.271,-0.193 c -1.373,1.474 -2.764,2.906 -3.741,3.905 0.691,1.296 1.395,2.652 2.144,4.124 z"
   id="path142" />
	<path
   fill="#ffffff"
   d="m 402.407,190.609 c -1.539,-1.632 -3.106,-3.293 -4.741,-4.823 2.809,5.138 6.239,11.669 9.238,18.62 1.975,-1.443 3.835,-3.033 5.564,-4.757 -3.815,-2.419 -6.99,-5.783 -10.061,-9.04 z"
   id="path144" />
	<path
   fill="#ffffff"
   d="m 388.107,173.385 c -0.985,-0.14 -1.973,-0.273 -2.964,-0.405 1.661,1.16 3.179,2.252 4.6,3.309 -0.544,-0.969 -1.089,-1.937 -1.636,-2.904 z"
   id="path146" />
	<path
   fill="#ffffff"
   d="m 404.802,205.754 c -3.818,-8.952 -8.441,-17.57 -12.049,-24.086 -2.702,-2.167 -5.532,-4.314 -8.64,-6.554 -0.812,3.551 -1.52,6.577 -2.294,9.65 4.17,8.513 7.808,17.222 11.121,26.62 l 0.011,0.043 c 4.25,-1.313 8.247,-3.199 11.893,-5.581 z"
   id="path148" />
	<path
   fill="#ffffff"
   d="m 370.133,212.473 c 2.035,-2.85 3.097,-6.587 4.124,-10.202 0.342,-1.206 0.666,-2.345 1.026,-3.457 1.413,-4.373 2.76,-9.05 4.12,-14.294 -0.894,-1.644 -1.847,-3.338 -3.063,-5.446 -2.334,2.386 -5.443,5.582 -8.064,8.861 -1.003,1.256 -2.038,2.638 -3.254,4.345 l -0.932,2.738 c -1.407,4.135 -2.861,8.411 -4.171,12.601 -0.241,0.752 -1.457,0.761 -1.508,0.761 -0.13,0 -0.526,0 -0.759,-0.314 l -0.181,-0.241 0.071,-0.341 c 0.899,-2.878 1.85,-5.759 2.717,-8.346 -1.77,2.54 -3.671,5.162 -5.787,7.653 4.703,2.823 9.933,4.848 15.509,5.907 z"
   id="path150" />
	<path
   fill="#ffffff"
   d="m 368.58,165.083 c -1.463,0.714 -2.928,1.411 -4.367,2.076 1.35,0.338 2.688,0.656 3.988,0.949 l 1.155,-1.502 -0.046,-0.088 c -0.25,-0.48 -0.485,-0.934 -0.711,-1.394 z"
   id="path152" />
	<path
   fill="#ffffff"
   d="m 352.725,205.615 c 2.516,-3.011 4.761,-6.289 6.933,-9.458 1.005,-1.467 2.045,-2.983 3.114,-4.476 1.4,-4.162 3.02,-9.078 4.505,-14.198 -1.312,0.658 -2.623,1.317 -3.935,1.977 l -2.502,1.258 c -1.859,2.028 -3.941,4.014 -5.956,5.936 l -0.05,0.048 c -3.843,3.665 -7.812,7.449 -10.492,11.722 l -0.082,0.129 c 2.521,2.682 5.352,5.063 8.432,7.103 z"
   id="path154" />
	<path
   fill="#ffffff"
   d="m 370.268,162.284 c 0.268,-0.135 0.501,-0.252 0.73,-0.37 0.142,-0.791 0.31,-1.614 0.521,-2.562 -0.999,-0.171 -1.998,-0.337 -2.999,-0.5 0.522,1.189 1.056,2.367 1.592,3.51 z"
   id="path156" />
	<path
   fill="#ffffff"
   d="m 392.316,160.786 -0.129,0.169 c -0.247,0.322 -0.494,0.644 -0.742,0.965 0.357,0.106 0.713,0.213 1.07,0.321 0.432,0.13 0.853,0.257 1.274,0.381 2.431,-1.12 4.866,-2.235 7.301,-3.345 -2.909,0.538 -5.855,1.069 -8.774,1.509 z"
   id="path158" />
	<path
   fill="#ffffff"
   d="m 402.063,168.092 c 0.559,-0.054 1.14,-0.099 1.755,-0.136 -3.496,-1.102 -6.934,-2.094 -10.159,-3.01 l -1.353,0.625 c -0.844,0.388 -1.687,0.776 -2.528,1.166 1.06,0.74 2.122,1.477 3.194,2.208 3.028,-0.276 6.055,-0.56 9.091,-0.853 z"
   id="path160" />
	<path
   fill="#ffffff"
   d="m 389.329,153.125 c -0.448,1.83 -0.89,3.663 -1.33,5.494 l -0.284,1.172 3.266,-0.579 c 2.292,-2.701 4.708,-5.578 6.869,-8.47 1.142,-1.527 2.243,-3.068 3.279,-4.537 -2.462,1.148 -5.466,2.659 -8.265,4.561 -1.174,0.797 -2.356,1.579 -3.535,2.359 z"
   id="path162" />
	<path
   fill="#ffffff"
   d="m 368.058,185.014 c 1.834,-2.014 3.756,-3.967 5.615,-5.856 0.57,-0.579 1.14,-1.159 1.708,-1.74 -0.593,-1.021 -1.185,-2.044 -1.774,-3.068 -1.154,0.562 -2.306,1.13 -3.457,1.703 -0.875,3.109 -1.863,6.345 -3.084,10.087 0.339,-0.397 0.667,-0.77 0.992,-1.126 z"
   id="path164" />
	<path
   fill="#ffffff"
   d="m 380.037,172.449 c -0.37,0.072 -0.75,0.114 -1.142,0.114 -0.438,0 -0.861,-0.055 -1.272,-0.144 -0.018,0.009 -0.037,0.018 -0.055,0.026 l -0.588,0.283 c -0.391,0.185 -0.78,0.372 -1.169,0.56 0.438,0.78 0.873,1.56 1.298,2.338 1.076,-1.127 2.036,-2.169 2.928,-3.177 z"
   id="path166" />
	<path
   fill="#ffffff"
   d="m 361.65,166.493 c 0.729,-0.334 1.489,-0.69 2.272,-1.063 -0.405,0.047 -0.797,0.091 -1.185,0.131 -1.099,0.115 -2.275,0.2 -3.563,0.257 0.827,0.231 1.647,0.454 2.476,0.675 z"
   id="path168" />
	<path
   fill="#ffffff"
   d="m 366.902,169.798 c -1.928,-0.441 -3.746,-0.884 -5.541,-1.35 -3.274,1.465 -6.544,2.878 -9.033,3.948 -0.267,0.115 -0.538,0.233 -0.814,0.356 4.54,-0.688 9.285,-1.255 14.443,-1.726 z"
   id="path170" />
	<path
   fill="#ffffff"
   d="m 363.143,157.981 c 1.067,0.734 2.137,1.468 3.209,2.202 -0.244,-0.574 -0.492,-1.172 -0.748,-1.8 -0.82,-0.133 -1.641,-0.265 -2.461,-0.402 z"
   id="path172" />
	<path
   fill="#ffffff"
   d="m 389.496,142.191 c -0.986,1.488 -1.926,3.003 -2.84,4.477 -1.814,2.923 -3.682,5.933 -5.848,8.675 0.131,0.243 0.253,0.47 0.374,0.692 1.583,-1.025 3.209,-2.118 4.528,-3.005 l 1.553,-1.039 c 0.649,-2.682 1.134,-4.751 1.57,-6.699 0.211,-0.949 0.427,-1.955 0.663,-3.101 z"
   id="path174" />
	<path
   fill="#ffffff"
   d="m 376.071,151.453 c -0.484,1.492 -0.9,2.883 -1.266,4.232 l 1.847,1.39 c 0.461,-0.641 0.918,-1.293 1.361,-1.944 -0.641,-1.197 -1.291,-2.425 -1.942,-3.678 z"
   id="path176" />
	<path
   fill="#ffffff"
   d="m 372.468,167.047 c -0.018,-0.012 -0.036,-0.024 -0.054,-0.036 -10e-4,0.006 -0.002,0.013 -0.004,0.019 0.023,0.045 0.047,0.089 0.071,0.134 -0.007,-0.039 -0.007,-0.079 -0.013,-0.117 z"
   id="path178" />
	<path
   fill="#ffffff"
   d="m 365.445,151.427 c 0.632,1.614 1.283,3.218 1.939,4.782 1.871,0.271 3.341,0.502 4.712,0.741 0.033,-0.132 0.066,-0.264 0.1,-0.396 -2.428,-1.825 -4.645,-3.509 -6.751,-5.127 z"
   id="path180" />
	<path
   fill="#ffffff"
   d="m 383.279,166.026 c 0,-0.989 -0.34,-1.891 -0.891,-2.624 -0.588,-0.781 -1.425,-1.354 -2.398,-1.606 -0.351,-0.091 -0.713,-0.155 -1.094,-0.155 -0.911,0 -1.756,0.277 -2.458,0.754 -0.258,0.176 -0.492,0.383 -0.708,0.608 -0.75,0.788 -1.219,1.849 -1.219,3.022 0,0.168 0.031,0.329 0.049,0.493 0.059,0.521 0.204,1.01 0.428,1.459 0.657,1.313 1.946,2.236 3.476,2.387 0.144,0.014 0.284,0.043 0.431,0.043 1.468,0 2.759,-0.728 3.555,-1.835 0.517,-0.718 0.829,-1.592 0.829,-2.546 z m -4.383,1.411 c -0.779,0 -1.414,-0.634 -1.414,-1.413 0,-0.783 0.634,-1.413 1.414,-1.413 0.782,0 1.413,0.629 1.413,1.413 0,0.779 -0.631,1.413 -1.413,1.413 z"
   id="path182" />
	<path
   d="m 378.896,164.612 c -0.779,0 -1.414,0.629 -1.414,1.413 0,0.778 0.634,1.413 1.414,1.413 0.782,0 1.413,-0.634 1.413,-1.413 0,-0.784 -0.631,-1.413 -1.413,-1.413 z"
   id="path184" />
</g>
<path
   id="path107"
   d="m 143.13854,633.24929 c -12.5138,-3.36528 -17.55535,-6.79074 -26.47366,-17.98738 -6.72465,-8.44256 -15.2502,-15.59995 -22.385014,-18.79271 -8.827482,-3.95021 -13.872677,-4.72249 -36.085559,-5.52367 C 35.019446,590.10964 30.620854,589.33882 22.854869,584.75258 14.342015,579.72525 9.0439087,571.76076 5.7979654,559.11144 4.2211406,552.9666 4.0888545,546.63079 4.2527968,485.10595 4.4259149,420.13755 4.9387304,389.23951 8.0157127,258.38367 10.297124,161.36136 11.002297,69.204654 9.4632911,69.204654 7.757247,69.204654 8.7253521,42.448998 10.68059,35.561994 15.90956,17.143804 28.048848,9.3061989 56.880685,5.7333831 66.361281,4.5585559 137.29577,3.6650992 229.82063,3.5551145 c 39.6188,-0.047095 41.78108,0.044001 49.10138,2.0686336 19.45192,5.3799709 29.67218,16.9500639 33.33654,37.7394419 0.37813,2.145329 0.79709,24.744421 0.931,50.220204 0.14798,28.150096 0.9396,59.707666 2.01807,80.449836 2.39306,46.02558 2.46017,121.3442 0.14814,166.26301 -2.59903,50.49459 -4.73587,122.69103 -5.09822,172.25138 -0.32105,43.91065 -0.38098,45.11526 -2.48799,50.01316 -4.51987,10.50672 -12.49347,14.64784 -31.97594,16.60679 -22.0525,2.21738 -30.34323,6.21778 -54.74932,26.41741 -28.55191,23.6309 -40.62646,29.27708 -62.32177,29.14226 -5.73791,-0.0357 -12.66297,-0.69242 -15.58398,-1.47795 z m 34.87591,-19.47733 c 6.60013,-1.96003 12.8002,-7.86997 12.8002,-12.20122 0,-4.12271 -5.43304,-10.61969 -8.90051,-10.64348 -1.40913,-0.01 -5.75661,-0.73901 -9.66108,-1.62075 -5.39452,-1.21823 -7.82315,-1.35672 -10.1149,-0.5768 -1.65873,0.5645 -5.20996,1.31595 -7.89162,1.6699 -2.68166,0.35394 -6.69993,1.51053 -8.92947,2.5702 -8.10994,3.85452 -9.3845,13.73839 -2.30315,17.86011 7.34826,4.27706 25.39645,5.79414 35.00053,2.94204 z m 59.01419,-74.789 c 0.2305,-1.20674 0.87672,-9.87338 1.43604,-19.2592 0.6971,-11.69796 1.68088,-19.51867 3.12797,-24.86631 3.02773,-11.1888 3.22132,-12.85193 1.87445,-16.10357 -0.93232,-2.25081 -1.8253,-2.91185 -3.93352,-2.91185 -4.5379,0 -5.85475,1.01541 -8.20303,6.32529 -1.97433,4.46431 -3.66779,6.15091 -13.8255,13.76951 -14.65995,10.99543 -20.05588,13.94944 -22.21203,12.16 -2.01615,-1.67326 -2.05078,-9.40651 -0.0769,-17.17889 2.0699,-8.15053 11.16731,-26.52813 18.56567,-37.50435 7.58337,-11.25068 9.74292,-13.70625 14.93834,-16.98598 3.26274,-2.05968 4.02597,-3.09771 4.02597,-5.4756 0,-3.70094 -3.17621,-5.37849 -8.34682,-4.40848 -7.44827,1.3973 -21.80391,20.08681 -32.11336,41.80817 -6.92126,14.58264 -9.42678,22.21413 -10.00086,30.46135 -0.39897,5.73155 -0.12936,7.5664 1.61393,10.98351 2.77619,5.44179 9.00022,9.9272 13.77512,9.9272 4.44484,0 17.25623,-6.20283 23.03763,-11.15402 2.23059,-1.91027 4.43332,-3.47322 4.89496,-3.47322 0.46165,0 0.22215,6.09379 -0.53221,13.54176 -0.75434,7.44797 -1.08094,14.69961 -0.72576,16.11477 1.04065,4.1463 4.01145,6.424 8.3788,6.424 3.25151,0 3.95008,-0.35636 4.30113,-2.19409 z m -104.21923,-4.03264 c 0.75864,-1.81571 2.99575,-9.75826 4.97134,-17.65013 2.36107,-9.43172 4.23851,-14.95116 5.47862,-16.10651 2.37639,-2.21395 8.94957,-3.89836 15.21276,-3.89836 h 4.82468 l 1.9698,7.55741 c 1.08339,4.15657 2.49783,9.88687 3.14322,12.73397 1.2551,5.53695 4.59129,10.36272 7.73179,11.18398 2.52114,0.65929 6.87761,-3.35699 6.85389,-6.31869 -0.01,-1.23236 -1.55896,-7.06765 -3.44243,-12.9673 -4.71819,-14.77889 -13.00221,-48.17066 -14.15092,-57.04037 -1.86,-14.36197 -4.93081,-20.48402 -10.27477,-20.48402 -3.10109,0 -4.65184,3.3508 -10.15427,21.94086 -10.7358,36.27116 -11.46483,38.24989 -14.36029,38.97661 -3.88733,0.97565 -4.39949,2.5961 -1.70833,5.40506 2.28865,2.38884 2.32214,2.62943 1.01962,7.32349 -0.74074,2.66944 -2.69334,8.58347 -4.33912,13.14229 -1.64579,4.55883 -3.001,10.13973 -3.01158,12.40201 -0.0164,3.49411 0.38441,4.33223 2.66242,5.56808 4.24784,2.30448 6.04738,1.88431 7.57357,-1.76838 z m -29.75822,-25.22138 c 0,-19.69452 1.44193,-52.99153 2.77419,-64.06131 l 0.63883,-5.30808 12.67695,-2.17911 c 21.40505,-3.67946 23.79155,-4.32316 25.88232,-6.98114 2.22728,-2.83154 2.47847,-5.0899 0.56611,-5.0899 -0.73882,0 -1.92833,-0.7049 -2.64335,-1.56644 -1.57118,-1.89316 -6.61101,-1.5291 -20.39206,1.47302 -10.0185,2.18248 -16.80533,2.50966 -22.873246,1.10266 -3.005662,-0.69693 -5.084352,-0.48134 -9.410335,0.97597 -3.053875,1.02878 -11.19124,2.56186 -18.083034,3.40685 -13.911562,1.70568 -16.707916,2.2543 -17.427884,3.41924 -1.070606,1.73228 1.912096,5.71264 5.489712,7.32592 3.844735,1.73373 10.197794,1.69375 26.468039,-0.16657 l 5.60711,-0.64111 -0.0087,8.18141 c -0.0048,4.49977 -0.456918,15.4219 -1.004718,24.27138 -0.5478,8.84948 -1.032836,23.42346 -1.077857,32.38663 -0.09267,18.45001 0.733084,21.31296 7.014773,24.32062 5.6303,2.69579 5.80313,2.07424 5.80313,-20.87004 z M 77.003261,398.6618 c 9.531557,-4.86264 21.109509,-12.75185 25.319579,-17.25276 5.59691,-5.98355 7.55439,-10.52341 7.55439,-17.52042 0,-9.6257 -4.19455,-15.48517 -15.492646,-21.64208 -2.46046,-1.34083 -4.582763,-3.0961 -4.71623,-3.9006 -0.143647,-0.86587 2.437762,-3.2504 6.326297,-5.8438 9.765349,-6.51285 15.333449,-12.08136 17.789649,-17.79096 1.97948,-4.60143 2.06344,-5.49689 0.97249,-10.37179 -1.54265,-6.89328 -7.4302,-12.81661 -18.424462,-18.53646 -11.887106,-6.18436 -29.059789,-8.89768 -34.07612,-5.3841 -3.749101,2.62597 -2.504632,6.16699 3.156811,8.9824 l 4.780839,2.37749 -0.580751,20.97803 -0.58075,20.97802 -2.725527,2.84483 c -2.685353,2.8029 -2.700822,2.88789 -1.049434,5.76526 1.540465,2.6841 1.595074,4.98081 0.674877,28.38319 -0.550669,14.00453 -0.771442,26.06155 -0.490608,26.7934 0.514508,1.34078 3.870146,3.05776 6.199796,3.17225 0.691782,0.034 3.104592,-0.88036 5.3618,-2.0319 z m 83.458209,-12.16669 c 2.23657,-1.56657 2.25325,-1.72269 1.56208,-14.62724 -0.49857,-9.30896 -0.38944,-13.04379 0.38116,-13.04379 0.59388,0 8.31951,4.41984 17.16806,9.82186 12.64445,7.7194 16.56111,9.67689 18.29705,9.14457 6.70195,-2.05507 6.24832,-5.53406 -1.48072,-11.35571 -5.56887,-4.19459 -28.90908,-18.80196 -31.33402,-19.61027 -2.0261,-0.67537 1.22983,-5.08948 14.52577,-19.69281 14.7629,-16.21456 20.30105,-23.77693 19.8316,-27.08015 -0.26157,-1.84037 -0.98303,-2.20864 -4.6972,-2.39766 -4.28163,-0.2179 -4.50656,-0.0784 -9.26392,5.74719 -6.1105,7.4825 -22.86836,25.19334 -23.83776,25.19334 -0.39785,0 -0.99552,-7.23958 -1.32815,-16.08796 -0.33264,-8.84838 -1.06487,-16.94761 -1.62718,-17.9983 -1.08318,-2.02395 -6.74474,-3.59251 -9.3535,-2.59143 -1.33664,0.51291 -1.43563,1.8013 -0.73871,9.61485 0.44262,4.96241 0.67623,20.43183 0.51912,34.37646 -0.25572,22.69914 0.78653,43.65359 2.3775,47.79961 0.49718,1.29563 4.69245,4.21562 6.22372,4.33185 0.28292,0.0215 1.53171,-0.67351 2.7751,-1.54441 z m -26.40053,-2.51217 c 0.74587,-0.74586 1.17227,-4.54706 1.17593,-10.48286 0.003,-5.12197 0.87821,-18.74725 1.94455,-30.27839 1.06635,-11.53115 1.9414,-26.76017 1.94456,-33.84227 l 0.006,-12.87654 -3.28529,-0.61632 c -1.8069,-0.33898 -4.3301,-0.46857 -5.60711,-0.28798 -2.28252,0.32279 -2.33297,0.55944 -2.98104,13.98045 -0.36258,7.50865 -1.37223,19.13731 -2.24367,25.84146 -0.87144,6.70415 -1.84519,19.51945 -2.16388,28.47843 -0.50532,14.20587 -0.37139,16.60656 1.04721,18.77163 1.26766,1.93468 2.43949,2.48257 5.30973,2.48257 2.0257,0 4.20968,-0.52658 4.85327,-1.17018 z m 123.12741,-1.8188 c 1.56241,-1.56241 1.86833,-2.71 1.36478,-5.11954 -1.06598,-5.10075 -2.62151,-6.1056 -7.14205,-4.61369 -5.54214,1.82907 -19.99232,0.98339 -25.00347,-1.46329 -5.39097,-2.63215 -6.23119,-6.31785 -4.13552,-18.14103 0.8676,-4.89479 1.99936,-9.32153 2.51501,-9.83717 0.51565,-0.51565 6.35703,-1.38591 12.98083,-1.93388 9.90207,-0.8192 12.43336,-1.35223 14.23736,-2.9981 2.69987,-2.46322 2.75584,-3.7766 0.25727,-6.03777 -1.73091,-1.56646 -3.16078,-1.6812 -13.45005,-1.07936 -6.33228,0.37039 -12.27596,0.38075 -13.20817,0.023 -1.48828,-0.5711 -1.61498,-1.55765 -1.03923,-8.0919 1.08049,-12.26225 -0.76769,-10.83284 23.64395,-18.28645 6.62747,-2.02356 12.28009,-4.2789 12.56135,-5.01188 1.03073,-2.68603 -1.53547,-5.95787 -5.63666,-7.18661 -3.57709,-1.07173 -5.25701,-0.90852 -14.9159,1.44913 -11.50365,2.80793 -30.93262,10.22227 -33.95534,12.9578 -1.03959,0.94082 -1.79577,2.95411 -1.79577,4.78116 0,2.78966 0.46871,3.34355 4.0378,4.77161 l 4.0378,1.6156 -0.56749,7.51042 c -0.4888,6.46916 -0.91341,7.80811 -3.06264,9.65771 -2.99148,2.57444 -3.14246,4.27825 -0.58429,6.59336 1.68607,1.52588 1.84576,2.6048 1.35747,9.17127 -0.83971,11.29229 0.84829,21.16482 4.22649,24.71925 1.50932,1.58806 3.84128,3.4587 5.18211,4.15696 3.64643,1.89895 17.82731,3.87357 30.47342,4.24329 4.50563,0.13172 6.00271,-0.23168 7.62094,-1.84991 z M 160.62026,256.18959 c 5.83223,-22.26564 15.44142,-42.5813 37.47576,-79.23091 27.70876,-46.08784 30.35875,-52.42598 29.55392,-70.68615 -0.33714,-7.649043 -1.08913,-12.059722 -2.96239,-17.37556 -7.38258,-20.94982 -23.51908,-37.372815 -42.92764,-43.689789 -6.28942,-2.047038 -10.56012,-2.707048 -19.87842,-3.072079 -14.92273,-0.584576 -23.62613,1.153604 -36.3155,7.252673 -7.47645,3.593509 -10.55438,5.793718 -16.60557,11.87022 -11.824401,11.873857 -19.148084,28.18352 -20.207833,45.002345 -1.053942,16.72666 3.152268,27.59848 23.409543,60.50675 22.19447,36.05532 36.16942,63.32701 42.07538,82.10887 1.98164,6.30191 3.98418,11.45801 4.45008,11.45801 0.4659,0 1.33561,-1.86497 1.93267,-4.14438 z"
   style="opacity:0.97;fill:#ffffff;stroke-width:0.97515" /><path
   id="path109"
   d="m 83.214047,313.72341 c -0.867346,-15.0525 -0.798972,-21.97192 0.223358,-22.60375 1.341128,-0.82887 13.007359,4.82236 15.528895,7.52233 5.21126,5.58003 1.59566,15.91475 -7.841711,22.41452 -2.904688,2.00053 -5.730612,3.63733 -6.279831,3.63733 -0.584704,0 -1.260575,-4.54684 -1.630711,-10.97043 z"
   style="opacity:0.97;fill:#ffffff;stroke-width:0.97515" /><path
   id="path111"
   d="m 80.071876,380.95163 c -0.849179,-2.21292 -0.847641,-9.56625 0.0044,-20.90861 0.824014,-10.9696 0.82427,-10.97043 3.366948,-10.94902 1.398579,0.0118 4.403864,0.86618 6.678409,1.89866 5.326696,2.41795 7.601814,6.79477 6.690595,12.87122 -0.891621,5.94575 -3.467771,9.74764 -9.749354,14.38811 -5.959135,4.40228 -6.288765,4.52957 -6.990972,2.69964 z"
   style="opacity:0.97;fill:#ffffff;stroke-width:0.97515" /><path
   id="path113"
   d="m 146.93292,486.9609 c 0,-2.43548 7.04203,-24.77096 7.8099,-24.77096 0.75741,0 4.6892,17.33273 5.0877,22.42844 l 0.26692,3.41302 -6.58226,0.28834 c -5.6422,0.24716 -6.58226,0.0531 -6.58226,-1.35884 z"
   style="opacity:0.97;fill:#ffffff;stroke-width:0.97515" /><path
   id="path115"
   d="m 147.61512,93.870424 c -2.39918,-1.845908 -4.36214,-3.576388 -4.36214,-3.845511 0,-0.269123 -1.51177,-3.558401 -3.35949,-7.309506 -1.84772,-3.751105 -3.97614,-8.30444 -4.72984,-10.118522 -1.31546,-3.166212 -1.34136,-3.32012 -0.64663,-3.842309 1.25113,-0.940411 4.91389,-2.689 7.81359,-3.730187 l 2.79063,-1.002021 0.27227,2.614274 c 0.65996,6.33688 2.79833,13.361453 6.32825,20.788387 l 2.13625,4.494673 -0.67849,2.345046 c -0.37317,1.289776 -0.79634,2.483833 -0.94038,2.653461 -0.14404,0.169627 -2.22485,-1.201876 -4.62402,-3.047785 z"
   style="opacity:0.97;fill:#ffffff;stroke-width:0.390841" /><path
   id="path117"
   d="m 154.87469,87.567299 c -0.1199,-0.400693 -1.19947,-3.301584 -2.39904,-6.446426 -2.41613,-6.334196 -3.95159,-11.795078 -4.34252,-15.444253 l -0.2573,-2.401773 2.86722,-0.503358 c 3.12981,-0.549458 11.80802,-0.734182 12.28101,-0.261412 0.69956,0.699235 -1.98789,10.347087 -5.57073,19.998785 -2.12072,5.712934 -2.28586,6.036888 -2.57864,5.058437 z"
   style="opacity:0.97;fill:#ffffff;stroke-width:0.390841" /><path
   id="path119"
   d="m 157.85364,93.934636 -1.06559,-2.172692 2.07494,-5.588317 c 3.02865,-8.15686 5.70773,-16.462489 6.50032,-20.15217 l 0.69373,-3.22946 1.39802,0.259889 c 0.7689,0.14294 2.45328,0.545557 3.74306,0.894705 2.72555,0.737818 2.70145,0.616608 1.1275,5.671689 -0.53143,1.706788 -1.30274,4.839153 -1.71402,6.960812 -0.64561,3.330452 -0.95216,4.108042 -2.24344,5.690674 -2.27652,2.79018 -3.24575,4.167561 -6.4761,9.203282 l -2.97283,4.63428 z"
   style="opacity:0.97;fill:#ffffff;stroke-width:0.390841" /><path
   id="path121"
   d="m 174.67949,74.293995 c 0.15305,-0.839029 0.57557,-3.134055 0.93892,-5.100057 l 0.66064,-3.574549 2.10729,1.068726 c 1.45405,0.73743 1.91982,1.14067 1.50251,1.300804 -0.33263,0.127642 -0.72364,0.77324 -0.86891,1.434662 -0.24904,1.133878 -3.28528,5.571809 -4.19785,6.135808 -0.29012,0.179303 -0.33442,-0.213823 -0.1426,-1.265394 z"
   style="opacity:0.97;fill:#ffffff;stroke-width:0.390841" /><path
   id="path123"
   d="m 169.83212,92.958815 c 0.009,-1.21263 3.31231,-12.52301 3.82733,-13.105235 0.36597,-0.413725 1.92046,-2.030656 3.45442,-3.593178 1.70953,-1.741363 3.21167,-3.723302 3.881,-5.120638 0.60058,-1.253829 1.13591,-2.340611 1.18963,-2.415072 0.14712,-0.203951 3.53368,2.144147 6.46903,4.485352 l 2.60345,2.076485 -1.27735,1.394538 c -0.70254,0.766995 -2.66554,3.309119 -4.36223,5.649163 -3.05849,4.218217 -3.11201,4.266804 -6.25397,5.677672 -1.74299,0.782675 -4.60101,2.274738 -6.35116,3.315695 -1.75016,1.040957 -3.18122,1.776805 -3.18015,1.635218 z"
   style="opacity:0.97;fill:#ffffff;stroke-width:0.390841" /><path
   id="path125"
   d="m 160.7237,98.645479 c 0.1719,-0.277631 1.64796,-2.520082 3.28012,-4.983225 1.63217,-2.463142 3.18535,-4.88923 3.45153,-5.391307 0.88669,-1.672535 0.89048,-0.553573 0.011,3.252259 l -0.87058,3.767459 -2.85983,1.929799 c -2.97587,2.008096 -3.53795,2.273995 -3.01227,1.425015 z"
   style="opacity:0.97;fill:#ffffff;stroke-width:0.390841" /><path
   id="path127"
   d="m 155.22984,99.603211 c -0.62204,-0.687347 -0.63801,-0.940201 -0.1624,-2.571314 l 0.52748,-1.809005 0.82346,1.694926 c 0.77953,1.604519 0.7882,1.741674 0.1624,2.571314 -0.65378,0.866728 -0.66866,0.867988 -1.35094,0.114079 z"
   style="opacity:0.97;fill:#ffffff;stroke-width:0.390841" /><path
   id="path129"
   d="m 155.52539,112.28252 c -2.74312,-2.74312 -1.00788,-6.85001 2.90275,-6.87011 2.35311,-0.0121 3.97605,1.57791 3.97605,3.89535 0,2.0249 -0.49033,2.96037 -1.94638,3.71332 -1.907,0.98614 -3.43679,0.75708 -4.93242,-0.73856 z m 4.33425,-2.17584 c 0.30655,-0.96584 -0.13181,-1.8955 -1.02788,-2.1799 -0.99059,-0.3144 -1.89934,0.45554 -1.89934,1.60921 0,1.63088 2.43976,2.10653 2.92722,0.57069 z"
   style="opacity:0.97;fill:#ffffff;stroke-width:0.390841" /><path
   id="path131"
   d="m 170.80728,111.12412 -1.17253,-0.97447 1.7675,-0.78852 1.7675,-0.78852 4.19633,1.23166 c 2.34425,0.68806 3.97916,1.35219 3.70428,1.50475 -0.27063,0.1502 -2.42672,0.3893 -4.79131,0.53133 -4.18927,0.25164 -4.32925,0.23331 -5.47177,-0.71623 z"
   style="opacity:0.97;fill:#ffffff;stroke-width:0.390841" /><path
   id="path133"
   d="m 171.83202,105.44143 c -0.90533,-0.57342 -0.16631,-1.09379 1.95259,-1.37487 1.10978,-0.14722 2.56473,-0.35464 3.23322,-0.46094 1.02045,-0.16227 0.87059,-0.005 -0.9342,0.9794 -2.23051,1.21679 -3.33227,1.43872 -4.25161,0.85641 z"
   style="opacity:0.97;fill:#ffffff;stroke-width:0.390841" /><path
   id="path135"
   d="m 186.2455,110.07632 c -1.61222,-0.64366 -4.16246,-1.53501 -5.6672,-1.98079 -1.50473,-0.44577 -2.87238,-0.93939 -3.03922,-1.09693 -0.16683,-0.15753 2.47135,-1.54847 5.86262,-3.09098 8.29958,-3.77503 15.9433,-5.54216 19.92538,-4.606493 1.44697,0.339992 1.51287,0.497803 2.05468,4.919813 0.70542,5.75728 0.93063,5.30905 -3.01406,5.9988 -1.88093,0.32889 -5.61834,0.69448 -8.30538,0.81242 -4.75428,0.20868 -4.96425,0.18301 -7.81682,-0.95584 z"
   style="opacity:0.97;fill:#ffffff;stroke-width:0.390841" /><path
   id="path137"
   d="m 178.81507,95.111173 5.08449,-6.774977 4.20199,-1.873254 c 2.31109,-1.030291 5.2693,-2.463736 6.5738,-3.185434 l 2.37181,-1.31218 1.79461,3.022981 c 1.67277,2.817736 3.95912,7.547676 3.72641,7.709103 -0.0565,0.03921 -3.5324,1.590472 -7.72417,3.447247 -7.35076,3.256067 -7.85578,3.417957 -14.22132,4.558721 -3.62995,0.65052 -6.66565,1.18277 -6.74601,1.18277 -0.0803,0 2.14192,-3.04874 4.93839,-6.774977 z"
   style="opacity:0.97;fill:#ffffff;stroke-width:0.390841" /><path
   id="path139"
   d=""
   style="opacity:0.97;fill:#ffffff;stroke-width:0.390841" /><path
   id="path141"
   d="m 187.09396,84.005169 c 0.31832,-0.376185 1.67596,-2.04703 3.01699,-3.712991 1.34102,-1.66596 2.58802,-3.029018 2.77111,-3.029018 0.18309,0 0.88506,0.697157 1.55992,1.549239 l 1.22702,1.549239 -4.3144,2.163752 c -2.37292,1.190063 -4.43252,2.163751 -4.5769,2.163751 -0.14438,0 -0.002,-0.307787 0.31626,-0.683972 z"
   style="opacity:0.97;fill:#ffffff;stroke-width:0.390841" /><path
   id="path143"
   d="m 147.72525,93.979807 c -2.89549,-2.204467 -4.34572,-3.578882 -4.63528,-4.392946 -0.23177,-0.651601 -1.80344,-3.998785 -3.49259,-7.438187 -3.73972,-7.614723 -5.83506,-12.598242 -5.51483,-13.116386 0.35641,-0.576681 5.06691,-2.865053 8.25357,-4.009606 l 2.79613,-1.004286 0.27387,2.811681 c 0.57383,5.891332 3.63299,15.429378 7.24131,22.577417 l 1.21869,2.414212 -0.67864,2.507108 c -0.37326,1.37891 -0.80683,2.586332 -0.9635,2.68316 -0.15667,0.09683 -2.1811,-1.267648 -4.49873,-3.032167 z"
   style="opacity:0.97;fill:#ffffff;stroke-width:0.390841" /><path
   id="path145"
   d="m 135.43464,84.203026 c -1.82635,-1.522976 -4.78146,-4.084694 -6.56692,-5.692706 l -3.24628,-2.923658 1.23534,-1.274545 c 0.67943,-0.701 1.99441,-1.819671 2.92217,-2.485936 l 1.68683,-1.211391 0.47695,1.46769 c 0.26232,0.807229 1.95754,4.432536 3.76715,8.056237 1.80961,3.623702 3.23512,6.64363 3.1678,6.710953 -0.0673,0.06732 -1.61669,-1.123668 -3.44304,-2.646644 z"
   style="opacity:0.97;fill:#ffffff;stroke-width:0.390841" /><path
   id="path147"
   d="m 140.71251,98.584191 c -3.06111,-0.482599 -4.9545,-1.666727 -10.35729,-6.477465 -1.61222,-1.435549 -4.2504,-3.537262 -5.86262,-4.670473 -3.3607,-2.362199 -5.08093,-3.881334 -5.08093,-4.486966 0,-0.532954 3.83394,-5.295286 4.263,-5.295286 0.1755,0 2.14615,1.629398 4.37922,3.620885 2.23306,1.991487 6.08272,5.268131 8.55479,7.281431 l 4.49467,3.660546 1.29158,3.315079 c 0.71036,1.823293 1.238,3.35299 1.17252,3.399327 -0.0655,0.04634 -1.3502,-0.109849 -2.85494,-0.347078 z"
   style="opacity:0.97;fill:#ffffff;stroke-width:0.390841" /><path
   id="path149"
   d="m 148.86688,99.862773 c -1.88675,-0.345068 -2.04544,-0.466485 -2.63818,-2.018553 -0.34687,-0.90827 -0.63068,-1.781613 -0.63068,-1.940762 0,-0.15915 1.31909,0.703463 2.93131,1.916917 1.61222,1.213454 2.93131,2.272905 2.93131,2.354345 0,0.16819 0.092,0.17925 -2.59376,-0.311947 z"
   style="opacity:0.97;fill:#ffffff;stroke-width:0.390841" /><path
   id="path151"
   d="m 111.30869,106.54599 c 0.11901,-1.73634 0.288,-3.2286 0.37552,-3.31612 0.0875,-0.0875 3.22507,0.86501 6.97232,2.11675 l 6.81318,2.27588 -4.01632,0.27715 c -2.20897,0.15243 -5.35894,0.62054 -6.99995,1.04024 -1.641,0.41969 -3.06857,0.76308 -3.17238,0.76308 -0.10381,0 -0.0914,-1.42064 0.0276,-3.15698 z"
   style="opacity:0.97;fill:#ffffff;stroke-width:0.390841" /><path
   id="path153"
   d="m 133.28653,107.55883 c -0.21496,-0.0705 -5.09484,-1.65588 -10.84418,-3.52301 l -10.45333,-3.39479 0.23102,-1.038516 c 0.7568,-3.402114 1.5202,-5.631086 1.99038,-5.811508 0.72985,-0.280072 3.09169,0.401608 10.4776,3.024066 3.43941,1.221202 7.48461,2.545108 8.98935,2.942013 2.05587,0.542275 3.82788,1.447945 7.12926,3.643705 2.41636,1.60714 4.3132,3.00224 4.21521,3.10023 -0.43379,0.4338 -10.79154,1.36744 -11.73531,1.05781 z"
   style="opacity:0.97;fill:#ffffff;stroke-width:0.390841" /><path
   id="path155"
   d="m 123.71092,94.051762 c -3.33192,-1.265287 -6.62964,-2.414101 -7.32827,-2.552919 -0.69863,-0.138818 -1.27023,-0.431089 -1.27023,-0.649489 0,-0.218401 0.55028,-1.514869 1.22284,-2.88104 l 1.22284,-2.483948 2.19702,2.017738 c 1.20836,1.109755 4.29648,3.569007 6.86249,5.465004 2.60836,1.927284 4.33167,3.433578 3.90841,3.416221 -0.41638,-0.01708 -3.48318,-1.06628 -6.8151,-2.331567 z"
   style="opacity:0.97;fill:#ffffff;stroke-width:0.390841" /><path
   id="path157"
   d="m 112.06014,118.6214 c -0.21709,-0.71336 -0.49163,-2.48124 -0.6101,-3.92861 l -0.21539,-2.63158 2.62285,-0.77983 c 3.99982,-1.18922 7.18825,-1.57222 13.11542,-1.57545 5.01189,-0.003 9.12516,0.61092 10.1066,1.5078 0.27417,0.25055 -9.83721,4.91615 -12.53749,5.78504 -0.77955,0.25085 -3.58276,0.92009 -6.22935,1.4872 -2.64659,0.56712 -5.0473,1.12142 -5.33491,1.23179 -0.33496,0.12853 -0.66482,-0.26557 -0.91763,-1.09636 z"
   style="opacity:0.97;fill:#ffffff;stroke-width:0.390841" /><path
   id="path161"
   d=""
   style="opacity:0.97;fill:#ffffff;stroke-width:0.390841" /><path
   id="path163"
   d="m 115.40423,129.14732 c -2.18499,-5.21984 -2.27005,-4.69891 0.97243,-5.9554 1.56177,-0.60521 4.00463,-1.68039 5.42858,-2.38929 2.25801,-1.12414 3.65156,-1.44399 10.90063,-2.50197 4.5714,-0.66718 8.74148,-1.15978 9.26684,-1.09467 0.92468,0.1146 0.88917,0.20195 -1.11165,2.73419 -2.01636,2.55189 -2.22008,2.68946 -8.33826,5.63063 -8.08441,3.88639 -14.62624,6.80095 -15.26497,6.80095 -0.27713,0 -1.11125,-1.451 -1.8536,-3.22444 z"
   style="opacity:0.97;fill:#ffffff;stroke-width:0.390841" /><path
   id="path165"
   d="m 120.41466,137.74357 c -0.98557,-1.34228 -1.83428,-2.58651 -1.88602,-2.76497 -0.0517,-0.17845 2.5441,-1.51052 5.76854,-2.96015 3.22444,-1.44962 6.80347,-3.11819 7.9534,-3.70793 1.14993,-0.58974 2.16145,-1.00158 2.24782,-0.91521 0.0864,0.0864 -1.98182,2.16154 -4.596,4.61147 -2.61417,2.44993 -5.41516,5.29207 -6.22442,6.31586 l -1.47138,1.86144 z"
   style="opacity:0.97;fill:#ffffff;stroke-width:0.390841" /><path
   id="path167"
   d="m 129.37812,146.86815 c -1.28978,-1.04085 -3.04856,-2.51448 -3.90841,-3.27472 -1.50479,-1.33048 -1.5414,-1.41916 -0.97711,-2.36702 2.54452,-4.27406 15.27269,-16.66781 19.10357,-18.60163 1.35949,-0.68626 2.54717,-1.17238 2.6393,-1.08025 0.0921,0.0921 -0.8142,3.18643 -2.01406,6.87623 -2.07264,6.37375 -2.3402,6.93749 -5.35852,11.29019 -3.63389,5.24042 -6.56063,9.08221 -6.90425,9.0629 -0.12951,-0.007 -1.29075,-0.86484 -2.58052,-1.9057 z"
   style="opacity:0.97;fill:#ffffff;stroke-width:0.390841" /><path
   id="path169"
   d="m 144.4255,154.69812 c -1.82718,-0.61123 -4.07926,-1.42277 -5.00462,-1.8034 -1.59917,-0.6578 -1.63999,-0.71373 -0.82451,-1.12962 0.67327,-0.34336 1.42524,-2.13487 3.49317,-8.32224 2.26833,-6.78702 2.88817,-8.21346 4.45238,-10.24626 2.27708,-2.95924 8.49927,-9.90585 9.02255,-10.073 0.21497,-0.0687 0.99555,1.0135 1.73464,2.4048 l 1.34379,2.52966 -1.30546,4.77005 c -2.38751,8.72381 -5.49501,18.47241 -6.58217,20.64907 -1.32071,2.64427 -1.79914,2.73655 -6.32977,1.22094 z"
   style="opacity:0.97;fill:#ffffff;stroke-width:0.390841" /><path
   id="path171"
   d=""
   style="opacity:0.97;fill:#ffffff;stroke-width:0.390841" /><path
   id="path173"
   d="m 145.64502,117.91064 c 1.41913,-1.76592 2.2809,-2.04069 2.01352,-0.64201 -0.10922,0.57136 -0.68755,1.16524 -1.52242,1.56337 -1.8787,0.89588 -1.90772,0.84143 -0.4911,-0.92136 z"
   style="opacity:0.97;fill:#ffffff;stroke-width:0.390841" /><path
   id="path175"
   d="m 145.69573,110.99051 c -1.28998,-0.24846 -1.08074,-0.68718 0.71366,-1.49634 1.30702,-0.58939 1.65146,-0.62387 1.91834,-0.19204 0.41607,0.67321 -0.37995,1.9816 -1.16265,1.91098 -0.32447,-0.0293 -0.98568,-0.12944 -1.46935,-0.2226 z"
   style="opacity:0.97;fill:#ffffff;stroke-width:0.390841" /><path
   id="path177"
   d=""
   style="opacity:0.97;fill:#ffffff;stroke-width:0.390841" /><path
   id="path179"
   d="m 156.03549,117.78272 c -0.58625,-0.89473 -0.56977,-0.96318 0.33075,-1.37349 0.9291,-0.42332 2.12954,-0.25276 2.12954,0.30257 0,0.15449 -0.41474,0.67053 -0.92165,1.14674 l -0.92164,0.86584 z"
   style="opacity:0.97;fill:#ffffff;stroke-width:0.390841" /><path
   id="path181"
   d="m 158.57974,122.49915 -0.88226,-1.61068 1.64501,-1.67615 c 0.90475,-0.92187 1.68605,-1.63509 1.73622,-1.58492 0.10875,0.10874 -1.31955,6.18528 -1.49514,6.36086 -0.0669,0.0669 -0.51859,-0.60323 -1.00383,-1.48911 z"
   style="opacity:0.97;fill:#ffffff;stroke-width:0.390841" /><path
   id="path183"
   d="m 144.4255,154.68956 c -1.82718,-0.60653 -4.09689,-1.42126 -5.0438,-1.81052 -1.46862,-0.60372 -1.60679,-0.75022 -0.94016,-0.99683 0.82264,-0.30431 0.89561,-0.48187 4.40411,-10.71653 1.80126,-5.25444 2.25265,-6.1667 4.35131,-8.79392 2.80829,-3.51557 8.11774,-9.3804 8.49145,-9.37967 0.1468,2.9e-4 0.87543,1.12917 1.61919,2.50862 1.59035,2.94964 1.76377,1.75739 -2.1648,14.88329 -3.96559,13.24962 -4.9007,15.45232 -6.54763,15.42328 -0.46614,-0.008 -2.34249,-0.51119 -4.16967,-1.11772 z"
   style="opacity:0.97;fill:#ffffff;stroke-width:0.390841" /><path
   id="path185"
   d="m 154.29424,156.72593 c -1.12855,-0.0896 -2.05192,-0.24747 -2.05192,-0.35086 0,-0.1034 0.4198,-1.01757 0.93288,-2.03149 0.76589,-1.51351 2.85969,-7.86507 7.03576,-21.34301 l 0.47122,-1.52081 1.91089,4.45212 c 3.12386,7.27818 7.24246,19.2665 6.71632,19.54969 -1.46531,0.7887 -10.90265,1.57081 -15.01515,1.24436 z"
   style="opacity:0.97;fill:#ffffff;stroke-width:0.390841" /><path
   id="path187"
   d="m 172.14934,153.60113 c -3.24791,-8.56916 -5.2559,-13.50144 -7.65012,-18.7912 -1.58219,-3.49567 -2.87671,-6.62961 -2.87671,-6.96431 0,-0.66573 1.93314,-8.48083 2.15193,-8.69963 0.16671,-0.16671 7.6445,5.47098 8.2624,6.22922 1.52512,1.87156 11.86361,22.59308 11.86361,23.77835 0,0.39324 -8.67864,4.79103 -10.45469,5.29779 -0.7137,0.20364 -0.95761,0.0437 -1.29642,-0.85022 z"
   style="opacity:0.97;fill:#ffffff;stroke-width:0.390841" /><path
   id="path189"
   d="m 182.53251,139.51738 c -2.14963,-4.40197 -3.97612,-8.20626 -4.05888,-8.45399 -0.0828,-0.24773 1.58808,1.38401 3.71299,3.62608 2.1249,2.24207 5.13588,5.0888 6.69107,6.32606 l 2.82761,2.24957 -2.04593,1.70086 c -1.12526,0.93547 -2.30974,1.89304 -2.63219,2.12793 -0.49181,0.35827 -1.21591,-0.86231 -4.49467,-7.57651 z"
   style="opacity:0.97;fill:#ffffff;stroke-width:0.390841" /><path
   id="path191"
   d="m 191.31585,139.65314 c -1.17647,-0.92954 -5.66013,-5.19056 -9.96369,-9.46895 -5.46716,-5.43518 -8.21272,-8.46788 -9.11269,-10.06572 -0.70843,-1.25776 -1.22691,-2.34798 -1.15218,-2.4227 0.0747,-0.0747 1.67441,0.20035 3.55486,0.61129 3.16022,0.69059 3.75378,0.98592 7.84192,3.90176 5.11016,3.64479 10.51342,7.91979 13.66716,10.81332 l 2.19984,2.01833 -2.19249,2.86718 c -1.20587,1.57696 -2.30751,2.99507 -2.44809,3.15137 -0.14059,0.1563 -1.21817,-0.47635 -2.39464,-1.40588 z"
   style="opacity:0.97;fill:#ffffff;stroke-width:0.390841" /></svg>
